<svg xmlns="http://www.w3.org/2000/svg" xmlns:xlink="http://www.w3.org/1999/xlink" width="213.049" height="235.22" viewBox="0 0 213.049 235.22">
  <defs>
    <linearGradient id="linear-gradient" y1="0.5" x2="1" y2="0.5" gradientUnits="objectBoundingBox">
      <stop offset="0.005" stop-color="#a1f9ff"/>
      <stop offset="0.999" stop-color="#0ef"/>
    </linearGradient>
    <linearGradient id="linear-gradient-2" x1="0.741" y1="0.033" x2="0.271" y2="1.016" gradientUnits="objectBoundingBox">
      <stop offset="0.003" stop-color="#0079a4"/>
      <stop offset="0.999" stop-color="#0ef"/>
    </linearGradient>
    <linearGradient id="linear-gradient-3" x1="0.764" y1="0.746" x2="0.289" y2="0.138" gradientUnits="objectBoundingBox">
      <stop offset="0.005" stop-color="#a1f9ff"/>
      <stop offset="1" stop-color="#fff"/>
    </linearGradient>
    <linearGradient id="linear-gradient-4" x1="0.778" y1="0.723" x2="0.513" y2="0.454" xlink:href="#linear-gradient-3"/>
    <linearGradient id="linear-gradient-5" x1="0.334" y1="0.284" x2="0.857" y2="0.947" xlink:href="#linear-gradient-2"/>
  </defs>
  <g id="Grupo_53828" data-name="Grupo 53828" transform="translate(-463.011 -61.905) rotate(-7)">
    <g id="Grupo_53827" data-name="Grupo 53827" transform="translate(449.475 138.561)" style="isolation: isolate">
      <path id="Trazado_100584" data-name="Trazado 100584" d="M544.7,138.561l-86.108,23.885c-18.472,74.807-11.165,154.274,43.318,189.669,68.124-32.689,107.081-111.127,118.622-186.09Z" transform="translate(-449.475 -138.561)" fill="url(#linear-gradient)"/>
      <path id="Trazado_100585" data-name="Trazado 100585" d="M607.2,207.029c.173-.582.332-1.165.5-1.749q.676-2.346,1.318-4.69c.2-.716.389-1.437.583-2.159.156-.6.327-1.2.483-1.8.149-.582.28-1.165.428-1.745q.583-2.312,1.131-4.618c.245-1.019.486-2.04.716-3.061q.532-2.351,1.034-4.714c.206-.971.42-1.948.619-2.922.342-1.711.668-3.424.988-5.135.152-.826.318-1.655.462-2.478q.676-3.8,1.269-7.586l-16.285-8.863q-.586,3.782-1.267,7.584c-.147.823-.313,1.651-.468,2.481q-.469,2.56-.987,5.132c-.2.972-.408,1.95-.617,2.922-.329,1.57-.677,3.144-1.031,4.712q-.35,1.529-.713,3.066c-.37,1.538-.744,3.076-1.136,4.609-.3,1.186-.6,2.372-.909,3.552-.193.721-.384,1.444-.583,2.163q-.639,2.343-1.321,4.683c-.169.583-.327,1.167-.5,1.753q-.936,3.175-1.94,6.328c-.113.368-.235.732-.356,1.1q-.8,2.477-1.634,4.925-1.193,3.525-2.471,7.015c-.105.274-.2.554-.3.831-.958,2.6-1.964,5.166-2.991,7.73-.4.99-.817,1.975-1.23,2.962-.538,1.3-1.076,2.607-1.634,3.9-.444,1.024-.9,2.042-1.353,3.064-.567,1.267-1.131,2.53-1.708,3.781q-.819,1.765-1.667,3.513c-.441.92-.878,1.839-1.327,2.753-.6,1.223-1.232,2.437-1.844,3.651-.447.874-.893,1.749-1.348,2.616-.9,1.721-1.828,3.423-2.761,5.114-.146.261-.28.52-.423.779q-1.651,2.946-3.367,5.832c-.277.47-.567.937-.851,1.408q-1.276,2.122-2.6,4.215c-.381.611-.771,1.222-1.16,1.828q-1.325,2.061-2.687,4.089c-.292.442-.588.891-.885,1.327q-1.762,2.581-3.585,5.11-2.608,3.617-5.359,7.109c-.485.616-.977,1.224-1.471,1.836q-2.11,2.637-4.3,5.2c-.645.755-1.282,1.52-1.938,2.269-.366.416-.737.83-1.107,1.243-1.254,1.4-2.525,2.8-3.811,4.155-.162.169-.316.347-.481.515-1.434,1.507-2.894,2.98-4.375,4.435-.386.384-.778.752-1.167,1.134-1.2,1.167-2.418,2.309-3.653,3.442-.363.332-.726.682-1.1,1.014q-2.307,2.083-4.672,4.079c-.392.335-.792.656-1.186.984Q514.3,321,512.39,322.5c-.544.429-1.1.854-1.643,1.272q-1.67,1.276-3.371,2.512c-.716.514-1.429,1.039-2.149,1.543-1.147.809-2.309,1.59-3.479,2.38-.671.442-1.339.9-2.021,1.342-.8.52-1.625,1.011-2.437,1.514-1.314.818-2.635,1.634-3.98,2.416-.873.515-1.763,1-2.651,1.5-1.288.718-2.58,1.433-3.889,2.12-1.638.854-3.274,1.7-4.939,2.5l16.286,8.867c1.27-.614,2.538-1.235,3.794-1.883.384-.2.76-.417,1.146-.622,1.311-.689,2.6-1.4,3.889-2.118.885-.494,1.778-.984,2.65-1.5,1.342-.781,2.666-1.6,3.982-2.415.619-.382,1.254-.747,1.865-1.131.193-.126.381-.258.57-.386.681-.442,1.35-.9,2.021-1.348,1.17-.779,2.333-1.562,3.479-2.372.724-.507,1.436-1.026,2.147-1.543.634-.463,1.28-.908,1.907-1.377.491-.366.971-.755,1.46-1.131.553-.425,1.1-.843,1.651-1.275q1.908-1.5,3.777-3.051c.394-.326.8-.651,1.194-.98.125-.105.253-.2.379-.308,1.444-1.232,2.875-2.5,4.29-3.773q.552-.506,1.1-1.019c.708-.643,1.428-1.287,2.128-1.95.509-.489,1.011-1,1.522-1.486.391-.379.786-.758,1.172-1.136,1.426-1.4,2.842-2.821,4.223-4.273.05-.055.1-.112.154-.167.157-.169.316-.342.476-.509q1.935-2.052,3.813-4.162c.373-.412.741-.823,1.107-1.245.318-.363.648-.72.961-1.086.34-.384.648-.794.979-1.18q2.188-2.56,4.3-5.2c.309-.392.647-.768.959-1.162.175-.217.337-.452.507-.672q2.744-3.5,5.358-7.112c.058-.081.126-.16.185-.241,1.156-1.606,2.282-3.228,3.4-4.865.3-.444.591-.891.891-1.337.551-.822,1.113-1.637,1.655-2.468.348-.533.681-1.076,1.027-1.612.391-.6.776-1.215,1.164-1.828q1.318-2.091,2.6-4.218c.28-.468.569-.935.846-1.4.1-.154.186-.3.277-.454q1.578-2.671,3.087-5.383c.146-.253.282-.52.431-.776.817-1.486,1.638-2.979,2.432-4.481.115-.211.214-.423.326-.63.459-.873.9-1.752,1.348-2.632.619-1.21,1.241-2.419,1.839-3.64.457-.912.891-1.836,1.331-2.748.4-.83.807-1.653,1.2-2.483.159-.34.306-.689.467-1.031.582-1.254,1.147-2.523,1.71-3.782.451-1.023.911-2.04,1.352-3.069.564-1.29,1.1-2.594,1.645-3.9.323-.781.661-1.557.979-2.342.084-.206.16-.416.242-.621q1.548-3.848,2.993-7.733c.1-.272.2-.553.3-.83q1.283-3.491,2.478-7.012c.094-.267.2-.538.284-.8.463-1.373.9-2.752,1.348-4.123.117-.361.243-.729.363-1.092C605.936,211.258,606.576,209.143,607.2,207.029Z" transform="translate(-429.398 -128.044)" fill="url(#linear-gradient-2)"/>
      <path id="Trazado_100586" data-name="Trazado 100586" d="M538.081,146.379,462.7,167.287c-7.493,34.392-8.681,67.082-3.429,95.031,5.985,31.837,19.871,55.793,41.294,71.3,27.418-14.434,50.742-37.565,69.371-68.854,16.369-27.476,28.223-59.929,34.517-94.352Z" transform="translate(-445.396 -133.71)" fill="url(#linear-gradient-3)"/>
      <path id="Trazado_100587" data-name="Trazado 100587" d="M558.368,153.039c-15.836,33.4-33.806,65.962-56.892,94.917A364.842,364.842,0,0,1,464.438,287.7c7.226,16.693,17.6,30.122,31.044,40.059,26.821-14.33,49.7-37.159,67.987-67.876,16.014-26.878,27.79-58.888,34.1-92.641Z" transform="translate(-440.19 -129.577)" fill="url(#linear-gradient-4)"/>
      <g id="Grupo_53825" data-name="Grupo 53825" transform="translate(49.9 66.604)">
        <path id="Trazado_100588" data-name="Trazado 100588" d="M538.307,180.907l8.406,13.2-55.478,51.852-2.022-1.246-8.946-48.09,2.027,1.246,14.132,22.176,39.855-40.383Z" transform="translate(-480.268 -179.661)" fill="url(#linear-gradient-5)"/>
      </g>
      <g id="Grupo_53826" data-name="Grupo 53826" transform="translate(36.297 66.604)">
        <path id="Trazado_100589" data-name="Trazado 100589" d="M541.491,179.661l8.411,13.2-55.479,51.852-22.55-35.376,13.6-12.714L499.612,218.8Z" transform="translate(-471.873 -179.661)" fill="url(#linear-gradient)"/>
      </g>
    </g>
  </g>
</svg>
