<svg xmlns="http://www.w3.org/2000/svg" width="70" height="70" viewBox="0 0 70 70">
  <g id="Grupo_53259" data-name="Grupo 53259" transform="translate(-0.438)">
    <circle id="Elipse_3951" data-name="Elipse 3951" cx="31" cy="31" r="31" transform="translate(4.438 4)" fill="#0077ec"/>
    <g id="Elipse_3952" data-name="Elipse 3952" transform="translate(0.438)" fill="none" stroke="#d1d1d1" stroke-width="1">
      <circle cx="35" cy="35" r="35" stroke="none"/>
      <circle cx="35" cy="35" r="34.5" fill="none"/>
    </g>
    <g id="surface1" transform="translate(11.931 7.983)">
      <path id="Trazado_106617" data-name="Trazado 106617" d="M44.083,36.083a27.261,27.261,0,0,1-6.529,10.171,34.176,34.176,0,0,1-12.76,7.56,3.9,3.9,0,0,1-1.24.219h-.047a3.959,3.959,0,0,1-.761-.075,4.122,4.122,0,0,1-.523-.143A34.173,34.173,0,0,1,9.448,46.26,27.209,27.209,0,0,1,2.92,36.091C.283,28.934.433,21.051.554,14.715l0-.1c.024-.523.04-1.073.049-1.679A5.727,5.727,0,0,1,6,7.328,22.222,22.222,0,0,0,21.122.953L21.158.92a3.461,3.461,0,0,1,4.7,0l.035.033A22.226,22.226,0,0,0,41.018,7.328a5.727,5.727,0,0,1,5.392,5.61c.009.611.024,1.16.049,1.679v.041C46.58,21.006,46.73,28.906,44.083,36.083Zm0,0" transform="translate(0)" fill="#00dd80"/>
      <path id="Trazado_106618" data-name="Trazado 106618" d="M239.478,36.086a27.26,27.26,0,0,1-6.529,10.171,34.175,34.175,0,0,1-12.76,7.56,3.9,3.9,0,0,1-1.24.219V0a3.467,3.467,0,0,1,2.3.919l.035.033a22.226,22.226,0,0,0,15.126,6.375,5.727,5.727,0,0,1,5.392,5.61c.009.611.024,1.16.049,1.679v.041C241.976,21.01,242.125,28.909,239.478,36.086Zm0,0" transform="translate(-195.395 -0.003)" fill="#00aa63"/>
      <path id="Trazado_106619" data-name="Trazado 106619" d="M117.827,141.864a13.483,13.483,0,0,1-13.419,13.467h-.047a13.466,13.466,0,1,1,0-26.933h.047A13.483,13.483,0,0,1,117.827,141.864Zm0,0" transform="translate(-80.855 -114.847)" fill="#fff"/>
      <path id="Trazado_106620" data-name="Trazado 106620" d="M232.368,141.864a13.483,13.483,0,0,1-13.419,13.467V128.4A13.483,13.483,0,0,1,232.368,141.864Zm0,0" transform="translate(-195.395 -114.847)" fill="#e1ebf0"/>
      <path id="Trazado_106621" data-name="Trazado 106621" d="M167.078,214.686l-6.065,6.066-1.311,1.311a1.587,1.587,0,0,1-2.243,0l-2.818-2.819A1.585,1.585,0,0,1,156.884,217l1.7,1.7,6.255-6.255a1.585,1.585,0,0,1,2.242,2.242Zm0,0" transform="translate(-137.459 -189.609)" fill="#b4d2d7"/>
      <path id="Trazado_106622" data-name="Trazado 106622" d="M225.014,214.686l-6.065,6.066v-4.485l3.823-3.823a1.585,1.585,0,0,1,2.242,2.242Zm0,0" transform="translate(-195.395 -189.609)" fill="#6fa5aa"/>
    </g>
  </g>
</svg>
