<svg xmlns="http://www.w3.org/2000/svg" xmlns:xlink="http://www.w3.org/1999/xlink" width="118" height="139" viewBox="0 0 118 139">
  <defs>
    <clipPath id="clip-path">
      <rect id="Rectángulo_5230" data-name="Rectángulo 5230" width="118" height="139" transform="translate(824 3049)" fill="#ffd947" stroke="#707070" stroke-width="1"/>
    </clipPath>
  </defs>
  <g id="Enmascarar_grupo_68" data-name="Enmascarar grupo 68" transform="translate(-824 -3049)" clip-path="url(#clip-path)">
    <g id="antivirus" transform="translate(824 3059.5)">
      <path id="Trazado_102308" data-name="Trazado 102308" d="M91.552,22.379h18.311a4.068,4.068,0,0,1,4.068,4.068V99.688H4.069V26.447a4.068,4.068,0,0,1,4.068-4.068Zm0,0" fill="#004080"/>
      <path id="Trazado_102309" data-name="Trazado 102309" d="M105.793,32.551V99.689H12.207V32.551a2.035,2.035,0,0,1,2.035-2.035h89.517a2.035,2.035,0,0,1,2.035,2.035Zm0,0" fill="#056ace"/>
      <path id="Trazado_102310" data-name="Trazado 102310" d="M105.793,32.551V54.463C58.186,53.2,28.157,67.971,12.207,79.364V32.551a2.035,2.035,0,0,1,2.035-2.035h89.517a2.035,2.035,0,0,1,2.035,2.035Zm0,0" fill="#0077ec"/>
      <path id="Trazado_102311" data-name="Trazado 102311" d="M118,101.723v8.138A8.138,8.138,0,0,1,109.862,118H8.137A8.138,8.138,0,0,1,0,109.862v-8.138a2.035,2.035,0,0,1,2.035-2.035H115.965A2.035,2.035,0,0,1,118,101.723Zm0,0" fill="#7f8c8d"/>
      <path id="Trazado_102312" data-name="Trazado 102312" d="M72.761,107.827H45.238a4.07,4.07,0,0,1-3.64-2.251l-2.944-5.888h40.69L76.4,105.576a4.07,4.07,0,0,1-3.64,2.251Zm0,0" fill="#547580"/>
      <path id="Trazado_102313" data-name="Trazado 102313" d="M26.448,107.827a2.035,2.035,0,0,1-2.035,2.035H0v-4.069H24.414a2.035,2.035,0,0,1,2.035,2.035Zm0,0" fill="#547580"/>
      <path id="Trazado_102314" data-name="Trazado 102314" d="M34.586,109.862H32.552a2.035,2.035,0,1,1,0-4.069h2.035a2.035,2.035,0,1,1,0,4.069Zm0,0" fill="#547580"/>
      <path id="Trazado_102315" data-name="Trazado 102315" d="M118,105.792v4.069H93.586a2.035,2.035,0,0,1,0-4.069Zm0,0" fill="#547580"/>
      <path id="Trazado_102316" data-name="Trazado 102316" d="M85.448,109.862H83.413a2.035,2.035,0,1,1,0-4.069h2.035a2.035,2.035,0,1,1,0,4.069Zm0,0" fill="#547580"/>
      <g id="Grupo_54373" data-name="Grupo 54373">
        <path id="Trazado_102317" data-name="Trazado 102317" d="M91.552,93.585a2.036,2.036,0,0,1-1.831-1.125l-2.035-4.069a2.035,2.035,0,0,1,3.642-1.819l2.035,4.069a2.035,2.035,0,0,1-1.81,2.944Zm0,0" fill="#e57e25"/>
        <path id="Trazado_102318" data-name="Trazado 102318" d="M79.345,93.585a2.034,2.034,0,0,1-1.819-2.944l2.035-4.069A2.035,2.035,0,0,1,83.2,88.391L81.167,92.46a2.034,2.034,0,0,1-1.822,1.125Zm0,0" fill="#e57e25"/>
        <path id="Trazado_102319" data-name="Trazado 102319" d="M85.448,93.585a2.035,2.035,0,0,1-2.035-2.035V87.482a2.035,2.035,0,1,1,4.069,0v4.069A2.035,2.035,0,0,1,85.448,93.585Zm0,0" fill="#e57e25"/>
        <path id="Trazado_102320" data-name="Trazado 102320" d="M89.517,81.379A2.035,2.035,0,0,1,87.7,78.434l2.034-4.068a2.036,2.036,0,0,1,3.642,1.819L91.34,80.254a2.035,2.035,0,0,1-1.823,1.125Zm0,0" fill="#e57e25"/>
        <path id="Trazado_102321" data-name="Trazado 102321" d="M81.379,81.379a2.034,2.034,0,0,1-1.83-1.125l-2.035-4.069a2.035,2.035,0,1,1,3.642-1.819l2.035,4.068a2.035,2.035,0,0,1-1.811,2.945Zm0,0" fill="#e57e25"/>
        <path id="Trazado_102322" data-name="Trazado 102322" d="M85.448,81.379a2.035,2.035,0,0,1-2.035-2.035V75.275a2.035,2.035,0,1,1,4.069,0v4.069A2.035,2.035,0,0,1,85.448,81.379Zm0,0" fill="#e57e25"/>
        <path id="Trazado_102323" data-name="Trazado 102323" d="M28.483,69.171a2.033,2.033,0,0,1-1.831-1.124l-2.035-4.069a2.035,2.035,0,1,1,3.642-1.819l2.035,4.068a2.034,2.034,0,0,1-1.81,2.944Zm0,0" fill="#e57e25"/>
        <path id="Trazado_102324" data-name="Trazado 102324" d="M36.621,69.171A2.034,2.034,0,0,1,34.8,66.227l2.035-4.068a2.035,2.035,0,1,1,3.642,1.819l-2.035,4.069a2.032,2.032,0,0,1-1.822,1.124Zm0,0" fill="#e57e25"/>
        <path id="Trazado_102325" data-name="Trazado 102325" d="M32.552,69.171a2.034,2.034,0,0,1-2.035-2.035V63.068a2.035,2.035,0,0,1,4.069,0v4.068A2.034,2.034,0,0,1,32.552,69.171Zm0,0" fill="#e57e25"/>
        <path id="Trazado_102326" data-name="Trazado 102326" d="M26.448,81.379a2.035,2.035,0,0,1-1.819-2.945l2.035-4.068a2.035,2.035,0,1,1,3.642,1.819l-2.035,4.069a2.034,2.034,0,0,1-1.823,1.125Zm0,0" fill="#e57e25"/>
        <path id="Trazado_102327" data-name="Trazado 102327" d="M38.655,81.379a2.034,2.034,0,0,1-1.83-1.125L34.79,76.184a2.035,2.035,0,1,1,3.642-1.819l2.035,4.068a2.035,2.035,0,0,1-1.811,2.945Zm0,0" fill="#e57e25"/>
        <path id="Trazado_102328" data-name="Trazado 102328" d="M32.552,81.379a2.035,2.035,0,0,1-2.035-2.035V75.275a2.035,2.035,0,1,1,4.069,0v4.069A2.035,2.035,0,0,1,32.552,81.379Zm0,0" fill="#e57e25"/>
      </g>
      <path id="Trazado_102329" data-name="Trazado 102329" d="M78.6,17.016C61.342-.247,51.849,33.538,34.587,16.275c0,0-7.073,5.609,0,18.311a28.929,28.929,0,0,0,22.438-7.5A42.375,42.375,0,0,1,40.69,42.723c1.611,1.933,3.945,5.98,6.1,8.138C69.172,73.24,79.345,61.034,79.345,61.034,62.083,43.771,95.867,34.278,78.6,17.016Zm0,0" fill="#f9eab0"/>
      <path id="Trazado_102330" data-name="Trazado 102330" d="M94.428,1.191a4.07,4.07,0,0,0-5.754,0l-13.2,13.185a24.758,24.758,0,0,1,5.764,5.764L94.428,6.955a4.07,4.07,0,0,0,0-5.764Zm0,0" fill="#af8066"/>
      <path id="Trazado_102331" data-name="Trazado 102331" d="M77.31,85.447V81.379a2.263,2.263,0,0,1,2.035-2.035H89.517v8.138H79.345a2.263,2.263,0,0,1-2.035-2.035Zm0,0" fill="#f29c1f"/>
      <path id="Trazado_102332" data-name="Trazado 102332" d="M97.655,83.413a4.068,4.068,0,0,1-4.068,4.069H89.517V79.344h4.069A4.068,4.068,0,0,1,97.655,83.413Zm0,0" fill="#f0c419"/>
      <path id="Trazado_102333" data-name="Trazado 102333" d="M40.689,69.171V73.24a2.263,2.263,0,0,1-2.035,2.035H28.483V67.137H38.655a2.265,2.265,0,0,1,2.035,2.035Zm0,0" fill="#f29c1f"/>
      <path id="Trazado_102334" data-name="Trazado 102334" d="M20.345,71.206a4.069,4.069,0,0,1,4.068-4.069h4.069v8.138H24.413a4.069,4.069,0,0,1-4.068-4.069Zm0,0" fill="#f0c419"/>
      <path id="Trazado_102335" data-name="Trazado 102335" d="M49.845,53.578a2.035,2.035,0,0,1-1.133-3.725A32.489,32.489,0,0,0,59.155,35.865a2.035,2.035,0,1,1,3.78,1.51A35.984,35.984,0,0,1,50.972,53.244a2.04,2.04,0,0,1-1.127.334Zm0,0" fill="#fac176"/>
    </g>
  </g>
</svg>
