<svg xmlns="http://www.w3.org/2000/svg" xmlns:xlink="http://www.w3.org/1999/xlink" width="715" height="208.711" viewBox="0 0 715 208.711">
  <defs>
    <clipPath id="clip-path">
      <path id="Trazado_101023" data-name="Trazado 101023" d="M1995.85,652.692s-6.124-6.153-23.689-4.706-20.9,6.361-22.485,8.6c-2.349-.677-4.368-6.956-2.685-12.316,2.844-9.052,45.132-15.121,49.456-3.907C1998.182,646.234,1997.456,649.864,1995.85,652.692Z" transform="translate(-1946.369 -634.281)" fill="#205099"/>
    </clipPath>
  </defs>
  <g id="Grupo_57826" data-name="Grupo 57826" transform="translate(-180 -3557)">
    <rect id="Rectángulo_5231" data-name="Rectángulo 5231" width="715" height="163" transform="translate(180 3602.711)" fill="#03e6b0" opacity="0.2"/>
    <path id="Trazado_106624" data-name="Trazado 106624" d="M6.457,14.949a6.057,6.057,0,0,1-.316,2.133,6.509,6.509,0,0,1-1.395,1.793q-1.1,1.1-1.371,1.453a4.413,4.413,0,0,0-.949,2.766,3.239,3.239,0,0,0,.785,2.332,3.017,3.017,0,0,0,2.285.82,3.033,3.033,0,0,0,2.227-.82,3.015,3.015,0,0,0,.855-2.191H9.984a4.119,4.119,0,0,1-1.254,3.1A4.536,4.536,0,0,1,5.5,27.488a4.465,4.465,0,0,1-3.275-1.172,4.287,4.287,0,0,1-1.189-3.2,5.275,5.275,0,0,1,.621-2.484,11.462,11.462,0,0,1,2.3-2.766,2.887,2.887,0,0,0,1.078-2.109l.023-.809Zm.188-3.926a.949.949,0,0,1-.258.674.916.916,0,0,1-.7.275.923.923,0,0,1-.973-.949.9.9,0,0,1,.264-.656.946.946,0,0,1,.709-.27.927.927,0,0,1,.7.27A.914.914,0,0,1,6.645,11.023ZM25.254,17.68A6.115,6.115,0,0,1,23.326,21.8a6.377,6.377,0,0,1-4.354,1.43,6.018,6.018,0,0,1-3.357-.949A6.189,6.189,0,0,1,13.359,19.6a9.581,9.581,0,0,1-.809-3.979V13.4a9.669,9.669,0,0,1,.8-4.031,6.129,6.129,0,0,1,2.291-2.713A6.247,6.247,0,0,1,19.078,5.7a6.108,6.108,0,0,1,4.33,1.477,6.186,6.186,0,0,1,1.846,4.09H23.8q-.539-4.348-4.723-4.348a4.475,4.475,0,0,0-3.7,1.736A7.527,7.527,0,0,0,14,13.454v2.088a7.582,7.582,0,0,0,1.342,4.715,4.323,4.323,0,0,0,3.627,1.759,4.8,4.8,0,0,0,3.41-1.084A5.2,5.2,0,0,0,23.8,17.68Zm2.4-1.207a7.461,7.461,0,0,1,.709-3.293A5.326,5.326,0,0,1,33.3,10.086a5.216,5.216,0,0,1,4.1,1.775,6.841,6.841,0,0,1,1.57,4.705v.293a7.527,7.527,0,0,1-.709,3.311,5.294,5.294,0,0,1-2,2.268,5.479,5.479,0,0,1-2.941.8,5.221,5.221,0,0,1-4.1-1.775,6.825,6.825,0,0,1-1.576-4.705Zm1.406.387a5.753,5.753,0,0,0,1.178,3.732,3.985,3.985,0,0,0,6.164,0,5.943,5.943,0,0,0,1.178-3.85v-.27a6.45,6.45,0,0,0-.539-2.66,4.331,4.331,0,0,0-1.512-1.869,3.863,3.863,0,0,0-2.227-.662,3.747,3.747,0,0,0-3.059,1.471,5.952,5.952,0,0,0-1.184,3.85ZM34.7,5.141h1.7L33.691,8.41,32.461,8.4Zm8.449,5.18.047,2.063a4.694,4.694,0,0,1,1.758-1.723,4.821,4.821,0,0,1,2.344-.574q3,0,3.809,2.461a4.76,4.76,0,0,1,1.816-1.822,5.032,5.032,0,0,1,2.508-.639q4.078,0,4.16,4.453V23H58.184V14.645a3.78,3.78,0,0,0-.732-2.52,2.982,2.982,0,0,0-2.35-.82,3.735,3.735,0,0,0-2.555.979,3.458,3.458,0,0,0-1.16,2.326V23H49.98V14.539a3.474,3.474,0,0,0-.768-2.432,3.055,3.055,0,0,0-2.326-.8,3.537,3.537,0,0,0-2.273.756A4.433,4.433,0,0,0,43.207,14.3V23H41.8V10.32Zm19.219,6.152a7.461,7.461,0,0,1,.709-3.293,5.326,5.326,0,0,1,4.939-3.094,5.216,5.216,0,0,1,4.1,1.775,6.841,6.841,0,0,1,1.57,4.705v.293a7.527,7.527,0,0,1-.709,3.311,5.294,5.294,0,0,1-2,2.268,5.479,5.479,0,0,1-2.941.8,5.221,5.221,0,0,1-4.1-1.775,6.825,6.825,0,0,1-1.576-4.705Zm1.406.387a5.753,5.753,0,0,0,1.178,3.732,3.985,3.985,0,0,0,6.164,0,5.943,5.943,0,0,0,1.178-3.85v-.27a6.45,6.45,0,0,0-.539-2.66,4.331,4.331,0,0,0-1.512-1.869,3.863,3.863,0,0,0-2.227-.662,3.747,3.747,0,0,0-3.059,1.471,5.952,5.952,0,0,0-1.184,3.85Zm23.555,6.375a5.5,5.5,0,0,1-2.924-.8,5.431,5.431,0,0,1-2.033-2.221,6.924,6.924,0,0,1-.727-3.193v-.5a7.461,7.461,0,0,1,.709-3.293,5.641,5.641,0,0,1,1.975-2.3,4.871,4.871,0,0,1,2.742-.838,4.578,4.578,0,0,1,3.662,1.576,6.393,6.393,0,0,1,1.354,4.307v.785H83.039v.27a5.309,5.309,0,0,0,1.236,3.592,3.933,3.933,0,0,0,3.111,1.436,4.569,4.569,0,0,0,1.986-.41,4.405,4.405,0,0,0,1.564-1.312l.879.668A5.116,5.116,0,0,1,87.328,23.234ZM87.07,11.281a3.506,3.506,0,0,0-2.666,1.16,5.36,5.36,0,0,0-1.318,3.117h7.605v-.152a4.653,4.653,0,0,0-1.043-2.977A3.232,3.232,0,0,0,87.07,11.281Zm9.023-.961.047,2.063A4.694,4.694,0,0,1,97.9,10.66a4.821,4.821,0,0,1,2.344-.574q3,0,3.809,2.461a4.76,4.76,0,0,1,1.816-1.822,5.032,5.032,0,0,1,2.508-.639q4.078,0,4.16,4.453V23h-1.406V14.645a3.78,3.78,0,0,0-.732-2.52,2.982,2.982,0,0,0-2.35-.82,3.735,3.735,0,0,0-2.555.979,3.458,3.458,0,0,0-1.16,2.326V23h-1.406V14.539a3.474,3.474,0,0,0-.768-2.432,3.055,3.055,0,0,0-2.326-.8,3.537,3.537,0,0,0-2.273.756A4.433,4.433,0,0,0,96.152,14.3V23H94.746V10.32Zm30.188,6.469a7.636,7.636,0,0,1-1.312,4.705,4.18,4.18,0,0,1-3.516,1.74,4.693,4.693,0,0,1-3.984-1.828v6.469h-1.395V10.32h1.3l.07,1.793a4.5,4.5,0,0,1,3.973-2.027,4.217,4.217,0,0,1,3.568,1.723,7.8,7.8,0,0,1,1.295,4.781Zm-1.406-.246a6.522,6.522,0,0,0-1-3.832A3.212,3.212,0,0,0,121.1,11.3a3.7,3.7,0,0,0-3.633,2.426v6.082a3.724,3.724,0,0,0,1.441,1.664,4.157,4.157,0,0,0,2.215.574,3.182,3.182,0,0,0,2.76-1.412A7.1,7.1,0,0,0,124.875,16.543Zm9.422,6.691a5.5,5.5,0,0,1-2.924-.8,5.431,5.431,0,0,1-2.033-2.221,6.924,6.924,0,0,1-.727-3.193v-.5a7.461,7.461,0,0,1,.709-3.293,5.641,5.641,0,0,1,1.975-2.3,4.871,4.871,0,0,1,2.742-.838,4.578,4.578,0,0,1,3.662,1.576,6.393,6.393,0,0,1,1.354,4.307v.785h-9.047v.27a5.309,5.309,0,0,0,1.236,3.592,3.933,3.933,0,0,0,3.111,1.436,4.569,4.569,0,0,0,1.986-.41,4.405,4.405,0,0,0,1.564-1.312l.879.668A5.116,5.116,0,0,1,134.3,23.234Zm-.258-11.953a3.506,3.506,0,0,0-2.666,1.16,5.36,5.36,0,0,0-1.318,3.117h7.605v-.152a4.653,4.653,0,0,0-1.043-2.977A3.232,3.232,0,0,0,134.039,11.281Zm8.672,10.535h8.238V23h-9.973V21.969l7.688-10.43h-7.453V10.32h9.223v1.053ZM161.461,23a6.632,6.632,0,0,1-.27-1.77,4.89,4.89,0,0,1-1.881,1.482,5.76,5.76,0,0,1-2.42.521,4.25,4.25,0,0,1-2.959-1.02,3.321,3.321,0,0,1-1.131-2.578,3.394,3.394,0,0,1,1.541-2.93,7.4,7.4,0,0,1,4.295-1.078h2.543V14.188a2.778,2.778,0,0,0-.838-2.139,3.463,3.463,0,0,0-2.443-.779,3.824,3.824,0,0,0-2.426.75,2.228,2.228,0,0,0-.961,1.8l-1.406-.012a3.261,3.261,0,0,1,1.406-2.619,5.415,5.415,0,0,1,3.457-1.107,4.939,4.939,0,0,1,3.346,1.061,3.805,3.805,0,0,1,1.26,2.959v6a7.442,7.442,0,0,0,.387,2.754V23Zm-4.406-1.008a4.708,4.708,0,0,0,2.514-.68A4,4,0,0,0,161.18,19.5V16.707h-2.508a6.284,6.284,0,0,0-3.281.768,2.3,2.3,0,0,0-1.184,2.045,2.267,2.267,0,0,0,.791,1.77A2.98,2.98,0,0,0,157.055,21.992Zm15.117-10.477a5.238,5.238,0,0,0-.949-.082,3.425,3.425,0,0,0-2.221.732,4.012,4.012,0,0,0-1.295,2.127V23h-1.395V10.32h1.371l.023,2.016a3.729,3.729,0,0,1,3.574-2.25,2.306,2.306,0,0,1,.926.152Zm4.793,6.738a6.143,6.143,0,0,1,.375-2.224,6.647,6.647,0,0,1,1.512-1.984,14.9,14.9,0,0,0,1.494-1.615,3.815,3.815,0,0,0,.516-1.042,4.242,4.242,0,0,0,.182-1.294,3.244,3.244,0,0,0-.779-2.3,2.824,2.824,0,0,0-2.174-.837,3.192,3.192,0,0,0-2.268.8,2.9,2.9,0,0,0-.885,2.174h-1.395a4.014,4.014,0,0,1,1.3-3.076A4.657,4.657,0,0,1,178.09,5.7a4.277,4.277,0,0,1,3.182,1.177,4.333,4.333,0,0,1,1.166,3.19,5.072,5.072,0,0,1-.574,2.371,10.243,10.243,0,0,1-2.18,2.582,3.982,3.982,0,0,0-1.324,3.231Zm-.187,3.92a.971.971,0,0,1,.252-.678.909.909,0,0,1,.709-.277.932.932,0,0,1,.709.277.947.947,0,0,1,.264.678.892.892,0,0,1-.264.654.955.955,0,0,1-.709.265.931.931,0,0,1-.709-.265A.914.914,0,0,1,176.777,22.174Z" transform="translate(670 3667.059)" fill="#12263f"/>
    <g id="Grupo_54031" data-name="Grupo 54031" transform="translate(-191.648 3374.911)">
      <g id="BG_2" data-name="BG 2" transform="translate(416.308 182.089)">
        <path id="Trazado_100947" data-name="Trazado 100947" d="M491.72,382.581H913.668s-42.833-56.5-20.049-74.729,49.253-65.519,2.775-84.657S755.87,267.613,712.8,219.805c-61.573-68.352-160.216-30.441-173.988,9.038-16.947,48.581,12.428,63.833,0,102.811C530.342,358.233,491.72,382.581,491.72,382.581Z" transform="translate(-491.72 -182.089)" fill="#0077ec" opacity="0.2"/>
        <g id="Grupo_53992" data-name="Grupo 53992" transform="translate(72.015 63.753)">
          <g id="Grupo_53991" data-name="Grupo 53991">
            <path id="Trazado_100948" data-name="Trazado 100948" d="M1011.614,627.988l-.272-2.389a21.884,21.884,0,0,0-8.1,2.577l1.159,2.11a19.514,19.514,0,0,0-5.9,4.964l-.628-.5-1.237-.984-.017-.012a21.855,21.855,0,0,0-3.911,7.556l2.3.671a19.662,19.662,0,0,0-.676,5.926h8.912a10.6,10.6,0,1,1,21.176,0h8.907a18.947,18.947,0,0,0-.04-2.662l2.39-.272a21.713,21.713,0,0,0-2.57-8.107L1031,638.027a19.538,19.538,0,0,0-4.969-5.9l1.164-1.461.33-.421a21.942,21.942,0,0,0-7.552-3.9l-.67,2.3A19.725,19.725,0,0,0,1011.614,627.988Z" transform="translate(-992.71 -625.599)" fill="#004080"/>
          </g>
        </g>
        <g id="Grupo_53993" data-name="Grupo 53993" transform="translate(198.653 159.491)">
          <path id="Trazado_100949" data-name="Trazado 100949" d="M1893.428,1295.853a10.937,10.937,0,0,0-3.7-2.236l.151-.422.3-.834,0-.011a12.24,12.24,0,0,0-4.713-.716l.059,1.342a10.943,10.943,0,0,0-4.192,1.036l-.574-1.219a12.184,12.184,0,0,0-3.843,2.825l.994.911a10.913,10.913,0,0,0-2.236,3.7l-1.268-.454a12.321,12.321,0,0,0-.716,4.714l1.343-.059a10.938,10.938,0,0,0,1.036,4.192l-1.219.574a12.19,12.19,0,0,0,2.825,3.843l.911-.994a10.917,10.917,0,0,0,3.7,2.236l-.323.9-.128.367,0,0a12.325,12.325,0,0,0,4.713.716l-.059-1.343a10.953,10.953,0,0,0,4.2-1.04l.574,1.219a12.164,12.164,0,0,0,3.839-2.822l-.994-.911a10.941,10.941,0,0,0,2.239-3.7l.984.355.282.1a12.3,12.3,0,0,0,.713-4.71l-1.342.058a11.056,11.056,0,0,0-1.037-4.2l1.219-.574a12.256,12.256,0,0,0-2.825-3.836Zm-7.418,14.391a6.294,6.294,0,1,1,4.648-2.041h0A6.285,6.285,0,0,1,1886.01,1310.244Zm.009-11.915c-.084,0-.167,0-.251.006a5.62,5.62,0,1,0,4.391,9.41h0a5.622,5.622,0,0,0-4.14-9.416Z" transform="translate(-1873.688 -1291.622)" fill="none"/>
        </g>
        <g id="Grupo_53994" data-name="Grupo 53994" transform="translate(354.521 60.597)">
          <path id="Trazado_100950" data-name="Trazado 100950" d="M2967.782,605.739a5.409,5.409,0,0,0-1.828-1.106l.075-.209.148-.413,0-.005a6.057,6.057,0,0,0-2.332-.354l.029.664a5.413,5.413,0,0,0-2.073.513l-.284-.6a6.033,6.033,0,0,0-1.9,1.4l.492.45a5.4,5.4,0,0,0-1.105,1.828l-.627-.225a6.092,6.092,0,0,0-.354,2.331l.664-.029a5.416,5.416,0,0,0,.513,2.074l-.6.284a6.029,6.029,0,0,0,1.4,1.9l.45-.492a5.394,5.394,0,0,0,1.828,1.106l-.159.443-.064.182,0,0a6.1,6.1,0,0,0,2.332.354l-.029-.664a5.423,5.423,0,0,0,2.075-.515l.284.6a6.02,6.02,0,0,0,1.9-1.4l-.492-.451a5.417,5.417,0,0,0,1.107-1.829l.487.175.14.049a6.085,6.085,0,0,0,.352-2.33l-.664.029a5.465,5.465,0,0,0-.513-2.077l.6-.284a6.061,6.061,0,0,0-1.4-1.9Zm-1.494,6a2.947,2.947,0,1,1-.184-4.164A2.947,2.947,0,0,1,2966.288,611.734Z" transform="translate(-2958.018 -603.646)" fill="#004080"/>
        </g>
      </g>
      <g id="hacker" transform="translate(403.648 234.884)">
        <g id="error" transform="translate(33.653 89.135)">
          <g id="Grupo_53995" data-name="Grupo 53995">
            <path id="Trazado_100951" data-name="Trazado 100951" d="M652.854,1170.453l-14.822,25.672a2,2,0,0,0,1.728,2.993H669.4a2,2,0,0,0,1.728-2.993l-14.822-25.672A2,2,0,0,0,652.854,1170.453Z" transform="translate(-637.762 -1169.456)" fill="#ffd145"/>
          </g>
          <path id="Trazado_100952" data-name="Trazado 100952" d="M676.961,1205.519H647.317a.729.729,0,0,1-.629-1.092l14.823-25.672a.745.745,0,0,1,1.259,0l14.82,25.67a.728.728,0,0,1-.629,1.092Zm-29.438-.847h29.233l-14.617-25.315Zm14.514-25.5v0Zm.208,0Z" transform="translate(-645.319 -1177.122)"/>
          <g id="Grupo_53996" data-name="Grupo 53996" transform="translate(14.605 9.552)">
            <path id="Trazado_100953" data-name="Trazado 100953" d="M742.466,1246.921h0a1.619,1.619,0,0,1-1.615-1.508l-.5-7.242a2.117,2.117,0,0,1,2.112-2.262h0a2.117,2.117,0,0,1,2.112,2.262l-.5,7.242A1.618,1.618,0,0,1,742.466,1246.921Z" transform="translate(-740.207 -1235.909)"/>
            <circle id="Elipse_4161" data-name="Elipse 4161" cx="1.597" cy="1.597" r="1.597" transform="translate(0 13.89) rotate(-45)"/>
          </g>
        </g>
        <rect id="shadow" width="442.826" height="2.376" rx="1.188" transform="translate(0 144.739)" fill="#0d3a80"/>
        <g id="laptop_02" data-name="laptop 02" transform="translate(8.585 36.192)">
          <path id="Trazado_100954" data-name="Trazado 100954" d="M628.676,903.994H475.008a4.127,4.127,0,0,1-4.041-3.744l-7.581-95.362a3.407,3.407,0,0,1,3.446-3.744H620.5a4.127,4.127,0,0,1,4.041,3.744l7.581,95.362A3.407,3.407,0,0,1,628.676,903.994Z" transform="translate(-463.374 -801.145)" fill="#b3d1ff"/>
          <path id="Trazado_100955" data-name="Trazado 100955" d="M479.105,907.438a3.365,3.365,0,0,1-3.291-3.049l-7.581-95.362a2.778,2.778,0,0,1,2.806-3.049H624.707A3.365,3.365,0,0,1,628,809.027l7.581,95.362a2.778,2.778,0,0,1-2.806,3.049Z" transform="translate(-467.526 -805.283)" fill="#004080"/>
          <g id="Grupo_53997" data-name="Grupo 53997" transform="translate(5.488 4.158)">
            <path id="Trazado_100956" data-name="Trazado 100956" d="M659.461,924.127H509.03l-7.477-94.055H651.984Z" transform="translate(-501.553 -830.071)" fill="#aae0ff"/>
          </g>
          <g id="Grupo_54000" data-name="Grupo 54000" transform="translate(8.569 102.858)">
            <g id="Grupo_53998" data-name="Grupo 53998">
              <path id="Trazado_100957" data-name="Trazado 100957" d="M708.254,1516.7v2.5a1.913,1.913,0,0,1-.025.379,3.257,3.257,0,0,1-3.236,2.882H526.245a3.257,3.257,0,0,1-3.236-2.882,1.9,1.9,0,0,1-.025-.379v-2.5Z" transform="translate(-522.984 -1516.699)" fill="#2572e8"/>
              <path id="Trazado_100958" data-name="Trazado 100958" d="M708.38,1536.745a3.257,3.257,0,0,1-3.236,2.881H526.4a3.257,3.257,0,0,1-3.236-2.881Z" transform="translate(-523.135 -1533.863)" fill="#3358cc"/>
            </g>
            <g id="Grupo_53999" data-name="Grupo 53999" transform="translate(64.942)">
              <path id="Trazado_100959" data-name="Trazado 100959" d="M1095.094,1516.7v2.5a1.9,1.9,0,0,1-.025.379,3.257,3.257,0,0,1-3.236,2.882H978.027a3.276,3.276,0,0,1-3.236-2.882c0-.126-.025-.252-.025-.379v-2.5Z" transform="translate(-974.766 -1516.699)" fill="#599aff"/>
              <path id="Trazado_100960" data-name="Trazado 100960" d="M1095.22,1536.745a3.257,3.257,0,0,1-3.235,2.881H978.178a3.276,3.276,0,0,1-3.236-2.881Z" transform="translate(-974.917 -1533.863)" fill="#3358cc"/>
            </g>
          </g>
        </g>
        <g id="laptop_01" data-name="laptop 01" transform="translate(238.132 36.192)">
          <path id="Trazado_100961" data-name="Trazado 100961" d="M2238.187,903.994h153.667a4.127,4.127,0,0,0,4.042-3.744l7.581-95.362a3.407,3.407,0,0,0-3.446-3.744H2246.364a4.127,4.127,0,0,0-4.041,3.744l-7.581,95.362A3.407,3.407,0,0,0,2238.187,903.994Z" transform="translate(-2209.65 -801.145)" fill="#b3d1ff"/>
          <path id="Trazado_100962" data-name="Trazado 100962" d="M2396.063,907.438a3.365,3.365,0,0,0,3.291-3.049l7.581-95.362a2.778,2.778,0,0,0-2.806-3.049H2250.461a3.364,3.364,0,0,0-3.291,3.049l-7.581,95.362a2.778,2.778,0,0,0,2.807,3.049Z" transform="translate(-2213.803 -805.283)" fill="#004080"/>
          <g id="Grupo_54001" data-name="Grupo 54001" transform="translate(30.442 4.158)">
            <path id="Trazado_100963" data-name="Trazado 100963" d="M2272.04,924.127h150.431l7.477-94.055H2279.518Z" transform="translate(-2272.04 -830.071)" fill="#aae0ff"/>
          </g>
          <g id="Grupo_54004" data-name="Grupo 54004" transform="translate(0 102.858)">
            <g id="Grupo_54002" data-name="Grupo 54002">
              <path id="Trazado_100964" data-name="Trazado 100964" d="M2060.261,1516.7v2.5a1.922,1.922,0,0,0,.025.379,3.257,3.257,0,0,0,3.236,2.882h178.749a3.257,3.257,0,0,0,3.236-2.882,1.9,1.9,0,0,0,.025-.379v-2.5Z" transform="translate(-2060.261 -1516.699)" fill="#2572e8"/>
              <path id="Trazado_100965" data-name="Trazado 100965" d="M2060.436,1536.745a3.257,3.257,0,0,0,3.236,2.881H2242.42a3.257,3.257,0,0,0,3.236-2.881Z" transform="translate(-2060.411 -1533.863)" fill="#3358cc"/>
            </g>
            <g id="Grupo_54003" data-name="Grupo 54003">
              <path id="Trazado_100966" data-name="Trazado 100966" d="M2060.261,1516.7v2.5a1.922,1.922,0,0,0,.025.379,3.257,3.257,0,0,0,3.236,2.882h113.807a3.276,3.276,0,0,0,3.236-2.882c0-.126.025-.252.025-.379v-2.5Z" transform="translate(-2060.261 -1516.699)" fill="#599aff"/>
              <path id="Trazado_100967" data-name="Trazado 100967" d="M2060.436,1536.745a3.257,3.257,0,0,0,3.236,2.881h113.807a3.276,3.276,0,0,0,3.236-2.881Z" transform="translate(-2060.411 -1533.863)" fill="#3358cc"/>
            </g>
          </g>
        </g>
        <g id="box" transform="translate(336.424 85.747)">
          <g id="Grupo_54006" data-name="Grupo 54006" transform="translate(8.038)">
            <g id="Grupo_54005" data-name="Grupo 54005">
              <path id="Trazado_100968" data-name="Trazado 100968" d="M2817.485,1152.912l-.459-1.608a1.534,1.534,0,0,0-1.723-1.068l-14.32,2.7a1.228,1.228,0,0,0-.968,1.576l8.125,28.418,37.042-6.99-7.665-26.81Z" transform="translate(-2799.963 -1148.665)" fill="#1150b3"/>
              <path id="Trazado_100969" data-name="Trazado 100969" d="M2857.51,1153.9l-36.323,6.855,5.127,26.26,36.862-6.956Z" transform="translate(-2818.136 -1152.751)" fill="#fff"/>
              <path id="Trazado_100970" data-name="Trazado 100970" d="M2873.785,1173.161l-37.042,6.99-3.364-26.254a1.411,1.411,0,0,1,1.165-1.588l33.9-6.4a1.762,1.762,0,0,1,2.038,1.465Z" transform="translate(-2828.565 -1145.884)" fill="#40b0ff"/>
            </g>
          </g>
          <g id="Grupo_54010" data-name="Grupo 54010" transform="translate(34.503 2.379)">
            <g id="Grupo_54007" data-name="Grupo 54007" transform="translate(0 3.466)">
              <rect id="Rectángulo_5232" data-name="Rectángulo 5232" width="28.957" height="22.007" transform="translate(23.799 1.396) rotate(93.638)" fill="#cfd9e8"/>
              <rect id="Rectángulo_5233" data-name="Rectángulo 5233" width="26.215" height="19.303" transform="translate(22.363 2.678) rotate(93.638)" fill="#086cd3"/>
              <path id="Trazado_100971" data-name="Trazado 100971" d="M3007.451,1208.884l-1.12,17.621,9.881-9.02Z" transform="translate(-3003.131 -1205.674)" fill="#bcc5d3"/>
              <path id="Trazado_100972" data-name="Trazado 100972" d="M3004.973,1264.625l-.941,14.806,8.171-7.525Z" transform="translate(-3001.163 -1253.402)" fill="#bcc5d3"/>
              <path id="Trazado_100973" data-name="Trazado 100973" d="M3074.518,1297.813a2.045,2.045,0,1,1,2.171-1.911A2.045,2.045,0,0,1,3074.518,1297.813Z" transform="translate(-3059.877 -1278.322)" fill="#bcc5d3"/>
            </g>
            <g id="Grupo_54009" data-name="Grupo 54009" transform="translate(5.773 0)">
              <g id="Grupo_54008" data-name="Grupo 54008" transform="translate(0)">
                <rect id="Rectángulo_5234" data-name="Rectángulo 5234" width="28.957" height="22.007" transform="matrix(-0.537, 0.844, -0.844, -0.537, 34.107, 11.807)" fill="#e3eeff"/>
                <rect id="Rectángulo_5235" data-name="Rectángulo 5235" width="26.215" height="19.303" transform="translate(32.231 12.239) rotate(122.448)" fill="#3397ff"/>
                <path id="Trazado_100974" data-name="Trazado 100974" d="M3080.253,1190.329l-9.473,14.9,13-3.141Z" transform="translate(-3064.089 -1186.319)" fill="#e3eeff"/>
                <path id="Trazado_100975" data-name="Trazado 100975" d="M3059.3,1237.463l-7.96,12.52,10.786-2.656Z" transform="translate(-3047.446 -1226.678)" fill="#e3eeff"/>
                <circle id="Elipse_4162" data-name="Elipse 4162" cx="2.045" cy="2.045" r="2.045" transform="matrix(0.51, -0.86, 0.86, 0.51, 15.658, 22.241)" fill="#e3eeff"/>
              </g>
            </g>
          </g>
          <rect id="Rectángulo_5236" data-name="Rectángulo 5236" width="52.235" height="22.745" transform="translate(20.649 26.009)" fill="#ea7b00"/>
          <rect id="Rectángulo_5237" data-name="Rectángulo 5237" width="13.461" height="22.745" transform="translate(7.188 26.009)" fill="#b35e00"/>
          <path id="Trazado_100976" data-name="Trazado 100976" d="M2939.929,1273.953h-52.236l9.044-8.875h52.235Z" transform="translate(-2867.045 -1247.944)" fill="#cc6b00"/>
          <path id="Trazado_100977" data-name="Trazado 100977" d="M2757.508,1339.569h-13.461l7.188-12.75H2764.7Z" transform="translate(-2744.047 -1300.811)" fill="#ea7b00"/>
          <rect id="Rectángulo_5238" data-name="Rectángulo 5238" width="11.648" height="5.103" transform="translate(58.855 42.094)" fill="#ff9e33"/>
        </g>
        <g id="Grupo_54017" data-name="Grupo 54017" transform="translate(39.702 53.659)">
          <g id="Grupo_54016" data-name="Grupo 54016">
            <path id="Trazado_100978" data-name="Trazado 100978" d="M708.185,1000.877l-.14-2.712a2.374,2.374,0,0,0-2.344-2.23H681.963a2.1,2.1,0,0,0-2.115,2.23l2.471,47.94h61.4l-2.331-45.228Z" transform="translate(-679.845 -985.401)" fill="#1251b3"/>
            <path id="Trazado_100979" data-name="Trazado 100979" d="M758.767,1041.776H698.557l-1.5,43.581h61.1Z" transform="translate(-694.584 -1024.653)" fill="#fff"/>
            <g id="Grupo_54012" data-name="Grupo 54012" transform="translate(9.132 6.226)">
              <g id="Grupo_54011" data-name="Grupo 54011">
                <path id="Trazado_100980" data-name="Trazado 100980" d="M788.735,1000.435l-45.361.127,2.572-34.466,45.362-.127Z" transform="translate(-743.374 -965.969)" fill="#ebf3ff"/>
                <path id="Trazado_100981" data-name="Trazado 100981" d="M795.184,1005.5l-43.041.12,2.364-31.685,43.041-.12Z" transform="translate(-750.883 -972.689)" fill="#3397ff"/>
                <path id="Trazado_100982" data-name="Trazado 100982" d="M778.751,1090.449l27.66-.077-14-14.505Z" transform="translate(-773.666 -1060.069)" fill="#e3eeff"/>
                <path id="Trazado_100983" data-name="Trazado 100983" d="M866.247,1105.271l23.24-.065-11.68-11.989Z" transform="translate(-848.584 -1074.926)" fill="#e3eeff"/>
                <ellipse id="Elipse_4163" data-name="Elipse 4163" cx="3.329" cy="3.081" rx="3.329" ry="3.081" transform="translate(23.1 12.658) rotate(-43.892)" fill="#e3eeff"/>
              </g>
            </g>
            <g id="Grupo_54015" data-name="Grupo 54015" transform="translate(18.79)">
              <g id="Grupo_54013" data-name="Grupo 54013">
                <path id="Trazado_100984" data-name="Trazado 100984" d="M852.617,959.219l-42.055.135,2.731-36.564,42.055-.135Z" transform="translate(-810.562 -922.655)" fill="#ebf3ff"/>
                <path id="Trazado_100985" data-name="Trazado 100985" d="M859.283,964.594l-39.667.128,2.511-33.614,39.667-.128Z" transform="translate(-818.314 -929.784)" fill="#3397ff"/>
              </g>
              <g id="Grupo_54014" data-name="Grupo 54014" transform="translate(6.647 5.965)">
                <path id="Trazado_100986" data-name="Trazado 100986" d="M876.777,964.151H860.983l-.107,1.387H876.67Z" transform="translate(-860.29 -964.151)" fill="#cce5ff"/>
                <path id="Trazado_100987" data-name="Trazado 100987" d="M890.991,991.606H858.858l.107-1.388H891.1Z" transform="translate(-858.562 -986.472)" fill="#cce5ff"/>
                <path id="Trazado_100988" data-name="Trazado 100988" d="M888.936,1018.147H856.8l.107-1.387h32.133Z" transform="translate(-856.803 -1009.197)" fill="#cce5ff"/>
              </g>
            </g>
            <path id="Trazado_100989" data-name="Trazado 100989" d="M758.461,1075.544h-61.4l4.3-43.039a2.416,2.416,0,0,1,2.433-2.19h56.194a2.733,2.733,0,0,1,2.7,2.96Z" transform="translate(-694.584 -1014.84)" fill="#3383ff"/>
          </g>
        </g>
        <g id="hacker-2" data-name="hacker" transform="translate(109.716 0)">
          <g id="Grupo_54018" data-name="Grupo 54018" transform="translate(44.757 48.729)">
            <path id="Trazado_100990" data-name="Trazado 100990" d="M1485.838,933.305c0,.03,91.12-7.554,96.531-10.3,14.12-7.221,16.681-10.991,16.681-10.991,7.777-17.124-11.66-28.469-24.251-21.622L1518.046,906.8l-35.97,8.729C1474.98,918.047,1478.7,931.141,1485.838,933.305Z" transform="translate(-1478.267 -888.365)" fill="#1d498c"/>
            <path id="Trazado_100991" data-name="Trazado 100991" d="M1496.761,1088.894c2.414.444,9.059,13.093,4.169,14.583-3.611,1.1-6.673-5.41-7.055-8.317C1493.438,1091.84,1494.348,1088.45,1496.761,1088.894Z" transform="translate(-1491.541 -1060.035)" fill="#0d2140"/>
          </g>
          <g id="Grupo_54020" data-name="Grupo 54020" transform="translate(129.628 39.231)">
            <path id="Trazado_100992" data-name="Trazado 100992" d="M2347.6,1183.915s-.686,16.462,21.263,18.862,34.98-13.032,35.323-25.035-17.833-21.263-34.637-14.4S2351.031,1172.6,2347.6,1183.915Z" transform="translate(-2307.508 -1112.311)" fill="#fff"/>
            <path id="Trazado_100993" data-name="Trazado 100993" d="M2748.57,998.718s-.3,8.314,9.155,9.526,15.15-4.6,15.009-10.665c-.2-8.708-8.56-13.387-15.8-9.923S2749.042,994.744,2748.57,998.718Z" transform="translate(-2650.839 -962.902)" fill="#fff"/>
            <path id="Trazado_100994" data-name="Trazado 100994" d="M2096.44,940.365c12.923,12.428,27.636,17.527,33.952,18.176,22.647,2.329,35-15.111,25.8-34.415,0,0-17.893-34.869-29.4-40.558-11.512-5.742-55.283,7.231-57.994,20.308C2067.356,910.94,2080.923,925.442,2096.44,940.365Z" transform="translate(-2068.692 -873.563)" fill="#1d498c"/>
            <g id="Grupo_54019" data-name="Grupo 54019" transform="translate(30.916)">
              <path id="Trazado_100995" data-name="Trazado 100995" d="M2289.28,822.7s14.366-2.811,39.039,6.246c18.3,6.719,38.264,18.694,38.264,18.694,9.16,6.8.591,20.978-9.138,17.771l-31.663-7.739-28.669-13.4C2283.41,840.057,2279.314,830.691,2289.28,822.7Z" transform="translate(-2283.766 -822.288)" fill="#1d498c"/>
            </g>
            <path id="Trazado_100996" data-name="Trazado 100996" d="M2568.444,1063.567a.293.293,0,0,1-.064-.007l-17.483-3.885a.294.294,0,0,1,.128-.574l17.483,3.885a.294.294,0,0,1-.063.582Z" transform="translate(-2481.384 -1025.053)" style="mix-blend-mode: soft-light;isolation: isolate"/>
          </g>
          <path id="Trazado_100997" data-name="Trazado 100997" d="M2050.769,845.443c5.231,12.717,39.081,17.3,39.081,17.3s18.651-30.971,17.68-38.471c-2.077-16.254-19.672-17.69-34.534-12.854S2044.179,829.421,2050.769,845.443Z" transform="translate(-1922.281 -771.667)" fill="#1d498c"/>
          <path id="Trazado_100998" data-name="Trazado 100998" d="M2116.252,848.321c9.154-2.87,21.231-1.41,19.249,5.708-2.4,8.632-16.148,22.2-14.073,29.746,0,0-20.5-4.434-24.573-14.281S2107.1,851.191,2116.252,848.321Z" transform="translate(-1962.567 -804.164)"/>
          <path id="Trazado_100999" data-name="Trazado 100999" d="M2082.478,1023.318a.3.3,0,0,1-.072-.009l-1.422-.357c-8.281-2.077-19.622-4.922-25.005-8.14-7.984-4.774-7.5-11.129-7.238-14.544l.029-.379a.294.294,0,1,1,.587.043l-.028.381c-.269,3.518-.719,9.406,6.953,13.994,5.309,3.174,17.066,6.123,24.847,8.075l1.423.357a.294.294,0,0,1-.072.58Z" transform="translate(-1921.882 -934.894)" style="mix-blend-mode: soft-light;isolation: isolate"/>
          <path id="Trazado_101000" data-name="Trazado 101000" d="M2353.458,869.817a.294.294,0,0,1-.274-.4c1.2-3.07,3.47-6.416,5.879-9.958,3.559-5.234,7.592-11.166,8.635-17.186,1.188-6.853-1.678-12.87-8.76-18.4a.294.294,0,0,1,.362-.464c7.27,5.673,10.207,11.875,8.978,18.961-1.065,6.146-5.136,12.134-8.729,17.417-2.389,3.514-4.646,6.833-5.817,9.841A.3.3,0,0,1,2353.458,869.817Z" transform="translate(-2182.644 -783.965)" style="mix-blend-mode: soft-light;isolation: isolate"/>
          <g id="Grupo_54021" data-name="Grupo 54021" transform="translate(131.636 34.727)">
            <path id="Trazado_101001" data-name="Trazado 101001" d="M2113.79,803.815s3.77,2.852,1.4,8.9c-1.539,3.934-6.923,8.985-12.576,10.439-3.038.781-4.222-.638-7.961-2.978-16.346-10.232-12.343-25.355-8.949-27.637C2091.737,788.484,2101.816,792.2,2113.79,803.815Z" transform="translate(-2082.657 -790.954)" fill="#081529"/>
          </g>
          <g id="Grupo_54026" data-name="Grupo 54026" transform="translate(112.045)">
            <g id="Grupo_54022" data-name="Grupo 54022" transform="translate(3.154 5.657)">
              <path id="Trazado_101002" data-name="Trazado 101002" d="M1969.081,620.818c7.252,36.31,48.3,28.259,45.048-8.518C2009.454,574.944,1961.713,585.128,1969.081,620.818Z" transform="translate(-1968.31 -588.724)" fill="#f7a58e"/>
            </g>
            <g id="Grupo_54025" data-name="Grupo 54025">
              <path id="Trazado_101003" data-name="Trazado 101003" d="M2110.392,814.419a2.866,2.866,0,0,1-1.954-.707c-1.579-1.4.046-5.611.237-6.086a.314.314,0,1,1,.582.233c-.472,1.179-1.464,4.443-.4,5.384,1.279,1.134,3.253.141,3.272.131a.314.314,0,0,1,.288.557A4.857,4.857,0,0,1,2110.392,814.419Z" transform="translate(-2084.555 -770.334)" fill="#b55b41"/>
              <ellipse id="Elipse_4164" data-name="Elipse 4164" cx="1.271" cy="2.119" rx="1.271" ry="2.119" transform="translate(35.256 34.299) rotate(-5.174)"/>
              <path id="Trazado_101004" data-name="Trazado 101004" d="M2039.764,803.043c.106,1.166.758,2.059,1.457,2s1.181-1.059,1.075-2.225-.758-2.059-1.457-2S2039.659,801.877,2039.764,803.043Z" transform="translate(-2026.327 -764.671)"/>
              <path id="Trazado_101005" data-name="Trazado 101005" d="M2006.923,607.858c-.35-5.849-2.271-16.373-8.567-15.354-8.018,1.3-25.121,3.131-30.513,3.476-4.385.281-4.672,11.935-3.928,17.692,0,0-3.238-10.1-3.4-14.3-.109-2.894-.947-21.844,21.878-23.91s25.094,17.8,25.458,22.062A43.874,43.874,0,0,1,2006.923,607.858Z" transform="translate(-1958.458 -571.581)" fill="#0d2140"/>
              <path id="Trazado_101006" data-name="Trazado 101006" d="M2088.16,890.192c-.431,1.257,3.038,4.188,7.96,3.508,3.949-.546,7.217-5.5,6.458-6.2a22.247,22.247,0,0,1-7.773,2.167C2091.625,890.017,2088.291,889.809,2088.16,890.192Z" transform="translate(-2067.747 -838.898)" fill="#a64a30"/>
              <path id="Trazado_101007" data-name="Trazado 101007" d="M2029.278,766.823c-2.435-2.526-4.1-4.518-6.809-4.238a3.233,3.233,0,0,0-2.867,1.62s1.172-.691,3.536.166C2024.918,765.016,2026.405,767.224,2029.278,766.823Z" transform="translate(-2009.075 -731.913)" fill="#663325"/>
              <path id="Trazado_101008" data-name="Trazado 101008" d="M2167.121,754.594a35.053,35.053,0,0,1-9.2,4.576s1.983.937,5.319-.359C2166.965,757.363,2167.121,754.594,2167.121,754.594Z" transform="translate(-2127.51 -725.094)" fill="#663325"/>
              <path id="Trazado_101009" data-name="Trazado 101009" d="M2147.15,777.907a1.728,1.728,0,0,0-.766,1.7,1.613,1.613,0,0,0,1.187,1.207s-.77-.693-.844-1.186A2.794,2.794,0,0,1,2147.15,777.907Z" transform="translate(-2117.598 -745.055)" fill="#b55b41"/>
              <path id="Trazado_101010" data-name="Trazado 101010" d="M2006.029,570.469s-4.732-23.935-26.626-20.821c-18.255,1.653-21.709,18.485-21.711,24.293C1985.852,565.885,2006.029,570.469,2006.029,570.469Z" transform="translate(-1956.065 -549.369)" fill="#0d2140"/>
              <path id="Trazado_101011" data-name="Trazado 101011" d="M1985.885,791.006c7.609,7.592,15.073,7.683,15.073,7.683s12.763-3.324,17.144-11.548c2.3-3.05,6.514-12.424,3.593-20.129,0,0-.72,12.048-10.8,9.51-6.762-1.565-13.2-1.343-19.969,1.987-8.881,3.6-12.335-4.76-12.391-9.282A26.232,26.232,0,0,0,1985.885,791.006Z" transform="translate(-1973.711 -735.727)" fill="#0d2140"/>
              <g id="Grupo_54024" data-name="Grupo 54024" transform="translate(0 12.206)">
                <path id="Trazado_101012" data-name="Trazado 101012" d="M1995.85,652.692s-6.124-6.153-23.689-4.706-20.9,6.361-22.485,8.6c-2.349-.677-4.368-6.956-2.685-12.316,2.844-9.052,45.132-15.121,49.456-3.907C1998.182,646.234,1997.456,649.864,1995.85,652.692Z" transform="translate(-1946.369 -634.281)" fill="#205099"/>
                <g id="Grupo_54023" data-name="Grupo 54023" clip-path="url(#clip-path)">
                  <path id="Trazado_101013" data-name="Trazado 101013" d="M2250.908,649.466a7.343,7.343,0,0,0,1.02-2.154c.267-.75.5-1.511.7-2.282a22.1,22.1,0,0,0,.7-4.763,17.672,17.672,0,0,0-.417-4.481,15.683,15.683,0,0,0-1.453-3.908,13.517,13.517,0,0,0-2.478-3.318q-.18-.175-.366-.342a.3.3,0,0,0-.42,0,.3.3,0,0,0,0,.42,12.627,12.627,0,0,1,2.5,3.088,14.641,14.641,0,0,1,1.518,3.7,16.362,16.362,0,0,1,.533,4.226,20.57,20.57,0,0,1-.534,4.6q-.261,1.145-.629,2.262-.185.562-.394,1.116a8.283,8.283,0,0,1-.422.99,3.011,3.011,0,0,1-.272.429.306.306,0,0,0,0,.42.3.3,0,0,0,.42,0Z" transform="translate(-2204.73 -629.018)" style="mix-blend-mode: soft-light;isolation: isolate"/>
                  <path id="Trazado_101014" data-name="Trazado 101014" d="M2212.16,637.154a7.53,7.53,0,0,0,1.933-4.283,20.145,20.145,0,0,0,.288-4.643,21.233,21.233,0,0,0-2.5-8.91,20.2,20.2,0,0,0-2.646-3.8q-.192-.217-.39-.429a.3.3,0,0,0-.42.42,19.269,19.269,0,0,1,2.661,3.6,20.188,20.188,0,0,1,1.793,4.108,21.014,21.014,0,0,1,.56,2.214,19.522,19.522,0,0,1,.307,2.2,20.3,20.3,0,0,1,.062,2.264q-.016.562-.064,1.122c-.032.37-.075.753-.125,1.089a14.4,14.4,0,0,1-.49,2.249,5.876,5.876,0,0,1-1,1.964,4.421,4.421,0,0,1-.389.414.3.3,0,0,0,.42.42Z" transform="translate(-2170.683 -617.774)" style="mix-blend-mode: soft-light;isolation: isolate"/>
                  <path id="Trazado_101015" data-name="Trazado 101015" d="M2181.226,634.025a26.191,26.191,0,0,0,.428-4.031,26.456,26.456,0,0,0-.191-3.986,27.391,27.391,0,0,0-.79-3.977,27.083,27.083,0,0,0-1.373-3.794,25.651,25.651,0,0,0-1.916-3.518c-.089-.137-.18-.273-.271-.407a.3.3,0,0,0-.406-.107.3.3,0,0,0-.106.406,25.651,25.651,0,0,1,3.359,7.092,26.82,26.82,0,0,1,.854,3.883c0,.038.01.075.016.113,0,.011.014.106.009.067q.018.129.033.259.03.243.055.486.052.495.085.991.067.992.058,1.987t-.092,1.97q-.042.5-.1.989c-.037.293-.083.611-.136.937-.027.161-.055.322-.085.482a.3.3,0,0,0,.573.158Z" transform="translate(-2143.469 -617.057)" style="mix-blend-mode: soft-light;isolation: isolate"/>
                  <path id="Trazado_101016" data-name="Trazado 101016" d="M2150.138,640.784a29.66,29.66,0,0,0,.2-3.813,30.951,30.951,0,0,0-.291-3.855,30.571,30.571,0,0,0-3.643-10.829q-.117-.206-.236-.411a.3.3,0,0,0-.513.3,29.668,29.668,0,0,1,1.7,3.382l.026.06c0-.007-.011-.027,0,0l.044.106c.031.075.062.151.093.227q.089.219.175.44.171.442.329.888.315.893.573,1.805a30.609,30.609,0,0,1,.808,3.716q.036.234.068.469c0,.016,0,.032.006.049.008.054,0-.036,0,.018l.015.113c.01.081.021.162.03.243q.056.47.1.942.083.943.109,1.891a29.705,29.705,0,0,1-.142,3.783q-.024.236-.052.471a.3.3,0,0,0,.3.3.306.306,0,0,0,.3-.3Z" transform="translate(-2116.977 -623.534)" style="mix-blend-mode: soft-light;isolation: isolate"/>
                  <path id="Trazado_101017" data-name="Trazado 101017" d="M2123.231,633.222l-1.1-7.135q-.55-3.55-1.1-7.1-.309-2-.619-4a.3.3,0,0,0-.365-.207.306.306,0,0,0-.208.365l1.1,7.136q.549,3.55,1.1,7.1l.619,4a.3.3,0,0,0,.365.207.306.306,0,0,0,.207-.365Z" transform="translate(-2094.895 -617.573)" style="mix-blend-mode: soft-light;isolation: isolate"/>
                  <path id="Trazado_101018" data-name="Trazado 101018" d="M2085.2,638.109q-.524-1.7-.948-3.424t-.75-3.49q-.161-.873-.3-1.751c-.091-.589-.169-1.143-.24-1.714q-.221-1.771-.339-3.554t-.13-3.55q0-.224,0-.449a.3.3,0,0,0-.594,0q0,1.785.1,3.568t.314,3.556q.212,1.8.527,3.594.311,1.758.724,3.5t.927,3.447q.065.215.131.429a.3.3,0,1,0,.573-.158Z" transform="translate(-2062.415 -621.951)" style="mix-blend-mode: soft-light;isolation: isolate"/>
                  <path id="Trazado_101019" data-name="Trazado 101019" d="M2047.215,638.558q-.728-1.757-1.3-3.575t-.968-3.677q-.2-.93-.36-1.868t-.269-1.837q-.231-1.888-.292-3.791a14.124,14.124,0,0,1,.01-1.7c.006-.066.014-.132.021-.2,0-.035,0,0,0,.009,0-.014,0-.028.006-.042.005-.037.011-.074.018-.111a3.7,3.7,0,0,1,.086-.381q.024-.086.054-.17c.01-.03.021-.06.033-.09l.015-.038c-.016.04,0,0,.007-.017a2.361,2.361,0,0,1,.174-.322l.054-.079.024-.033c-.03.04,0,0,0,0,.041-.05.084-.1.129-.145a.3.3,0,0,0-.42-.42,4.216,4.216,0,0,0-.824,3.111q.031,1.927.24,3.846.211,1.948.6,3.871.381,1.89.932,3.74t1.269,3.639q.089.223.181.444a.3.3,0,0,0,.365.207.3.3,0,0,0,.207-.365Z" transform="translate(-2029.469 -622.036)" style="mix-blend-mode: soft-light;isolation: isolate"/>
                  <path id="Trazado_101020" data-name="Trazado 101020" d="M2010.195,658.067c-.49-1.056-.916-2.1-1.307-3.213s-.726-2.228-1.009-3.364-.51-2.276-.683-3.428c-.084-.559-.153-1.087-.208-1.67-.052-.557-.084-1.115-.083-1.674,0-.281.011-.561.031-.841q.015-.205.037-.409c.017-.152.024-.206.048-.358a7.9,7.9,0,0,1,.423-1.605c.054-.14.08-.2.142-.336a.3.3,0,0,0-.106-.406.3.3,0,0,0-.406.106,8.885,8.885,0,0,0-.751,3.356,19.7,19.7,0,0,0,.225,3.468q.24,1.766.649,3.5t.983,3.424q.578,1.7,1.316,3.339.092.205.187.409a.3.3,0,0,0,.406.107.3.3,0,0,0,.106-.406Z" transform="translate(-1997.695 -639.798)" style="mix-blend-mode: soft-light;isolation: isolate"/>
                  <path id="Trazado_101021" data-name="Trazado 101021" d="M1983.933,669.32c-.361-1.146-.721-2.291-1.048-3.448s-.62-2.329-.841-3.514c-.109-.584-.2-1.157-.264-1.723s-.108-1.108-.128-1.664-.018-1.114.01-1.67q.022-.424.064-.847.021-.207.047-.413c0-.032.008-.063.012-.1-.005.039.005-.037.007-.048.01-.074.021-.148.033-.221a14.489,14.489,0,0,1,.347-1.62q.11-.4.245-.791.068-.2.142-.389.034-.09.07-.178c.014-.034.028-.069.042-.1.005-.013.037-.089.025-.062.054-.128.111-.254.169-.38a.3.3,0,0,0-.107-.406.3.3,0,0,0-.406.107,13.6,13.6,0,0,0-1.026,3.24,17.447,17.447,0,0,0-.279,3.412,23.026,23.026,0,0,0,.332,3.483,36.317,36.317,0,0,0,.8,3.557c.321,1.176.682,2.34,1.047,3.5q.068.215.135.429a.3.3,0,0,0,.573-.158Z" transform="translate(-1976.061 -649.205)" style="mix-blend-mode: soft-light;isolation: isolate"/>
                  <path id="Trazado_101022" data-name="Trazado 101022" d="M1955.215,660.632a28.517,28.517,0,0,1-1.72-3.791,29.738,29.738,0,0,1-1.171-4.057,29.013,29.013,0,0,1-.576-4.121,29.306,29.306,0,0,1,.017-4.2c.053-.7.13-1.39.234-2.068a9.532,9.532,0,0,1,.521-2.109,4.838,4.838,0,0,1,.21-.447.3.3,0,0,0-.106-.406.3.3,0,0,0-.406.107,7.467,7.467,0,0,0-.7,2.131c-.135.722-.227,1.455-.3,2.186a29.258,29.258,0,0,0-.1,4.257,30.367,30.367,0,0,0,.516,4.271,29.684,29.684,0,0,0,2.813,8.077q.123.237.252.472a.3.3,0,1,0,.513-.3Z" transform="translate(-1950.408 -638.657)" style="mix-blend-mode: soft-light;isolation: isolate"/>
                </g>
              </g>
            </g>
            <path id="Trazado_101024" data-name="Trazado 101024" d="M1969.2,799.576a23.346,23.346,0,0,1-.789-3.247c-.052-.3-.1-.6-.139-.9-.007-.051-.039-.294-.05-.375.015.123-.039-.287-.034-.249-.02-.147-.026-.3-.037-.449a1.615,1.615,0,0,0-.5.065c-1.322.391-2.042,2.39-1.609,4.464s1.857,3.441,3.179,3.05a1.827,1.827,0,0,0,.717-.437C1969.664,800.87,1969.413,800.232,1969.2,799.576Z" transform="translate(-1963.105 -759.138)" fill="#0d2140"/>
            <path id="Trazado_101025" data-name="Trazado 101025" d="M2282.216,763.377a23.311,23.311,0,0,1,.025,3.342c-.018.3-.042.606-.07.909,0,.051-.029.295-.037.377.013-.123-.028.288-.024.25-.014.148-.042.3-.066.445a1.615,1.615,0,0,0,.5.051c1.376-.078,2.535-1.859,2.588-3.978s-1.02-3.774-2.4-3.7a1.826,1.826,0,0,0-.8.261C2282.059,762.011,2282.157,762.69,2282.216,763.377Z" transform="translate(-2233.701 -730.642)" fill="#0d2140"/>
          </g>
          <g id="Grupo_54030" data-name="Grupo 54030" transform="translate(0 71.518)">
            <path id="Trazado_101026" data-name="Trazado 101026" d="M1452.962,1110.185l-10.857,1.933c-5.679.4-3.973-10.95.481-12.16l7.012-.82C1452.254,1100.069,1454.493,1108.1,1452.962,1110.185Z" transform="translate(-1399.462 -1091.628)" fill="#0d2140"/>
            <g id="Grupo_54028" data-name="Grupo 54028" transform="translate(15.479 2.169)">
              <path id="Trazado_101027" data-name="Trazado 101027" d="M1346.693,1075.234s-8.267,9.272-11.937-5.415C1338.446,1060.694,1350.3,1071.352,1346.693,1075.234Z" transform="translate(-1326.107 -1065.614)" fill="#010103"/>
              <g id="Grupo_54027" data-name="Grupo 54027">
                <path id="Trazado_101028" data-name="Trazado 101028" d="M1302.509,1067.9c-12.345-9.453-19.752-5.905-19.3-.91-3.263.4-9.082,2.3-8.584,3.8.835,2.5,16.206-.535,17.791,1.636,1.788,2.449,1.049,3.55-1.075,4.339l1.49,5.661c4.791.381,9.394-2.373,9.394-2.373S1312.354,1074.566,1302.509,1067.9Z" transform="translate(-1274.591 -1061.984)" fill="#0d2140"/>
                <path id="Trazado_101029" data-name="Trazado 101029" d="M1333.762,1091.849a.126.126,0,0,1-.012-.252l7.264-.729a.126.126,0,1,1,.025.251l-7.265.729Z" transform="translate(-1325.148 -1086.715)" fill="#1f4f99"/>
              </g>
            </g>
            <g id="Grupo_54029" data-name="Grupo 54029">
              <path id="Trazado_101030" data-name="Trazado 101030" d="M1193.089,1079.575h-26.181l3.91-32.68H1197Z" transform="translate(-1166.908 -1046.895)" fill="#5896fa"/>
              <path id="Trazado_101031" data-name="Trazado 101031" d="M1261.005,1086.346h-13.543l.254-2.125h13.543Z" transform="translate(-1235.883 -1078.855)" fill="#cce5ff"/>
              <path id="Trazado_101032" data-name="Trazado 101032" d="M1232.991,1121.085h-17.548l.254-2.125h17.548Z" transform="translate(-1208.467 -1108.6)" fill="#cce5ff"/>
              <path id="Trazado_101033" data-name="Trazado 101033" d="M1228.835,1155.824h-17.548l.254-2.125h17.548Z" transform="translate(-1204.908 -1138.345)" fill="#cce5ff"/>
              <path id="Trazado_101034" data-name="Trazado 101034" d="M1224.678,1190.562H1207.13l.254-2.125h17.548Z" transform="translate(-1201.349 -1168.091)" fill="#cce5ff"/>
              <path id="Trazado_101035" data-name="Trazado 101035" d="M1220.521,1225.3h-17.548l.254-2.125h17.548Z" transform="translate(-1197.789 -1197.836)" fill="#cce5ff"/>
            </g>
          </g>
          <path id="Trazado_101036" data-name="Trazado 101036" d="M1330.451,1159.578c-.839.153-4.713-1.5-6.929-.924a3.367,3.367,0,0,0-2.428,2.839s4.022,1.6,9.465,3.218a10.134,10.134,0,0,0,2.085.38c5.511-.439,4.4-7.529-1.49-5.661C1330.92,1159.48,1330.719,1159.53,1330.451,1159.578Z" transform="translate(-1298.931 -1070.968)" fill="#0d2140"/>
        </g>
      </g>
    </g>
  </g>
</svg>
