<svg xmlns="http://www.w3.org/2000/svg" xmlns:xlink="http://www.w3.org/1999/xlink" width="680" height="486.489" viewBox="0 0 680 486.489">
  <defs>
    <clipPath id="clip-path">
      <rect id="Rectángulo_5245" data-name="Rectángulo 5245" width="73" height="73" transform="translate(-7231 -7371)" fill="#fff" stroke="#707070" stroke-width="1"/>
    </clipPath>
    <clipPath id="clip-path-2">
      <rect id="Rectángulo_5246" data-name="Rectángulo 5246" width="73" height="73" transform="translate(-7523 -7362)" fill="#fff" stroke="#707070" stroke-width="1"/>
    </clipPath>
    <clipPath id="clip-path-3">
      <rect id="Rectángulo_5247" data-name="Rectángulo 5247" width="73" height="73" transform="translate(-7476 -7539)" fill="#fff" stroke="#707070" stroke-width="1"/>
    </clipPath>
    <clipPath id="clip-path-4">
      <rect id="Rectángulo_5248" data-name="Rectángulo 5248" width="73" height="73" transform="translate(-7372 -7260)" fill="#fff" stroke="#707070" stroke-width="1"/>
    </clipPath>
    <clipPath id="clip-path-5">
      <rect id="Rectángulo_5253" data-name="Rectángulo 5253" width="73" height="73" transform="translate(1120 4151)" fill="#fff" stroke="#707070" stroke-width="1"/>
    </clipPath>
  </defs>
  <g id="Grupo_57827" data-name="Grupo 57827" transform="translate(-39 -155.544)">
    <g id="Grupo_54034" data-name="Grupo 54034" transform="translate(-94.5 110.517)">
      <g id="Grupo_54032" data-name="Grupo 54032" transform="translate(273.78 58)" style="isolation: isolate">
        <path id="Trazado_101037" data-name="Trazado 101037" d="M631.962,166.317l-33.875,59.3L536.8,219.862a102.309,102.309,0,0,1-16.082,104.619l13.724,60.245,66.293,13.537a211.121,211.121,0,0,0,31.222-231.945Z" transform="translate(-231.293 -47.89)" fill="#0077ec"/>
        <path id="Trazado_101038" data-name="Trazado 101038" d="M537.14,382.293,523.4,321.952A102.308,102.308,0,0,1,418.05,338.987l-52.857,31.568L372.846,438A211.139,211.139,0,0,0,603.682,395.88Z" transform="translate(-245.809 -33.364)" fill="#0077ec"/>
        <path id="Trazado_101039" data-name="Trazado 101039" d="M467.085,110.674,443.158,167.14c2.8-.23,5.63-.353,8.489-.353a102.15,102.15,0,0,1,86.781,48.184l61.206,5.747,33.717-59.025A211.221,211.221,0,0,0,420.638,60.274Z" transform="translate(-240.634 -58)" fill="#0077ec"/>
        <path id="Trazado_101040" data-name="Trazado 101040" d="M360.229,373.819l53.064-31.69a102.155,102.155,0,0,1-48.506-86.982q0-4.1.321-8.128l-46.35-40.442-61.774,28.178c-.643,6.711-.984,13.511-.984,20.392A210.969,210.969,0,0,0,367.9,441.468Z" transform="translate(-256 -44.133)" fill="#0077ec"/>
        <path id="Trazado_101041" data-name="Trazado 101041" d="M320.921,203.25,367.51,243.9a102.387,102.387,0,0,1,74.135-74.466l23.867-56.327-46.262-50.2a211.256,211.256,0,0,0-160.282,168.6Z" transform="translate(-255.723 -57.542)" fill="#0077ec"/>
      </g>
      <path id="Trazado_106628" data-name="Trazado 106628" d="M24.6,0H18.128L8.554-16.811V0H2.041V-27.016H8.554l9.556,16.811V-27.016H24.6ZM35.662,0H29.168V-27.016h6.494ZM54.124-7.181a2.676,2.676,0,0,0-1.011-2.227,12.569,12.569,0,0,0-3.553-1.651A34.089,34.089,0,0,1,45.4-12.71q-5.251-2.579-5.251-7.088a6.356,6.356,0,0,1,1.308-3.961,8.461,8.461,0,0,1,3.7-2.672,14.405,14.405,0,0,1,5.381-.956,12.6,12.6,0,0,1,5.223,1.039,8.27,8.27,0,0,1,3.59,2.959A7.728,7.728,0,0,1,60.637-19H54.143a3.266,3.266,0,0,0-1.011-2.561,3.942,3.942,0,0,0-2.737-.909,4.445,4.445,0,0,0-2.755.77,2.362,2.362,0,0,0-1.011,1.958,2.378,2.378,0,0,0,1.113,1.883,14.039,14.039,0,0,0,3.915,1.744,23.983,23.983,0,0,1,4.6,1.939q4.379,2.523,4.379,6.958a6.6,6.6,0,0,1-2.672,5.566A11.884,11.884,0,0,1,50.636.371,14.541,14.541,0,0,1,44.689-.807a8.966,8.966,0,0,1-4.008-3.229,8.412,8.412,0,0,1-1.345-4.722h6.531a4.143,4.143,0,0,0,1.123,3.2,5.306,5.306,0,0,0,3.646,1.03,4.191,4.191,0,0,0,2.551-.7A2.3,2.3,0,0,0,54.124-7.181ZM85.185-21.987H77.076V0H70.563V-21.987H62.6v-5.028H85.185Zm32.953,12.84a9.866,9.866,0,0,1-1.521,4.982A9.183,9.183,0,0,1,112.71-.816,13.294,13.294,0,0,1,106.968.371,10.609,10.609,0,0,1,98.581-3.1q-3.062-3.47-3.062-9.8v-1.336A16.353,16.353,0,0,1,96.9-21.18a10.474,10.474,0,0,1,3.98-4.6,11.1,11.1,0,0,1,6.012-1.624,11.644,11.644,0,0,1,7.9,2.588,10.227,10.227,0,0,1,3.4,7.134H111.7a4.839,4.839,0,0,0-1.243-3.544,5.113,5.113,0,0,0-3.562-1.076,3.89,3.89,0,0,0-3.562,1.818q-1.132,1.818-1.187,5.808v1.911q0,4.323,1.085,6.179a3.972,3.972,0,0,0,3.739,1.855A5,5,0,0,0,110.4-5.789a4.489,4.489,0,0,0,1.262-3.358Zm17.015,1.967a2.676,2.676,0,0,0-1.011-2.227,12.569,12.569,0,0,0-3.553-1.651,34.089,34.089,0,0,1-4.156-1.651q-5.251-2.579-5.251-7.088a6.356,6.356,0,0,1,1.308-3.961,8.461,8.461,0,0,1,3.7-2.672,14.405,14.405,0,0,1,5.381-.956,12.6,12.6,0,0,1,5.223,1.039,8.27,8.27,0,0,1,3.59,2.959A7.728,7.728,0,0,1,141.665-19h-6.494a3.266,3.266,0,0,0-1.011-2.561,3.942,3.942,0,0,0-2.737-.909,4.445,4.445,0,0,0-2.755.77,2.362,2.362,0,0,0-1.011,1.958,2.378,2.378,0,0,0,1.113,1.883,14.039,14.039,0,0,0,3.915,1.744,23.983,23.983,0,0,1,4.6,1.939q4.379,2.523,4.379,6.958a6.6,6.6,0,0,1-2.672,5.566A11.884,11.884,0,0,1,131.664.371a14.541,14.541,0,0,1-5.947-1.178,8.966,8.966,0,0,1-4.008-3.229,8.412,8.412,0,0,1-1.345-4.722H126.9a4.143,4.143,0,0,0,1.123,3.2,5.306,5.306,0,0,0,3.646,1.03,4.191,4.191,0,0,0,2.551-.7A2.3,2.3,0,0,0,135.152-7.181Zm26.867-3.581h-10.5V0H145V-27.016h18.072v5.028h-11.56v6.216h10.5Z" transform="translate(401.313 281.786)" fill="#004080"/>
      <path id="Trazado_106625" data-name="Trazado 106625" d="M4.5-4.824V0H1.074V-14.219H6.748a6.608,6.608,0,0,1,2.886.6,4.526,4.526,0,0,1,1.943,1.709,4.667,4.667,0,0,1,.688,2.515,4.114,4.114,0,0,1-1.489,3.325A6.179,6.179,0,0,1,6.689-4.824Zm0-2.646H6.748a2.118,2.118,0,0,0,1.519-.5,1.85,1.85,0,0,0,.522-1.406,2.287,2.287,0,0,0-.537-1.592,1.9,1.9,0,0,0-1.465-.605H4.5Zm15.83-.117-1.084-.078a1.947,1.947,0,0,0-1.992.977V0H13.965V-10.566h3.086l.107,1.357a2.548,2.548,0,0,1,2.314-1.553,3.209,3.209,0,0,1,.918.117Zm.42,2.207A6.236,6.236,0,0,1,21.367-8.2a4.4,4.4,0,0,1,1.768-1.9,5.323,5.323,0,0,1,2.705-.664,4.858,4.858,0,0,1,3.74,1.47,5.64,5.64,0,0,1,1.367,4v.117a5.472,5.472,0,0,1-1.372,3.921A4.871,4.871,0,0,1,25.859.2a4.927,4.927,0,0,1-3.623-1.353,5.29,5.29,0,0,1-1.475-3.667Zm3.291.205A3.932,3.932,0,0,0,24.5-3.027a1.529,1.529,0,0,0,1.357.684q1.758,0,1.8-2.705v-.332q0-2.842-1.816-2.842-1.65,0-1.787,2.451ZM36.23-13.193v2.627h1.738v2.285H36.23v4.834a1.234,1.234,0,0,0,.215.83,1.152,1.152,0,0,0,.85.234,4.828,4.828,0,0,0,.82-.059V-.088A6.074,6.074,0,0,1,36.26.2a3.448,3.448,0,0,1-2.51-.8,3.282,3.282,0,0,1-.811-2.432V-8.281H31.592v-2.285h1.348v-2.627ZM44.375.2a5.432,5.432,0,0,1-3.936-1.45,5.008,5.008,0,0,1-1.5-3.774V-5.3a6.489,6.489,0,0,1,.6-2.861,4.395,4.395,0,0,1,1.753-1.919,5.292,5.292,0,0,1,2.734-.679A4.574,4.574,0,0,1,47.539-9.38a5.43,5.43,0,0,1,1.289,3.853v1.279H42.285a2.372,2.372,0,0,0,.771,1.4,2.3,2.3,0,0,0,1.543.508,2.958,2.958,0,0,0,2.441-1.094l1.5,1.777A4.2,4.2,0,0,1,46.8-.308,5.891,5.891,0,0,1,44.375.2ZM44-8.223q-1.445,0-1.719,1.914h3.32v-.254a1.63,1.63,0,0,0-.4-1.226A1.593,1.593,0,0,0,44-8.223ZM54.619-2.344a1.464,1.464,0,0,0,1.074-.376,1.379,1.379,0,0,0,.371-1.05H59.15A3.653,3.653,0,0,1,57.905-.918,4.631,4.631,0,0,1,54.7.2,4.689,4.689,0,0,1,51.064-1.25a5.7,5.7,0,0,1-1.328-4v-.137a6.436,6.436,0,0,1,.591-2.827,4.3,4.3,0,0,1,1.7-1.885,5.081,5.081,0,0,1,2.637-.659,4.573,4.573,0,0,1,3.271,1.143,4.053,4.053,0,0,1,1.211,3.1H56.064a1.807,1.807,0,0,0-.4-1.26,1.382,1.382,0,0,0-1.074-.439q-1.279,0-1.494,1.631a11.507,11.507,0,0,0-.068,1.426,4.52,4.52,0,0,0,.381,2.207A1.319,1.319,0,0,0,54.619-2.344Zm10.391,0a1.464,1.464,0,0,0,1.074-.376,1.379,1.379,0,0,0,.371-1.05h3.086A3.653,3.653,0,0,1,68.3-.918,4.631,4.631,0,0,1,65.088.2,4.689,4.689,0,0,1,61.455-1.25a5.7,5.7,0,0,1-1.328-4v-.137a6.436,6.436,0,0,1,.591-2.827,4.3,4.3,0,0,1,1.7-1.885,5.081,5.081,0,0,1,2.637-.659A4.573,4.573,0,0,1,68.33-9.619a4.053,4.053,0,0,1,1.211,3.1H66.455a1.806,1.806,0,0,0-.4-1.26,1.382,1.382,0,0,0-1.074-.439q-1.279,0-1.494,1.631a11.507,11.507,0,0,0-.068,1.426A4.52,4.52,0,0,0,63.8-2.959,1.319,1.319,0,0,0,65.01-2.344ZM74.4,0H71.1V-10.566h3.3Zm-3.5-13.3a1.482,1.482,0,0,1,.508-1.159,1.909,1.909,0,0,1,1.318-.452,1.909,1.909,0,0,1,1.318.452,1.482,1.482,0,0,1,.508,1.159,1.482,1.482,0,0,1-.508,1.159,1.909,1.909,0,0,1-1.318.452,1.909,1.909,0,0,1-1.318-.452A1.482,1.482,0,0,1,70.908-13.3Zm5.107,7.92A6.236,6.236,0,0,1,76.631-8.2,4.4,4.4,0,0,1,78.4-10.1a5.323,5.323,0,0,1,2.705-.664,4.858,4.858,0,0,1,3.74,1.47,5.64,5.64,0,0,1,1.367,4v.117a5.472,5.472,0,0,1-1.372,3.921A4.871,4.871,0,0,1,81.123.2,4.927,4.927,0,0,1,77.5-1.157a5.29,5.29,0,0,1-1.475-3.667Zm3.291.205a3.932,3.932,0,0,0,.459,2.148,1.529,1.529,0,0,0,1.357.684q1.758,0,1.8-2.705v-.332q0-2.842-1.816-2.842-1.65,0-1.787,2.451ZM81.553-15h3.477l-2.715,3.066-2.686,0Zm9.131,4.434.107,1.24a3.583,3.583,0,0,1,3.018-1.436,3.015,3.015,0,0,1,2.466.986,4.7,4.7,0,0,1,.845,2.969V0h-3.3V-6.67A1.783,1.783,0,0,0,93.5-7.847a1.491,1.491,0,0,0-1.172-.376,1.569,1.569,0,0,0-1.436.762V0H87.6V-10.566Z" transform="translate(639.313 60.027)" fill="#0077ec"/>
      <path id="Trazado_106629" data-name="Trazado 106629" d="M1.074,0V-14.219h4.58a6.737,6.737,0,0,1,3.389.854,6.006,6.006,0,0,1,2.349,2.412,7.283,7.283,0,0,1,.854,3.491v.654a7.325,7.325,0,0,1-.825,3.5A6.032,6.032,0,0,1,9.1-.884,6.589,6.589,0,0,1,5.752,0ZM4.5-11.572v8.936H5.693a2.666,2.666,0,0,0,2.266-1.05,5.145,5.145,0,0,0,.791-3.12v-.615a5.1,5.1,0,0,0-.791-3.105,2.713,2.713,0,0,0-2.3-1.045ZM18.965.2a5.432,5.432,0,0,1-3.936-1.45,5.008,5.008,0,0,1-1.5-3.774V-5.3a6.489,6.489,0,0,1,.6-2.861,4.395,4.395,0,0,1,1.753-1.919,5.292,5.292,0,0,1,2.734-.679A4.574,4.574,0,0,1,22.129-9.38a5.43,5.43,0,0,1,1.289,3.853v1.279H16.875a2.372,2.372,0,0,0,.771,1.4,2.3,2.3,0,0,0,1.543.508,2.958,2.958,0,0,0,2.441-1.094l1.5,1.777A4.2,4.2,0,0,1,21.392-.308,5.891,5.891,0,0,1,18.965.2Zm-.371-8.418q-1.445,0-1.719,1.914H20.2v-.254a1.63,1.63,0,0,0-.4-1.226A1.593,1.593,0,0,0,18.594-8.223Zm9.98-4.971v2.627h1.738v2.285H28.574v4.834a1.234,1.234,0,0,0,.215.83,1.152,1.152,0,0,0,.85.234,4.828,4.828,0,0,0,.82-.059V-.088A6.074,6.074,0,0,1,28.6.2a3.448,3.448,0,0,1-2.51-.8,3.282,3.282,0,0,1-.811-2.432V-8.281H23.936v-2.285h1.348v-2.627ZM36.719.2a5.432,5.432,0,0,1-3.936-1.45,5.008,5.008,0,0,1-1.5-3.774V-5.3a6.489,6.489,0,0,1,.6-2.861,4.395,4.395,0,0,1,1.753-1.919,5.292,5.292,0,0,1,2.734-.679A4.574,4.574,0,0,1,39.883-9.38a5.43,5.43,0,0,1,1.289,3.853v1.279H34.629a2.372,2.372,0,0,0,.771,1.4,2.3,2.3,0,0,0,1.543.508,2.958,2.958,0,0,0,2.441-1.094l1.5,1.777A4.2,4.2,0,0,1,39.146-.308,5.891,5.891,0,0,1,36.719.2Zm-.371-8.418q-1.445,0-1.719,1.914h3.32v-.254a1.63,1.63,0,0,0-.4-1.226A1.593,1.593,0,0,0,36.348-8.223ZM46.963-2.344a1.464,1.464,0,0,0,1.074-.376,1.379,1.379,0,0,0,.371-1.05h3.086A3.653,3.653,0,0,1,50.249-.918,4.631,4.631,0,0,1,47.041.2,4.689,4.689,0,0,1,43.408-1.25a5.7,5.7,0,0,1-1.328-4v-.137a6.436,6.436,0,0,1,.591-2.827,4.3,4.3,0,0,1,1.7-1.885,5.081,5.081,0,0,1,2.637-.659,4.573,4.573,0,0,1,3.271,1.143,4.053,4.053,0,0,1,1.211,3.1H48.408a1.807,1.807,0,0,0-.4-1.26,1.382,1.382,0,0,0-1.074-.439q-1.279,0-1.494,1.631a11.507,11.507,0,0,0-.068,1.426,4.52,4.52,0,0,0,.381,2.207A1.319,1.319,0,0,0,46.963-2.344Zm10.391,0a1.464,1.464,0,0,0,1.074-.376A1.379,1.379,0,0,0,58.8-3.77h3.086A3.653,3.653,0,0,1,60.64-.918,4.631,4.631,0,0,1,57.432.2,4.689,4.689,0,0,1,53.8-1.25a5.7,5.7,0,0,1-1.328-4v-.137a6.436,6.436,0,0,1,.591-2.827,4.3,4.3,0,0,1,1.7-1.885,5.081,5.081,0,0,1,2.637-.659,4.573,4.573,0,0,1,3.271,1.143,4.053,4.053,0,0,1,1.211,3.1H58.8a1.807,1.807,0,0,0-.4-1.26,1.382,1.382,0,0,0-1.074-.439q-1.279,0-1.494,1.631a11.507,11.507,0,0,0-.068,1.426,4.52,4.52,0,0,0,.381,2.207A1.319,1.319,0,0,0,57.354-2.344ZM66.748,0h-3.3V-10.566h3.3Zm-3.5-13.3a1.482,1.482,0,0,1,.508-1.159,1.909,1.909,0,0,1,1.318-.452,1.909,1.909,0,0,1,1.318.452A1.482,1.482,0,0,1,66.9-13.3a1.482,1.482,0,0,1-.508,1.159,1.909,1.909,0,0,1-1.318.452,1.909,1.909,0,0,1-1.318-.452A1.482,1.482,0,0,1,63.252-13.3Zm5.107,7.92A6.236,6.236,0,0,1,68.975-8.2a4.4,4.4,0,0,1,1.768-1.9,5.323,5.323,0,0,1,2.705-.664,4.858,4.858,0,0,1,3.74,1.47,5.64,5.64,0,0,1,1.367,4v.117a5.472,5.472,0,0,1-1.372,3.921A4.871,4.871,0,0,1,73.467.2a4.927,4.927,0,0,1-3.623-1.353,5.29,5.29,0,0,1-1.475-3.667Zm3.291.205a3.932,3.932,0,0,0,.459,2.148,1.529,1.529,0,0,0,1.357.684q1.758,0,1.8-2.705v-.332q0-2.842-1.816-2.842-1.65,0-1.787,2.451ZM73.9-15h3.477l-2.715,3.066-2.686,0Zm9.131,4.434.107,1.24a3.583,3.583,0,0,1,3.018-1.436,3.015,3.015,0,0,1,2.466.986,4.7,4.7,0,0,1,.845,2.969V0h-3.3V-6.67a1.783,1.783,0,0,0-.322-1.177,1.491,1.491,0,0,0-1.172-.376,1.569,1.569,0,0,0-1.436.762V0H79.941V-10.566Z" transform="translate(711.313 312.134)" fill="#0077ec"/>
      <path id="Trazado_106630" data-name="Trazado 106630" d="M6.357-5.029H4.5V0H1.074V-14.219h5.6A6.246,6.246,0,0,1,10.625-13.1a3.8,3.8,0,0,1,1.426,3.17,4.616,4.616,0,0,1-.6,2.458,4.263,4.263,0,0,1-1.88,1.58L12.539-.147V0H8.867ZM4.5-7.666H6.67A1.946,1.946,0,0,0,8.14-8.18a1.987,1.987,0,0,0,.493-1.434,2.01,2.01,0,0,0-.5-1.444,1.928,1.928,0,0,0-1.465-.524H4.5ZM19.082.2a5.432,5.432,0,0,1-3.936-1.45,5.008,5.008,0,0,1-1.5-3.774V-5.3a6.489,6.489,0,0,1,.6-2.861A4.395,4.395,0,0,1,16-10.083a5.292,5.292,0,0,1,2.734-.679A4.574,4.574,0,0,1,22.246-9.38a5.43,5.43,0,0,1,1.289,3.853v1.279H16.992a2.372,2.372,0,0,0,.771,1.4,2.3,2.3,0,0,0,1.543.508,2.958,2.958,0,0,0,2.441-1.094l1.5,1.777A4.2,4.2,0,0,1,21.509-.308,5.891,5.891,0,0,1,19.082.2Zm-.371-8.418q-1.445,0-1.719,1.914h3.32v-.254a1.63,1.63,0,0,0-.4-1.226A1.593,1.593,0,0,0,18.711-8.223Zm11.68,5.254a.76.76,0,0,0-.439-.674,6.685,6.685,0,0,0-1.67-.527,7.615,7.615,0,0,1-2.031-.718,3.4,3.4,0,0,1-1.221-1.079,2.577,2.577,0,0,1-.42-1.455,2.92,2.92,0,0,1,1.2-2.4,4.948,4.948,0,0,1,3.145-.942,5.482,5.482,0,0,1,3.359.947,2.962,2.962,0,0,1,1.27,2.49h-3.3q0-1.27-1.338-1.27a1.326,1.326,0,0,0-.869.288.892.892,0,0,0-.352.718.819.819,0,0,0,.43.713,4.06,4.06,0,0,0,1.372.449,11.857,11.857,0,0,1,1.655.42,3.007,3.007,0,0,1,2.383,2.939A2.767,2.767,0,0,1,32.28-.713,5.631,5.631,0,0,1,28.955.2a5.747,5.747,0,0,1-2.422-.488,4.05,4.05,0,0,1-1.66-1.328,3.007,3.007,0,0,1-.6-1.768h3.076a1.272,1.272,0,0,0,.488,1.069,2.009,2.009,0,0,0,1.2.337,1.58,1.58,0,0,0,1.011-.273A.875.875,0,0,0,30.391-2.969ZM44.912-5.205A6.372,6.372,0,0,1,43.8-1.274,3.554,3.554,0,0,1,40.811.2,3.046,3.046,0,0,1,38.418-.869V4.063H35.127V-10.566H38.2l.1.977a3.046,3.046,0,0,1,2.49-1.172,3.582,3.582,0,0,1,3.037,1.44,6.45,6.45,0,0,1,1.084,3.96ZM41.621-5.41q0-2.812-1.641-2.812a1.549,1.549,0,0,0-1.562.84v4.16A1.6,1.6,0,0,0,40-2.344q1.572,0,1.621-2.715ZM52.656-1.143A3.393,3.393,0,0,1,49.834.2,3.328,3.328,0,0,1,47.2-.815a4.251,4.251,0,0,1-.894-2.905v-6.846H49.6V-3.7a1.183,1.183,0,0,0,1.318,1.357,1.72,1.72,0,0,0,1.611-.811v-7.412H55.84V0H52.754ZM62.754.2a5.432,5.432,0,0,1-3.936-1.45,5.008,5.008,0,0,1-1.5-3.774V-5.3a6.489,6.489,0,0,1,.6-2.861,4.395,4.395,0,0,1,1.753-1.919,5.292,5.292,0,0,1,2.734-.679A4.574,4.574,0,0,1,65.918-9.38a5.43,5.43,0,0,1,1.289,3.853v1.279H60.664a2.372,2.372,0,0,0,.771,1.4,2.3,2.3,0,0,0,1.543.508A2.958,2.958,0,0,0,65.42-3.437l1.5,1.777A4.2,4.2,0,0,1,65.181-.308,5.891,5.891,0,0,1,62.754.2Zm-.371-8.418q-1.445,0-1.719,1.914h3.32v-.254a1.63,1.63,0,0,0-.4-1.226A1.593,1.593,0,0,0,62.383-8.223Zm11.68,5.254a.76.76,0,0,0-.439-.674,6.685,6.685,0,0,0-1.67-.527,7.615,7.615,0,0,1-2.031-.718A3.4,3.4,0,0,1,68.7-5.967a2.577,2.577,0,0,1-.42-1.455,2.92,2.92,0,0,1,1.2-2.4,4.948,4.948,0,0,1,3.145-.942,5.482,5.482,0,0,1,3.359.947,2.962,2.962,0,0,1,1.27,2.49h-3.3q0-1.27-1.338-1.27a1.326,1.326,0,0,0-.869.288.892.892,0,0,0-.352.718.819.819,0,0,0,.43.713,4.06,4.06,0,0,0,1.372.449,11.857,11.857,0,0,1,1.655.42,3.007,3.007,0,0,1,2.383,2.939A2.767,2.767,0,0,1,75.952-.713,5.631,5.631,0,0,1,72.627.2a5.747,5.747,0,0,1-2.422-.488,4.05,4.05,0,0,1-1.66-1.328,3.007,3.007,0,0,1-.6-1.768h3.076a1.272,1.272,0,0,0,.488,1.069,2.009,2.009,0,0,0,1.2.337,1.58,1.58,0,0,0,1.011-.273A.875.875,0,0,0,74.063-2.969Zm8.545-10.225v2.627h1.738v2.285H82.607v4.834a1.234,1.234,0,0,0,.215.83,1.152,1.152,0,0,0,.85.234,4.828,4.828,0,0,0,.82-.059V-.088A6.074,6.074,0,0,1,82.637.2a3.448,3.448,0,0,1-2.51-.8,3.282,3.282,0,0,1-.811-2.432V-8.281H77.969v-2.285h1.348v-2.627ZM91.592,0a3.716,3.716,0,0,1-.312-.947A3.06,3.06,0,0,1,88.74.2a3.749,3.749,0,0,1-2.539-.9,2.875,2.875,0,0,1-1.045-2.271,2.955,2.955,0,0,1,1.27-2.6,6.468,6.468,0,0,1,3.691-.879h1.016v-.559q0-1.462-1.26-1.462A1.03,1.03,0,0,0,88.7-7.319H85.41a2.95,2.95,0,0,1,1.3-2.487,5.479,5.479,0,0,1,3.325-.956,4.8,4.8,0,0,1,3.193.986,3.429,3.429,0,0,1,1.2,2.705v4.678a4.79,4.79,0,0,0,.449,2.227V0ZM89.531-2.148a1.836,1.836,0,0,0,1.021-.264,1.653,1.653,0,0,0,.581-.6V-4.7h-.957q-1.719,0-1.719,1.543a.942.942,0,0,0,.3.728A1.1,1.1,0,0,0,89.531-2.148Z" transform="translate(531.366 527.454)" fill="#0077ec"/>
      <path id="Trazado_106627" data-name="Trazado 106627" d="M-117.7-5.029h-1.855V0h-3.428V-14.219h5.6a6.246,6.246,0,0,1,3.955,1.122A3.8,3.8,0,0,1-112-9.926a4.616,4.616,0,0,1-.6,2.458,4.263,4.263,0,0,1-1.88,1.58l2.969,5.741V0h-3.672Zm-1.855-2.637h2.168a1.946,1.946,0,0,0,1.47-.514,1.987,1.987,0,0,0,.493-1.434,2.01,2.01,0,0,0-.5-1.444,1.928,1.928,0,0,0-1.465-.524h-2.168ZM-104.971.2a5.432,5.432,0,0,1-3.936-1.45,5.008,5.008,0,0,1-1.5-3.774V-5.3a6.489,6.489,0,0,1,.6-2.861,4.395,4.395,0,0,1,1.753-1.919,5.292,5.292,0,0,1,2.734-.679,4.574,4.574,0,0,1,3.516,1.382,5.43,5.43,0,0,1,1.289,3.853v1.279h-6.543a2.372,2.372,0,0,0,.771,1.4,2.3,2.3,0,0,0,1.543.508A2.958,2.958,0,0,0-102.3-3.437l1.5,1.777a4.2,4.2,0,0,1-1.743,1.353A5.891,5.891,0,0,1-104.971.2Zm-.371-8.418q-1.445,0-1.719,1.914h3.32v-.254a1.63,1.63,0,0,0-.4-1.226A1.593,1.593,0,0,0-105.342-8.223Zm10.615,5.879a1.464,1.464,0,0,0,1.074-.376,1.379,1.379,0,0,0,.371-1.05H-90.2A3.653,3.653,0,0,1-91.44-.918,4.631,4.631,0,0,1-94.648.2,4.689,4.689,0,0,1-98.281-1.25a5.7,5.7,0,0,1-1.328-4v-.137a6.436,6.436,0,0,1,.591-2.827,4.3,4.3,0,0,1,1.7-1.885,5.081,5.081,0,0,1,2.637-.659,4.573,4.573,0,0,1,3.271,1.143,4.053,4.053,0,0,1,1.211,3.1h-3.086a1.806,1.806,0,0,0-.4-1.26,1.382,1.382,0,0,0-1.074-.439q-1.279,0-1.494,1.631a11.508,11.508,0,0,0-.068,1.426,4.52,4.52,0,0,0,.381,2.207A1.319,1.319,0,0,0-94.727-2.344Zm12.217,1.2A3.393,3.393,0,0,1-85.332.2,3.328,3.328,0,0,1-87.964-.815a4.251,4.251,0,0,1-.894-2.905v-6.846h3.291V-3.7a1.183,1.183,0,0,0,1.318,1.357,1.72,1.72,0,0,0,1.611-.811v-7.412h3.311V0h-3.086Zm14.795-4.062a6.372,6.372,0,0,1-1.108,3.931A3.554,3.554,0,0,1-71.816.2,3.046,3.046,0,0,1-74.209-.869V4.063H-77.5V-10.566h3.076l.1.977a3.046,3.046,0,0,1,2.49-1.172A3.582,3.582,0,0,1-68.8-9.321a6.45,6.45,0,0,1,1.084,3.96Zm-3.291-.205q0-2.812-1.641-2.812a1.549,1.549,0,0,0-1.562.84v4.16a1.6,1.6,0,0,0,1.582.879q1.572,0,1.621-2.715ZM-61.152.2a5.432,5.432,0,0,1-3.936-1.45,5.008,5.008,0,0,1-1.5-3.774V-5.3a6.489,6.489,0,0,1,.6-2.861,4.395,4.395,0,0,1,1.753-1.919,5.292,5.292,0,0,1,2.734-.679A4.574,4.574,0,0,1-57.988-9.38,5.43,5.43,0,0,1-56.7-5.527v1.279h-6.543a2.372,2.372,0,0,0,.771,1.4,2.3,2.3,0,0,0,1.543.508,2.958,2.958,0,0,0,2.441-1.094l1.5,1.777A4.2,4.2,0,0,1-58.726-.308,5.891,5.891,0,0,1-61.152.2Zm-.371-8.418q-1.445,0-1.719,1.914h3.32v-.254a1.63,1.63,0,0,0-.4-1.226A1.593,1.593,0,0,0-61.523-8.223Zm12.539.635-1.084-.078a1.947,1.947,0,0,0-1.992.977V0h-3.291V-10.566h3.086l.107,1.357a2.548,2.548,0,0,1,2.314-1.553,3.209,3.209,0,0,1,.918.117ZM-42.139,0a3.716,3.716,0,0,1-.312-.947A3.06,3.06,0,0,1-44.99.2a3.749,3.749,0,0,1-2.539-.9,2.875,2.875,0,0,1-1.045-2.271,2.955,2.955,0,0,1,1.27-2.6,6.468,6.468,0,0,1,3.691-.879H-42.6v-.559q0-1.462-1.26-1.462a1.03,1.03,0,0,0-1.172,1.158H-48.32a2.95,2.95,0,0,1,1.3-2.487,5.479,5.479,0,0,1,3.325-.956,4.8,4.8,0,0,1,3.193.986A3.429,3.429,0,0,1-39.3-7.07v4.678a4.79,4.79,0,0,0,.449,2.227V0ZM-44.2-2.148a1.836,1.836,0,0,0,1.021-.264,1.653,1.653,0,0,0,.581-.6V-4.7h-.957q-1.719,0-1.719,1.543a.942.942,0,0,0,.3.728A1.1,1.1,0,0,0-44.2-2.148Zm11.191-.2a1.464,1.464,0,0,0,1.074-.376,1.379,1.379,0,0,0,.371-1.05h3.086A3.653,3.653,0,0,1-29.722-.918,4.631,4.631,0,0,1-32.93.2,4.689,4.689,0,0,1-36.562-1.25a5.7,5.7,0,0,1-1.328-4v-.137A6.436,6.436,0,0,1-37.3-8.218,4.3,4.3,0,0,1-35.6-10.1a5.081,5.081,0,0,1,2.637-.659,4.573,4.573,0,0,1,3.271,1.143,4.053,4.053,0,0,1,1.211,3.1h-3.086a1.807,1.807,0,0,0-.4-1.26,1.382,1.382,0,0,0-1.074-.439q-1.279,0-1.494,1.631A11.507,11.507,0,0,0-34.6-5.166a4.52,4.52,0,0,0,.381,2.207A1.319,1.319,0,0,0-33.008-2.344ZM-23.613,0h-3.3V-10.566h3.3Zm-3.5-13.3A1.482,1.482,0,0,1-26.6-14.46a1.909,1.909,0,0,1,1.318-.452,1.909,1.909,0,0,1,1.318.452,1.482,1.482,0,0,1,.508,1.159,1.482,1.482,0,0,1-.508,1.159,1.909,1.909,0,0,1-1.318.452,1.909,1.909,0,0,1-1.318-.452A1.482,1.482,0,0,1-27.109-13.3ZM-22-5.381A6.236,6.236,0,0,1-21.387-8.2a4.4,4.4,0,0,1,1.768-1.9,5.323,5.323,0,0,1,2.705-.664,4.858,4.858,0,0,1,3.74,1.47,5.64,5.64,0,0,1,1.367,4v.117a5.472,5.472,0,0,1-1.372,3.921A4.871,4.871,0,0,1-16.895.2a4.927,4.927,0,0,1-3.623-1.353,5.29,5.29,0,0,1-1.475-3.667Zm3.291.205a3.932,3.932,0,0,0,.459,2.148,1.529,1.529,0,0,0,1.357.684q1.758,0,1.8-2.705v-.332q0-2.842-1.816-2.842-1.65,0-1.787,2.451ZM-16.465-15h3.477L-15.7-11.934l-2.686,0Zm9.131,4.434.107,1.24a3.583,3.583,0,0,1,3.018-1.436,3.015,3.015,0,0,1,2.466.986A4.7,4.7,0,0,1-.9-6.807V0H-4.2V-6.67a1.783,1.783,0,0,0-.322-1.177,1.491,1.491,0,0,0-1.172-.376,1.569,1.569,0,0,0-1.436.762V0H-10.42V-10.566Z" transform="translate(264.487 342.133)" fill="#0077ec"/>
      <path id="Trazado_106626" data-name="Trazado 106626" d="M-119.209,0h-3.418V-14.219h3.418Zm1.816-5.361a6.455,6.455,0,0,1,1.084-3.955,3.568,3.568,0,0,1,3.027-1.445A3.035,3.035,0,0,1-110.9-9.648V-15h3.3V0h-2.959l-.166-1.133A3.116,3.116,0,0,1-113.3.2a3.562,3.562,0,0,1-2.988-1.445A6.659,6.659,0,0,1-117.393-5.361Zm3.291.205q0,2.813,1.641,2.813a1.62,1.62,0,0,0,1.563-.918V-7.285a1.576,1.576,0,0,0-1.543-.937q-1.523,0-1.65,2.461ZM-100.615.2a5.432,5.432,0,0,1-3.936-1.45,5.008,5.008,0,0,1-1.5-3.774V-5.3a6.489,6.489,0,0,1,.6-2.861,4.395,4.395,0,0,1,1.753-1.919,5.292,5.292,0,0,1,2.734-.679A4.574,4.574,0,0,1-97.451-9.38a5.43,5.43,0,0,1,1.289,3.853v1.279h-6.543a2.372,2.372,0,0,0,.771,1.4,2.3,2.3,0,0,0,1.543.508,2.958,2.958,0,0,0,2.441-1.094l1.5,1.777A4.2,4.2,0,0,1-98.188-.308,5.891,5.891,0,0,1-100.615.2Zm-.371-8.418q-1.445,0-1.719,1.914h3.32v-.254a1.63,1.63,0,0,0-.4-1.226A1.593,1.593,0,0,0-100.986-8.223Zm9.17-2.344.107,1.24a3.583,3.583,0,0,1,3.018-1.436,3.015,3.015,0,0,1,2.466.986,4.7,4.7,0,0,1,.845,2.969V0h-3.3V-6.67A1.783,1.783,0,0,0-89-7.847a1.491,1.491,0,0,0-1.172-.376,1.569,1.569,0,0,0-1.436.762V0H-94.9V-10.566Zm12.09-2.627v2.627h1.738v2.285h-1.738v4.834a1.234,1.234,0,0,0,.215.83,1.152,1.152,0,0,0,.85.234,4.828,4.828,0,0,0,.82-.059V-.088A6.074,6.074,0,0,1-79.7.2a3.448,3.448,0,0,1-2.51-.8,3.282,3.282,0,0,1-.811-2.432V-8.281h-1.348v-2.285h1.348v-2.627ZM-73.223,0h-3.3V-10.566h3.3Zm-3.5-13.3a1.482,1.482,0,0,1,.508-1.159,1.909,1.909,0,0,1,1.318-.452,1.909,1.909,0,0,1,1.318.452,1.482,1.482,0,0,1,.508,1.159,1.482,1.482,0,0,1-.508,1.159,1.909,1.909,0,0,1-1.318.452,1.909,1.909,0,0,1-1.318-.452A1.482,1.482,0,0,1-76.719-13.3ZM-70.43,0V-8.281h-1.533v-2.285h1.533v-.352a4.034,4.034,0,0,1,1.387-3.232,5.541,5.541,0,0,1,3.6-1.055A12.787,12.787,0,0,1-62-14.639l-.449,2.6L-63-12.187a8.7,8.7,0,0,0-2.246-.283q-1.885,0-1.885,1.719v.186h2.07v2.285h-2.07V0Zm9.941,0H-63.8V-10.566h3.311Zm6.475-2.344a1.464,1.464,0,0,0,1.074-.376,1.379,1.379,0,0,0,.371-1.05h3.086A3.653,3.653,0,0,1-50.728-.918,4.631,4.631,0,0,1-53.936.2,4.689,4.689,0,0,1-57.568-1.25a5.7,5.7,0,0,1-1.328-4v-.137a6.436,6.436,0,0,1,.591-2.827A4.3,4.3,0,0,1-56.6-10.1a5.081,5.081,0,0,1,2.637-.659,4.573,4.573,0,0,1,3.271,1.143,4.053,4.053,0,0,1,1.211,3.1h-3.086a1.807,1.807,0,0,0-.4-1.26,1.382,1.382,0,0,0-1.074-.439q-1.279,0-1.494,1.631a11.507,11.507,0,0,0-.068,1.426,4.52,4.52,0,0,0,.381,2.207A1.319,1.319,0,0,0-54.014-2.344ZM-42.139,0a3.716,3.716,0,0,1-.312-.947A3.06,3.06,0,0,1-44.99.2a3.749,3.749,0,0,1-2.539-.9,2.875,2.875,0,0,1-1.045-2.271,2.955,2.955,0,0,1,1.27-2.6,6.468,6.468,0,0,1,3.691-.879H-42.6v-.559q0-1.462-1.26-1.462a1.03,1.03,0,0,0-1.172,1.158H-48.32a2.95,2.95,0,0,1,1.3-2.487,5.479,5.479,0,0,1,3.325-.956,4.8,4.8,0,0,1,3.193.986A3.429,3.429,0,0,1-39.3-7.07v4.678a4.79,4.79,0,0,0,.449,2.227V0ZM-44.2-2.148a1.836,1.836,0,0,0,1.021-.264,1.653,1.653,0,0,0,.581-.6V-4.7h-.957q-1.719,0-1.719,1.543a.942.942,0,0,0,.3.728A1.1,1.1,0,0,0-44.2-2.148Zm11.191-.2a1.464,1.464,0,0,0,1.074-.376,1.379,1.379,0,0,0,.371-1.05h3.086A3.653,3.653,0,0,1-29.722-.918,4.631,4.631,0,0,1-32.93.2,4.689,4.689,0,0,1-36.562-1.25a5.7,5.7,0,0,1-1.328-4v-.137A6.436,6.436,0,0,1-37.3-8.218,4.3,4.3,0,0,1-35.6-10.1a5.081,5.081,0,0,1,2.637-.659,4.573,4.573,0,0,1,3.271,1.143,4.053,4.053,0,0,1,1.211,3.1h-3.086a1.807,1.807,0,0,0-.4-1.26,1.382,1.382,0,0,0-1.074-.439q-1.279,0-1.494,1.631A11.507,11.507,0,0,0-34.6-5.166a4.52,4.52,0,0,0,.381,2.207A1.319,1.319,0,0,0-33.008-2.344ZM-23.613,0h-3.3V-10.566h3.3Zm-3.5-13.3A1.482,1.482,0,0,1-26.6-14.46a1.909,1.909,0,0,1,1.318-.452,1.909,1.909,0,0,1,1.318.452,1.482,1.482,0,0,1,.508,1.159,1.482,1.482,0,0,1-.508,1.159,1.909,1.909,0,0,1-1.318.452,1.909,1.909,0,0,1-1.318-.452A1.482,1.482,0,0,1-27.109-13.3ZM-22-5.381A6.236,6.236,0,0,1-21.387-8.2a4.4,4.4,0,0,1,1.768-1.9,5.323,5.323,0,0,1,2.705-.664,4.858,4.858,0,0,1,3.74,1.47,5.64,5.64,0,0,1,1.367,4v.117a5.472,5.472,0,0,1-1.372,3.921A4.871,4.871,0,0,1-16.895.2a4.927,4.927,0,0,1-3.623-1.353,5.29,5.29,0,0,1-1.475-3.667Zm3.291.205a3.932,3.932,0,0,0,.459,2.148,1.529,1.529,0,0,0,1.357.684q1.758,0,1.8-2.705v-.332q0-2.842-1.816-2.842-1.65,0-1.787,2.451ZM-16.465-15h3.477L-15.7-11.934l-2.686,0Zm9.131,4.434.107,1.24a3.583,3.583,0,0,1,3.018-1.436,3.015,3.015,0,0,1,2.466.986A4.7,4.7,0,0,1-.9-6.807V0H-4.2V-6.67a1.783,1.783,0,0,0-.322-1.177,1.491,1.491,0,0,0-1.172-.376,1.569,1.569,0,0,0-1.436.762V0H-10.42V-10.566Z" transform="translate(311.487 72.027)" fill="#0077ec"/>
      <path id="Trazado_101042" data-name="Trazado 101042" d="M706.08,69H591.587L573,87.587" transform="translate(47.367 1.027)" fill="rgba(0,0,0,0)" stroke="#0077ec" stroke-miterlimit="10" stroke-width="2"/>
      <path id="Trazado_101057" data-name="Trazado 101057" d="M108.4,0H0" transform="translate(705.1 323.133)" fill="none" stroke="#0077ec" stroke-width="2"/>
      <path id="Trazado_101043" data-name="Trazado 101043" d="M474.5,453.5l18.04,18.04H600.473" transform="translate(38.173 36.913)" fill="rgba(0,0,0,0)" stroke="#0077ec" stroke-miterlimit="10" stroke-width="2"/>
      <path id="Trazado_101058" data-name="Trazado 101058" d="M207.733,0H68" transform="translate(65.5 351.56)" fill="none" stroke="#0077ec" stroke-width="2"/>
      <path id="Trazado_101044" data-name="Trazado 101044" d="M171.5,77.5H311.393L331.62,97.727" transform="translate(4.48 1.82)" fill="rgba(0,0,0,0)" stroke="#0077ec" stroke-miterlimit="10" stroke-width="2"/>
    </g>
    <g id="Enmascarar_grupo_53" data-name="Enmascarar grupo 53" transform="translate(7732 7759)" clip-path="url(#clip-path)">
      <g id="deteccion_1_" data-name="deteccion (1)" transform="translate(-7232.177 -7372.177)">
        <g id="Grupo_54052" data-name="Grupo 54052">
          <path id="Trazado_101154" data-name="Trazado 101154" d="M2.355,11.774V51.806A2.362,2.362,0,0,0,4.71,54.161H70.645A2.362,2.362,0,0,0,73,51.806V11.774Z" fill="#e6e9ed"/>
          <path id="Trazado_101155" data-name="Trazado 101155" d="M2.355,11.774V4.71A2.362,2.362,0,0,1,4.71,2.355H70.645A2.362,2.362,0,0,1,73,4.71v7.065Z" fill="#03e6b0"/>
          <path id="Trazado_101156" data-name="Trazado 101156" d="M54.161,35.323H68.29V49.452H54.161Z" fill="#03e6b0"/>
          <path id="Trazado_101157" data-name="Trazado 101157" d="M15.306,55.339l4.71,4.71,1.177,1.177L10.879,71.54a5,5,0,0,1-7.065-7.065L14.129,54.161Z" fill="#0077ec"/>
          <path id="Trazado_101158" data-name="Trazado 101158" d="M23.913,56.151l-3.9,3.9-4.71-4.71,1.177-1.177,2.72-2.72A16.033,16.033,0,0,0,23.913,56.151Z" fill="#ccd1d9"/>
          <path id="Trazado_101159" data-name="Trazado 101159" d="M32.968,25.9a16.484,16.484,0,1,1-9.054,30.248,16.033,16.033,0,0,1-4.71-4.71A16.478,16.478,0,0,1,32.968,25.9Z" fill="#ffd947"/>
          <circle id="Elipse_4173" data-name="Elipse 4173" cx="11.774" cy="11.774" r="11.774" transform="translate(21.194 30.613)" fill="#69d6f4"/>
        </g>
        <g id="Grupo_54053" data-name="Grupo 54053">
          <path id="Trazado_101160" data-name="Trazado 101160" d="M32.968,29.435A12.952,12.952,0,1,0,45.919,42.387,12.967,12.967,0,0,0,32.968,29.435Zm0,23.548a10.6,10.6,0,1,1,10.6-10.6A10.61,10.61,0,0,1,32.968,52.984Z" fill="#004080"/>
          <path id="Trazado_101161" data-name="Trazado 101161" d="M70.645,1.177H4.71A3.537,3.537,0,0,0,1.177,4.71v47.1A3.537,3.537,0,0,0,4.71,55.339h6.577l-8.3,8.3a6.173,6.173,0,1,0,8.729,8.729L22.858,61.226l-1.177-1.177L24.1,57.633a17.535,17.535,0,0,0,20.838-2.295H70.645a3.537,3.537,0,0,0,3.532-3.532V4.71A3.537,3.537,0,0,0,70.645,1.177ZM4.71,3.532H70.645A1.179,1.179,0,0,1,71.823,4.71V10.6H3.532V4.71A1.179,1.179,0,0,1,4.71,3.532ZM10.05,70.7a3.818,3.818,0,1,1-5.4-5.4l9.478-9.478,5.4,5.4Zm9.966-12.321-3.045-3.045,2.095-2.095a17.825,17.825,0,0,0,3.045,3.045Zm12.952-.69A15.306,15.306,0,1,1,48.274,42.387,15.324,15.324,0,0,1,32.968,57.694Zm37.677-4.71H47.063a17.66,17.66,0,1,0-29.341-1.725L16,52.984h-1.38l-.487-.487-.487.487H4.71a1.179,1.179,0,0,1-1.177-1.177V12.952h68.29V51.806A1.179,1.179,0,0,1,70.645,52.984Z" fill="#004080"/>
          <path id="Trazado_101162" data-name="Trazado 101162" d="M10.6,5.887h2.355V8.242H10.6Z" fill="#004080"/>
          <path id="Trazado_101163" data-name="Trazado 101163" d="M5.887,5.887H8.242V8.242H5.887Z" fill="#004080"/>
          <path id="Trazado_101164" data-name="Trazado 101164" d="M15.306,5.887h2.355V8.242H15.306Z" fill="#004080"/>
          <path id="Trazado_101165" data-name="Trazado 101165" d="M52.984,50.629H69.468V34.145H52.984ZM55.339,36.5H67.113V48.274H55.339Z" fill="#004080"/>
          <path id="Trazado_101166" data-name="Trazado 101166" d="M60.048,43.077l-1.522-1.522L56.861,43.22l3.187,3.187,6.72-6.72L65.1,38.022Z" fill="#004080"/>
          <path id="Trazado_101167" data-name="Trazado 101167" d="M52.984,15.306H69.468v2.355H52.984Z" fill="#004080"/>
          <path id="Trazado_101168" data-name="Trazado 101168" d="M52.984,20.016H69.468v2.355H52.984Z" fill="#004080"/>
          <path id="Trazado_101169" data-name="Trazado 101169" d="M52.984,24.726H69.468v2.355H52.984Z" fill="#004080"/>
          <path id="Trazado_101170" data-name="Trazado 101170" d="M52.984,29.435h2.355V31.79H52.984Z" fill="#004080"/>
          <path id="Trazado_101171" data-name="Trazado 101171" d="M62.4,29.435h2.355V31.79H62.4Z" fill="#004080"/>
          <path id="Trazado_101172" data-name="Trazado 101172" d="M57.694,29.435h2.355V31.79H57.694Z" fill="#004080"/>
          <path id="Trazado_101173" data-name="Trazado 101173" d="M67.113,29.435h2.355V31.79H67.113Z" fill="#004080"/>
          <path id="Trazado_101174" data-name="Trazado 101174" d="M5.887,15.306H8.242v2.355H5.887Z" fill="#004080"/>
          <path id="Trazado_101175" data-name="Trazado 101175" d="M10.6,15.306H32.968v2.355H10.6Z" fill="#004080"/>
          <path id="Trazado_101176" data-name="Trazado 101176" d="M5.887,20.016H32.968v2.355H5.887Z" fill="#004080"/>
          <path id="Trazado_101177" data-name="Trazado 101177" d="M5.887,24.726H17.661v2.355H5.887Z" fill="#004080"/>
          <path id="Trazado_101178" data-name="Trazado 101178" d="M5.887,29.435H17.661V31.79H5.887Z" fill="#004080"/>
          <path id="Trazado_101179" data-name="Trazado 101179" d="M38.855,41.21H41.21v2.355H38.855Z" fill="#004080"/>
          <path id="Trazado_101180" data-name="Trazado 101180" d="M24.726,41.21h2.355v2.355H24.726Z" fill="#004080"/>
          <path id="Trazado_101181" data-name="Trazado 101181" d="M34.145,41.21H36.5v2.355H34.145Z" fill="#004080"/>
          <path id="Trazado_101182" data-name="Trazado 101182" d="M29.435,41.21H31.79v2.355H29.435Z" fill="#004080"/>
        </g>
      </g>
    </g>
    <g id="Enmascarar_grupo_51" data-name="Enmascarar grupo 51" transform="translate(7732 7759)" clip-path="url(#clip-path-2)">
      <g id="recuperacion-de-datos_1_" data-name="recuperacion-de-datos (1)" transform="translate(-7524.177 -7363.177)">
        <g id="Grupo_54050" data-name="Grupo 54050">
          <g id="Grupo_54045" data-name="Grupo 54045">
            <path id="Trazado_101119" data-name="Trazado 101119" d="M63.581,35.323,71.823,47.1h-3.9A30.619,30.619,0,0,1,11.857,58.847l6.982-2.331A23.552,23.552,0,0,0,60.755,47.1H55.339Z" fill="#03e6b0"/>
          </g>
          <g id="Grupo_54046" data-name="Grupo 54046">
            <path id="Trazado_101120" data-name="Trazado 101120" d="M26.857,7.818l1.448,2.543a11.108,11.108,0,0,0-.754,1.813l-2.826.777v2.72A23.617,23.617,0,0,0,14.6,30.613h5.416L11.774,42.387,3.532,30.613h3.9A30.621,30.621,0,0,1,28.541,6.123l.012.012Z" fill="#03e6b0"/>
          </g>
          <g id="Grupo_54047" data-name="Grupo 54047">
            <path id="Trazado_101121" data-name="Trazado 101121" d="M48.5,7.818,46.791,6.111V6.1A30.77,30.77,0,0,1,63.5,18.862l-6.982,2.331a23.51,23.51,0,0,0-5.887-5.534V12.952L47.8,12.175a11.108,11.108,0,0,0-.754-1.813Z" fill="#03e6b0"/>
          </g>
          <g id="Grupo_54048" data-name="Grupo 54048">
            <path id="Trazado_101122" data-name="Trazado 101122" d="M45.4,25.9l-.235.224-2.543-1.448a11.108,11.108,0,0,1-1.813.754l-.777,2.826h-4.71l-.777-2.826a11.108,11.108,0,0,1-1.813-.754l-2.543,1.448-.235-.224H25.9V56.516H49.452V25.9Z" fill="#e6e9ed"/>
          </g>
          <g id="Grupo_54049" data-name="Grupo 54049">
            <path id="Trazado_101123" data-name="Trazado 101123" d="M45.4,25.9l-.235.224-2.543-1.448a11.108,11.108,0,0,1-1.813.754l-.777,2.826h-4.71l-.777-2.826a11.108,11.108,0,0,1-1.813-.754l-2.543,1.448-.235-.224-3.1-3.108,1.448-2.543a11.108,11.108,0,0,1-.754-1.813l-2.826-.777v-4.71l2.826-.777a11.108,11.108,0,0,1,.754-1.813L26.857,7.818l1.7-1.684,1.637-1.648,2.543,1.448a11.108,11.108,0,0,1,1.813-.754l.777-2.826h4.71l.777,2.826a11.108,11.108,0,0,1,1.813.754l2.543-1.448,1.625,1.625L48.5,7.818,47.05,10.361a11.108,11.108,0,0,1,.754,1.813l2.826.777v4.71l-2.826.777a11.108,11.108,0,0,1-.754,1.813L48.5,22.795Zm-1.837-10.6a5.887,5.887,0,1,0-5.887,5.887A5.889,5.889,0,0,0,43.565,15.306Z" fill="#ffd947"/>
          </g>
        </g>
        <g id="Grupo_54051" data-name="Grupo 54051">
          <path id="Trazado_101124" data-name="Trazado 101124" d="M37.677,22.371a7.065,7.065,0,1,0-7.065-7.065A7.072,7.072,0,0,0,37.677,22.371Zm0-11.774a4.71,4.71,0,1,1-4.71,4.71A4.714,4.714,0,0,1,37.677,10.6Z" fill="#004080"/>
          <path id="Trazado_101125" data-name="Trazado 101125" d="M63.581,33.269l-10.5,15.005h6.187A22.44,22.44,0,0,1,37.677,64.758a22.2,22.2,0,0,1-17.9-8.948l-.51-.678L10.054,58.2l.812,1.273a31.681,31.681,0,0,0,26.811,14.7,32.009,32.009,0,0,0,31.245-25.9h5.162Zm3.339,12.65-.154,1a29.623,29.623,0,0,1-29.088,24.9A29.314,29.314,0,0,1,13.7,59.471L18.42,57.9a24.523,24.523,0,0,0,19.258,9.214,24.793,24.793,0,0,0,24.23-19.782l.286-1.412H57.6l5.98-8.543,5.981,8.543Z" fill="#004080"/>
          <path id="Trazado_101126" data-name="Trazado 101126" d="M22.277,29.435H16.092a22.56,22.56,0,0,1,7.457-11.422v.548l3.091.845q.152.4.337.805L25.386,23l1.728,1.727H24.726V57.694h25.9V24.726H48.24L49.968,23l-1.59-2.787c.122-.267.235-.536.337-.805l3.091-.844v-.566A22.346,22.346,0,0,1,55.575,21.9l.51.678L65.3,19.505l-.812-1.273A31.854,31.854,0,0,0,47.441,5.088L45.368,3.015,42.584,4.606c-.266-.122-.536-.235-.807-.337l-.847-3.092H34.424l-.845,3.091c-.271.1-.54.214-.807.337L29.988,3.014,27.9,5.1A31.972,31.972,0,0,0,6.432,29.435H1.27l10.5,15.005Zm26-2.355V55.339H27.081V27.081H29.47l.518.517,2.785-1.591c.266.122.536.235.807.337l.845,3.092h6.506l.845-3.091c.271-.1.54-.214.807-.337L45.367,27.6l.518-.518Zm13.377-8.841-4.717,1.573a24.738,24.738,0,0,0-5.128-4.76v-3l-3.091-.845c-.1-.27-.214-.539-.337-.807l1.139-2a29.5,29.5,0,0,1,12.133,9.835ZM30.382,5.952l2.33,1.33.572-.3A9.335,9.335,0,0,1,34.9,6.305l.618-.19.706-2.583h2.913l.706,2.582.618.19a9.428,9.428,0,0,1,1.612.673l.572.3,2.33-1.33,2.06,2.059L45.7,10.34l.3.572a9.27,9.27,0,0,1,.672,1.613l.191.617,2.582.709v2.912l-2.582.708-.191.617a9.426,9.426,0,0,1-.673,1.614l-.3.571,1.329,2.33-2.06,2.059-2.33-1.33-.572.3a9.335,9.335,0,0,1-1.612.673l-.618.19-.706,2.582H36.221L35.514,24.5l-.618-.19a9.428,9.428,0,0,1-1.612-.673l-.572-.3-2.33,1.33L28.322,22.6l1.329-2.33-.3-.571a9.426,9.426,0,0,1-.673-1.614l-.191-.617L25.9,16.762V13.85l2.582-.708.191-.617a9.363,9.363,0,0,1,.672-1.613l.3-.572L28.322,8.01ZM8.435,31.79l.154-1A29.583,29.583,0,0,1,25.842,8.414L26.976,10.4c-.122.267-.235.536-.337.807l-3.091.844v3.027a24.872,24.872,0,0,0-10.1,15.3l-.286,1.413h4.593l-5.98,8.543L5.794,31.79Z" fill="#004080"/>
          <path id="Trazado_101127" data-name="Trazado 101127" d="M43.565,50.629H41.21V43.565H38.855v7.065H36.5v-4.71H34.145v4.71h-4.71v2.355H45.919V41.21H43.565Z" fill="#004080"/>
          <path id="Trazado_101128" data-name="Trazado 101128" d="M29.435,31.79H31.79v2.355H29.435Z" fill="#004080"/>
          <path id="Trazado_101129" data-name="Trazado 101129" d="M34.145,31.79H45.919v2.355H34.145Z" fill="#004080"/>
          <path id="Trazado_101130" data-name="Trazado 101130" d="M29.435,36.5H45.919v2.355H29.435Z" fill="#004080"/>
        </g>
      </g>
    </g>
    <g id="Enmascarar_grupo_48" data-name="Enmascarar grupo 48" transform="translate(7732 7759)" clip-path="url(#clip-path-3)">
      <g id="identificacion-de-huellas-dactilares" transform="translate(-7477.177 -7540.177)">
        <path id="Trazado_101076" data-name="Trazado 101076" d="M42.387,7.065V9.419h-4.71a2.362,2.362,0,0,0-2.355,2.355H2.355V7.065a4.708,4.708,0,0,1,4.71-4.71H37.677A4.708,4.708,0,0,1,42.387,7.065Z" fill="#969faa"/>
        <path id="Trazado_101077" data-name="Trazado 101077" d="M42.387,63.581v4.71A4.708,4.708,0,0,1,37.677,73H7.065a4.708,4.708,0,0,1-4.71-4.71v-4.71Z" fill="#969faa"/>
        <path id="Trazado_101078" data-name="Trazado 101078" d="M2.355,11.774H42.387V63.581H2.355Z" fill="#69d6f4"/>
        <path id="Trazado_101079" data-name="Trazado 101079" d="M7.065,16.484H37.677V58.871H7.065Z" fill="#e6e9ed"/>
        <path id="Trazado_101080" data-name="Trazado 101080" d="M26.221,40.515a8.089,8.089,0,0,1,2.037,5.4,8.242,8.242,0,1,1-8.242-8.242A8.146,8.146,0,0,1,26.221,40.515Z" fill="#03e6b0"/>
        <path id="Trazado_101081" data-name="Trazado 101081" d="M73,11.774V44.742A2.362,2.362,0,0,1,70.645,47.1H37.677a2.362,2.362,0,0,1-2.355-2.355V11.774a2.362,2.362,0,0,1,2.355-2.355H70.645A2.362,2.362,0,0,1,73,11.774Z" fill="#ffd947"/>
        <path id="Trazado_101082" data-name="Trazado 101082" d="M27.081,5.887h2.355V8.242H27.081Z" fill="#004080"/>
        <path id="Trazado_101083" data-name="Trazado 101083" d="M15.306,5.887h9.419V8.242H15.306Z" fill="#004080"/>
        <path id="Trazado_101084" data-name="Trazado 101084" d="M17.661,67.113h9.419v2.355H17.661Z" fill="#004080"/>
        <path id="Trazado_101085" data-name="Trazado 101085" d="M34.145,67.113H36.5v2.355H34.145Z" fill="#004080"/>
        <path id="Trazado_101086" data-name="Trazado 101086" d="M8.242,67.113H10.6v2.355H8.242Z" fill="#004080"/>
        <path id="Trazado_101087" data-name="Trazado 101087" d="M28.516,35.764l-2.4,2.994a9.447,9.447,0,1,0,1.6,1.765l2.63-3.287ZM27.081,45.919A7.087,7.087,0,1,1,24.649,40.6l-4.878,6.1L17.137,44.94,15.832,46.9l4.431,2.954,5.911-7.388A7.016,7.016,0,0,1,27.081,45.919Z" fill="#004080"/>
        <path id="Trazado_101088" data-name="Trazado 101088" d="M70.645,8.242H43.565V7.065a5.894,5.894,0,0,0-5.887-5.887H7.065A5.894,5.894,0,0,0,1.177,7.065V68.29a5.894,5.894,0,0,0,5.887,5.887H37.677a5.894,5.894,0,0,0,5.887-5.887V48.274H70.645a3.537,3.537,0,0,0,3.532-3.532V11.774A3.537,3.537,0,0,0,70.645,8.242ZM7.065,3.532H37.677A3.537,3.537,0,0,1,41.21,7.065V8.242H37.677A3.527,3.527,0,0,0,34.362,10.6H3.532V7.065A3.537,3.537,0,0,1,7.065,3.532ZM36.5,48.058v9.636H8.242V17.661h25.9V44.742A3.527,3.527,0,0,0,36.5,48.058Zm1.177,23.765H7.065A3.537,3.537,0,0,1,3.532,68.29V64.758H41.21V68.29A3.537,3.537,0,0,1,37.677,71.823ZM41.21,62.4H3.532V12.952H34.145v2.355H5.887V60.048H38.855V48.274H41.21ZM71.823,44.742a1.179,1.179,0,0,1-1.177,1.177H37.677A1.179,1.179,0,0,1,36.5,44.742V11.774A1.179,1.179,0,0,1,37.677,10.6H70.645a1.179,1.179,0,0,1,1.177,1.177Z" fill="#004080"/>
        <path id="Trazado_101089" data-name="Trazado 101089" d="M57.694,27.081V25.9a3.532,3.532,0,1,0-7.065,0v4.71a3.532,3.532,0,1,0,7.065,0V29.435H55.339v1.177a1.177,1.177,0,1,1-2.355,0V25.9a1.177,1.177,0,1,1,2.355,0v1.177Z" fill="#004080"/>
        <path id="Trazado_101090" data-name="Trazado 101090" d="M54.161,38.855A8.251,8.251,0,0,0,62.4,30.613V25.9a8.243,8.243,0,0,0-16.015-2.747l2.221.784A5.889,5.889,0,0,1,60.048,25.9v4.71a5.887,5.887,0,1,1-11.774,0V25.9H45.919v4.71A8.251,8.251,0,0,0,54.161,38.855Z" fill="#004080"/>
        <path id="Trazado_101091" data-name="Trazado 101091" d="M43.565,25.9a10.6,10.6,0,0,1,21.194,0v2.355h2.355V25.9a12.952,12.952,0,1,0-25.9,0v4.71A12.84,12.84,0,0,0,43.8,38.386l1.883-1.414a10.5,10.5,0,0,1-2.119-6.359Z" fill="#004080"/>
        <path id="Trazado_101092" data-name="Trazado 101092" d="M64.758,30.613a10.61,10.61,0,0,1-10.6,10.6A10.5,10.5,0,0,1,47.8,39.091L46.39,40.975A12.953,12.953,0,0,0,67.113,30.613Z" fill="#004080"/>
        <circle id="Elipse_4165" data-name="Elipse 4165" cx="1.177" cy="1.177" r="1.177" transform="translate(38.855 12.952)" fill="#004080"/>
        <circle id="Elipse_4166" data-name="Elipse 4166" cx="1.177" cy="1.177" r="1.177" transform="translate(67.113 12.952)" fill="#004080"/>
        <circle id="Elipse_4167" data-name="Elipse 4167" cx="1.177" cy="1.177" r="1.177" transform="translate(38.855 41.21)" fill="#004080"/>
        <circle id="Elipse_4168" data-name="Elipse 4168" cx="1.177" cy="1.177" r="1.177" transform="translate(67.113 41.21)" fill="#004080"/>
        <path id="Trazado_101093" data-name="Trazado 101093" d="M10.6,20.016H31.79v2.355H10.6Z" fill="#004080"/>
        <path id="Trazado_101094" data-name="Trazado 101094" d="M10.6,24.726H27.081v2.355H10.6Z" fill="#004080"/>
        <path id="Trazado_101095" data-name="Trazado 101095" d="M29.435,24.726H31.79v2.355H29.435Z" fill="#004080"/>
        <path id="Trazado_101096" data-name="Trazado 101096" d="M10.6,29.435H31.79V31.79H10.6Z" fill="#004080"/>
      </g>
    </g>
    <g id="Enmascarar_grupo_55" data-name="Enmascarar grupo 55" transform="translate(7732 7759)" clip-path="url(#clip-path-4)">
      <g id="respuesta_1_" data-name="respuesta (1)" transform="translate(-7372 -7260)">
        <rect id="Rectángulo_5251" data-name="Rectángulo 5251" width="59.312" height="41.062" rx="4.562" transform="translate(71.859 57.031) rotate(180)" fill="#ffb632"/>
        <path id="Trazado_101183" data-name="Trazado 101183" d="M12.547,34.219V27.375L1.141,38.781,12.547,50.187V43.344c13.859,0,25.094,6.128,25.094,13.687C37.641,44.432,26.405,34.219,12.547,34.219Z" fill="#03e6b0"/>
        <path id="Trazado_101184" data-name="Trazado 101184" d="M71.859,20.531,44.472,36.223a4.568,4.568,0,0,1-4.537,0L12.547,20.531a4.562,4.562,0,0,1,4.562-4.562H67.3A4.562,4.562,0,0,1,71.859,20.531Z" fill="#ffd947"/>
        <path id="Trazado_101185" data-name="Trazado 101185" d="M67.3,14.828H17.109a5.71,5.71,0,0,0-5.7,5.7V26.9L.334,37.975a1.141,1.141,0,0,0,0,1.613L11.406,50.66v1.809a5.71,5.71,0,0,0,5.7,5.7H67.3a5.71,5.71,0,0,0,5.7-5.7V20.531a5.71,5.71,0,0,0-5.7-5.7ZM17.109,17.109H67.3A3.427,3.427,0,0,1,70.66,19.9L43.9,35.233a3.435,3.435,0,0,1-3.4,0L13.746,19.9a3.427,3.427,0,0,1,3.363-2.795Zm-5.7,13.019v4.09a1.141,1.141,0,0,0,1.141,1.141c10.144,0,18.835,5.735,22.322,13.809a20.711,20.711,0,0,0-4.032-2.816c-4.9-2.676-11.4-4.149-18.29-4.149a1.141,1.141,0,0,0-1.141,1.141v4.09L2.754,38.781Zm2.281,22.34V44.5a35.981,35.981,0,0,1,16.057,3.856c3.839,2.094,6.157,4.735,6.653,7.537H17.109a3.426,3.426,0,0,1-3.422-3.422ZM67.3,55.891H38.751c-.637-12.335-11.54-22.259-25.064-22.79V22.5l25.68,14.714a5.725,5.725,0,0,0,5.67,0L70.719,22.5v29.97A3.426,3.426,0,0,1,67.3,55.891Z" fill="#004080"/>
      </g>
    </g>
    <g id="Enmascarar_grupo_56" data-name="Enmascarar grupo 56" transform="translate(-684 -3941)" clip-path="url(#clip-path-5)">
      <g id="proteger" transform="translate(1120 4151)">
        <path id="Trazado_101186" data-name="Trazado 101186" d="M40.48,70.1,37.31,71.761a1.741,1.741,0,0,1-1.62,0L32.521,70.1C15.118,60.948,4.4,44.069,4.4,25.806V14.65a1.732,1.732,0,0,1,1.536-1.729c6-.633,10.768-4.927,11.528-10.358a1.751,1.751,0,0,1,1.727-1.524H53.808a1.751,1.751,0,0,1,1.727,1.524c.76,5.431,5.529,9.726,11.528,10.358A1.732,1.732,0,0,1,68.6,14.65V25.806C68.6,44.069,57.882,60.948,40.48,70.1Z" fill="#e1e6e9"/>
        <path id="Trazado_101187" data-name="Trazado 101187" d="M67.063,12.921c-6-.633-10.768-4.927-11.528-10.358a1.751,1.751,0,0,0-1.727-1.524H51.451c.339,7.53,5.7,12.87,11.51,13.483A1.732,1.732,0,0,1,64.5,16.25V27.406C64.5,45.67,53.781,62.549,36.378,71.7l-.366.192a1.739,1.739,0,0,0,1.3-.127L40.48,70.1C57.883,60.948,68.6,44.069,68.6,25.806V14.65A1.732,1.732,0,0,0,67.063,12.921Z" fill="#cbcbcb"/>
        <path id="Trazado_101188" data-name="Trazado 101188" d="M35.326,65.622A49.862,49.862,0,0,1,16.343,48.383,43.2,43.2,0,0,1,9.5,25.226V18.894a2.235,2.235,0,0,1,1.409-2.08,19.622,19.622,0,0,0,10.552-9.7,2.23,2.23,0,0,1,2.017-1.265H49.518a2.231,2.231,0,0,1,2.017,1.265,19.622,19.622,0,0,0,10.552,9.7,2.236,2.236,0,0,1,1.409,2.08v6.332a43.2,43.2,0,0,1-6.838,23.157A49.864,49.864,0,0,1,37.675,65.622l-.131.069a2.242,2.242,0,0,1-2.087,0Z" fill="#03e6b0"/>
        <path id="Trazado_101189" data-name="Trazado 101189" d="M62.087,16.814l-.11-.045-.182-.075q-.155-.064-.309-.131l-.178-.077q-.164-.073-.327-.149l-.148-.068q-.234-.111-.466-.228l-.035-.018q-.214-.109-.424-.222l-.149-.082c-.1-.056-.2-.112-.3-.17l-.167-.1q-.143-.083-.284-.169l-.164-.1c-.1-.061-.2-.123-.293-.185l-.142-.091q-.2-.13-.4-.265l-.029-.02q-.21-.145-.416-.3l-.128-.095q-.141-.105-.281-.212l-.149-.116q-.129-.1-.256-.2l-.147-.12q-.13-.108-.258-.218l-.131-.113q-.158-.138-.313-.279l-.065-.058q-.186-.171-.367-.346l-.1-.1c-.086-.084-.171-.169-.255-.255l-.128-.132q-.113-.117-.224-.236l-.129-.14q-.111-.121-.22-.245l-.118-.134c-.085-.1-.169-.2-.252-.3l-.073-.087q-.159-.194-.313-.392l-.078-.1q-.114-.148-.225-.3L53.247,10q-.1-.132-.189-.266l-.108-.156q-.092-.134-.18-.27l-.1-.151c-.066-.1-.131-.207-.195-.311l-.071-.115q-.129-.214-.253-.431L52.1,8.208q-.1-.172-.19-.347c-.027-.051-.054-.1-.081-.155q-.076-.146-.15-.294L51.6,7.244c-.021-.043-.043-.085-.063-.129a2.231,2.231,0,0,0-2.017-1.265H36.5v60.1a2.241,2.241,0,0,0,1.043-.257l.131-.069A49.862,49.862,0,0,0,56.657,48.382,43.2,43.2,0,0,0,63.5,25.226V18.894A2.235,2.235,0,0,0,62.087,16.814Z" fill="#004080" opacity="0.2"/>
        <path id="Trazado_101190" data-name="Trazado 101190" d="M62.087,16.814l-.11-.045-.182-.075q-.155-.064-.309-.131l-.178-.077q-.164-.073-.327-.149l-.148-.068q-.234-.111-.466-.228l-.035-.018q-.214-.109-.424-.222l-.149-.082c-.1-.056-.2-.112-.3-.17l-.167-.1q-.143-.083-.284-.169l-.164-.1c-.1-.061-.2-.123-.293-.185l-.142-.091q-.2-.13-.4-.265l-.029-.02q-.21-.145-.416-.3l-.128-.095q-.141-.105-.281-.212l-.149-.116q-.129-.1-.256-.2l-.147-.12q-.13-.108-.258-.218l-.131-.113q-.158-.138-.313-.279l-.065-.058q-.186-.171-.367-.346l-.1-.1c-.086-.084-.171-.169-.255-.255l-.128-.132q-.113-.117-.224-.236l-.129-.14q-.111-.121-.22-.245l-.118-.134c-.085-.1-.169-.2-.252-.3l-.073-.087q-.159-.194-.313-.392l-.078-.1q-.114-.148-.225-.3L53.247,10q-.1-.132-.189-.266l-.108-.156q-.092-.134-.18-.27l-.1-.151c-.066-.1-.131-.207-.195-.311l-.071-.115q-.129-.214-.253-.431L52.1,8.208q-.1-.172-.19-.347c-.027-.051-.054-.1-.081-.155q-.076-.146-.15-.294L51.6,7.244c-.021-.043-.043-.085-.063-.129a2.231,2.231,0,0,0-2.017-1.265h-3.6A20,20,0,0,1,47.5,8.24c.024.041.042.086.063.129l.083.169q.074.148.15.294c.027.052.053.1.081.155q.093.175.19.347l.051.092q.123.217.253.431l.071.115q.1.156.195.311l.1.151q.089.136.18.27l.108.156q.093.134.189.266l.105.145c.074.1.149.2.225.3l.078.1q.154.2.313.392l.073.087c.083.1.167.2.252.3l.118.134q.109.123.22.245l.129.14q.111.119.224.236l.128.132c.084.086.17.17.255.255l.1.1q.181.175.367.346l.065.058q.155.141.313.279l.131.113q.128.11.258.218l.147.12q.127.1.256.2l.149.116q.139.107.281.212l.128.095q.206.15.416.3l.029.02q.2.135.4.265l.142.091q.146.094.293.185l.164.1q.141.086.284.169l.167.1q.151.086.3.17l.149.082q.211.113.424.222l.035.018q.231.117.466.228l.148.068c.109.05.218.1.327.149l.178.077q.154.067.309.131l.182.075.11.045a2.235,2.235,0,0,1,1.409,2.08v6.332a43.2,43.2,0,0,1-6.838,23.157A53.2,53.2,0,0,1,36.5,65.889v.059a2.241,2.241,0,0,0,1.043-.257l.131-.069A49.862,49.862,0,0,0,56.657,48.383,43.2,43.2,0,0,0,63.5,25.226V18.894A2.235,2.235,0,0,0,62.087,16.814Z" fill="#004080" opacity="0.2"/>
        <path id="Trazado_101191" data-name="Trazado 101191" d="M48.4,46.374H24.68a2.265,2.265,0,0,1-2.265-2.265V29.234a2.265,2.265,0,0,1,2.265-2.265H48.4a2.265,2.265,0,0,1,2.265,2.265V44.109A2.265,2.265,0,0,1,48.4,46.374Z" fill="#636363"/>
        <path id="Trazado_101192" data-name="Trazado 101192" d="M48.4,26.969H44.3a2.265,2.265,0,0,1,2.265,2.265V44.109A2.265,2.265,0,0,1,44.3,46.374h4.1a2.265,2.265,0,0,0,2.265-2.265V29.234A2.265,2.265,0,0,0,48.4,26.969Z" fill="#515a66"/>
        <path id="Trazado_101193" data-name="Trazado 101193" d="M35.5,37.746V40.7a1.039,1.039,0,0,0,2.078,0V37.746a2.433,2.433,0,1,0-2.078,0Z" fill="#004080"/>
        <path id="Trazado_101194" data-name="Trazado 101194" d="M34.842,66.542h0l.131.069a3.281,3.281,0,0,0,3.053,0l.132-.069a50.9,50.9,0,0,0,19.376-17.6,44.235,44.235,0,0,0,7-23.713V18.894a3.256,3.256,0,0,0-2.065-3.047,18.474,18.474,0,0,1-10-9.178,3.283,3.283,0,0,0-2.956-1.857H23.482a3.283,3.283,0,0,0-2.955,1.857,18.474,18.474,0,0,1-10,9.178,3.256,3.256,0,0,0-2.065,3.047v6.332a44.234,44.234,0,0,0,7,23.713A50.9,50.9,0,0,0,34.842,66.542Zm-24.3-41.315V18.894a1.189,1.189,0,0,1,.752-1.115A20.543,20.543,0,0,0,22.4,7.562a1.2,1.2,0,0,1,1.079-.672H49.518a1.2,1.2,0,0,1,1.079.672A20.545,20.545,0,0,0,61.7,17.78a1.189,1.189,0,0,1,.752,1.115v6.332a42.161,42.161,0,0,1-6.676,22.6A48.825,48.825,0,0,1,37.192,64.7l-.132.069a1.2,1.2,0,0,1-1.12,0l-.131-.069A48.824,48.824,0,0,1,17.22,47.826,42.161,42.161,0,0,1,10.544,25.226Z" fill="#004080"/>
        <path id="Trazado_101195" data-name="Trazado 101195" d="M67.678,35.086a1.039,1.039,0,0,0-1.242.784c-3.164,14-12.8,26.137-26.439,33.306l-3.169,1.666a.7.7,0,0,1-.654,0L33,69.176C19.344,62,9.7,49.836,6.552,35.812a1.039,1.039,0,0,0-2.027.455C7.809,50.887,17.837,63.551,32.037,71.015l3.169,1.666a2.78,2.78,0,0,0,2.587,0l3.169-1.666c14.178-7.452,24.2-20.095,27.5-34.687A1.039,1.039,0,0,0,67.678,35.086Z" fill="#004080"/>
        <path id="Trazado_101196" data-name="Trazado 101196" d="M67.172,11.888c-5.548-.585-9.91-4.479-10.608-9.469A2.806,2.806,0,0,0,53.808,0H19.192a2.806,2.806,0,0,0-2.756,2.419c-.7,4.99-5.06,8.884-10.608,9.469A2.762,2.762,0,0,0,3.363,14.65V25.806a47.822,47.822,0,0,0,.25,4.871,1.039,1.039,0,0,0,1.032.933,1.052,1.052,0,0,0,.108-.006,1.039,1.039,0,0,0,.927-1.14,45.75,45.75,0,0,1-.239-4.659V14.65a.7.7,0,0,1,.606-.7c6.5-.686,11.617-5.311,12.448-11.248a.71.71,0,0,1,.7-.629H53.808a.71.71,0,0,1,.7.629c.831,5.937,5.949,10.562,12.448,11.248a.7.7,0,0,1,.606.7V25.806a45.767,45.767,0,0,1-.234,4.611,1.039,1.039,0,0,0,2.067.21,47.833,47.833,0,0,0,.244-4.821V14.65A2.761,2.761,0,0,0,67.172,11.888Z" fill="#004080"/>
        <path id="Trazado_101197" data-name="Trazado 101197" d="M48.4,47.413a3.308,3.308,0,0,0,3.3-3.3V29.234a3.308,3.308,0,0,0-3.3-3.3H46.691V20.971a10.151,10.151,0,0,0-20.3,0V25.93H24.68a3.308,3.308,0,0,0-3.3,3.3V44.109a3.308,3.308,0,0,0,3.3,3.3ZM28.466,20.971a8.074,8.074,0,0,1,16.147,0V25.93H28.466ZM23.454,44.109V29.234a1.228,1.228,0,0,1,1.226-1.226H48.4a1.228,1.228,0,0,1,1.226,1.226V44.109A1.228,1.228,0,0,1,48.4,45.335H24.68A1.228,1.228,0,0,1,23.454,44.109Z" fill="#004080"/>
      </g>
    </g>
  </g>
</svg>
