<svg xmlns="http://www.w3.org/2000/svg" width="715" height="271.044" viewBox="0 0 715 271.044">
  <g id="Grupo_57825" data-name="Grupo 57825" transform="translate(-180 -973.956)">
    <g id="Grupo_57824" data-name="Grupo 57824">
      <rect id="Rectángulo_5153" data-name="Rectángulo 5153" width="715" height="163" transform="translate(180 1082)" fill="#03e6b0" opacity="0.2"/>
      <g id="Grupo_53864" data-name="Grupo 53864" transform="translate(7.57 -56.962)">
        <g id="Grupo_53829" data-name="Grupo 53829" transform="translate(358.419 1047.436)">
          <rect id="Rectángulo_5154" data-name="Rectángulo 5154" width="75.452" height="45.123" rx="1" fill="#4d93ff" stroke="rgba(0,0,0,0)" stroke-width="1"/>
          <rect id="Rectángulo_5155" data-name="Rectángulo 5155" width="75.452" height="7.786" transform="translate(75.452 16.308) rotate(-180)" fill="#0046b3" stroke="rgba(0,0,0,0)" stroke-width="1"/>
          <path id="Trazado_100590" data-name="Trazado 100590" d="M1499.831,506.875h11.094a1.277,1.277,0,0,1,1.277,1.277h0a1.277,1.277,0,0,1-1.277,1.277h-11.094a1.277,1.277,0,0,1-1.277-1.277h0A1.277,1.277,0,0,1,1499.831,506.875Z" transform="translate(-1441.661 -470.409)" fill="#d1f5ff" stroke="rgba(0,0,0,0)" stroke-width="1"/>
          <path id="Trazado_100591" data-name="Trazado 100591" d="M1395.06,506.875h11.094a1.277,1.277,0,0,1,1.277,1.277h0a1.277,1.277,0,0,1-1.277,1.277H1395.06a1.277,1.277,0,0,1-1.277-1.277h0A1.277,1.277,0,0,1,1395.06,506.875Z" transform="translate(-1353.951 -470.409)" fill="#d1f5ff" stroke="rgba(0,0,0,0)" stroke-width="1"/>
          <path id="Trazado_100592" data-name="Trazado 100592" d="M1290.289,506.875h11.094a1.277,1.277,0,0,1,1.277,1.277h0a1.277,1.277,0,0,1-1.277,1.277h-11.094a1.277,1.277,0,0,1-1.277-1.277h0A1.277,1.277,0,0,1,1290.289,506.875Z" transform="translate(-1266.24 -470.409)" fill="#d1f5ff" stroke="rgba(0,0,0,0)" stroke-width="1"/>
          <path id="Trazado_100593" data-name="Trazado 100593" d="M1185.519,506.875h11.094a1.277,1.277,0,0,1,1.277,1.277h0a1.277,1.277,0,0,1-1.277,1.277h-11.094a1.277,1.277,0,0,1-1.277-1.277h0A1.277,1.277,0,0,1,1185.519,506.875Z" transform="translate(-1178.53 -470.409)" fill="#d1f5ff" stroke="rgba(0,0,0,0)" stroke-width="1"/>
          <path id="Trazado_100594" data-name="Trazado 100594" d="M1570.419,296.994h0a1.409,1.409,0,0,1,1.409,1.409v.5a1.409,1.409,0,0,1-1.409,1.409h0a1.409,1.409,0,0,1-1.409-1.409v-.5A1.409,1.409,0,0,1,1570.419,296.994Z" transform="translate(-1500.645 -294.704)" fill="#d1f5ff" stroke="rgba(0,0,0,0)" stroke-width="1"/>
          <path id="Trazado_100595" data-name="Trazado 100595" d="M1511.792,298.651h0a1.657,1.657,0,0,1-1.657,1.657h-5.872a1.657,1.657,0,0,1-1.657-1.657h0a1.657,1.657,0,0,1,1.657-1.657h5.872A1.656,1.656,0,0,1,1511.792,298.651Z" transform="translate(-1445.054 -294.704)" fill="#d1f5ff" stroke="rgba(0,0,0,0)" stroke-width="1"/>
          <rect id="Rectángulo_5156" data-name="Rectángulo 5156" width="11.986" height="10.941" rx="1" transform="translate(69.709 31.437) rotate(180)" fill="#ffbd73" stroke="rgba(0,0,0,0)" stroke-width="1"/>
        </g>
        <g id="Grupo_53830" data-name="Grupo 53830" transform="translate(229.261 1108.944)">
          <path id="Trazado_100596" data-name="Trazado 100596" d="M359.959,667.646a18.738,18.738,0,0,0-3.353,6.466l1.977.576a16.9,16.9,0,0,0-.565,6.59l-2.042.231a18.8,18.8,0,0,0,2.2,6.943l.4-.218,1.4-.77a16.737,16.737,0,0,0,4.263,5.053l-1.285,1.613a18.6,18.6,0,0,0,6.471,3.347l.576-1.977a16.762,16.762,0,0,0,6.585.572l.231,2.042a18.843,18.843,0,0,0,6.948-2.2l-.006,0-.282-.524-.7-1.277a16.693,16.693,0,0,0,5.048-4.257l1.613,1.285a18.643,18.643,0,0,0,3.352-6.477l-1.977-.576a16.73,16.73,0,0,0,.566-6.579l2.042-.231a18.842,18.842,0,0,0-2.2-6.948l-1.806.989a16.688,16.688,0,0,0-4.257-5.049l1.285-1.613a18.636,18.636,0,0,0-6.477-3.352l-.576,1.977a16.731,16.731,0,0,0-6.579-.567l-.231-2.041a18.723,18.723,0,0,0-6.948,2.2l.007.016.652,1.188.33.6a16.72,16.72,0,0,0-5.049,4.257Zm7.619,6.068a9.111,9.111,0,1,1,1.445,12.8A9.107,9.107,0,0,1,367.578,673.714Z" transform="translate(-355.977 -660.663)" fill="none" stroke="#80b2ff" stroke-miterlimit="10" stroke-width="1"/>
        </g>
        <g id="Grupo_53831" data-name="Grupo 53831" transform="translate(373.936 1201.658)">
          <path id="Trazado_100597" data-name="Trazado 100597" d="M1249.057,1238.1a21.63,21.63,0,0,0-3.869,7.462l2.282.665a19.5,19.5,0,0,0-.652,7.6l-2.356.267a21.7,21.7,0,0,0,2.537,8.013l.466-.251,1.618-.889a19.306,19.306,0,0,0,4.92,5.832l-1.482,1.861a21.467,21.467,0,0,0,7.467,3.862l.665-2.282a19.341,19.341,0,0,0,7.6.66l.267,2.356a21.745,21.745,0,0,0,8.018-2.544l-.007-.005-.325-.6-.808-1.474a19.267,19.267,0,0,0,5.826-4.913l1.861,1.483a21.5,21.5,0,0,0,3.868-7.474l-2.282-.665a19.3,19.3,0,0,0,.654-7.592l2.356-.267a21.737,21.737,0,0,0-2.544-8.018l-2.084,1.141a19.261,19.261,0,0,0-4.912-5.826l1.483-1.861a21.514,21.514,0,0,0-7.474-3.868l-.665,2.282a19.3,19.3,0,0,0-7.591-.654l-.267-2.356a21.6,21.6,0,0,0-8.018,2.544l.009.018.752,1.371.38.694a19.3,19.3,0,0,0-5.826,4.913Zm8.792,7a10.514,10.514,0,1,1,1.667,14.776A10.51,10.51,0,0,1,1257.848,1245.1Z" transform="translate(-1244.461 -1230.044)" fill="none" stroke="#00224d" stroke-miterlimit="10" stroke-width="1"/>
        </g>
        <path id="Trazado_100598" data-name="Trazado 100598" d="M1046.677,202.727a3.585,3.585,0,0,1,3.585-3.585h13.247a5.1,5.1,0,0,0,.066-.65h0a5.215,5.215,0,0,0-4.818-5.182,7.706,7.706,0,0,0-14.736-4.04,5.381,5.381,0,0,0-8.965,4.02h-1.005a5.217,5.217,0,0,0-5.2,5.2h0a5.217,5.217,0,0,0,5.2,5.2h12.625Z" transform="translate(-690.023 846.86)" fill="#cce0ff" stroke="rgba(0,0,0,0)" stroke-width="1"/>
        <g id="phone" transform="translate(285.335 1062.289)">
          <g id="Grupo_53839" data-name="Grupo 53839" transform="translate(0 0)">
            <path id="Trazado_100600" data-name="Trazado 100600" d="M710.56,606.171l90.4-.583c5.641-.036,10.2-5.172,10.194-11.466l-.339-208.669c-.01-6.069-4.5-11-10.033-11.017l-88.646-.288c-5.576-.018-10.136,4.9-10.183,11l-1.607,209.634C700.3,601.107,704.873,606.208,710.56,606.171Z" transform="translate(-700.349 -374.149)" fill="#fff"/>
            <path id="Trazado_100601" data-name="Trazado 100601" d="M715.967,611.806a8.144,8.144,0,0,0,1.142.071l90.375-.684c4.847-.037,8.81-4.54,8.8-10.033l-.312-208.44c-.008-5.3-3.907-9.622-8.662-9.642l-88.64-.386c-.138,0-.279,0-.417.009a8.388,8.388,0,0,0-5.873,2.859,10.019,10.019,0,0,0-2.5,6.636L708.3,602.043C708.261,607.016,711.546,611.214,715.967,611.806Z" transform="translate(-707.004 -381.301)"/>
            <path id="Trazado_100602" data-name="Trazado 100602" d="M729.288,447.535,727.764,656.65l101.811-.61-.26-208.506Z" transform="translate(-723.3 -435.585)" fill="#0077ec"/>
            <g id="login" transform="translate(18.076 35.521)">
              <rect id="Rectángulo_5157" data-name="Rectángulo 5157" width="32.907" height="7.743" rx="3.871" transform="translate(52.05 83.424) rotate(-180)" fill="#ff9f34"/>
              <path id="Trazado_100603" data-name="Trazado 100603" d="M815.226,888.319h65.067a3.883,3.883,0,0,0,3.871-3.871h0a3.883,3.883,0,0,0-3.871-3.871H815.226a3.883,3.883,0,0,0-3.871,3.871h0A3.883,3.883,0,0,0,815.226,888.319Z" transform="translate(-811.355 -833.634)" fill="#fff"/>
              <rect id="Rectángulo_5158" data-name="Rectángulo 5158" width="72.809" height="7.743" rx="3.871" transform="translate(72.809 67.154) rotate(180)" fill="#fff"/>
              <g id="Grupo_53832" data-name="Grupo 53832" transform="translate(19.404 62.263)">
                <circle id="Elipse_4124" data-name="Elipse 4124" cx="1.363" cy="1.363" r="1.363" transform="translate(37.384)" fill="#80b2ff"/>
                <circle id="Elipse_4125" data-name="Elipse 4125" cx="1.363" cy="1.363" r="1.363" transform="translate(32.711)" fill="#80b2ff"/>
                <circle id="Elipse_4126" data-name="Elipse 4126" cx="1.363" cy="1.363" r="1.363" transform="translate(28.038)" fill="#80b2ff"/>
                <circle id="Elipse_4127" data-name="Elipse 4127" cx="1.363" cy="1.363" r="1.363" transform="translate(23.365)" fill="#80b2ff"/>
                <circle id="Elipse_4128" data-name="Elipse 4128" cx="1.363" cy="1.363" r="1.363" transform="translate(18.692)" fill="#80b2ff"/>
                <circle id="Elipse_4129" data-name="Elipse 4129" cx="1.363" cy="1.363" r="1.363" transform="translate(14.019)" fill="#80b2ff"/>
                <circle id="Elipse_4130" data-name="Elipse 4130" cx="1.363" cy="1.363" r="1.363" transform="translate(9.346)" fill="#80b2ff"/>
                <circle id="Elipse_4131" data-name="Elipse 4131" cx="1.363" cy="1.363" r="1.363" transform="translate(4.673)" fill="#80b2ff"/>
                <circle id="Elipse_4132" data-name="Elipse 4132" cx="1.363" cy="1.363" r="1.363" fill="#80b2ff"/>
              </g>
              <g id="Grupo_53835" data-name="Grupo 53835" transform="translate(15.23 0)">
                <circle id="Elipse_4133" data-name="Elipse 4133" cx="14.957" cy="14.957" r="14.957" transform="translate(0 21.153) rotate(-45)" fill="#fff"/>
                <g id="Grupo_53834" data-name="Grupo 53834" transform="translate(12.838 11.114)">
                  <g id="Grupo_53833" data-name="Grupo 53833" transform="translate(3.613)">
                    <path id="Trazado_100604" data-name="Trazado 100604" d="M1010.594,669.983a4.724,4.724,0,0,1-3.669-1.8,4.605,4.605,0,0,1-1.011-2.921,4.7,4.7,0,1,1,9.4,0,4.6,4.6,0,0,1-1.011,2.921A4.741,4.741,0,0,1,1010.594,669.983Z" transform="translate(-1005.913 -660.547)" fill="#005cea"/>
                  </g>
                  <path id="Trazado_100605" data-name="Trazado 100605" d="M983.729,733.613c0,2.977,16.627,2.977,16.627,0l-.005-3.47c-.657-4.743-15.27-4.943-16.625,0Z" transform="translate(-983.726 -715.77)" fill="#005cea"/>
                </g>
              </g>
              <path id="Trazado_100606" data-name="Trazado 100606" d="M1213.422,967.642v2.745c0,.474,3.518.474,3.518,0v-2.745h-.231v-.208a1.523,1.523,0,0,0-3.047,0v.208Zm2.744,0H1214.2v-.208a.986.986,0,1,1,1.971,0Zm-1.463.976a.488.488,0,1,1,.976,0,.463.463,0,0,1-.244.407v.793a.234.234,0,0,1-.244.244.252.252,0,0,1-.265-.244v-.793A.49.49,0,0,1,1214.7,968.618Z" transform="translate(-1147.952 -905.073)" fill="#4d4d4d"/>
              <g id="Grupo_53838" data-name="Grupo 53838" transform="translate(24.497 48.542)">
                <g id="Grupo_53837" data-name="Grupo 53837" transform="translate(40.983)">
                  <g id="Grupo_53836" data-name="Grupo 53836" transform="translate(0.762)">
                    <path id="Trazado_100607" data-name="Trazado 100607" d="M1219.154,892.389a1,1,0,0,1-.774-.379.972.972,0,0,1-.213-.616.992.992,0,1,1,1.983,0,.969.969,0,0,1-.213.616A1,1,0,0,1,1219.154,892.389Z" transform="translate(-1218.166 -890.398)" fill="#4d4d4d"/>
                  </g>
                  <path id="Trazado_100608" data-name="Trazado 100608" d="M1213.485,905.816c0,.628,3.526.628,3.526,0l-.019-.732c-.138-1-3.222-1.043-3.508,0Z" transform="translate(-1213.484 -902.051)" fill="#4d4d4d"/>
                </g>
                <path id="Trazado_100609" data-name="Trazado 100609" d="M1078.425,899.647h14.259a1.139,1.139,0,0,0,1.136-1.136h0a1.139,1.139,0,0,0-1.136-1.136h-14.259a1.139,1.139,0,0,0-1.136,1.136h0A1.14,1.14,0,0,0,1078.425,899.647Z" transform="translate(-1058.483 -896.239)" fill="#80b2ff"/>
                <path id="Trazado_100610" data-name="Trazado 100610" d="M962.932,899.647h14.259a1.139,1.139,0,0,0,1.136-1.136h0a1.139,1.139,0,0,0-1.136-1.136H962.932a1.139,1.139,0,0,0-1.136,1.136h0A1.139,1.139,0,0,0,962.932,899.647Z" transform="translate(-961.796 -896.239)" fill="#80b2ff"/>
              </g>
            </g>
          </g>
          <g id="key" transform="translate(31.858 140.699)">
            <path id="Trazado_100611" data-name="Trazado 100611" d="M937.9,1362.212v28.874c0,3.209-41.907,3.209-41.907,0v-28.874Z" transform="translate(-895.995 -1342.021)" fill="#fff"/>
            <g id="Grupo_53840" data-name="Grupo 53840" transform="translate(15.78 26.25)">
              <ellipse id="Elipse_4134" data-name="Elipse 4134" cx="5.174" cy="4.847" rx="5.174" ry="4.847" fill="#005cea"/>
              <path id="Rectángulo_5159" data-name="Rectángulo 5159" d="M2.121,0h0A2.121,2.121,0,0,1,4.241,2.121V13.1a0,0,0,0,1,0,0H0a0,0,0,0,1,0,0V2.121A2.121,2.121,0,0,1,2.121,0Z" transform="translate(7.294 19.444) rotate(-180)" fill="#005cea"/>
            </g>
            <path id="Trazado_100612" data-name="Trazado 100612" d="M918.551,1256.348h4.241V1254.4c0-6.736,5.85-12.216,13.039-12.216s13.04,5.48,13.04,12.216v1.944h4.241V1254.4c0-8.927-7.752-16.19-17.281-16.19s-17.28,7.262-17.28,16.19Z" transform="translate(-914.878 -1238.214)" fill="#fff"/>
          </g>
        </g>
        <g id="shadow" transform="translate(235.806 1293.796)">
          <path id="Trazado_100613" data-name="Trazado 100613" d="M397.048,1797.615H688.453a.869.869,0,0,0,.869-.869h0a.869.869,0,0,0-.869-.869H397.048a.869.869,0,0,0-.869.869h0A.869.869,0,0,0,397.048,1797.615Z" transform="translate(-396.179 -1795.877)" fill="#003c99"/>
        </g>
        <g id="shield" transform="translate(209.763 1163.148)">
          <g id="Grupo_53844" data-name="Grupo 53844">
            <g id="Grupo_53842" data-name="Grupo 53842">
              <g id="Grupo_53841" data-name="Grupo 53841">
                <path id="Trazado_100614" data-name="Trazado 100614" d="M236.233,1131.878h0c0-.162,0-.234,0-.25C236.234,1131.658,236.233,1131.878,236.233,1131.878Z" transform="translate(-236.233 -1109.144)" fill="#d9ffff"/>
                <path id="Trazado_100615" data-name="Trazado 100615" d="M236.233,1131.878h0c0-.162,0-.234,0-.25C236.234,1131.658,236.233,1131.878,236.233,1131.878Z" transform="translate(-236.233 -1109.144)" fill="#d9ffff"/>
                <path id="Trazado_100616" data-name="Trazado 100616" d="M830.386,1134.534s0-.22,0-.25c0,.016,0,.088,0,.25Z" transform="translate(-733.638 -1111.367)" fill="#d9ffff"/>
                <path id="Trazado_100617" data-name="Trazado 100617" d="M830.386,1134.534s0-.22,0-.25c0,.016,0,.088,0,.25Z" transform="translate(-733.638 -1111.367)" fill="#d9ffff"/>
                <path id="Trazado_100618" data-name="Trazado 100618" d="M296.569,993.546c-10.71,11.472-27.8,20.874-46.086,24.88-.005,1.221-.036,7.988-.175,39.177-.186,41.6,39.409,61.936,45.557,65.056,5.956-2.742,46.051-23.041,46.237-64.646.139-31.189.17-37.955.175-39.177C324.027,1014.667,307.176,1005.113,296.569,993.546Z" transform="translate(-248.016 -993.546)" fill="#fff"/>
              </g>
            </g>
            <g id="Grupo_53843" data-name="Grupo 53843" transform="translate(5.135 4.512)">
              <path id="Trazado_100619" data-name="Trazado 100619" d="M311.092,1021.256c-11.04,10.128-26.336,18.088-43.155,22.427l-.166,37.11c-.076,16.98,6.67,32.341,20.05,45.658a95.93,95.93,0,0,0,22.726,16.617c.2-.1.423-.218.641-.332V1021.343C311.156,1021.313,311.123,1021.285,311.092,1021.256Z" transform="translate(-267.77 -1021.256)" fill="#3f9cf8"/>
              <path id="Trazado_100620" data-name="Trazado 100620" d="M534.409,1021.788v121.394a95.955,95.955,0,0,0,22.233-16.082c13.5-13.2,20.381-28.5,20.457-45.477l.166-37.11C560.533,1040.038,545.351,1031.973,534.409,1021.788Z" transform="translate(-490.991 -1021.701)" fill="#0077ec"/>
            </g>
            <path id="Trazado_100621" data-name="Trazado 100621" d="M410.721,1250.216c-12.8,1.974-30.241,13.653-41.241,27.7-1.543-6.621-8.47-12.666-12.093-13.987l-10.979,11.036c6.855,3.089,14.346,11.842,15.339,20.8l10.967,1.7c4.624-9.134,16.566-30.982,40.325-42.73A18,18,0,0,0,410.721,1250.216Z" transform="translate(-328.468 -1208.421)" fill="#03e6b0"/>
          </g>
        </g>
        <g id="guard" transform="translate(432.157 1094.389)">
          <g id="Grupo_53863" data-name="Grupo 53863">
            <g id="Grupo_53846" data-name="Grupo 53846" transform="translate(28.358 29.379)">
              <path id="Trazado_100622" data-name="Trazado 100622" d="M1820.216,814.878l31.054-.207,26.71-.277.115,4.053c-9.283,3.585-16.569,4.669-25.816,5.357-9.366,3.11-21.768,5.167-31.361,5.842C1812.484,830.047,1811.782,815.28,1820.216,814.878Z" transform="translate(-1808.032 -804.186)" fill="#f7a594"/>
              <path id="Trazado_100623" data-name="Trazado 100623" d="M1802.116,808.285c-3.729-.071-14.76-1.24-21.636-.43-6.221,2.555-4.678,13.406-1.828,15.112-.008.307,12.07,3.678,24.29.092C1804.781,820.906,1804.158,810.434,1802.116,808.285Z" transform="translate(-1776.163 -798.473)" fill="#112e59"/>
              <path id="Trazado_100624" data-name="Trazado 100624" d="M1918.187,823.429c-1.937.689-3.757,1.127-5.117.569-.807.038-1.7-16.216-.9-16.255l5.083-.242C1918.869,807.424,1919.8,823.351,1918.187,823.429Z" transform="translate(-1889.761 -798.414)" fill="#1d498c"/>
              <g id="Grupo_53845" data-name="Grupo 53845" transform="translate(66.146)">
                <path id="Trazado_100625" data-name="Trazado 100625" d="M2183.1,762.331c.9-4.183,2.348-10.132,4.1-10.216.378-.018.434.226.415,1.34-.872,7.436,1.135,9.453.165,11.554-1.067,2.037-4,2-4,2C2182.129,766.268,2181.994,763.514,2183.1,762.331Z" transform="translate(-2182.383 -752.046)" fill="#f7a594"/>
                <path id="Trazado_100626" data-name="Trazado 100626" d="M2199.07,781.555l1.83-5.4a1.274,1.274,0,0,1,.943,1.637c-.251,1.428-.556,2.964-.556,2.964s1.43,3.091.292,4.371S2198.477,785.156,2199.07,781.555Z" transform="translate(-2196.261 -772.172)" fill="#f7a594"/>
                <path id="Trazado_100627" data-name="Trazado 100627" d="M2202.035,784.473l-.139-.045a6,6,0,0,0-.469-4.064l-.012-.023.005-.026c0-.015.307-1.552.555-2.963a1.291,1.291,0,0,0-.353-1.286,1.26,1.26,0,0,0-.47-.252l-1.808,5.337-.138-.047,1.85-5.46.062.011a1.372,1.372,0,0,1,.6.3,1.423,1.423,0,0,1,.4,1.422c-.231,1.314-.511,2.738-.551,2.941A6.121,6.121,0,0,1,2202.035,784.473Z" transform="translate(-2196.467 -771.746)" fill="#d97b69"/>
                <path id="Trazado_100628" data-name="Trazado 100628" d="M2193.977,758.506l-.142-.036c.065-.257,1.605-6.3,2.929-6.773l.049.138C2195.562,752.278,2193.993,758.443,2193.977,758.506Z" transform="translate(-2191.97 -751.697)" fill="#d97b69"/>
              </g>
            </g>
            <g id="Grupo_53848" data-name="Grupo 53848" transform="translate(0 76.299)">
              <g id="Grupo_53847" data-name="Grupo 53847" transform="translate(0 107.132)">
                <path id="Trazado_100629" data-name="Trazado 100629" d="M1608.215,1714.491H1622.5a1.589,1.589,0,0,0,.613-.574,130.357,130.357,0,0,1,1.042-15.742l-9.97-.405-1.874,7.905C1609.089,1707.953,1605.348,1712.841,1608.215,1714.491Z" transform="translate(-1606.349 -1697.77)" fill="#231f20"/>
                <path id="Trazado_100630" data-name="Trazado 100630" d="M1619.258,1789.525h-16.939c-.43,0-.4-2.356.031-2.356l16.842.095C1619.635,1787.264,1619.7,1789.525,1619.258,1789.525Z" transform="translate(-1602.012 -1772.612)" fill="#231f20"/>
              </g>
              <path id="Trazado_100631" data-name="Trazado 100631" d="M1642.481,1052.2c-1.011,7.867-5.334,27.3-4.868,48.664-4.682,27.232-5.2,33.23-5.765,50.026l14.281.534c2.285-11.729,6.977-30.243,9.1-48.306,4.615-14.234,7.64-34.52,9.125-50.626C1665.854,1038.614,1646.23,1033,1642.481,1052.2Z" transform="translate(-1626.99 -1039.846)" fill="#112e59"/>
              <path id="Trazado_100632" data-name="Trazado 100632" d="M1673.222,1242.708l-.292,0c.026-1.937,5.829-67.427,11.724-93.978l.285.063C1679.048,1175.324,1673.248,1240.772,1673.222,1242.708Z" transform="translate(-1661.382 -1130.997)" fill="#231f20"/>
            </g>
            <g id="Grupo_53849" data-name="Grupo 53849" transform="translate(29.659 75.024)">
              <path id="Trazado_100633" data-name="Trazado 100633" d="M1784.341,1046.606a320.155,320.155,0,0,0,7.943,50.107c-1.161,18.485,2.117,36.234,4.449,48.375l13.586-.122c.787-11.886-.894-76.229-4.409-98.051C1804.235,1027.62,1781.918,1026.588,1784.341,1046.606Z" transform="translate(-1784.158 -1032.014)" fill="#112e59"/>
              <path id="Trazado_100634" data-name="Trazado 100634" d="M1873.368,1725.8c-.608,4.379-1.031,7.795-.5,11.757l22.219.432s2.095-2.14-.821-5.35-8.073-1.353-11.739-6.961Z" transform="translate(-1858.221 -1612.723)" fill="#231f20"/>
              <path id="Trazado_100635" data-name="Trazado 100635" d="M1893.87,1789.525h-23.583c-.429,0-.429-2.356,0-2.356l23.488.095C1894.217,1787.264,1894.312,1789.525,1893.87,1789.525Z" transform="translate(-1855.993 -1664.204)" fill="#231f20"/>
              <rect id="Rectángulo_5160" data-name="Rectángulo 5160" width="0.292" height="93.68" transform="translate(18.203 19.248) rotate(-2.847)" fill="#231f20"/>
            </g>
            <path id="Trazado_100636" data-name="Trazado 100636" d="M1695.42,860.634l-35.315,2.691c.32-22.112-9.664-37.38-7.586-43.074,2.856-7.823,23.671-7.878,31.6-4.828,3.148,1.212,8.268,8.216,8.871,17.03a59.157,59.157,0,0,1-.189,10.192C1692.4,845.924,1695.42,860.634,1695.42,860.634Z" transform="translate(-1644.057 -774.097)" fill="#112e59"/>
            <path id="Trazado_100637" data-name="Trazado 100637" d="M1736.755,766.064c-1.642-1.3-8.19-3.316-9.932-4.742l.393-11.368,6.439-.627a19.131,19.131,0,0,1,5.341,1.237l1.449,7.485.32,1.623C1741.494,761.27,1740.049,763.2,1736.755,766.064Z" transform="translate(-1706.499 -720.335)" fill="#f7a594"/>
            <path id="Trazado_100638" data-name="Trazado 100638" d="M1742.544,764.074a14.384,14.384,0,0,0,11.062,5.521l-1.254-6.476Z" transform="translate(-1719.661 -731.88)" fill="#e6836f"/>
            <g id="Grupo_53852" data-name="Grupo 53852" transform="translate(10.785)">
              <g id="Grupo_53850" data-name="Grupo 53850" transform="translate(4.37 8.01)">
                <path id="Trazado_100639" data-name="Trazado 100639" d="M1723.881,634.387c.5,2.24,1.545,7.156,1.375,9.421-.259,3.447-3.479,7.271-6.287,7.773-3.251.331-7.633-.637-10.012-2.681a32.793,32.793,0,0,1-5.067-8.456c-2.46-6.721,2.289-12.615,8.315-13.977S1722.307,627.4,1723.881,634.387Z" transform="translate(-1701.901 -625.177)" fill="#f7a594"/>
                <path id="Trazado_100640" data-name="Trazado 100640" d="M1699.088,640.172c-1.256-2.211.413-3.108,2.244-1.391-.313-1.669-2.216-6.558-.53-8.179,1.9-1.881,10.279-1.063,14.779-5.754,0,0-3.354-7.353-14.362-3.011C1688.785,628.429,1699.088,640.172,1699.088,640.172Z" transform="translate(-1695.081 -620.465)" fill="#4d261c"/>
                <ellipse id="Elipse_4135" data-name="Elipse 4135" cx="2.109" cy="2.713" rx="2.109" ry="2.713" transform="translate(0.576 18.199) rotate(-39.724)" fill="#f7a594"/>
              </g>
              <path id="Trazado_100641" data-name="Trazado 100641" d="M1730.969,649.15c-1.4-.428-18.059,6.192-17.621,7.43,0,0,12.063.056,20.356-3.72C1738.231,650.8,1730.969,649.15,1730.969,649.15Z" transform="translate(-1705.996 -636.453)" fill="#112e59"/>
              <path id="Trazado_100642" data-name="Trazado 100642" d="M1688.231,642.827l20.237-8.529-.692-2.867-21.439,8.845A6.308,6.308,0,0,0,1688.231,642.827Z" transform="translate(-1683.392 -621.636)" fill="#1d498c"/>
              <path id="Trazado_100643" data-name="Trazado 100643" d="M1670.606,590.554c-2.214.844-3.4-.508-1.164-3.081,3.449-3.969,5.8-14.121,10.927-15.961,3.531-1.268,6.2,2.866,10.888,5.433,2.125,1.165,3.315,2.383,2.519,3.813C1691.355,582.572,1672.924,589.671,1670.606,590.554Z" transform="translate(-1668.244 -571.276)" fill="#112e59"/>
              <g id="Grupo_53851" data-name="Grupo 53851" transform="translate(11.714 3.555)">
                <path id="Trazado_100644" data-name="Trazado 100644" d="M1744.882,593.614l-.042-.114a5.4,5.4,0,0,1-1.5,0,4.325,4.325,0,0,1-1.312-.391h0l0,.006a3.873,3.873,0,0,1-.306.586,4.915,4.915,0,0,1-.585.745c-.113.119-.229.235-.355.346a5.331,5.331,0,0,1-.6.456l.254.676.126.337.076.2.286.762a3.291,3.291,0,0,0,.591,1,3.393,3.393,0,0,0,.248.258,3.844,3.844,0,0,0,.822.583,4.831,4.831,0,0,0,.825.343,5.377,5.377,0,0,0,.852.193c.1.014.178.021.222.025a5.416,5.416,0,0,0,.526-.659,5.287,5.287,0,0,0,.281-.462q.069-.128.133-.266a3.508,3.508,0,0,0,.157-2.758Z" transform="translate(-1740.183 -593.108)" fill="#f7bd0c"/>
                <path id="Trazado_100645" data-name="Trazado 100645" d="M1752.253,604.283a1.617,1.617,0,1,1-2.076-.949A1.612,1.612,0,0,1,1752.253,604.283Z" transform="translate(-1747.664 -601.585)" fill="#fff"/>
              </g>
            </g>
            <g id="Grupo_53853" data-name="Grupo 53853" transform="translate(18.895 37.537)">
              <path id="Trazado_100646" data-name="Trazado 100646" d="M1782.4,832.091l1.065,2.231.163-2.37,1.435,3.809a4.253,4.253,0,0,0-1.574-1.187,4.391,4.391,0,0,0-1.968,2.055Z" transform="translate(-1771.182 -827.042)" fill="#231f20"/>
              <path id="Trazado_100647" data-name="Trazado 100647" d="M1719.556,806.194c1.589,2.05,6.76,3.454,9.707,4.333l-.878,4.538c-3.541-1.2-8.119-2.553-10.172-6.79C1717.748,807.122,1718.3,806.482,1719.556,806.194Z" transform="translate(-1718.049 -805.478)" fill="#1d498c"/>
              <path id="Trazado_100648" data-name="Trazado 100648" d="M1797.084,801.8c-.157.746-.279,3.672-2.632,4.91l1.435,3.809c3.244-1.856,3.414-3.576,2.915-6.273C1798.6,803.173,1798.239,802.023,1797.084,801.8Z" transform="translate(-1782.011 -801.799)" fill="#1d498c"/>
            </g>
            <path id="Trazado_100649" data-name="Trazado 100649" d="M1798.428,890.8a.146.146,0,0,1-.145-.13c-.363-3.37-.657-7.389-.969-11.643-.849-11.591-1.811-24.729-4.6-31.665a.146.146,0,0,1,.271-.109c2.807,6.979,3.771,20.141,4.621,31.753.311,4.252.606,8.269.968,11.633a.146.146,0,0,1-.13.161Z" transform="translate(-1761.652 -802.236)" fill="#231f20"/>
            <path id="Trazado_100650" data-name="Trazado 100650" d="M1691.187,1096.851c6.9,1.85,33.971,1.142,35.048.317,1.646-.37,2.018,5.55,1.062,6.977-1.461,2.181-36.231,1.833-37.332.264S1689.237,1096.329,1691.187,1096.851Z" transform="translate(-1675.132 -1011.245)" fill="#231f20"/>
            <g id="Grupo_53855" data-name="Grupo 53855" transform="translate(37.687 52.437)">
              <g id="Grupo_53854" data-name="Grupo 53854" transform="translate(0.287)">
                <path id="Trazado_100651" data-name="Trazado 100651" d="M1840.04,894.45c-.008-.068-.012-.1-.013-.117a5.247,5.247,0,0,1-1.412-.351,4.212,4.212,0,0,1-1.147-.676h0l0,0a3.8,3.8,0,0,1-.426.482,4.79,4.79,0,0,1-.727.566c-.134.086-.272.169-.416.244a5.154,5.154,0,0,1-.674.29l.082.7c.011.1.025.217.04.348q.011.1.024.209c.026.222.056.482.092.787a3.2,3.2,0,0,0,.324,1.082,3.271,3.271,0,0,0,.174.3,3.753,3.753,0,0,0,.64.743,4.723,4.723,0,0,0,.7.517,5.2,5.2,0,0,0,.759.381c.093.037.163.062.2.075a5.367,5.367,0,0,0,.651-.5,5.179,5.179,0,0,0,.373-.371c.063-.07.126-.143.188-.22a3.415,3.415,0,0,0,.795-2.568C1840.122,895.155,1840.063,894.652,1840.04,894.45Z" transform="translate(-1835.22 -893.305)" fill="#f7bd0c"/>
              </g>
              <rect id="Rectángulo_5161" data-name="Rectángulo 5161" width="6.837" height="1.254" transform="translate(0 8.469) rotate(-5.561)" fill="#1d498c"/>
            </g>
            <path id="Trazado_100652" data-name="Trazado 100652" d="M1818.364,1166.576h-2.09l.043-.18c.938-3.968,1.067-13.62,1.068-13.718l.292,0c0,.1-.126,9.5-1.034,13.6h1.483a61.45,61.45,0,0,0,1.164-13.357l.292-.017a62.387,62.387,0,0,1-1.193,13.551Z" transform="translate(-1781.385 -1058.007)" fill="#231f20"/>
            <g id="Grupo_53856" data-name="Grupo 53856" transform="translate(0.769 42.517)">
              <path id="Trazado_100653" data-name="Trazado 100653" d="M1613.434,962.92s-2.748,15.556.053,21.042c2.9,5.669,29.627,6.9,29.627,6.9l.958-8.045-18.421-4.674,4-11.914Z" transform="translate(-1611.333 -941.664)" fill="#f7a594"/>
              <path id="Trazado_100654" data-name="Trazado 100654" d="M1620.66,833.63a41.026,41.026,0,0,0-8.079,23.048c10.122,7.38,16.791,2.063,16.791,2.063s5.133-13.566,3.995-20.167S1622.958,831.233,1620.66,833.63Z" transform="translate(-1611.629 -832.38)" fill="#112e59"/>
              <path id="Trazado_100655" data-name="Trazado 100655" d="M1608.031,956.624c1.37,1.668,17.1,4.923,17.427,3.091a5.159,5.159,0,0,1-1.067,5.048c-.4,2.544-17.455-.135-17.055-2.678Q1605.85,959.723,1608.031,956.624Z" transform="translate(-1606.734 -936.393)" fill="#1d498c"/>
              <path id="Trazado_100656" data-name="Trazado 100656" d="M1720.971,938.115a.146.146,0,0,1-.126-.22,23.885,23.885,0,0,0,2.613-7.13.146.146,0,0,1,.286.058,24.186,24.186,0,0,1-2.648,7.22A.146.146,0,0,1,1720.971,938.115Z" transform="translate(-1702.247 -914.647)" fill="#231f20"/>
            </g>
            <g id="Grupo_53862" data-name="Grupo 53862" transform="translate(21.149 50.059)">
              <g id="Grupo_53860" data-name="Grupo 53860">
                <g id="Grupo_53858" data-name="Grupo 53858">
                  <g id="Grupo_53857" data-name="Grupo 53857">
                    <path id="Trazado_100657" data-name="Trazado 100657" d="M1733.316,968.485h0c0-.093,0-.133,0-.143C1733.317,968.359,1733.316,968.485,1733.316,968.485Z" transform="translate(-1733.084 -953.745)" fill="#d9ffff"/>
                    <path id="Trazado_100658" data-name="Trazado 100658" d="M1733.316,968.485h0c0-.093,0-.133,0-.143C1733.317,968.359,1733.316,968.485,1733.316,968.485Z" transform="translate(-1733.084 -953.745)" fill="#d9ffff"/>
                    <path id="Trazado_100659" data-name="Trazado 100659" d="M2074.073,972.237s0-.125,0-.143c0,.009,0,.05,0,.143Z" transform="translate(-2018.354 -956.886)" fill="#d9ffff"/>
                    <path id="Trazado_100660" data-name="Trazado 100660" d="M2074.073,972.237s0-.125,0-.143c0,.009,0,.05,0,.143Z" transform="translate(-2018.354 -956.886)" fill="#d9ffff"/>
                    <path id="Trazado_100661" data-name="Trazado 100661" d="M1760.082,878.7c-6.512,6.852-16.868,12.435-27.924,14.77-.008.734-.054,4.8-.262,23.545-.278,25,23.548,37.38,27.247,39.279,3.607-1.624,27.9-13.665,28.174-38.669.208-18.744.254-22.81.262-23.544C1776.576,891.5,1766.44,885.693,1760.082,878.7Z" transform="translate(-1731.893 -878.699)" fill="#fff"/>
                  </g>
                </g>
                <g id="Grupo_53859" data-name="Grupo 53859" transform="translate(3.019 4.519)">
                  <path id="Trazado_100662" data-name="Trazado 100662" d="M1775.506,906.45c-6.371,5.74-15.173,10.228-24.836,12.641l-.235,21.185c-.108,9.694,3.7,18.489,11.327,26.142a55.012,55.012,0,0,0,12.971,9.572l.369-.187.459-69.3C1775.543,906.483,1775.523,906.467,1775.506,906.45Z" transform="translate(-1750.432 -906.45)" fill="#07be92"/>
                  <path id="Trazado_100663" data-name="Trazado 100663" d="M1902.392,906.756l-.459,69.3a55.028,55.028,0,0,0,12.812-9.1c7.792-7.483,11.8-16.192,11.9-25.886l.235-21.186C1917.306,917.273,1908.629,912.612,1902.392,906.756Z" transform="translate(-1877.263 -906.706)" fill="#03e6b0"/>
                </g>
              </g>
              <g id="Grupo_53861" data-name="Grupo 53861" transform="translate(16.628 23.626)">
                <path id="Trazado_100664" data-name="Trazado 100664" d="M1834.116,1093.833l-.108,16.413c-.012,1.827,22.405,1.974,22.417.147l.109-16.413Zm12.285,8.8-.031,4.652a1.134,1.134,0,1,1-2.268-.015l.031-4.662a2.758,2.758,0,1,1,2.268.026Z" transform="translate(-1834.008 -1082.428)" fill="#fff"/>
                <path id="Trazado_100665" data-name="Trazado 100665" d="M1865.273,1034.161l-2.269-.015.007-1.105a6.977,6.977,0,0,0-13.953-.092l-.007,1.105-2.269-.015.007-1.1a9.246,9.246,0,0,1,18.491.121Z" transform="translate(-1844.702 -1023.792)" fill="#fff"/>
              </g>
            </g>
          </g>
        </g>
      </g>
      <path id="Trazado_106623" data-name="Trazado 106623" d="M6.457,14.949a6.057,6.057,0,0,1-.316,2.133,6.509,6.509,0,0,1-1.395,1.793q-1.1,1.1-1.371,1.453a4.413,4.413,0,0,0-.949,2.766,3.239,3.239,0,0,0,.785,2.332,3.017,3.017,0,0,0,2.285.82,3.033,3.033,0,0,0,2.227-.82,3.015,3.015,0,0,0,.855-2.191H9.984a4.119,4.119,0,0,1-1.254,3.1A4.536,4.536,0,0,1,5.5,27.488a4.465,4.465,0,0,1-3.275-1.172,4.287,4.287,0,0,1-1.189-3.2,5.275,5.275,0,0,1,.621-2.484,11.462,11.462,0,0,1,2.3-2.766,2.887,2.887,0,0,0,1.078-2.109l.023-.809Zm.188-3.926a.949.949,0,0,1-.258.674.916.916,0,0,1-.7.275.923.923,0,0,1-.973-.949.9.9,0,0,1,.264-.656.946.946,0,0,1,.709-.27.927.927,0,0,1,.7.27A.914.914,0,0,1,6.645,11.023ZM22.828,18.8a2.762,2.762,0,0,0-1-2.244,10.519,10.519,0,0,0-3.645-1.57,12.773,12.773,0,0,1-3.867-1.623,3.831,3.831,0,0,1-1.734-3.258A3.817,3.817,0,0,1,14.2,6.928,6.617,6.617,0,0,1,18.316,5.7a6.832,6.832,0,0,1,3.041.656,4.976,4.976,0,0,1,2.08,1.828,4.8,4.8,0,0,1,.738,2.613H22.723a3.585,3.585,0,0,0-1.2-2.815,4.653,4.653,0,0,0-3.211-1.064A5.058,5.058,0,0,0,15.2,7.8a2.728,2.728,0,0,0-1.16,2.283A2.582,2.582,0,0,0,15.082,12.2a9.668,9.668,0,0,0,3.34,1.45,15.7,15.7,0,0,1,3.48,1.3,4.961,4.961,0,0,1,1.781,1.611,4.031,4.031,0,0,1,.6,2.215,3.857,3.857,0,0,1-1.611,3.234,6.863,6.863,0,0,1-4.248,1.219,8.327,8.327,0,0,1-3.311-.645,5.057,5.057,0,0,1-2.285-1.8,4.659,4.659,0,0,1-.779-2.66h1.441a3.406,3.406,0,0,0,1.348,2.848,5.7,5.7,0,0,0,3.586,1.043,5.315,5.315,0,0,0,3.2-.879A2.748,2.748,0,0,0,22.828,18.8ZM35.063,23a6.632,6.632,0,0,1-.27-1.77,4.89,4.89,0,0,1-1.881,1.482,5.76,5.76,0,0,1-2.42.521,4.25,4.25,0,0,1-2.959-1.02A3.321,3.321,0,0,1,26.4,19.637a3.394,3.394,0,0,1,1.541-2.93,7.4,7.4,0,0,1,4.295-1.078h2.543V14.188a2.778,2.778,0,0,0-.838-2.139A3.463,3.463,0,0,0,31.5,11.27a3.824,3.824,0,0,0-2.426.75,2.228,2.228,0,0,0-.961,1.8l-1.406-.012a3.261,3.261,0,0,1,1.406-2.619,5.415,5.415,0,0,1,3.457-1.107,4.939,4.939,0,0,1,3.346,1.061,3.805,3.805,0,0,1,1.26,2.959v6a7.442,7.442,0,0,0,.387,2.754V23Zm-4.406-1.008a4.708,4.708,0,0,0,2.514-.68A4,4,0,0,0,34.781,19.5V16.707H32.273a6.284,6.284,0,0,0-3.281.768,2.3,2.3,0,0,0-1.184,2.045,2.267,2.267,0,0,0,.791,1.77A2.98,2.98,0,0,0,30.656,21.992Zm19.465-5.2a7.636,7.636,0,0,1-1.312,4.705,4.192,4.192,0,0,1-3.527,1.74,4.557,4.557,0,0,1-4.008-1.969L41.215,23H39.9V5H41.3v7.16a4.407,4.407,0,0,1,3.961-2.074A4.231,4.231,0,0,1,48.814,11.8a7.727,7.727,0,0,1,1.307,4.775Zm-1.406-.246a6.605,6.605,0,0,0-.973-3.873A3.171,3.171,0,0,0,45,11.3a3.86,3.86,0,0,0-2.285.662A4.026,4.026,0,0,0,41.3,13.906v5.719a3.757,3.757,0,0,0,3.727,2.391,3.148,3.148,0,0,0,2.713-1.371A7.061,7.061,0,0,0,48.715,16.543ZM54.762,23H53.355V10.32h1.406Zm.727-17.719h1.7L54.48,8.551l-1.23-.006ZM66.563,23a6.632,6.632,0,0,1-.27-1.77,4.89,4.89,0,0,1-1.881,1.482,5.76,5.76,0,0,1-2.42.521,4.25,4.25,0,0,1-2.959-1.02A3.321,3.321,0,0,1,57.9,19.637a3.394,3.394,0,0,1,1.541-2.93,7.4,7.4,0,0,1,4.295-1.078h2.543V14.188a2.778,2.778,0,0,0-.838-2.139A3.463,3.463,0,0,0,63,11.27a3.824,3.824,0,0,0-2.426.75,2.228,2.228,0,0,0-.961,1.8l-1.406-.012a3.261,3.261,0,0,1,1.406-2.619,5.415,5.415,0,0,1,3.457-1.107,4.939,4.939,0,0,1,3.346,1.061,3.805,3.805,0,0,1,1.26,2.959v6a7.442,7.442,0,0,0,.387,2.754V23Zm-4.406-1.008a4.708,4.708,0,0,0,2.514-.68A4,4,0,0,0,66.281,19.5V16.707H63.773a6.284,6.284,0,0,0-3.281.768,2.3,2.3,0,0,0-1.184,2.045,2.267,2.267,0,0,0,.791,1.77A2.98,2.98,0,0,0,62.156,21.992Zm14.531-5.449a7.633,7.633,0,0,1,1.318-4.717,4.276,4.276,0,0,1,3.6-1.74,4.427,4.427,0,0,1,3.9,1.957l.07-1.723h1.313V27.875H85.488V21.43a4.63,4.63,0,0,1-3.9,1.8,4.251,4.251,0,0,1-3.562-1.758,7.659,7.659,0,0,1-1.336-4.746Zm1.418.246a6.592,6.592,0,0,0,.99,3.861,3.179,3.179,0,0,0,2.748,1.4,3.807,3.807,0,0,0,3.645-2.191V13.648A4.11,4.11,0,0,0,84.029,11.9a3.833,3.833,0,0,0-2.162-.615,3.205,3.205,0,0,0-2.766,1.4A7.059,7.059,0,0,0,78.105,16.789Zm20.684,4.605a4.558,4.558,0,0,1-4.043,1.84,3.923,3.923,0,0,1-3.082-1.178,5.158,5.158,0,0,1-1.078-3.486V10.32H91.98v8.074q0,3.621,2.93,3.621,3.047,0,3.855-2.52V10.32h1.406V23H98.813Zm9.938,1.84a5.5,5.5,0,0,1-2.924-.8,5.431,5.431,0,0,1-2.033-2.221,6.924,6.924,0,0,1-.727-3.193v-.5a7.461,7.461,0,0,1,.709-3.293,5.641,5.641,0,0,1,1.975-2.3,4.871,4.871,0,0,1,2.742-.838,4.578,4.578,0,0,1,3.662,1.576,6.393,6.393,0,0,1,1.354,4.307v.785h-9.047v.27a5.309,5.309,0,0,0,1.236,3.592,3.933,3.933,0,0,0,3.111,1.436,4.569,4.569,0,0,0,1.986-.41,4.405,4.405,0,0,0,1.564-1.312l.879.668A5.116,5.116,0,0,1,108.727,23.234Zm-.258-11.953a3.506,3.506,0,0,0-2.666,1.16,5.36,5.36,0,0,0-1.318,3.117h7.605v-.152a4.653,4.653,0,0,0-1.043-2.977A3.232,3.232,0,0,0,108.469,11.281Zm18.492,11.953a5.5,5.5,0,0,1-2.924-.8A5.431,5.431,0,0,1,122,20.217a6.924,6.924,0,0,1-.727-3.193v-.5a7.461,7.461,0,0,1,.709-3.293,5.641,5.641,0,0,1,1.975-2.3,4.871,4.871,0,0,1,2.742-.838,4.578,4.578,0,0,1,3.662,1.576,6.393,6.393,0,0,1,1.354,4.307v.785h-9.047v.27a5.309,5.309,0,0,0,1.236,3.592,3.933,3.933,0,0,0,3.111,1.436,4.569,4.569,0,0,0,1.986-.41,4.405,4.405,0,0,0,1.564-1.312l.879.668A5.116,5.116,0,0,1,126.961,23.234ZM126.7,11.281a3.506,3.506,0,0,0-2.666,1.16,5.36,5.36,0,0,0-1.318,3.117h7.605v-.152a4.653,4.653,0,0,0-1.043-2.977A3.232,3.232,0,0,0,126.7,11.281Zm9.082-.961.047,2.168a5.035,5.035,0,0,1,1.781-1.787,4.629,4.629,0,0,1,2.355-.615A3.8,3.8,0,0,1,143,11.234a5.18,5.18,0,0,1,1.008,3.445V23h-1.395V14.668a3.874,3.874,0,0,0-.721-2.531,2.823,2.823,0,0,0-2.268-.832,3.547,3.547,0,0,0-2.3.814,4.771,4.771,0,0,0-1.482,2.2V23h-1.395V10.32ZM155.039,23h-1.406V5h1.406Zm3.035-6.527a7.461,7.461,0,0,1,.709-3.293,5.326,5.326,0,0,1,4.939-3.094,5.216,5.216,0,0,1,4.1,1.775,6.841,6.841,0,0,1,1.57,4.705v.293a7.527,7.527,0,0,1-.709,3.311,5.294,5.294,0,0,1-2,2.268,5.479,5.479,0,0,1-2.941.8,5.221,5.221,0,0,1-4.1-1.775,6.825,6.825,0,0,1-1.576-4.705Zm1.406.387a5.753,5.753,0,0,0,1.178,3.732,3.985,3.985,0,0,0,6.164,0A5.943,5.943,0,0,0,168,16.742v-.27a6.45,6.45,0,0,0-.539-2.66,4.331,4.331,0,0,0-1.512-1.869,3.863,3.863,0,0,0-2.227-.662,3.747,3.747,0,0,0-3.059,1.471,5.952,5.952,0,0,0-1.184,3.85Zm20.4,2.918a2,2,0,0,0-.838-1.676,6.462,6.462,0,0,0-2.525-.99,11.394,11.394,0,0,1-2.619-.82,3.489,3.489,0,0,1-1.383-1.131,2.821,2.821,0,0,1-.451-1.617,3.017,3.017,0,0,1,1.254-2.479,5.065,5.065,0,0,1,3.211-.979,5.213,5.213,0,0,1,3.4,1.049,3.366,3.366,0,0,1,1.283,2.736h-1.406a2.271,2.271,0,0,0-.932-1.852,4.205,4.205,0,0,0-4.57-.123,1.9,1.9,0,0,0-.838,1.6,1.729,1.729,0,0,0,.7,1.471,7.375,7.375,0,0,0,2.543.955,11.952,11.952,0,0,1,2.766.926,3.582,3.582,0,0,1,1.365,1.184,3.255,3.255,0,0,1-.85,4.242,5.532,5.532,0,0,1-3.381.961,5.68,5.68,0,0,1-3.592-1.072,3.3,3.3,0,0,1-1.377-2.713h1.406a2.439,2.439,0,0,0,1.037,1.916,4.239,4.239,0,0,0,2.525.686,3.985,3.985,0,0,0,2.367-.645A1.934,1.934,0,0,0,179.883,19.777Zm18.551,1.617a4.558,4.558,0,0,1-4.043,1.84,3.923,3.923,0,0,1-3.082-1.178,5.158,5.158,0,0,1-1.078-3.486V10.32h1.395v8.074q0,3.621,2.93,3.621,3.047,0,3.855-2.52V10.32h1.406V23h-1.359ZM196.57,5.141h1.7l-2.707,3.27-1.23-.006ZM205.031,23h-1.406V5h1.406ZM211.02,7.074V10.32h2.625v1.148H211.02v8.459A2.648,2.648,0,0,0,211.4,21.5a1.476,1.476,0,0,0,1.271.516,8.724,8.724,0,0,0,1.137-.117l.059,1.139a4.584,4.584,0,0,1-1.5.2,2.5,2.5,0,0,1-2.1-.838,3.944,3.944,0,0,1-.656-2.467V11.469h-2.332V10.32h2.332V7.074ZM218.121,23h-1.406V10.32h1.406ZM216.469,6.658a.94.94,0,0,1,.258-.67.92.92,0,0,1,.7-.274.939.939,0,0,1,.709.274.929.929,0,0,1,.264.67.909.909,0,0,1-.264.664.95.95,0,0,1-.709.268.93.93,0,0,1-.7-.268A.92.92,0,0,1,216.469,6.658Zm6.738,3.662.047,2.063a4.694,4.694,0,0,1,1.758-1.723,4.821,4.821,0,0,1,2.344-.574q3,0,3.809,2.461a4.76,4.76,0,0,1,1.816-1.822,5.032,5.032,0,0,1,2.508-.639q4.078,0,4.16,4.453V23h-1.406V14.645a3.78,3.78,0,0,0-.732-2.52,2.982,2.982,0,0,0-2.35-.82,3.735,3.735,0,0,0-2.555.979,3.458,3.458,0,0,0-1.16,2.326V23h-1.406V14.539a3.474,3.474,0,0,0-.768-2.432,3.055,3.055,0,0,0-2.326-.8,3.537,3.537,0,0,0-2.273.756,4.433,4.433,0,0,0-1.406,2.244V23h-1.406V10.32Zm19.219,6.152a7.461,7.461,0,0,1,.709-3.293,5.326,5.326,0,0,1,4.939-3.094,5.216,5.216,0,0,1,4.1,1.775,6.841,6.841,0,0,1,1.57,4.705v.293a7.527,7.527,0,0,1-.709,3.311,5.294,5.294,0,0,1-2,2.268,5.479,5.479,0,0,1-2.941.8,5.221,5.221,0,0,1-4.1-1.775,6.825,6.825,0,0,1-1.576-4.705Zm1.406.387a5.753,5.753,0,0,0,1.178,3.732,3.985,3.985,0,0,0,6.164,0,5.943,5.943,0,0,0,1.178-3.85v-.27a6.45,6.45,0,0,0-.539-2.66,4.331,4.331,0,0,0-1.512-1.869,3.863,3.863,0,0,0-2.227-.662,3.747,3.747,0,0,0-3.059,1.471,5.952,5.952,0,0,0-1.184,3.85Zm20.4,2.918A2,2,0,0,0,263.4,18.1a6.462,6.462,0,0,0-2.525-.99,11.394,11.394,0,0,1-2.619-.82,3.489,3.489,0,0,1-1.383-1.131,2.821,2.821,0,0,1-.451-1.617,3.017,3.017,0,0,1,1.254-2.479,5.065,5.065,0,0,1,3.211-.979,5.213,5.213,0,0,1,3.4,1.049,3.366,3.366,0,0,1,1.283,2.736h-1.406a2.271,2.271,0,0,0-.932-1.852,4.205,4.205,0,0,0-4.57-.123,1.9,1.9,0,0,0-.838,1.6,1.729,1.729,0,0,0,.7,1.471,7.375,7.375,0,0,0,2.543.955,11.952,11.952,0,0,1,2.766.926,3.582,3.582,0,0,1,1.365,1.184,3.255,3.255,0,0,1-.85,4.242,5.532,5.532,0,0,1-3.381.961,5.68,5.68,0,0,1-3.592-1.072A3.3,3.3,0,0,1,256,19.449H257.4a2.439,2.439,0,0,0,1.037,1.916,4.239,4.239,0,0,0,2.525.686,3.985,3.985,0,0,0,2.367-.645A1.934,1.934,0,0,0,264.234,19.777ZM9.832,53a6.632,6.632,0,0,1-.27-1.77,4.89,4.89,0,0,1-1.881,1.482,5.76,5.76,0,0,1-2.42.521A4.25,4.25,0,0,1,2.3,52.215a3.321,3.321,0,0,1-1.131-2.578,3.394,3.394,0,0,1,1.541-2.93,7.4,7.4,0,0,1,4.295-1.078H9.551V44.188a2.778,2.778,0,0,0-.838-2.139A3.463,3.463,0,0,0,6.27,41.27a3.824,3.824,0,0,0-2.426.75,2.228,2.228,0,0,0-.961,1.8l-1.406-.012a3.261,3.261,0,0,1,1.406-2.619A5.415,5.415,0,0,1,6.34,40.086a4.939,4.939,0,0,1,3.346,1.061,3.805,3.805,0,0,1,1.26,2.959v6a7.442,7.442,0,0,0,.387,2.754V53ZM5.426,51.992a4.708,4.708,0,0,0,2.514-.68A4,4,0,0,0,9.551,49.5V46.707H7.043a6.284,6.284,0,0,0-3.281.768A2.3,2.3,0,0,0,2.578,49.52a2.267,2.267,0,0,0,.791,1.77A2.98,2.98,0,0,0,5.426,51.992ZM16.02,40.32l.047,2.168A5.035,5.035,0,0,1,17.848,40.7a4.629,4.629,0,0,1,2.355-.615,3.8,3.8,0,0,1,3.035,1.148,5.18,5.18,0,0,1,1.008,3.445V53H22.852V44.668a3.874,3.874,0,0,0-.721-2.531,2.823,2.823,0,0,0-2.268-.832,3.547,3.547,0,0,0-2.3.814,4.771,4.771,0,0,0-1.482,2.2V53H14.684V40.32Zm7.57-4.805a2.478,2.478,0,0,1-.662,1.8A2.174,2.174,0,0,1,21.3,38a2.854,2.854,0,0,1-1.74-.645,2.628,2.628,0,0,0-1.518-.645,1.259,1.259,0,0,0-.92.363,1.366,1.366,0,0,0-.369,1.02L15.7,38.059a2.529,2.529,0,0,1,.639-1.773,2.33,2.33,0,0,1,2.607-.5,5.929,5.929,0,0,1,.75.445,8.191,8.191,0,0,0,.709.445,1.693,1.693,0,0,0,.838.2,1.244,1.244,0,0,0,.92-.387,1.422,1.422,0,0,0,.381-1.043Zm3.5,10.957A7.461,7.461,0,0,1,27.8,43.18a5.326,5.326,0,0,1,4.939-3.094,5.216,5.216,0,0,1,4.1,1.775,6.841,6.841,0,0,1,1.57,4.705v.293a7.527,7.527,0,0,1-.709,3.311,5.294,5.294,0,0,1-2,2.268,5.479,5.479,0,0,1-2.941.8,5.221,5.221,0,0,1-4.1-1.775,6.825,6.825,0,0,1-1.576-4.705Zm1.406.387a5.753,5.753,0,0,0,1.178,3.732,3.985,3.985,0,0,0,6.164,0,5.943,5.943,0,0,0,1.178-3.85v-.27a6.45,6.45,0,0,0-.539-2.66,4.331,4.331,0,0,0-1.512-1.869,3.863,3.863,0,0,0-2.227-.662,3.747,3.747,0,0,0-3.059,1.471A5.952,5.952,0,0,0,28.5,46.6Zm20.4,2.918a2,2,0,0,0-.838-1.676,6.462,6.462,0,0,0-2.525-.99,11.394,11.394,0,0,1-2.619-.82,3.489,3.489,0,0,1-1.383-1.131,2.821,2.821,0,0,1-.451-1.617,3.017,3.017,0,0,1,1.254-2.479,5.065,5.065,0,0,1,3.211-.979,5.213,5.213,0,0,1,3.4,1.049,3.366,3.366,0,0,1,1.283,2.736H48.832A2.271,2.271,0,0,0,47.9,42.02a4.205,4.205,0,0,0-4.57-.123,1.9,1.9,0,0,0-.838,1.6,1.729,1.729,0,0,0,.7,1.471,7.375,7.375,0,0,0,2.543.955,11.952,11.952,0,0,1,2.766.926,3.582,3.582,0,0,1,1.365,1.184,3.255,3.255,0,0,1-.85,4.242,5.532,5.532,0,0,1-3.381.961,5.68,5.68,0,0,1-3.592-1.072,3.3,3.3,0,0,1-1.377-2.713H42.07a2.439,2.439,0,0,0,1.037,1.916,4.239,4.239,0,0,0,2.525.686A3.985,3.985,0,0,0,48,51.406,1.934,1.934,0,0,0,48.9,49.777Zm15.3,3.457a5.5,5.5,0,0,1-2.924-.8,5.431,5.431,0,0,1-2.033-2.221,6.924,6.924,0,0,1-.727-3.193v-.5a7.461,7.461,0,0,1,.709-3.293,5.641,5.641,0,0,1,1.975-2.3,4.871,4.871,0,0,1,2.742-.838,4.578,4.578,0,0,1,3.662,1.576,6.393,6.393,0,0,1,1.354,4.307v.785H59.918v.27a5.309,5.309,0,0,0,1.236,3.592,3.933,3.933,0,0,0,3.111,1.436,4.569,4.569,0,0,0,1.986-.41,4.405,4.405,0,0,0,1.564-1.312L68.7,51A5.116,5.116,0,0,1,64.207,53.234Zm-.258-11.953a3.506,3.506,0,0,0-2.666,1.16,5.36,5.36,0,0,0-1.318,3.117H67.57v-.152a4.653,4.653,0,0,0-1.043-2.977A3.232,3.232,0,0,0,63.949,41.281ZM73.266,53H71.859V35h1.406ZM87.6,52.051a3.7,3.7,0,0,0,2.455-.826,2.908,2.908,0,0,0,1.072-2.139h1.348a3.97,3.97,0,0,1-.727,2.115A4.552,4.552,0,0,1,89.971,52.7a5.351,5.351,0,0,1-2.373.539A4.9,4.9,0,0,1,83.643,51.5a7.012,7.012,0,0,1-1.459-4.664v-.422A7.927,7.927,0,0,1,82.84,43.1a5.057,5.057,0,0,1,1.881-2.227,5.192,5.192,0,0,1,2.865-.785,4.89,4.89,0,0,1,3.439,1.242,4.529,4.529,0,0,1,1.447,3.27H91.125a3.393,3.393,0,0,0-3.539-3.316,3.5,3.5,0,0,0-2.947,1.371A6.2,6.2,0,0,0,83.59,46.5v.41a6.065,6.065,0,0,0,1.049,3.785A3.52,3.52,0,0,0,87.6,52.051Zm6.9-5.578a7.461,7.461,0,0,1,.709-3.293,5.326,5.326,0,0,1,4.939-3.094,5.216,5.216,0,0,1,4.1,1.775,6.841,6.841,0,0,1,1.57,4.705v.293a7.527,7.527,0,0,1-.709,3.311,5.294,5.294,0,0,1-2,2.268,5.479,5.479,0,0,1-2.941.8,5.221,5.221,0,0,1-4.1-1.775A6.825,6.825,0,0,1,94.5,46.754Zm1.406.387a5.753,5.753,0,0,0,1.178,3.732,3.985,3.985,0,0,0,6.164,0,5.943,5.943,0,0,0,1.178-3.85v-.27a6.45,6.45,0,0,0-.539-2.66,4.331,4.331,0,0,0-1.512-1.869,3.863,3.863,0,0,0-2.227-.662,3.747,3.747,0,0,0-3.059,1.471,5.952,5.952,0,0,0-1.184,3.85Zm14.145-6.539.047,2.168a5.035,5.035,0,0,1,1.781-1.787,4.629,4.629,0,0,1,2.355-.615,3.8,3.8,0,0,1,3.035,1.148,5.18,5.18,0,0,1,1.008,3.445V53h-1.395V44.668a3.874,3.874,0,0,0-.721-2.531,2.823,2.823,0,0,0-2.268-.832,3.547,3.547,0,0,0-2.3.814,4.771,4.771,0,0,0-1.482,2.2V53h-1.395V40.32Zm16.535,11.73a3.7,3.7,0,0,0,2.455-.826,2.908,2.908,0,0,0,1.072-2.139h1.348a3.97,3.97,0,0,1-.727,2.115,4.552,4.552,0,0,1-1.775,1.494,5.351,5.351,0,0,1-2.373.539,4.9,4.9,0,0,1-3.955-1.734,7.012,7.012,0,0,1-1.459-4.664v-.422a7.927,7.927,0,0,1,.656-3.316,5.057,5.057,0,0,1,1.881-2.227,5.192,5.192,0,0,1,2.865-.785,4.89,4.89,0,0,1,3.439,1.242,4.529,4.529,0,0,1,1.447,3.27h-1.348a3.393,3.393,0,0,0-3.539-3.316,3.5,3.5,0,0,0-2.947,1.371,6.2,6.2,0,0,0-1.049,3.844v.41a6.065,6.065,0,0,0,1.049,3.785A3.52,3.52,0,0,0,126.586,52.051Zm12.586,1.184a5.5,5.5,0,0,1-2.924-.8,5.431,5.431,0,0,1-2.033-2.221,6.924,6.924,0,0,1-.727-3.193v-.5a7.461,7.461,0,0,1,.709-3.293,5.641,5.641,0,0,1,1.975-2.3,4.871,4.871,0,0,1,2.742-.838,4.578,4.578,0,0,1,3.662,1.576,6.393,6.393,0,0,1,1.354,4.307v.785h-9.047v.27a5.309,5.309,0,0,0,1.236,3.592,3.933,3.933,0,0,0,3.111,1.436,4.569,4.569,0,0,0,1.986-.41,4.405,4.405,0,0,0,1.564-1.312l.879.668A5.116,5.116,0,0,1,139.172,53.234Zm-.258-11.953a3.506,3.506,0,0,0-2.666,1.16,5.36,5.36,0,0,0-1.318,3.117h7.605v-.152a4.653,4.653,0,0,0-1.043-2.977A3.232,3.232,0,0,0,138.914,41.281Zm17.941,5.508a7.636,7.636,0,0,1-1.312,4.705,4.18,4.18,0,0,1-3.516,1.74,4.693,4.693,0,0,1-3.984-1.828v6.469h-1.395V40.32h1.3l.07,1.793a4.5,4.5,0,0,1,3.973-2.027,4.217,4.217,0,0,1,3.568,1.723,7.8,7.8,0,0,1,1.295,4.781Zm-1.406-.246a6.522,6.522,0,0,0-1-3.832,3.212,3.212,0,0,0-2.777-1.406,3.7,3.7,0,0,0-3.633,2.426v6.082a3.724,3.724,0,0,0,1.441,1.664,4.157,4.157,0,0,0,2.215.574,3.182,3.182,0,0,0,2.76-1.412A7.1,7.1,0,0,0,155.449,46.543Zm6.691-9.469V40.32h2.625v1.148h-2.625v8.459a2.648,2.648,0,0,0,.381,1.572,1.476,1.476,0,0,0,1.271.516,8.724,8.724,0,0,0,1.137-.117l.059,1.139a4.584,4.584,0,0,1-1.5.2,2.5,2.5,0,0,1-2.1-.838,3.944,3.944,0,0,1-.656-2.467V41.469H158.4V40.32h2.332V37.074Zm4.523,9.4a7.461,7.461,0,0,1,.709-3.293,5.326,5.326,0,0,1,4.939-3.094,5.216,5.216,0,0,1,4.1,1.775,6.841,6.841,0,0,1,1.57,4.705v.293a7.527,7.527,0,0,1-.709,3.311,5.294,5.294,0,0,1-2,2.268,5.479,5.479,0,0,1-2.941.8,5.221,5.221,0,0,1-4.1-1.775,6.825,6.825,0,0,1-1.576-4.705Zm1.406.387a5.753,5.753,0,0,0,1.178,3.732,3.985,3.985,0,0,0,6.164,0,5.943,5.943,0,0,0,1.178-3.85v-.27a6.45,6.45,0,0,0-.539-2.66,4.331,4.331,0,0,0-1.512-1.869,3.863,3.863,0,0,0-2.227-.662,3.747,3.747,0,0,0-3.059,1.471,5.952,5.952,0,0,0-1.184,3.85Zm18.082-.316a7.643,7.643,0,0,1,1.318-4.705,4.243,4.243,0,0,1,3.58-1.752,4.409,4.409,0,0,1,3.914,2.027V35h1.395V53h-1.312l-.059-1.687a4.529,4.529,0,0,1-3.961,1.922,4.228,4.228,0,0,1-3.533-1.764,7.682,7.682,0,0,1-1.342-4.764Zm1.418.246a6.612,6.612,0,0,0,.973,3.826,3.146,3.146,0,0,0,2.742,1.4,3.774,3.774,0,0,0,3.68-2.285V43.777a3.746,3.746,0,0,0-3.656-2.473,3.184,3.184,0,0,0-2.754,1.389A7.066,7.066,0,0,0,187.57,46.789Zm17.391,6.445a5.5,5.5,0,0,1-2.924-.8A5.431,5.431,0,0,1,200,50.217a6.924,6.924,0,0,1-.727-3.193v-.5a7.461,7.461,0,0,1,.709-3.293,5.641,5.641,0,0,1,1.975-2.3,4.871,4.871,0,0,1,2.742-.838,4.578,4.578,0,0,1,3.662,1.576,6.393,6.393,0,0,1,1.354,4.307v.785h-9.047v.27a5.309,5.309,0,0,0,1.236,3.592,3.933,3.933,0,0,0,3.111,1.436,4.569,4.569,0,0,0,1.986-.41,4.405,4.405,0,0,0,1.564-1.312l.879.668A5.116,5.116,0,0,1,204.961,53.234ZM204.7,41.281a3.506,3.506,0,0,0-2.666,1.16,5.36,5.36,0,0,0-1.318,3.117h7.605v-.152a4.653,4.653,0,0,0-1.043-2.977A3.232,3.232,0,0,0,204.7,41.281ZM6.516,82.051a3.7,3.7,0,0,0,2.455-.826,2.908,2.908,0,0,0,1.072-2.139h1.348a3.97,3.97,0,0,1-.727,2.115A4.552,4.552,0,0,1,8.889,82.7a5.351,5.351,0,0,1-2.373.539A4.9,4.9,0,0,1,2.561,81.5,7.012,7.012,0,0,1,1.1,76.836v-.422A7.927,7.927,0,0,1,1.758,73.1a5.057,5.057,0,0,1,1.881-2.227A5.192,5.192,0,0,1,6.5,70.086a4.89,4.89,0,0,1,3.439,1.242,4.529,4.529,0,0,1,1.447,3.27H10.043A3.393,3.393,0,0,0,6.5,71.281a3.5,3.5,0,0,0-2.947,1.371A6.2,6.2,0,0,0,2.508,76.5v.41a6.065,6.065,0,0,0,1.049,3.785A3.52,3.52,0,0,0,6.516,82.051ZM15.762,83H14.355V70.32h1.406ZM14.109,66.658a.94.94,0,0,1,.258-.67.92.92,0,0,1,.7-.274.939.939,0,0,1,.709.274.929.929,0,0,1,.264.67.909.909,0,0,1-.264.664.95.95,0,0,1-.709.268.93.93,0,0,1-.7-.268A.92.92,0,0,1,14.109,66.658ZM29.777,76.789a7.636,7.636,0,0,1-1.312,4.705,4.192,4.192,0,0,1-3.527,1.74,4.557,4.557,0,0,1-4.008-1.969L20.871,83H19.559V65h1.395v7.16a4.407,4.407,0,0,1,3.961-2.074A4.231,4.231,0,0,1,28.471,71.8a7.727,7.727,0,0,1,1.307,4.775Zm-1.406-.246A6.605,6.605,0,0,0,27.4,72.67,3.171,3.171,0,0,0,24.656,71.3a3.86,3.86,0,0,0-2.285.662,4.026,4.026,0,0,0-1.418,1.939v5.719a3.757,3.757,0,0,0,3.727,2.391,3.148,3.148,0,0,0,2.713-1.371A7.061,7.061,0,0,0,28.371,76.543Zm9.41,6.691a5.5,5.5,0,0,1-2.924-.8,5.431,5.431,0,0,1-2.033-2.221,6.924,6.924,0,0,1-.727-3.193v-.5a7.461,7.461,0,0,1,.709-3.293,5.641,5.641,0,0,1,1.975-2.3,4.871,4.871,0,0,1,2.742-.838,4.578,4.578,0,0,1,3.662,1.576,6.393,6.393,0,0,1,1.354,4.307v.785H33.492v.27a5.309,5.309,0,0,0,1.236,3.592,3.933,3.933,0,0,0,3.111,1.436,4.569,4.569,0,0,0,1.986-.41,4.405,4.405,0,0,0,1.564-1.312L42.27,81A5.116,5.116,0,0,1,37.781,83.234Zm-.258-11.953a3.506,3.506,0,0,0-2.666,1.16,5.36,5.36,0,0,0-1.318,3.117h7.605v-.152A4.653,4.653,0,0,0,40.1,72.43,3.232,3.232,0,0,0,37.523,71.281Zm13.605.234a5.238,5.238,0,0,0-.949-.082,3.425,3.425,0,0,0-2.221.732,4.012,4.012,0,0,0-1.295,2.127V83H45.27V70.32h1.371l.023,2.016a3.729,3.729,0,0,1,3.574-2.25,2.306,2.306,0,0,1,.926.152Zm9.809,8.262A2,2,0,0,0,60.1,78.1a6.462,6.462,0,0,0-2.525-.99,11.394,11.394,0,0,1-2.619-.82,3.489,3.489,0,0,1-1.383-1.131,2.821,2.821,0,0,1-.451-1.617,3.017,3.017,0,0,1,1.254-2.479,5.065,5.065,0,0,1,3.211-.979,5.213,5.213,0,0,1,3.4,1.049,3.366,3.366,0,0,1,1.283,2.736H60.867a2.271,2.271,0,0,0-.932-1.852,4.205,4.205,0,0,0-4.57-.123,1.9,1.9,0,0,0-.838,1.6,1.729,1.729,0,0,0,.7,1.471,7.375,7.375,0,0,0,2.543.955,11.952,11.952,0,0,1,2.766.926A3.582,3.582,0,0,1,61.9,78.031a3.255,3.255,0,0,1-.85,4.242,5.532,5.532,0,0,1-3.381.961,5.68,5.68,0,0,1-3.592-1.072A3.3,3.3,0,0,1,52.7,79.449h1.406a2.439,2.439,0,0,0,1.037,1.916,4.239,4.239,0,0,0,2.525.686,3.985,3.985,0,0,0,2.367-.645A1.934,1.934,0,0,0,60.938,79.777Zm9.469,3.457a5.5,5.5,0,0,1-2.924-.8,5.431,5.431,0,0,1-2.033-2.221,6.924,6.924,0,0,1-.727-3.193v-.5a7.461,7.461,0,0,1,.709-3.293,5.641,5.641,0,0,1,1.975-2.3,4.871,4.871,0,0,1,2.742-.838,4.578,4.578,0,0,1,3.662,1.576,6.393,6.393,0,0,1,1.354,4.307v.785H66.117v.27a5.309,5.309,0,0,0,1.236,3.592,3.933,3.933,0,0,0,3.111,1.436,4.569,4.569,0,0,0,1.986-.41,4.405,4.405,0,0,0,1.564-1.312l.879.668A5.116,5.116,0,0,1,70.406,83.234Zm-.258-11.953a3.506,3.506,0,0,0-2.666,1.16,5.36,5.36,0,0,0-1.318,3.117H73.77v-.152a4.653,4.653,0,0,0-1.043-2.977A3.232,3.232,0,0,0,70.148,71.281Zm7.184,5.262a7.633,7.633,0,0,1,1.318-4.717,4.253,4.253,0,0,1,3.58-1.74,4.41,4.41,0,0,1,3.938,2.063l.07-1.828h1.313V82.742a5.37,5.37,0,0,1-1.371,3.879,4.905,4.905,0,0,1-3.715,1.43,5.642,5.642,0,0,1-2.525-.592,4.905,4.905,0,0,1-1.893-1.576l.785-.844a4.443,4.443,0,0,0,3.539,1.828,3.6,3.6,0,0,0,2.742-1.037,4.132,4.132,0,0,0,1.02-2.877V81.359a4.532,4.532,0,0,1-3.926,1.875,4.228,4.228,0,0,1-3.539-1.758,7.659,7.659,0,0,1-1.336-4.746Zm1.418.246a6.612,6.612,0,0,0,.973,3.826,3.146,3.146,0,0,0,2.742,1.4,3.748,3.748,0,0,0,3.668-2.32V73.8a4,4,0,0,0-1.418-1.857,3.824,3.824,0,0,0-2.227-.639,3.184,3.184,0,0,0-2.754,1.389A7.066,7.066,0,0,0,78.75,76.789Zm20.613,4.605a4.558,4.558,0,0,1-4.043,1.84,3.923,3.923,0,0,1-3.082-1.178A5.158,5.158,0,0,1,91.16,78.57V70.32h1.395v8.074q0,3.621,2.93,3.621,3.047,0,3.855-2.52V70.32h1.406V83H99.387Zm10.887-9.879a5.238,5.238,0,0,0-.949-.082,3.425,3.425,0,0,0-2.221.732,4.012,4.012,0,0,0-1.295,2.127V83h-1.395V70.32h1.371l.023,2.016a3.729,3.729,0,0,1,3.574-2.25,2.306,2.306,0,0,1,.926.152ZM114.035,83h-1.406V70.32h1.406Zm-1.652-16.342a.94.94,0,0,1,.258-.67.92.92,0,0,1,.7-.274.939.939,0,0,1,.709.274.929.929,0,0,1,.264.67.909.909,0,0,1-.264.664.95.95,0,0,1-.709.268.93.93,0,0,1-.7-.268A.92.92,0,0,1,112.383,66.658Zm4.9,9.885a7.643,7.643,0,0,1,1.318-4.705,4.243,4.243,0,0,1,3.58-1.752,4.409,4.409,0,0,1,3.914,2.027V65h1.395V83h-1.312l-.059-1.687a4.529,4.529,0,0,1-3.961,1.922,4.228,4.228,0,0,1-3.533-1.764,7.682,7.682,0,0,1-1.342-4.764Zm1.418.246a6.612,6.612,0,0,0,.973,3.826,3.146,3.146,0,0,0,2.742,1.4,3.774,3.774,0,0,0,3.68-2.285V73.777a3.746,3.746,0,0,0-3.656-2.473,3.184,3.184,0,0,0-2.754,1.389A7.066,7.066,0,0,0,118.7,76.789ZM139.184,83a6.632,6.632,0,0,1-.27-1.77,4.89,4.89,0,0,1-1.881,1.482,5.76,5.76,0,0,1-2.42.521,4.25,4.25,0,0,1-2.959-1.02,3.321,3.321,0,0,1-1.131-2.578,3.394,3.394,0,0,1,1.541-2.93,7.4,7.4,0,0,1,4.295-1.078H138.9V74.188a2.778,2.778,0,0,0-.838-2.139,3.463,3.463,0,0,0-2.443-.779,3.824,3.824,0,0,0-2.426.75,2.228,2.228,0,0,0-.961,1.8l-1.406-.012a3.261,3.261,0,0,1,1.406-2.619,5.415,5.415,0,0,1,3.457-1.107,4.939,4.939,0,0,1,3.346,1.061,3.805,3.805,0,0,1,1.26,2.959v6a7.442,7.442,0,0,0,.387,2.754V83Zm-4.406-1.008a4.708,4.708,0,0,0,2.514-.68A4,4,0,0,0,138.9,79.5V76.707h-2.508a6.284,6.284,0,0,0-3.281.768,2.3,2.3,0,0,0-1.184,2.045,2.267,2.267,0,0,0,.791,1.77A2.98,2.98,0,0,0,134.777,81.992Zm8.7-5.449a7.643,7.643,0,0,1,1.318-4.705,4.243,4.243,0,0,1,3.58-1.752,4.409,4.409,0,0,1,3.914,2.027V65h1.395V83h-1.312l-.059-1.687a4.529,4.529,0,0,1-3.961,1.922,4.228,4.228,0,0,1-3.533-1.764,7.682,7.682,0,0,1-1.342-4.764Zm1.418.246a6.612,6.612,0,0,0,.973,3.826,3.146,3.146,0,0,0,2.742,1.4,3.774,3.774,0,0,0,3.68-2.285V73.777a3.746,3.746,0,0,0-3.656-2.473,3.184,3.184,0,0,0-2.754,1.389A7.066,7.066,0,0,0,144.891,76.789Zm25.91,2.988a2,2,0,0,0-.838-1.676,6.462,6.462,0,0,0-2.525-.99,11.394,11.394,0,0,1-2.619-.82,3.489,3.489,0,0,1-1.383-1.131,2.821,2.821,0,0,1-.451-1.617,3.017,3.017,0,0,1,1.254-2.479,5.065,5.065,0,0,1,3.211-.979,5.213,5.213,0,0,1,3.4,1.049,3.366,3.366,0,0,1,1.283,2.736H170.73a2.271,2.271,0,0,0-.932-1.852,4.205,4.205,0,0,0-4.57-.123,1.9,1.9,0,0,0-.838,1.6,1.729,1.729,0,0,0,.7,1.471,7.375,7.375,0,0,0,2.543.955,11.952,11.952,0,0,1,2.766.926,3.582,3.582,0,0,1,1.365,1.184,3.255,3.255,0,0,1-.85,4.242,5.532,5.532,0,0,1-3.381.961,5.68,5.68,0,0,1-3.592-1.072,3.3,3.3,0,0,1-1.377-2.713h1.406a2.439,2.439,0,0,0,1.037,1.916,4.239,4.239,0,0,0,2.525.686,3.985,3.985,0,0,0,2.367-.645A1.934,1.934,0,0,0,170.8,79.777Zm9.469,3.457a5.5,5.5,0,0,1-2.924-.8,5.431,5.431,0,0,1-2.033-2.221,6.924,6.924,0,0,1-.727-3.193v-.5a7.461,7.461,0,0,1,.709-3.293,5.641,5.641,0,0,1,1.975-2.3,4.871,4.871,0,0,1,2.742-.838,4.578,4.578,0,0,1,3.662,1.576,6.393,6.393,0,0,1,1.354,4.307v.785H175.98v.27a5.309,5.309,0,0,0,1.236,3.592,3.933,3.933,0,0,0,3.111,1.436,4.569,4.569,0,0,0,1.986-.41,4.405,4.405,0,0,0,1.564-1.312l.879.668A5.116,5.116,0,0,1,180.27,83.234Zm-.258-11.953a3.506,3.506,0,0,0-2.666,1.16,5.36,5.36,0,0,0-1.318,3.117h7.605v-.152a4.653,4.653,0,0,0-1.043-2.977A3.232,3.232,0,0,0,180.012,71.281Zm14.977,1.184a4.951,4.951,0,0,1,1.77-1.758,4.636,4.636,0,0,1,2.355-.621,3.8,3.8,0,0,1,3.035,1.148,5.18,5.18,0,0,1,1.008,3.445V83h-1.395V74.668a3.874,3.874,0,0,0-.721-2.531,2.823,2.823,0,0,0-2.268-.832,3.547,3.547,0,0,0-2.3.814,4.771,4.771,0,0,0-1.482,2.2V83h-1.395V65h1.395ZM214.77,83a6.632,6.632,0,0,1-.27-1.77,4.89,4.89,0,0,1-1.881,1.482,5.76,5.76,0,0,1-2.42.521,4.25,4.25,0,0,1-2.959-1.02,3.321,3.321,0,0,1-1.131-2.578,3.394,3.394,0,0,1,1.541-2.93,7.4,7.4,0,0,1,4.295-1.078h2.543V74.188a2.778,2.778,0,0,0-.838-2.139,3.463,3.463,0,0,0-2.443-.779,3.824,3.824,0,0,0-2.426.75,2.228,2.228,0,0,0-.961,1.8l-1.406-.012a3.261,3.261,0,0,1,1.406-2.619,5.415,5.415,0,0,1,3.457-1.107,4.939,4.939,0,0,1,3.346,1.061,3.805,3.805,0,0,1,1.26,2.959v6a7.442,7.442,0,0,0,.387,2.754V83Zm-4.406-1.008a4.708,4.708,0,0,0,2.514-.68,4,4,0,0,0,1.611-1.816V76.707H211.98a6.284,6.284,0,0,0-3.281.768,2.3,2.3,0,0,0-1.184,2.045,2.267,2.267,0,0,0,.791,1.77A2.98,2.98,0,0,0,210.363,81.992ZM6.516,112.051a3.7,3.7,0,0,0,2.455-.826,2.908,2.908,0,0,0,1.072-2.139h1.348a3.97,3.97,0,0,1-.727,2.115A4.552,4.552,0,0,1,8.889,112.7a5.351,5.351,0,0,1-2.373.539A4.9,4.9,0,0,1,2.561,111.5,7.012,7.012,0,0,1,1.1,106.836v-.422a7.927,7.927,0,0,1,.656-3.316,5.057,5.057,0,0,1,1.881-2.227,5.192,5.192,0,0,1,2.865-.785,4.89,4.89,0,0,1,3.439,1.242,4.529,4.529,0,0,1,1.447,3.27H10.043A3.393,3.393,0,0,0,6.5,101.281a3.5,3.5,0,0,0-2.947,1.371A6.2,6.2,0,0,0,2.508,106.5v.41a6.065,6.065,0,0,0,1.049,3.785A3.52,3.52,0,0,0,6.516,112.051Zm6.9-5.578a7.461,7.461,0,0,1,.709-3.293,5.326,5.326,0,0,1,4.939-3.094,5.216,5.216,0,0,1,4.1,1.775,6.841,6.841,0,0,1,1.57,4.705v.293a7.527,7.527,0,0,1-.709,3.311,5.294,5.294,0,0,1-2,2.268,5.479,5.479,0,0,1-2.941.8,5.221,5.221,0,0,1-4.1-1.775,6.825,6.825,0,0,1-1.576-4.705Zm1.406.387A5.753,5.753,0,0,0,16,110.592a3.777,3.777,0,0,0,3.088,1.459,3.765,3.765,0,0,0,3.076-1.459,5.943,5.943,0,0,0,1.178-3.85v-.27a6.45,6.45,0,0,0-.539-2.66,4.331,4.331,0,0,0-1.512-1.869,3.863,3.863,0,0,0-2.227-.662,3.747,3.747,0,0,0-3.059,1.471,5.952,5.952,0,0,0-1.184,3.85Zm14.145-6.539.047,2.168A5.035,5.035,0,0,1,30.8,100.7a4.629,4.629,0,0,1,2.355-.615,3.8,3.8,0,0,1,3.035,1.148A5.18,5.18,0,0,1,37.2,104.68V113H35.8v-8.332a3.874,3.874,0,0,0-.721-2.531,2.823,2.823,0,0,0-2.268-.832,3.547,3.547,0,0,0-2.3.814,4.771,4.771,0,0,0-1.482,2.2V113H27.633V100.32Zm15.8,10.746,3.855-10.746h1.441L45.328,113H44.191l-4.758-12.68h1.441Zm12.352,2.168a5.5,5.5,0,0,1-2.924-.8,5.431,5.431,0,0,1-2.033-2.221,6.924,6.924,0,0,1-.727-3.193v-.5a7.461,7.461,0,0,1,.709-3.293,5.641,5.641,0,0,1,1.975-2.3,4.871,4.871,0,0,1,2.742-.838,4.578,4.578,0,0,1,3.662,1.576,6.393,6.393,0,0,1,1.354,4.307v.785H52.828v.27a5.309,5.309,0,0,0,1.236,3.592,3.933,3.933,0,0,0,3.111,1.436,4.569,4.569,0,0,0,1.986-.41,4.405,4.405,0,0,0,1.564-1.312l.879.668A5.116,5.116,0,0,1,57.117,113.234Zm-.258-11.953a3.506,3.506,0,0,0-2.666,1.16,5.36,5.36,0,0,0-1.318,3.117H60.48v-.152a4.653,4.653,0,0,0-1.043-2.977A3.232,3.232,0,0,0,56.859,101.281Zm13.605.234a5.238,5.238,0,0,0-.949-.082,3.425,3.425,0,0,0-2.221.732A4.012,4.012,0,0,0,66,104.293V113H64.605V100.32h1.371L66,102.336a3.729,3.729,0,0,1,3.574-2.25,2.306,2.306,0,0,1,.926.152Zm4.98-4.441v3.246H78.07v1.148H75.445v8.459a2.648,2.648,0,0,0,.381,1.572,1.476,1.476,0,0,0,1.271.516,8.724,8.724,0,0,0,1.137-.117l.059,1.139a4.584,4.584,0,0,1-1.5.2,2.5,2.5,0,0,1-2.1-.838,3.944,3.944,0,0,1-.656-2.467v-8.461H71.707V100.32h2.332V97.074ZM82.547,113H81.141V100.32h1.406ZM80.895,96.658a.94.94,0,0,1,.258-.67.92.92,0,0,1,.7-.274.939.939,0,0,1,.709.274.929.929,0,0,1,.264.67.909.909,0,0,1-.264.664.95.95,0,0,1-.709.268.93.93,0,0,1-.7-.268A.92.92,0,0,1,80.895,96.658Zm4.9,9.885a7.643,7.643,0,0,1,1.318-4.705,4.243,4.243,0,0,1,3.58-1.752,4.409,4.409,0,0,1,3.914,2.027V95H96v18H94.688l-.059-1.687a4.529,4.529,0,0,1-3.961,1.922,4.228,4.228,0,0,1-3.533-1.764,7.682,7.682,0,0,1-1.342-4.764Zm1.418.246a6.612,6.612,0,0,0,.973,3.826,3.146,3.146,0,0,0,2.742,1.4,3.774,3.774,0,0,0,3.68-2.285v-5.953a3.746,3.746,0,0,0-3.656-2.473,3.184,3.184,0,0,0-2.754,1.389A7.066,7.066,0,0,0,87.211,106.789Zm11.707-.316a7.461,7.461,0,0,1,.709-3.293,5.326,5.326,0,0,1,4.939-3.094,5.216,5.216,0,0,1,4.1,1.775,6.841,6.841,0,0,1,1.57,4.705v.293a7.527,7.527,0,0,1-.709,3.311,5.294,5.294,0,0,1-2,2.268,5.479,5.479,0,0,1-2.941.8,5.221,5.221,0,0,1-4.1-1.775,6.825,6.825,0,0,1-1.576-4.705Zm1.406.387a5.753,5.753,0,0,0,1.178,3.732,3.985,3.985,0,0,0,6.164,0,5.943,5.943,0,0,0,1.178-3.85v-.27a6.45,6.45,0,0,0-.539-2.66,4.331,4.331,0,0,0-1.512-1.869,3.863,3.863,0,0,0-2.227-.662,3.747,3.747,0,0,0-3.059,1.471,5.952,5.952,0,0,0-1.184,3.85Zm23.555,6.375a5.5,5.5,0,0,1-2.924-.8,5.431,5.431,0,0,1-2.033-2.221,6.924,6.924,0,0,1-.727-3.193v-.5a7.461,7.461,0,0,1,.709-3.293,5.641,5.641,0,0,1,1.975-2.3,4.871,4.871,0,0,1,2.742-.838,4.578,4.578,0,0,1,3.662,1.576,6.393,6.393,0,0,1,1.354,4.307v.785H119.59v.27a5.309,5.309,0,0,0,1.236,3.592,3.933,3.933,0,0,0,3.111,1.436,4.569,4.569,0,0,0,1.986-.41,4.405,4.405,0,0,0,1.564-1.312l.879.668A5.116,5.116,0,0,1,123.879,113.234Zm-.258-11.953a3.506,3.506,0,0,0-2.666,1.16,5.36,5.36,0,0,0-1.318,3.117h7.605v-.152a4.653,4.653,0,0,0-1.043-2.977A3.232,3.232,0,0,0,123.621,101.281Zm9.082-.961.047,2.168a5.035,5.035,0,0,1,1.781-1.787,4.629,4.629,0,0,1,2.355-.615,3.8,3.8,0,0,1,3.035,1.148,5.18,5.18,0,0,1,1.008,3.445V113h-1.395v-8.332a3.874,3.874,0,0,0-.721-2.531,2.823,2.823,0,0,0-2.268-.832,3.547,3.547,0,0,0-2.3.814,4.771,4.771,0,0,0-1.482,2.2V113h-1.395V100.32Zm25.84,11.074a4.558,4.558,0,0,1-4.043,1.84,3.923,3.923,0,0,1-3.082-1.178,5.158,5.158,0,0,1-1.078-3.486v-8.25h1.395v8.074q0,3.621,2.93,3.621,3.047,0,3.855-2.52V100.32h1.406V113h-1.359Zm6.363-11.074.047,2.168a5.035,5.035,0,0,1,1.781-1.787,4.629,4.629,0,0,1,2.355-.615,3.8,3.8,0,0,1,3.035,1.148,5.18,5.18,0,0,1,1.008,3.445V113h-1.395v-8.332a3.874,3.874,0,0,0-.721-2.531,2.823,2.823,0,0,0-2.268-.832,3.547,3.547,0,0,0-2.3.814,4.771,4.771,0,0,0-1.482,2.2V113H163.57V100.32ZM187.5,113.234a5.5,5.5,0,0,1-2.924-.8,5.431,5.431,0,0,1-2.033-2.221,6.924,6.924,0,0,1-.727-3.193v-.5a7.461,7.461,0,0,1,.709-3.293,5.641,5.641,0,0,1,1.975-2.3,4.871,4.871,0,0,1,2.742-.838,4.578,4.578,0,0,1,3.662,1.576,6.393,6.393,0,0,1,1.354,4.307v.785h-9.047v.27a5.309,5.309,0,0,0,1.236,3.592,3.933,3.933,0,0,0,3.111,1.436,4.569,4.569,0,0,0,1.986-.41,4.405,4.405,0,0,0,1.564-1.312l.879.668A5.116,5.116,0,0,1,187.5,113.234Zm-.258-11.953a3.506,3.506,0,0,0-2.666,1.16,5.36,5.36,0,0,0-1.318,3.117h7.605v-.152a4.653,4.653,0,0,0-1.043-2.977A3.232,3.232,0,0,0,187.242,101.281Zm15.34,8.5a2,2,0,0,0-.838-1.676,6.462,6.462,0,0,0-2.525-.99,11.394,11.394,0,0,1-2.619-.82,3.489,3.489,0,0,1-1.383-1.131,2.821,2.821,0,0,1-.451-1.617,3.017,3.017,0,0,1,1.254-2.479,5.065,5.065,0,0,1,3.211-.979,5.213,5.213,0,0,1,3.4,1.049,3.366,3.366,0,0,1,1.283,2.736h-1.406a2.271,2.271,0,0,0-.932-1.852,4.205,4.205,0,0,0-4.57-.123,1.9,1.9,0,0,0-.838,1.6,1.729,1.729,0,0,0,.7,1.471,7.375,7.375,0,0,0,2.543.955,11.952,11.952,0,0,1,2.766.926,3.582,3.582,0,0,1,1.365,1.184,3.255,3.255,0,0,1-.85,4.242,5.532,5.532,0,0,1-3.381.961,5.68,5.68,0,0,1-3.592-1.072,3.3,3.3,0,0,1-1.377-2.713h1.406a2.439,2.439,0,0,0,1.037,1.916,4.239,4.239,0,0,0,2.525.686,3.985,3.985,0,0,0,2.367-.645A1.934,1.934,0,0,0,202.582,109.777Zm6.738-12.7v3.246h2.625v1.148H209.32v8.459a2.648,2.648,0,0,0,.381,1.572,1.476,1.476,0,0,0,1.271.516,8.724,8.724,0,0,0,1.137-.117l.059,1.139a4.584,4.584,0,0,1-1.5.2,2.5,2.5,0,0,1-2.1-.838,3.944,3.944,0,0,1-.656-2.467v-8.461h-2.332V100.32h2.332V97.074ZM222.855,113a6.632,6.632,0,0,1-.27-1.77,4.89,4.89,0,0,1-1.881,1.482,5.76,5.76,0,0,1-2.42.521,4.25,4.25,0,0,1-2.959-1.02,3.321,3.321,0,0,1-1.131-2.578,3.394,3.394,0,0,1,1.541-2.93,7.4,7.4,0,0,1,4.295-1.078h2.543v-1.441a2.778,2.778,0,0,0-.838-2.139,3.463,3.463,0,0,0-2.443-.779,3.824,3.824,0,0,0-2.426.75,2.228,2.228,0,0,0-.961,1.8l-1.406-.012a3.261,3.261,0,0,1,1.406-2.619,5.415,5.415,0,0,1,3.457-1.107,4.939,4.939,0,0,1,3.346,1.061,3.805,3.805,0,0,1,1.26,2.959v6a7.442,7.442,0,0,0,.387,2.754V113Zm-4.406-1.008a4.708,4.708,0,0,0,2.514-.68,4,4,0,0,0,1.611-1.816v-2.789h-2.508a6.284,6.284,0,0,0-3.281.768,2.3,2.3,0,0,0-1.184,2.045,2.267,2.267,0,0,0,.791,1.77A2.98,2.98,0,0,0,218.449,111.992Zm2.766-16.852h1.7l-2.707,3.27-1.23-.006Zm7.828,5.18.047,2.168a5.035,5.035,0,0,1,1.781-1.787,4.629,4.629,0,0,1,2.355-.615,3.8,3.8,0,0,1,3.035,1.148,5.18,5.18,0,0,1,1.008,3.445V113h-1.395v-8.332a3.874,3.874,0,0,0-.721-2.531,2.823,2.823,0,0,0-2.268-.832,3.547,3.547,0,0,0-2.3.814,4.771,4.771,0,0,0-1.482,2.2V113h-1.395V100.32Zm11.285,6.223a7.643,7.643,0,0,1,1.318-4.705,4.243,4.243,0,0,1,3.58-1.752,4.409,4.409,0,0,1,3.914,2.027V95h1.395v18h-1.312l-.059-1.687a4.529,4.529,0,0,1-3.961,1.922,4.228,4.228,0,0,1-3.533-1.764,7.682,7.682,0,0,1-1.342-4.764Zm1.418.246a6.612,6.612,0,0,0,.973,3.826,3.146,3.146,0,0,0,2.742,1.4,3.774,3.774,0,0,0,3.68-2.285v-5.953a3.746,3.746,0,0,0-3.656-2.473,3.184,3.184,0,0,0-2.754,1.389A7.066,7.066,0,0,0,241.746,106.789ZM262.23,113a6.632,6.632,0,0,1-.27-1.77,4.89,4.89,0,0,1-1.881,1.482,5.76,5.76,0,0,1-2.42.521,4.25,4.25,0,0,1-2.959-1.02,3.321,3.321,0,0,1-1.131-2.578,3.394,3.394,0,0,1,1.541-2.93,7.4,7.4,0,0,1,4.295-1.078h2.543v-1.441a2.778,2.778,0,0,0-.838-2.139,3.463,3.463,0,0,0-2.443-.779,3.824,3.824,0,0,0-2.426.75,2.228,2.228,0,0,0-.961,1.8l-1.406-.012a3.261,3.261,0,0,1,1.406-2.619,5.415,5.415,0,0,1,3.457-1.107,4.939,4.939,0,0,1,3.346,1.061,3.805,3.805,0,0,1,1.26,2.959v6a7.442,7.442,0,0,0,.387,2.754V113Zm-4.406-1.008a4.708,4.708,0,0,0,2.514-.68,4,4,0,0,0,1.611-1.816v-2.789h-2.508a6.284,6.284,0,0,0-3.281.768,2.3,2.3,0,0,0-1.184,2.045,2.267,2.267,0,0,0,.791,1.77A2.98,2.98,0,0,0,257.824,111.992Zm15.117-10.477a5.238,5.238,0,0,0-.949-.082,3.425,3.425,0,0,0-2.221.732,4.012,4.012,0,0,0-1.295,2.127V113h-1.395V100.32h1.371l.023,2.016a3.729,3.729,0,0,1,3.574-2.25,2.306,2.306,0,0,1,.926.152Zm12.07,9.469,3.7-10.664h1.512l-5.414,14.836-.281.656a3.405,3.405,0,0,1-3.223,2.309,3.934,3.934,0,0,1-1.078-.164l-.012-1.16.727.07a2.6,2.6,0,0,0,1.67-.51,3.869,3.869,0,0,0,1.084-1.752l.621-1.711-4.781-12.574h1.535ZM6.738,143.234a5.5,5.5,0,0,1-2.924-.8,5.431,5.431,0,0,1-2.033-2.221,6.924,6.924,0,0,1-.727-3.193v-.5a7.461,7.461,0,0,1,.709-3.293,5.641,5.641,0,0,1,1.975-2.3,4.871,4.871,0,0,1,2.742-.838,4.578,4.578,0,0,1,3.662,1.576,6.393,6.393,0,0,1,1.354,4.307v.785H2.449v.27a5.309,5.309,0,0,0,1.236,3.592A3.933,3.933,0,0,0,6.8,142.051a4.569,4.569,0,0,0,1.986-.41,4.405,4.405,0,0,0,1.564-1.312l.879.668A5.116,5.116,0,0,1,6.738,143.234ZM6.48,131.281a3.506,3.506,0,0,0-2.666,1.16A5.36,5.36,0,0,0,2.5,135.559H10.1v-.152a4.653,4.653,0,0,0-1.043-2.977A3.232,3.232,0,0,0,6.48,131.281Zm9.082-.961.047,2.168a5.035,5.035,0,0,1,1.781-1.787,4.629,4.629,0,0,1,2.355-.615,3.8,3.8,0,0,1,3.035,1.148,5.18,5.18,0,0,1,1.008,3.445V143H22.395v-8.332a3.874,3.874,0,0,0-.721-2.531,2.823,2.823,0,0,0-2.268-.832,3.547,3.547,0,0,0-2.3.814,4.771,4.771,0,0,0-1.482,2.2V143H14.227V130.32ZM41.4,141.395a4.558,4.558,0,0,1-4.043,1.84,3.923,3.923,0,0,1-3.082-1.178A5.158,5.158,0,0,1,33.2,138.57v-8.25h1.395v8.074q0,3.621,2.93,3.621,3.047,0,3.855-2.52V130.32h1.406V143H41.426Zm6.363-11.074.047,2.168a5.035,5.035,0,0,1,1.781-1.787,4.629,4.629,0,0,1,2.355-.615,3.8,3.8,0,0,1,3.035,1.148,5.18,5.18,0,0,1,1.008,3.445V143H54.6v-8.332a3.874,3.874,0,0,0-.721-2.531,2.823,2.823,0,0,0-2.268-.832,3.547,3.547,0,0,0-2.3.814,4.771,4.771,0,0,0-1.482,2.2V143H46.43V130.32ZM67.617,143a6.632,6.632,0,0,1-.27-1.77,4.89,4.89,0,0,1-1.881,1.482,5.76,5.76,0,0,1-2.42.521,4.25,4.25,0,0,1-2.959-1.02,3.321,3.321,0,0,1-1.131-2.578,3.394,3.394,0,0,1,1.541-2.93,7.4,7.4,0,0,1,4.295-1.078h2.543v-1.441a2.778,2.778,0,0,0-.838-2.139,3.463,3.463,0,0,0-2.443-.779,3.824,3.824,0,0,0-2.426.75,2.228,2.228,0,0,0-.961,1.8l-1.406-.012a3.261,3.261,0,0,1,1.406-2.619,5.415,5.415,0,0,1,3.457-1.107,4.939,4.939,0,0,1,3.346,1.061,3.805,3.805,0,0,1,1.26,2.959v6a7.442,7.442,0,0,0,.387,2.754V143Zm-4.406-1.008a4.708,4.708,0,0,0,2.514-.68,4,4,0,0,0,1.611-1.816v-2.789H64.828a6.284,6.284,0,0,0-3.281.768,2.3,2.3,0,0,0-1.184,2.045,2.267,2.267,0,0,0,.791,1.77A2.98,2.98,0,0,0,63.211,141.992Zm16.43-11.672.047,2.168a5.035,5.035,0,0,1,1.781-1.787,4.629,4.629,0,0,1,2.355-.615,3.8,3.8,0,0,1,3.035,1.148,5.18,5.18,0,0,1,1.008,3.445V143H86.473v-8.332a3.874,3.874,0,0,0-.721-2.531,2.823,2.823,0,0,0-2.268-.832,3.547,3.547,0,0,0-2.3.814,4.771,4.771,0,0,0-1.482,2.2V143H78.3V130.32ZM96.4,143.234a5.5,5.5,0,0,1-2.924-.8,5.431,5.431,0,0,1-2.033-2.221,6.924,6.924,0,0,1-.727-3.193v-.5a7.461,7.461,0,0,1,.709-3.293,5.641,5.641,0,0,1,1.975-2.3,4.871,4.871,0,0,1,2.742-.838,4.578,4.578,0,0,1,3.662,1.576,6.393,6.393,0,0,1,1.354,4.307v.785H92.109v.27a5.309,5.309,0,0,0,1.236,3.592,3.933,3.933,0,0,0,3.111,1.436,4.569,4.569,0,0,0,1.986-.41,4.405,4.405,0,0,0,1.564-1.312l.879.668A5.116,5.116,0,0,1,96.4,143.234Zm-.258-11.953a3.506,3.506,0,0,0-2.666,1.16,5.36,5.36,0,0,0-1.318,3.117h7.605v-.152a4.653,4.653,0,0,0-1.043-2.977A3.232,3.232,0,0,0,96.141,131.281Zm12.434,10.77a3.7,3.7,0,0,0,2.455-.826,2.908,2.908,0,0,0,1.072-2.139h1.348a3.97,3.97,0,0,1-.727,2.115,4.552,4.552,0,0,1-1.775,1.494,5.351,5.351,0,0,1-2.373.539,4.9,4.9,0,0,1-3.955-1.734,7.012,7.012,0,0,1-1.459-4.664v-.422a7.927,7.927,0,0,1,.656-3.316,5.057,5.057,0,0,1,1.881-2.227,5.192,5.192,0,0,1,2.865-.785A4.89,4.89,0,0,1,112,131.328a4.529,4.529,0,0,1,1.447,3.27H112.1a3.393,3.393,0,0,0-3.539-3.316,3.5,3.5,0,0,0-2.947,1.371,6.2,6.2,0,0,0-1.049,3.844v.41a6.065,6.065,0,0,0,1.049,3.785A3.52,3.52,0,0,0,108.574,142.051Zm12.586,1.184a5.5,5.5,0,0,1-2.924-.8,5.431,5.431,0,0,1-2.033-2.221,6.924,6.924,0,0,1-.727-3.193v-.5a7.461,7.461,0,0,1,.709-3.293,5.641,5.641,0,0,1,1.975-2.3,4.871,4.871,0,0,1,2.742-.838,4.578,4.578,0,0,1,3.662,1.576,6.393,6.393,0,0,1,1.354,4.307v.785h-9.047v.27a5.309,5.309,0,0,0,1.236,3.592,3.933,3.933,0,0,0,3.111,1.436,4.569,4.569,0,0,0,1.986-.41,4.405,4.405,0,0,0,1.564-1.312l.879.668A5.116,5.116,0,0,1,121.16,143.234Zm-.258-11.953a3.506,3.506,0,0,0-2.666,1.16,5.36,5.36,0,0,0-1.318,3.117h7.605v-.152a4.653,4.653,0,0,0-1.043-2.977A3.232,3.232,0,0,0,120.9,131.281Zm15.34,8.5a2,2,0,0,0-.838-1.676,6.462,6.462,0,0,0-2.525-.99,11.394,11.394,0,0,1-2.619-.82,3.489,3.489,0,0,1-1.383-1.131,2.821,2.821,0,0,1-.451-1.617,3.017,3.017,0,0,1,1.254-2.479,5.065,5.065,0,0,1,3.211-.979,5.213,5.213,0,0,1,3.4,1.049,3.366,3.366,0,0,1,1.283,2.736h-1.406a2.271,2.271,0,0,0-.932-1.852,4.205,4.205,0,0,0-4.57-.123,1.9,1.9,0,0,0-.838,1.6,1.729,1.729,0,0,0,.7,1.471,7.375,7.375,0,0,0,2.543.955,11.952,11.952,0,0,1,2.766.926,3.582,3.582,0,0,1,1.365,1.184,3.255,3.255,0,0,1-.85,4.242,5.532,5.532,0,0,1-3.381.961,5.68,5.68,0,0,1-3.592-1.072A3.3,3.3,0,0,1,128,139.449h1.406a2.439,2.439,0,0,0,1.037,1.916,4.239,4.239,0,0,0,2.525.686,3.985,3.985,0,0,0,2.367-.645A1.934,1.934,0,0,0,136.242,139.777ZM142.371,143h-1.406V130.32h1.406Zm-1.652-16.342a.94.94,0,0,1,.258-.67.92.92,0,0,1,.7-.274.939.939,0,0,1,.709.274.929.929,0,0,1,.264.67.909.909,0,0,1-.264.664.95.95,0,0,1-.709.268.93.93,0,0,1-.7-.268A.92.92,0,0,1,140.719,126.658Zm4.9,9.885a7.643,7.643,0,0,1,1.318-4.705,4.243,4.243,0,0,1,3.58-1.752,4.409,4.409,0,0,1,3.914,2.027V125h1.395v18h-1.312l-.059-1.687a4.529,4.529,0,0,1-3.961,1.922,4.228,4.228,0,0,1-3.533-1.764,7.682,7.682,0,0,1-1.342-4.764Zm1.418.246a6.612,6.612,0,0,0,.973,3.826,3.146,3.146,0,0,0,2.742,1.4,3.774,3.774,0,0,0,3.68-2.285v-5.953a3.746,3.746,0,0,0-3.656-2.473,3.184,3.184,0,0,0-2.754,1.389A7.066,7.066,0,0,0,147.035,136.789ZM167.52,143a6.632,6.632,0,0,1-.27-1.77,4.89,4.89,0,0,1-1.881,1.482,5.76,5.76,0,0,1-2.42.521,4.25,4.25,0,0,1-2.959-1.02,3.321,3.321,0,0,1-1.131-2.578,3.394,3.394,0,0,1,1.541-2.93,7.4,7.4,0,0,1,4.295-1.078h2.543v-1.441a2.778,2.778,0,0,0-.838-2.139,3.463,3.463,0,0,0-2.443-.779,3.824,3.824,0,0,0-2.426.75,2.228,2.228,0,0,0-.961,1.8l-1.406-.012a3.261,3.261,0,0,1,1.406-2.619,5.415,5.415,0,0,1,3.457-1.107,4.939,4.939,0,0,1,3.346,1.061,3.805,3.805,0,0,1,1.26,2.959v6a7.442,7.442,0,0,0,.387,2.754V143Zm-4.406-1.008a4.708,4.708,0,0,0,2.514-.68,4,4,0,0,0,1.611-1.816v-2.789H164.73a6.284,6.284,0,0,0-3.281.768,2.3,2.3,0,0,0-1.184,2.045,2.267,2.267,0,0,0,.791,1.77A2.98,2.98,0,0,0,163.113,141.992Zm8.7-5.449a7.643,7.643,0,0,1,1.318-4.705,4.243,4.243,0,0,1,3.58-1.752,4.409,4.409,0,0,1,3.914,2.027V125h1.395v18H180.7l-.059-1.687a4.529,4.529,0,0,1-3.961,1.922,4.228,4.228,0,0,1-3.533-1.764,7.682,7.682,0,0,1-1.342-4.764Zm1.418.246a6.612,6.612,0,0,0,.973,3.826,3.146,3.146,0,0,0,2.742,1.4,3.774,3.774,0,0,0,3.68-2.285v-5.953a3.746,3.746,0,0,0-3.656-2.473,3.184,3.184,0,0,0-2.754,1.389A7.066,7.066,0,0,0,173.227,136.789Zm23.227,6.445a5.5,5.5,0,0,1-2.924-.8,5.431,5.431,0,0,1-2.033-2.221,6.924,6.924,0,0,1-.727-3.193v-.5a7.461,7.461,0,0,1,.709-3.293,5.641,5.641,0,0,1,1.975-2.3,4.871,4.871,0,0,1,2.742-.838,4.578,4.578,0,0,1,3.662,1.576,6.393,6.393,0,0,1,1.354,4.307v.785h-9.047v.27a5.309,5.309,0,0,0,1.236,3.592,3.933,3.933,0,0,0,3.111,1.436,4.569,4.569,0,0,0,1.986-.41,4.405,4.405,0,0,0,1.564-1.312l.879.668A5.116,5.116,0,0,1,196.453,143.234Zm-.258-11.953a3.506,3.506,0,0,0-2.666,1.16,5.36,5.36,0,0,0-1.318,3.117h7.605v-.152a4.653,4.653,0,0,0-1.043-2.977A3.232,3.232,0,0,0,196.2,131.281Zm9.082-.961.047,2.168a5.035,5.035,0,0,1,1.781-1.787,4.629,4.629,0,0,1,2.355-.615,3.8,3.8,0,0,1,3.035,1.148,5.18,5.18,0,0,1,1.008,3.445V143h-1.395v-8.332a3.874,3.874,0,0,0-.721-2.531,2.823,2.823,0,0,0-2.268-.832,3.547,3.547,0,0,0-2.3.814,4.771,4.771,0,0,0-1.482,2.2V143h-1.395V130.32Zm19.863-3.246v3.246h2.625v1.148h-2.625v8.459a2.648,2.648,0,0,0,.381,1.572,1.476,1.476,0,0,0,1.271.516,8.724,8.724,0,0,0,1.137-.117l.059,1.139a4.584,4.584,0,0,1-1.5.2,2.5,2.5,0,0,1-2.1-.838,3.944,3.944,0,0,1-.656-2.467v-8.461H221.4V130.32h2.332v-3.246Zm4.523,9.4a7.461,7.461,0,0,1,.709-3.293,5.326,5.326,0,0,1,4.939-3.094,5.216,5.216,0,0,1,4.1,1.775,6.841,6.841,0,0,1,1.57,4.705v.293a7.527,7.527,0,0,1-.709,3.311,5.294,5.294,0,0,1-2,2.268,5.479,5.479,0,0,1-2.941.8,5.221,5.221,0,0,1-4.1-1.775,6.825,6.825,0,0,1-1.576-4.705Zm1.406.387a5.753,5.753,0,0,0,1.178,3.732,3.985,3.985,0,0,0,6.164,0,5.943,5.943,0,0,0,1.178-3.85v-.27a6.45,6.45,0,0,0-.539-2.66,4.331,4.331,0,0,0-1.512-1.869,3.863,3.863,0,0,0-2.227-.662,3.747,3.747,0,0,0-3.059,1.471,5.952,5.952,0,0,0-1.184,3.85Zm12.246-.316a7.643,7.643,0,0,1,1.318-4.705,4.243,4.243,0,0,1,3.58-1.752,4.409,4.409,0,0,1,3.914,2.027V125h1.395v18h-1.312l-.059-1.687a4.529,4.529,0,0,1-3.961,1.922,4.228,4.228,0,0,1-3.533-1.764,7.682,7.682,0,0,1-1.342-4.764Zm1.418.246a6.612,6.612,0,0,0,.973,3.826,3.146,3.146,0,0,0,2.742,1.4,3.774,3.774,0,0,0,3.68-2.285v-5.953a3.746,3.746,0,0,0-3.656-2.473,3.184,3.184,0,0,0-2.754,1.389A7.066,7.066,0,0,0,244.734,136.789ZM265.219,143a6.632,6.632,0,0,1-.27-1.77,4.89,4.89,0,0,1-1.881,1.482,5.76,5.76,0,0,1-2.42.521,4.25,4.25,0,0,1-2.959-1.02,3.321,3.321,0,0,1-1.131-2.578,3.394,3.394,0,0,1,1.541-2.93,7.4,7.4,0,0,1,4.295-1.078h2.543v-1.441a2.778,2.778,0,0,0-.838-2.139,3.463,3.463,0,0,0-2.443-.779,3.824,3.824,0,0,0-2.426.75,2.228,2.228,0,0,0-.961,1.8l-1.406-.012a3.261,3.261,0,0,1,1.406-2.619,5.415,5.415,0,0,1,3.457-1.107,4.939,4.939,0,0,1,3.346,1.061,3.805,3.805,0,0,1,1.26,2.959v6a7.442,7.442,0,0,0,.387,2.754V143Zm-4.406-1.008a4.708,4.708,0,0,0,2.514-.68,4,4,0,0,0,1.611-1.816v-2.789H262.43a6.284,6.284,0,0,0-3.281.768,2.3,2.3,0,0,0-1.184,2.045,2.267,2.267,0,0,0,.791,1.77A2.98,2.98,0,0,0,260.813,141.992Zm16.852-2.215a2,2,0,0,0-.838-1.676,6.462,6.462,0,0,0-2.525-.99,11.394,11.394,0,0,1-2.619-.82,3.489,3.489,0,0,1-1.383-1.131,2.821,2.821,0,0,1-.451-1.617,3.017,3.017,0,0,1,1.254-2.479,5.065,5.065,0,0,1,3.211-.979,5.213,5.213,0,0,1,3.4,1.049A3.366,3.366,0,0,1,279,133.871h-1.406a2.271,2.271,0,0,0-.932-1.852,4.205,4.205,0,0,0-4.57-.123,1.9,1.9,0,0,0-.838,1.6,1.729,1.729,0,0,0,.7,1.471,7.375,7.375,0,0,0,2.543.955,11.952,11.952,0,0,1,2.766.926,3.582,3.582,0,0,1,1.365,1.184,3.255,3.255,0,0,1-.85,4.242,5.532,5.532,0,0,1-3.381.961,5.68,5.68,0,0,1-3.592-1.072,3.3,3.3,0,0,1-1.377-2.713h1.406a2.439,2.439,0,0,0,1.037,1.916,4.239,4.239,0,0,0,2.525.686,3.985,3.985,0,0,0,2.367-.645A1.934,1.934,0,0,0,277.664,139.777ZM3.4,173H1.992V155H3.4Zm11.813,0a6.632,6.632,0,0,1-.27-1.77,4.89,4.89,0,0,1-1.881,1.482,5.76,5.76,0,0,1-2.42.521,4.25,4.25,0,0,1-2.959-1.02,3.321,3.321,0,0,1-1.131-2.578,3.394,3.394,0,0,1,1.541-2.93,7.4,7.4,0,0,1,4.295-1.078H14.93v-1.441a2.778,2.778,0,0,0-.838-2.139,3.463,3.463,0,0,0-2.443-.779,3.824,3.824,0,0,0-2.426.75,2.228,2.228,0,0,0-.961,1.8l-1.406-.012a3.261,3.261,0,0,1,1.406-2.619,5.415,5.415,0,0,1,3.457-1.107,4.939,4.939,0,0,1,3.346,1.061,3.805,3.805,0,0,1,1.26,2.959v6a7.442,7.442,0,0,0,.387,2.754V173ZM10.8,171.992a4.708,4.708,0,0,0,2.514-.68A4,4,0,0,0,14.93,169.5v-2.789H12.422a6.284,6.284,0,0,0-3.281.768,2.3,2.3,0,0,0-1.184,2.045,2.267,2.267,0,0,0,.791,1.77A2.98,2.98,0,0,0,10.8,171.992Zm16.852-2.215a2,2,0,0,0-.838-1.676,6.462,6.462,0,0,0-2.525-.99,11.394,11.394,0,0,1-2.619-.82,3.489,3.489,0,0,1-1.383-1.131,2.821,2.821,0,0,1-.451-1.617,3.017,3.017,0,0,1,1.254-2.479,5.065,5.065,0,0,1,3.211-.979,5.213,5.213,0,0,1,3.4,1.049,3.366,3.366,0,0,1,1.283,2.736H27.586a2.271,2.271,0,0,0-.932-1.852,3.666,3.666,0,0,0-2.35-.738,3.667,3.667,0,0,0-2.221.615,1.9,1.9,0,0,0-.838,1.6,1.729,1.729,0,0,0,.7,1.471,7.375,7.375,0,0,0,2.543.955,11.952,11.952,0,0,1,2.766.926,3.582,3.582,0,0,1,1.365,1.184,3.255,3.255,0,0,1-.85,4.242,5.532,5.532,0,0,1-3.381.961,5.68,5.68,0,0,1-3.592-1.072,3.3,3.3,0,0,1-1.377-2.713h1.406a2.439,2.439,0,0,0,1.037,1.916,4.239,4.239,0,0,0,2.525.686,3.985,3.985,0,0,0,2.367-.645A1.934,1.934,0,0,0,27.656,169.777Zm9.621-3.3a7.461,7.461,0,0,1,.709-3.293,5.326,5.326,0,0,1,4.939-3.094,5.216,5.216,0,0,1,4.1,1.775,6.841,6.841,0,0,1,1.57,4.705v.293a7.527,7.527,0,0,1-.709,3.311,5.294,5.294,0,0,1-2,2.268,5.479,5.479,0,0,1-2.941.8,5.221,5.221,0,0,1-4.1-1.775,6.825,6.825,0,0,1-1.576-4.705Zm1.406.387a5.753,5.753,0,0,0,1.178,3.732,3.985,3.985,0,0,0,6.164,0,5.943,5.943,0,0,0,1.178-3.85v-.27a6.45,6.45,0,0,0-.539-2.66,4.331,4.331,0,0,0-1.512-1.869,3.863,3.863,0,0,0-2.227-.662,3.747,3.747,0,0,0-3.059,1.471,5.952,5.952,0,0,0-1.184,3.85Zm18.668-5.344a5.238,5.238,0,0,0-.949-.082,3.425,3.425,0,0,0-2.221.732,4.012,4.012,0,0,0-1.295,2.127V173H51.492V160.32h1.371l.023,2.016a3.729,3.729,0,0,1,3.574-2.25,2.306,2.306,0,0,1,.926.152Zm1.43,5.027a7.633,7.633,0,0,1,1.318-4.717,4.253,4.253,0,0,1,3.58-1.74,4.41,4.41,0,0,1,3.938,2.063l.07-1.828H69v12.422a5.37,5.37,0,0,1-1.371,3.879,4.905,4.905,0,0,1-3.715,1.43,5.642,5.642,0,0,1-2.525-.592,4.905,4.905,0,0,1-1.893-1.576l.785-.844a4.443,4.443,0,0,0,3.539,1.828,3.6,3.6,0,0,0,2.742-1.037,4.132,4.132,0,0,0,1.02-2.877v-1.594a4.532,4.532,0,0,1-3.926,1.875,4.228,4.228,0,0,1-3.539-1.758,7.659,7.659,0,0,1-1.336-4.746Zm1.418.246a6.612,6.612,0,0,0,.973,3.826,3.146,3.146,0,0,0,2.742,1.4,3.748,3.748,0,0,0,3.668-2.32V163.8a4,4,0,0,0-1.418-1.857,3.824,3.824,0,0,0-2.227-.639,3.184,3.184,0,0,0-2.754,1.389A7.066,7.066,0,0,0,60.2,166.789ZM80.66,173a6.632,6.632,0,0,1-.27-1.77,4.89,4.89,0,0,1-1.881,1.482,5.76,5.76,0,0,1-2.42.521,4.25,4.25,0,0,1-2.959-1.02A3.321,3.321,0,0,1,72,169.637a3.394,3.394,0,0,1,1.541-2.93,7.4,7.4,0,0,1,4.295-1.078h2.543v-1.441a2.778,2.778,0,0,0-.838-2.139,3.463,3.463,0,0,0-2.443-.779,3.824,3.824,0,0,0-2.426.75,2.228,2.228,0,0,0-.961,1.8l-1.406-.012a3.261,3.261,0,0,1,1.406-2.619,5.415,5.415,0,0,1,3.457-1.107,4.939,4.939,0,0,1,3.346,1.061,3.805,3.805,0,0,1,1.26,2.959v6a7.442,7.442,0,0,0,.387,2.754V173Zm-4.406-1.008a4.708,4.708,0,0,0,2.514-.68,4,4,0,0,0,1.611-1.816v-2.789H77.871a6.284,6.284,0,0,0-3.281.768,2.3,2.3,0,0,0-1.184,2.045,2.267,2.267,0,0,0,.791,1.77A2.98,2.98,0,0,0,76.254,171.992ZM86.848,160.32l.047,2.168a5.035,5.035,0,0,1,1.781-1.787,4.629,4.629,0,0,1,2.355-.615,3.8,3.8,0,0,1,3.035,1.148,5.18,5.18,0,0,1,1.008,3.445V173H93.68v-8.332a3.874,3.874,0,0,0-.721-2.531,2.823,2.823,0,0,0-2.268-.832,3.547,3.547,0,0,0-2.3.814,4.771,4.771,0,0,0-1.482,2.2V173H85.512V160.32ZM100.266,173H98.859V160.32h1.406Zm-1.652-16.342a.94.94,0,0,1,.258-.67.92.92,0,0,1,.7-.274.939.939,0,0,1,.709.274.929.929,0,0,1,.264.67.909.909,0,0,1-.264.664.95.95,0,0,1-.709.268.93.93,0,0,1-.7-.268A.92.92,0,0,1,98.613,156.658ZM105,171.816h8.238V173h-9.973v-1.031l7.688-10.43H103.5V160.32h9.223v1.053ZM123.75,173a6.632,6.632,0,0,1-.27-1.77,4.89,4.89,0,0,1-1.881,1.482,5.76,5.76,0,0,1-2.42.521,4.25,4.25,0,0,1-2.959-1.02,3.321,3.321,0,0,1-1.131-2.578,3.394,3.394,0,0,1,1.541-2.93,7.4,7.4,0,0,1,4.295-1.078h2.543v-1.441a2.778,2.778,0,0,0-.838-2.139,3.463,3.463,0,0,0-2.443-.779,3.824,3.824,0,0,0-2.426.75,2.228,2.228,0,0,0-.961,1.8l-1.406-.012a3.261,3.261,0,0,1,1.406-2.619,5.415,5.415,0,0,1,3.457-1.107,4.939,4.939,0,0,1,3.346,1.061,3.805,3.805,0,0,1,1.26,2.959v6a7.442,7.442,0,0,0,.387,2.754V173Zm-4.406-1.008a4.708,4.708,0,0,0,2.514-.68,4,4,0,0,0,1.611-1.816v-2.789h-2.508a6.284,6.284,0,0,0-3.281.768,2.3,2.3,0,0,0-1.184,2.045,2.267,2.267,0,0,0,.791,1.77A2.98,2.98,0,0,0,119.344,171.992Zm13.945.059a3.7,3.7,0,0,0,2.455-.826,2.908,2.908,0,0,0,1.072-2.139h1.348a3.97,3.97,0,0,1-.727,2.115,4.552,4.552,0,0,1-1.775,1.494,5.351,5.351,0,0,1-2.373.539,4.9,4.9,0,0,1-3.955-1.734,7.012,7.012,0,0,1-1.459-4.664v-.422a7.927,7.927,0,0,1,.656-3.316,5.057,5.057,0,0,1,1.881-2.227,5.192,5.192,0,0,1,2.865-.785,4.89,4.89,0,0,1,3.439,1.242,4.529,4.529,0,0,1,1.447,3.27h-1.348a3.393,3.393,0,0,0-3.539-3.316,3.5,3.5,0,0,0-2.947,1.371,6.2,6.2,0,0,0-1.049,3.844v.41a6.065,6.065,0,0,0,1.049,3.785A3.52,3.52,0,0,0,133.289,172.051Zm9.246.949h-1.406V160.32h1.406Zm-1.652-16.342a.94.94,0,0,1,.258-.67.92.92,0,0,1,.7-.274.939.939,0,0,1,.709.274.929.929,0,0,1,.264.67.909.909,0,0,1-.264.664.95.95,0,0,1-.709.268.93.93,0,0,1-.7-.268A.92.92,0,0,1,140.883,156.658Zm4.688,9.814a7.461,7.461,0,0,1,.709-3.293,5.326,5.326,0,0,1,4.939-3.094,5.216,5.216,0,0,1,4.1,1.775,6.841,6.841,0,0,1,1.57,4.705v.293a7.527,7.527,0,0,1-.709,3.311,5.294,5.294,0,0,1-2,2.268,5.479,5.479,0,0,1-2.941.8,5.221,5.221,0,0,1-4.1-1.775,6.825,6.825,0,0,1-1.576-4.705Zm1.406.387a5.753,5.753,0,0,0,1.178,3.732,3.985,3.985,0,0,0,6.164,0,5.943,5.943,0,0,0,1.178-3.85v-.27a6.45,6.45,0,0,0-.539-2.66,4.331,4.331,0,0,0-1.512-1.869,3.863,3.863,0,0,0-2.227-.662,3.747,3.747,0,0,0-3.059,1.471,5.952,5.952,0,0,0-1.184,3.85Zm14.145-6.539.047,2.168a5.035,5.035,0,0,1,1.781-1.787,4.629,4.629,0,0,1,2.355-.615,3.8,3.8,0,0,1,3.035,1.148,5.18,5.18,0,0,1,1.008,3.445V173h-1.395v-8.332a3.874,3.874,0,0,0-.721-2.531,2.823,2.823,0,0,0-2.268-.832,3.547,3.547,0,0,0-2.3.814,4.771,4.771,0,0,0-1.482,2.2V173h-1.395V160.32Zm16.758,12.914a5.5,5.5,0,0,1-2.924-.8,5.431,5.431,0,0,1-2.033-2.221,6.924,6.924,0,0,1-.727-3.193v-.5a7.461,7.461,0,0,1,.709-3.293,5.641,5.641,0,0,1,1.975-2.3,4.871,4.871,0,0,1,2.742-.838,4.578,4.578,0,0,1,3.662,1.576,6.393,6.393,0,0,1,1.354,4.307v.785H173.59v.27a5.309,5.309,0,0,0,1.236,3.592,3.933,3.933,0,0,0,3.111,1.436,4.569,4.569,0,0,0,1.986-.41,4.405,4.405,0,0,0,1.564-1.312l.879.668A5.116,5.116,0,0,1,177.879,173.234Zm-.258-11.953a3.506,3.506,0,0,0-2.666,1.16,5.36,5.36,0,0,0-1.318,3.117h7.605v-.152a4.653,4.653,0,0,0-1.043-2.977A3.232,3.232,0,0,0,177.621,161.281Zm15.34,8.5a2,2,0,0,0-.838-1.676,6.462,6.462,0,0,0-2.525-.99,11.394,11.394,0,0,1-2.619-.82,3.489,3.489,0,0,1-1.383-1.131,2.821,2.821,0,0,1-.451-1.617,3.017,3.017,0,0,1,1.254-2.479,5.065,5.065,0,0,1,3.211-.979,5.213,5.213,0,0,1,3.4,1.049,3.366,3.366,0,0,1,1.283,2.736h-1.406a2.271,2.271,0,0,0-.932-1.852,4.205,4.205,0,0,0-4.57-.123,1.9,1.9,0,0,0-.838,1.6,1.729,1.729,0,0,0,.7,1.471,7.375,7.375,0,0,0,2.543.955,11.952,11.952,0,0,1,2.766.926,3.582,3.582,0,0,1,1.365,1.184,3.255,3.255,0,0,1-.85,4.242,5.532,5.532,0,0,1-3.381.961,5.68,5.68,0,0,1-3.592-1.072,3.3,3.3,0,0,1-1.377-2.713h1.406a2.439,2.439,0,0,0,1.037,1.916,4.239,4.239,0,0,0,2.525.686,3.985,3.985,0,0,0,2.367-.645A1.934,1.934,0,0,0,192.961,169.777Zm7.137-1.523a6.143,6.143,0,0,1,.375-2.224,6.647,6.647,0,0,1,1.512-1.984,14.9,14.9,0,0,0,1.494-1.615,3.815,3.815,0,0,0,.516-1.042,4.242,4.242,0,0,0,.182-1.294,3.244,3.244,0,0,0-.779-2.3,2.824,2.824,0,0,0-2.174-.837,3.192,3.192,0,0,0-2.268.8,2.9,2.9,0,0,0-.885,2.174h-1.395a4.014,4.014,0,0,1,1.3-3.076,4.657,4.657,0,0,1,3.246-1.154,4.277,4.277,0,0,1,3.182,1.177,4.333,4.333,0,0,1,1.166,3.19,5.072,5.072,0,0,1-.574,2.371,10.243,10.243,0,0,1-2.18,2.582,3.982,3.982,0,0,0-1.324,3.231Zm-.187,3.92a.971.971,0,0,1,.252-.678.909.909,0,0,1,.709-.277.932.932,0,0,1,.709.277.947.947,0,0,1,.264.678.892.892,0,0,1-.264.654.955.955,0,0,1-.709.265.931.931,0,0,1-.709-.265A.914.914,0,0,1,199.91,172.174Z" transform="translate(557 1002.09)" fill="#12263f"/>
    </g>
  </g>
</svg>
