<svg xmlns="http://www.w3.org/2000/svg" xmlns:xlink="http://www.w3.org/1999/xlink" width="610" height="339" viewBox="0 0 610 339">
  <defs>
    <radialGradient id="radial-gradient" cx="0.477" cy="1.035" r="0.999" gradientTransform="translate(0.255 0) scale(0.466 1)" gradientUnits="objectBoundingBox">
      <stop offset="0.264" stop-color="#defbff"/>
      <stop offset="1" stop-color="#defbff" stop-opacity="0"/>
    </radialGradient>
    <clipPath id="clip-path">
      <path id="Trazado_102562" data-name="Trazado 102562" d="M168.727,302.708c1.253,4.356.883,10.715-3.192,13.679-2.053,1.311-5.12.382-5.073-2.223.051-2.817.578-5.359.143-8.065l-31.224,16.674,17.875,35.044L194.884,333l-18.228-34.222Z" transform="translate(-129.381 -298.782)" fill="none"/>
    </clipPath>
    <radialGradient id="radial-gradient-2" cx="0.505" cy="1.101" r="0.968" gradientTransform="translate(0.262 -0.258) scale(0.481 1.164)" gradientUnits="objectBoundingBox">
      <stop offset="0.264" stop-color="#60e5ff"/>
      <stop offset="1" stop-color="#60e5ff" stop-opacity="0"/>
    </radialGradient>
  </defs>
  <g id="Grupo_57831" data-name="Grupo 57831" transform="translate(-810 -9438)">
    <rect id="Rectángulo_5278" data-name="Rectángulo 5278" width="610" height="273" transform="translate(810 9438)" fill="#004080" opacity="0.15"/>
    <g id="Grupo_54518" data-name="Grupo 54518" transform="translate(803.052 9369.329)">
      <ellipse id="Elipse_4214" data-name="Elipse 4214" cx="89.964" cy="15.5" rx="89.964" ry="15.5" transform="translate(375.534 376.67)" fill="#2a3652" opacity="0.15"/>
      <g id="Grupo_54441" data-name="Grupo 54441" transform="translate(151.719 222.362)">
        <ellipse id="Elipse_4215" data-name="Elipse 4215" cx="89.964" cy="15.5" rx="89.964" ry="15.5" transform="translate(17.375 154.309)" fill="#004080" opacity="0.14"/>
        <g id="Grupo_54429" data-name="Grupo 54429" transform="translate(8.845 105.527)">
          <g id="Grupo_54422" data-name="Grupo 54422" transform="translate(3.078)">
            <path id="Trazado_102433" data-name="Trazado 102433" d="M243.25,377.945c1.81.952,15.379,10.843,35.581,10.843s37.331-10.678,39.361-11.1a52.844,52.844,0,0,1,3.66,7.448.5.5,0,0,1-.059.479l-32.584,40.67c-7.357,1.628-16.767.263-16.767.263l-32.68-41.376a.494.494,0,0,1-.048-.531S243.037,377.832,243.25,377.945Z" transform="translate(-184.134 -358)" fill="#05052d"/>
            <path id="Trazado_102434" data-name="Trazado 102434" d="M330.417,420.831c12.585-6.41,40.117-23.677,51.714-49.524,1.613-3.6-2.421-18.782-15.634-13.874-8.174,3.037-50.65,18.181-57.517,27.788-11.093,15.52-11.607,29.655-13.894,38.816C301.324,426.878,324.123,424.036,330.417,420.831Z" transform="translate(-190.01 -355.75)" fill="#293eff"/>
            <path id="Trazado_102435" data-name="Trazado 102435" d="M228.963,420.848c-12.586-6.41-49.046-34.13-50.742-49.626-.433-3.951-4.087-16.064,11.589-15.541,8.174,3.037,53.857,20.583,61.561,29.455,9.654,11.117,12.821,30.361,13.9,38.816C259.028,426.793,235.257,424.053,228.963,420.848Z" transform="translate(-177.549 -355.665)" fill="#293eff"/>
          </g>
          <g id="Grupo_54425" data-name="Grupo 54425" transform="translate(0 0.193)">
            <g id="Grupo_54423" data-name="Grupo 54423" transform="translate(96.458 53.237)">
              <path id="Trazado_102436" data-name="Trazado 102436" d="M290.018,415.431a16.721,16.721,0,0,0,1.73.561c5.207,1.235,19.356,3.031,29.536,3.162,9.92.129,11.169,5.07,11.111,7.855s-5.542,9.029-9.623,9.579c-12.593,1.7-27.748-4.367-30.768-4.684-6.291-.662-9.627-5.438-10-8.11,0,0,5.981,1.742,4.708-1.377a5.1,5.1,0,0,1,3.231-6.806C290.138,415.556,290.186,415.5,290.018,415.431Z" transform="translate(-282.003 -415.431)" fill="#05052d"/>
              <path id="Trazado_102437" data-name="Trazado 102437" d="M319.1,434.129c-1.981-6.139.1-11.776,1.5-14.559.348.008.7.019,1.041.023,9.92.129,11.169,5.07,11.111,7.855s-5.542,9.029-9.623,9.579c-12.593,1.7-27.748-4.367-30.768-4.684a12.077,12.077,0,0,1-7.02-3.122C293.807,431.581,319.245,438.324,319.1,434.129Z" transform="translate(-282.357 -415.87)" fill="#b8b8b8"/>
              <path id="Trazado_102438" data-name="Trazado 102438" d="M299.868,416.756h0a17.608,17.608,0,0,0-2.4,9l0,.68" transform="translate(-283.643 -415.571)" fill="none" stroke="#b8b8b8" stroke-linecap="round" stroke-miterlimit="10" stroke-width="1.609"/>
              <path id="Trazado_102439" data-name="Trazado 102439" d="M304.417,417.523h0a17.614,17.614,0,0,0-2.4,9l0,.68" transform="translate(-284.125 -415.653)" fill="none" stroke="#b8b8b8" stroke-linecap="round" stroke-miterlimit="10" stroke-width="1.609"/>
              <path id="Trazado_102440" data-name="Trazado 102440" d="M309.02,418.141h0a17.626,17.626,0,0,0-2.4,9l0,.68" transform="translate(-284.613 -415.718)" fill="none" stroke="#b8b8b8" stroke-linecap="round" stroke-miterlimit="10" stroke-width="1.609"/>
              <path id="Trazado_102441" data-name="Trazado 102441" d="M312.928,418.611h0a17.617,17.617,0,0,0-2.4,9l0,.68" transform="translate(-285.027 -415.768)" fill="none" stroke="#b8b8b8" stroke-linecap="round" stroke-miterlimit="10" stroke-width="1.609"/>
            </g>
            <g id="Grupo_54424" data-name="Grupo 54424">
              <path id="Trazado_102442" data-name="Trazado 102442" d="M190.708,356.4s65.931,37.289,93.112,52.4c0,5.477-.074,8.783-.42,10.073-.935,2.268-4.675,7.44-4.675,7.44S185.18,393.9,175.187,375.349C171.347,368.222,178.024,352.861,190.708,356.4Z" transform="translate(-174.106 -355.881)" fill="#7186ff"/>
              <path id="Trazado_102443" data-name="Trazado 102443" d="M174.759,375.015c-.063-.169-.128-.337-.182-.511-.031-.1-.055-.2-.082-.308-.045-.163-.09-.325-.127-.493-.025-.112-.042-.226-.063-.339-.03-.164-.062-.329-.085-.5-.016-.117-.026-.237-.038-.355-.018-.17-.036-.34-.046-.512-.008-.12-.01-.241-.014-.363-.005-.175-.011-.351-.01-.529,0-.121.006-.243.01-.366.006-.181.014-.364.028-.547.008-.12.02-.24.031-.361q.028-.283.065-.568c.016-.117.034-.234.053-.351.031-.2.065-.392.1-.588.022-.113.046-.224.07-.336q.067-.306.147-.609c.028-.106.055-.212.085-.317q.09-.315.191-.628c.031-.1.063-.2.1-.294.075-.217.156-.433.24-.647.034-.089.067-.177.1-.265.093-.224.191-.447.293-.669.035-.076.069-.153.1-.228.113-.235.232-.466.356-.7.032-.06.063-.122.1-.181.139-.25.285-.5.437-.739.022-.037.044-.074.067-.11q.266-.418.556-.819h0c.264.478.528.972.8,1.5,11.447,22.7,93.467,52.142,105.361,56.208l0,.009c-.942,2.274-4.672,7.433-4.672,7.433s-93.546-32.418-103.538-50.966a7.784,7.784,0,0,1-.337-.713C174.816,375.182,174.79,375.1,174.759,375.015Z" transform="translate(-174.107 -356.508)" fill="#5e6eff"/>
            </g>
          </g>
          <g id="Grupo_54428" data-name="Grupo 54428" transform="translate(51.801 0.193)">
            <g id="Grupo_54426" data-name="Grupo 54426" transform="translate(0 53.063)">
              <path id="Trazado_102444" data-name="Trazado 102444" d="M275.115,415.237a17.039,17.039,0,0,1-1.758.57c-5.291,1.254-19.669,3.08-30.014,3.214-10.08.13-11.349,5.151-11.291,7.982s5.631,9.175,9.778,9.734c12.8,1.724,28.2-4.438,31.266-4.76,6.392-.671,9.783-5.526,10.163-8.241,0,0-6.078,1.77-4.784-1.4a5.185,5.185,0,0,0-3.284-6.917C274.992,415.365,274.944,415.311,275.115,415.237Z" transform="translate(-232.05 -415.237)" fill="#05052d"/>
              <path id="Trazado_102445" data-name="Trazado 102445" d="M245.922,434.238c2.012-6.238-.105-11.965-1.522-14.795-.353.008-.713.019-1.058.024-10.08.13-11.349,5.151-11.291,7.982s5.631,9.175,9.778,9.734c12.8,1.724,28.2-4.438,31.266-4.76a12.263,12.263,0,0,0,7.132-3.172C271.623,431.648,245.774,438.5,245.922,434.238Z" transform="translate(-232.05 -415.683)" fill="#b8b8b8"/>
              <path id="Trazado_102446" data-name="Trazado 102446" d="M270.889,416.584h0a17.89,17.89,0,0,1,2.435,9.143l0,.692" transform="translate(-236.168 -415.38)" fill="none" stroke="#b8b8b8" stroke-linecap="round" stroke-miterlimit="10" stroke-width="1.635"/>
              <path id="Trazado_102447" data-name="Trazado 102447" d="M266.267,417.363h0a17.9,17.9,0,0,1,2.434,9.143l0,.691" transform="translate(-235.678 -415.462)" fill="none" stroke="#b8b8b8" stroke-linecap="round" stroke-miterlimit="10" stroke-width="1.635"/>
              <path id="Trazado_102448" data-name="Trazado 102448" d="M261.589,417.991h0a17.9,17.9,0,0,1,2.434,9.143l0,.692" transform="translate(-235.182 -415.529)" fill="none" stroke="#b8b8b8" stroke-linecap="round" stroke-miterlimit="10" stroke-width="1.635"/>
              <path id="Trazado_102449" data-name="Trazado 102449" d="M257.618,418.468h0a17.893,17.893,0,0,1,2.435,9.144l0,.691" transform="translate(-234.761 -415.579)" fill="none" stroke="#b8b8b8" stroke-linecap="round" stroke-miterlimit="10" stroke-width="1.635"/>
            </g>
            <g id="Grupo_54427" data-name="Grupo 54427" transform="translate(37.952)">
              <path id="Trazado_102450" data-name="Trazado 102450" d="M367.616,356.4s-65.931,37.289-93.113,52.4c0,5.477.075,8.783.421,10.073.935,2.268,4.675,7.44,4.675,7.44s93.545-32.418,103.538-50.966C386.977,368.222,380.3,352.861,367.616,356.4Z" transform="translate(-274.503 -355.881)" fill="#7186ff"/>
              <path id="Trazado_102451" data-name="Trazado 102451" d="M383.614,375.015c.064-.169.129-.337.183-.511.03-.1.055-.2.082-.308.045-.163.09-.325.127-.493.024-.112.042-.226.063-.339.03-.164.062-.329.084-.5.016-.117.026-.237.039-.355.018-.17.035-.34.047-.512.007-.12.01-.241.013-.363.006-.175.012-.351.01-.529,0-.121-.005-.243-.01-.366-.005-.181-.013-.364-.027-.547-.009-.12-.021-.24-.032-.361q-.027-.283-.065-.568c-.015-.117-.033-.234-.052-.351-.031-.2-.066-.392-.1-.588-.022-.113-.046-.224-.071-.336q-.067-.306-.147-.609c-.027-.106-.055-.212-.085-.317-.059-.21-.123-.419-.19-.628-.032-.1-.063-.2-.1-.294-.074-.217-.155-.433-.239-.647-.035-.089-.068-.177-.1-.265-.092-.224-.191-.447-.293-.669-.035-.076-.068-.153-.1-.228-.112-.235-.232-.466-.355-.7-.032-.06-.063-.122-.1-.181-.139-.25-.285-.5-.437-.739-.023-.037-.044-.074-.067-.11q-.266-.418-.557-.819h0c-.264.478-.528.972-.795,1.5-11.447,22.7-93.467,52.142-105.361,56.208l0,.009c.941,2.274,4.672,7.433,4.672,7.433s93.545-32.418,103.538-50.966a7.792,7.792,0,0,0,.337-.713C383.557,375.182,383.583,375.1,383.614,375.015Z" transform="translate(-274.553 -356.508)" fill="#5e6eff"/>
            </g>
          </g>
        </g>
        <path id="Trazado_102452" data-name="Trazado 102452" d="M244.81,263.706a10.252,10.252,0,0,0-3.127,8.93l1.755,44.419,0-.015c1.854-6.149,3.932-12.227,5.793-18.373,1.836-6.061,3.731-12.5,3.621-18.89-.091-5.214-1.369-10.283-2.728-15.306A12.154,12.154,0,0,0,244.81,263.706Z" transform="translate(-172.414 -240.384)" fill="#cae3ff"/>
        <g id="Grupo_54436" data-name="Grupo 54436" transform="translate(36.314 10.357)">
          <path id="Trazado_102453" data-name="Trazado 102453" d="M316.445,362.912l3.622-91.791a10.247,10.247,0,0,0-5.991-10.835,219.727,219.727,0,0,1-20.789-11.078H268.436l-20.752,11.055a10.257,10.257,0,0,0-6,10.84l3.627,91.808Z" transform="translate(-208.728 -249.208)" fill="#fff"/>
          <path id="Trazado_102454" data-name="Trazado 102454" d="M324.928,263.706a10.252,10.252,0,0,1,3.127,8.93L326.3,317.056l0-.015c-1.854-6.149-3.932-12.227-5.794-18.373-1.836-6.061-3.731-12.5-3.62-18.89.091-5.214,1.369-10.283,2.728-15.306A12.154,12.154,0,0,1,324.928,263.706Z" transform="translate(-216.711 -250.741)" fill="#cae3ff"/>
          <g id="Grupo_54432" data-name="Grupo 54432" transform="translate(86.016 11.031)">
            <path id="Trazado_102455" data-name="Trazado 102455" d="M322.526,358.756c3.4-2.165,18.684-26.3,18.684-26.3l-16.533-35.678L342.1,281.72s18.45,49.789,19.3,55.446c1.016,6.746-21.971,23.354-32.013,32.189C329.385,369.354,322.41,358.831,322.526,358.756Z" transform="translate(-303.326 -263.686)" fill="#ffb999"/>
            <path id="Trazado_102456" data-name="Trazado 102456" d="M346.675,314.033a19.608,19.608,0,0,0,5.62-5.007c-4.923-13.762-9.942-27.306-9.942-27.306l-17.42,15.062,9.744,21.027A28.265,28.265,0,0,0,346.675,314.033Z" transform="translate(-303.581 -263.686)" fill="#ff8663"/>
            <g id="Grupo_54430" data-name="Grupo 54430" transform="translate(0 95.07)">
              <path id="Trazado_102457" data-name="Trazado 102457" d="M325.266,382.215a33.172,33.172,0,0,0-1.1,10.121" transform="translate(-303.497 -369.41)" fill="none" stroke="#ffb999" stroke-miterlimit="10" stroke-width="0.893"/>
              <path id="Trazado_102458" data-name="Trazado 102458" d="M315.79,374.4a25.206,25.206,0,0,1-9.393,2.067" transform="translate(-301.616 -368.582)" fill="none" stroke="#ff8663" stroke-miterlimit="10" stroke-width="0.893"/>
              <path id="Trazado_102459" data-name="Trazado 102459" d="M321.664,367.892l-6.565,3.842a1.38,1.38,0,0,0-.337,2.14l10.7,11.565,3.065-6.95Z" transform="translate(-302.464 -367.892)" fill="#ffb999"/>
              <path id="Trazado_102460" data-name="Trazado 102460" d="M321.324,380.265a36.4,36.4,0,0,0-4.907,16.039" transform="translate(-302.678 -369.204)" fill="none" stroke="#ffb999" stroke-miterlimit="10" stroke-width="0.893"/>
              <path id="Trazado_102461" data-name="Trazado 102461" d="M317.536,376.918a44.4,44.4,0,0,0-9.429,19.126" transform="translate(-301.797 -368.849)" fill="none" stroke="#ffb999" stroke-miterlimit="10" stroke-width="0.893"/>
              <path id="Trazado_102462" data-name="Trazado 102462" d="M314.771,374.615a54.751,54.751,0,0,0-13.722,11.891" transform="translate(-301.049 -368.605)" fill="none" stroke="#ffb999" stroke-miterlimit="10" stroke-width="0.893"/>
            </g>
            <g id="Grupo_54431" data-name="Grupo 54431" transform="translate(12.997)">
              <path id="Trazado_102463" data-name="Trazado 102463" d="M329.548,312.233c5.629-.386,12.445-2.551,16.613-5.793,2.3-1.789,4.686-5.112,5.109-7.273-5.224-10.987-12.119-26.117-13.525-27.476-2.627-2.536-13.474-9.805-16.179-10.123-4.178-.49-5.435,7.4-5.8,10.217-.682,5.239.687,10.442,2.93,15.152C322.685,295.326,326.225,303.373,329.548,312.233Z" transform="translate(-315.587 -261.548)" fill="#fff"/>
            </g>
          </g>
          <g id="Grupo_54435" data-name="Grupo 54435" transform="translate(0 11.031)">
            <path id="Trazado_102464" data-name="Trazado 102464" d="M243.737,358.756c-3.4-2.165-18.684-26.3-18.684-26.3l16.533-35.678-17.42-15.062s-18.45,49.789-19.3,55.446c-1.016,6.746,21.971,23.354,32.013,32.189C236.878,369.354,243.854,358.831,243.737,358.756Z" transform="translate(-204.833 -263.686)" fill="#ffb999"/>
            <path id="Trazado_102465" data-name="Trazado 102465" d="M220.958,314.033a19.6,19.6,0,0,1-5.62-5.007c4.923-13.762,9.942-27.306,9.942-27.306l17.42,15.062-9.744,21.027A28.257,28.257,0,0,1,220.958,314.033Z" transform="translate(-205.946 -263.686)" fill="#ff8663"/>
            <g id="Grupo_54433" data-name="Grupo 54433" transform="translate(32.045 95.07)">
              <path id="Trazado_102466" data-name="Trazado 102466" d="M245.477,382.215a33.172,33.172,0,0,1,1.1,10.121" transform="translate(-241.187 -369.41)" fill="none" stroke="#ffb999" stroke-miterlimit="10" stroke-width="0.893"/>
              <path id="Trazado_102467" data-name="Trazado 102467" d="M253.973,374.4a25.206,25.206,0,0,0,9.393,2.067" transform="translate(-242.087 -368.582)" fill="none" stroke="#ff8663" stroke-miterlimit="10" stroke-width="0.893"/>
              <path id="Trazado_102468" data-name="Trazado 102468" d="M247.538,367.892l6.565,3.842a1.38,1.38,0,0,1,.337,2.14l-10.7,11.565-3.065-6.95Z" transform="translate(-240.678 -367.892)" fill="#ffb999"/>
              <path id="Trazado_102469" data-name="Trazado 102469" d="M248.971,380.265a36.4,36.4,0,0,1,4.907,16.039" transform="translate(-241.557 -369.204)" fill="none" stroke="#ffb999" stroke-miterlimit="10" stroke-width="0.893"/>
              <path id="Trazado_102470" data-name="Trazado 102470" d="M252.223,376.918a44.385,44.385,0,0,1,9.429,19.126" transform="translate(-241.902 -368.849)" fill="none" stroke="#ffb999" stroke-miterlimit="10" stroke-width="0.893"/>
              <path id="Trazado_102471" data-name="Trazado 102471" d="M254.479,374.615A54.753,54.753,0,0,1,268.2,386.506" transform="translate(-242.141 -368.605)" fill="none" stroke="#ffb999" stroke-miterlimit="10" stroke-width="0.893"/>
            </g>
            <g id="Grupo_54434" data-name="Grupo 54434" transform="translate(9.425)">
              <path id="Trazado_102472" data-name="Trazado 102472" d="M237.1,312.233c-5.629-.386-12.445-2.551-16.613-5.793-2.3-1.789-4.686-5.112-5.109-7.273,5.224-10.987,12.119-26.117,13.526-27.476,2.627-2.536,13.473-9.805,16.178-10.123,4.178-.49,5.435,7.4,5.8,10.217.682,5.239-.687,10.442-2.93,15.152C243.96,295.326,240.42,303.373,237.1,312.233Z" transform="translate(-215.375 -261.548)" fill="#fff"/>
            </g>
          </g>
        </g>
        <g id="Grupo_54439" data-name="Grupo 54439" transform="translate(0 0)">
          <path id="Trazado_102473" data-name="Trazado 102473" d="M383.205,237.623H164.212l53.971,102.119H322.392Z" transform="translate(-164.212 -237.623)" fill="url(#radial-gradient)"/>
          <g id="Grupo_54438" data-name="Grupo 54438" transform="translate(52.124 92.39)">
            <g id="Grupo_54437" data-name="Grupo 54437">
              <path id="Trazado_102474" data-name="Trazado 102474" d="M227.924,410.069c-.02.127-.06.247-.072.375a6.081,6.081,0,0,0,6.056,6.627h85.063a6.08,6.08,0,0,0,6.055-6.627c-.012-.128-.051-.248-.071-.375Z" transform="translate(-223.081 -348.295)" fill="#8c8c8c"/>
              <path id="Trazado_102475" data-name="Trazado 102475" d="M318.157,406.7H233.6a6.48,6.48,0,0,1-6.306-5.844l-4.739-52.681c-.356-3.956,2.258-7.2,5.844-7.2h94.965c3.585,0,6.2,3.247,5.844,7.2l-4.74,52.681A6.479,6.479,0,0,1,318.157,406.7Z" transform="translate(-222.518 -340.969)" fill="#bababa"/>
              <path id="Trazado_102476" data-name="Trazado 102476" d="M328.047,340.969H266.739l61.87,61.871a6.2,6.2,0,0,0,.543-1.987l4.74-52.681C334.247,344.216,331.632,340.969,328.047,340.969Z" transform="translate(-227.206 -340.969)" fill="#d1d1d1"/>
              <path id="Trazado_102477" data-name="Trazado 102477" d="M287.769,379.059a6.329,6.329,0,1,1-6.314-6.76A6.5,6.5,0,0,1,287.769,379.059Z" transform="translate(-228.097 -344.29)" fill="#fff"/>
            </g>
          </g>
        </g>
        <g id="Grupo_54440" data-name="Grupo 54440" transform="translate(134.867 51.279)">
          <path id="Trazado_102478" data-name="Trazado 102478" d="M343.107,295.227a24.591,24.591,0,0,0-22.5,39.885l-1.276,9.038,9.343-2.572a24.594,24.594,0,1,0,14.434-46.351Z" transform="translate(-315.073 -294.982)" fill="#03e6b0"/>
          <line id="Línea_158" data-name="Línea 158" x1="27.747" y2="20.883" transform="translate(10.764 13.872)" fill="none" stroke="#fff" stroke-miterlimit="10" stroke-width="7.19"/>
          <line id="Línea_159" data-name="Línea 159" x2="20.883" y2="27.747" transform="translate(14.196 10.441)" fill="none" stroke="#fff" stroke-miterlimit="10" stroke-width="7.19"/>
        </g>
      </g>
      <g id="Grupo_54501" data-name="Grupo 54501" transform="translate(46.373 112.925)">
        <g id="Grupo_54472" data-name="Grupo 54472" transform="translate(321.773 37.619)">
          <g id="Grupo_54449" data-name="Grupo 54449" transform="translate(0 177.345)">
            <g id="Grupo_54442" data-name="Grupo 54442" transform="translate(3.078)">
              <path id="Trazado_102479" data-name="Trazado 102479" d="M475.449,377.945c1.81.952,15.379,10.843,35.581,10.843s37.332-10.678,39.361-11.1a52.786,52.786,0,0,1,3.661,7.448.5.5,0,0,1-.06.479l-32.584,40.67c-7.357,1.628-16.767.263-16.767.263l-32.679-41.376a.494.494,0,0,1-.049-.531S475.236,377.832,475.449,377.945Z" transform="translate(-416.333 -358)" fill="#05052d"/>
              <path id="Trazado_102480" data-name="Trazado 102480" d="M562.616,420.831c12.586-6.41,40.118-23.677,51.714-49.524,1.614-3.6-2.421-18.782-15.633-13.874-8.175,3.037-50.65,18.181-57.517,27.788-11.093,15.52-11.608,29.655-13.9,38.816C533.523,426.878,556.322,424.036,562.616,420.831Z" transform="translate(-422.209 -355.75)" fill="#05052d"/>
              <path id="Trazado_102481" data-name="Trazado 102481" d="M461.162,420.848c-12.585-6.41-49.046-34.13-50.742-49.626-.433-3.951-4.087-16.064,11.589-15.541,8.174,3.037,53.857,20.583,61.561,29.455,9.654,11.117,12.822,30.361,13.9,38.816C491.227,426.793,467.456,424.053,461.162,420.848Z" transform="translate(-409.748 -355.665)" fill="#05052d"/>
            </g>
            <g id="Grupo_54445" data-name="Grupo 54445" transform="translate(0 0.193)">
              <g id="Grupo_54443" data-name="Grupo 54443" transform="translate(96.458 53.237)">
                <path id="Trazado_102482" data-name="Trazado 102482" d="M522.217,415.431a16.727,16.727,0,0,0,1.73.561c5.207,1.235,19.357,3.031,29.536,3.162,9.92.129,11.169,5.07,11.112,7.855s-5.542,9.029-9.623,9.579c-12.593,1.7-27.749-4.367-30.769-4.684-6.29-.662-9.627-5.438-10-8.11,0,0,5.981,1.742,4.708-1.377a5.1,5.1,0,0,1,3.231-6.806C522.337,415.556,522.385,415.5,522.217,415.431Z" transform="translate(-514.202 -415.431)" fill="#05052d"/>
                <path id="Trazado_102483" data-name="Trazado 102483" d="M551.3,434.129c-1.98-6.139.1-11.776,1.5-14.559.347.008.7.019,1.04.023,9.92.129,11.169,5.07,11.112,7.855s-5.542,9.029-9.623,9.579c-12.593,1.7-27.749-4.367-30.769-4.684a12.072,12.072,0,0,1-7.019-3.122C526.007,431.581,551.444,438.324,551.3,434.129Z" transform="translate(-514.556 -415.87)" fill="#b8b8b8"/>
                <path id="Trazado_102484" data-name="Trazado 102484" d="M532.067,416.756h0a17.608,17.608,0,0,0-2.4,9l0,.68" transform="translate(-515.842 -415.571)" fill="none" stroke="#b8b8b8" stroke-linecap="round" stroke-miterlimit="10" stroke-width="1.609"/>
                <path id="Trazado_102485" data-name="Trazado 102485" d="M536.616,417.523h0a17.6,17.6,0,0,0-2.4,9l0,.68" transform="translate(-516.324 -415.653)" fill="none" stroke="#b8b8b8" stroke-linecap="round" stroke-miterlimit="10" stroke-width="1.609"/>
                <path id="Trazado_102486" data-name="Trazado 102486" d="M541.22,418.141h0a17.608,17.608,0,0,0-2.4,9l0,.68" transform="translate(-516.812 -415.718)" fill="none" stroke="#b8b8b8" stroke-linecap="round" stroke-miterlimit="10" stroke-width="1.609"/>
                <path id="Trazado_102487" data-name="Trazado 102487" d="M545.127,418.611h0a17.608,17.608,0,0,0-2.4,9l0,.68" transform="translate(-517.227 -415.768)" fill="none" stroke="#b8b8b8" stroke-linecap="round" stroke-miterlimit="10" stroke-width="1.609"/>
              </g>
              <g id="Grupo_54444" data-name="Grupo 54444">
                <path id="Trazado_102488" data-name="Trazado 102488" d="M422.907,356.4s65.931,37.289,93.113,52.4c0,5.477-.075,8.783-.421,10.073-.935,2.268-4.675,7.44-4.675,7.44S417.38,393.9,407.386,375.349C403.546,368.222,410.223,352.861,422.907,356.4Z" transform="translate(-406.305 -355.881)" fill="#2b2b4a"/>
                <path id="Trazado_102489" data-name="Trazado 102489" d="M406.958,375.015c-.063-.169-.128-.337-.182-.511-.03-.1-.055-.2-.082-.308-.045-.163-.09-.325-.127-.493-.024-.112-.042-.226-.063-.339-.03-.164-.062-.329-.084-.5-.017-.117-.027-.237-.039-.355-.018-.17-.036-.34-.046-.512-.007-.12-.01-.241-.014-.363-.005-.175-.011-.351-.009-.529,0-.121.005-.243.009-.366.006-.181.014-.364.028-.547.008-.12.021-.24.032-.361q.027-.283.065-.568c.015-.117.033-.234.052-.351.031-.2.066-.392.1-.588.022-.113.046-.224.071-.336q.067-.306.147-.609c.027-.106.055-.212.085-.317.059-.21.123-.419.19-.628.032-.1.063-.2.1-.294.075-.217.156-.433.24-.647.034-.089.068-.177.1-.265.092-.224.19-.447.292-.669.035-.076.069-.153.105-.228.112-.235.232-.466.355-.7.032-.06.063-.122.1-.181.139-.25.285-.5.437-.739.022-.037.044-.074.067-.11q.266-.418.556-.819h0c.265.478.529.972.8,1.5,11.447,22.7,93.467,52.142,105.361,56.208l0,.009c-.941,2.274-4.672,7.433-4.672,7.433s-93.545-32.418-103.538-50.966a7.784,7.784,0,0,1-.337-.713C407.016,375.182,406.99,375.1,406.958,375.015Z" transform="translate(-406.306 -356.508)" fill="#24243a"/>
              </g>
            </g>
            <g id="Grupo_54448" data-name="Grupo 54448" transform="translate(51.801 0.193)">
              <g id="Grupo_54446" data-name="Grupo 54446" transform="translate(0 53.063)">
                <path id="Trazado_102490" data-name="Trazado 102490" d="M507.314,415.237a17.044,17.044,0,0,1-1.758.57c-5.291,1.254-19.669,3.08-30.014,3.214-10.08.13-11.349,5.151-11.291,7.982s5.631,9.175,9.778,9.734c12.8,1.724,28.2-4.438,31.266-4.76,6.392-.671,9.783-5.526,10.163-8.241,0,0-6.077,1.77-4.784-1.4a5.185,5.185,0,0,0-3.284-6.917C507.191,415.365,507.143,415.311,507.314,415.237Z" transform="translate(-464.249 -415.237)" fill="#05052d"/>
                <path id="Trazado_102491" data-name="Trazado 102491" d="M478.121,434.238c2.013-6.238-.105-11.965-1.522-14.795-.353.008-.712.019-1.058.024-10.08.13-11.349,5.151-11.291,7.982s5.631,9.175,9.778,9.734c12.8,1.724,28.2-4.438,31.266-4.76a12.266,12.266,0,0,0,7.133-3.172C503.822,431.648,477.973,438.5,478.121,434.238Z" transform="translate(-464.249 -415.683)" fill="#b8b8b8"/>
                <path id="Trazado_102492" data-name="Trazado 102492" d="M503.089,416.584h0a17.9,17.9,0,0,1,2.434,9.143l0,.692" transform="translate(-468.367 -415.38)" fill="none" stroke="#b8b8b8" stroke-linecap="round" stroke-miterlimit="10" stroke-width="1.635"/>
                <path id="Trazado_102493" data-name="Trazado 102493" d="M498.466,417.363h0a17.889,17.889,0,0,1,2.435,9.143l0,.691" transform="translate(-467.877 -415.462)" fill="none" stroke="#b8b8b8" stroke-linecap="round" stroke-miterlimit="10" stroke-width="1.635"/>
                <path id="Trazado_102494" data-name="Trazado 102494" d="M493.788,417.991h0a17.9,17.9,0,0,1,2.434,9.143l0,.692" transform="translate(-467.381 -415.529)" fill="none" stroke="#b8b8b8" stroke-linecap="round" stroke-miterlimit="10" stroke-width="1.635"/>
                <path id="Trazado_102495" data-name="Trazado 102495" d="M489.818,418.468h0a17.9,17.9,0,0,1,2.434,9.144l0,.691" transform="translate(-466.96 -415.579)" fill="none" stroke="#b8b8b8" stroke-linecap="round" stroke-miterlimit="10" stroke-width="1.635"/>
              </g>
              <g id="Grupo_54447" data-name="Grupo 54447" transform="translate(37.952)">
                <path id="Trazado_102496" data-name="Trazado 102496" d="M599.815,356.4s-65.931,37.289-93.113,52.4c0,5.477.075,8.783.421,10.073.935,2.268,4.675,7.44,4.675,7.44s93.546-32.418,103.538-50.966C619.176,368.222,612.5,352.861,599.815,356.4Z" transform="translate(-506.702 -355.881)" fill="#464670"/>
                <path id="Trazado_102497" data-name="Trazado 102497" d="M615.814,375.015c.063-.169.128-.337.182-.511.031-.1.055-.2.082-.308.045-.163.09-.325.127-.493.024-.112.042-.226.063-.339.03-.164.062-.329.085-.5.016-.117.026-.237.038-.355.018-.17.036-.34.047-.512.007-.12.01-.241.014-.363.005-.175.011-.351.01-.529,0-.121-.006-.243-.01-.366-.006-.181-.014-.364-.028-.547-.008-.12-.021-.24-.031-.361q-.028-.283-.065-.568c-.016-.117-.034-.234-.053-.351-.031-.2-.065-.392-.1-.588-.022-.113-.046-.224-.071-.336-.044-.2-.093-.407-.146-.609-.028-.106-.055-.212-.086-.317-.059-.21-.123-.419-.19-.628-.032-.1-.064-.2-.1-.294-.075-.217-.156-.433-.24-.647-.034-.089-.067-.177-.1-.265-.092-.224-.19-.447-.292-.669-.035-.076-.069-.153-.105-.228-.112-.235-.232-.466-.355-.7-.032-.06-.062-.122-.1-.181-.139-.25-.285-.5-.437-.739-.022-.037-.044-.074-.067-.11q-.266-.418-.556-.819h0c-.264.478-.529.972-.8,1.5-11.447,22.7-93.467,52.142-105.361,56.208l0,.009c.941,2.274,4.672,7.433,4.672,7.433s93.546-32.418,103.538-50.966a7.792,7.792,0,0,0,.337-.713C615.757,375.182,615.783,375.1,615.814,375.015Z" transform="translate(-506.752 -356.508)" fill="#2b2b4a"/>
              </g>
            </g>
          </g>
          <g id="Grupo_54456" data-name="Grupo 54456" transform="translate(27.264 82.175)">
            <path id="Trazado_102498" data-name="Trazado 102498" d="M548.644,362.912l3.622-91.791a10.246,10.246,0,0,0-5.991-10.835,219.848,219.848,0,0,1-20.789-11.078h-24.85l-20.753,11.055a10.257,10.257,0,0,0-6,10.84l3.627,91.808Z" transform="translate(-440.722 -249.208)" fill="#2b2b4a"/>
            <path id="Trazado_102499" data-name="Trazado 102499" d="M476.072,315.453a152.623,152.623,0,0,0,6.748-21.418,81.8,81.8,0,0,0,1.354-21.23c-.23-4.409-1.216-8.547-3.864-11.485l-.427.227a10.257,10.257,0,0,0-6,10.84Z" transform="translate(-440.722 -250.492)" fill="#05052d"/>
            <path id="Trazado_102500" data-name="Trazado 102500" d="M558.146,315.453a152.383,152.383,0,0,1-6.748-21.418,81.8,81.8,0,0,1-1.355-21.23c.23-4.409,1.216-8.547,3.865-11.485l.427.227a10.257,10.257,0,0,1,6,10.84Z" transform="translate(-448.792 -250.492)" fill="#05052d"/>
            <path id="Trazado_102501" data-name="Trazado 102501" d="M521.93,270.41q.107,2.964.215,5.927" transform="translate(-445.828 -251.456)" fill="none" stroke="#fff" stroke-miterlimit="10" stroke-width="0.727" style="mix-blend-mode: soft-light;isolation: isolate"/>
            <g id="Grupo_54452" data-name="Grupo 54452" transform="translate(87.583 11.031)">
              <path id="Trazado_102502" data-name="Trazado 102502" d="M553.147,358.821c3.4-2.165,20.1-26.361,20.1-26.361l-16.533-35.678L574.13,281.72s18.449,49.789,19.3,55.446c1.016,6.746-22.4,21.532-32.444,30.366C560.986,367.532,553.031,358.895,553.147,358.821Z" transform="translate(-536.72 -263.686)" fill="#ffb999"/>
              <g id="Grupo_54450" data-name="Grupo 54450" transform="translate(0 95.07)">
                <path id="Trazado_102503" data-name="Trazado 102503" d="M557.723,381.466a31.416,31.416,0,0,0-1.037,9.592" transform="translate(-537.092 -369.331)" fill="none" stroke="#ffb999" stroke-miterlimit="10" stroke-width="0.846"/>
                <path id="Trazado_102504" data-name="Trazado 102504" d="M548.743,374.057a23.889,23.889,0,0,1-8.9,1.959" transform="translate(-535.309 -368.546)" fill="none" stroke="#ff8663" stroke-miterlimit="10" stroke-width="0.846"/>
                <path id="Trazado_102505" data-name="Trazado 102505" d="M554.567,367.892l-6.479,3.641a1.308,1.308,0,0,0-.319,2.028L557.9,384.523l2.905-6.587Z" transform="translate(-536.113 -367.892)" fill="#ffb999"/>
                <path id="Trazado_102506" data-name="Trazado 102506" d="M553.987,379.618a34.488,34.488,0,0,0-4.651,15.2" transform="translate(-536.316 -369.135)" fill="none" stroke="#ffb999" stroke-miterlimit="10" stroke-width="0.846"/>
                <path id="Trazado_102507" data-name="Trazado 102507" d="M550.4,376.447a42.058,42.058,0,0,0-8.936,18.126" transform="translate(-535.481 -368.799)" fill="none" stroke="#ffb999" stroke-miterlimit="10" stroke-width="0.846"/>
                <path id="Trazado_102508" data-name="Trazado 102508" d="M547.777,374.264a51.881,51.881,0,0,0-13,11.269" transform="translate(-534.772 -368.568)" fill="none" stroke="#ffb999" stroke-miterlimit="10" stroke-width="0.846"/>
              </g>
              <g id="Grupo_54451" data-name="Grupo 54451" transform="translate(11.341)">
                <path id="Trazado_102509" data-name="Trazado 102509" d="M553.73,261.569c2.705.317,13.552,7.586,16.179,10.123,2.389,2.306,16.058,38.945,21.978,54.1,2.113,5.411,2.458,12.941-1.878,17.441-4.76,4.938-9.723,9.357-14.183,14.556a5.079,5.079,0,0,0-1.131,1.763c-.5,1.657.755,3.519.1,5.123-.664,1.639-2.823,1.96-4.59,1.891a8.071,8.071,0,0,0-4.3.609c-1.087.589-2.238,2.077-3.453.651a45.084,45.084,0,0,0-5.445-4.978,18.362,18.362,0,0,0-9.556-3.532c.791-.7,1.579-1.4,2.373-2.089.416-.362,3.207-2.789,3.639-2.638a3.474,3.474,0,0,1-1.724-4.887c.994-1.6,3.06-2.042,4.836-2.662a16.7,16.7,0,0,0,8.482-6.8,28.2,28.2,0,0,0,2.088-4.942c.788-1.95,1.821-3.505,1.771-5.714-.1-4.6-2.3-8.664-4.262-12.7-4.8-9.888-9.08-20.018-13.8-29.942-2.242-4.71-3.612-9.913-2.929-15.152C548.3,268.964,549.553,261.079,553.73,261.569Z" transform="translate(-547.458 -261.548)" fill="#2b2b4a"/>
                <path id="Trazado_102510" data-name="Trazado 102510" d="M549.831,368.256c.416-.362,3.207-2.789,3.628-2.644,6.961.172,14.1,5.892,17.226,11.988-.16,0-.32,0-.475,0a10.47,10.47,0,0,0-4.78.779,13.807,13.807,0,0,1-4.968,1.441,5.724,5.724,0,0,0-.829-3.841c-1.094-1.72-3.393-2.757-5.159-3.662a18.564,18.564,0,0,0-3.522-1.373c-.53-.147-3.063-.974-3.494-.594C548.249,369.648,549.037,368.948,549.831,368.256Z" transform="translate(-547.458 -272.579)" fill="#05052d"/>
              </g>
              <path id="Trazado_102511" data-name="Trazado 102511" d="M548.122,261.68l18.9,11.495" transform="translate(-536.187 -261.562)" fill="none" stroke="#50507c" stroke-miterlimit="10" stroke-width="1.454"/>
              <path id="Trazado_102512" data-name="Trazado 102512" d="M576.61,287.96l9.929,25.635" transform="translate(-539.208 -264.348)" fill="none" stroke="#50507c" stroke-miterlimit="10" stroke-width="1.454"/>
            </g>
            <g id="Grupo_54455" data-name="Grupo 54455" transform="translate(0 11.031)">
              <path id="Trazado_102513" data-name="Trazado 102513" d="M477.725,358.821c-3.4-2.165-20.1-26.361-20.1-26.361l16.534-35.678L456.742,281.72s-18.449,49.789-19.3,55.446c-1.016,6.746,22.4,21.532,32.444,30.366C469.885,367.532,477.841,358.895,477.725,358.821Z" transform="translate(-436.867 -263.686)" fill="#ffb999"/>
              <g id="Grupo_54453" data-name="Grupo 54453" transform="translate(32.588 95.07)">
                <path id="Trazado_102514" data-name="Trazado 102514" d="M477.8,381.466a31.413,31.413,0,0,1,1.037,9.592" transform="translate(-473.737 -369.331)" fill="none" stroke="#ffb999" stroke-miterlimit="10" stroke-width="0.846"/>
                <path id="Trazado_102515" data-name="Trazado 102515" d="M485.854,374.057a23.889,23.889,0,0,0,8.9,1.959" transform="translate(-474.591 -368.546)" fill="none" stroke="#ff8663" stroke-miterlimit="10" stroke-width="0.846"/>
                <path id="Trazado_102516" data-name="Trazado 102516" d="M479.5,367.892l6.479,3.641a1.308,1.308,0,0,1,.319,2.028L476.16,384.523l-2.905-6.587Z" transform="translate(-473.255 -367.892)" fill="#ffb999"/>
                <path id="Trazado_102517" data-name="Trazado 102517" d="M481.114,379.618a34.5,34.5,0,0,1,4.65,15.2" transform="translate(-474.088 -369.135)" fill="none" stroke="#ffb999" stroke-miterlimit="10" stroke-width="0.846"/>
                <path id="Trazado_102518" data-name="Trazado 102518" d="M484.2,376.447a42.057,42.057,0,0,1,8.935,18.126" transform="translate(-474.415 -368.799)" fill="none" stroke="#ffb999" stroke-miterlimit="10" stroke-width="0.846"/>
                <path id="Trazado_102519" data-name="Trazado 102519" d="M486.334,374.264a51.891,51.891,0,0,1,13,11.269" transform="translate(-474.642 -368.568)" fill="none" stroke="#ffb999" stroke-miterlimit="10" stroke-width="0.846"/>
              </g>
              <g id="Grupo_54454" data-name="Grupo 54454">
                <path id="Trazado_102520" data-name="Trazado 102520" d="M476.473,261.569c-2.7.317-13.552,7.586-16.178,10.123-2.389,2.306-16.058,38.945-21.978,54.1-2.113,5.411-2.459,12.941,1.878,17.441,4.76,4.938,9.723,9.357,14.183,14.556a5.064,5.064,0,0,1,1.13,1.763c.5,1.657-.754,3.519-.1,5.123.664,1.639,2.823,1.96,4.59,1.891a8.071,8.071,0,0,1,4.3.609c1.087.589,2.238,2.077,3.453.651a45.084,45.084,0,0,1,5.445-4.978,18.362,18.362,0,0,1,9.556-3.532c-.791-.7-1.579-1.4-2.373-2.089-.416-.362-3.207-2.789-3.639-2.638a3.474,3.474,0,0,0,1.724-4.887c-.994-1.6-3.06-2.042-4.836-2.662a16.7,16.7,0,0,1-8.482-6.8,28.266,28.266,0,0,1-2.087-4.942c-.788-1.95-1.821-3.505-1.771-5.714.1-4.6,2.3-8.664,4.262-12.7,4.8-9.888,9.08-20.018,13.8-29.942,2.242-4.71,3.611-9.913,2.929-15.152C481.909,268.964,480.652,261.079,476.473,261.569Z" transform="translate(-436.803 -261.548)" fill="#2b2b4a"/>
                <path id="Trazado_102521" data-name="Trazado 102521" d="M483.068,368.256c-.416-.362-3.207-2.789-3.629-2.644-6.96.172-14.1,5.892-17.225,11.988.159,0,.32,0,.475,0a10.47,10.47,0,0,1,4.78.779,13.807,13.807,0,0,0,4.968,1.441,5.714,5.714,0,0,1,.829-3.841c1.094-1.72,3.393-2.757,5.159-3.662a18.556,18.556,0,0,1,3.521-1.373c.531-.147,3.063-.974,3.495-.594C484.649,369.648,483.862,368.948,483.068,368.256Z" transform="translate(-439.497 -272.579)" fill="#05052d"/>
              </g>
              <path id="Trazado_102522" data-name="Trazado 102522" d="M485.29,261.68l-18.9,11.495" transform="translate(-439.94 -261.562)" fill="none" stroke="#50507c" stroke-miterlimit="10" stroke-width="1.454"/>
              <path id="Trazado_102523" data-name="Trazado 102523" d="M457.865,287.96l-9.929,25.635" transform="translate(-437.983 -264.348)" fill="none" stroke="#50507c" stroke-miterlimit="10" stroke-width="1.454"/>
            </g>
          </g>
          <g id="Grupo_54457" data-name="Grupo 54457" transform="translate(65.781 5.272)">
            <path id="Trazado_102524" data-name="Trazado 102524" d="M547.793,197.944c0,19.2-15.2,58.125-33.953,58.125s-33.953-38.928-33.953-58.125,15.2-34.759,33.953-34.759S547.793,178.747,547.793,197.944Z" transform="translate(-479.887 -163.185)" fill="#05052d"/>
            <path id="Trazado_102525" data-name="Trazado 102525" d="M517.641,265.727v11" transform="translate(-483.89 -174.056)" fill="none" stroke="#05052d" stroke-miterlimit="10" stroke-width="4.363"/>
          </g>
          <g id="Grupo_54458" data-name="Grupo 54458" transform="translate(85.947 62.576)">
            <path id="Trazado_102526" data-name="Trazado 102526" d="M530.018,252.449a2.251,2.251,0,0,1-1.158,1.914c-2.736,1.635-9.6,5.548-12.628,5.564-3.1.016-9.929-3.92-12.643-5.562a2.249,2.249,0,0,1-1.144-1.906V227.285h27.573Z" transform="translate(-502.445 -227.285)" fill="#ffb999"/>
            <path id="Trazado_102527" data-name="Trazado 102527" d="M502.445,237.322c1.834,5.1,7.313,8.8,13.787,8.8h0c6.474,0,11.953-3.7,13.786-8.8V227.285H502.445Z" transform="translate(-502.445 -227.285)" fill="#ff8663"/>
          </g>
          <g id="Grupo_54469" data-name="Grupo 54469" transform="translate(69.476 14.525)">
            <g id="Grupo_54461" data-name="Grupo 54461" transform="translate(0 29.341)">
              <g id="Grupo_54459" data-name="Grupo 54459">
                <path id="Trazado_102528" data-name="Trazado 102528" d="M492.516,214.091c1.378,4.381.756,8.023-1.387,8.135s-5-3.35-6.376-7.731-.756-8.024,1.387-8.135S491.138,209.709,492.516,214.091Z" transform="translate(-484.02 -206.357)" fill="#ffb999"/>
                <path id="Trazado_102529" data-name="Trazado 102529" d="M485.994,211.879a1.361,1.361,0,0,1,1.566-1.919c.926.242,1.315,1.319,1.56,2.245q.424,1.6.848,3.2a.478.478,0,0,0-.624-.129.952.952,0,0,0-.412.551,1.982,1.982,0,0,0,1.918,2.631" transform="translate(-484.215 -206.735)" fill="none" stroke="#ff8663" stroke-linecap="round" stroke-linejoin="round" stroke-width="1.106"/>
              </g>
              <g id="Grupo_54460" data-name="Grupo 54460" transform="translate(51.288)">
                <path id="Trazado_102530" data-name="Trazado 102530" d="M542.123,214.091c-1.378,4.381-.756,8.023,1.387,8.135s5-3.35,6.376-7.731.756-8.024-1.387-8.135S543.5,209.709,542.123,214.091Z" transform="translate(-541.39 -206.357)" fill="#ffb999"/>
                <path id="Trazado_102531" data-name="Trazado 102531" d="M549.551,211.879a1.361,1.361,0,0,0-1.566-1.919c-.927.242-1.315,1.319-1.561,2.245l-.847,3.2a.478.478,0,0,1,.624-.129.95.95,0,0,1,.411.551,1.981,1.981,0,0,1-1.918,2.631" transform="translate(-541.74 -206.735)" fill="none" stroke="#ff8663" stroke-linecap="round" stroke-linejoin="round" stroke-width="1.106"/>
              </g>
            </g>
            <g id="Grupo_54463" data-name="Grupo 54463" transform="translate(3.273)">
              <g id="Grupo_54462" data-name="Grupo 54462">
                <path id="Trazado_102532" data-name="Trazado 102532" d="M538.713,211.488l2.3-11.288a26.664,26.664,0,0,0-26.664-26.664h0A26.664,26.664,0,0,0,487.681,200.2l2.3,11.288Z" transform="translate(-487.681 -173.536)" fill="#05052d"/>
              </g>
              <path id="Trazado_102533" data-name="Trazado 102533" d="M539.13,199.444c-.087-5.851-6.487-9.414-11.7-6.757-2.865,1.46-7.541,2.41-12.831,2.41s-9.966-.95-12.831-2.41c-5.215-2.657-11.615.906-11.7,6.758,0,.051,0,.1,0,.154V214.27A24.532,24.532,0,0,0,514.6,238.8h0a24.532,24.532,0,0,0,24.533-24.533V199.6C539.131,199.546,539.131,199.5,539.13,199.444Z" transform="translate(-487.934 -175.472)" fill="#ffb999"/>
            </g>
            <g id="Grupo_54468" data-name="Grupo 54468" transform="translate(5.404 28.173)">
              <path id="Trazado_102534" data-name="Trazado 102534" d="M512.957,211.112l1.974,1.672a1.353,1.353,0,0,1,.58,1.356c.016,3.51.047,7.381.047,7.381" transform="translate(-492.492 -205.693)" fill="none" stroke="#ff8663" stroke-linecap="round" stroke-linejoin="round" stroke-width="1.106"/>
              <path id="Trazado_102535" data-name="Trazado 102535" d="M490.065,205.05v9.059a11.1,11.1,0,0,0,2.011,2.832,14.1,14.1,0,0,0,12.037,3.893c5.523-1.03,7.793-4.966,8.492-9.621a2.024,2.024,0,0,1,1.992-1.741h0a2.024,2.024,0,0,1,1.993,1.741c.7,4.655,2.969,8.591,8.492,9.621a14.1,14.1,0,0,0,12.038-3.893,11.1,11.1,0,0,0,2.011-2.832V205.05Z" transform="translate(-490.065 -205.05)" fill="#05052d"/>
              <g id="Grupo_54466" data-name="Grupo 54466" transform="translate(7.399 2.972)">
                <g id="Grupo_54464" data-name="Grupo 54464">
                  <ellipse id="Elipse_4216" data-name="Elipse 4216" cx="1.806" cy="2.941" rx="1.806" ry="2.941" transform="translate(2.703 1.87)" fill="#fff"/>
                  <path id="Trazado_102536" data-name="Trazado 102536" d="M498.341,208.374a20.887,20.887,0,0,0,8.845,1.965" transform="translate(-498.341 -208.374)" fill="none" stroke="#fff" stroke-linecap="round" stroke-linejoin="round" stroke-width="1.659"/>
                </g>
                <g id="Grupo_54465" data-name="Grupo 54465" transform="translate(25.662)">
                  <path id="Trazado_102537" data-name="Trazado 102537" d="M532.728,213.407c0,1.624-.808,2.941-1.806,2.941s-1.806-1.317-1.806-2.941.808-2.941,1.806-2.941S532.728,211.783,532.728,213.407Z" transform="translate(-527.266 -208.596)" fill="#fff"/>
                  <path id="Trazado_102538" data-name="Trazado 102538" d="M535.891,208.374a20.884,20.884,0,0,1-8.845,1.965" transform="translate(-527.046 -208.374)" fill="none" stroke="#fff" stroke-linecap="round" stroke-linejoin="round" stroke-width="1.659"/>
                </g>
              </g>
              <g id="Grupo_54467" data-name="Grupo 54467" transform="translate(16.538 20.413)">
                <path id="Trazado_102539" data-name="Trazado 102539" d="M508.564,227.884c.122,3.728,3.67,6.722,8.053,6.722s7.931-2.994,8.053-6.722Z" transform="translate(-508.564 -227.884)" fill="#fff"/>
                <path id="Trazado_102540" data-name="Trazado 102540" d="M519.386,230.873v.676h5.277a6.719,6.719,0,0,0,.429-.676Z" transform="translate(-509.711 -228.201)" fill="#e6e6e6"/>
                <path id="Trazado_102541" data-name="Trazado 102541" d="M514.206,230.873h-4.83a6.711,6.711,0,0,0,.428.676h4.4Z" transform="translate(-508.65 -228.201)" fill="#e6e6e6"/>
              </g>
            </g>
            <path id="Trazado_102542" data-name="Trazado 102542" d="M542.416,202.88a3.8,3.8,0,0,0-2.591,1.238l.8-3.918a26.664,26.664,0,0,0-26.664-26.664h0A26.664,26.664,0,0,0,487.293,200.2l.673,3.31a3.061,3.061,0,0,0-1.826-.629c-2.144.111-2.765,3.754-1.387,8.135a17.714,17.714,0,0,0,2.157,4.525c6.2-5.848,16-9.632,27.047-9.632,11.285,0,21.261,3.953,27.435,10.017a17.474,17.474,0,0,0,2.412-4.911C545.181,206.634,544.56,202.991,542.416,202.88Z" transform="translate(-484.02 -173.536)" fill="#a67060" style="mix-blend-mode: multiply;isolation: isolate"/>
            <path id="Trazado_102543" data-name="Trazado 102543" d="M497.963,234.547a20.705,20.705,0,0,0,7.788,5.749" transform="translate(-485.498 -180.004)" fill="none" stroke="#59ffff" stroke-miterlimit="10" stroke-width="0.727" style="mix-blend-mode: overlay;isolation: isolate"/>
            <path id="Trazado_102544" data-name="Trazado 102544" d="M527.341,240.907a16.65,16.65,0,0,0,6.269-4" transform="translate(-488.613 -180.254)" fill="none" stroke="#59ffff" stroke-miterlimit="10" stroke-width="0.727" style="mix-blend-mode: overlay;isolation: isolate"/>
          </g>
          <g id="Grupo_54471" data-name="Grupo 54471" transform="translate(65.781)">
            <g id="Grupo_54470" data-name="Grupo 54470">
              <path id="Trazado_102545" data-name="Trazado 102545" d="M513.84,189.42c15.807,0,29.091,7.735,32.873,18.206a57.119,57.119,0,0,0,1.08-10.281c0-19.212-15.2-40.058-33.953-40.058s-33.953,20.846-33.953,40.058a57.119,57.119,0,0,0,1.08,10.281C484.748,197.155,498.032,189.42,513.84,189.42Z" transform="translate(-479.887 -157.288)" fill="#2b2b4a"/>
            </g>
            <path id="Trazado_102546" data-name="Trazado 102546" d="M528.378,192.292a35.247,35.247,0,0,1,18.536,8.591" transform="translate(-485.028 -160.999)" fill="none" stroke="#59ffff" stroke-miterlimit="10" stroke-width="0.727" style="mix-blend-mode: overlay;isolation: isolate"/>
            <path id="Trazado_102547" data-name="Trazado 102547" d="M490.564,199.415a39.818,39.818,0,0,1,17.419-6.936" transform="translate(-481.019 -161.019)" fill="none" stroke="#59ffff" stroke-miterlimit="10" stroke-width="0.727" style="mix-blend-mode: overlay;isolation: isolate"/>
            <path id="Trazado_102548" data-name="Trazado 102548" d="M523.851,160.134A32.67,32.67,0,0,1,543.7,176.19" transform="translate(-484.548 -157.59)" fill="none" stroke="#50507c" stroke-miterlimit="10" stroke-width="1.454"/>
          </g>
        </g>
        <g id="Grupo_54498" data-name="Grupo 54498">
          <g id="Grupo_54496" data-name="Grupo 54496" transform="translate(7.61 23.407)">
            <path id="Trazado_102549" data-name="Trazado 102549" d="M154.794,309.746a14.211,14.211,0,0,0,3.844-4.01,4.35,4.35,0,0,1,.19.461c.959,2.8,2.8,6.843,1.414,9.72a2.933,2.933,0,0,1-4.853,1.635l-.05-.058c-1.509-.806-2.28-2.425-2.919-4.063-.275-.705-.537-1.415-.793-2.127A12.689,12.689,0,0,0,154.794,309.746Z" transform="translate(-65.141 -158.814)" fill="rgba(96,229,255,0.4)" stroke="#60e5ff" stroke-miterlimit="10" stroke-width="1"/>
            <g id="Grupo_54473" data-name="Grupo 54473">
              <path id="Trazado_102550" data-name="Trazado 102550" d="M455.255,341.038c-21.493-41.959-45.977-82.945-78.475-117.41-30.423-32.266-68.114-59.369-110.539-73.21-20.841-6.8-43.181-10.149-65.1-8.69-20.16,1.344-39.479,6.527-58.006,14.433-34.222,14.6-66.216,39.756-80.721,74.869-7.636,18.484-11.607,44.175-1.35,62.426,5.838,10.385,16.87,16.576,28.816,15.279,14.684-1.6,27.857-9.211,40.429-16.448a12.484,12.484,0,0,0,1.067-.687,1.614,1.614,0,0,0,.252.474c3.03,3.832,9.381,2.7,12.911.248a14.466,14.466,0,0,0,5.818-8.723,10.011,10.011,0,0,1,2.344,3.716c1.132,3.318.384,6.593.323,10.039-.047,2.605,3.049,3.116,4.671,1.727,3.882-3.325,3.966-9.949,2.154-14.422a19.194,19.194,0,0,0-7.889-9.33c-4.9-2.836-11.577-6.363-14.309-6.919a16.9,16.9,0,0,0-9.516.414c-4.562,1.547-8.467,4.263-12.319,7.06-4.216,3.061-9.509,5.455-14.268,7.536-4.6,2.011-10.684,4.636-15.815,4.024-7.782-.928-8.888-12.228-9.038-18.255-.555-22.367,9.647-43.508,24.731-59.583,14.223-15.156,32.364-26.311,51.381-34.425l.049-.021c13.946-5.946,31.9-10.885,48.286-11.978a155.558,155.558,0,0,1,56.659,7.052c37.56,11.643,70.888,35.214,98.365,62.933,33.945,34.244,58.714,76.043,80.564,118.7,2.641,5.156,9.876,6.658,14.677,3.849C456.643,352.653,457.906,346.212,455.255,341.038Z" transform="translate(-54.885 -141.391)" fill="#60e5ff" opacity="0.4"/>
              <path id="Trazado_102551" data-name="Trazado 102551" d="M455.255,341.038c-21.493-41.959-45.977-82.945-78.475-117.41-30.423-32.266-68.114-59.369-110.539-73.21-20.841-6.8-43.181-10.149-65.1-8.69-20.16,1.344-39.479,6.527-58.006,14.433-34.222,14.6-66.216,39.756-80.721,74.869-7.636,18.484-11.607,44.175-1.35,62.426,5.838,10.385,16.87,16.576,28.816,15.279,14.684-1.6,27.857-9.211,40.429-16.448a12.484,12.484,0,0,0,1.067-.687,1.614,1.614,0,0,0,.252.474c3.03,3.832,9.381,2.7,12.911.248a14.466,14.466,0,0,0,5.818-8.723,10.011,10.011,0,0,1,2.344,3.716c1.132,3.318.384,6.593.323,10.039-.047,2.605,3.049,3.116,4.671,1.727,3.882-3.325,3.966-9.949,2.154-14.422a19.194,19.194,0,0,0-7.889-9.33c-4.9-2.836-11.577-6.363-14.309-6.919a16.9,16.9,0,0,0-9.516.414c-4.562,1.547-8.467,4.263-12.319,7.06-4.216,3.061-9.509,5.455-14.268,7.536-4.6,2.011-10.684,4.636-15.815,4.024-7.782-.928-8.888-12.228-9.038-18.255-.555-22.367,9.647-43.508,24.731-59.583,14.223-15.156,32.364-26.311,51.381-34.425l.049-.021c13.946-5.946,31.9-10.885,48.286-11.978a155.558,155.558,0,0,1,56.659,7.052c37.56,11.643,70.888,35.214,98.365,62.933,33.945,34.244,58.714,76.043,80.564,118.7,2.641,5.156,9.876,6.658,14.677,3.849C456.643,352.653,457.906,346.212,455.255,341.038Z" transform="translate(-54.885 -141.391)" opacity="0.5"/>
              <path id="Trazado_102552" data-name="Trazado 102552" d="M455.255,341.038c-21.493-41.959-45.977-82.945-78.475-117.41-30.423-32.266-68.114-59.369-110.539-73.21-20.841-6.8-43.181-10.149-65.1-8.69-20.16,1.344-39.479,6.527-58.006,14.433-34.222,14.6-66.216,39.756-80.721,74.869-7.636,18.484-11.607,44.175-1.35,62.426,5.838,10.385,16.87,16.576,28.816,15.279,14.684-1.6,27.857-9.211,40.429-16.448a12.484,12.484,0,0,0,1.067-.687,1.614,1.614,0,0,0,.252.474c3.03,3.832,9.381,2.7,12.911.248a14.466,14.466,0,0,0,5.818-8.723,10.011,10.011,0,0,1,2.344,3.716c1.132,3.318.384,6.593.323,10.039-.047,2.605,3.049,3.116,4.671,1.727,3.882-3.325,3.966-9.949,2.154-14.422a19.194,19.194,0,0,0-7.889-9.33c-4.9-2.836-11.577-6.363-14.309-6.919a16.9,16.9,0,0,0-9.516.414c-4.562,1.547-8.467,4.263-12.319,7.06-4.216,3.061-9.509,5.455-14.268,7.536-4.6,2.011-10.684,4.636-15.815,4.024-7.782-.928-8.888-12.228-9.038-18.255-.555-22.367,9.647-43.508,24.731-59.583,14.223-15.156,32.364-26.311,51.381-34.425l.049-.021c13.946-5.946,31.9-10.885,48.286-11.978a155.558,155.558,0,0,1,56.659,7.052c37.56,11.643,70.888,35.214,98.365,62.933,33.945,34.244,58.714,76.043,80.564,118.7,2.641,5.156,9.876,6.658,14.677,3.849C456.643,352.653,457.906,346.212,455.255,341.038Z" transform="translate(-54.885 -141.391)" fill="none" stroke="#60e5ff" stroke-miterlimit="10" stroke-width="1"/>
            </g>
            <path id="Trazado_102553" data-name="Trazado 102553" d="M153.505,296.9a11.487,11.487,0,0,1-11.738,10.312c-2.8-.077-5.468-.948-6.922-3.343" transform="translate(-63.362 -157.878)" fill="none" stroke="#60e5ff" stroke-linecap="round" stroke-linejoin="round" stroke-width="1"/>
            <path id="Trazado_102554" data-name="Trazado 102554" d="M144.842,292.7a12.107,12.107,0,0,1-6.248,9.555,7.532,7.532,0,0,1-5.79.8,5.133,5.133,0,0,1-2.945-2.615,2.416,2.416,0,0,1,1.866-3.31,4.739,4.739,0,0,0,4.007-4.525" transform="translate(-62.813 -157.422)" fill="none" stroke="#60e5ff" stroke-linecap="round" stroke-linejoin="round" stroke-width="1"/>
            <g id="Grupo_54495" data-name="Grupo 54495" transform="translate(66.598 140.705)">
              <g id="Grupo_54494" data-name="Grupo 54494" transform="translate(0)" clip-path="url(#clip-path)">
                <g id="Grupo_54493" data-name="Grupo 54493" transform="translate(2.003 1.577)">
                  <rect id="Rectángulo_5390" data-name="Rectángulo 5390" width="36.955" height="49.658" rx="5.1" transform="matrix(0.463, 0.886, -0.886, 0.463, 44.017, 0)" fill="rgba(255,255,255,0.5)" stroke="#60e5ff" stroke-miterlimit="10" stroke-width="1"/>
                  <g id="Grupo_54492" data-name="Grupo 54492" transform="translate(10.799 16.044)">
                    <g id="Grupo_54479" data-name="Grupo 54479" transform="translate(24.938)">
                      <g id="Grupo_54478" data-name="Grupo 54478">
                        <g id="Grupo_54474" data-name="Grupo 54474">
                          <path id="Trazado_102555" data-name="Trazado 102555" d="M181.045,330.677a6.458,6.458,0,1,1,2.735-8.715A6.459,6.459,0,0,1,181.045,330.677Z" transform="translate(-171.596 -318.493)" fill="#60e5ff"/>
                        </g>
                        <g id="Grupo_54477" data-name="Grupo 54477" transform="translate(3.125 4.554)">
                          <g id="Grupo_54475" data-name="Grupo 54475" transform="translate(0 0.643)">
                            <path id="Trazado_102556" data-name="Trazado 102556" d="M177.143,328.738l-2.051-3.928.483-.252a2.216,2.216,0,0,1,2.989.939h0a2.216,2.216,0,0,1-.939,2.989Z" transform="translate(-175.092 -324.306)" fill="#fff"/>
                          </g>
                          <g id="Grupo_54476" data-name="Grupo 54476" transform="translate(3.186)">
                            <path id="Trazado_102557" data-name="Trazado 102557" d="M180.561,326.044a1.3,1.3,0,1,1,.552-1.758A1.3,1.3,0,0,1,180.561,326.044Z" transform="translate(-178.656 -323.587)" fill="#fff"/>
                          </g>
                        </g>
                      </g>
                    </g>
                    <g id="Grupo_54480" data-name="Grupo 54480" transform="translate(0 12.814)">
                      <path id="Trazado_102558" data-name="Trazado 102558" d="M149.012,345.765l-5.058-9.686a2.223,2.223,0,0,1,.941-3h0a2.223,2.223,0,0,1,3,.941l5.059,9.686a2.224,2.224,0,0,1-.942,3h0A2.223,2.223,0,0,1,149.012,345.765Z" transform="translate(-143.701 -332.826)" fill="#60e5ff"/>
                    </g>
                    <g id="Grupo_54485" data-name="Grupo 54485" transform="translate(9.856 2.663)">
                      <g id="Grupo_54481" data-name="Grupo 54481">
                        <rect id="Rectángulo_5391" data-name="Rectángulo 5391" width="4.447" height="21.772" transform="translate(0 2.059) rotate(-27.575)" fill="none" stroke="#60e5ff" stroke-miterlimit="10" stroke-width="1"/>
                      </g>
                      <g id="Grupo_54484" data-name="Grupo 54484" transform="translate(2.03 2.807)">
                        <g id="Grupo_54482" data-name="Grupo 54482" transform="translate(0 0.186)">
                          <path id="Trazado_102559" data-name="Trazado 102559" d="M157.461,325.975l-.445-.853a.171.171,0,0,1,.072-.231h0a.641.641,0,0,1,.864.272l.01.019a.64.64,0,0,1-.271.864h0A.171.171,0,0,1,157.461,325.975Z" transform="translate(-156.996 -324.819)" fill="#60e5ff"/>
                        </g>
                        <g id="Grupo_54483" data-name="Grupo 54483" transform="translate(0.878)">
                          <path id="Trazado_102560" data-name="Trazado 102560" d="M158.539,325.334a.383.383,0,1,1,.162-.517A.383.383,0,0,1,158.539,325.334Z" transform="translate(-157.978 -324.611)" fill="#60e5ff"/>
                        </g>
                      </g>
                    </g>
                    <g id="Grupo_54490" data-name="Grupo 54490" transform="translate(3.755 5.849)">
                      <g id="Grupo_54486" data-name="Grupo 54486">
                        <rect id="Rectángulo_5392" data-name="Rectángulo 5392" width="4.447" height="21.772" transform="translate(0 2.059) rotate(-27.575)" fill="none" stroke="#60e5ff" stroke-miterlimit="10" stroke-width="1"/>
                      </g>
                      <g id="Grupo_54489" data-name="Grupo 54489" transform="translate(2.023 2.549)">
                        <g id="Grupo_54487" data-name="Grupo 54487" transform="translate(0 0.111)">
                          <rect id="Rectángulo_5393" data-name="Rectángulo 5393" width="1.418" height="0.812" transform="translate(0.72 0) rotate(62.425)" fill="#60e5ff"/>
                        </g>
                        <g id="Grupo_54488" data-name="Grupo 54488" transform="translate(0.57)">
                          <path id="Trazado_102561" data-name="Trazado 102561" d="M151.459,329.34,151.28,329l.222-.116a.325.325,0,0,0-.3-.576l-.222.115-.178-.341.222-.115a.71.71,0,0,1,.657,1.259Z" transform="translate(-150.802 -327.886)" fill="#60e5ff"/>
                        </g>
                      </g>
                    </g>
                    <g id="Grupo_54491" data-name="Grupo 54491" transform="translate(17.738 0.372)">
                      <line id="Línea_160" data-name="Línea 160" x2="6.515" y2="12.474" transform="translate(0 4.576)" fill="none" stroke="#60e5ff" stroke-miterlimit="10" stroke-width="1"/>
                      <line id="Línea_161" data-name="Línea 161" x2="10.078" y2="19.299" transform="translate(0.448)" fill="none" stroke="#60e5ff" stroke-miterlimit="10" stroke-width="1"/>
                    </g>
                  </g>
                </g>
              </g>
            </g>
          </g>
          <rect id="Rectángulo_5394" data-name="Rectángulo 5394" width="36.955" height="49.658" rx="5.1" transform="matrix(0.463, 0.886, -0.886, 0.463, 120.228, 165.689)" fill="rgba(255,255,255,0.5)" stroke="#60e5ff" stroke-miterlimit="10" stroke-width="1"/>
          <g id="Grupo_54497" data-name="Grupo 54497">
            <path id="Trazado_102563" data-name="Trazado 102563" d="M49.366,304.781A35.313,35.313,0,0,0,74.553,332.5" transform="translate(-46.69 -135.306)" fill="none" stroke="#fff" stroke-linecap="round" stroke-linejoin="round" stroke-width="1"/>
            <path id="Trazado_102564" data-name="Trazado 102564" d="M46.373,259.787A111.059,111.059,0,0,1,63.76,210.68" transform="translate(-46.373 -125.33)" fill="none" stroke="#fff" stroke-linecap="round" stroke-linejoin="round" stroke-width="1"/>
            <path id="Trazado_102565" data-name="Trazado 102565" d="M90.289,281.21a46.985,46.985,0,0,1,3.989-19.923" transform="translate(-51.028 -130.695)" fill="none" stroke="#fff" stroke-linecap="round" stroke-linejoin="round" stroke-width="1"/>
            <path id="Trazado_102566" data-name="Trazado 102566" d="M118.2,135.222a146.221,146.221,0,0,1,43.786-20.014" transform="translate(-53.988 -115.208)" fill="none" stroke="#fff" stroke-linecap="round" stroke-linejoin="round" stroke-width="1"/>
            <path id="Trazado_102567" data-name="Trazado 102567" d="M326.156,128.3a100.1,100.1,0,0,1,36.764,18.653" transform="translate(-76.035 -116.596)" fill="none" stroke="#fff" stroke-linecap="round" stroke-linejoin="round" stroke-width="1"/>
            <path id="Trazado_102568" data-name="Trazado 102568" d="M341.135,219.923a149.816,149.816,0,0,1,24.174,21.46" transform="translate(-77.623 -126.31)" fill="none" stroke="#fff" stroke-linecap="round" stroke-linejoin="round" stroke-width="1"/>
            <path id="Trazado_102569" data-name="Trazado 102569" d="M432.809,219.178a153.21,153.21,0,0,1,31.445,39.163" transform="translate(-87.342 -126.231)" fill="none" stroke="#fff" stroke-linecap="round" stroke-linejoin="round" stroke-width="1"/>
          </g>
        </g>
        <g id="Grupo_54500" data-name="Grupo 54500" transform="translate(312.377 109.437)">
          <path id="Trazado_102570" data-name="Trazado 102570" d="M607.946,237.623H395.795l53.971,102.119H553.975Z" transform="translate(-395.795 -237.623)" fill="url(#radial-gradient-2)"/>
          <g id="Grupo_54499" data-name="Grupo 54499" transform="translate(52.717 92.39)">
            <path id="Trazado_102571" data-name="Trazado 102571" d="M460.17,410.069c-.02.127-.06.247-.072.375a6.081,6.081,0,0,0,6.055,6.627h85.064a6.081,6.081,0,0,0,6.055-6.627c-.012-.128-.052-.248-.072-.375Z" transform="translate(-455.326 -348.295)" fill="#8c8c8c"/>
            <path id="Trazado_102572" data-name="Trazado 102572" d="M550.4,406.7H465.841a6.479,6.479,0,0,1-6.306-5.844L454.8,348.172c-.357-3.956,2.258-7.2,5.843-7.2h94.966c3.585,0,6.2,3.247,5.843,7.2l-4.739,52.681A6.479,6.479,0,0,1,550.4,406.7Z" transform="translate(-454.764 -340.969)" fill="#bababa"/>
            <path id="Trazado_102573" data-name="Trazado 102573" d="M560.293,340.969H498.984l61.871,61.871a6.243,6.243,0,0,0,.543-1.987l4.739-52.681C566.493,344.216,563.878,340.969,560.293,340.969Z" transform="translate(-459.452 -340.969)" fill="#d1d1d1"/>
            <path id="Trazado_102574" data-name="Trazado 102574" d="M520.015,379.059a6.329,6.329,0,1,1-6.314-6.76A6.5,6.5,0,0,1,520.015,379.059Z" transform="translate(-460.342 -344.29)" fill="#fff"/>
          </g>
        </g>
      </g>
      <g id="Grupo_54502" data-name="Grupo 54502" transform="translate(246.512 213.12)">
        <path id="Trazado_102575" data-name="Trazado 102575" d="M297.818,252.449a2.25,2.25,0,0,1-1.157,1.914c-2.736,1.635-9.6,5.548-12.629,5.564-3.1.016-9.929-3.92-12.642-5.562a2.249,2.249,0,0,1-1.144-1.906V227.285h27.572Z" transform="translate(-270.246 -227.285)" fill="#ffb999"/>
        <path id="Trazado_102576" data-name="Trazado 102576" d="M270.246,237.322c1.834,5.1,7.312,8.8,13.786,8.8h0c6.474,0,11.953-3.7,13.786-8.8V227.285H270.246Z" transform="translate(-270.246 -227.285)" fill="#ff8663"/>
      </g>
      <g id="Grupo_54511" data-name="Grupo 54511" transform="translate(120.215 93.671)">
        <g id="Grupo_54504" data-name="Grupo 54504" transform="translate(0 101.252)">
          <rect id="Rectángulo_5395" data-name="Rectángulo 5395" width="89.266" height="31.544" fill="rgba(255,255,255,0.5)" stroke="#60e5ff" stroke-miterlimit="10" stroke-width="1"/>
          <g id="Grupo_54503" data-name="Grupo 54503" transform="translate(9.989 4.425)">
            <circle id="Elipse_4217" data-name="Elipse 4217" cx="12.371" cy="12.371" r="12.371" fill="#60e5ff"/>
            <path id="Trazado_102577" data-name="Trazado 102577" d="M158.8,230.346l-.341-.9a2.876,2.876,0,0,0-1.56-1.591l-2.275-1a.7.7,0,0,1-.437-.629v-.591a4.929,4.929,0,0,0,1.742-3.459,2.6,2.6,0,0,0-5.179,0,4.929,4.929,0,0,0,1.742,3.459v.591a.7.7,0,0,1-.437.629l-2.274,1a2.875,2.875,0,0,0-1.561,1.591l-.342.9Z" transform="translate(-140.965 -212.726)" fill="#fff"/>
            <circle id="Elipse_4218" data-name="Elipse 4218" cx="1.809" cy="1.809" r="1.809" transform="translate(23.066)" fill="#fff"/>
            <rect id="Rectángulo_5396" data-name="Rectángulo 5396" width="36.456" height="6.115" transform="translate(32.832 4.835)" fill="#fff"/>
            <rect id="Rectángulo_5397" data-name="Rectángulo 5397" width="24.268" height="3.356" transform="translate(32.832 15.591)" fill="#fff"/>
          </g>
        </g>
        <g id="Grupo_54506" data-name="Grupo 54506" transform="translate(59.103)">
          <rect id="Rectángulo_5398" data-name="Rectángulo 5398" width="89.266" height="31.544" fill="rgba(255,255,255,0.5)" stroke="#60e5ff" stroke-miterlimit="10" stroke-width="1"/>
          <g id="Grupo_54505" data-name="Grupo 54505" transform="translate(9.989 4.426)">
            <circle id="Elipse_4219" data-name="Elipse 4219" cx="12.371" cy="12.371" r="12.371" fill="#60e5ff"/>
            <path id="Trazado_102578" data-name="Trazado 102578" d="M224.909,117.086l-.341-.9a2.879,2.879,0,0,0-1.56-1.591l-2.275-1a.7.7,0,0,1-.436-.629v-.591a4.932,4.932,0,0,0,1.741-3.459,2.6,2.6,0,0,0-5.179,0,4.929,4.929,0,0,0,1.742,3.459v.591a.7.7,0,0,1-.437.629l-2.274,1a2.878,2.878,0,0,0-1.561,1.591l-.342.9Z" transform="translate(-207.077 -99.466)" fill="#fff"/>
            <circle id="Elipse_4220" data-name="Elipse 4220" cx="1.809" cy="1.809" r="1.809" transform="translate(23.066 0)" fill="#fff"/>
            <rect id="Rectángulo_5399" data-name="Rectángulo 5399" width="24.4" height="6.115" transform="translate(32.832 4.835)" fill="#fff"/>
            <rect id="Rectángulo_5400" data-name="Rectángulo 5400" width="33.811" height="3.356" transform="translate(32.832 15.591)" fill="#fff"/>
          </g>
        </g>
        <g id="Grupo_54508" data-name="Grupo 54508" transform="translate(229.084 8.394)">
          <rect id="Rectángulo_5401" data-name="Rectángulo 5401" width="62.215" height="83.104" fill="rgba(255,255,255,0.5)" stroke="#60e5ff" stroke-miterlimit="10" stroke-width="1.355"/>
          <g id="Grupo_54507" data-name="Grupo 54507" transform="translate(3.235 5.139)">
            <circle id="Elipse_4221" data-name="Elipse 4221" cx="19.966" cy="19.966" r="19.966" transform="translate(0 32.513) rotate(-54.511)" fill="#60e5ff"/>
            <path id="Trazado_102579" data-name="Trazado 102579" d="M429.57,150.056a.9.9,0,0,1-.836-.577l-.687-1.815a4.93,4.93,0,0,0-2.662-2.7l-4.577-2.008a2.305,2.305,0,0,1-1.414-2.084v-1.19a.9.9,0,0,1,.393-.741c1.724-1.164,3.111-4.354,3.111-6.218a4.352,4.352,0,0,0-8.63,0c0,1.864,1.387,5.054,3.111,6.218a.9.9,0,0,1,.393.741v1.19a2.305,2.305,0,0,1-1.414,2.084l-4.576,2.008a4.928,4.928,0,0,0-2.663,2.7l-.687,1.815a.894.894,0,1,1-1.672-.634l.687-1.814a6.722,6.722,0,0,1,3.617-3.7l4.576-2.008a.514.514,0,0,0,.344-.446v-.743a11.106,11.106,0,0,1-3.5-7.406,6.128,6.128,0,0,1,12.206,0,11.106,11.106,0,0,1-3.5,7.406v.743a.514.514,0,0,0,.344.446l4.577,2.008a6.724,6.724,0,0,1,3.616,3.7l.687,1.814a.895.895,0,0,1-.836,1.211Z" transform="translate(-390.735 -110.753)" fill="#fff"/>
            <rect id="Rectángulo_5402" data-name="Rectángulo 5402" width="40.907" height="5.479" transform="translate(7.419 52.131)" fill="#fff"/>
            <rect id="Rectángulo_5403" data-name="Rectángulo 5403" width="24.836" height="3.287" transform="translate(15.454 60.288)" fill="#fff"/>
          </g>
        </g>
        <g id="Grupo_54510" data-name="Grupo 54510" transform="translate(390.341 96.818)">
          <rect id="Rectángulo_5404" data-name="Rectángulo 5404" width="62.216" height="83.104" transform="translate(0)" fill="rgba(255,255,255,0.5)" stroke="#60e5ff" stroke-miterlimit="10" stroke-width="1.355"/>
          <g id="Grupo_54509" data-name="Grupo 54509" transform="translate(2.847 4.75)">
            <circle id="Elipse_4222" data-name="Elipse 4222" cx="19.966" cy="19.966" r="19.966" transform="translate(0 28.236) rotate(-45)" fill="#60e5ff"/>
            <path id="Trazado_102580" data-name="Trazado 102580" d="M609.95,248.966a.894.894,0,0,1-.836-.578l-.687-1.814a4.934,4.934,0,0,0-2.662-2.7l-4.578-2.007a2.3,2.3,0,0,1-1.413-2.084v-1.19a.9.9,0,0,1,.393-.741c1.724-1.165,3.111-4.354,3.111-6.218a4.352,4.352,0,0,0-8.63,0c0,1.864,1.387,5.053,3.111,6.218a.9.9,0,0,1,.393.741v1.19a2.3,2.3,0,0,1-1.414,2.083l-4.576,2.008a4.927,4.927,0,0,0-2.663,2.7l-.687,1.814a.894.894,0,0,1-1.672-.633l.687-1.815a6.728,6.728,0,0,1,3.617-3.7l4.576-2.007a.516.516,0,0,0,.344-.446v-.743a11.108,11.108,0,0,1-3.5-7.406,6.128,6.128,0,0,1,12.206,0,11.107,11.107,0,0,1-3.5,7.406v.743a.515.515,0,0,0,.344.446l4.577,2.007a6.728,6.728,0,0,1,3.616,3.7l.687,1.815a.893.893,0,0,1-.519,1.152A.877.877,0,0,1,609.95,248.966Z" transform="translate(-570.727 -209.274)" fill="#fff"/>
            <rect id="Rectángulo_5405" data-name="Rectángulo 5405" width="40.907" height="5.479" transform="translate(7.807 52.519)" fill="#fff"/>
            <rect id="Rectángulo_5406" data-name="Rectángulo 5406" width="24.836" height="3.287" transform="translate(15.842 60.676)" fill="#fff"/>
          </g>
        </g>
      </g>
      <path id="Trazado_102581" data-name="Trazado 102581" d="M143.325,131.43" transform="translate(-10.279 -4.003)" fill="none" stroke="#fff" stroke-linecap="round" stroke-linejoin="round" stroke-width="1"/>
      <g id="Grupo_54517" data-name="Grupo 54517" transform="translate(230.04 151.497)">
        <g id="Grupo_54514" data-name="Grupo 54514" transform="translate(0 42.913)">
          <g id="Grupo_54512" data-name="Grupo 54512">
            <path id="Trazado_102582" data-name="Trazado 102582" d="M260.317,214.091c1.378,4.381.756,8.023-1.387,8.135s-5-3.35-6.375-7.731-.756-8.024,1.387-8.135S258.939,209.709,260.317,214.091Z" transform="translate(-251.821 -206.357)" fill="#ffb999"/>
            <path id="Trazado_102583" data-name="Trazado 102583" d="M253.794,211.879a1.361,1.361,0,0,1,1.566-1.919c.927.242,1.316,1.319,1.561,2.245q.424,1.6.848,3.2a.479.479,0,0,0-.625-.129.954.954,0,0,0-.411.551,1.982,1.982,0,0,0,1.918,2.631" transform="translate(-252.016 -206.735)" fill="none" stroke="#ff8663" stroke-linecap="round" stroke-linejoin="round" stroke-width="1.106"/>
          </g>
          <g id="Grupo_54513" data-name="Grupo 54513" transform="translate(51.288)">
            <path id="Trazado_102584" data-name="Trazado 102584" d="M309.924,214.091c-1.378,4.381-.756,8.023,1.387,8.135s5-3.35,6.375-7.731.757-8.024-1.387-8.135S311.3,209.709,309.924,214.091Z" transform="translate(-309.191 -206.357)" fill="#ffb999"/>
            <path id="Trazado_102585" data-name="Trazado 102585" d="M317.352,211.879a1.361,1.361,0,0,0-1.566-1.919c-.927.242-1.316,1.319-1.561,2.245l-.847,3.2a.478.478,0,0,1,.624-.129.954.954,0,0,1,.411.551,1.982,1.982,0,0,1-1.919,2.631" transform="translate(-309.541 -206.735)" fill="none" stroke="#ff8663" stroke-linecap="round" stroke-linejoin="round" stroke-width="1.106"/>
          </g>
        </g>
        <path id="Trazado_102586" data-name="Trazado 102586" d="M307.008,199.8a27.075,27.075,0,0,0-3.138-12.178,24.689,24.689,0,0,0-39.912-4.242c-7.157,8.032-6.1,19.164-6.1,29.122a24.533,24.533,0,0,0,49.066,0C306.926,208.38,307.236,204.048,307.008,199.8Z" transform="translate(-252.455 -160.131)" fill="#ffb999"/>
        <path id="Trazado_102587" data-name="Trazado 102587" d="M303.87,187.622a24.689,24.689,0,0,0-39.912-4.242c-6.769,7.6-6.191,14.389-6.108,23.915,1.664-.706,1.019-2.1,2.071-4.387,1.006-2.188,2.98-3.129,4.863-4.559a5.37,5.37,0,0,0,1.387-5.537c1.048,2.928,6.65,8.353,9.919,5.589a2.55,2.55,0,0,0,.031-3.875c.932.631,1.7,1.675,2.6,2.383a24.562,24.562,0,0,0,3.191,2.127c7.1,3.979,14.172,4.623,22.079,3.265.4,1.937.863.3,1.457,2.191.324,1.029.589,2.566,1.506,2.081a59.776,59.776,0,0,0,.049-6.773A27.074,27.074,0,0,0,303.87,187.622Z" transform="translate(-252.455 -160.131)" fill="#ff8663"/>
        <path id="Trazado_102588" data-name="Trazado 102588" d="M309.405,191.608a46.638,46.638,0,0,0-1.683-11.842,52.1,52.1,0,0,0-1.973-5.657c-.379-.935-.561-1.122-.095-1.929.41-.713,1.224-.814,1.093-1.9a4.251,4.251,0,0,0-1.764-2.543,26.417,26.417,0,0,0-11.039-5.408c-4.054-.912-8.312-1.846-12.5-1.5-1.324.111-3.383-.023-4.494.779,1.028-.742.439-2.553-.733-3.039a4.892,4.892,0,0,0-3.677.424,30.927,30.927,0,0,0-10.309,7.116c-.612.639-7.107,9.068-4.853,9.282a4.021,4.021,0,0,0-2.509.532c-3.778,2.325-2.885,9.386-2.559,12.975a55.108,55.108,0,0,0,1.64,9.234q.606,2.268,1.4,4.479.414,1.148.88,2.277c.207.5.32,2,.824,1.894,1.894-.414,1.159-5.664,2.247-8.034,1.006-2.188,2.98-3.129,4.863-4.559a5.37,5.37,0,0,0,1.387-5.537c1.048,2.928,6.65,8.353,9.919,5.589a2.55,2.55,0,0,0,.031-3.875c.932.631,1.7,1.675,2.6,2.383a24.561,24.561,0,0,0,3.191,2.127c7.1,3.979,14.172,4.624,22.079,3.265a59.422,59.422,0,0,0,1.457,5.767c.374,1.186.668,3.051,1.974,1.712,1.039-1.066,1.414-2.972,1.7-4.37A45.654,45.654,0,0,0,309.405,191.608Z" transform="translate(-251.838 -158.355)" fill="#2b2b4a"/>
        <path id="Trazado_102589" data-name="Trazado 102589" d="M307.755,179.766a52.1,52.1,0,0,0-1.973-5.657c-.379-.935-.561-1.122-.095-1.929.41-.713,1.224-.814,1.093-1.9a4.251,4.251,0,0,0-1.764-2.543,26.417,26.417,0,0,0-11.039-5.408c-4.054-.912-8.312-1.846-12.5-1.5-1.324.111-3.383-.023-4.494.779,1.028-.742.439-2.553-.733-3.039a4.887,4.887,0,0,0-3.677.424,30.927,30.927,0,0,0-10.309,7.116c-.612.639-7.107,9.068-4.853,9.282a4.021,4.021,0,0,0-2.509.532,6.334,6.334,0,0,0-2.6,4.471c-.124.659,3.116-.161,3.359-.293a8.145,8.145,0,0,0,2.483-2.171,2.454,2.454,0,0,0,2.332,2.122,4.012,4.012,0,0,0,3.043-1.38,11.859,11.859,0,0,0,1.834-2.907c-.46.915.021,2.9.248,3.844a17.58,17.58,0,0,0,1.221,3.33c.9,1.911,2.484,4.027,4.6,4.668,3.383,1.025,3.25-6.922,3.381-8.618a14.609,14.609,0,0,0,5.689,3.349c3.517,1.1,6.048-1.5,5.974-5.058a15.928,15.928,0,0,0,10.06,5c1.2.115,3.612.2,4.645-.618,1.2-.947.762-3.335.563-4.613a.449.449,0,0,1,.816-.344,7.435,7.435,0,0,0,5.426,3.967C307.9,180.369,307.838,180.064,307.755,179.766Z" transform="translate(-251.872 -158.355)" fill="#464670"/>
        <g id="Grupo_54516" data-name="Grupo 54516" transform="translate(12.051 40.364)">
          <path id="Trazado_102590" data-name="Trazado 102590" d="M280.758,211.112l1.973,1.672a1.785,1.785,0,0,1,.416.441,1.815,1.815,0,0,1,.165.915c.015,3.51.047,7.381.047,7.381" transform="translate(-266.94 -204.311)" fill="none" stroke="#ff8663" stroke-linecap="round" stroke-linejoin="round" stroke-width="1.106"/>
          <path id="Trazado_102591" data-name="Trazado 102591" d="M272.778,213.407c0,1.624-.809,2.941-1.806,2.941s-1.807-1.317-1.807-2.941.809-2.941,1.807-2.941S272.778,211.783,272.778,213.407Z" transform="translate(-265.711 -204.243)" fill="#05052d"/>
          <path id="Trazado_102592" data-name="Trazado 102592" d="M300.529,213.407c0,1.624-.809,2.941-1.806,2.941s-1.807-1.317-1.807-2.941.809-2.941,1.807-2.941S300.529,211.783,300.529,213.407Z" transform="translate(-268.653 -204.243)" fill="#05052d"/>
          <g id="Grupo_54515" data-name="Grupo 54515" transform="translate(11.968 21.794)">
            <path id="Trazado_102593" data-name="Trazado 102593" d="M287.618,234.606a2.985,2.985,0,0,0,1.629-5.5,9.18,9.18,0,0,0-9.165,0,2.985,2.985,0,0,0,1.629,5.5Z" transform="translate(-278.688 -227.884)" fill="#05052d"/>
          </g>
          <path id="Trazado_102594" data-name="Trazado 102594" d="M296.3,203.505a18.219,18.219,0,0,0,7.908,2.442" transform="translate(-268.588 -203.505)" fill="none" stroke="#05052d" stroke-linecap="round" stroke-linejoin="round" stroke-width="1.659"/>
          <path id="Trazado_102595" data-name="Trazado 102595" d="M273.21,203.505a18.223,18.223,0,0,1-7.909,2.442" transform="translate(-265.301 -203.505)" fill="none" stroke="#05052d" stroke-linecap="round" stroke-linejoin="round" stroke-width="1.659"/>
        </g>
      </g>
    </g>
  </g>
</svg>
