<svg xmlns="http://www.w3.org/2000/svg" width="295" height="192.24" viewBox="0 0 295 192.24">
  <g id="Grupo_57833" data-name="Grupo 57833" transform="translate(-146 -139)">
    <rect id="Rectángulo_5407" data-name="Rectángulo 5407" width="295" height="62" transform="translate(146 255)" fill="#0077ec"/>
    <g id="Grupo_54655" data-name="Grupo 54655" transform="translate(140.786 92.391)">
      <path id="Trazado_102596" data-name="Trazado 102596" d="M250.849,176.945l-9.54-5.522V128.142c0-3.608-2.971-8.182-6.635-10.217L147.2,68.2c-2.108-1.171-3.986-1.246-5.2-.412a14.766,14.766,0,0,1-1.926,1.065c-.02.008-.038.018-.057.026l-.137.063v.01a3.586,3.586,0,0,0-1.77,3.448V94.74l.441,54.572L75.037,184.691a3.561,3.561,0,0,0-1.781,3.68v6.042a3.557,3.557,0,0,0,1.781,2.539l89.684,50.978a11.137,11.137,0,0,0,10.979,0l16.25-9.237,5.775,3.334a1.84,1.84,0,0,0,1.879.186l-.006,0,2.015-1.171c.794-.461,1.063-1.782.427-3.424l-1.48-3.823,12.789-7.27,23.527,13.617a2.925,2.925,0,0,0,3.163.217c-.041.027-.078.06-.12.084l2.474-1.438a2.6,2.6,0,0,0,1.165-1.824,2.548,2.548,0,0,0,2.366-.156c-.041.028-.079.06-.121.085l2.474-1.438a2.475,2.475,0,0,0,1.088-1.525,2.418,2.418,0,0,0,2.034-.257c-.041.028-.078.06-.121.084l2.475-1.438a3.026,3.026,0,0,0,1.254-2.773l.132-45.366A9.5,9.5,0,0,0,250.849,176.945Zm-80.907-8.8h0m-74.427-37.4c.055.008.109.013.165.025C95.624,130.758,95.571,130.752,95.516,130.745Zm.33.071c.047.014.094.024.142.04C95.939,130.84,95.892,130.83,95.845,130.816Zm.418.15.041.017Zm-1.038-.245c.053,0,.106,0,.161,0C95.331,130.72,95.279,130.722,95.225,130.721Zm.848-54.751-.03-.005Zm-.544-.1-.055-.007ZM95,75.8l-.071,0Zm-.519-.028c-.028,0-.056,0-.084,0C94.423,75.778,94.45,75.776,94.479,75.777Zm-2.794.565c-.052.025-.1.054-.155.08C91.582,76.4,91.632,76.367,91.685,76.342Zm2.289-.558c-.034,0-.066.006-.1.008C93.908,75.79,93.94,75.786,93.974,75.784Zm-.49.043c-.037,0-.073.012-.11.018C93.411,75.839,93.447,75.832,93.484,75.827Zm-.475.078c-.041.008-.08.02-.12.029C92.929,75.924,92.968,75.913,93.009,75.9Zm-.459.112c-.044.013-.086.028-.129.042C92.464,76.045,92.507,76.03,92.55,76.017Zm-.442.146c-.047.018-.094.04-.141.059C92.015,76.2,92.061,76.181,92.108,76.163Zm3,54.556c-.052,0-.1.012-.151.019C95.005,130.73,95.054,130.721,95.106,130.719Zm-.511.1c-.044.017-.085.039-.127.06C94.51,130.861,94.551,130.839,94.6,130.822Zm.247-.071c-.049.01-.094.026-.141.04C94.748,130.777,94.793,130.761,94.842,130.752ZM199.853,242.019c.022-.021.04-.047.06-.07C199.893,241.972,199.874,242,199.853,242.019Zm.2-.259c.021-.033.04-.067.059-.1C200.1,241.693,200.078,241.727,200.057,241.76Zm.161-.327c.014-.036.029-.072.041-.11C200.247,241.362,200.233,241.4,200.218,241.433Zm.122-.454c0-.013.006-.024.008-.036C200.347,240.956,200.343,240.966,200.341,240.979Zm.036-.466c0-.045,0-.092,0-.137C200.373,240.422,200.377,240.469,200.377,240.513Zm-.031-.476c-.007-.056-.015-.114-.025-.171C200.33,239.924,200.338,239.981,200.345,240.038Zm-.1-.531c-.013-.055-.024-.109-.04-.166C200.221,239.4,200.233,239.451,200.246,239.506Zm39.947.75c.038-.031.072-.07.108-.1C240.264,240.186,240.231,240.225,240.193,240.256Zm.246-.239c.034-.038.063-.084.095-.125C240.5,239.933,240.473,239.979,240.439,240.017Zm.214-.284c.031-.048.057-.1.085-.155C240.71,239.629,240.684,239.684,240.653,239.733Zm.18-.329c.03-.066.054-.139.081-.209C240.888,239.266,240.864,239.339,240.834,239.4Zm5.243-2.481c.037-.031.07-.069.1-.1C246.146,236.854,246.114,236.892,246.076,236.923Zm.246-.239c.032-.037.06-.08.09-.119C246.383,236.6,246.355,236.647,246.323,236.684Zm.214-.284c.028-.044.051-.094.077-.14C246.588,236.306,246.565,236.356,246.537,236.4Zm.18-.329c.024-.052.043-.112.065-.167C246.76,235.959,246.742,236.019,246.717,236.071Zm.144-.371,4.69-1.912c.037-.03.07-.068.1-.1C251.622,233.719,251.589,233.757,251.552,233.787Zm.246-.239c.031-.035.058-.077.087-.115C251.856,233.472,251.83,233.513,251.8,233.548Zm.214-.284c.027-.043.05-.093.076-.138C252.063,233.172,252.04,233.221,252.013,233.264Zm.18-.329c.026-.057.048-.121.071-.182C252.24,232.815,252.219,232.879,252.193,232.936Zm.144-.371c.025-.078.043-.164.063-.247C252.38,232.4,252.362,232.486,252.337,232.565Z" transform="translate(-4.592 -10.527)" fill="#004080" opacity="0.29"/>
      <g id="Grupo_54522" data-name="Grupo 54522" transform="translate(64.214 47.007)">
        <g id="Grupo_54521" data-name="Grupo 54521">
          <g id="Grupo_54519" data-name="Grupo 54519" transform="translate(64.903)">
            <path id="Trazado_102597" data-name="Trazado 102597" d="M297.327,184.457l-88-52.77c-3.664-2.035-6.634-6.609-6.634-10.217l-2.315-72.339a15.418,15.418,0,0,0,2.12-1.154c1.215-.834,3.093-.758,5.2.412l87.474,49.721c3.664,2.035,6.635,6.609,6.635,10.217v71.2a3.62,3.62,0,0,1-1.7,3.423C298.9,183.607,297.327,184.457,297.327,184.457Z" transform="translate(-198.614 -47.421)" fill="#9aabb2"/>
            <path id="Trazado_102598" data-name="Trazado 102598" d="M290.879,185.139,203.4,135.418c-3.664-2.035-6.635-6.609-6.635-10.217V54c0-3.608,2.971-4.883,6.635-2.847l87.474,49.721c3.664,2.035,6.635,6.609,6.635,10.217v71.2C297.513,185.9,294.543,187.174,290.879,185.139Z" transform="translate(-196.77 -48.83)" fill="#edebec"/>
            <path id="Trazado_102599" data-name="Trazado 102599" d="M292.415,184.493l-82.733-47.01a9.273,9.273,0,0,1-4.73-8.057V71.564a2.966,2.966,0,0,1,4.446-2.53l83.457,47.421a10.188,10.188,0,0,1,5.2,8.852v55.98A3.76,3.76,0,0,1,292.415,184.493Z" transform="translate(-200.946 -58.25)" fill="#5c8393"/>
            <path id="Trazado_102600" data-name="Trazado 102600" d="M302.627,111.747a2.14,2.14,0,0,0-.942-1.724c-.52-.289-.942.015-.942.678a2.14,2.14,0,0,0,.942,1.724C302.206,112.714,302.627,112.411,302.627,111.747Z" transform="translate(-249.835 -79.316)" fill="#acbcc1"/>
          </g>
          <path id="Trazado_102601" data-name="Trazado 102601" d="M219.134,315.684,161.007,347.9,70.7,296.569l-6.386-3.63V299.9a3.554,3.554,0,0,0,1.781,2.539l89.684,50.978a11.137,11.137,0,0,0,10.979,0L223.277,321.3a3.557,3.557,0,0,0,1.781-2.539V312.52Z" transform="translate(-64.265 -172.726)" fill="#9aabb2"/>
          <path id="Trazado_102602" data-name="Trazado 102602" d="M66.044,258.554l89.684,50.978a11.131,11.131,0,0,0,10.979,0l56.518-32.126a3.576,3.576,0,0,0,0-6.241l-89.684-50.978a11.13,11.13,0,0,0-10.979,0L66.044,252.314A3.575,3.575,0,0,0,66.044,258.554Z" transform="translate(-64.214 -134.857)" fill="#edebec"/>
          <path id="Trazado_102603" data-name="Trazado 102603" d="M297.612,267.138l-85.145-48.4v3.3l85.145,48.4Z" transform="translate(-139.878 -134.857)" fill="#acbcc1"/>
          <g id="Grupo_54520" data-name="Grupo 54520" transform="translate(28.032 87.722)">
            <path id="Trazado_102604" data-name="Trazado 102604" d="M163.323,245.817l-3.872-2.2c-.225-.128-.242-.326-.037-.443l2.651-1.511a.874.874,0,0,1,.778.021l3.872,2.2c.225.128.242.327.037.443l-2.651,1.51A.871.871,0,0,1,163.323,245.817Z" transform="translate(-140.76 -234.237)" fill="#acbcc1"/>
            <path id="Trazado_102605" data-name="Trazado 102605" d="M173.645,251.685l-3.872-2.2c-.225-.128-.242-.327-.037-.443l2.651-1.51a.873.873,0,0,1,.779.02l3.872,2.2c.225.128.241.327.037.443l-2.651,1.51A.873.873,0,0,1,173.645,251.685Z" transform="translate(-146.028 -237.231)" fill="#acbcc1"/>
            <path id="Trazado_102606" data-name="Trazado 102606" d="M183.967,257.552l-3.872-2.2c-.225-.128-.241-.326-.037-.443l2.651-1.51a.873.873,0,0,1,.779.021l3.872,2.2c.225.128.242.326.037.443l-2.651,1.511A.875.875,0,0,1,183.967,257.552Z" transform="translate(-151.296 -240.226)" fill="#acbcc1"/>
            <path id="Trazado_102607" data-name="Trazado 102607" d="M194.29,263.419l-3.872-2.2c-.225-.128-.241-.326-.037-.443l2.651-1.511a.872.872,0,0,1,.778.02l3.872,2.2c.225.128.242.327.037.443l-2.651,1.511A.871.871,0,0,1,194.29,263.419Z" transform="translate(-156.564 -243.221)" fill="#acbcc1"/>
            <path id="Trazado_102608" data-name="Trazado 102608" d="M204.612,269.287l-3.872-2.2c-.225-.128-.242-.327-.037-.443l2.651-1.51a.872.872,0,0,1,.778.02l3.872,2.2c.225.128.241.327.037.443l-2.651,1.511A.875.875,0,0,1,204.612,269.287Z" transform="translate(-161.832 -246.215)" fill="#acbcc1"/>
            <path id="Trazado_102609" data-name="Trazado 102609" d="M214.934,275.154l-3.872-2.2c-.225-.128-.241-.327-.037-.443l2.651-1.51a.873.873,0,0,1,.779.021l3.872,2.2c.225.128.241.326.037.443l-2.651,1.51A.873.873,0,0,1,214.934,275.154Z" transform="translate(-167.101 -249.21)" fill="#acbcc1"/>
            <path id="Trazado_102610" data-name="Trazado 102610" d="M225.257,281.022l-3.872-2.2c-.225-.128-.241-.326-.037-.443l2.651-1.51a.873.873,0,0,1,.779.02l3.872,2.2c.225.128.242.327.037.443l-2.651,1.511A.872.872,0,0,1,225.257,281.022Z" transform="translate(-172.369 -252.204)" fill="#acbcc1"/>
            <path id="Trazado_102611" data-name="Trazado 102611" d="M235.579,286.889l-3.872-2.2c-.225-.128-.242-.326-.037-.443l2.651-1.51a.875.875,0,0,1,.779.02l3.872,2.2c.225.128.241.326.037.443l-2.651,1.511A.875.875,0,0,1,235.579,286.889Z" transform="translate(-177.637 -255.199)" fill="#acbcc1"/>
            <path id="Trazado_102612" data-name="Trazado 102612" d="M245.9,292.756l-3.872-2.2c-.225-.128-.241-.326-.037-.443l2.651-1.511a.875.875,0,0,1,.778.021l3.872,2.2c.225.128.242.326.037.443l-2.651,1.51A.873.873,0,0,1,245.9,292.756Z" transform="translate(-182.905 -258.193)" fill="#acbcc1"/>
            <path id="Trazado_102613" data-name="Trazado 102613" d="M256.224,298.624l-3.872-2.2c-.225-.128-.241-.326-.037-.443l2.651-1.511a.872.872,0,0,1,.778.02l3.872,2.2c.225.128.241.326.037.443L257,298.644A.872.872,0,0,1,256.224,298.624Z" transform="translate(-188.174 -261.188)" fill="#acbcc1"/>
            <path id="Trazado_102614" data-name="Trazado 102614" d="M266.546,304.491l-3.872-2.2c-.225-.128-.242-.326-.037-.443l2.651-1.51a.872.872,0,0,1,.778.021l3.872,2.2c.225.128.241.326.037.443l-2.651,1.511A.875.875,0,0,1,266.546,304.491Z" transform="translate(-193.442 -264.182)" fill="#acbcc1"/>
            <path id="Trazado_102615" data-name="Trazado 102615" d="M276.868,310.358l-3.872-2.2c-.225-.128-.241-.326-.037-.443l2.651-1.51a.875.875,0,0,1,.779.021l3.872,2.2c.225.128.241.326.037.443l-2.651,1.51A.873.873,0,0,1,276.868,310.358Z" transform="translate(-198.71 -267.177)" fill="#acbcc1"/>
            <path id="Trazado_102616" data-name="Trazado 102616" d="M287.191,316.226l-3.872-2.2c-.225-.128-.241-.327-.037-.443l2.651-1.51a.873.873,0,0,1,.779.02l3.872,2.2c.225.128.242.326.037.443l-2.651,1.511A.874.874,0,0,1,287.191,316.226Z" transform="translate(-203.978 -270.171)" fill="#acbcc1"/>
            <path id="Trazado_102617" data-name="Trazado 102617" d="M314.68,331.852,311.7,330.16c-.225-.128-.242-.326-.037-.443l2.651-1.51a.875.875,0,0,1,.779.021l2.975,1.691c.225.128.242.326.037.443l-2.651,1.51A.874.874,0,0,1,314.68,331.852Z" transform="translate(-218.466 -278.406)" fill="#acbcc1"/>
            <path id="Trazado_102618" data-name="Trazado 102618" d="M323.109,336.642l-2.975-1.691c-.225-.128-.241-.327-.037-.443l2.651-1.51a.875.875,0,0,1,.779.02l2.975,1.692c.225.128.241.326.037.443l-2.651,1.511A.875.875,0,0,1,323.109,336.642Z" transform="translate(-222.767 -280.852)" fill="#acbcc1"/>
            <path id="Trazado_102619" data-name="Trazado 102619" d="M331.537,341.433l-2.975-1.691c-.225-.128-.242-.327-.037-.443l2.651-1.51a.875.875,0,0,1,.779.02l2.975,1.692c.225.128.242.326.037.443l-2.651,1.511A.874.874,0,0,1,331.537,341.433Z" transform="translate(-227.069 -283.297)" fill="#acbcc1"/>
            <path id="Trazado_102620" data-name="Trazado 102620" d="M339.966,346.224l-2.975-1.691c-.225-.128-.241-.327-.037-.443l2.651-1.51a.873.873,0,0,1,.778.02l2.975,1.691c.225.128.241.327.037.443l-2.651,1.51A.873.873,0,0,1,339.966,346.224Z" transform="translate(-231.371 -285.742)" fill="#acbcc1"/>
            <path id="Trazado_102621" data-name="Trazado 102621" d="M305.252,337.224l-2.975-1.691c-.225-.128-.242-.326-.037-.443l2.651-1.51a.875.875,0,0,1,.779.021l2.975,1.691c.225.128.241.326.037.443l-2.651,1.51A.872.872,0,0,1,305.252,337.224Z" transform="translate(-213.654 -281.148)" fill="#acbcc1"/>
            <path id="Trazado_102622" data-name="Trazado 102622" d="M313.681,342.014l-2.975-1.691c-.225-.128-.242-.326-.037-.443l2.651-1.511a.872.872,0,0,1,.778.021l2.975,1.691c.225.128.242.326.037.443l-2.651,1.511A.875.875,0,0,1,313.681,342.014Z" transform="translate(-217.956 -283.593)" fill="#acbcc1"/>
            <path id="Trazado_102623" data-name="Trazado 102623" d="M322.11,346.805l-2.975-1.691c-.225-.128-.241-.326-.037-.443l2.651-1.51a.873.873,0,0,1,.779.021l2.975,1.691c.225.128.241.326.037.443l-2.651,1.51A.874.874,0,0,1,322.11,346.805Z" transform="translate(-222.258 -286.038)" fill="#acbcc1"/>
            <path id="Trazado_102624" data-name="Trazado 102624" d="M295.825,342.6l-2.975-1.691c-.225-.128-.241-.326-.037-.443l2.651-1.511a.873.873,0,0,1,.778.02l2.975,1.691c.225.128.241.327.037.443l-2.651,1.51A.873.873,0,0,1,295.825,342.6Z" transform="translate(-208.842 -283.89)" fill="#acbcc1"/>
            <path id="Trazado_102625" data-name="Trazado 102625" d="M304.253,347.387l-2.975-1.691c-.225-.128-.242-.326-.037-.443l2.651-1.511a.875.875,0,0,1,.779.021l2.975,1.691c.225.128.242.326.037.443l-2.651,1.51A.873.873,0,0,1,304.253,347.387Z" transform="translate(-213.144 -286.335)" fill="#acbcc1"/>
            <path id="Trazado_102626" data-name="Trazado 102626" d="M312.682,352.178l-2.975-1.691c-.225-.128-.241-.326-.037-.443l2.651-1.511a.875.875,0,0,1,.779.021l2.975,1.691c.225.128.241.326.037.443l-2.651,1.51A.873.873,0,0,1,312.682,352.178Z" transform="translate(-217.446 -288.78)" fill="#acbcc1"/>
            <path id="Trazado_102627" data-name="Trazado 102627" d="M321.11,354.226l-2.975-1.691c-.225-.128-.242-.326-.037-.443l7.268-4.141a.872.872,0,0,1,.778.02l2.976,1.692c.225.128.242.326.037.443l-7.267,4.141A.875.875,0,0,1,321.11,354.226Z" transform="translate(-221.747 -288.483)" fill="#acbcc1"/>
            <path id="Trazado_102628" data-name="Trazado 102628" d="M286.4,347.968l-2.975-1.692c-.225-.128-.241-.326-.037-.443l2.651-1.51a.872.872,0,0,1,.778.02l2.975,1.691c.225.128.242.327.037.443l-2.651,1.51A.875.875,0,0,1,286.4,347.968Z" transform="translate(-204.031 -286.632)" fill="#acbcc1"/>
            <path id="Trazado_102629" data-name="Trazado 102629" d="M294.825,352.759l-2.975-1.692c-.225-.128-.242-.326-.037-.443l2.651-1.511a.875.875,0,0,1,.779.021l2.975,1.691c.225.128.241.327.037.443l-2.651,1.511A.872.872,0,0,1,294.825,352.759Z" transform="translate(-208.332 -289.077)" fill="#acbcc1"/>
            <path id="Trazado_102630" data-name="Trazado 102630" d="M303.254,357.55l-2.975-1.691c-.225-.128-.241-.326-.037-.443l2.651-1.511a.874.874,0,0,1,.778.021l2.975,1.691c.225.128.242.327.037.443l-2.651,1.51A.873.873,0,0,1,303.254,357.55Z" transform="translate(-212.634 -291.522)" fill="#acbcc1"/>
            <path id="Trazado_102631" data-name="Trazado 102631" d="M276.969,353.34l-2.975-1.691c-.225-.128-.242-.327-.037-.443l2.651-1.51a.875.875,0,0,1,.778.02l2.975,1.691c.225.128.242.327.037.443l-2.651,1.51A.873.873,0,0,1,276.969,353.34Z" transform="translate(-199.219 -289.374)" fill="#acbcc1"/>
            <path id="Trazado_102632" data-name="Trazado 102632" d="M285.4,358.131l-2.975-1.691c-.225-.128-.241-.327-.037-.443l2.651-1.51a.873.873,0,0,1,.779.02l2.975,1.692c.225.128.241.326.037.443l-2.651,1.511A.875.875,0,0,1,285.4,358.131Z" transform="translate(-203.521 -291.819)" fill="#acbcc1"/>
            <path id="Trazado_102633" data-name="Trazado 102633" d="M293.826,362.922l-2.975-1.692c-.225-.128-.241-.326-.037-.443l2.651-1.51a.872.872,0,0,1,.778.02l2.975,1.691c.225.128.242.327.037.443l-2.651,1.51A.873.873,0,0,1,293.826,362.922Z" transform="translate(-207.822 -294.264)" fill="#acbcc1"/>
            <path id="Trazado_102634" data-name="Trazado 102634" d="M302.255,364.971l-2.975-1.691c-.225-.128-.241-.327-.037-.443l7.267-4.141a.875.875,0,0,1,.779.021l2.975,1.691c.225.128.241.326.037.443l-7.267,4.141A.873.873,0,0,1,302.255,364.971Z" transform="translate(-212.124 -293.967)" fill="#acbcc1"/>
            <path id="Trazado_102635" data-name="Trazado 102635" d="M300.743,323.929l-7.1-4.037c-.225-.128-.241-.326-.037-.443l2.651-1.511a.874.874,0,0,1,.778.021l7.1,4.037c.225.128.241.326.037.443l-2.651,1.511A.875.875,0,0,1,300.743,323.929Z" transform="translate(-209.246 -273.166)" fill="#acbcc1"/>
            <path id="Trazado_102636" data-name="Trazado 102636" d="M179.012,236.9l-3.872-2.2c-.225-.128-.242-.326-.037-.443l2.651-1.511a.874.874,0,0,1,.778.021l3.872,2.2c.225.128.241.326.037.443l-2.651,1.51A.873.873,0,0,1,179.012,236.9Z" transform="translate(-148.767 -229.685)" fill="#acbcc1"/>
            <path id="Trazado_102637" data-name="Trazado 102637" d="M189.334,242.767l-3.872-2.2c-.225-.128-.241-.326-.037-.443l2.651-1.51a.873.873,0,0,1,.778.02l3.872,2.2c.225.128.241.326.037.443l-2.651,1.51A.873.873,0,0,1,189.334,242.767Z" transform="translate(-154.035 -232.68)" fill="#acbcc1"/>
            <path id="Trazado_102638" data-name="Trazado 102638" d="M199.657,248.634l-3.872-2.2c-.225-.128-.241-.326-.037-.443l2.651-1.51a.873.873,0,0,1,.779.021l3.872,2.2c.225.128.242.326.037.443l-2.651,1.511A.874.874,0,0,1,199.657,248.634Z" transform="translate(-159.303 -235.674)" fill="#acbcc1"/>
            <path id="Trazado_102639" data-name="Trazado 102639" d="M209.979,254.5l-3.872-2.2c-.225-.128-.241-.326-.037-.443l2.651-1.511a.875.875,0,0,1,.778.021l3.872,2.2c.225.128.241.327.037.443l-2.651,1.511A.872.872,0,0,1,209.979,254.5Z" transform="translate(-164.571 -238.669)" fill="#acbcc1"/>
            <path id="Trazado_102640" data-name="Trazado 102640" d="M220.3,260.369l-3.872-2.2c-.225-.128-.242-.327-.037-.443l2.651-1.51a.873.873,0,0,1,.779.02l3.872,2.2c.225.128.241.326.037.443l-2.651,1.51A.873.873,0,0,1,220.3,260.369Z" transform="translate(-169.84 -241.663)" fill="#acbcc1"/>
            <path id="Trazado_102641" data-name="Trazado 102641" d="M230.623,266.236l-3.872-2.2c-.225-.128-.241-.326-.037-.443l2.651-1.511a.873.873,0,0,1,.778.021l3.872,2.2c.225.128.242.326.037.443l-2.651,1.51A.873.873,0,0,1,230.623,266.236Z" transform="translate(-175.108 -244.658)" fill="#acbcc1"/>
            <path id="Trazado_102642" data-name="Trazado 102642" d="M240.946,272.1l-3.872-2.2c-.225-.128-.242-.326-.037-.443l2.651-1.511a.874.874,0,0,1,.778.021l3.872,2.2c.225.128.241.327.037.443l-2.651,1.51A.873.873,0,0,1,240.946,272.1Z" transform="translate(-180.376 -247.653)" fill="#acbcc1"/>
            <path id="Trazado_102643" data-name="Trazado 102643" d="M251.268,277.971l-3.872-2.2c-.225-.128-.241-.327-.037-.443l2.651-1.51a.873.873,0,0,1,.779.02l3.872,2.2c.225.128.242.326.037.443l-2.651,1.511A.875.875,0,0,1,251.268,277.971Z" transform="translate(-185.644 -250.647)" fill="#acbcc1"/>
            <path id="Trazado_102644" data-name="Trazado 102644" d="M261.591,283.838l-3.872-2.2c-.225-.128-.241-.326-.037-.443l2.651-1.511a.875.875,0,0,1,.779.021l3.872,2.2c.225.128.242.326.037.443l-2.651,1.51A.872.872,0,0,1,261.591,283.838Z" transform="translate(-190.913 -253.642)" fill="#acbcc1"/>
            <path id="Trazado_102645" data-name="Trazado 102645" d="M271.913,289.706l-3.872-2.2c-.225-.128-.241-.327-.037-.443l2.651-1.51a.872.872,0,0,1,.778.02l3.872,2.2c.225.128.241.327.037.443l-2.651,1.51A.873.873,0,0,1,271.913,289.706Z" transform="translate(-196.181 -256.636)" fill="#acbcc1"/>
            <path id="Trazado_102646" data-name="Trazado 102646" d="M282.235,295.573l-3.872-2.2c-.225-.128-.242-.327-.037-.443l2.651-1.51a.873.873,0,0,1,.779.021l3.872,2.2c.225.128.241.326.037.443l-2.651,1.511A.873.873,0,0,1,282.235,295.573Z" transform="translate(-201.449 -259.631)" fill="#acbcc1"/>
            <path id="Trazado_102647" data-name="Trazado 102647" d="M292.558,301.44l-3.872-2.2c-.225-.128-.241-.326-.037-.443l2.651-1.511a.875.875,0,0,1,.779.021l3.872,2.2c.225.128.242.327.037.443l-2.651,1.51A.87.87,0,0,1,292.558,301.44Z" transform="translate(-206.717 -262.625)" fill="#acbcc1"/>
            <path id="Trazado_102648" data-name="Trazado 102648" d="M302.88,307.308l-3.872-2.2c-.225-.128-.241-.327-.037-.443l2.651-1.51a.871.871,0,0,1,.778.021l3.872,2.2c.225.128.241.327.037.443l-2.651,1.511A.872.872,0,0,1,302.88,307.308Z" transform="translate(-211.985 -265.62)" fill="#acbcc1"/>
            <path id="Trazado_102649" data-name="Trazado 102649" d="M330.369,322.933l-2.975-1.691c-.225-.128-.242-.326-.037-.443l2.651-1.511a.875.875,0,0,1,.779.02L333.762,321c.225.128.241.326.037.443l-2.651,1.511A.874.874,0,0,1,330.369,322.933Z" transform="translate(-226.473 -273.855)" fill="#acbcc1"/>
            <path id="Trazado_102650" data-name="Trazado 102650" d="M338.8,327.724l-2.975-1.691c-.225-.128-.241-.326-.037-.443l2.651-1.51a.872.872,0,0,1,.778.021l2.975,1.691c.225.128.242.326.037.443l-2.651,1.511A.873.873,0,0,1,338.8,327.724Z" transform="translate(-230.775 -276.3)" fill="#acbcc1"/>
            <path id="Trazado_102651" data-name="Trazado 102651" d="M347.227,332.515l-2.975-1.691c-.225-.128-.241-.327-.037-.443l2.651-1.511a.873.873,0,0,1,.779.02l2.975,1.691c.225.128.242.327.037.443L348,332.536A.874.874,0,0,1,347.227,332.515Z" transform="translate(-235.076 -278.745)" fill="#acbcc1"/>
            <path id="Trazado_102652" data-name="Trazado 102652" d="M355.655,337.306l-2.975-1.691c-.225-.128-.242-.327-.037-.443l2.651-1.51a.87.87,0,0,1,.778.021l2.975,1.691c.225.128.242.326.037.443l-2.651,1.51A.873.873,0,0,1,355.655,337.306Z" transform="translate(-239.378 -281.19)" fill="#acbcc1"/>
            <path id="Trazado_102653" data-name="Trazado 102653" d="M316.432,315.011l-7.1-4.037c-.225-.128-.242-.326-.037-.443l2.651-1.51a.873.873,0,0,1,.779.021l7.1,4.037c.225.128.241.326.037.443l-2.651,1.51A.873.873,0,0,1,316.432,315.011Z" transform="translate(-217.254 -268.614)" fill="#acbcc1"/>
            <path id="Trazado_102654" data-name="Trazado 102654" d="M156.238,252.522l-6.215-3.533c-.225-.128-.242-.326-.037-.443l2.651-1.51a.872.872,0,0,1,.778.02l6.216,3.533c.225.128.242.326.037.443l-2.651,1.511A.873.873,0,0,1,156.238,252.522Z" transform="translate(-135.948 -236.979)" fill="#acbcc1"/>
            <path id="Trazado_102655" data-name="Trazado 102655" d="M169,259.778l-3.872-2.2c-.225-.128-.242-.326-.037-.443l2.651-1.51a.873.873,0,0,1,.778.02l3.872,2.2c.225.128.242.326.037.443l-2.651,1.51A.872.872,0,0,1,169,259.778Z" transform="translate(-143.659 -241.362)" fill="#acbcc1"/>
            <path id="Trazado_102656" data-name="Trazado 102656" d="M179.326,265.645l-3.872-2.2c-.225-.128-.242-.326-.037-.443l2.651-1.511a.873.873,0,0,1,.779.021l3.872,2.2c.225.128.241.326.037.443l-2.651,1.511A.875.875,0,0,1,179.326,265.645Z" transform="translate(-148.927 -244.356)" fill="#acbcc1"/>
            <path id="Trazado_102657" data-name="Trazado 102657" d="M189.648,271.512l-3.872-2.2c-.225-.128-.241-.326-.037-.443l2.651-1.511a.875.875,0,0,1,.779.021l3.872,2.2c.225.128.242.326.037.443l-2.651,1.51A.873.873,0,0,1,189.648,271.512Z" transform="translate(-154.195 -247.351)" fill="#acbcc1"/>
            <path id="Trazado_102658" data-name="Trazado 102658" d="M199.971,277.38l-3.872-2.2c-.225-.128-.241-.326-.037-.443l2.651-1.51a.872.872,0,0,1,.778.02l3.872,2.2c.225.128.241.326.037.443l-2.651,1.51A.872.872,0,0,1,199.971,277.38Z" transform="translate(-159.464 -250.345)" fill="#acbcc1"/>
            <path id="Trazado_102659" data-name="Trazado 102659" d="M210.293,283.247l-3.872-2.2c-.225-.128-.242-.326-.037-.443l2.651-1.51a.873.873,0,0,1,.779.021l3.872,2.2c.225.128.241.326.037.443l-2.651,1.51A.873.873,0,0,1,210.293,283.247Z" transform="translate(-164.732 -253.34)" fill="#acbcc1"/>
            <path id="Trazado_102660" data-name="Trazado 102660" d="M220.615,289.115l-3.872-2.2c-.225-.128-.241-.326-.037-.443l2.651-1.511a.875.875,0,0,1,.779.021l3.872,2.2c.225.128.242.326.037.443l-2.651,1.51A.875.875,0,0,1,220.615,289.115Z" transform="translate(-170 -256.334)" fill="#acbcc1"/>
            <path id="Trazado_102661" data-name="Trazado 102661" d="M230.938,294.982l-3.872-2.2c-.225-.128-.241-.327-.037-.443l2.651-1.51a.873.873,0,0,1,.779.02l3.872,2.2c.225.128.242.326.037.443L231.716,295A.872.872,0,0,1,230.938,294.982Z" transform="translate(-175.268 -259.329)" fill="#acbcc1"/>
            <path id="Trazado_102662" data-name="Trazado 102662" d="M241.26,300.849l-3.872-2.2c-.225-.128-.242-.326-.037-.443L240,296.695a.875.875,0,0,1,.779.021l3.872,2.2c.225.128.241.326.037.443l-2.651,1.511A.873.873,0,0,1,241.26,300.849Z" transform="translate(-180.536 -262.324)" fill="#acbcc1"/>
            <path id="Trazado_102663" data-name="Trazado 102663" d="M251.582,306.717l-3.872-2.2c-.225-.128-.241-.327-.037-.443l2.651-1.511a.875.875,0,0,1,.779.021l3.872,2.2c.225.128.242.327.037.443l-2.651,1.511A.873.873,0,0,1,251.582,306.717Z" transform="translate(-185.805 -265.318)" fill="#acbcc1"/>
            <path id="Trazado_102664" data-name="Trazado 102664" d="M261.9,312.584l-3.872-2.2c-.225-.128-.241-.327-.037-.443l2.651-1.51a.872.872,0,0,1,.778.021l3.872,2.2c.225.128.241.326.037.443l-2.651,1.511A.875.875,0,0,1,261.9,312.584Z" transform="translate(-191.073 -268.313)" fill="#acbcc1"/>
            <path id="Trazado_102665" data-name="Trazado 102665" d="M272.227,318.452l-3.872-2.2c-.225-.128-.242-.326-.037-.443l2.651-1.511a.875.875,0,0,1,.779.021l3.872,2.2c.225.128.241.326.037.443l-2.651,1.511A.875.875,0,0,1,272.227,318.452Z" transform="translate(-196.341 -271.307)" fill="#acbcc1"/>
            <path id="Trazado_102666" data-name="Trazado 102666" d="M282.549,324.319l-3.872-2.2c-.225-.128-.241-.327-.037-.443l2.651-1.51a.873.873,0,0,1,.779.02l3.872,2.2c.225.128.242.327.037.443l-2.651,1.511A.873.873,0,0,1,282.549,324.319Z" transform="translate(-201.609 -274.302)" fill="#acbcc1"/>
            <path id="Trazado_102667" data-name="Trazado 102667" d="M293.758,330.69l-4.759-2.7c-.225-.128-.241-.326-.037-.443l2.651-1.51a.872.872,0,0,1,.778.021l4.759,2.7c.225.128.241.326.037.443l-2.651,1.51A.875.875,0,0,1,293.758,330.69Z" transform="translate(-206.878 -277.296)" fill="#acbcc1"/>
            <path id="Trazado_102668" data-name="Trazado 102668" d="M148.088,258.576l-7.663-4.355c-.225-.128-.241-.327-.037-.443l2.651-1.511a.873.873,0,0,1,.779.02l7.662,4.356c.225.128.242.326.037.443l-2.651,1.51A.872.872,0,0,1,148.088,258.576Z" transform="translate(-131.049 -239.649)" fill="#acbcc1"/>
            <path id="Trazado_102669" data-name="Trazado 102669" d="M162.361,266.69l-3.872-2.2c-.225-.128-.242-.327-.037-.443l2.651-1.51a.873.873,0,0,1,.779.02l3.872,2.2c.225.128.241.326.037.443l-2.651,1.51A.872.872,0,0,1,162.361,266.69Z" transform="translate(-140.269 -244.889)" fill="#acbcc1"/>
            <path id="Trazado_102670" data-name="Trazado 102670" d="M172.683,272.557l-3.872-2.2c-.225-.128-.242-.326-.037-.443l2.651-1.511a.873.873,0,0,1,.779.021l3.872,2.2c.225.128.241.326.037.443l-2.651,1.511A.873.873,0,0,1,172.683,272.557Z" transform="translate(-145.537 -247.884)" fill="#acbcc1"/>
            <path id="Trazado_102671" data-name="Trazado 102671" d="M183.005,278.425l-3.872-2.2c-.225-.128-.241-.326-.037-.443l2.651-1.511a.875.875,0,0,1,.779.021l3.872,2.2c.225.128.242.326.037.443l-2.651,1.51A.873.873,0,0,1,183.005,278.425Z" transform="translate(-150.805 -250.879)" fill="#acbcc1"/>
            <path id="Trazado_102672" data-name="Trazado 102672" d="M193.328,284.292l-3.872-2.2c-.225-.128-.242-.327-.037-.443l2.651-1.511a.872.872,0,0,1,.778.02l3.872,2.2c.225.128.241.326.037.443l-2.651,1.511A.873.873,0,0,1,193.328,284.292Z" transform="translate(-156.073 -253.873)" fill="#acbcc1"/>
            <path id="Trazado_102673" data-name="Trazado 102673" d="M203.65,290.159l-3.872-2.2c-.225-.128-.241-.326-.037-.443l2.651-1.51a.873.873,0,0,1,.778.021l3.872,2.2c.225.128.242.326.037.443l-2.651,1.51A.873.873,0,0,1,203.65,290.159Z" transform="translate(-161.342 -256.868)" fill="#acbcc1"/>
            <path id="Trazado_102674" data-name="Trazado 102674" d="M213.973,296.027l-3.872-2.2c-.225-.128-.241-.327-.037-.443l2.651-1.51a.873.873,0,0,1,.779.02l3.872,2.2c.225.128.242.327.037.443l-2.651,1.51A.872.872,0,0,1,213.973,296.027Z" transform="translate(-166.61 -259.862)" fill="#acbcc1"/>
            <path id="Trazado_102675" data-name="Trazado 102675" d="M224.295,301.894l-3.872-2.2c-.225-.128-.242-.327-.037-.443l2.651-1.511a.871.871,0,0,1,.778.021l3.872,2.2c.225.128.241.326.037.443l-2.651,1.511A.874.874,0,0,1,224.295,301.894Z" transform="translate(-171.878 -262.857)" fill="#acbcc1"/>
            <path id="Trazado_102676" data-name="Trazado 102676" d="M234.617,307.761l-3.872-2.2c-.225-.128-.242-.326-.037-.443l2.651-1.511a.875.875,0,0,1,.778.021l3.872,2.2c.225.128.241.327.037.443l-2.651,1.51A.873.873,0,0,1,234.617,307.761Z" transform="translate(-177.146 -265.851)" fill="#acbcc1"/>
            <path id="Trazado_102677" data-name="Trazado 102677" d="M244.939,313.629l-3.872-2.2c-.225-.128-.241-.327-.037-.443l2.651-1.51a.873.873,0,0,1,.779.02l3.872,2.2c.225.128.242.327.037.443l-2.651,1.51A.873.873,0,0,1,244.939,313.629Z" transform="translate(-182.414 -268.846)" fill="#acbcc1"/>
            <path id="Trazado_102678" data-name="Trazado 102678" d="M255.262,319.5l-3.872-2.2c-.225-.128-.242-.326-.037-.443l2.651-1.51a.872.872,0,0,1,.778.021l3.872,2.2c.225.128.241.326.037.443l-2.651,1.511A.874.874,0,0,1,255.262,319.5Z" transform="translate(-187.683 -271.84)" fill="#acbcc1"/>
            <path id="Trazado_102679" data-name="Trazado 102679" d="M265.584,325.364l-3.872-2.2c-.225-.128-.241-.326-.037-.443l2.651-1.51a.873.873,0,0,1,.779.02l3.872,2.2c.225.128.242.327.037.443l-2.651,1.51A.873.873,0,0,1,265.584,325.364Z" transform="translate(-192.951 -274.835)" fill="#acbcc1"/>
            <path id="Trazado_102680" data-name="Trazado 102680" d="M275.906,331.231l-3.872-2.2c-.225-.128-.241-.326-.037-.443l2.651-1.511a.875.875,0,0,1,.779.02l3.872,2.2c.225.128.242.326.037.443l-2.651,1.511A.875.875,0,0,1,275.906,331.231Z" transform="translate(-198.219 -277.83)" fill="#acbcc1"/>
            <path id="Trazado_102681" data-name="Trazado 102681" d="M280.5,333.843l-8.468-4.813c-.225-.128-.241-.326-.037-.443l2.651-1.511a.875.875,0,0,1,.779.02l8.468,4.814c.225.128.242.326.037.443l-2.651,1.511A.875.875,0,0,1,280.5,333.843Z" transform="translate(-198.219 -277.83)" fill="#acbcc1"/>
            <path id="Trazado_102682" data-name="Trazado 102682" d="M140.043,264.691l-9.008-5.12c-.225-.128-.242-.326-.037-.443l2.651-1.511a.874.874,0,0,1,.778.021l9.008,5.12c.225.128.241.327.037.443l-2.651,1.511A.871.871,0,0,1,140.043,264.691Z" transform="translate(-126.257 -242.38)" fill="#acbcc1"/>
            <path id="Trazado_102683" data-name="Trazado 102683" d="M155.718,273.6l-3.872-2.2c-.225-.128-.242-.327-.037-.443l2.651-1.511a.873.873,0,0,1,.779.02l3.872,2.2c.225.128.241.326.037.443l-2.651,1.51A.873.873,0,0,1,155.718,273.6Z" transform="translate(-136.878 -248.417)" fill="#acbcc1"/>
            <path id="Trazado_102684" data-name="Trazado 102684" d="M166.04,279.469l-3.872-2.2c-.225-.128-.241-.326-.037-.443l2.651-1.51a.873.873,0,0,1,.779.021l3.872,2.2c.225.128.242.326.037.443l-2.651,1.511A.873.873,0,0,1,166.04,279.469Z" transform="translate(-142.147 -251.412)" fill="#acbcc1"/>
            <path id="Trazado_102685" data-name="Trazado 102685" d="M176.363,285.337l-3.872-2.2c-.225-.128-.241-.326-.037-.443l2.651-1.511a.875.875,0,0,1,.779.021l3.872,2.2c.225.128.242.327.037.443l-2.651,1.51A.872.872,0,0,1,176.363,285.337Z" transform="translate(-147.415 -254.406)" fill="#acbcc1"/>
            <path id="Trazado_102686" data-name="Trazado 102686" d="M186.685,291.2l-3.872-2.2c-.225-.128-.242-.327-.037-.443l2.651-1.51a.875.875,0,0,1,.779.02l3.872,2.2c.225.128.241.326.037.443l-2.651,1.511A.875.875,0,0,1,186.685,291.2Z" transform="translate(-152.683 -257.401)" fill="#acbcc1"/>
            <path id="Trazado_102687" data-name="Trazado 102687" d="M197.007,297.071l-3.872-2.2c-.225-.128-.241-.326-.037-.443l2.651-1.51a.873.873,0,0,1,.779.021l3.872,2.2c.225.128.241.327.037.443l-2.651,1.511A.873.873,0,0,1,197.007,297.071Z" transform="translate(-157.951 -260.395)" fill="#acbcc1"/>
            <path id="Trazado_102688" data-name="Trazado 102688" d="M207.33,302.939l-3.872-2.2c-.225-.128-.241-.327-.037-.443l2.651-1.511a.872.872,0,0,1,.778.02l3.872,2.2c.225.128.241.326.037.443l-2.651,1.511A.874.874,0,0,1,207.33,302.939Z" transform="translate(-163.219 -263.39)" fill="#acbcc1"/>
            <path id="Trazado_102689" data-name="Trazado 102689" d="M217.652,308.806l-3.872-2.2c-.225-.128-.242-.327-.037-.443l2.651-1.51a.873.873,0,0,1,.779.021l3.872,2.2c.225.128.241.326.037.443l-2.651,1.511A.875.875,0,0,1,217.652,308.806Z" transform="translate(-168.488 -266.385)" fill="#acbcc1"/>
            <path id="Trazado_102690" data-name="Trazado 102690" d="M227.974,314.674l-3.872-2.2c-.225-.128-.241-.326-.037-.443l2.651-1.511a.875.875,0,0,1,.779.021l3.872,2.2c.225.128.242.327.037.443l-2.651,1.511A.875.875,0,0,1,227.974,314.674Z" transform="translate(-173.756 -269.379)" fill="#acbcc1"/>
            <path id="Trazado_102691" data-name="Trazado 102691" d="M238.3,320.541l-3.872-2.2c-.225-.128-.241-.326-.037-.443l2.651-1.511a.873.873,0,0,1,.779.021l3.872,2.2c.225.128.242.326.037.443l-2.651,1.511A.874.874,0,0,1,238.3,320.541Z" transform="translate(-179.024 -272.374)" fill="#acbcc1"/>
            <path id="Trazado_102692" data-name="Trazado 102692" d="M248.619,326.408l-3.872-2.2c-.225-.128-.242-.326-.037-.443l2.651-1.51a.875.875,0,0,1,.778.021l3.872,2.2c.225.128.241.326.037.443l-2.651,1.51A.875.875,0,0,1,248.619,326.408Z" transform="translate(-184.292 -275.368)" fill="#acbcc1"/>
            <path id="Trazado_102693" data-name="Trazado 102693" d="M258.941,332.276l-3.872-2.2c-.225-.128-.241-.326-.037-.443l2.651-1.51a.873.873,0,0,1,.779.02l3.872,2.2c.225.128.241.327.037.443l-2.651,1.51A.873.873,0,0,1,258.941,332.276Z" transform="translate(-189.561 -278.363)" fill="#acbcc1"/>
            <path id="Trazado_102694" data-name="Trazado 102694" d="M272.514,339.991l-7.123-4.049c-.225-.128-.241-.326-.037-.443l2.651-1.51a.873.873,0,0,1,.779.021l7.123,4.048c.225.128.242.327.037.443l-2.651,1.51A.873.873,0,0,1,272.514,339.991Z" transform="translate(-194.829 -281.357)" fill="#acbcc1"/>
            <path id="Trazado_102695" data-name="Trazado 102695" d="M132,270.807l-10.353-5.885c-.225-.128-.242-.326-.037-.443l2.651-1.51a.875.875,0,0,1,.779.021l10.352,5.884c.225.128.242.327.037.443l-2.651,1.51A.872.872,0,0,1,132,270.807Z" transform="translate(-121.464 -245.111)" fill="#acbcc1"/>
            <path id="Trazado_102696" data-name="Trazado 102696" d="M149.075,280.514l-3.872-2.2c-.225-.128-.241-.326-.037-.443l2.651-1.51a.875.875,0,0,1,.779.02l3.872,2.2c.225.128.242.326.037.443l-2.651,1.511A.875.875,0,0,1,149.075,280.514Z" transform="translate(-133.488 -251.945)" fill="#acbcc1"/>
            <path id="Trazado_102697" data-name="Trazado 102697" d="M159.4,286.381l-3.872-2.2c-.225-.128-.241-.326-.037-.443l2.651-1.51a.875.875,0,0,1,.779.021l3.872,2.2c.225.128.242.327.037.443l-2.651,1.51A.873.873,0,0,1,159.4,286.381Z" transform="translate(-138.756 -254.94)" fill="#acbcc1"/>
            <path id="Trazado_102698" data-name="Trazado 102698" d="M189.821,303.864l-24.2-13.574c-.225-.128-.241-.326-.037-.443l2.651-1.51a.873.873,0,0,1,.779.02l24.2,13.574c.225.128.241.326.037.443l-2.651,1.51A.875.875,0,0,1,189.821,303.864Z" transform="translate(-143.909 -258.058)" fill="#acbcc1"/>
            <path id="Trazado_102699" data-name="Trazado 102699" d="M221.331,321.586l-3.872-2.2c-.225-.128-.241-.326-.037-.443l2.651-1.511a.875.875,0,0,1,.779.021l3.872,2.2c.225.128.242.327.037.443l-2.651,1.51A.875.875,0,0,1,221.331,321.586Z" transform="translate(-170.365 -272.907)" fill="#acbcc1"/>
            <path id="Trazado_102700" data-name="Trazado 102700" d="M231.654,327.453l-3.872-2.2c-.225-.128-.242-.326-.037-.443l2.651-1.51a.872.872,0,0,1,.778.021l3.872,2.2c.225.128.241.326.037.443l-2.651,1.511A.874.874,0,0,1,231.654,327.453Z" transform="translate(-175.634 -275.901)" fill="#acbcc1"/>
            <path id="Trazado_102701" data-name="Trazado 102701" d="M241.976,333.32l-3.872-2.2c-.225-.128-.242-.326-.037-.443l2.651-1.51a.875.875,0,0,1,.779.021l3.872,2.2c.225.128.241.326.037.443l-2.651,1.511A.875.875,0,0,1,241.976,333.32Z" transform="translate(-180.902 -278.896)" fill="#acbcc1"/>
            <path id="Trazado_102702" data-name="Trazado 102702" d="M252.3,339.188l-3.872-2.2c-.225-.128-.241-.327-.037-.443l2.651-1.51a.873.873,0,0,1,.779.02l3.872,2.2c.225.128.242.327.037.443l-2.651,1.511A.873.873,0,0,1,252.3,339.188Z" transform="translate(-186.17 -281.89)" fill="#acbcc1"/>
            <path id="Trazado_102703" data-name="Trazado 102703" d="M264.526,346.138l-5.778-3.284c-.225-.128-.241-.326-.037-.443l2.651-1.51a.872.872,0,0,1,.778.021l5.778,3.284c.225.128.242.326.037.443l-2.651,1.51A.873.873,0,0,1,264.526,346.138Z" transform="translate(-191.438 -284.885)" fill="#acbcc1"/>
            <path id="Trazado_102704" data-name="Trazado 102704" d="M172.123,332.917l-23.8-13.53c-1.052-.6-1.129-1.525-.172-2.071l13.515-7.7a4.083,4.083,0,0,1,3.639.1l23.8,13.53c1.053.6,1.13,1.525.172,2.071l-13.515,7.7A4.083,4.083,0,0,1,172.123,332.917Z" transform="translate(-134.741 -268.764)" fill="#acbcc1"/>
            <path id="Trazado_102705" data-name="Trazado 102705" d="M197.711,230.638l-6.786-3.857a1.7,1.7,0,0,0-1.518-.04h0c-.4.227-.367.614.072.864l6.786,3.857a1.7,1.7,0,0,0,1.518.04h0C198.182,231.274,198.15,230.888,197.711,230.638Z" transform="translate(-155.997 -226.582)" fill="#acbcc1"/>
          </g>
        </g>
        <path id="Trazado_102706" data-name="Trazado 102706" d="M237.339,82.7l27.308,15.517,26.18,83.164-27.6-15.657Z" transform="translate(-152.572 -65.427)" fill="#8eb1bc" opacity="0.66"/>
        <path id="Trazado_102707" data-name="Trazado 102707" d="M307.711,122.593l6.628,3.812,26.09,83.112-6.826-3.9Z" transform="translate(-188.488 -85.787)" fill="#8eb1bc" opacity="0.66"/>
      </g>
      <g id="Grupo_54526" data-name="Grupo 54526" transform="translate(152.811 87.64)">
        <g id="Grupo_54525" data-name="Grupo 54525" transform="translate(0)" style="isolation: isolate">
          <path id="Trazado_102708" data-name="Trazado 102708" d="M266.215,135.584c-11.212-6.473-20.367-.047-20.366,11.606-.037,12.884,9.022,28.574,20.234,35.047s20.33,1.277,20.366-11.606S277.427,142.057,266.215,135.584Z" transform="translate(-245.512 -131.737)" fill="#edebec"/>
          <path id="Trazado_102709" data-name="Trazado 102709" d="M280.244,209.745a27.873,27.873,0,0,1-8.366-7.88l-2.439,1.417a27.864,27.864,0,0,0,8.366,7.88c4.051,2.339,7.722,2.556,10.373,1.015l2.439-1.417C287.966,212.3,284.3,212.084,280.244,209.745Z" transform="translate(-257.552 -166.878)" fill="#d33718"/>
          <path id="Trazado_102710" data-name="Trazado 102710" d="M263.534,147.441l-2.439,1.418c-2.618,1.521-4.241,4.756-4.254,9.352a27.6,27.6,0,0,0,2.62,11.151l2.439-1.417a27.6,27.6,0,0,1-2.62-11.151C259.293,152.2,260.916,148.962,263.534,147.441Z" transform="translate(-251.122 -139.102)" fill="#c12b48"/>
          <g id="Grupo_54523" data-name="Grupo 54523" transform="translate(0 1.417)">
            <path id="Trazado_102711" data-name="Trazado 102711" d="M265.528,136.088c11.212,6.473,20.271,22.164,20.234,35.047s-9.154,18.08-20.366,11.606-20.271-22.164-20.234-35.047S254.316,129.616,265.528,136.088ZM250.88,151a27.6,27.6,0,0,0,2.62,11.151l20.373-11.61a27.859,27.859,0,0,0-8.364-7.878c-8.054-4.65-14.6-.916-14.629,8.336m14.534,25.174c8.052,4.649,14.6.914,14.627-8.338a27.607,27.607,0,0,0-2.62-11.152l-20.373,11.61a27.865,27.865,0,0,0,8.366,7.88" transform="translate(-245.162 -133.304)" fill="#d52d46"/>
          </g>
          <g id="Grupo_54524" data-name="Grupo 54524" transform="translate(8.338 17.234)">
            <path id="Trazado_102712" data-name="Trazado 102712" d="M262.192,178.634l2.439-1.418L285,165.607l-2.439,1.418Z" transform="translate(-262.192 -165.607)" fill="#ff4f19"/>
          </g>
          <path id="Trazado_102713" data-name="Trazado 102713" d="M274.14,133.193c-5.642-3.257-10.754-3.56-14.445-1.415l-2.439,1.417c3.691-2.145,8.8-1.843,14.444,1.415,11.212,6.473,20.271,22.164,20.234,35.047-.018,6.4-2.277,10.9-5.922,13.021l2.439-1.417c3.644-2.118,5.9-6.621,5.922-13.021C294.41,155.357,285.352,139.667,274.14,133.193Z" transform="translate(-251.334 -130.409)" fill="#c12b48"/>
        </g>
      </g>
      <g id="Grupo_54532" data-name="Grupo 54532" transform="translate(75.28 46.609)">
        <g id="Grupo_54529" data-name="Grupo 54529" transform="translate(0)">
          <g id="Grupo_54527" data-name="Grupo 54527" transform="translate(31.114 57.823)">
            <path id="Trazado_102714" data-name="Trazado 102714" d="M150.363,181.289l3.928-2.5.058-14.083-3.93,2.5Z" transform="translate(-150.363 -164.704)" fill="#e5bb53"/>
          </g>
          <path id="Trazado_102715" data-name="Trazado 102715" d="M98.074,47.4c2.121-1.232,5.061-1.058,8.3.815L143.41,69.591c6.448,3.721,11.657,12.743,11.635,20.152l-.05,18.179c-.014,3.68-1.311,6.27-3.407,7.487-1.946,1.133-2.247,1.333-4.2,2.466,2.094-1.217,3.394-3.807,3.4-7.487l.052-18.178c.021-7.409-5.189-16.429-11.637-20.153L102.178,50.675c-3.241-1.87-6.177-2.044-8.3-.81Z" transform="translate(-90.42 -46.609)" fill="#e5bb53"/>
          <g id="Grupo_54528" data-name="Grupo 54528" transform="translate(0 2.466)">
            <path id="Trazado_102716" data-name="Trazado 102716" d="M98.574,53.246c-6.442-3.719-11.684-.732-11.707,6.679L86.816,78.1C86.8,85.51,92.005,94.533,98.447,98.253l2.254,1.273,17.23,24.062.056-14.083,17.494,10.127c6.448,3.724,11.689.737,11.712-6.673l.052-18.179c.021-7.408-5.189-16.429-11.637-20.153Z" transform="translate(-86.816 -51.647)" fill="#ffd947"/>
          </g>
        </g>
        <g id="Grupo_54531" data-name="Grupo 54531" transform="translate(8.41 12.707)">
          <ellipse id="Elipse_4223" data-name="Elipse 4223" cx="12.011" cy="20.736" rx="12.011" ry="20.736" transform="translate(0 12.07) rotate(-30.162)" fill="#03e6b0"/>
          <g id="Grupo_54530" data-name="Grupo 54530" transform="translate(14.285 13.554)">
            <path id="Trazado_102717" data-name="Trazado 102717" d="M139.532,100.418a2.775,2.775,0,0,1,1.258,2.178l-.023,8.164a.349.349,0,0,0,.159.275c.085.049.157.009.157-.093l.016-5.623c0-.8.569-1.123,1.269-.719a2.773,2.773,0,0,1,1.258,2.178l-.023,8.033c0,.148,0,.283,0,.393v.157a.366.366,0,0,0,.461-.12,2.694,2.694,0,0,1,1.677-1.164,2.527,2.527,0,0,1,1.655.331,1.548,1.548,0,0,1,.647.779,1.663,1.663,0,0,1,.068,1.129,1.214,1.214,0,0,1-.582.537,1.936,1.936,0,0,0-.882.835c-.123.194-.954,1.215-1.948,2.428-.4.484-.732.893-.854,1.051-.963,1.416-2.907,1.53-5.07.281a10.094,10.094,0,0,1-5.608-9l.028-9.868c0-.7.5-.983,1.109-.632a2.429,2.429,0,0,1,1.105,1.911l-.013,4.535a.349.349,0,0,0,.159.272c.085.049.157.008.157-.09l.021-7.259c0-.7.5-.98,1.109-.629a2.427,2.427,0,0,1,1.1,1.906l-.019,6.531a.349.349,0,0,0,.159.275c.085.049.157.009.157-.093l.023-8.164C138.265,100.337,138.832,100.014,139.532,100.418Z" transform="translate(-133.167 -100.244)" fill="#edebec"/>
          </g>
        </g>
      </g>
      <g id="Grupo_54606" data-name="Grupo 54606" transform="translate(74.625 108.453)">
        <g id="Grupo_54534" data-name="Grupo 54534" transform="translate(0 0)">
          <g id="Grupo_54533" data-name="Grupo 54533">
            <path id="Trazado_102718" data-name="Trazado 102718" d="M138.467,200.423,91.7,173.354a2.25,2.25,0,0,0-2.27-.221L87.586,174.2a2.25,2.25,0,0,1,2.269.222l46.767,27.068a7.087,7.087,0,0,1,3.2,5.559l-.1,24.606a2.258,2.258,0,0,1-.935,2.068l1.844-1.072a2.256,2.256,0,0,0,.936-2.068l.1-24.606A7.085,7.085,0,0,0,138.467,200.423Z" transform="translate(-86.553 -172.917)" fill="#0077ec"/>
            <path id="Trazado_102719" data-name="Trazado 102719" d="M88.779,175.544l46.767,27.068a7.087,7.087,0,0,1,3.2,5.559l-.1,24.605c-.006,2.039-1.431,2.867-3.2,1.843L88.675,207.552a7.1,7.1,0,0,1-3.2-5.568l.1-24.606C85.581,175.349,87.014,174.526,88.779,175.544Z" transform="translate(-85.477 -174.035)" fill="#ffd947"/>
          </g>
        </g>
        <g id="Grupo_54605" data-name="Grupo 54605" transform="translate(1.441 15.689)">
          <g id="Grupo_54541" data-name="Grupo 54541" style="isolation: isolate">
            <g id="Grupo_54535" data-name="Grupo 54535" transform="translate(1.466 1.623)">
              <path id="Trazado_102720" data-name="Trazado 102720" d="M91.739,209.558l2.208-1.283a.487.487,0,0,0-.12.1,1.561,1.561,0,0,0-.2.956,3.133,3.133,0,0,0,.236,1.38,1.686,1.686,0,0,0,.671.724c.268.155.472.19.616.107l-2.208,1.283c-.144.084-.348.048-.616-.107a1.688,1.688,0,0,1-.671-.723,3.136,3.136,0,0,1-.236-1.38,1.56,1.56,0,0,1,.2-.956A.48.48,0,0,1,91.739,209.558Z" transform="translate(-91.415 -208.275)" fill="#5ea7cc"/>
            </g>
            <g id="Grupo_54536" data-name="Grupo 54536" transform="translate(3.323 4.271)">
              <path id="Trazado_102721" data-name="Trazado 102721" d="M95.208,214.967l2.208-1.283,1.281,1.184-2.208,1.283Z" transform="translate(-95.208 -213.684)" fill="#6eb8e3"/>
            </g>
            <g id="Grupo_54537" data-name="Grupo 54537" transform="translate(4.04 5.455)">
              <path id="Trazado_102722" data-name="Trazado 102722" d="M98.881,217.018,96.673,218.3a.893.893,0,0,0,.154-.114,1.565,1.565,0,0,0,.409-.8l2.208-1.283a1.569,1.569,0,0,1-.409.8A.869.869,0,0,1,98.881,217.018Z" transform="translate(-96.673 -216.102)" fill="#6eb8e3"/>
            </g>
            <g id="Grupo_54538" data-name="Grupo 54538" transform="translate(0.63)">
              <path id="Trazado_102723" data-name="Trazado 102723" d="M89.708,206.372l2.208-1.283c.42-.241,1.01-.144,1.772.3l-2.208,1.283Q90.337,206.009,89.708,206.372Z" transform="translate(-89.708 -204.961)" fill="#6eb8e3"/>
            </g>
            <g id="Grupo_54539" data-name="Grupo 54539" transform="translate(0 1.283)">
              <path id="Trazado_102724" data-name="Trazado 102724" d="M90.823,208.005a4.416,4.416,0,0,1,1.405,1.228,4.923,4.923,0,0,1,.758,1.718l-1.3-.416a2.272,2.272,0,0,0-.141-.446,2.055,2.055,0,0,0-.3-.472,1.525,1.525,0,0,0-.4-.332c-.332-.191-.586-.184-.765.019a1.56,1.56,0,0,0-.2.956,3.136,3.136,0,0,0,.236,1.38,1.688,1.688,0,0,0,.671.723c.28.162.491.193.635.1a.944.944,0,0,0,.314-.606l1.281,1.183a1.565,1.565,0,0,1-.409.8.9.9,0,0,1-.692.229,2.6,2.6,0,0,1-1.049-.394,5.156,5.156,0,0,1-1.261-.986,4.972,4.972,0,0,1-1.193-3.263q0-1.351.63-1.715T90.823,208.005Z" transform="translate(-88.421 -207.581)" fill="#fcf5f9"/>
            </g>
            <g id="Grupo_54540" data-name="Grupo 54540" transform="translate(2.402 0.425)">
              <path id="Trazado_102725" data-name="Trazado 102725" d="M93.327,207.111l2.208-1.283a4.412,4.412,0,0,1,1.4,1.228,4.922,4.922,0,0,1,.758,1.718l-2.208,1.283a4.923,4.923,0,0,0-.758-1.718A4.416,4.416,0,0,0,93.327,207.111Z" transform="translate(-93.327 -205.828)" fill="#6eb8e3"/>
            </g>
          </g>
          <g id="Grupo_54547" data-name="Grupo 54547" transform="translate(5.311 2.207)" style="isolation: isolate">
            <g id="Grupo_54542" data-name="Grupo 54542" transform="translate(1.466 4.947)">
              <path id="Trazado_102726" data-name="Trazado 102726" d="M102.262,220.855l2.208-1.283,2.284,1.319-2.208,1.283Z" transform="translate(-102.262 -219.572)" fill="#6eb8e3"/>
            </g>
            <g id="Grupo_54543" data-name="Grupo 54543" transform="translate(3.746 6.266)">
              <path id="Trazado_102727" data-name="Trazado 102727" d="M106.923,223.548l2.208-1.283,0,1.34-2.208,1.283Z" transform="translate(-106.919 -222.265)" fill="#5ea7cc"/>
            </g>
            <g id="Grupo_54544" data-name="Grupo 54544" transform="translate(0 1.283)">
              <path id="Trazado_102728" data-name="Trazado 102728" d="M100.745,212.933l-.012,4.1,2.284,1.319,0,1.34-3.746-2.163.015-5.443Z" transform="translate(-99.268 -212.089)" fill="#fcf5f9"/>
            </g>
            <g id="Grupo_54545" data-name="Grupo 54545" transform="translate(1.466 0.844)">
              <path id="Trazado_102729" data-name="Trazado 102729" d="M102.273,212.476l2.208-1.283-.012,4.1-2.208,1.283Z" transform="translate(-102.262 -211.192)" fill="#5ea7cc"/>
            </g>
            <g id="Grupo_54546" data-name="Grupo 54546" transform="translate(0.015)">
              <path id="Trazado_102730" data-name="Trazado 102730" d="M99.3,210.751l2.208-1.283,1.462.844-2.208,1.283Z" transform="translate(-99.299 -209.468)" fill="#6eb8e3"/>
            </g>
          </g>
          <g id="Grupo_54551" data-name="Grupo 54551" transform="translate(9.781 4.788)" style="isolation: isolate">
            <g id="Grupo_54548" data-name="Grupo 54548" transform="translate(0 1.283)">
              <path id="Trazado_102731" data-name="Trazado 102731" d="M109.88,218.207l-.015,5.443L108.4,222.8l.015-5.443Z" transform="translate(-108.398 -217.36)" fill="#fcf5f9"/>
            </g>
            <g id="Grupo_54549" data-name="Grupo 54549" transform="translate(1.466 0.847)">
              <path id="Trazado_102732" data-name="Trazado 102732" d="M111.408,217.752l2.208-1.283-.015,5.443-2.208,1.283Z" transform="translate(-111.392 -216.469)" fill="#5ea7cc"/>
            </g>
            <g id="Grupo_54550" data-name="Grupo 54550" transform="translate(0.015)">
              <path id="Trazado_102733" data-name="Trazado 102733" d="M108.43,216.023l2.208-1.283,1.466.847-2.208,1.283Z" transform="translate(-108.43 -214.74)" fill="#6eb8e3"/>
            </g>
          </g>
          <g id="Grupo_54558" data-name="Grupo 54558" transform="translate(12.135 7.006)" style="isolation: isolate">
            <g id="Grupo_54552" data-name="Grupo 54552" transform="translate(1.466 1.622)">
              <path id="Trazado_102734" data-name="Trazado 102734" d="M116.525,223.864l2.208-1.283a.48.48,0,0,0-.121.1,1.544,1.544,0,0,0-.2.956,3.118,3.118,0,0,0,.236,1.379,1.681,1.681,0,0,0,.669.723c.268.155.474.191.618.108l-2.208,1.283c-.143.084-.35.047-.618-.108a1.686,1.686,0,0,1-.669-.723,3.133,3.133,0,0,1-.236-1.38,1.543,1.543,0,0,1,.2-.955A.473.473,0,0,1,116.525,223.864Z" transform="translate(-116.2 -222.581)" fill="#5ea7cc"/>
            </g>
            <g id="Grupo_54553" data-name="Grupo 54553" transform="translate(3.323 4.272)">
              <path id="Trazado_102735" data-name="Trazado 102735" d="M119.992,229.277l2.208-1.283,1.281,1.184-2.208,1.283Z" transform="translate(-119.992 -227.993)" fill="#6eb8e3"/>
            </g>
            <g id="Grupo_54554" data-name="Grupo 54554" transform="translate(4.037 5.455)">
              <path id="Trazado_102736" data-name="Trazado 102736" d="M123.658,231.329l-2.208,1.283a.881.881,0,0,0,.156-.117,1.546,1.546,0,0,0,.411-.8l2.208-1.283a1.544,1.544,0,0,1-.411.8A.9.9,0,0,1,123.658,231.329Z" transform="translate(-121.45 -230.411)" fill="#6eb8e3"/>
            </g>
            <g id="Grupo_54555" data-name="Grupo 54555" transform="translate(0.63)">
              <path id="Trazado_102737" data-name="Trazado 102737" d="M114.492,220.682,116.7,219.4c.42-.241,1.008-.145,1.77.295l-2.208,1.283C115.5,220.536,114.912,220.44,114.492,220.682Z" transform="translate(-114.492 -219.269)" fill="#6eb8e3"/>
            </g>
            <g id="Grupo_54556" data-name="Grupo 54556" transform="translate(0 1.283)">
              <path id="Trazado_102738" data-name="Trazado 102738" d="M115.606,222.314a4.419,4.419,0,0,1,1.407,1.229,4.908,4.908,0,0,1,.756,1.717l-1.293-.415a2.266,2.266,0,0,0-.141-.445,2.043,2.043,0,0,0-.3-.472,1.544,1.544,0,0,0-.4-.333q-.5-.287-.763.02a1.542,1.542,0,0,0-.2.955,3.133,3.133,0,0,0,.236,1.38,1.686,1.686,0,0,0,.669.723c.28.162.492.194.637.1a.969.969,0,0,0,.314-.606l1.281,1.184a1.546,1.546,0,0,1-.411.8.883.883,0,0,1-.69.23,2.607,2.607,0,0,1-1.051-.395A5.131,5.131,0,0,1,114.4,227a4.95,4.95,0,0,1-1.193-3.262q0-1.351.63-1.715C114.255,221.778,114.844,221.874,115.606,222.314Z" transform="translate(-113.206 -221.89)" fill="#fcf5f9"/>
            </g>
            <g id="Grupo_54557" data-name="Grupo 54557" transform="translate(2.4 0.424)">
              <path id="Trazado_102739" data-name="Trazado 102739" d="M118.108,221.418l2.208-1.283a4.424,4.424,0,0,1,1.407,1.229,4.917,4.917,0,0,1,.756,1.717l-2.208,1.283a4.908,4.908,0,0,0-.756-1.717A4.419,4.419,0,0,0,118.108,221.418Z" transform="translate(-118.108 -220.135)" fill="#6eb8e3"/>
            </g>
          </g>
          <g id="Grupo_54567" data-name="Grupo 54567" transform="translate(17.452 9.217)" style="isolation: isolate">
            <g id="Grupo_54559" data-name="Grupo 54559" transform="translate(1.462 4.958)">
              <path id="Trazado_102740" data-name="Trazado 102740" d="M127.055,235.195l2.208-1.283,0,1.328-2.208,1.283Z" transform="translate(-127.051 -233.912)" fill="#5ea7cc"/>
            </g>
            <g id="Grupo_54560" data-name="Grupo 54560" transform="translate(1.466 4.485)">
              <path id="Trazado_102741" data-name="Trazado 102741" d="M127.817,234.227l2.208-1.283-.759.474-2.208,1.283Z" transform="translate(-127.059 -232.944)" fill="#6eb8e3"/>
            </g>
            <g id="Grupo_54561" data-name="Grupo 54561" transform="translate(3.224 3.911)">
              <path id="Trazado_102742" data-name="Trazado 102742" d="M130.649,233.055l2.208-1.283,1.8,4.431-2.208,1.283Z" transform="translate(-130.649 -231.772)" fill="#5ea7cc"/>
            </g>
            <g id="Grupo_54562" data-name="Grupo 54562" transform="translate(0.015)">
              <path id="Trazado_102743" data-name="Trazado 102743" d="M124.1,225.068l2.208-1.283,1.462.844-2.208,1.283Z" transform="translate(-124.096 -223.785)" fill="#6eb8e3"/>
            </g>
            <g id="Grupo_54563" data-name="Grupo 54563" transform="translate(1.472 0.844)">
              <path id="Trazado_102744" data-name="Trazado 102744" d="M127.076,226.792l2.208-1.283-.006,2.057-2.208,1.283Z" transform="translate(-127.071 -225.509)" fill="#5ea7cc"/>
            </g>
            <g id="Grupo_54564" data-name="Grupo 54564" transform="translate(3.012 1.73)">
              <path id="Trazado_102745" data-name="Trazado 102745" d="M130.216,228.6l2.208-1.283,1.946,1.124-2.208,1.283Z" transform="translate(-130.216 -227.318)" fill="#6eb8e3"/>
            </g>
            <g id="Grupo_54565" data-name="Grupo 54565" transform="translate(3.224 2.854)">
              <path id="Trazado_102746" data-name="Trazado 102746" d="M132.383,230.9l2.208-1.283-1.734,1.057-2.208,1.283Z" transform="translate(-130.649 -229.613)" fill="#6eb8e3"/>
            </g>
            <g id="Grupo_54566" data-name="Grupo 54566" transform="translate(0 1.283)">
              <path id="Trazado_102747" data-name="Trazado 102747" d="M129.023,229.259l-1.734,1.057,1.8,4.431-1.8-1.042-.992-2.815-.759.474,0,1.329-1.462-.844.015-5.443,1.462.844-.006,2.057,1.54-1.171Z" transform="translate(-124.065 -226.406)" fill="#fcf5f9"/>
            </g>
          </g>
          <g id="Grupo_54575" data-name="Grupo 54575" transform="translate(25.169 13.672)" style="isolation: isolate">
            <g id="Grupo_54568" data-name="Grupo 54568" transform="translate(1.464 4.086)">
              <path id="Trazado_102748" data-name="Trazado 102748" d="M142.822,242.513l2.208-1.283-.006,2.2-2.208,1.283Z" transform="translate(-142.816 -241.23)" fill="#5ea7cc"/>
            </g>
            <g id="Grupo_54569" data-name="Grupo 54569" transform="translate(1.474 2.748)">
              <path id="Trazado_102749" data-name="Trazado 102749" d="M142.836,239.781l2.208-1.283,1.6.923-2.208,1.283Z" transform="translate(-142.836 -238.498)" fill="#6eb8e3"/>
            </g>
            <g id="Grupo_54570" data-name="Grupo 54570" transform="translate(0.015)">
              <path id="Trazado_102750" data-name="Trazado 102750" d="M139.857,234.168l2.208-1.283,1.464.845-2.208,1.283Z" transform="translate(-139.857 -232.884)" fill="#6eb8e3"/>
            </g>
            <g id="Grupo_54571" data-name="Grupo 54571" transform="translate(1.474 0.845)">
              <path id="Trazado_102751" data-name="Trazado 102751" d="M142.842,235.894l2.208-1.283-.005,1.9-2.208,1.283Z" transform="translate(-142.836 -234.611)" fill="#5ea7cc"/>
            </g>
            <g id="Grupo_54572" data-name="Grupo 54572" transform="translate(0 1.283)">
              <path id="Trazado_102752" data-name="Trazado 102752" d="M144.373,238.122l-.015,5.443-1.47-.849.006-2.2-1.6-.923-.006,2.2-1.464-.845.015-5.443,1.464.845-.005,1.9,1.6.923.005-1.9Z" transform="translate(-139.825 -235.505)" fill="#fcf5f9"/>
            </g>
            <g id="Grupo_54573" data-name="Grupo 54573" transform="translate(4.532 2.617)">
              <path id="Trazado_102753" data-name="Trazado 102753" d="M149.1,239.512l2.208-1.283-.015,5.443-2.208,1.283Z" transform="translate(-149.082 -238.229)" fill="#5ea7cc"/>
            </g>
            <g id="Grupo_54574" data-name="Grupo 54574" transform="translate(3.078 1.768)">
              <path id="Trazado_102754" data-name="Trazado 102754" d="M146.111,237.778l2.208-1.283,1.47.849-2.208,1.283Z" transform="translate(-146.111 -236.495)" fill="#6eb8e3"/>
            </g>
          </g>
          <g id="Grupo_54585" data-name="Grupo 54585" transform="translate(30.672 16.849)" style="isolation: isolate">
            <g id="Grupo_54576" data-name="Grupo 54576" transform="translate(1.47 3.984)">
              <path id="Trazado_102755" data-name="Trazado 102755" d="M154.068,248.792l2.208-1.283,0,1.073-2.208,1.283Z" transform="translate(-154.065 -247.509)" fill="#5ea7cc"/>
            </g>
            <g id="Grupo_54577" data-name="Grupo 54577" transform="translate(1.47 5.057)">
              <path id="Trazado_102756" data-name="Trazado 102756" d="M154.065,250.985l2.208-1.283,2.526,1.459-2.208,1.283Z" transform="translate(-154.065 -249.701)" fill="#6eb8e3"/>
            </g>
            <g id="Grupo_54578" data-name="Grupo 54578" transform="translate(3.992 6.516)">
              <path id="Trazado_102757" data-name="Trazado 102757" d="M159.221,253.964l2.208-1.283,0,1.232-2.208,1.283Z" transform="translate(-159.218 -252.68)" fill="#5ea7cc"/>
            </g>
            <g id="Grupo_54579" data-name="Grupo 54579" transform="translate(1.476 2.007)">
              <path id="Trazado_102758" data-name="Trazado 102758" d="M154.081,244.755l2.208-1.283,0,.867-2.208,1.283Z" transform="translate(-154.078 -243.472)" fill="#5ea7cc"/>
            </g>
            <g id="Grupo_54580" data-name="Grupo 54580" transform="translate(1.476 2.874)">
              <path id="Trazado_102759" data-name="Trazado 102759" d="M154.078,246.525l2.208-1.283,2.278,1.315-2.208,1.283Z" transform="translate(-154.078 -245.242)" fill="#6eb8e3"/>
            </g>
            <g id="Grupo_54581" data-name="Grupo 54581" transform="translate(3.751 4.189)">
              <path id="Trazado_102760" data-name="Trazado 102760" d="M158.728,249.212l2.208-1.283,0,1.11-2.208,1.283Z" transform="translate(-158.725 -247.928)" fill="#5ea7cc"/>
            </g>
            <g id="Grupo_54582" data-name="Grupo 54582" transform="translate(0.015)">
              <path id="Trazado_102761" data-name="Trazado 102761" d="M151.1,240.656l2.208-1.283,3.922,2.265-2.208,1.283Z" transform="translate(-151.095 -239.373)" fill="#6eb8e3"/>
            </g>
            <g id="Grupo_54583" data-name="Grupo 54583" transform="translate(3.935 2.265)">
              <path id="Trazado_102762" data-name="Trazado 102762" d="M159.1,245.281,161.311,244l0,1.161-2.208,1.283Z" transform="translate(-159.1 -243.998)" fill="#5ea7cc"/>
            </g>
            <g id="Grupo_54584" data-name="Grupo 54584" transform="translate(0 1.283)">
              <path id="Trazado_102763" data-name="Trazado 102763" d="M155,244.258l0,1.161L152.542,244l0,.866,2.278,1.315,0,1.11-2.278-1.315,0,1.073,2.526,1.459,0,1.232-3.992-2.305.015-5.443Z" transform="translate(-151.064 -241.993)" fill="#fcf5f9"/>
            </g>
          </g>
          <g id="Grupo_54594" data-name="Grupo 54594" transform="translate(35.472 19.621)" style="isolation: isolate">
            <g id="Grupo_54586" data-name="Grupo 54586" transform="translate(1.47 4.083)">
              <path id="Trazado_102764" data-name="Trazado 102764" d="M163.877,254.655l2.208-1.283-.006,2.209-2.208,1.283Z" transform="translate(-163.871 -253.372)" fill="#5ea7cc"/>
            </g>
            <g id="Grupo_54587" data-name="Grupo 54587" transform="translate(1.48 3.053)">
              <path id="Trazado_102765" data-name="Trazado 102765" d="M163.89,252.552l2.208-1.283.616.356-2.208,1.283Z" transform="translate(-163.89 -251.269)" fill="#6eb8e3"/>
            </g>
            <g id="Grupo_54588" data-name="Grupo 54588" transform="translate(1.48 1.947)">
              <path id="Trazado_102766" data-name="Trazado 102766" d="M163.893,250.294l2.208-1.283,0,1.106L163.89,251.4Z" transform="translate(-163.89 -249.011)" fill="#5ea7cc"/>
            </g>
            <g id="Grupo_54589" data-name="Grupo 54589" transform="translate(2.096 3.409)">
              <path id="Trazado_102767" data-name="Trazado 102767" d="M165.148,253.278l2.208-1.283a2.194,2.194,0,0,0,.388.15l-2.208,1.283A2.18,2.18,0,0,1,165.148,253.278Z" transform="translate(-165.148 -251.995)" fill="#6eb8e3"/>
            </g>
            <path id="Trazado_102768" data-name="Trazado 102768" d="M170.3,256.233a4.134,4.134,0,0,0-.205-.457,3.449,3.449,0,0,0-.233-.423,3.156,3.156,0,0,0-.379-.419l-2.208,1.283a3.182,3.182,0,0,1,.379.419,3.392,3.392,0,0,1,.234.423,4.224,4.224,0,0,1,.205.457l.7,1.985,2.208-1.283Z" transform="translate(-164.138 -250.087)" fill="#5ea7cc"/>
            <g id="Grupo_54590" data-name="Grupo 54590" transform="translate(2.484 3.553)">
              <path id="Trazado_102769" data-name="Trazado 102769" d="M168.352,252.289l-2.208,1.283a.236.236,0,0,1-.2.007l2.208-1.283A.237.237,0,0,0,168.352,252.289Z" transform="translate(-165.941 -252.289)" fill="#6eb8e3"/>
            </g>
            <g id="Grupo_54591" data-name="Grupo 54591" transform="translate(0.016)">
              <path id="Trazado_102770" data-name="Trazado 102770" d="M160.9,246.317l2.208-1.283,2.438,1.408-2.208,1.283Z" transform="translate(-160.9 -245.033)" fill="#6eb8e3"/>
            </g>
            <g id="Grupo_54592" data-name="Grupo 54592" transform="translate(2.454 1.407)">
              <path id="Trazado_102771" data-name="Trazado 102771" d="M169.552,251.345l-2.208,1.283a.631.631,0,0,0,.2-.182,1.157,1.157,0,0,0,.17-.684,2.433,2.433,0,0,0-.217-1.008,2.58,2.58,0,0,0-.577-.83,5.555,5.555,0,0,0-1.038-.733l2.208-1.283a5.567,5.567,0,0,1,1.038.733,2.579,2.579,0,0,1,.576.83,2.435,2.435,0,0,1,.218,1.008,1.158,1.158,0,0,1-.17.684A.648.648,0,0,1,169.552,251.345Z" transform="translate(-165.88 -247.908)" fill="#6eb8e3"/>
            </g>
            <g id="Grupo_54593" data-name="Grupo 54593" transform="translate(0 1.283)">
              <path id="Trazado_102772" data-name="Trazado 102772" d="M164.823,253.8l.7,1.985-1.654-.955-.778-2.116a2.5,2.5,0,0,0-.262-.571,1.155,1.155,0,0,0-.358-.333l-.13-.075-.006,2.209-1.47-.849.016-5.443,2.438,1.408a5.555,5.555,0,0,1,1.038.733,2.58,2.58,0,0,1,.577.83,2.433,2.433,0,0,1,.217,1.008,1.157,1.157,0,0,1-.17.684.634.634,0,0,1-.463.267,1.336,1.336,0,0,1-.515-.081,3.2,3.2,0,0,1,.38.419,3.47,3.47,0,0,1,.233.423A4.228,4.228,0,0,1,164.823,253.8Zm-1.233-2.62a.34.34,0,0,0,.093-.264.879.879,0,0,0-.145-.489,1.568,1.568,0,0,0-.546-.455l-.642-.371,0,1.106.616.356a2.18,2.18,0,0,0,.388.15.222.222,0,0,0,.238-.033" transform="translate(-160.868 -247.654)" fill="#fcf5f9"/>
            </g>
          </g>
          <g id="Grupo_54604" data-name="Grupo 54604" transform="translate(40.597 22.579)" style="isolation: isolate">
            <g id="Grupo_54595" data-name="Grupo 54595" transform="translate(1.47 3.984)">
              <path id="Trazado_102773" data-name="Trazado 102773" d="M174.339,260.5l2.208-1.283,0,1.073-2.208,1.283Z" transform="translate(-174.336 -259.212)" fill="#5ea7cc"/>
            </g>
            <g id="Grupo_54596" data-name="Grupo 54596" transform="translate(1.47 5.057)">
              <path id="Trazado_102774" data-name="Trazado 102774" d="M174.336,262.688l2.208-1.283,2.526,1.459-2.208,1.283Z" transform="translate(-174.336 -261.405)" fill="#6eb8e3"/>
            </g>
            <g id="Grupo_54597" data-name="Grupo 54597" transform="translate(3.992 6.516)">
              <path id="Trazado_102775" data-name="Trazado 102775" d="M179.492,265.667l2.208-1.283,0,1.232-2.208,1.283Z" transform="translate(-179.489 -264.384)" fill="#5ea7cc"/>
            </g>
            <g id="Grupo_54598" data-name="Grupo 54598" transform="translate(1.476 2.007)">
              <path id="Trazado_102776" data-name="Trazado 102776" d="M174.351,256.459l2.208-1.283,0,.867-2.208,1.283Z" transform="translate(-174.349 -255.175)" fill="#5ea7cc"/>
            </g>
            <g id="Grupo_54599" data-name="Grupo 54599" transform="translate(1.476 2.874)">
              <path id="Trazado_102777" data-name="Trazado 102777" d="M174.349,258.228l2.208-1.283,2.278,1.315-2.208,1.283Z" transform="translate(-174.349 -256.945)" fill="#6eb8e3"/>
            </g>
            <g id="Grupo_54600" data-name="Grupo 54600" transform="translate(3.751 4.189)">
              <path id="Trazado_102778" data-name="Trazado 102778" d="M179,260.915l2.208-1.283,0,1.11L179,262.025Z" transform="translate(-178.995 -259.632)" fill="#5ea7cc"/>
            </g>
            <g id="Grupo_54601" data-name="Grupo 54601" transform="translate(0.015)">
              <path id="Trazado_102779" data-name="Trazado 102779" d="M171.366,252.359l2.208-1.283,3.922,2.265-2.208,1.283Z" transform="translate(-171.366 -251.076)" fill="#6eb8e3"/>
            </g>
            <g id="Grupo_54602" data-name="Grupo 54602" transform="translate(3.935 2.265)">
              <path id="Trazado_102780" data-name="Trazado 102780" d="M179.374,256.984l2.208-1.283,0,1.161-2.208,1.283Z" transform="translate(-179.37 -255.701)" fill="#5ea7cc"/>
            </g>
            <g id="Grupo_54603" data-name="Grupo 54603" transform="translate(0 1.283)">
              <path id="Trazado_102781" data-name="Trazado 102781" d="M175.272,255.961l0,1.161-2.456-1.418,0,.866,2.278,1.315,0,1.11-2.278-1.315,0,1.073,2.526,1.459,0,1.232-3.992-2.305.015-5.443Z" transform="translate(-171.335 -253.697)" fill="#fcf5f9"/>
            </g>
          </g>
        </g>
      </g>
      <g id="Grupo_54611" data-name="Grupo 54611" transform="translate(116.348 162.642)">
        <g id="Grupo_54610" data-name="Grupo 54610" style="isolation: isolate">
          <g id="Grupo_54607" data-name="Grupo 54607" transform="translate(3.009 12.969)">
            <path id="Trazado_102782" data-name="Trazado 102782" d="M180.335,311.335l2.164-1.258-3.5,3.37-2.164,1.258Z" transform="translate(-176.836 -310.077)" fill="#3c5b68"/>
          </g>
          <g id="Grupo_54608" data-name="Grupo 54608" transform="translate(0 1.258)">
            <path id="Trazado_102783" data-name="Trazado 102783" d="M170.691,286.158l11.961,13.36-5.453-.391-3.5,3.37Z" transform="translate(-170.691 -286.158)" fill="#fcf5f9"/>
          </g>
          <g id="Grupo_54609" data-name="Grupo 54609">
            <path id="Trazado_102784" data-name="Trazado 102784" d="M170.691,284.848l2.164-1.258,11.961,13.36-2.164,1.258Z" transform="translate(-170.691 -283.59)" fill="#496a7a"/>
          </g>
        </g>
      </g>
      <g id="Grupo_54623" data-name="Grupo 54623" transform="translate(172.227 119.826)">
        <g id="Grupo_54614" data-name="Grupo 54614">
          <g id="Grupo_54613" data-name="Grupo 54613">
            <g id="Grupo_54612" data-name="Grupo 54612">
              <path id="Trazado_102785" data-name="Trazado 102785" d="M355.889,233.036l-62.726-36.3a3.016,3.016,0,0,0-3.044-.3l-2.474,1.438a3.016,3.016,0,0,1,3.044.3l62.726,36.305a9.5,9.5,0,0,1,4.29,7.456l-.132,45.366a3.029,3.029,0,0,1-1.254,2.774l2.474-1.438a3.027,3.027,0,0,0,1.254-2.774l.132-45.366A9.5,9.5,0,0,0,355.889,233.036Z" transform="translate(-286.26 -196.144)" fill="#004080"/>
              <path id="Trazado_102786" data-name="Trazado 102786" d="M289.245,199.667l62.726,36.306a9.5,9.5,0,0,1,4.289,7.456l-.132,45.366c-.008,2.735-1.919,3.846-4.3,2.473l-62.726-36.305a9.526,9.526,0,0,1-4.29-7.468l.132-45.366C284.956,199.4,286.878,198.3,289.245,199.667Z" transform="translate(-284.816 -197.643)" fill="#fcf5f9"/>
            </g>
          </g>
        </g>
        <path id="Trazado_102787" data-name="Trazado 102787" d="M285.015,203.443l.035-1.316c.008-2.722,1.93-3.826,4.3-2.46l62.726,36.306a9.5,9.5,0,0,1,4.289,7.456l-.034,1.316Z" transform="translate(-284.918 -197.643)" fill="#0077ec"/>
        <g id="Grupo_54622" data-name="Grupo 54622" transform="translate(6.923 30.658)">
          <g id="Grupo_54615" data-name="Grupo 54615">
            <path id="Trazado_102788" data-name="Trazado 102788" d="M305.434,267.233a3.458,3.458,0,0,1,.371,1.567,1.755,1.755,0,0,1-.272,1.034.959.959,0,0,1-.734.411,2,2,0,0,1-.87-.221c-.513-.221-.857-.38-1.026-.477l-3.948-2.279.025-8.506,4.283,2.473a4.517,4.517,0,0,1,1.642,1.56,3.511,3.511,0,0,1,.568,1.839,1.226,1.226,0,0,1-.413,1.057,1,1,0,0,1-.8.107A4.7,4.7,0,0,1,305.434,267.233Zm-2.165.451q.245-.1.246-.506a1.335,1.335,0,0,0-.239-.742,2.418,2.418,0,0,0-.84-.715l-1.163-.671,0,1.721,1.169.675c.394.228.669.307.832.239m-1.987-5.868,0,1.613,1,.576c.356.206.6.277.745.217s.21-.224.211-.49a1.284,1.284,0,0,0-.208-.7,2.058,2.058,0,0,0-.728-.629l-1.013-.585" transform="translate(-298.955 -258.76)" fill="#d52d46"/>
          </g>
          <g id="Grupo_54616" data-name="Grupo 54616" transform="translate(8.041 4.642)">
            <path id="Trazado_102789" data-name="Trazado 102789" d="M317.686,269.56l-.018,6.412,3.57,2.061-.006,2.094-5.855-3.38.024-8.506Z" transform="translate(-315.377 -268.241)" fill="#d52d46"/>
          </g>
          <g id="Grupo_54617" data-name="Grupo 54617" transform="translate(14.483 9.75)">
            <path id="Trazado_102790" data-name="Trazado 102790" d="M335.214,282.125a7.347,7.347,0,0,1,.991,3.775,4.27,4.27,0,0,1-.445,2.19,1.539,1.539,0,0,1-1.264.759,3.883,3.883,0,0,1-2.061-.658,8.156,8.156,0,0,1-2.072-1.656,7.59,7.59,0,0,1-1.83-5q.006-2.085,1.022-2.659t2.813.462A7.609,7.609,0,0,1,335.214,282.125Zm-1.706,4.164c.27-.214.406-.795.409-1.746a4.267,4.267,0,0,0-.414-2,2.94,2.94,0,0,0-1.142-1.214c-.463-.267-.832-.293-1.115-.079s-.422.754-.424,1.619a4.52,4.52,0,0,0,.414,2.092,2.873,2.873,0,0,0,1.13,1.217c.491.284.872.32,1.142.109" transform="translate(-328.534 -278.674)" fill="#d52d46"/>
          </g>
          <g id="Grupo_54618" data-name="Grupo 54618" transform="translate(23.12 14.692)">
            <path id="Trazado_102791" data-name="Trazado 102791" d="M349.926,289.431a6.871,6.871,0,0,1,2.2,1.921,7.653,7.653,0,0,1,1.182,2.683l-2.021-.652a3.512,3.512,0,0,0-.22-.7,3.15,3.15,0,0,0-.468-.734,2.421,2.421,0,0,0-.621-.524q-.779-.449-1.193.034a2.411,2.411,0,0,0-.317,1.493,4.915,4.915,0,0,0,.366,2.151,2.632,2.632,0,0,0,1.049,1.131q.657.379,1,.154a1.516,1.516,0,0,0,.491-.951l2,1.854a2.41,2.41,0,0,1-.642,1.251,1.4,1.4,0,0,1-1.081.358,4.052,4.052,0,0,1-1.639-.615,8.033,8.033,0,0,1-1.968-1.543,7.449,7.449,0,0,1-1.318-2.179,7.532,7.532,0,0,1-.546-2.917q.007-2.112.985-2.681T349.926,289.431Z" transform="translate(-346.175 -288.766)" fill="#d52d46"/>
          </g>
          <g id="Grupo_54619" data-name="Grupo 54619" transform="translate(31.427 18.144)">
            <path id="Trazado_102792" data-name="Trazado 102792" d="M370.892,300.279l-2.71,1.652,2.8,6.923-2.817-1.626-1.55-4.4-1.186.74-.006,2.076-2.288-1.321.024-8.506,2.288,1.321-.009,3.215,2.4-1.832Z" transform="translate(-363.14 -295.817)" fill="#d52d46"/>
          </g>
          <g id="Grupo_54620" data-name="Grupo 54620" transform="translate(40.027 23.109)">
            <path id="Trazado_102793" data-name="Trazado 102793" d="M386.859,309.5l-.005,1.818-3.839-2.216,0,1.351,3.561,2.056,0,1.735-3.561-2.056,0,1.678,3.952,2.281-.006,1.925-6.243-3.6.024-8.506Z" transform="translate(-380.705 -305.958)" fill="#d52d46"/>
          </g>
          <g id="Grupo_54621" data-name="Grupo 54621" transform="translate(47.53 27.441)">
            <path id="Trazado_102794" data-name="Trazado 102794" d="M402.675,321.212a8.585,8.585,0,0,1,.177,1.75,5.19,5.19,0,0,1-.275,1.96,1.621,1.621,0,0,1-.754.824,1.436,1.436,0,0,1-1.034.083,5.612,5.612,0,0,1-1.364-.557l-3.4-1.962.024-8.506,3.4,1.961a6.764,6.764,0,0,1,1.625,1.255,6.311,6.311,0,0,1,1.02,1.488A7.032,7.032,0,0,1,402.675,321.212Zm-2.3,1.854a3.626,3.626,0,0,0,.176-1.377,4.5,4.5,0,0,0-.377-2.07,3.178,3.178,0,0,0-1.274-1.235l-.569-.329-.013,4.645.56.323a2.409,2.409,0,0,0,1.023.407.54.54,0,0,0,.474-.363" transform="translate(-396.028 -314.805)" fill="#d52d46"/>
          </g>
        </g>
        <path id="Trazado_102795" data-name="Trazado 102795" d="M293.87,203.96s61.679,35.721,61.93,35.888c1.174.781,3.022,2.618,3.021,3.964,0,.388-.006.75-.006.75,0,.187-.132.263-.294.169L293.86,207.257a.652.652,0,0,1-.294-.511l.009-2.617C293.576,203.943,293.707,203.867,293.87,203.96Z" transform="translate(-289.282 -200.113)" fill="#fcf5f9"/>
      </g>
      <g id="Grupo_54635" data-name="Grupo 54635" transform="translate(166.751 122.961)">
        <g id="Grupo_54626" data-name="Grupo 54626" transform="translate(0)">
          <g id="Grupo_54625" data-name="Grupo 54625">
            <g id="Grupo_54624" data-name="Grupo 54624">
              <path id="Trazado_102796" data-name="Trazado 102796" d="M344.706,239.44,281.98,203.134a3.016,3.016,0,0,0-3.044-.3l-2.474,1.438a3.016,3.016,0,0,1,3.044.3l62.726,36.305a9.5,9.5,0,0,1,4.29,7.456L346.39,293.7a3.027,3.027,0,0,1-1.254,2.774l2.474-1.438a3.028,3.028,0,0,0,1.255-2.773L349,246.9A9.5,9.5,0,0,0,344.706,239.44Z" transform="translate(-275.077 -202.548)" fill="#004080"/>
              <path id="Trazado_102797" data-name="Trazado 102797" d="M278.062,206.071l62.726,36.305a9.5,9.5,0,0,1,4.289,7.456l-.132,45.366c-.008,2.736-1.919,3.846-4.3,2.473l-62.726-36.305a9.525,9.525,0,0,1-4.29-7.468l.132-45.366C273.773,205.808,275.7,204.7,278.062,206.071Z" transform="translate(-273.633 -204.047)" fill="#fcf5f9"/>
            </g>
          </g>
        </g>
        <path id="Trazado_102798" data-name="Trazado 102798" d="M273.832,209.846l.035-1.316c.008-2.722,1.93-3.825,4.3-2.459l62.726,36.305a9.5,9.5,0,0,1,4.289,7.456l-.034,1.316Z" transform="translate(-273.735 -204.047)" fill="#0077ec"/>
        <g id="Grupo_54634" data-name="Grupo 54634" transform="translate(6.923 30.658)">
          <g id="Grupo_54627" data-name="Grupo 54627">
            <path id="Trazado_102799" data-name="Trazado 102799" d="M294.251,273.636a3.459,3.459,0,0,1,.371,1.567,1.757,1.757,0,0,1-.272,1.034.962.962,0,0,1-.734.411,1.994,1.994,0,0,1-.87-.222c-.513-.22-.857-.379-1.026-.477l-3.948-2.28.024-8.506,4.283,2.473a4.523,4.523,0,0,1,1.643,1.56,3.512,3.512,0,0,1,.567,1.839,1.227,1.227,0,0,1-.413,1.057,1,1,0,0,1-.8.107A4.691,4.691,0,0,1,294.251,273.636Zm-2.165.452c.163-.064.245-.233.245-.506a1.337,1.337,0,0,0-.239-.743,2.42,2.42,0,0,0-.84-.715l-1.163-.671,0,1.721,1.169.675c.394.227.669.307.832.239m-1.987-5.868,0,1.613,1,.576c.356.206.6.277.745.218s.211-.224.211-.49a1.284,1.284,0,0,0-.208-.7,2.053,2.053,0,0,0-.728-.629l-1.013-.585" transform="translate(-287.772 -265.163)" fill="#d52d46"/>
          </g>
          <g id="Grupo_54628" data-name="Grupo 54628" transform="translate(8.041 4.642)">
            <path id="Trazado_102800" data-name="Trazado 102800" d="M306.5,275.964l-.018,6.412,3.57,2.061-.006,2.094-5.855-3.381.024-8.506Z" transform="translate(-304.194 -274.644)" fill="#d52d46"/>
          </g>
          <g id="Grupo_54629" data-name="Grupo 54629" transform="translate(14.483 9.75)">
            <path id="Trazado_102801" data-name="Trazado 102801" d="M324.032,288.528a7.35,7.35,0,0,1,.991,3.775,4.269,4.269,0,0,1-.445,2.19,1.54,1.54,0,0,1-1.264.76,3.885,3.885,0,0,1-2.061-.658,8.153,8.153,0,0,1-2.072-1.656,7.584,7.584,0,0,1-1.83-5q.006-2.086,1.022-2.659t2.813.463A7.608,7.608,0,0,1,324.032,288.528Zm-1.705,4.164c.27-.214.406-.794.409-1.746a4.268,4.268,0,0,0-.414-2,2.946,2.946,0,0,0-1.142-1.214c-.463-.267-.832-.293-1.115-.078s-.422.753-.424,1.619a4.52,4.52,0,0,0,.414,2.092,2.877,2.877,0,0,0,1.13,1.218q.736.425,1.143.109" transform="translate(-317.352 -285.077)" fill="#d52d46"/>
          </g>
          <g id="Grupo_54630" data-name="Grupo 54630" transform="translate(23.121 14.692)">
            <path id="Trazado_102802" data-name="Trazado 102802" d="M338.744,295.834a6.872,6.872,0,0,1,2.2,1.921,7.659,7.659,0,0,1,1.182,2.683l-2.021-.653a3.5,3.5,0,0,0-.22-.7,3.152,3.152,0,0,0-.468-.734,2.43,2.43,0,0,0-.621-.524q-.779-.449-1.193.034a2.412,2.412,0,0,0-.317,1.494,4.916,4.916,0,0,0,.366,2.151,2.631,2.631,0,0,0,1.049,1.131q.657.379,1,.154a1.513,1.513,0,0,0,.491-.95l2,1.854a2.418,2.418,0,0,1-.642,1.252,1.4,1.4,0,0,1-1.081.358,4.055,4.055,0,0,1-1.639-.615,8.032,8.032,0,0,1-1.968-1.543,7.721,7.721,0,0,1-1.864-5.1q.006-2.112.984-2.68T338.744,295.834Z" transform="translate(-334.993 -295.169)" fill="#d52d46"/>
          </g>
          <g id="Grupo_54631" data-name="Grupo 54631" transform="translate(31.427 18.144)">
            <path id="Trazado_102803" data-name="Trazado 102803" d="M359.709,306.682,357,308.334l2.8,6.923-2.817-1.626-1.55-4.4-1.186.74-.006,2.076-2.288-1.321.024-8.506,2.288,1.321-.009,3.215,2.4-1.832Z" transform="translate(-351.957 -302.221)" fill="#d52d46"/>
          </g>
          <g id="Grupo_54632" data-name="Grupo 54632" transform="translate(40.027 23.11)">
            <path id="Trazado_102804" data-name="Trazado 102804" d="M375.676,315.9l-.005,1.818-3.839-2.216,0,1.351,3.561,2.056,0,1.735-3.561-2.056,0,1.678,3.951,2.281-.005,1.925-6.243-3.6.024-8.506Z" transform="translate(-369.522 -312.361)" fill="#d52d46"/>
          </g>
          <g id="Grupo_54633" data-name="Grupo 54633" transform="translate(47.53 27.441)">
            <path id="Trazado_102805" data-name="Trazado 102805" d="M391.492,327.615a8.591,8.591,0,0,1,.177,1.75,5.191,5.191,0,0,1-.275,1.961,1.619,1.619,0,0,1-.754.824,1.433,1.433,0,0,1-1.034.083,5.613,5.613,0,0,1-1.364-.557l-3.4-1.962.024-8.506,3.4,1.962a6.754,6.754,0,0,1,1.625,1.254,6.333,6.333,0,0,1,1.02,1.488A7.037,7.037,0,0,1,391.492,327.615Zm-2.3,1.854a3.627,3.627,0,0,0,.176-1.377,4.5,4.5,0,0,0-.376-2.07,3.173,3.173,0,0,0-1.274-1.236l-.569-.329-.013,4.645.559.323a2.413,2.413,0,0,0,1.023.407.539.539,0,0,0,.474-.363" transform="translate(-384.845 -321.208)" fill="#d52d46"/>
          </g>
        </g>
        <path id="Trazado_102806" data-name="Trazado 102806" d="M282.687,210.364s61.679,35.721,61.93,35.888c1.174.781,3.022,2.618,3.022,3.964,0,.387-.006.75-.006.75,0,.188-.132.263-.294.169l-64.661-37.474a.653.653,0,0,1-.294-.512l.009-2.617C282.393,210.346,282.524,210.271,282.687,210.364Z" transform="translate(-278.099 -206.517)" fill="#fcf5f9"/>
      </g>
      <g id="Grupo_54647" data-name="Grupo 54647" transform="translate(160.867 126.294)">
        <g id="Grupo_54638" data-name="Grupo 54638">
          <g id="Grupo_54637" data-name="Grupo 54637">
            <g id="Grupo_54636" data-name="Grupo 54636">
              <path id="Trazado_102807" data-name="Trazado 102807" d="M332.689,246.246l-62.726-36.305a3.016,3.016,0,0,0-3.044-.3l-2.474,1.438a3.016,3.016,0,0,1,3.044.3l62.726,36.305a9.5,9.5,0,0,1,4.29,7.456l-.132,45.366a3.027,3.027,0,0,1-1.254,2.773l2.474-1.438a3.029,3.029,0,0,0,1.255-2.774l.132-45.366A9.5,9.5,0,0,0,332.689,246.246Z" transform="translate(-263.06 -209.355)" fill="#004080"/>
              <path id="Trazado_102808" data-name="Trazado 102808" d="M266.045,212.878l62.726,36.305a9.5,9.5,0,0,1,4.289,7.456l-.132,45.366c-.008,2.735-1.919,3.845-4.3,2.472l-62.726-36.3a9.527,9.527,0,0,1-4.29-7.469l.132-45.366C261.756,212.616,263.678,211.512,266.045,212.878Z" transform="translate(-261.616 -210.854)" fill="#ffd947"/>
            </g>
          </g>
        </g>
        <path id="Trazado_102809" data-name="Trazado 102809" d="M261.815,216.654l.035-1.316c.008-2.722,1.93-3.825,4.3-2.459l62.726,36.305a9.5,9.5,0,0,1,4.289,7.456l-.034,1.315Z" transform="translate(-261.718 -210.854)" fill="#0077ec"/>
        <g id="Grupo_54646" data-name="Grupo 54646" transform="translate(6.923 30.659)">
          <g id="Grupo_54639" data-name="Grupo 54639">
            <path id="Trazado_102810" data-name="Trazado 102810" d="M282.234,280.443a3.461,3.461,0,0,1,.371,1.567,1.757,1.757,0,0,1-.272,1.034.961.961,0,0,1-.734.411,1.993,1.993,0,0,1-.87-.222c-.513-.22-.857-.379-1.026-.477l-3.948-2.28.024-8.506,4.283,2.473A4.518,4.518,0,0,1,281.7,276a3.518,3.518,0,0,1,.568,1.839,1.226,1.226,0,0,1-.413,1.057,1,1,0,0,1-.8.107A4.7,4.7,0,0,1,282.234,280.443Zm-2.165.452c.163-.064.245-.233.245-.506a1.334,1.334,0,0,0-.239-.742,2.409,2.409,0,0,0-.84-.715l-1.163-.672,0,1.721,1.169.675c.394.228.669.307.832.239m-1.987-5.868,0,1.613,1,.575c.356.206.6.277.745.218s.211-.224.211-.49a1.286,1.286,0,0,0-.208-.7,2.054,2.054,0,0,0-.728-.629l-1.013-.585" transform="translate(-275.755 -271.971)" fill="#0077ec"/>
          </g>
          <g id="Grupo_54640" data-name="Grupo 54640" transform="translate(8.041 4.642)">
            <path id="Trazado_102811" data-name="Trazado 102811" d="M294.486,282.771l-.018,6.412,3.57,2.061-.006,2.094-5.855-3.38.024-8.506Z" transform="translate(-292.177 -281.452)" fill="#0077ec"/>
          </g>
          <g id="Grupo_54641" data-name="Grupo 54641" transform="translate(14.483 9.75)">
            <path id="Trazado_102812" data-name="Trazado 102812" d="M312.015,295.335a7.35,7.35,0,0,1,.992,3.775,4.27,4.27,0,0,1-.445,2.19,1.54,1.54,0,0,1-1.264.76,3.884,3.884,0,0,1-2.061-.658,8.175,8.175,0,0,1-2.072-1.656,7.587,7.587,0,0,1-1.83-5q.006-2.085,1.022-2.659t2.813.463A7.607,7.607,0,0,1,312.015,295.335Zm-1.706,4.164c.27-.215.406-.795.409-1.746a4.27,4.27,0,0,0-.414-2,2.946,2.946,0,0,0-1.142-1.214c-.463-.267-.832-.293-1.115-.078s-.422.753-.424,1.619a4.523,4.523,0,0,0,.414,2.092,2.879,2.879,0,0,0,1.13,1.217c.491.283.872.32,1.142.109" transform="translate(-305.335 -291.884)" fill="#0077ec"/>
          </g>
          <g id="Grupo_54642" data-name="Grupo 54642" transform="translate(23.121 14.692)">
            <path id="Trazado_102813" data-name="Trazado 102813" d="M326.727,302.641a6.872,6.872,0,0,1,2.2,1.921,7.661,7.661,0,0,1,1.182,2.683l-2.021-.652a3.5,3.5,0,0,0-.22-.7,3.156,3.156,0,0,0-.468-.734,2.42,2.42,0,0,0-.621-.524q-.778-.449-1.193.034a2.411,2.411,0,0,0-.317,1.493,4.917,4.917,0,0,0,.366,2.151,2.632,2.632,0,0,0,1.049,1.131q.657.379,1,.153a1.512,1.512,0,0,0,.491-.95l2,1.854a2.418,2.418,0,0,1-.642,1.252,1.4,1.4,0,0,1-1.081.358,4.048,4.048,0,0,1-1.639-.615,8.033,8.033,0,0,1-1.968-1.543,7.444,7.444,0,0,1-1.318-2.179,7.52,7.52,0,0,1-.546-2.916q.006-2.112.984-2.681T326.727,302.641Z" transform="translate(-322.976 -301.977)" fill="#0077ec"/>
          </g>
          <g id="Grupo_54643" data-name="Grupo 54643" transform="translate(31.427 18.144)">
            <path id="Trazado_102814" data-name="Trazado 102814" d="M347.692,313.489l-2.71,1.652,2.8,6.923-2.817-1.626-1.55-4.4-1.186.74-.006,2.076-2.288-1.321.024-8.506,2.288,1.321-.009,3.215,2.4-1.832Z" transform="translate(-339.94 -309.028)" fill="#0077ec"/>
          </g>
          <g id="Grupo_54644" data-name="Grupo 54644" transform="translate(40.027 23.109)">
            <path id="Trazado_102815" data-name="Trazado 102815" d="M363.659,322.708l-.005,1.818-3.839-2.216,0,1.351,3.561,2.056,0,1.735-3.561-2.056,0,1.678,3.951,2.281-.005,1.925-6.243-3.6.024-8.506Z" transform="translate(-357.505 -319.169)" fill="#0077ec"/>
          </g>
          <g id="Grupo_54645" data-name="Grupo 54645" transform="translate(47.53 27.441)">
            <path id="Trazado_102816" data-name="Trazado 102816" d="M379.475,334.422a8.587,8.587,0,0,1,.177,1.75,5.19,5.19,0,0,1-.275,1.96,1.619,1.619,0,0,1-.754.824,1.436,1.436,0,0,1-1.034.084,5.632,5.632,0,0,1-1.364-.557l-3.4-1.962.024-8.506,3.4,1.962a6.752,6.752,0,0,1,1.625,1.255,6.318,6.318,0,0,1,1.02,1.488A7.044,7.044,0,0,1,379.475,334.422Zm-2.3,1.855a3.631,3.631,0,0,0,.176-1.377,4.5,4.5,0,0,0-.377-2.07,3.176,3.176,0,0,0-1.274-1.236l-.569-.329-.013,4.645.559.323a2.412,2.412,0,0,0,1.023.407.539.539,0,0,0,.474-.363" transform="translate(-372.828 -328.015)" fill="#0077ec"/>
          </g>
        </g>
        <path id="Trazado_102817" data-name="Trazado 102817" d="M270.67,217.171s61.68,35.721,61.93,35.888c1.174.781,3.022,2.128,3.021,3.474,0,.388-.006.75-.006.75,0,.188-.132.263-.294.169L270.66,219.978a.653.653,0,0,1-.294-.511l.009-2.127C270.376,217.153,270.507,217.078,270.67,217.171Z" transform="translate(-266.082 -213.324)" fill="#fcf5f9"/>
      </g>
      <g id="Grupo_54654" data-name="Grupo 54654" transform="translate(158.124 178.278)">
        <g id="Grupo_54650" data-name="Grupo 54650">
          <g id="Grupo_54649" data-name="Grupo 54649" style="isolation: isolate">
            <g id="Grupo_54648" data-name="Grupo 54648" transform="translate(0 1.171)">
              <path id="Trazado_102818" data-name="Trazado 102818" d="M272.731,318.284a5.679,5.679,0,0,1,2.284,2.84l13.906,35.909c1.011,2.612-.267,4.408-2.3,3.233l-27.972-16.149c-2.033-1.174-3.3-4.438-2.274-5.875l14.064-19.76C270.95,317.763,271.841,317.771,272.731,318.284Z" transform="translate(-256.012 -317.918)" fill="#03e6b0"/>
            </g>
            <path id="Trazado_102819" data-name="Trazado 102819" d="M306.411,354.641l-13.906-35.909a5.682,5.682,0,0,0-2.285-2.84,1.877,1.877,0,0,0-1.873-.192l-2.015,1.171a1.879,1.879,0,0,1,1.873.192,5.679,5.679,0,0,1,2.284,2.84L304.4,355.812c.636,1.643.366,2.963-.427,3.424l2.015-1.171C306.777,357.6,307.047,356.283,306.411,354.641Z" transform="translate(-271.486 -315.526)" fill="#0ac497"/>
          </g>
        </g>
        <g id="Grupo_54653" data-name="Grupo 54653" transform="translate(13.432 13.548)">
          <g id="Grupo_54651" data-name="Grupo 54651" transform="translate(0.098 11.04)">
            <path id="Trazado_102820" data-name="Trazado 102820" d="M283.645,369.3l.01-3.554,3.5,2.021-.01,3.554Z" transform="translate(-283.645 -365.742)" fill="#004080"/>
          </g>
          <g id="Grupo_54652" data-name="Grupo 54652">
            <path id="Trazado_102821" data-name="Trazado 102821" d="M283.454,343.2l3.75,2.165-.009,3.307-.744,6.226-2.318-1.338-.688-7.053Z" transform="translate(-283.445 -343.195)" fill="#004080"/>
          </g>
        </g>
      </g>
    </g>
  </g>
</svg>
