<svg xmlns="http://www.w3.org/2000/svg" width="295" height="174.008" viewBox="0 0 295 174.008">
  <g id="Grupo_57835" data-name="Grupo 57835" transform="translate(-146 -750.642)">
    <rect id="Rectángulo_5409" data-name="Rectángulo 5409" width="295" height="62" transform="translate(146 857)" fill="#0077ec"/>
    <g id="Grupo_55097" data-name="Grupo 55097" transform="translate(-52.508 514.894)">
      <path id="Trazado_103323" data-name="Trazado 103323" d="M315.157,278.076c-1.352-2.564-2.692-5.145-3.982-7.757a68.746,68.746,0,0,0-13.49.3l15.083,6.435Z" transform="translate(22.18 20.374)" fill="#101217"/>
      <path id="Trazado_103324" data-name="Trazado 103324" d="M407.653,356.771l.225-.143c-8.6-12.679-12.569-30.679-20.151-45.078-4.795-8.235-9.605-25.311-16.964-32.956v-.016c-15.132-6.371-33.18-21.695-49.937-19.592-2.644.335-12.6,5.766-24.4,10.594-.685.285-1.37.556-2.071.827-.35.143-.717.287-1.067.414-1.115.43-2.23.86-3.361,1.258l3.361,1.434,1.083.448,2.072.89,5.3,2.262.543.223a68.746,68.746,0,0,1,13.49-.3c1.29,2.612,2.63,5.193,3.982,7.757.973,1.848,1.943,3.664,2.931,5.5,1.035,1.926,2.088,3.869,3.122,5.8,1.147,2.119,2.278,4.223,3.409,6.356.145.271.287.542.43.812-4.508-1.067-10.832-2.453-11.612-2.453a44.44,44.44,0,0,0-4.809,0,27.3,27.3,0,0,0-5.831.892,18.134,18.134,0,0,0-5.432,2.437,12.284,12.284,0,0,0-1.657,1.258,17.012,17.012,0,0,0-3.457,4.157,36.585,36.585,0,0,0-2.34,4.81c-.272.687-.511,1.37-.718,2.071v.016c-.175.573-.319,1.147-.43,1.7v.032c0,.462.016.91.016,1.37.016.287.016.573.032.876,0,.462.016.925.032,1.387v.014c0,.016.016.016.016.032v.018c.463,1.209,1.481,1.991,3.345,2.021h.127c.575,0,5.368-2.1,8.554-3.265a14.5,14.5,0,0,1,2.389-.7.981.981,0,0,1,.207-.016,43.807,43.807,0,0,1,12.345,1.593c2.405.557,7.311,3.952,12.281,7.472,1.258.89,2.533,1.8,3.775,2.659,1.8,1.274,3.536,2.469,5.049,3.441a26.64,26.64,0,0,0,3.52,1.959,5.215,5.215,0,0,0,.669.255c.127.032.255.049.368.08l.221.048a16.726,16.726,0,0,0,2.788.287,2.978,2.978,0,0,1,.24.51c.19.4.365.8.54,1.211.1.255.207.51.32.766.556,1.336,1.195,2.8,1.846,4.317a77.762,77.762,0,0,1,3.7,10.145c.781,3.011,7.9,27.095,10.975,35.011,9.509,5.816,22.874,8.012,30.838,5.241C417.609,388.39,417.562,370.79,407.653,356.771Z" transform="translate(17.579 13.66)" fill="#282f39"/>
      <path id="Trazado_103325" data-name="Trazado 103325" d="M328.566,310.629c-.113-.257-.225-.511-.32-.766-.175-.414-.35-.812-.54-1.211l-1.292,1.083Z" transform="translate(39.213 43.223)" fill="#85e7ff"/>
      <path id="Trazado_103326" data-name="Trazado 103326" d="M324.55,308.374l.017.558,2.961,1.242,1.292-1.083a2.98,2.98,0,0,0-.241-.51,16.726,16.726,0,0,1-2.788-.287l-.221-.048c-.113-.03-.241-.048-.368-.08a5.214,5.214,0,0,1-.669-.255v.08Z" transform="translate(38.098 42.784)" fill="#40bcdb"/>
      <path id="Trazado_103327" data-name="Trazado 103327" d="M319.324,313.629l.031,1.593,5.687,2.836-.572-7.661-.1-1.355-.988.893Z" transform="translate(35.009 43.454)" fill="#85e7ff"/>
      <path id="Trazado_103328" data-name="Trazado 103328" d="M319.3,310.83l.127,5.479,4.062-3.694.988-.894-.159-2.228-.08-1.069-.032-.462c-1.513-.972-3.249-2.166-5.049-3.441l.064,2.853Z" transform="translate(34.908 40.774)" fill="#40bcdb"/>
      <path id="Trazado_103329" data-name="Trazado 103329" d="M320.133,325.484l-.462-9.382-6.037,5.351Z" transform="translate(31.636 47.64)" fill="#85e7ff"/>
      <path id="Trazado_103330" data-name="Trazado 103330" d="M305.2,298.181c.016.543.016,1.083,0,1.61-.032.731-.111,1.464-.207,2.149-.048.3-.112.605-.175.892a11.715,11.715,0,0,1-1.687,4.062c-.129.175-.257.35-.384.527a7.751,7.751,0,0,1-1.848,1.687c-.016.016-.048.032-.064.048a.48.48,0,0,0-.094.064,8.436,8.436,0,0,1-6.2,1l.143,3.6,30.265,18.86,6.037-5.35-.143-3.092-.191-3.664-.334-6.9-.159-3.471-.191-3.982c-4.97-3.52-9.876-6.915-12.281-7.472a43.807,43.807,0,0,0-12.345-1.593.981.981,0,0,0-.207.016,2.863,2.863,0,0,1,.032.352C305.186,297.751,305.2,297.958,305.2,298.181Z" transform="translate(20.318 36.411)" fill="#40bcdb"/>
      <path id="Trazado_103331" data-name="Trazado 103331" d="M304.047,278.864a26.052,26.052,0,0,1,2.9,1.864l10.577,5.352c-1.034-1.927-2.087-3.871-3.122-5.8l-10.5-4.621Z" transform="translate(25.867 23.664)" fill="#40bcdb"/>
      <path id="Trazado_103332" data-name="Trazado 103332" d="M314.008,285.906l-5.623-2.947-8.552-4.46-2.869-1.5.112,1.959.08,1.354a26.851,26.851,0,0,1,4.508,3.664c.08.1.191.191.287.3a30.111,30.111,0,0,1,2.246,2.628l.765.478.956.621,2.772,1.752.368.239a44.44,44.44,0,0,1,4.809,0c.78,0,7.1,1.386,11.612,2.453-.143-.271-.285-.542-.43-.812l-6.625-3.441Z" transform="translate(21.752 24.458)" fill="#40bcdb"/>
      <path id="Trazado_103333" data-name="Trazado 103333" d="M304.051,287.782l-1.434-.94-2.437-1.561-.605-.414-.191-.112-2.342-1.529-1.131-.733-2.069-1.354-.209-.127.016.543.08,2.2.016.414v.287a26.619,26.619,0,0,1,3.3,3.058c.064.081.143.159.207.239a29.6,29.6,0,0,1,2.389,3.01,1.2,1.2,0,0,1,.127.191,18.132,18.132,0,0,1,5.432-2.437l-.446-.287Z" transform="translate(19.778 26.836)" fill="#40bcdb"/>
      <path id="Trazado_103334" data-name="Trazado 103334" d="M292.15,298.394c0-.016-.016-.016-.016-.032v.032Z" transform="translate(18.889 37.122)" fill="#85e7ff"/>
      <path id="Trazado_103335" data-name="Trazado 103335" d="M292.055,294.792v.287c.014.319.014.621.03.924,0,.271,0,.526.016.8.111-.557.255-1.131.43-1.7v-.016a3.253,3.253,0,0,1-.414-.253A.078.078,0,0,1,292.055,294.792Z" transform="translate(18.842 35.005)" fill="#85e7ff"/>
      <path id="Trazado_103336" data-name="Trazado 103336" d="M291.225,244.632a4.8,4.8,0,0,1,1.195,3.457l.094,31.125c.35-.127.717-.271,1.067-.414l-.08-29.962C293.485,246.671,292.625,245.221,291.225,244.632Z" transform="translate(18.35 5.267)" fill="#636363"/>
      <path id="Trazado_103337" data-name="Trazado 103337" d="M305.691,279.062l-.128-2.834-22.65-9.955-1.019.733,14.112,7.151Z" transform="translate(12.818 18.097)" fill="#40bcdb"/>
      <path id="Trazado_103338" data-name="Trazado 103338" d="M305.983,244.743h-.018c-1.354-.573-3.2-.335-5.256.844l-30.057,17.346a14.582,14.582,0,0,0-2.644,2.009c-.382.381-.765.8-1.131,1.209-.143.159-.271.335-.4.494v.018c-.892,17.966,2.5,43.5,5.607,51.193a41.393,41.393,0,0,0,7.933,12.792V277.907c0-3.934,3.17-8.41,7.072-9.987,3.9-1.593,7.074.319,7.074,4.237v4.269l9.747,4.157c1.131-.4,2.246-.828,3.361-1.258l-.094-31.125A4.8,4.8,0,0,0,305.983,244.743Z" transform="translate(3.592 5.156)" fill="#fff"/>
      <path id="Trazado_103339" data-name="Trazado 103339" d="M291.35,288.469a2.858,2.858,0,0,1-.35-.1c-.127-.014-.253-.032-.35-.032-1.72.018-1.161,2.819-.876,3.743a5.4,5.4,0,0,0,1.72,2.5c-.014-.4-.032-.8-.032-1.179C291.429,291.767,291.381,290.11,291.35,288.469Z" transform="translate(17.3 31.182)" fill="#85e7ff"/>
      <path id="Trazado_103340" data-name="Trazado 103340" d="M291.259,238.956c.143-.064.287-.127.446-.19.1-.033.209-.081.3-.113s.159-.048.223-.08a6.708,6.708,0,0,1,.765-.191,5.629,5.629,0,0,1,1.354-.111h.018l.349.048a2.948,2.948,0,0,1,.366.064,1.469,1.469,0,0,1,.352.1,1.189,1.189,0,0,1,.333.111l-4.251-2.469c-1.786-.812-3.872-.175-5.481.749L290.4,239.4A7.289,7.289,0,0,1,291.259,238.956Z" transform="translate(15.272)" fill="#757575"/>
      <path id="Trazado_103341" data-name="Trazado 103341" d="M302.175,289.06a21.476,21.476,0,0,0-2.216-2.262c-.143-.127-.287-.239-.414-.35a3.875,3.875,0,0,0-.51-.414,1.62,1.62,0,0,0-.207-.143c-.1-.1-.207-.175-.3-.255a1.6,1.6,0,0,0-.159-.112,20.562,20.562,0,0,0-2.037-1.274c-.193-.1-.384-.191-.591-.285a9.026,9.026,0,0,0-.844-.352,8.512,8.512,0,0,0-5.335-.494.94.94,0,0,0-.193.064,5.75,5.75,0,0,0-1.561.685,6.712,6.712,0,0,0-1.4,1.195c-2.294,2.58-2.9,7.04-1.816,11.978a26.31,26.31,0,0,0,.989,3.425,31.988,31.988,0,0,0,1.289,2.995c.159.319.335.653.51.988.08.143.159.288.256.43a28.557,28.557,0,0,0,2.882,4.205,1.444,1.444,0,0,1,.159.175,22.365,22.365,0,0,0,3.936,3.711,13.013,13.013,0,0,0,6.037,2.612,7.578,7.578,0,0,0,2.4-.064,6.778,6.778,0,0,0,2.182-.86,6.394,6.394,0,0,0,1.035-.827,6.119,6.119,0,0,0,.8-.894,9.107,9.107,0,0,0,1.115-2.071,6.522,6.522,0,0,0,.223-.685,12.3,12.3,0,0,0,.494-2.533,3.892,3.892,0,0,0,.032-.43c.017-.287.032-.573.032-.876-3.186,1.163-7.979,3.265-8.554,3.265h-.127a3.806,3.806,0,0,1-.365.271,2.482,2.482,0,0,1-.924.335,3.016,3.016,0,0,1-.941.048,1.741,1.741,0,0,0-.271-.032c-.287-.064-.558-.127-.812-.207,0,.352,0,.717.016,1.067,0,.111.017.239.017.352s.064.269.064.413l-.129.08-.558-.287-.988-.54-.43-.225c-.016-.636-.032-1.274-.048-1.911-.733-.51-1.432-1.083-2.087-1.641l-.014-.191-.161-2.564-.016-.1a.138.138,0,0,1,.1.048.836.836,0,0,1,.288.175c.127.111.269.223.4.35.462.382.938.814,1.432,1.195,0-.334-.016-.669-.016-1-.016-.287-.016-.557-.016-.86v-.175c-.032-.972-.048-1.943-.064-2.915v-.4c0-.142-.014-.287-.014-.43a9.73,9.73,0,0,1-.814-.621,8.133,8.133,0,0,1-3.2-5.288,1.4,1.4,0,0,1-.03-.271,5.176,5.176,0,0,1-.081-.717c-.112-1.816.3-3.918,2.039-4.237a1.157,1.157,0,0,1,.526-.032,7.3,7.3,0,0,1,1.322.143,4.163,4.163,0,0,0,0-.446c0-.4-.032-.828-.032-1.242a.079.079,0,0,1,.016-.048.016.016,0,0,1-.016-.016h.032l.669.366.127.064.7.366.381.207.127.049c0,.142.016.285.016.413v.016c0,.3.016.605.016.894v.126c.032.016.048.032.08.032a2.513,2.513,0,0,0,.3.159,19.355,19.355,0,0,1,2.851,2.039l.032.988.08,1.943c-.111-.127-.255-.223-.35-.319-.271-.253-.573-.542-.908-.812-.365-.335-.781-.653-1.179-.97a7.308,7.308,0,0,0-.86-.591c.064,2.214.1,4.4.145,6.579.412.256.843.542,1.258.828a36.589,36.589,0,0,1,2.34-4.81,17.011,17.011,0,0,1,3.457-4.157c-.221-.319-.462-.636-.7-.956C302.794,289.761,302.492,289.411,302.175,289.06Z" transform="translate(14.106 27.946)" fill="#85e7ff"/>
      <path id="Trazado_103342" data-name="Trazado 103342" d="M294.154,290.872a7.307,7.307,0,0,1,.86.591c.4.317.814.636,1.179.97.335.271.637.559.908.812.1.1.239.191.35.319l-.08-1.943-.032-.988a19.351,19.351,0,0,0-2.851-2.039,2.512,2.512,0,0,1-.3-.159c-.032,0-.048-.016-.08-.032v-.126c0-.288-.016-.591-.016-.894v-.016c0-.127-.016-.271-.016-.413l-.127-.049-.381-.207-.7-.366-.127-.064-.669-.366h-.032a.016.016,0,0,0,.016.016.079.079,0,0,0-.016.048c0,.414.032.844.032,1.242a4.163,4.163,0,0,1,0,.446,7.3,7.3,0,0,0-1.322-.143,1.157,1.157,0,0,0-.526.032c-1.736.319-2.15,2.421-2.039,4.237a5.171,5.171,0,0,0,.081.717,1.4,1.4,0,0,0,.03.271,8.133,8.133,0,0,0,3.2,5.288,9.73,9.73,0,0,0,.814.621c0,.143.014.288.014.43v.4c.016.972.032,1.943.064,2.915v.175c0,.3,0,.573.016.86,0,.335.016.669.016,1-.494-.381-.97-.812-1.432-1.195-.129-.127-.271-.239-.4-.35a.836.836,0,0,0-.288-.175.138.138,0,0,0-.1-.048l.016.1.161,2.564.014.191c.655.557,1.354,1.131,2.087,1.641.016.637.032,1.276.048,1.911l.43.225.988.54.558.287.129-.08c0-.143-.064-.285-.064-.413s-.017-.241-.017-.352c-.016-.35-.016-.715-.016-1.067.255.08.526.143.812.207a1.742,1.742,0,0,1,.271.032,3.016,3.016,0,0,0,.941-.048,2.482,2.482,0,0,0,.924-.335,3.814,3.814,0,0,0,.365-.271c-1.864-.03-2.882-.812-3.345-2.021v-.018h-.016v-.046c-.016-.462-.032-.925-.032-1.387-.016-.3-.016-.589-.032-.876,0-.46-.016-.908-.016-1.37v-.032c-.016-.271-.016-.526-.016-.8-.016-.3-.016-.605-.03-.924v-.287a.078.078,0,0,0,.062.033,3.249,3.249,0,0,0,.414.253c.207-.7.446-1.384.718-2.071-.416-.287-.846-.572-1.258-.828C294.249,295.268,294.217,293.086,294.154,290.872Zm-3.616,2.66c-.285-.924-.844-3.726.876-3.743.1,0,.223.018.35.032a2.866,2.866,0,0,0,.35.1c.032,1.641.08,3.3.111,4.938,0,.382.018.78.032,1.179A5.4,5.4,0,0,1,290.538,293.532Z" transform="translate(16.535 29.735)" fill="#40bcdb"/>
      <path id="Trazado_103343" data-name="Trazado 103343" d="M277.814,264.192l.015.764,6.483,3.282,1.019-.733Z" transform="translate(10.399 16.864)" fill="#85e7ff"/>
      <path id="Trazado_103344" data-name="Trazado 103344" d="M280.364,261.124a7.828,7.828,0,0,0-2.389,1.768l7.979,3.393v-1.226C285.954,261.426,283.453,259.658,280.364,261.124Z" transform="translate(10.494 14.739)" fill="#636363"/>
      <path id="Trazado_103345" data-name="Trazado 103345" d="M281.68,310.383h-.018a1.574,1.574,0,0,0-.557-.081,2.771,2.771,0,0,0-1.416.43,6.177,6.177,0,0,0-2.025,1.991c.033.3.1.589.143.812a3.683,3.683,0,0,0,3.936,2.517,6.668,6.668,0,0,0,1.131-3.488A2.085,2.085,0,0,0,281.68,310.383Z" transform="translate(10.31 44.201)" fill="#e0e0e0"/>
      <path id="Trazado_103346" data-name="Trazado 103346" d="M300.357,336.866l-13.316,7.692-.765.43-13.4,7.725a6.863,6.863,0,0,1-.827.43,8.074,8.074,0,0,1-1.927.637,4.929,4.929,0,0,1-1.371.064h-.048c-.143-.016-.287-.048-.444-.08a4.314,4.314,0,0,1-.432-.127,1.863,1.863,0,0,1-.669-.334.845.845,0,0,1-.221-.143c-.033-.016-.049-.048-.081-.064a.727.727,0,0,1-.127-.111.877.877,0,0,1-.143-.112c-.046-.048-.1-.111-.143-.159a4.125,4.125,0,0,1-.844-1.561,2.436,2.436,0,0,1-.111-.462,1.923,1.923,0,0,1-.078-.43c-.018-.127-.034-.239-.049-.366-.014-.175-.014-.349-.014-.526l-.225-77.844v-.064a3.614,3.614,0,0,1,.016-.414c.016-.239.048-.494.08-.733a9.655,9.655,0,0,1,.225-1.179c.062-.266.135-.527.218-.787.113-.358.221-.715.37-1.061.127-.287.255-.572.382-.86.207-.43.43-.828.669-1.241.256-.4.51-.8.765-1.195.064-.1.143-.193.225-.3a4.721,4.721,0,0,1,.381-.492v-.018a53.647,53.647,0,0,1,1.88-12.886c-.269.175-.54.382-.812.589a18.067,18.067,0,0,0-5.5,7.709,17.17,17.17,0,0,0-.717,2.486v.014a14.5,14.5,0,0,0-.285,2.485v.08c0,.08-.018.143-.018.209v.046l.032,6.945.223,79.739.016,8.777c0,.207.017.414.032.621v.048c.016.175.032.35.049.526.014.048.014.111.03.159a2.668,2.668,0,0,0,.1.526,4.857,4.857,0,0,0,.4,1.242,4.474,4.474,0,0,0,.285.573,3.477,3.477,0,0,0,.749.972,3.6,3.6,0,0,0,.368.319v.016h.014c1.977,1.306,4.285.828,6.228-.3l17.139-9.908,15.707-9.062a15.094,15.094,0,0,0,3.805-3.315l-5.257-3.313Zm-9.922,14.764a6.459,6.459,0,0,1-2.055,2.039,2.821,2.821,0,0,1-1.419.446,1.562,1.562,0,0,1-1.067-.382,2.087,2.087,0,0,1-1.195-2.182,6.612,6.612,0,0,1,.94-3.154,9.8,9.8,0,0,1,.669-.988,5.866,5.866,0,0,1,1.577-1.384,2.981,2.981,0,0,1,1.434-.432,1.442,1.442,0,0,1,1.035.368h.018a2.085,2.085,0,0,1,1.195,2.181A6.667,6.667,0,0,1,290.435,351.63Z" transform="translate(1.619 8.623)" fill="#979797"/>
      <path id="Trazado_103347" data-name="Trazado 103347" d="M279.354,302.535a22.8,22.8,0,0,0,8.729,2.565l-6.324-4a9.691,9.691,0,0,1-2.389,1.416Z" transform="translate(11.312 38.747)" fill="#fff"/>
      <path id="Trazado_103348" data-name="Trazado 103348" d="M276.061,294.771v16.964l19.64,12.233-.127-3.488a33.067,33.067,0,0,1-4.046-5.288c-.255-.4-.494-.811-.733-1.209-.3-.559-.605-1.1-.876-1.657-.239-.479-.462-.941-.669-1.419a33.889,33.889,0,0,1-1.354-3.568,27.4,27.4,0,0,1-.86-3.345c-.126-.589-.223-1.179-.287-1.752-.78-5.973.637-11.118,4.253-13.38a6.94,6.94,0,0,1,1.115-.589,9.846,9.846,0,0,1,1.354-.43,7.481,7.481,0,0,1,.86-.127l-.112-2.979-.127-3.425-14.909-9.667-3.122-2.04-.287-.191L276.013,291Z" transform="translate(9.19 19.958)" fill="#40bcdb"/>
      <path id="Trazado_103349" data-name="Trazado 103349" d="M278.24,312.634c-.046-.223-.11-.51-.143-.812l-.237.384a6.55,6.55,0,0,0-.924,3.136,2.429,2.429,0,0,0,.7,1.911,1.561,1.561,0,0,0,1.067.382,2.821,2.821,0,0,0,1.419-.446,6.46,6.46,0,0,0,2.055-2.039,3.683,3.683,0,0,1-3.936-2.517Z" transform="translate(9.878 45.102)" fill="#d1d1d1"/>
      <path id="Trazado_103350" data-name="Trazado 103350" d="M278.043,313.214l.237-.384a6.177,6.177,0,0,1,2.025-1.991,2.772,2.772,0,0,1,1.416-.43,1.574,1.574,0,0,1,.557.081,1.442,1.442,0,0,0-1.035-.368,2.981,2.981,0,0,0-1.434.432,5.866,5.866,0,0,0-1.577,1.384,9.806,9.806,0,0,0-.669.988,6.612,6.612,0,0,0-.94,3.154,2.087,2.087,0,0,0,1.195,2.182,2.429,2.429,0,0,1-.7-1.911A6.55,6.55,0,0,1,278.043,313.214Z" transform="translate(9.693 44.094)" fill="#fff"/>
      <path id="Trazado_103351" data-name="Trazado 103351" d="M278.911,269.286l1.562.988,14.257,9.014,4.156,2.644-.271-4.317-16.439-8.554-3.281-1.72-1.514-.779-1.259.955Z" transform="translate(9.397 18.269)" fill="#40bcdb"/>
      <path id="Trazado_103352" data-name="Trazado 103352" d="M356.455,337.369l-2.961-1.242-.017-.558-.016-.382v-.08a26.647,26.647,0,0,1-3.52-1.959l.032.462.08,1.069.159,2.228.1,1.356.572,7.66-5.687-2.835-.032-1.593-.127-5.479-.08-3.455-.064-2.853c-1.242-.86-2.517-1.768-3.775-2.659l.191,3.982.159,3.471.334,6.9.191,3.664.143,3.092.462,9.38-6.5-4.03-30.265-18.86-.143-3.6a8.436,8.436,0,0,0,6.2-1,.48.48,0,0,1,.094-.064c.016-.016.048-.032.064-.048a7.751,7.751,0,0,0,1.848-1.687c.127-.177.255-.352.384-.527a11.716,11.716,0,0,0,1.687-4.062c.064-.287.127-.588.175-.892.1-.685.175-1.418.207-2.149.016-.527.016-1.067,0-1.61,0-.223-.014-.43-.032-.651a2.858,2.858,0,0,0-.032-.352,14.5,14.5,0,0,0-2.389.7c0,.3-.014.589-.032.876a3.891,3.891,0,0,1-.032.43,12.3,12.3,0,0,1-.494,2.533,6.524,6.524,0,0,1-.223.685A9.108,9.108,0,0,1,312,325.295a6.121,6.121,0,0,1-.8.894,6.392,6.392,0,0,1-1.035.827,6.777,6.777,0,0,1-2.182.86,7.577,7.577,0,0,1-2.4.064,13.012,13.012,0,0,1-6.037-2.612,22.365,22.365,0,0,1-3.936-3.711,1.44,1.44,0,0,0-.159-.175,28.555,28.555,0,0,1-2.882-4.205c-.1-.142-.177-.287-.256-.43-.175-.334-.35-.669-.51-.988a31.985,31.985,0,0,1-1.289-2.995,26.316,26.316,0,0,1-.989-3.425c-1.083-4.938-.478-9.4,1.816-11.978a6.71,6.71,0,0,1,1.4-1.195,5.749,5.749,0,0,1,1.561-.685.94.94,0,0,1,.193-.064,8.512,8.512,0,0,1,5.335.494,9.047,9.047,0,0,1,.844.352c.207.094.4.19.591.285a20.558,20.558,0,0,1,2.037,1.274,1.613,1.613,0,0,1,.159.112c.1.08.207.159.3.255a1.62,1.62,0,0,1,.207.143,3.88,3.88,0,0,1,.51.414c.127.111.271.223.414.35a21.47,21.47,0,0,1,2.216,2.262c.317.35.62.7.906,1.083.239.32.479.637.7.956a12.278,12.278,0,0,1,1.657-1.258,1.2,1.2,0,0,0-.127-.191,29.592,29.592,0,0,0-2.389-3.01c-.064-.08-.143-.158-.207-.239a26.617,26.617,0,0,0-3.3-3.058v-.287l-.016-.414-.08-2.2-.016-.543.209.127,2.069,1.354,1.131.733L309.991,296l.191.112.605.414,2.437,1.561,1.434.94.7.446.446.287a27.3,27.3,0,0,1,5.831-.892l-.368-.239-2.772-1.752-.956-.621-.765-.478a30.116,30.116,0,0,0-2.246-2.628c-.1-.111-.207-.207-.287-.3a26.851,26.851,0,0,0-4.508-3.664l-.08-1.354-.111-1.959,2.869,1.5,8.552,4.46,5.623,2.947L331,297.069l6.625,3.441c-1.131-2.133-2.262-4.237-3.409-6.356L323.642,288.8a26.05,26.05,0,0,0-2.9-1.864l-.143-3.2,10.5,4.621c-.988-1.833-1.958-3.649-2.931-5.5l-2.389-1.019-15.083-6.435-.543-.223-5.3-2.262-2.072-.89-1.083-.448-3.361-1.434-9.747-4.157-1.308-.557-7.979-3.393a11.322,11.322,0,0,0-2.2,3.2,10.453,10.453,0,0,0-.956,3.234l1.465.766,1.513.779,3.281,1.72,16.438,8.554.271,4.317-4.156-2.644L280.7,272.955l-1.561-.989-2.788-1.768-.271-.175-.335-.207v.86l.048,3.106.287.191,3.122,2.04,14.909,9.667.127,3.425.112,2.979a7.488,7.488,0,0,0-.86.127,9.842,9.842,0,0,0-1.354.43,6.94,6.94,0,0,0-1.115.589c-3.616,2.262-5.033,7.407-4.253,13.38.064.573.161,1.163.287,1.752a27.41,27.41,0,0,0,.86,3.345,33.9,33.9,0,0,0,1.354,3.568c.207.478.43.94.669,1.419.271.556.575,1.1.876,1.657.239.4.478.811.733,1.209a33.069,33.069,0,0,0,4.046,5.288l.127,3.488L276.079,316.1v3.2l6.053,3.839,1.768,1.117,6.324,4,1.449.924,1.131.718,2.564,1.607,5.257,3.313,45.03,28.481-.366-16.278-.016-.288,8.92,4.524-.542-11.564,6.8,2.885c-.651-1.515-1.29-2.98-1.846-4.317ZM285.54,269.513l-6.483-3.281-.016-.765,7.518,3.313,22.651,9.955.127,2.835-9.685-4.906Z" transform="translate(9.172 15.589)" fill="#2f8aa1"/>
      <path id="Trazado_103353" data-name="Trazado 103353" d="M281.563,302.07c.142-.08.285-.143.444-.239l-6.053-3.839v.143C275.954,301.783,278.471,303.551,281.563,302.07Z" transform="translate(9.296 36.903)" fill="#636363"/>
      <path id="Trazado_103354" data-name="Trazado 103354" d="M275.75,267.5l.335.207.271.176,1.259-.955-1.465-.765-.414-.222Z" transform="translate(9.166 17.901)" fill="#85e7ff"/>
      <path id="Trazado_103355" data-name="Trazado 103355" d="M282,259.391c-3.9,1.577-7.072,6.053-7.072,9.987v53.967c0,3.918,3.154,5.814,7.056,4.253l.016-.016a9.692,9.692,0,0,0,2.389-1.416l-1.768-1.117c-.159.1-.3.159-.444.239-3.092,1.481-5.608-.287-5.608-3.934V301.045l-.048-3.775-.239-21.583-.048-3.106v-.86l-.016-1.561.414.223a10.455,10.455,0,0,1,.956-3.234,11.323,11.323,0,0,1,2.2-3.2,7.827,7.827,0,0,1,2.389-1.768c3.089-1.465,5.589.3,5.589,3.934v1.227l1.308.558v-4.269C289.07,259.71,285.9,257.8,282,259.391Z" transform="translate(8.686 13.684)" fill="#03e6b0"/>
      <path id="Trazado_103356" data-name="Trazado 103356" d="M272.3,249.025a1.78,1.78,0,0,0,1.673-.032l12.442-7.056c.492-.271.556-.717.142-.988a1.862,1.862,0,0,0-1.688.048l-12.424,7.041a.7.7,0,0,0-.428.573A.507.507,0,0,0,272.3,249.025Z" transform="translate(6.961 2.977)" fill="#424242"/>
      <path id="Trazado_103357" data-name="Trazado 103357" d="M296.7,242.863c-.048.014-.078.046-.127.064L270.9,257.755a1.448,1.448,0,0,0-.653,1.1.649.649,0,0,0,.034.206c.094.271.334.334.62.175l25.677-14.83a1.427,1.427,0,0,0,.637-1.115C297.211,242.941,297,242.766,296.7,242.863Z" transform="translate(5.911 4.202)" fill="#d1d1d1"/>
      <path id="Trazado_103358" data-name="Trazado 103358" d="M271.075,257.835l25.677-14.828c.049-.018.08-.049.127-.064-.078-.241-.334-.32-.6-.161l-25.695,14.831a1.421,1.421,0,0,0-.637,1.113c0,.35.223.526.511.414a.65.65,0,0,1-.034-.205A1.448,1.448,0,0,1,271.075,257.835Z" transform="translate(5.733 4.122)" fill="#fff"/>
      <path id="Trazado_103359" data-name="Trazado 103359" d="M268.9,258.5a10.135,10.135,0,0,1,.876-.557l21.233-12.265,11.612-6.69-4.365-2.533L275.7,249.466l-10.29,5.957,3.791,2.182C269.1,257.892,269,258.2,268.9,258.5Zm7.455-7.9,12.424-7.041a1.862,1.862,0,0,1,1.688-.048c.414.271.35.717-.142.988l-12.442,7.056a1.78,1.78,0,0,1-1.673.032.507.507,0,0,1-.285-.414A.7.7,0,0,1,276.357,250.6Z" transform="translate(3.047 0.417)" fill="#919191"/>
      <path id="Trazado_103360" data-name="Trazado 103360" d="M306.708,237.445a2.943,2.943,0,0,0-.366-.064l-.349-.048h-.018a5.629,5.629,0,0,0-1.354.111,6.7,6.7,0,0,0-.765.191c-.064.032-.143.048-.223.08s-.207.08-.3.113c-.159.062-.3.126-.446.19a7.287,7.287,0,0,0-.86.446l-11.612,6.69L269.18,257.42a10.158,10.158,0,0,0-.876.557,53.65,53.65,0,0,0-1.88,12.886c.127-.159.255-.335.4-.494.366-.413.749-.828,1.131-1.209a14.583,14.583,0,0,1,2.644-2.009l30.057-17.346c2.055-1.179,3.9-1.418,5.256-.844h.018c1.4.589,2.26,2.039,2.276,4.205l.08,29.962c.7-.271,1.386-.542,2.071-.827l-.1-39.138c-.014-2.611-.94-4.444-2.437-5.288v-.016c-.127-.064-.271-.143-.43-.207a1.188,1.188,0,0,0-.333-.111A1.469,1.469,0,0,0,306.708,237.445Zm-7.869,10.226L273.162,262.5c-.285.159-.526.1-.62-.175-.288.111-.511-.064-.511-.414a1.422,1.422,0,0,1,.637-1.113l25.695-14.831c.269-.159.526-.08.6.161.3-.1.51.078.51.428A1.427,1.427,0,0,1,298.839,247.671Z" transform="translate(3.646 0.938)" fill="#bdbdbd"/>
      <path id="Trazado_103361" data-name="Trazado 103361" d="M281.2,323.6v-1.225a41.394,41.394,0,0,1-7.932-12.792c-3.106-7.694-6.5-33.227-5.607-51.193a4.716,4.716,0,0,0-.381.492c-.081.112-.161.207-.225.3-.255.4-.508.8-.765,1.195-.239.413-.462.811-.669,1.241-.127.288-.255.573-.382.86-.148.346-.256.7-.37,1.061-.08.26-.155.522-.218.787a9.661,9.661,0,0,0-.225,1.179c-.032.239-.064.494-.08.733a3.613,3.613,0,0,0-.016.414v.064l.225,77.844c0,.177,0,.35.014.526.016.128.032.239.049.366a1.926,1.926,0,0,0,.078.43,2.439,2.439,0,0,0,.111.462,4.125,4.125,0,0,0,.844,1.561c.064.048.112.111.175.159,1.625.7,3.775-.078,5.177-.892l27.429-15.833-1.449-.924a22.8,22.8,0,0,1-8.729-2.564C284.356,329.418,281.2,327.522,281.2,323.6Z" transform="translate(2.407 13.426)" fill="#e4eae8"/>
      <path id="Trazado_103362" data-name="Trazado 103362" d="M265.274,320.917a.672.672,0,0,1,.112.112.723.723,0,0,0,.127.111c.032.016.048.048.081.064a.845.845,0,0,0,.221.143,1.862,1.862,0,0,0,.669.334,4.308,4.308,0,0,0,.432.127c.158.032.3.064.444.08h.048a4.928,4.928,0,0,0,1.371-.064,8.074,8.074,0,0,0,1.927-.637,6.865,6.865,0,0,0,.827-.43l13.4-7.725.765-.43,13.316-7.692-1.131-.718-27.429,15.833C269.049,320.839,266.9,321.618,265.274,320.917Z" transform="translate(2.964 40.578)" fill="#636363"/>
      <path id="Trazado_103363" data-name="Trazado 103363" d="M265.164,314.592c.048.048.1.111.143.159a.878.878,0,0,0,.143.112.671.671,0,0,0-.112-.112C265.276,314.7,265.228,314.64,265.164,314.592Z" transform="translate(2.899 46.744)" fill="#94d9fa"/>
      <path id="Trazado_103364" data-name="Trazado 103364" d="M264.535,262.415c.064-.264.139-.527.218-.787C264.67,261.888,264.6,262.149,264.535,262.415Z" transform="translate(2.526 15.344)" fill="#94d9fa"/>
      <path id="Trazado_103365" data-name="Trazado 103365" d="M263.911,255.5a14.16,14.16,0,0,0-.717,2.486A17.166,17.166,0,0,1,263.911,255.5Z" transform="translate(1.731 11.712)" fill="#919191"/>
      <path id="Trazado_103366" data-name="Trazado 103366" d="M266.8,324.7a3.6,3.6,0,0,1-.368-.319,3.476,3.476,0,0,1-.749-.972,4.46,4.46,0,0,1-.285-.573,4.853,4.853,0,0,1-.4-1.242,2.668,2.668,0,0,1-.1-.526c-.016-.048-.016-.111-.03-.159-.018-.175-.033-.35-.049-.526v-.048c-.014-.207-.032-.414-.032-.621l-4.333-2.533A6.547,6.547,0,0,0,262,321.8a10.018,10.018,0,0,0,2.118,1.4c1.035.589,2.055,1.179,3.076,1.784a2.721,2.721,0,0,1-.384-.271H266.8Z" transform="translate(0.107 48.28)" fill="#545454"/>
      <path id="Trazado_103367" data-name="Trazado 103367" d="M263.3,257.072a13.073,13.073,0,0,0-.285,2.485A14.5,14.5,0,0,1,263.3,257.072Z" transform="translate(1.625 12.642)" fill="#919191"/>
      <path id="Trazado_103368" data-name="Trazado 103368" d="M264.623,265.009c0-.065.018-.129.018-.209v-.08a13.076,13.076,0,0,1,.285-2.485v-.014a14.162,14.162,0,0,1,.717-2.486,18.066,18.066,0,0,1,5.5-7.71c.272-.207.543-.414.812-.589.1-.3.193-.605.3-.892l-3.791-2.182a17.489,17.489,0,0,0-8.187,14.177l4.349,2.517Z" transform="translate(0 7.478)" fill="#757575"/>
      <path id="Trazado_103369" data-name="Trazado 103369" d="M262.38,262.465c-.225-.064-.8.271-1.195.717a.525.525,0,0,1,.413-.016,1.422,1.422,0,0,1,.782,1.322v21.026a.923.923,0,0,1-.225.653,1.586,1.586,0,0,0,.988-1.37V263.644A1.2,1.2,0,0,0,262.38,262.465Z" transform="translate(0.54 15.835)" fill="#bdbdbd"/>
      <path id="Trazado_103370" data-name="Trazado 103370" d="M262.523,264.237a1.422,1.422,0,0,0-.782-1.322.524.524,0,0,0-.413.016,1.246,1.246,0,0,0-.384.781v21.027a1.405,1.405,0,0,0,.8,1.321.463.463,0,0,0,.542-.143h.016a.923.923,0,0,0,.225-.653Z" transform="translate(0.397 16.086)" fill="#d1d1d1"/>
      <path id="Trazado_103371" data-name="Trazado 103371" d="M260.944,263.693a1.246,1.246,0,0,1,.384-.781A.818.818,0,0,0,260.944,263.693Z" transform="translate(0.397 16.105)" fill="#828282"/>
      <path id="Trazado_103372" data-name="Trazado 103372" d="M262.139,279.1c-.221-.08-.811.271-1.195.717a.489.489,0,0,1,.4-.032,1.421,1.421,0,0,1,.8,1.324V294.42a.992.992,0,0,1-.239.687,1.653,1.653,0,0,0,1-1.4V280.275A1.2,1.2,0,0,0,262.139,279.1Z" transform="translate(0.397 25.693)" fill="#bdbdbd"/>
      <path id="Trazado_103373" data-name="Trazado 103373" d="M262.281,290.459v-9.6a1.421,1.421,0,0,0-.8-1.324.489.489,0,0,0-.4.032,1.3,1.3,0,0,0-.382.781v13.3a1.421,1.421,0,0,0,.78,1.322.506.506,0,0,0,.558-.11.992.992,0,0,0,.239-.686Z" transform="translate(0.255 25.942)" fill="#d1d1d1"/>
      <path id="Trazado_103374" data-name="Trazado 103374" d="M260.7,280.323a1.3,1.3,0,0,1,.382-.781A.808.808,0,0,0,260.7,280.323Z" transform="translate(0.255 25.964)" fill="#828282"/>
      <path id="Trazado_103375" data-name="Trazado 103375" d="M264.877,346.463l-.223-79.739-.032-6.945-4.349-2.517.1,30.808.191,64.637,4.333,2.533ZM263.3,295.985v10.656a1.653,1.653,0,0,1-1,1.4.506.506,0,0,1-.558.11,1.421,1.421,0,0,1-.78-1.322v-13.3a.808.808,0,0,1,.382-.781c.384-.446.973-.8,1.195-.717a1.2,1.2,0,0,1,.765,1.179Zm.382-8.108a1.586,1.586,0,0,1-.988,1.37h-.016a.463.463,0,0,1-.542.143,1.405,1.405,0,0,1-.8-1.321V267.042a.818.818,0,0,1,.384-.781c.4-.446.97-.781,1.195-.717a1.2,1.2,0,0,1,.763,1.179Z" transform="translate(0 12.755)" fill="#636363"/>
    </g>
  </g>
</svg>
