<svg xmlns="http://www.w3.org/2000/svg" width="295" height="190.906" viewBox="0 0 295 190.906">
  <g id="Grupo_57836" data-name="Grupo 57836" transform="translate(-146 -1042)">
    <rect id="Rectángulo_5410" data-name="Rectángulo 5410" width="295" height="62" transform="translate(146 1158)" fill="#0077ec"/>
    <g id="Grupo_57453" data-name="Grupo 57453" transform="translate(-41.104 1028.015)">
      <g id="Grupo_57455" data-name="Grupo 57455" transform="translate(242.688 13.985)">
        <g id="Grupo_57454" data-name="Grupo 57454">
          <g id="Grupo_57453-2" data-name="Grupo 57453">
            <path id="Trazado_105847" data-name="Trazado 105847" d="M371.948,96.684c2.557,1.486,2.994,3.715,1.337,5.456.548-1.609-.451-3.412-2.559-4.63l-20.611-11.9-42.933-24.79a12.2,12.2,0,0,0-7.566-1.185,9.7,9.7,0,0,0,.746-.74A12.386,12.386,0,0,1,308.415,60l42.26,24.4Z" transform="translate(-190.436 27.028)" fill="#e8e8e8"/>
            <path id="Trazado_105848" data-name="Trazado 105848" d="M358.615,84.617c2.108,1.218,3.107,3.021,2.559,4.63a5.9,5.9,0,0,1-1.337,1.024l-39.061,22.55-1.716-2.973a.829.829,0,0,0,0-1.573l-6.248-3.606c10.5-9.029,19.5-19.98,25.193-31.955Z" transform="translate(-178.325 39.921)" fill="#e9e9e8"/>
            <path id="Trazado_105849" data-name="Trazado 105849" d="M424.2,144.177a5.9,5.9,0,0,0,1.337-1.024,3.96,3.96,0,0,1-1.837,2.035l-100.91,58.6c-3.094,1.778-8.843,1.268-11.939-.524L246.806,167.08a5.162,5.162,0,0,1-1.109-.852c-1.7-.487-3.009-3.35-3.009-6.8a12.691,12.691,0,0,1,.148-1.964,5.415,5.415,0,0,1-.148-1.373V82.729a12.381,12.381,0,0,1,5.6-9.724L349.2,14.747c1.924-1.109,3.6-.963,4.63.146a4.267,4.267,0,0,0-3.523.587L297.086,46.205l-47.7,27.531a12.406,12.406,0,0,0-5.6,9.722v73.364a4.5,4.5,0,0,0,.986,3.1,2.692,2.692,0,0,0,1.584.865,2.364,2.364,0,0,0,.426.035c-1.049,1.511-.644,3.266,1.193,4.568a4.964,4.964,0,0,0,.56.368l63.533,36.681a12.387,12.387,0,0,0,11.221,0l61.849-35.707ZM263.424,175.668c.132.075.246.011.246-.148a.513.513,0,0,0-.246-.41l-2.656-1.55a.158.158,0,0,0-.1-.025c-.084,0-.146.059-.146.173a.582.582,0,0,0,.244.426Zm-4.8-2.693c.134.061.232.013.232-.146a.528.528,0,0,0-.232-.428l-2.668-1.532a.183.183,0,0,0-.1-.038c-.086,0-.136.075-.136.184a.521.521,0,0,0,.232.414Zm-4.812-2.558c.257.134.451.025.451-.267a1,1,0,0,0-.451-.794l-4.983-2.861a.293.293,0,0,0-.184-.061c-.157,0-.255.111-.255.315a1.015,1.015,0,0,0,.439.794Z" transform="translate(-242.688 -13.985)" fill="#9a1503"/>
            <path id="Trazado_105850" data-name="Trazado 105850" d="M353.423,60.426l42.933,24.79c-5.69,11.975-14.693,22.926-25.193,31.955l-9.236-5.335a3,3,0,0,0-2.727,0l-24.6,14.192a.841.841,0,0,0,0,1.584l11.064,6.371q-3.823,1.864-7.631,3.339c-15.594,5.884-30.588,8.832-47.07,5.884-14.1-2.756-35.952-13.049-41.729-27.935L344.3,60.387a8.7,8.7,0,0,0,1.557-1.147A12.2,12.2,0,0,1,353.423,60.426Zm31.069,27.519-.086-.56-3.9-2.206-3.774,2.23.086.573,3.934,2.19ZM379.858,90.7l-.094-.573-3.9-2.181L372.1,90.173l.071.573,3.947,2.192Zm-.278-5.52-.086-.56-3.64-2.035-3.767,2.24.084.562.268.157,3.375,1.889Zm-4.254-2.374-.084-.56-3.7-2.073-3.79,2.24.084.573,3.717,2.062Zm-.1,10.659-.084-.575-3.922-2.19-4.352,2.581.084.56,3.924,2.207Zm-.292-5.52-.146-.535.059-.025-.075-.05-3.3-1.839-3.767,2.23.075.572,3.383,1.887Zm-4.095-7.639-.084-.572-3.642-2.046-3.8,2.263.1.562,3.655,2.035Zm-.169,5.265L370.591,85l-3.705-2.071-3.765,2.24.075.573,3.715,2.06Zm-.382,5.142-.084-.575-3.372-1.889-4.35,2.6.048.025.036.537,3.389,1.874Zm-3.053,7.5-.123-.537.034-.036-4.141-2.3L359.2,97.605l.086.573,4.152,2.3Zm-.89-20.419-.075-.573-3.7-2.083-3.811,2.267.084.572,3.717,2.058Zm-.146,5.261-.086-.572-3.654-2.033L358.7,82.705l.073.573,3.655,2.035Zm-.173,5.265-.071-.572-3.717-2.062-4.265,2.537h-.023l-.038.035.05.025.025.535,3.678,2.083ZM362.39,101.09l-.073-.558L358.2,98.2l-3.63,2.146.086.558,4.118,2.33Zm-.5-25.8-.1-.573-3.159-1.741-3.8,2.252.086.56,3.155,1.766Zm-.159,10.633-.084-.572-.171-.1-3.63-2.035-4.361,2.57.036.027.048.547.036.013,3.8,2.117Zm-.036-5.37-.073-.562-3.705-2.071-3.786,2.244.084.572,3.715,2.071Zm-3.74-7.459-.086-.558-4.361-2.461-3.84,2.267.086.572,4.4,2.449Zm-.109,30.69-.1-.573-4.093-2.315-3.608,2.158.075.56,4.154,2.292Zm-.366-5.47-.1-.56-3.423-1.937-3.632,2.158.086.57,3.435,1.939Zm-.244-20.272-.086-.562L354,75.726l-3.8,2.253.1.572,3.143,1.743ZM357.08,83.3l-.086-.573-3.717-2.071-4.334,2.6.084.558.291.173,3.266,1.828.169.084.036-.052Zm-3.765-7.445-.084-.57-4.386-2.463-3.813,2.267.084.573,4.4,2.461Zm-.184,20.005-.086-.573-3.251-1.826-3.642,2.167-.307.2-.595.328-3.667,2.194.084.56,3.266,1.816,3.654-2.171.585-.338.318-.2ZM352.6,80.8l-.146-.537.073-.025-3.157-1.753-4.348,2.579.075.573,3.164,1.755Zm-3.18-12.478-.073-.558-4.912-2.767L341.01,67l.086.573L346,70.352Zm-.453,25.2-.084-.575-2.9-1.646-1.488-.827-.389-.221L340.84,88.4l-3.692,2.194.086.573,3.276,1.824.159.1.315.173-.424.257-3.715,2.2.082.56L340.74,98.4l3.678-2.179.6-.343.3-.184Zm-.046,15.59-.073-.572-4.12-2.326-.366.207-3.375,2.021-.474.268.073.573,4.131,2.315Zm-.232-30.492-.086-.572-4.4-2.461-4.311,2.581.071.572,3.9,2.219.451.244Zm-4.02-7.457-.086-.573-4.91-2.775-3.3,1.964.071.558,4.935,2.777Zm-.621,30.1-.086-.572-3.253-1.818-3.972,2.353.073.573,3.266,1.814Zm-.4,5.286-.073-.56-3.462-1.937-3.374,2.01.073.564,3.485,1.947Zm-3.448,7.762-.086-.583-4.141-2.315-.5.292-4.079,2.424-.292.182-.526.3-4.1,2.451-.514.3-.316.2-3.5,2.069-.362.207-.455.282-3.7,2.192-.4.242-.428.245-4.056,2.424-.389.232-.451.255-3.753,2.24-.428.247-.389.23-3.531,2.094-.293.182-.535.316-3.592,2.131-.416.244-.416.259-4.446,2.641.075.575,4.141,2.313,4.9-2.9,4.543-2.7,4.192-2.5,4.616-2.766,4.887-2.861,4.532-2.743,4.177-2.486L335.3,117.2Zm-.023-40.5-.075-.572-4.91-2.766L331.3,72.813l.086.562,4.873,2.764Zm-.1,14.679-.075-.57-3.446-1.95-3.717,2.206.061.036.027.535,3.471,1.939Zm-.209,10.429-.082-.558-3.8-2.121-3.974,2.351.084.573,3.815,2.117Zm-.23-5.406-.073-.575L336.294,91.1l-3.751,2.23.084.573,3.291,1.814Zm-.159,15.542-.084-.573-3.471-1.937-3.887,2.294.086.573,3.473,1.935Zm-.217-4.944-.086-.573-3.253-1.812-3.009,1.764-.378.157.012.073.084.56,3.266,1.828ZM335.563,91.2l-.109-.57-3.46-1.95-3.788,2.255.13.572,3.477,1.926Zm-.059-5.3-.086-.56-3.886-2.194L327.79,85.35l.086.572,3.911,2.194Zm-.33-9.112-.086-.573-4.869-2.754-2.158,1.268-.063.036.063.023.035.55,4.887,2.764Zm-.1,24.986-.084-.573-3.8-2.117-3.362,2.008.075.573,3.8,2.108Zm-.011,4.823-.086-.572-3.251-1.814-3.887,2.3.086.572,3.264,1.828Zm-.025-10.354-.073-.572-3.278-1.83-3.958,2.353.073.572,3.276,1.828Zm-.278,15.594-.086-.573-3.462-1.926-4.068,2.413.071.573,3.475,1.937ZM331.91,78.747l-.084-.572L326.914,75.4l-3.423,2.035.086.573,4.912,2.779Zm-.965,9.869-.082-.573-3.889-2.206-3.836,2.292.1.573,3.91,2.167Zm-.023,5.322-.084-.573-3.46-1.935-3.972,2.351.084.573,3.462,1.937Zm-.036,10.331-.084-.573-3.8-2.131-3.872,2.315.084.56,3.811,2.119Zm-.51,5.117-.086-.573L327.023,107l-4.054,2.424.073.558,3.264,1.83Zm-.125-10.3-.084-.562L326.9,96.681l-3.372,2,.086.573,3.274,1.839Zm-.389,15.665-.086-.573-3.456-1.937-4.12,2.451.084.572,3.473,1.937ZM327.39,81.428l-.086-.573-4.894-2.766-3.448,2.035.084.573,4.921,2.764Zm-1.07,9.94-.075-.573-3.922-2.179-3.983,2.349.1.56,3.922,2.194Zm-.125,15.678-.084-.56-3.813-2.133-4.056,2.436.084.573,3.8,2.121Zm-.059-10.268-.071-.56-3.477-1.95-3.37,2.01.071.572,3.471,1.937Zm-.059,4.787-.1-.56L322.7,99.178l-3.863,2.3.084.573,3.264,1.828Zm-.6,10.721-.084-.56-3.264-1.83-4.118,2.451.084.572,3.266,1.816Zm-.535,5.4-.084-.562-3.471-1.937-3.5,2.071.1.573,3.462,1.926Zm-2.071-33.562-.071-.573-4.923-2.777-3.91,2.351.086.572,4.871,2.754Zm-.926,15.141-.084-.56-3.473-1.924-3.861,2.29.073.572,3.473,1.926Zm-.412-5.055-.084-.572-3.922-2.194-3.364,2.01.071.573,3.937,2.194Zm-.159,10.161-.084-.572-3.266-1.83-4.081,2.413.086.572,3.276,1.828Zm-.061,5.6-.086-.573-3.813-2.133-4.116,2.451.086.573,3.811,2.131Zm-.681,10.282-.086-.573-3.473-1.949-3.7,2.207.084.572,3.483,1.949Zm-.086-5.019-.1-.573-3.253-1.812-3.494,2.069.084.573,3.264,1.814Zm-2.7-28.143-.084-.573-4.887-2.741-3.412,2.01.086.573,4.885,2.754Zm-.487,9.614-.1-.573-3.922-2.194-3.876,2.3.086.558,3.924,2.2Zm-.1,5.36-.075-.575L313.7,99.554l-4.081,2.413.1.573,3.46,1.937Zm-.767,5.213-.084-.573-3.291-1.839-4.118,2.449.1.573,3.266,1.828Zm-.109,5.629-.086-.573-3.826-2.121-3.481,2.073.084.572,3.824,2.121Zm-.146,4.885-.1-.573-3.255-1.814-3.69,2.192.086.573,3.251,1.816Zm-.123,5.153-.086-.562-3.483-1.947-4.07,2.411.086.573,3.483,1.937Zm-2.754-33.173-.084-.573-4.9-2.766-3.132,1.878.086.56,4.885,2.764Zm-.692,9.722-.1-.573-3.92-2.192-4.083,2.424.086.562,3.922,2.19Zm-.3,5.483-.086-.587-3.471-1.924-4.106,2.436.073.573,3.483,1.937Zm-.291,10.5-.075-.572-3.826-2.135-3.7,2.194.086.573,3.824,2.131Zm-.366,5.008-.086-.56-3.241-1.841-4.083,2.426.086.572,3.257,1.816Zm-.157-10.272-.086-.57-3.278-1.83-3.485,2.071.073.573,3.276,1.828Zm-.318,15.646-.086-.575-3.485-1.949-3.751,2.242.084.56,3.487,1.949Zm-2.083-33.576-.086-.573-4.91-2.752-3.387,2.008.075.56,4.908,2.766Zm-1.39,10.122-.071-.572-3.924-2.194-4.108,2.461.086.56,3.9,2.183ZM303.5,120.594l4.033-2.438-.539-.3.455-.269-3.813-2.131-4.072,2.413.55.3-.453.268Zm3.911-12.7-.086-.556-3.458-1.939-3.485,2.058.073.573,3.473,1.947Zm-.182,4.873-.084-.572-3.278-1.826-3.7,2.192.086.573,3.289,1.839ZM306.8,123.4l-.136-.549.061-.023-.084-.05L303.466,121l-3.753,2.23.084.572,3.264,1.826Zm-.159,5.178-.073-.573-3.5-1.937-3.519,2.085.086.572,3.481,1.95Zm-1.987-33.624-.086-.573-4.91-2.766-3.435,2.058-.035.013v.012l-.038.011.05.027.036.547,4.885,2.754ZM303.11,110.47l-.086-.573-3.469-1.935-3.705,2.2.084.562,3.471,1.937Zm-.3-5.13-.073-.572-3.9-2.181-3.5,2.071.086.573,3.9,2.181Zm-4.168,12.539,4.07-2.424-.535-.292.449-.27-3.289-1.839-4.056,2.424.535.3-.437.267Zm.257,5.408,3.765-2.206-.55-.3.464-.28-3.824-2.133L295,120.594l.535.292-.449.28Zm3.4,7.869-.086-.572-3.483-1.937-3.592,2.142.084.573L298.7,133.3Zm-.059-5.055-.086-.558-3.251-1.828-3.535,2.106.084.56,3.253,1.828ZM300.028,97.68l-.084-.562-4.873-2.752-4.4,2.595.084.572,4.9,2.767Zm-5.506,17.884,4.07-2.4-.539-.3.439-.269-3.458-1.937-4.068,2.426.533.293-.449.267Zm3.97-7.666-.071-.57-3.9-2.169-3.7,2.183.084.57,3.9,2.183Zm-3.934,17.984,3.51-2.108-.537-.293.451-.28-3.813-2.119-3.521,2.1.535.3-.449.268Zm3.326,2.813-.084-.573-3.268-1.814-3.592,2.133.075.572,3.264,1.826Zm-.011,5.1-.084-.572-3.5-1.96-4.446,2.654.1.573,3.46,1.949Zm-3.8-13.2,3.751-2.23-.549-.292.451-.268-3.278-1.839L290.7,118.2l.537.3-.462.267Zm.5-19.65-.086-.56-4.908-2.766-3.18,1.887.086.572,4.908,2.781Zm-.6,9.649-.075-.585-3.9-2.169-4.07,2.424.086.562,3.9,2.181ZM290.112,128.5l3.617-2.121-.537-.3.453-.27-3.826-2.131-3.606,2.131.547.307-.462.267Zm-.171-10.211,3.751-2.23-.535-.291.449-.267-3.473-1.949-3.751,2.229.539.3-.453.267Zm3.519,13.036-.086-.572-3.262-1.816L285.64,131.6l.086.56L289,133.97Zm-3.763-8.137,3.544-2.108-.537-.3.453-.267-3.278-1.826-3.533,2.1.524.293-.439.269Zm.6-19.675-.084-.572-4.912-2.779-3.46,2.06.05.023.035.535,4.9,2.781Zm-1.011,25.475-.088-.56-3.8-2.121-3.91,2.315-.547.328.073.562,3.811,2.144Zm-3.705-8.114,3.533-2.1-.535-.3.451-.267-3.471-1.924-3.535,2.092.55.3-.453.278Zm3.51-7.384-.084-.572-3.887-2.169-3.788,2.217.1.573,3.912,2.181Zm-3.8,12.316,3.592-2.131-.535-.3.451-.27-3.276-1.826-3.6,2.144.537.293-.462.265Zm.526-19.65-.086-.572-4.912-2.754-3.726,2.217.086.562,4.894,2.754Zm-4.655,17.349,3.605-2.131-.537-.3.462-.27-3.483-1.949L277.6,121l.539.3-.455.265Zm3.35-7.3-.075-.562-3.922-2.192-3.5,2.108.073.572,3.886,2.181Zm-.05,10.1-.084-.572L281.1,123.9l-4.448,2.643.086.587L280,128.951Zm-3.485-17.3-.084-.562L276,105.695l-3.485,2.071.084.572,4.9,2.754Zm-.646,15-.073-.573-3.469-1.937-4.463,2.643.086.573,3.473,1.937Zm-.171-5.2-.084-.573-3.886-2.169-3.619,2.135.073.572,3.922,2.167Zm-3.665-7.113-.086-.573-4.885-2.752-3.289,1.949.086.572,4.908,2.766Zm-.756,9.733-.086-.562-3.909-2.19-4.436,2.654.084.572,3.888,2.182Zm-3.619-7.115-.086-.573-4.908-2.764-3.485,2.083.084.573,4.873,2.741Zm-4.6,2.7-.086-.56-4.885-2.754-4.29,2.547.086.562,4.9,2.775Z" transform="translate(-236.677 27.421)" fill="#f2f1f0"/>
            <path id="Trazado_105851" data-name="Trazado 105851" d="M323.389,73.846l.086.56-3.742,2.229L315.8,74.444l-.086-.573,3.922,2.191Z" transform="translate(-175.661 40.96)" fill="#5f7584"/>
            <path id="Trazado_105852" data-name="Trazado 105852" d="M323.389,74.9l-3.753,2.216-3.922-2.191,3.774-2.231Z" transform="translate(-175.661 39.904)" fill="#b6bac2"/>
            <path id="Trazado_105853" data-name="Trazado 105853" d="M320.964,75.275l.094.573-3.738,2.24L313.371,75.9l-.071-.573,3.948,2.191Z" transform="translate(-177.877 42.271)" fill="#5f7584"/>
            <path id="Trazado_105854" data-name="Trazado 105854" d="M320.964,76.318l-3.716,2.24L313.3,76.367l3.765-2.229Z" transform="translate(-177.877 41.228)" fill="#b6bac2"/>
            <path id="Trazado_105855" data-name="Trazado 105855" d="M320.7,72.4l.086.56-3.765,2.253-3.375-1.888-.27-.157-.084-.562.27.148,3.373,1.888Z" transform="translate(-177.883 39.636)" fill="#5f7584"/>
            <path id="Trazado_105856" data-name="Trazado 105856" d="M320.7,73.377l-3.765,2.242-3.373-1.888-.27-.148,3.766-2.24Z" transform="translate(-177.883 38.662)" fill="#b6bac2"/>
            <path id="Trazado_105857" data-name="Trazado 105857" d="M380.892,95.465l1.716,2.973-61.849,35.707a12.388,12.388,0,0,1-11.221,0L246,97.463a4.967,4.967,0,0,1-.56-.368,8.939,8.939,0,0,0,1.766-5.518l5.506-3.191c5.777,14.886,27.631,25.18,41.729,27.935,16.482,2.948,31.476,0,47.07-5.884q3.8-1.482,7.631-3.339l4.419,2.557a3.007,3.007,0,0,0,2.743,0Z" transform="translate(-240.157 54.305)" fill="#e9e9e8"/>
            <path id="Trazado_105858" data-name="Trazado 105858" d="M331.261,92.983a.829.829,0,0,1,0,1.573l-24.583,14.19a3.007,3.007,0,0,1-2.743,0l-4.419-2.557a119.534,119.534,0,0,0,25.5-16.812Z" transform="translate(-190.527 55.215)" fill="#fa493f"/>
            <path id="Trazado_105859" data-name="Trazado 105859" d="M318.524,71.165l.084.562-3.776,2.24-3.716-2.06-.084-.573,3.716,2.06Z" transform="translate(-179.958 38.499)" fill="#5f7584"/>
            <path id="Trazado_105860" data-name="Trazado 105860" d="M318.524,72.157l-3.776,2.229-3.716-2.06,3.789-2.24Z" transform="translate(-179.958 37.508)" fill="#b6bac2"/>
            <path id="Trazado_105861" data-name="Trazado 105861" d="M318.847,76.716l.084.575-4.349,2.583-3.924-2.206-.084-.56,3.924,2.2Z" transform="translate(-180.378 43.594)" fill="#5f7584"/>
            <path id="Trazado_105862" data-name="Trazado 105862" d="M318.847,77.765l-4.349,2.6-3.924-2.2,4.351-2.583Z" transform="translate(-180.378 42.545)" fill="#b6bac2"/>
            <path id="Trazado_105863" data-name="Trazado 105863" d="M318.092,73.859l.146.536-3.766,2.24-3.384-1.888-.075-.571,3.386,1.888Z" transform="translate(-179.976 40.971)" fill="#5f7584"/>
            <path id="Trazado_105864" data-name="Trazado 105864" d="M318.152,74.751l-.06.024-3.693,2.2-3.386-1.888,3.766-2.231,3.3,1.839Z" transform="translate(-179.976 40.055)" fill="#b6bac2"/>
            <path id="Trazado_105865" data-name="Trazado 105865" d="M321.339,86.752l9.237,5.335a119.535,119.535,0,0,1-25.5,16.812l-11.064-6.371a.841.841,0,0,1,0-1.584l24.6-14.192A3,3,0,0,1,321.339,86.752Z" transform="translate(-196.089 52.504)" fill="#ff5147"/>
            <path id="Trazado_105866" data-name="Trazado 105866" d="M316.163,69.857l.086.571-3.778,2.242-3.654-2.034-.1-.562,3.654,2.023Z" transform="translate(-182.08 37.298)" fill="#5f7584"/>
            <path id="Trazado_105867" data-name="Trazado 105867" d="M316.163,70.837l-3.789,2.24-3.654-2.023,3.8-2.264Z" transform="translate(-182.08 36.318)" fill="#b6bac2"/>
            <path id="Trazado_105868" data-name="Trazado 105868" d="M316.087,72.6l.084.573L312.407,75.4l-3.714-2.06-.075-.573,3.7,2.071Z" transform="translate(-182.174 39.817)" fill="#5f7584"/>
            <path id="Trazado_105869" data-name="Trazado 105869" d="M316.087,73.592l-3.768,2.24-3.7-2.071,3.764-2.24Z" transform="translate(-182.174 38.825)" fill="#b6bac2"/>
            <path id="Trazado_105870" data-name="Trazado 105870" d="M315.987,75.281l.084.575-4.334,2.57-3.388-1.875-.035-.538,3.337,1.839Z" transform="translate(-182.453 42.276)" fill="#5f7584"/>
            <path id="Trazado_105871" data-name="Trazado 105871" d="M316.01,76.184l-4.336,2.571-3.337-1.839-.049-.024,4.349-2.6Z" transform="translate(-182.477 41.373)" fill="#b6bac2"/>
            <path id="Trazado_105872" data-name="Trazado 105872" d="M314.492,79.25l.122.536-3.8,2.266-4.152-2.3-.086-.573,4.154,2.3Z" transform="translate(-184.051 45.851)" fill="#5f7584"/>
            <path id="Trazado_105873" data-name="Trazado 105873" d="M314.526,80.3l-.034.038-3.764,2.227-4.154-2.3,3.813-2.266Z" transform="translate(-184.051 44.766)" fill="#b6bac2"/>
            <path id="Trazado_105874" data-name="Trazado 105874" d="M313.859,68.548l.075.573-3.787,2.24L306.429,69.3l-.084-.571,3.727,2.071Z" transform="translate(-184.26 36.097)" fill="#5f7584"/>
            <path id="Trazado_105875" data-name="Trazado 105875" d="M313.859,69.545,310.072,71.8l-3.727-2.071,3.811-2.266Z" transform="translate(-184.26 35.1)" fill="#b6bac2"/>
            <path id="Trazado_105876" data-name="Trazado 105876" d="M313.73,71.292l.086.571-3.776,2.255-3.656-2.036-.071-.573,3.628,2.036Z" transform="translate(-184.289 38.616)" fill="#5f7584"/>
            <path id="Trazado_105877" data-name="Trazado 105877" d="M313.73,72.266l-3.789,2.253-3.628-2.036,3.765-2.251Z" transform="translate(-184.289 37.642)" fill="#b6bac2"/>
            <path id="Trazado_105878" data-name="Trazado 105878" d="M313.924,74.037l.071.573-4.36,2.581-3.678-2.083-.026-.536,3.63,2.058Z" transform="translate(-184.64 41.134)" fill="#5f7584"/>
            <path id="Trazado_105879" data-name="Trazado 105879" d="M313.947,75.023l-4.364,2.594-3.63-2.058-.049-.024.037-.035h.024l4.265-2.536Z" transform="translate(-184.664 40.148)" fill="#b6bac2"/>
            <path id="Trazado_105880" data-name="Trazado 105880" d="M311.907,80.789l.073.558-3.618,2.146-4.117-2.33-.086-.558,4.132,2.313Z" transform="translate(-186.266 47.163)" fill="#5f7584"/>
            <path id="Trazado_105881" data-name="Trazado 105881" d="M311.907,81.816l-3.616,2.129-4.132-2.313,3.63-2.146Z" transform="translate(-186.266 46.136)" fill="#b6bac2"/>
            <path id="Trazado_105882" data-name="Trazado 105882" d="M311.258,67.24l.1.573-3.815,2.264-3.156-1.766-.086-.56,3.158,1.755Z" transform="translate(-186.139 34.896)" fill="#5f7584"/>
            <path id="Trazado_105883" data-name="Trazado 105883" d="M311.258,68.073l-3.8,2.266L304.3,68.585l3.8-2.253Z" transform="translate(-186.139 34.062)" fill="#b6bac2"/>
            <path id="Trazado_105884" data-name="Trazado 105884" d="M311.738,72.785l.084.573-4.324,2.57-3.8-2.118-.037-.013-.047-.547,3.8,2.107Z" transform="translate(-186.767 39.985)" fill="#5f7584"/>
            <path id="Trazado_105885" data-name="Trazado 105885" d="M311.422,69.99l.073.562-3.765,2.255-3.716-2.071-.084-.573,3.7,2.071Z" transform="translate(-186.476 37.42)" fill="#5f7584"/>
            <path id="Trazado_105886" data-name="Trazado 105886" d="M311.756,73.8l-4.325,2.571-3.8-2.107-.037-.026,4.362-2.57,3.63,2.034Z" transform="translate(-186.785 38.965)" fill="#b6bac2"/>
            <path id="Trazado_105887" data-name="Trazado 105887" d="M311.422,70.981l-3.789,2.244-3.7-2.071,3.787-2.244Z" transform="translate(-186.476 36.429)" fill="#b6bac2"/>
            <path id="Trazado_105888" data-name="Trazado 105888" d="M309.8,66.2l.086.558-3.8,2.268-4.4-2.448L301.6,66l4.4,2.446Z" transform="translate(-188.611 33.759)" fill="#5f7584"/>
            <path id="Trazado_105889" data-name="Trazado 105889" d="M309.8,67.281,306,69.532l-4.4-2.446,3.839-2.266Z" transform="translate(-188.611 32.675)" fill="#b6bac2"/>
            <path id="Trazado_105890" data-name="Trazado 105890" d="M309.5,82.173l.1.573-3.57,2.12-4.154-2.291-.075-.56,4.143,2.289Z" transform="translate(-188.43 48.457)" fill="#5f7584"/>
            <path id="Trazado_105891" data-name="Trazado 105891" d="M309.5,83.205l-3.559,2.131L301.8,83.048l3.607-2.158Z" transform="translate(-188.43 47.425)" fill="#b6bac2"/>
            <path id="Trazado_105892" data-name="Trazado 105892" d="M309,79.252l.1.562-3.63,2.169-3.435-1.94-.086-.569,3.448,1.935Z" transform="translate(-188.296 45.921)" fill="#5f7584"/>
            <path id="Trazado_105893" data-name="Trazado 105893" d="M309,80.178,305.4,82.334,301.948,80.4l3.632-2.158Z" transform="translate(-188.296 44.994)" fill="#b6bac2"/>
            <path id="Trazado_105894" data-name="Trazado 105894" d="M308.834,68.681l.086.562-3.8,2.253-3.145-1.744-.1-.571,3.158,1.755Z" transform="translate(-188.36 36.219)" fill="#5f7584"/>
            <path id="Trazado_105895" data-name="Trazado 105895" d="M308.834,69.52l-3.8,2.255-3.158-1.755,3.8-2.253Z" transform="translate(-188.36 35.38)" fill="#b6bac2"/>
            <path id="Trazado_105896" data-name="Trazado 105896" d="M309.276,71.419l.086.573-4.289,2.543-.037.051-.169-.084L301.6,72.674l-.292-.172-.084-.558.29.157,3.278,1.828.159.1.035-.06Z" transform="translate(-188.96 38.732)" fill="#5f7584"/>
            <path id="Trazado_105897" data-name="Trazado 105897" d="M309.276,72.411l-4.289,2.547-.035.06-.159-.1-3.278-1.828-.29-.157,4.336-2.6Z" transform="translate(-188.96 37.741)" fill="#b6bac2"/>
            <path id="Trazado_105898" data-name="Trazado 105898" d="M307.384,67.632l.084.571-3.8,2.268-4.4-2.461-.084-.573L303.58,69.9Z" transform="translate(-190.831 35.077)" fill="#5f7584"/>
            <path id="Trazado_105899" data-name="Trazado 105899" d="M307.384,68.716l-3.8,2.264-4.394-2.459L303,66.255Z" transform="translate(-190.831 33.992)" fill="#b6bac2"/>
            <path id="Trazado_105900" data-name="Trazado 105900" d="M308.85,77.968l.086.573L305.295,80.7l-.318.195-.584.339L300.738,83.4l-3.267-1.817-.084-.56,3.278,1.815,3.641-2.169.6-.352.3-.184Z" transform="translate(-192.482 44.743)" fill="#5f7584"/>
            <path id="Trazado_105901" data-name="Trazado 105901" d="M308.85,78.842l-3.641,2.169-.3.184-.6.352-3.641,2.169L297.388,81.9l3.667-2.193.6-.329.307-.195,3.641-2.167Z" transform="translate(-192.482 43.869)" fill="#b6bac2"/>
            <path id="Trazado_105902" data-name="Trazado 105902" d="M306.61,70.13l.146.536-4.338,2.594-3.165-1.755-.075-.573,3.156,1.757Z" transform="translate(-190.838 37.549)" fill="#5f7584"/>
            <path id="Trazado_105903" data-name="Trazado 105903" d="M306.683,70.956l-.073.026-4.276,2.558-3.156-1.757,4.349-2.581Z" transform="translate(-190.838 36.697)" fill="#b6bac2"/>
            <path id="Trazado_105904" data-name="Trazado 105904" d="M353.955,18.367V91.731a12.5,12.5,0,0,1-3.3,7.821,9.7,9.7,0,0,1-.746.74,8.7,8.7,0,0,1-1.557,1.147l-95.062,54.883-5.506,3.191-.351.2a5.043,5.043,0,0,1-2.608.754,4.133,4.133,0,0,1,.817-.888l2.131-1.229,5.155-2.975c-.013-.035-.013-.059-.027-.1l-.315.184-1.243-2.144a4.877,4.877,0,0,0,.9-.414l91.771-52.981a11.276,11.276,0,0,0,5.094-8.832V24.362c0-3.241-2.276-4.559-5.094-2.938L297.4,48.335v-.109c0-.876-.61-1.218-1.366-.779l-.911-1.6,53.224-30.726a4.267,4.267,0,0,1,3.523-.587C353.126,14.98,353.955,16.332,353.955,18.367Z" transform="translate(-240.728 -13.631)" fill="#fa493f"/>
            <path id="Trazado_105905" data-name="Trazado 105905" d="M305.421,63.975l.073.558-3.412,2.036-4.907-2.777-.086-.573L302,66Z" transform="translate(-192.756 31.205)" fill="#5f7584"/>
            <path id="Trazado_105906" data-name="Trazado 105906" d="M305.421,64.937,302,66.959l-4.911-2.779,3.422-2.01Z" transform="translate(-192.756 30.243)" fill="#b6bac2"/>
            <path id="Trazado_105907" data-name="Trazado 105907" d="M306.952,76.742l.084.575L303.4,79.495l-.305.184-.6.343-3.678,2.18L295,80.081l-.082-.56,3.813,2.12,3.677-2.195.6-.339.3-.184Z" transform="translate(-194.749 43.617)" fill="#5f7584"/>
            <path id="Trazado_105908" data-name="Trazado 105908" d="M305.163,84.873l.073.573-4.2,2.487L296.9,85.618l-.073-.573,4.119,2.315Z" transform="translate(-192.995 51.08)" fill="#5f7584"/>
            <path id="Trazado_105909" data-name="Trazado 105909" d="M306.952,78.916,303.31,81.1l-.3.184-.6.339-3.677,2.195-3.813-2.12,3.716-2.2.423-.257.15-.086.29-.184.013-.011-.026-.011v.011l-.828-.461-.157-.086-3.278-1.839,3.691-2.195,3.264,1.852.39.219,1.487.828Z" transform="translate(-194.749 41.443)" fill="#b6bac2"/>
            <path id="Trazado_105910" data-name="Trazado 105910" d="M305.163,85.986l-4.216,2.487-4.119-2.315.474-.27,3.375-2.021.367-.208Z" transform="translate(-192.995 49.967)" fill="#b6bac2"/>
            <path id="Trazado_105911" data-name="Trazado 105911" d="M305.214,68.974l.086.571-4.373,2.583-.451-.244-3.9-2.218-.071-.573,3.884,2.218.464.257Z" transform="translate(-193.292 36.488)" fill="#5f7584"/>
            <path id="Trazado_105912" data-name="Trazado 105912" d="M305.214,70.152l-4.36,2.594-.464-.257L296.5,70.272l4.311-2.581Z" transform="translate(-193.292 35.31)" fill="#b6bac2"/>
            <path id="Trazado_105913" data-name="Trazado 105913" d="M347.993,65.806V88.042a11.276,11.276,0,0,1-5.094,8.832l-91.771,52.981a4.878,4.878,0,0,1-.9.414c-2.376.9-4.192-.462-4.192-3.35V80.183a11.264,11.264,0,0,1,5.092-8.822l11.148-6.442L293.56,46.864c.063.792.646,1.1,1.364.681a3.058,3.058,0,0,0,1.366-2.253L342.9,18.38c2.817-1.621,5.094-.3,5.094,2.938Zm-3.828,22.222V26.019c0-3.034-2.127-4.252-4.737-2.741L295.534,48.605,261.922,68.012l-7.794,4.507a10.472,10.472,0,0,0-4.741,8.2v62.035c0,3.007,2.119,4.229,4.741,2.716l85.3-49.241A10.478,10.478,0,0,0,344.165,88.029Z" transform="translate(-239.615 -10.587)" fill="#d9d9d9"/>
            <path id="Trazado_105914" data-name="Trazado 105914" d="M302.88,65.474l.086.573L299.675,68,294.74,65.22l-.071-.558,4.922,2.764Z" transform="translate(-194.977 32.529)" fill="#5f7584"/>
            <path id="Trazado_105915" data-name="Trazado 105915" d="M302.88,66.414l-3.289,1.952L294.669,65.6l3.3-1.963Z" transform="translate(-194.977 31.59)" fill="#b6bac2"/>
            <path id="Trazado_105916" data-name="Trazado 105916" d="M302.083,80.783l.086.571L298.2,83.706l-3.264-1.815-.073-.573,3.264,1.828Z" transform="translate(-194.802 47.326)" fill="#5f7584"/>
            <path id="Trazado_105917" data-name="Trazado 105917" d="M302.083,81.652l-3.959,2.364-3.264-1.828,3.97-2.352Z" transform="translate(-194.802 46.457)" fill="#b6bac2"/>
            <path id="Trazado_105918" data-name="Trazado 105918" d="M301.694,83.545l.073.56-3.351,2.023-3.484-1.948-.073-.562,3.485,1.937Z" transform="translate(-194.802 49.862)" fill="#5f7584"/>
            <path id="Trazado_105919" data-name="Trazado 105919" d="M301.694,84.473l-3.349,2.01-3.485-1.937,3.373-2.011Z" transform="translate(-194.802 48.934)" fill="#b6bac2"/>
            <path id="Trazado_105920" data-name="Trazado 105920" d="M299.364,77.9l-.013.011-.29.184-.15.086-.315-.172-.159-.1-3.276-1.824-.086-.573,3.278,1.839.157.086.828.461v-.011Z" transform="translate(-194.604 42.493)" fill="#5f7584"/>
            <path id="Trazado_105921" data-name="Trazado 105921" d="M342.561,49.483V63.944a10.477,10.477,0,0,1-4.737,8.2l-85.3,49.241c-2.622,1.513-4.741.292-4.741-2.716V56.633a10.472,10.472,0,0,1,4.741-8.2l7.794-4.507c-8.686,15.717-5.52,39.849,13.452,44.661,20.88,5.286,40.3-8.247,55.016-22.063A75.12,75.12,0,0,0,342.561,49.483Z" transform="translate(-238.012 13.498)" fill="#e4eae8"/>
            <path id="Trazado_105922" data-name="Trazado 105922" d="M338.762,23.653V71.2a75.121,75.121,0,0,1-13.776,17.042c-14.718,13.816-34.136,27.349-55.016,22.063C251,105.5,247.832,81.363,256.518,65.646L290.131,46.24l43.894-25.327C336.635,19.4,338.762,20.619,338.762,23.653Z" transform="translate(-234.212 -8.221)" fill="#fff"/>
            <path id="Trazado_105923" data-name="Trazado 105923" d="M318.64,87.58l.086.584-4.9,2.888-5.143,3.032L304.51,96.57l-4.532,2.742-4.887,2.862-4.617,2.766-4.191,2.5-4.544,2.7-4.9,2.9-4.141-2.313-.075-.575,4.132,2.315,4.9-2.9,4.559-2.7,4.177-2.5,4.619-2.766,4.885-2.862L304.435,96l4.165-2.484,5.143-3.023Z" transform="translate(-215.209 53.565)" fill="#5f7584"/>
            <path id="Trazado_105924" data-name="Trazado 105924" d="M300.821,66.676l.075.571-3.911,2.326-4.873-2.764-.086-.56L296.9,69Z" transform="translate(-197.403 33.986)" fill="#5f7584"/>
            <path id="Trazado_105925" data-name="Trazado 105925" d="M318.64,88.687l-4.9,2.911L308.6,94.621,304.435,97.1l-4.544,2.742-4.885,2.862-4.619,2.766-4.177,2.5-4.559,2.7-4.9,2.9-4.132-2.315,4.446-2.641.416-.259.416-.244,3.592-2.131.536-.316.292-.182,3.532-2.1.39-.23.427-.245,3.753-2.242.45-.255.39-.232,4.057-2.424.427-.245.4-.242,3.7-2.193.453-.281.363-.208,3.5-2.07.316-.195.513-.305,4.105-2.45.524-.3.292-.184L314,86.665l.5-.292Z" transform="translate(-215.209 52.457)" fill="#b6bac2"/>
            <path id="Trazado_105926" data-name="Trazado 105926" d="M300.821,67.8,296.9,70.121l-4.873-2.753,3.884-2.339Z" transform="translate(-197.403 32.867)" fill="#b6bac2"/>
            <path id="Trazado_105927" data-name="Trazado 105927" d="M299.96,74.125l.073.571-3.678,2.2-3.47-1.939-.026-.536,3.4,1.9Z" transform="translate(-196.639 41.216)" fill="#5f7584"/>
            <path id="Trazado_105928" data-name="Trazado 105928" d="M299.99,75.059l-3.7,2.193-3.4-1.9-.062-.035,3.716-2.206Z" transform="translate(-196.668 40.283)" fill="#b6bac2"/>
            <path id="Trazado_105929" data-name="Trazado 105929" d="M300.169,79.57l.082.558-3.959,2.364-3.813-2.118-.084-.573,3.8,2.12Z" transform="translate(-197.065 46.213)" fill="#5f7584"/>
            <path id="Trazado_105930" data-name="Trazado 105930" d="M300.169,80.584l-3.974,2.351-3.8-2.12,3.972-2.35Z" transform="translate(-197.065 45.198)" fill="#b6bac2"/>
            <path id="Trazado_105931" data-name="Trazado 105931" d="M299.692,76.742l.073.575-3.716,2.2-3.291-1.815-.084-.573,3.291,1.826Z" transform="translate(-196.808 43.617)" fill="#5f7584"/>
            <path id="Trazado_105932" data-name="Trazado 105932" d="M299.692,77.622l-3.727,2.217-3.291-1.826,3.751-2.231Z" transform="translate(-196.808 42.737)" fill="#b6bac2"/>
            <path id="Trazado_105933" data-name="Trazado 105933" d="M299.766,84.847l.084.573-3.884,2.292-3.472-1.937-.086-.573,3.459,1.937Z" transform="translate(-197.053 51.057)" fill="#5f7584"/>
            <path id="Trazado_105934" data-name="Trazado 105934" d="M299.766,85.774l-3.9,2.292-3.459-1.937,3.886-2.292Z" transform="translate(-197.053 50.13)" fill="#b6bac2"/>
            <path id="Trazado_105935" data-name="Trazado 105935" d="M299.3,82.269l.086.573-3.364,2-3.266-1.828-.084-.56,3.265,1.815Z" transform="translate(-196.808 48.691)" fill="#5f7584"/>
            <path id="Trazado_105936" data-name="Trazado 105936" d="M299.3,83.137l-3.364,2-3.265-1.815.367-.23,3.008-1.764Z" transform="translate(-196.808 47.823)" fill="#b6bac2"/>
            <path id="Trazado_105937" data-name="Trazado 105937" d="M297.661,75.536l.109.571-3.75,2.231-3.476-1.925-.131-.571,3.495,1.924Z" transform="translate(-198.883 42.51)" fill="#5f7584"/>
            <path id="Trazado_105938" data-name="Trazado 105938" d="M297.823,72.779l.086.56-3.716,2.218-3.911-2.193-.086-.573,3.911,2.193Z" transform="translate(-199.082 39.98)" fill="#5f7584"/>
            <path id="Trazado_105939" data-name="Trazado 105939" d="M297.661,76.469,293.908,78.7l-3.495-1.924,3.787-2.255Z" transform="translate(-198.883 41.577)" fill="#b6bac2"/>
            <path id="Trazado_105940" data-name="Trazado 105940" d="M297.823,73.828l-3.716,2.2L290.2,73.84l3.742-2.2Z" transform="translate(-199.082 38.93)" fill="#b6bac2"/>
            <path id="Trazado_105941" data-name="Trazado 105941" d="M297.364,68.7l.086.573-2.191,1.315-4.886-2.764-.036-.551,4.836,2.731Z" transform="translate(-198.953 34.93)" fill="#5f7584"/>
            <path id="Trazado_105942" data-name="Trazado 105942" d="M297.395,69.339l-2.191,1.3-4.836-2.731-.064-.023.064-.037,2.158-1.266Z" transform="translate(-198.984 34.295)" fill="#b6bac2"/>
            <path id="Trazado_105943" data-name="Trazado 105943" d="M297.38,81.1l.084.573-3.375,2-3.8-2.109-.075-.573,3.8,2.109Z" transform="translate(-199.064 47.518)" fill="#5f7584"/>
            <path id="Trazado_105944" data-name="Trazado 105944" d="M297.361,83.565l.086.571-3.875,2.315-3.265-1.828-.086-.571,3.266,1.826Z" transform="translate(-199.059 49.88)" fill="#5f7584"/>
            <path id="Trazado_105945" data-name="Trazado 105945" d="M297.4,78.165l.071.573-3.959,2.35-3.276-1.828-.073-.571,3.251,1.828Z" transform="translate(-199.111 44.924)" fill="#5f7584"/>
            <path id="Trazado_105946" data-name="Trazado 105946" d="M297.38,82.063l-3.362,2-3.8-2.109,3.362-2.008Z" transform="translate(-199.064 46.557)" fill="#b6bac2"/>
            <path id="Trazado_105947" data-name="Trazado 105947" d="M297.361,84.433l-3.873,2.313-3.266-1.826,3.888-2.3Z" transform="translate(-199.059 49.012)" fill="#b6bac2"/>
            <path id="Trazado_105948" data-name="Trazado 105948" d="M297.4,79.04l-3.986,2.352-3.251-1.828,3.959-2.352Z" transform="translate(-199.111 44.049)" fill="#b6bac2"/>
            <path id="Trazado_105949" data-name="Trazado 105949" d="M297.389,86.3l.086.573-4.07,2.424-3.474-1.937-.071-.573,3.461,1.937Z" transform="translate(-199.391 52.387)" fill="#5f7584"/>
            <path id="Trazado_105950" data-name="Trazado 105950" d="M297.389,87.218l-4.068,2.424L289.86,87.7l4.068-2.412Z" transform="translate(-199.391 51.466)" fill="#b6bac2"/>
            <path id="Trazado_105951" data-name="Trazado 105951" d="M293.046,82.244l-.367.23-.011-.073Z" transform="translate(-196.814 48.667)" fill="#5f7584"/>
            <path id="Trazado_105952" data-name="Trazado 105952" d="M296.289,69.4l.084.571-3.422,2.036-4.911-2.779-.086-.573,4.911,2.779Z" transform="translate(-201.14 36.196)" fill="#5f7584"/>
            <path id="Trazado_105953" data-name="Trazado 105953" d="M296.289,70.375l-3.424,2.034-4.911-2.779,3.424-2.034Z" transform="translate(-201.14 35.222)" fill="#b6bac2"/>
            <path id="Trazado_105954" data-name="Trazado 105954" d="M295.494,74.189l.082.573-3.8,2.253-3.911-2.167-.1-.573,3.933,2.18Z" transform="translate(-201.309 41.274)" fill="#5f7584"/>
            <path id="Trazado_105955" data-name="Trazado 105955" d="M295.342,76.964l.084.573-3.971,2.352-3.461-1.936-.084-.573,3.472,1.936Z" transform="translate(-201.181 43.822)" fill="#5f7584"/>
            <path id="Trazado_105956" data-name="Trazado 105956" d="M295.438,82.351l.084.573-3.862,2.29-3.811-2.12-.084-.56,3.812,2.12Z" transform="translate(-201.314 48.766)" fill="#5f7584"/>
            <path id="Trazado_105957" data-name="Trazado 105957" d="M295.494,75.245,291.7,77.511l-3.933-2.18,3.836-2.292Z" transform="translate(-201.309 40.218)" fill="#b6bac2"/>
            <path id="Trazado_105958" data-name="Trazado 105958" d="M295.342,77.891l-3.959,2.352-3.472-1.936,3.972-2.352Z" transform="translate(-201.181 42.895)" fill="#b6bac2"/>
            <path id="Trazado_105959" data-name="Trazado 105959" d="M295.438,83.371l-3.862,2.3-3.812-2.12,3.873-2.315Z" transform="translate(-201.314 47.746)" fill="#b6bac2"/>
            <path id="Trazado_105960" data-name="Trazado 105960" d="M295,85.019l.086.573-4.07,2.423-3.265-1.828-.073-.558,3.24,1.813Z" transform="translate(-201.39 51.215)" fill="#5f7584"/>
            <path id="Trazado_105961" data-name="Trazado 105961" d="M295,85.887l-4.081,2.424-3.24-1.813,4.055-2.425Z" transform="translate(-201.39 50.346)" fill="#b6bac2"/>
            <path id="Trazado_105962" data-name="Trazado 105962" d="M294.613,79.652l.084.562-3.364,2.008-3.274-1.839-.086-.573,3.276,1.841Z" transform="translate(-201.122 46.288)" fill="#5f7584"/>
            <path id="Trazado_105963" data-name="Trazado 105963" d="M294.613,80.532l-3.364,2-3.276-1.841,3.373-2Z" transform="translate(-201.122 45.408)" fill="#b6bac2"/>
            <path id="Trazado_105964" data-name="Trazado 105964" d="M294.857,87.814l.086.573-4.106,2.45L287.365,88.9l-.084-.573,3.472,1.948Z" transform="translate(-201.758 53.78)" fill="#5f7584"/>
            <path id="Trazado_105965" data-name="Trazado 105965" d="M294.857,88.741l-4.1,2.461-3.472-1.948L291.4,86.8Z" transform="translate(-201.758 52.853)" fill="#b6bac2"/>
            <path id="Trazado_105966" data-name="Trazado 105966" d="M293.936,70.79l.086.573L290.6,73.4l-4.922-2.764-.084-.573,4.92,2.764Z" transform="translate(-203.309 37.485)" fill="#5f7584"/>
            <path id="Trazado_105967" data-name="Trazado 105967" d="M293.936,71.764,290.512,73.8l-4.92-2.764L289.04,69Z" transform="translate(-203.309 36.511)" fill="#b6bac2"/>
            <path id="Trazado_105968" data-name="Trazado 105968" d="M293.173,75.624l.075.573-3.961,2.351-3.922-2.193-.1-.56,3.935,2.182Z" transform="translate(-203.606 42.592)" fill="#5f7584"/>
            <path id="Trazado_105969" data-name="Trazado 105969" d="M293.173,76.668,289.2,79.02l-3.935-2.182,3.984-2.351Z" transform="translate(-203.606 41.549)" fill="#b6bac2"/>
            <path id="Trazado_105970" data-name="Trazado 105970" d="M293.087,83.806l.084.56L289.1,86.8l-3.8-2.12-.084-.573,3.8,2.12Z" transform="translate(-203.653 50.101)" fill="#5f7584"/>
            <path id="Trazado_105971" data-name="Trazado 105971" d="M292.573,78.452l.071.56-3.375,2.008L285.8,79.083l-.071-.571L289.2,80.45Z" transform="translate(-203.186 45.187)" fill="#5f7584"/>
            <path id="Trazado_105972" data-name="Trazado 105972" d="M293.087,84.827l-4.07,2.423-3.8-2.12,4.057-2.437Z" transform="translate(-203.653 49.08)" fill="#b6bac2"/>
            <path id="Trazado_105973" data-name="Trazado 105973" d="M292.668,80.948l.1.56-3.888,2.315-3.264-1.828-.084-.573,3.263,1.828Z" transform="translate(-203.367 47.478)" fill="#5f7584"/>
            <path id="Trazado_105974" data-name="Trazado 105974" d="M292.573,79.385l-3.377,2-3.471-1.939,3.371-2.01Z" transform="translate(-203.186 44.254)" fill="#b6bac2"/>
            <path id="Trazado_105975" data-name="Trazado 105975" d="M292.668,81.823l-3.877,2.3L285.528,82.3l3.862-2.3Z" transform="translate(-203.367 46.603)" fill="#b6bac2"/>
            <path id="Trazado_105976" data-name="Trazado 105976" d="M292.479,86.538l.084.56-4.117,2.45-3.267-1.817-.084-.571,3.265,1.826Z" transform="translate(-203.764 52.609)" fill="#5f7584"/>
            <path id="Trazado_105977" data-name="Trazado 105977" d="M292.479,87.412,288.36,89.86,285.1,88.034l4.119-2.45Z" transform="translate(-203.764 51.734)" fill="#b6bac2"/>
            <path id="Trazado_105978" data-name="Trazado 105978" d="M292,89.351l.084.562-3.495,2.071-3.461-1.925-.1-.573,3.472,1.925Z" transform="translate(-203.822 55.191)" fill="#5f7584"/>
            <path id="Trazado_105979" data-name="Trazado 105979" d="M292,90.278l-3.5,2.06-3.472-1.925,3.5-2.071Z" transform="translate(-203.822 54.264)" fill="#b6bac2"/>
            <path id="Trazado_105980" data-name="Trazado 105980" d="M291.82,72.05l.071.573-3.946,2.326L283.073,72.2l-.086-.573,4.862,2.753Z" transform="translate(-205.699 38.919)" fill="#5f7584"/>
            <path id="Trazado_105981" data-name="Trazado 105981" d="M291.82,73.174,287.849,75.5l-4.862-2.753L286.9,70.4Z" transform="translate(-205.699 37.794)" fill="#b6bac2"/>
            <path id="Trazado_105982" data-name="Trazado 105982" d="M290.614,79.747l.084.56-3.873,2.3-3.472-1.925-.073-.571,3.459,1.937Z" transform="translate(-205.431 46.375)" fill="#5f7584"/>
            <path id="Trazado_105983" data-name="Trazado 105983" d="M290.614,80.667l-3.875,2.3-3.459-1.937,3.86-2.291Z" transform="translate(-205.431 45.455)" fill="#b6bac2"/>
            <path id="Trazado_105984" data-name="Trazado 105984" d="M290.374,77.193l.084.571L287.1,79.776l-3.937-2.193-.071-.573,3.922,2.191Z" transform="translate(-205.606 43.863)" fill="#5f7584"/>
            <path id="Trazado_105985" data-name="Trazado 105985" d="M290.374,78.155l-3.364,2.008-3.922-2.191,3.364-2.01Z" transform="translate(-205.606 42.901)" fill="#b6bac2"/>
            <path id="Trazado_105986" data-name="Trazado 105986" d="M290.321,82.4l.084.571-4.068,2.412-3.277-1.828-.086-.573,3.291,1.828Z" transform="translate(-205.712 48.813)" fill="#5f7584"/>
            <path id="Trazado_105987" data-name="Trazado 105987" d="M290.568,85.324l.086.573-4.119,2.45-3.811-2.131-.086-.573,3.813,2.143Z" transform="translate(-206.02 51.494)" fill="#5f7584"/>
            <path id="Trazado_105988" data-name="Trazado 105988" d="M290.321,83.279l-4.057,2.411-3.291-1.828,4.083-2.412Z" transform="translate(-205.712 47.938)" fill="#b6bac2"/>
            <path id="Trazado_105989" data-name="Trazado 105989" d="M290.568,86.344,286.451,88.8l-3.813-2.143,4.117-2.45Z" transform="translate(-206.02 50.474)" fill="#b6bac2"/>
            <path id="Trazado_105990" data-name="Trazado 105990" d="M289.851,90.685l.086.573-3.693,2.206-3.484-1.95-.084-.571,3.484,1.948Z" transform="translate(-205.985 56.415)" fill="#5f7584"/>
            <path id="Trazado_105991" data-name="Trazado 105991" d="M289.6,88.068l.1.573-3.5,2.071L282.932,88.9l-.084-.573,3.264,1.815Z" transform="translate(-205.827 54.013)" fill="#5f7584"/>
            <path id="Trazado_105992" data-name="Trazado 105992" d="M289.851,91.617l-3.691,2.206-3.484-1.948,3.7-2.206Z" transform="translate(-205.985 55.483)" fill="#b6bac2"/>
            <path id="Trazado_105993" data-name="Trazado 105993" d="M289.6,88.936l-3.484,2.071-3.264-1.815,3.495-2.07Z" transform="translate(-205.827 53.145)" fill="#b6bac2"/>
            <path id="Trazado_105994" data-name="Trazado 105994" d="M288.935,73.744l.084.573-3.411,2.023-4.886-2.753-.086-.573,4.9,2.753Z" transform="translate(-207.857 40.195)" fill="#5f7584"/>
            <path id="Trazado_105995" data-name="Trazado 105995" d="M288.935,74.705l-3.4,2.023-4.9-2.753,3.413-2.01Z" transform="translate(-207.857 39.233)" fill="#b6bac2"/>
            <path id="Trazado_105996" data-name="Trazado 105996" d="M288.434,78.407l.1.573-3.886,2.291-3.924-2.195-.086-.558,3.926,2.191Z" transform="translate(-207.857 45.146)" fill="#5f7584"/>
            <path id="Trazado_105997" data-name="Trazado 105997" d="M288.283,81.2l.075.575-4.081,2.412-3.459-1.938-.1-.573,3.473,1.95Z" transform="translate(-207.78 47.71)" fill="#5f7584"/>
            <path id="Trazado_105998" data-name="Trazado 105998" d="M288.434,79.456l-3.873,2.3-3.926-2.191,3.877-2.3Z" transform="translate(-207.857 44.096)" fill="#b6bac2"/>
            <path id="Trazado_105999" data-name="Trazado 105999" d="M288.283,82.128l-4.09,2.425L280.72,82.6l4.081-2.412Z" transform="translate(-207.78 46.783)" fill="#b6bac2"/>
            <path id="Trazado_106000" data-name="Trazado 106000" d="M287.8,83.92l.084.573-4.128,2.437L280.493,85.1l-.1-.573,3.278,1.839Z" transform="translate(-208.078 50.206)" fill="#5f7584"/>
            <path id="Trazado_106001" data-name="Trazado 106001" d="M287.8,84.8l-4.13,2.448L280.4,85.409l4.117-2.448Z" transform="translate(-208.078 49.326)" fill="#b6bac2"/>
            <path id="Trazado_106002" data-name="Trazado 106002" d="M287.7,86.878l.086.573L284.3,89.523l-3.824-2.12-.084-.573,3.825,2.131Z" transform="translate(-208.083 52.877)" fill="#5f7584"/>
            <path id="Trazado_106003" data-name="Trazado 106003" d="M287.7,87.87l-3.484,2.083-3.825-2.131,3.482-2.071Z" transform="translate(-208.083 51.885)" fill="#b6bac2"/>
            <path id="Trazado_106004" data-name="Trazado 106004" d="M287.442,89.4l.1.573-3.7,2.195-3.251-1.817-.086-.573,3.266,1.828Z" transform="translate(-207.985 55.238)" fill="#5f7584"/>
            <path id="Trazado_106005" data-name="Trazado 106005" d="M287.442,90.27l-3.678,2.206L280.5,90.649l3.69-2.193Z" transform="translate(-207.985 54.369)" fill="#b6bac2"/>
            <path id="Trazado_106006" data-name="Trazado 106006" d="M287.675,92.1l.086.562-4.07,2.412-3.484-1.937-.086-.573,3.5,1.937Z" transform="translate(-208.329 57.71)" fill="#5f7584"/>
            <path id="Trazado_106007" data-name="Trazado 106007" d="M287.675,93.027l-4.055,2.4-3.5-1.937,4.07-2.412Z" transform="translate(-208.329 56.777)" fill="#b6bac2"/>
            <path id="Trazado_106008" data-name="Trazado 106008" d="M286.468,75.218l.084.573-3.143,1.862-4.885-2.764-.086-.56,4.885,2.766Z" transform="translate(-209.874 41.402)" fill="#5f7584"/>
            <path id="Trazado_106009" data-name="Trazado 106009" d="M286.468,76.116l-3.145,1.877-4.885-2.766,3.131-1.877Z" transform="translate(-209.874 40.504)" fill="#b6bac2"/>
            <path id="Trazado_106010" data-name="Trazado 106010" d="M286.086,79.861l.1.573-4.094,2.412-3.922-2.191-.086-.562,3.935,2.193Z" transform="translate(-210.201 46.48)" fill="#5f7584"/>
            <path id="Trazado_106011" data-name="Trazado 106011" d="M286.086,80.909l-4.068,2.426-3.935-2.193,4.083-2.423Z" transform="translate(-210.201 45.432)" fill="#b6bac2"/>
            <path id="Trazado_106012" data-name="Trazado 106012" d="M285.731,82.713l.086.586-4.109,2.435L278.226,83.8l-.073-.573,3.471,1.952Z" transform="translate(-210.136 49.098)" fill="#5f7584"/>
            <path id="Trazado_106013" data-name="Trazado 106013" d="M285.731,83.634,281.624,86.1l-3.471-1.952,4.105-2.435Z" transform="translate(-210.136 48.178)" fill="#b6bac2"/>
            <path id="Trazado_106014" data-name="Trazado 106014" d="M285.561,88.2l.075.571-3.693,2.193-3.825-2.131-.086-.573,3.825,2.133Z" transform="translate(-210.247 54.13)" fill="#5f7584"/>
            <path id="Trazado_106015" data-name="Trazado 106015" d="M285.561,89.217l-3.7,2.193-3.825-2.133,3.7-2.193Z" transform="translate(-210.247 53.11)" fill="#b6bac2"/>
            <path id="Trazado_106016" data-name="Trazado 106016" d="M285.265,90.813l.086.56-4.068,2.412-3.255-1.817-.086-.571,3.255,1.815Z" transform="translate(-210.33 56.533)" fill="#5f7584"/>
            <path id="Trazado_106017" data-name="Trazado 106017" d="M285.265,91.694l-4.068,2.4-3.255-1.815,4.083-2.426Z" transform="translate(-210.33 55.652)" fill="#b6bac2"/>
            <path id="Trazado_106018" data-name="Trazado 106018" d="M284.914,85.452l.086.571-3.5,2.071-3.276-1.828-.073-.573,3.278,1.83Z" transform="translate(-210.136 51.612)" fill="#5f7584"/>
            <path id="Trazado_106019" data-name="Trazado 106019" d="M284.914,86.327,281.431,88.4l-3.278-1.83,3.484-2.07Z" transform="translate(-210.136 50.737)" fill="#b6bac2"/>
            <path id="Trazado_106020" data-name="Trazado 106020" d="M284.975,93.607l.086.575-3.751,2.227-3.486-1.948-.084-.56,3.482,1.936Z" transform="translate(-210.515 59.097)" fill="#5f7584"/>
            <path id="Trazado_106021" data-name="Trazado 106021" d="M284.975,94.539l-3.753,2.231-3.482-1.936,3.751-2.242Z" transform="translate(-210.515 58.165)" fill="#b6bac2"/>
            <path id="Trazado_106022" data-name="Trazado 106022" d="M284.4,76.457l.086.573-3.4,2.008-4.909-2.764-.075-.56,4.911,2.766Z" transform="translate(-212.02 42.673)" fill="#5f7584"/>
            <path id="Trazado_106023" data-name="Trazado 106023" d="M284.4,77.419l-3.386,2.023L276.1,76.675l3.388-2.01Z" transform="translate(-212.02 41.712)" fill="#b6bac2"/>
            <path id="Trazado_106024" data-name="Trazado 106024" d="M283.554,81.38l.071.571-4.117,2.437-3.9-2.182-.086-.56,3.91,2.169Z" transform="translate(-212.551 47.875)" fill="#5f7584"/>
            <path id="Trazado_106025" data-name="Trazado 106025" d="M283.554,82.431l-4.121,2.435-3.91-2.169,4.107-2.461Z" transform="translate(-212.551 46.824)" fill="#b6bac2"/>
            <path id="Trazado_106026" data-name="Trazado 106026" d="M283.4,90.036l-4.032,2.437-3.838-2.156.451-.268,3.289,1.839,3.592-2.156Z" transform="translate(-212.544 55.541)" fill="#5f7584"/>
            <path id="Trazado_106027" data-name="Trazado 106027" d="M283.362,90.613l-.453.268-3.592,2.156L276.027,91.2l-.549-.3,4.07-2.412Z" transform="translate(-212.591 54.393)" fill="#b6bac2"/>
            <path id="Trazado_106028" data-name="Trazado 106028" d="M282.847,84.252l.086.558-3.484,2.083-3.472-1.948-.073-.573,3.459,1.951Z" transform="translate(-212.2 50.51)" fill="#5f7584"/>
            <path id="Trazado_106029" data-name="Trazado 106029" d="M282.847,85.179l-3.484,2.071L275.9,85.3l3.484-2.058Z" transform="translate(-212.2 49.582)" fill="#b6bac2"/>
            <path id="Trazado_106030" data-name="Trazado 106030" d="M282.77,86.785l.084.573-3.69,2.206-3.289-1.839-.086-.573,3.291,1.828Z" transform="translate(-212.305 52.835)" fill="#5f7584"/>
            <path id="Trazado_106031" data-name="Trazado 106031" d="M282.77,87.659l-3.69,2.195-3.291-1.828,3.7-2.193Z" transform="translate(-212.305 51.961)" fill="#b6bac2"/>
            <path id="Trazado_106032" data-name="Trazado 106032" d="M282.51,92.337l.137.547L278.9,95.113l-3.265-1.826-.084-.571,3.251,1.828Z" transform="translate(-212.52 57.932)" fill="#5f7584"/>
            <path id="Trazado_106033" data-name="Trazado 106033" d="M282.572,93.2l-.062.024-3.7,2.206L275.556,93.6l3.753-2.231,3.178,1.779Z" transform="translate(-212.52 57.045)" fill="#b6bac2"/>
            <path id="Trazado_106034" data-name="Trazado 106034" d="M282.49,95.024l.073.573-3.523,2.1-3.482-1.95-.086-.571,3.484,1.948Z" transform="translate(-212.596 60.398)" fill="#5f7584"/>
            <path id="Trazado_106035" data-name="Trazado 106035" d="M282.49,95.951l-3.534,2.1L275.473,96.1l3.519-2.085Z" transform="translate(-212.596 59.471)" fill="#b6bac2"/>
            <path id="Trazado_106036" data-name="Trazado 106036" d="M282.094,77.8l.086.573-3.532,2.083L273.763,77.7l-.037-.547,4.836,2.729Z" transform="translate(-214.2 43.997)" fill="#5f7584"/>
            <path id="Trazado_106037" data-name="Trazado 106037" d="M282.117,78.815,278.585,80.9l-4.836-2.729-.049-.026.037-.011.036-.024,3.435-2.058Z" transform="translate(-214.223 42.983)" fill="#b6bac2"/>
            <path id="Trazado_106038" data-name="Trazado 106038" d="M280.716,85.584l.086.573-3.7,2.193-3.472-1.937-.084-.562,3.474,1.939Z" transform="translate(-214.369 51.734)" fill="#5f7584"/>
            <path id="Trazado_106039" data-name="Trazado 106039" d="M280.716,86.511l-3.7,2.206-3.474-1.939,3.7-2.2Z" transform="translate(-214.369 50.807)" fill="#b6bac2"/>
            <path id="Trazado_106040" data-name="Trazado 106040" d="M280.671,82.962l.073.573-3.484,2.071-3.9-2.18-.086-.573,3.9,2.18Z" transform="translate(-214.614 49.227)" fill="#5f7584"/>
            <path id="Trazado_106041" data-name="Trazado 106041" d="M280.671,83.953l-3.5,2.071-3.9-2.18,3.5-2.071Z" transform="translate(-214.614 48.235)" fill="#b6bac2"/>
            <path id="Trazado_106042" data-name="Trazado 106042" d="M280.628,88.622l-4.07,2.424-3.265-1.828.438-.268,2.742,1.536,3.619-2.156Z" transform="translate(-214.596 54.253)" fill="#5f7584"/>
            <path id="Trazado_106043" data-name="Trazado 106043" d="M280.719,91.561l-3.765,2.206-3.813-2.12.45-.281,3.264,1.828,3.313-1.937Z" transform="translate(-214.736 56.941)" fill="#5f7584"/>
            <path id="Trazado_106044" data-name="Trazado 106044" d="M280.589,89.069l-.449.27-3.619,2.156-2.742-1.536-.536-.305L277.3,87.23Z" transform="translate(-214.643 53.244)" fill="#b6bac2"/>
            <path id="Trazado_106045" data-name="Trazado 106045" d="M280.674,92.131l-.464.281L276.9,94.348l-3.264-1.828-.536-.292L276.85,90Z" transform="translate(-214.777 55.786)" fill="#b6bac2"/>
            <path id="Trazado_106046" data-name="Trazado 106046" d="M280.243,96.371l.086.573-3.594,2.143-3.484-1.936-.084-.573,3.472,1.939Z" transform="translate(-214.713 61.634)" fill="#5f7584"/>
            <path id="Trazado_106047" data-name="Trazado 106047" d="M280.073,93.742l.086.558-3.534,2.109-3.253-1.828-.084-.56,3.253,1.826Z" transform="translate(-214.602 59.221)" fill="#5f7584"/>
            <path id="Trazado_106048" data-name="Trazado 106048" d="M280.243,97.3l-3.6,2.145L273.167,97.5l3.592-2.143Z" transform="translate(-214.713 60.707)" fill="#b6bac2"/>
            <path id="Trazado_106049" data-name="Trazado 106049" d="M280.073,94.617l-3.532,2.105L273.287,94.9l3.534-2.107Z" transform="translate(-214.602 58.346)" fill="#b6bac2"/>
            <path id="Trazado_106050" data-name="Trazado 106050" d="M280.113,79l.084.562-4.373,2.618-4.9-2.766-.084-.571,4.909,2.775Z" transform="translate(-216.847 45.543)" fill="#5f7584"/>
            <path id="Trazado_106051" data-name="Trazado 106051" d="M280.113,80.239l-4.362,2.618-4.909-2.776,4.4-2.6Z" transform="translate(-216.847 44.3)" fill="#b6bac2"/>
            <path id="Trazado_106052" data-name="Trazado 106052" d="M278.579,87.432l-4.07,2.4-3.47-1.925.449-.266,2.937,1.629,3.617-2.143Z" transform="translate(-216.666 53.151)" fill="#5f7584"/>
            <path id="Trazado_106053" data-name="Trazado 106053" d="M278.52,84.245l.071.571-3.69,2.195L271,84.829l-.084-.571,3.9,2.191Z" transform="translate(-216.777 50.504)" fill="#5f7584"/>
            <path id="Trazado_106054" data-name="Trazado 106054" d="M278.52,87.915l-.438.27-3.617,2.143L271.529,88.7,271,88.4l4.068-2.426Z" transform="translate(-216.706 52.095)" fill="#b6bac2"/>
            <path id="Trazado_106055" data-name="Trazado 106055" d="M278.52,85.282l-3.7,2.2-3.9-2.191,3.7-2.182Z" transform="translate(-216.777 49.466)" fill="#b6bac2"/>
            <path id="Trazado_106056" data-name="Trazado 106056" d="M278.208,92.96l-3.51,2.109-3.825-2.133.45-.268,3.289,1.839,3.059-1.839Z" transform="translate(-216.817 58.235)" fill="#5f7584"/>
            <path id="Trazado_106057" data-name="Trazado 106057" d="M278.163,93.536l-.451.281-3.059,1.839-3.289-1.839-.536-.3,3.521-2.1Z" transform="translate(-216.859 57.086)" fill="#b6bac2"/>
            <path id="Trazado_106058" data-name="Trazado 106058" d="M277.84,95.087l.086.573L274.319,97.8l-3.263-1.826-.075-.571,3.267,1.828Z" transform="translate(-216.719 60.456)" fill="#5f7584"/>
            <path id="Trazado_106059" data-name="Trazado 106059" d="M278.354,97.75l.084.571-4.471,2.645-3.459-1.95-.1-.573,3.472,1.95Z" transform="translate(-217.244 62.899)" fill="#5f7584"/>
            <path id="Trazado_106060" data-name="Trazado 106060" d="M277.946,90.139l-3.751,2.229-3.3-1.826.463-.268L274.1,91.8l3.3-1.95Z" transform="translate(-216.8 55.646)" fill="#5f7584"/>
            <path id="Trazado_106061" data-name="Trazado 106061" d="M277.84,95.956,274.248,98.1l-3.267-1.828,3.592-2.133Z" transform="translate(-216.719 59.587)" fill="#b6bac2"/>
            <path id="Trazado_106062" data-name="Trazado 106062" d="M278.354,98.688l-4.473,2.643-3.472-1.95,4.446-2.654Z" transform="translate(-217.244 61.961)" fill="#b6bac2"/>
            <path id="Trazado_106063" data-name="Trazado 106063" d="M277.883,90.587l-.451.27-3.3,1.95-2.742-1.523-.536-.305,3.751-2.23Z" transform="translate(-216.835 54.637)" fill="#b6bac2"/>
            <path id="Trazado_106064" data-name="Trazado 106064" d="M273.755,77.123l-.036.024v-.011Z" transform="translate(-214.205 43.968)" fill="#5f7584"/>
            <path id="Trazado_106065" data-name="Trazado 106065" d="M276.7,81.046l.086.558-3.18,1.914L268.7,80.739l-.086-.573,4.922,2.779Z" transform="translate(-218.893 46.76)" fill="#5f7584"/>
            <path id="Trazado_106066" data-name="Trazado 106066" d="M276.7,81.948l-3.165,1.9-4.922-2.779,3.18-1.886Z" transform="translate(-218.893 45.857)" fill="#b6bac2"/>
            <path id="Trazado_106067" data-name="Trazado 106067" d="M276.337,85.642l.075.584-4.057,2.412-3.9-2.18-.086-.562,3.888,2.169Z" transform="translate(-219.116 51.787)" fill="#5f7584"/>
            <path id="Trazado_106068" data-name="Trazado 106068" d="M276.337,86.68,272.258,89.1l-3.888-2.169,4.07-2.424Z" transform="translate(-219.116 50.749)" fill="#b6bac2"/>
            <path id="Trazado_106069" data-name="Trazado 106069" d="M275.993,94.324l-3.618,2.12-3.813-2.12.461-.268,3.255,1.826,3.178-1.862Z" transform="translate(-218.94 59.477)" fill="#5f7584"/>
            <path id="Trazado_106070" data-name="Trazado 106070" d="M275.874,88.938l-3.751,2.231L268.65,89.23l.451-.266,2.935,1.633,3.3-1.952Z" transform="translate(-218.858 54.544)" fill="#5f7584"/>
            <path id="Trazado_106071" data-name="Trazado 106071" d="M275.948,94.9l-.451.27-3.178,1.862-3.255-1.826-.547-.305,3.607-2.132Z" transform="translate(-218.981 58.328)" fill="#b6bac2"/>
            <path id="Trazado_106072" data-name="Trazado 106072" d="M275.829,89.44l-.45.266-3.3,1.952-2.935-1.633-.537-.305,3.751-2.229Z" transform="translate(-218.899 53.483)" fill="#b6bac2"/>
            <path id="Trazado_106073" data-name="Trazado 106073" d="M275.953,96.46l.086.571-4.458,2.643L268.3,97.859l-.086-.56,3.278,1.8Z" transform="translate(-219.255 61.716)" fill="#5f7584"/>
            <path id="Trazado_106074" data-name="Trazado 106074" d="M275.953,97.33,271.5,99.971l-3.278-1.8,4.472-2.656Z" transform="translate(-219.255 60.847)" fill="#b6bac2"/>
            <path id="Trazado_106075" data-name="Trazado 106075" d="M273.545,32.487V32.6a3.058,3.058,0,0,1-1.366,2.253c-.717.414-1.3.111-1.364-.681v-.111a2.986,2.986,0,0,1,1.364-2.349C272.935,31.269,273.545,31.611,273.545,32.487Z" transform="translate(-216.871 2.108)"/>
            <path id="Trazado_106076" data-name="Trazado 106076" d="M275.441,91.561,271.9,93.67l-3.266-1.839.44-.27,2.753,1.536,3.081-1.839Z" transform="translate(-218.876 56.941)" fill="#5f7584"/>
            <path id="Trazado_106077" data-name="Trazado 106077" d="M275.4,91.992l-.452.268L271.865,94.1l-2.753-1.536-.525-.292,3.532-2.105Z" transform="translate(-218.917 55.938)" fill="#b6bac2"/>
            <path id="Trazado_106078" data-name="Trazado 106078" d="M296.56,30.785l.911,1.6a2.986,2.986,0,0,0-1.364,2.349v.111L264.823,52.9l-11.148,6.442a11.264,11.264,0,0,0-5.092,8.822V134.9c0,2.888,1.816,4.252,4.192,3.35l1.243,2.144-4.814,2.779-1.195.694a7.446,7.446,0,0,0-.936.644l-.291.171a5.547,5.547,0,0,0-.951.683,2.691,2.691,0,0,1-1.584-.865,4.5,4.5,0,0,1-.986-3.1V68.037a12.406,12.406,0,0,1,5.6-9.722Z" transform="translate(-242.162 1.436)" fill="#fa493f"/>
            <path id="Trazado_106079" data-name="Trazado 106079" d="M274.583,82.29l.086.573L271.2,84.91l-4.9-2.779-.036-.536,4.86,2.742Z" transform="translate(-221.051 48.072)" fill="#5f7584"/>
            <path id="Trazado_106080" data-name="Trazado 106080" d="M274.606,83.287l-3.461,2.047-4.86-2.742-.049-.022,3.459-2.06Z" transform="translate(-221.074 47.075)" fill="#b6bac2"/>
            <path id="Trazado_106081" data-name="Trazado 106081" d="M274.024,95.247l.088.56-4.461,2.669-3.811-2.145-.073-.562,3.811,2.145Z" transform="translate(-221.505 60.602)" fill="#5f7584"/>
            <path id="Trazado_106082" data-name="Trazado 106082" d="M274.024,96.261l-4.446,2.667-3.811-2.145.547-.328,3.91-2.315Z" transform="translate(-221.505 59.587)" fill="#b6bac2"/>
            <path id="Trazado_106083" data-name="Trazado 106083" d="M273.375,90.361l-3.532,2.1-3.461-1.925.453-.279,2.922,1.631,3.083-1.828Z" transform="translate(-220.941 55.838)" fill="#5f7584"/>
            <path id="Trazado_106084" data-name="Trazado 106084" d="M273.645,87.16l.084.573-3.751,2.229-3.911-2.18-.1-.573,3.922,2.18Z" transform="translate(-221.319 53.179)" fill="#5f7584"/>
            <path id="Trazado_106085" data-name="Trazado 106085" d="M273.338,90.839l-.452.266L269.8,92.933,266.882,91.3l-.551-.294,3.534-2.094Z" transform="translate(-220.987 54.789)" fill="#b6bac2"/>
            <path id="Trazado_106086" data-name="Trazado 106086" d="M273.645,88.2l-3.753,2.229-3.922-2.18,3.789-2.218Z" transform="translate(-221.319 52.142)" fill="#b6bac2"/>
            <path id="Trazado_106087" data-name="Trazado 106087" d="M273.2,92.914l-3.592,2.132-3.289-1.828.463-.266,2.729,1.521,3.154-1.862Z" transform="translate(-220.998 58.183)" fill="#5f7584"/>
            <path id="Trazado_106088" data-name="Trazado 106088" d="M273.152,93.344l-.451.27-3.154,1.862-2.729-1.521-.537-.292,3.6-2.144Z" transform="translate(-221.034 57.18)" fill="#b6bac2"/>
            <path id="Trazado_106089" data-name="Trazado 106089" d="M272.4,83.594l.086.571-3.742,2.206-4.9-2.753-.086-.562,4.9,2.753Z" transform="translate(-223.348 49.413)" fill="#5f7584"/>
            <path id="Trazado_106090" data-name="Trazado 106090" d="M272.4,84.655l-3.74,2.216-4.9-2.753,3.727-2.218Z" transform="translate(-223.348 48.352)" fill="#b6bac2"/>
            <path id="Trazado_106091" data-name="Trazado 106091" d="M271.149,91.715l-3.605,2.131-3.474-1.939.453-.266,2.937,1.644,3.154-1.877Z" transform="translate(-223.063 57.08)" fill="#5f7584"/>
            <path id="Trazado_106092" data-name="Trazado 106092" d="M271.114,92.2l-.461.27L267.5,94.348,264.563,92.7l-.538-.305,3.607-2.145Z" transform="translate(-223.103 56.019)" fill="#b6bac2"/>
            <path id="Trazado_106093" data-name="Trazado 106093" d="M271.139,88.623l.075.562-3.534,2.107-3.886-2.18-.073-.573,3.875,2.169Z" transform="translate(-223.383 54.445)" fill="#5f7584"/>
            <path id="Trazado_106094" data-name="Trazado 106094" d="M271.254,93.843l.086.571-4.459,2.643-3.264-1.826-.086-.586,3.278,1.841Z" transform="translate(-223.558 59.314)" fill="#5f7584"/>
            <path id="Trazado_106095" data-name="Trazado 106095" d="M271.139,89.631,267.6,91.716l-3.875-2.169,3.5-2.107Z" transform="translate(-223.383 53.437)" fill="#b6bac2"/>
            <path id="Trazado_106096" data-name="Trazado 106096" d="M271.254,94.724l-4.446,2.643-3.278-1.841,4.446-2.643Z" transform="translate(-223.558 58.433)" fill="#b6bac2"/>
            <path id="Trazado_106097" data-name="Trazado 106097" d="M269.747,85.155l.084.562L266.359,87.8l-4.9-2.753-.084-.571,4.9,2.766Z" transform="translate(-225.534 50.714)" fill="#5f7584"/>
            <path id="Trazado_106098" data-name="Trazado 106098" d="M269.747,86.146l-3.472,2.085-4.9-2.766,3.485-2.071Z" transform="translate(-225.534 49.722)" fill="#b6bac2"/>
            <path id="Trazado_106099" data-name="Trazado 106099" d="M269.206,92.642l.073.573-4.446,2.643-3.472-1.936-.086-.573,3.473,1.938Z" transform="translate(-225.628 58.212)" fill="#5f7584"/>
            <path id="Trazado_106100" data-name="Trazado 106100" d="M269.206,93.569l-4.459,2.645-3.473-1.938,4.461-2.643Z" transform="translate(-225.628 57.285)" fill="#b6bac2"/>
            <path id="Trazado_106101" data-name="Trazado 106101" d="M268.907,89.946l.084.573L265.4,92.651l-3.922-2.167-.073-.573,3.909,2.182Z" transform="translate(-225.511 55.704)" fill="#5f7584"/>
            <path id="Trazado_106102" data-name="Trazado 106102" d="M268.907,90.967l-3.6,2.146L261.4,90.932l3.619-2.133Z" transform="translate(-225.511 54.683)" fill="#b6bac2"/>
            <path id="Trazado_106103" data-name="Trazado 106103" d="M267.316,86.6l.086.573-3.266,1.959-4.907-2.764-.088-.571,4.909,2.764Z" transform="translate(-227.587 51.933)" fill="#5f7584"/>
            <path id="Trazado_106104" data-name="Trazado 106104" d="M267.316,87.538,264.05,89.5l-4.909-2.764,3.291-1.95Z" transform="translate(-227.587 51)" fill="#b6bac2"/>
            <path id="Trazado_106105" data-name="Trazado 106105" d="M267,91.3l.086.562-4.457,2.656-3.888-2.182-.084-.571,3.9,2.18Z" transform="translate(-228.03 56.981)" fill="#5f7584"/>
            <path id="Trazado_106106" data-name="Trazado 106106" d="M267,92.35l-4.446,2.645-3.9-2.18,4.435-2.656Z" transform="translate(-228.03 55.932)" fill="#b6bac2"/>
            <path id="Trazado_106107" data-name="Trazado 106107" d="M265.139,87.912l.086.573L261.7,90.543,256.83,87.8l-.084-.573,4.873,2.753Z" transform="translate(-229.785 53.244)" fill="#5f7584"/>
            <path id="Trazado_106108" data-name="Trazado 106108" d="M265.139,88.908l-3.519,2.071-4.873-2.753,3.486-2.083Z" transform="translate(-229.785 52.247)" fill="#b6bac2"/>
            <path id="Trazado_106109" data-name="Trazado 106109" d="M263.112,89.1l.086.562-4.278,2.57-4.9-2.776-.086-.562,4.886,2.764Z" transform="translate(-232.362 54.771)" fill="#5f7584"/>
            <path id="Trazado_106110" data-name="Trazado 106110" d="M263.112,90.319l-4.287,2.558-4.886-2.764,4.289-2.547Z" transform="translate(-232.362 53.552)" fill="#b6bac2"/>
            <path id="Trazado_106111" data-name="Trazado 106111" d="M255.133,99.162c0,.159-.113.222-.245.148l-2.656-1.534a.582.582,0,0,1-.244-.426c0-.113.061-.173.146-.173a.158.158,0,0,1,.1.025l2.656,1.55A.512.512,0,0,1,255.133,99.162Z" transform="translate(-234.152 62.374)" fill="#292929"/>
            <path id="Trazado_106112" data-name="Trazado 106112" d="M252.617,97.765c0,.159-.1.207-.232.146l-2.668-1.546a.521.521,0,0,1-.232-.414c0-.109.05-.184.136-.184a.183.183,0,0,1,.1.038l2.668,1.532A.528.528,0,0,1,252.617,97.765Z" transform="translate(-236.449 61.08)" fill="#292929"/>
            <path id="Trazado_106113" data-name="Trazado 106113" d="M252.508,87.839c.013.038.013.063.027.1l-5.155,2.975-2.131,1.229a7.447,7.447,0,0,1,.936-.644l1.195-.694,4.814-2.779Z" transform="translate(-240.337 53.803)" fill="#fa493f"/>
            <path id="Trazado_106114" data-name="Trazado 106114" d="M251.533,97.191c0,.292-.194.4-.451.267L246.1,94.583a1.015,1.015,0,0,1-.439-.794c0-.2.1-.315.255-.315a.293.293,0,0,1,.184.061l4.983,2.861A1,1,0,0,1,251.533,97.191Z" transform="translate(-239.959 58.975)" fill="#292929"/>
            <path id="Trazado_106115" data-name="Trazado 106115" d="M247.7,90.246l.351-.2a8.939,8.939,0,0,1-1.766,5.518c-1.837-1.3-2.242-3.057-1.193-4.568A5.043,5.043,0,0,0,247.7,90.246Z" transform="translate(-241.001 55.832)" fill="#d2d3d1"/>
            <path id="Trazado_106116" data-name="Trazado 106116" d="M245.552,90.253l.291-.171a4.131,4.131,0,0,0-.817.888,2.364,2.364,0,0,1-.426-.035A5.547,5.547,0,0,1,245.552,90.253Z" transform="translate(-240.932 55.862)" fill="#fa493f"/>
          </g>
        </g>
      </g>
      <g id="Grupo_57457" data-name="Grupo 57457" transform="translate(266.937 30.471)">
        <g id="Grupo_57456" data-name="Grupo 57456">
          <path id="Trazado_106117" data-name="Trazado 106117" d="M283.659,22.581,255.332,105l6.26,4.319,28.586-83.195A42.009,42.009,0,0,0,283.659,22.581Z" transform="translate(-255.332 -22.581)" fill="#cc3c33"/>
          <path id="Trazado_106118" data-name="Trazado 106118" d="M285.043,78.2l6.668-3.849v-7.7l-6.668,3.805Zm5.487-13.548L292.7,39.636l-10.364,6L285.4,67.621Zm27.2-.128L261.871,96.646l23.6-68.684Z" transform="translate(-249.33 -17.642)" fill="#f6c96b"/>
          <path id="Trazado_106119" data-name="Trazado 106119" d="M326.25,68.709,258.6,107.626l28.586-83.195Zm-5.51-.944L288.478,31.2l-23.6,68.684Z" transform="translate(-252.336 -20.883)" fill="#fa493f"/>
          <path id="Trazado_106120" data-name="Trazado 106120" d="M273.953,51.938v7.748l6.668-3.848V48.133Z" transform="translate(-238.241 0.872)" fill="#fa493f"/>
          <path id="Trazado_106121" data-name="Trazado 106121" d="M272.54,40.051,275.6,62.034l5.134-2.968L282.9,34.049Z" transform="translate(-239.538 -12.055)" fill="#fa493f"/>
        </g>
      </g>
    </g>
  </g>
</svg>
