<svg xmlns="http://www.w3.org/2000/svg" width="295" height="186.05" viewBox="0 0 295 186.05">
  <g id="Grupo_57837" data-name="Grupo 57837" transform="translate(-146 -1343)">
    <rect id="Rectángulo_5411" data-name="Rectángulo 5411" width="295" height="62" transform="translate(146 1459)" fill="#0077ec"/>
    <g id="Grupo_57452" data-name="Grupo 57452" transform="translate(-169.802 988.664)">
      <g id="Grupo_57448" data-name="Grupo 57448" transform="translate(340.126 375.451)">
        <g id="Grupo_57446" data-name="Grupo 57446">
          <g id="Grupo_57445" data-name="Grupo 57445">
            <path id="Trazado_105788" data-name="Trazado 105788" d="M405.392,382.144l-.081.147-2.98,1.718-6.473,3.732-.746.428-13.429,7.755-.537-.926v-2.916l11.134-6.45,3.124-1.8.453-.272,2.753-1.6-2.753-1.514-.234-.12-3.01-1.662-.333.2-11.134,6.427v-4.173l10.964-6.353,3.748,2.038.01-.025Z" transform="translate(-274.27 -342.654)" fill="#cf9927"/>
            <path id="Trazado_105789" data-name="Trazado 105789" d="M445.417,377.653V449.6l-89.252,53.356V437.7l3.478-2L402.412,411l.219-.122,3.122-10.221.051-.145,15.986-9.221,13.429-7.755.746-.428,6.473-3.733Z" transform="translate(-314.376 -338.016)" fill="#ffd947"/>
            <path id="Trazado_105790" data-name="Trazado 105790" d="M391.75,379.557l-2.753,1.6-.453.272-3.124,1.8V376.46l.333-.2,3.01,1.662.234.12Z" transform="translate(-267.409 -340.25)" fill="#b3924e"/>
            <path id="Trazado_105791" data-name="Trazado 105791" d="M392.281,376.338v6.768l-11.134,6.45v-6.791Z" transform="translate(-274.27 -340.128)" fill="#d1ab5b"/>
            <path id="Trazado_105792" data-name="Trazado 105792" d="M392.944,384.327l.537.926-15.986,9.221-.051.145-3.646-2.1,19.146-11.111Z" transform="translate(-286.068 -331.983)" fill="#cf9927"/>
            <path id="Trazado_105793" data-name="Trazado 105793" d="M421.726,378.8V385.6L402.58,396.707l-3.781,10.1L355.87,431.379v-6.028l37.563-21.691.222-.125,3.119-10.221.048-.145Z" transform="translate(-314.85 -336.167)" fill="#d0dcd7"/>
            <path id="Trazado_105794" data-name="Trazado 105794" d="M398.769,377.2v4.173l-24.9,14.366-.048.145-3.646-2.1Z" transform="translate(-291.892 -338.739)" fill="#d0dcd7"/>
            <path id="Trazado_105795" data-name="Trazado 105795" d="M412.056,380.705c-1.355,2.5-.511,5.881,3.671,3.674,5.646-2.829-.732-8.257-3.648-3.723C412.067,380.669,412.067,380.685,412.056,380.705Zm.4-8.645,9.265-5.3v27.219l-28.6,16.586-3.781,10.1L355.87,439.834v-18.66c1.027-1.829,2.4-6.928,4.367-7.319,1.014-.206,3.257,2.024,5.086,2.024,4.268,0,11.99-3.658,11.99-8.327,0-2.04-1.623-3.259-1.014-5.284.61-2.243,2.439-2.855,3.853-4.072,4.877-3.661,6.4-.7,11.477-4.356,2.645-1.826,8.45-10.281,11.5-11.7,1.011-.414,3.048-.813,3.851-1.634,1.636-1.415.414-.607.821-2.634a5.675,5.675,0,0,1,2.011-3.731c.513-.464,1.094-.974,1.8-1.608l.01-.016Zm-26.927,27.808.01.057c-2.137.612-7.624,5.187-5.795,7.626,3.356,4.875,8.845-4.575,8.538-7.626A4.848,4.848,0,0,0,385.533,399.869Zm8.668-2.54a4.373,4.373,0,0,0-1.644,4.122C396.1,401.745,398.2,396.049,394.2,397.328Zm-33.66,26.38c4.062,4.94,7.308-8.1,2.6-4.343C361.151,419.978,359.067,421.744,360.542,423.708Z" transform="translate(-314.85 -355.511)" fill="#d0dcd7"/>
            <path id="Trazado_105796" data-name="Trazado 105796" d="M377.826,373.164c2.915-4.533,9.294.894,3.648,3.723-4.182,2.207-5.026-1.172-3.671-3.674C377.813,373.193,377.813,373.177,377.826,373.164Z" transform="translate(-280.596 -348.019)" fill="#c64207"/>
            <path id="Trazado_105797" data-name="Trazado 105797" d="M408.057,378.99l-.834.461-.01.016L405.24,380.6c-2.345-6.292-7.527-8.624-14.247-9.622-6.9-1.014-12.6,2.642-19.512.412,4.474,5.075,8.535,6.706,15.049,6.9-3.661,3.663-9.565,8.345-14.442,10.576-4.388,1.915-8.413.586-12.926.758l-.55-2.926a27.008,27.008,0,0,0,2.915-.675c5.888-1.634,7.512-3.864,11.586-7.928-5.292.81-7.014.2-10.672-4.682-2.35-3.134-2.548-7.108-3.559-10.974,4.669,2.246,8.327,4.075,13.817,3.257,4.88-.818,9.145-2.441,14.231-1.623C393.81,365.293,407.124,370.733,408.057,378.99Z" transform="translate(-310.446 -362.44)" fill="#fa493f"/>
            <path id="Trazado_105798" data-name="Trazado 105798" d="M355.87,407.424v-7.256l20.062-11.49,33.712-19.267c.055.159.12.315.169.474a5.675,5.675,0,0,0-2.011,3.731c-.406,2.027.816,1.219-.821,2.634-.8.821-2.84,1.219-3.851,1.634-3.051,1.415-8.856,9.87-11.5,11.7-5.075,3.661-6.6.7-11.477,4.356-1.415,1.217-3.244,1.829-3.853,4.072-.61,2.024,1.014,3.244,1.014,5.284,0,4.669-7.723,8.327-11.99,8.327-1.829,0-4.072-2.23-5.086-2.024-1.964.391-3.34,5.49-4.367,7.319Z" transform="translate(-314.85 -351.25)" fill="#fca30b"/>
            <path id="Trazado_105799" data-name="Trazado 105799" d="M405.45,375.451l-33.712,19.267-1.06-1.852c-3.658-2.439-10.573-3.658-12.2-8.33.294-.023.6-.036.891-.06,4.513-.172,8.538,1.157,12.926-.758,4.877-2.23,10.781-6.912,14.442-10.576-6.514-.2-10.576-1.826-15.049-6.9,6.915,2.23,12.61-1.425,19.512-.412C397.923,366.827,403.106,369.159,405.45,375.451Z" transform="translate(-310.657 -357.291)" fill="#fca30b"/>
            <path id="Trazado_105800" data-name="Trazado 105800" d="M379.774,387.772l-3.122,10.221-.219.122-4.086-2.341,3.781-10.1Z" transform="translate(-288.398 -325.136)" fill="#ab7e20"/>
            <path id="Trazado_105801" data-name="Trazado 105801" d="M364.04,414.125l42.929-24.574,4.086,2.341L368.287,416.6l-3.478,2v.328l-.145-.086-4.43-2.534.028-.013-4.906-2.832v-.023l-4.575-2.623,13.259-7.582V408.1l-5.475,3.16,5.356,2.941Z" transform="translate(-323.02 -318.913)" fill="#cf9927"/>
            <path id="Trazado_105802" data-name="Trazado 105802" d="M376.146,385.666l-3.119,10.221-.221.125-4.086-2.343,3.781-10.1Z" transform="translate(-294.222 -328.518)" fill="#d0dcd7"/>
            <path id="Trazado_105803" data-name="Trazado 105803" d="M371.632,378.606c4-1.279,1.894,4.416-1.644,4.122A4.373,4.373,0,0,1,371.632,378.606Z" transform="translate(-292.281 -336.788)" fill="#c64207"/>
            <path id="Trazado_105804" data-name="Trazado 105804" d="M393.433,389.789,355.87,411.479v-4.862l33.477-19.172Z" transform="translate(-314.85 -322.295)" fill="#d0dcd7"/>
            <path id="Trazado_105805" data-name="Trazado 105805" d="M373.8,379.627c.307,3.051-5.182,12.5-8.538,7.626-1.829-2.439,3.658-7.014,5.794-7.626l-.01-.057A4.848,4.848,0,0,1,373.8,379.627Z" transform="translate(-300.362 -335.212)" fill="#c64207"/>
            <path id="Trazado_105806" data-name="Trazado 105806" d="M365.331,390.309v7.256c-3.194-1.892-9.135-2.816-9.864-5.148-1.222-4.072,3.658-4.268,4.07-7.316.612-4.268-6.912-6.706-9.559-8.34,5.294-2.843,13.624,0,18.9,1.634a18.749,18.749,0,0,0,15.453-1.428l1.06,1.852Z" transform="translate(-324.311 -341.392)" fill="#fca30b"/>
            <path id="Trazado_105807" data-name="Trazado 105807" d="M385.783,377.031c1.623,4.672,8.538,5.891,12.2,8.33a18.749,18.749,0,0,1-15.453,1.428c-5.279-1.634-13.608-4.476-18.9-1.634,2.647,1.634,10.172,4.072,9.559,8.34-.412,3.048-5.292,3.244-4.07,7.316.73,2.332,6.67,3.257,9.864,5.148v9.489c-.039.073-.073.133-.109.193.414-3.45-5.685-5.279-8.121-6.706-3.658-2.027-8.134-5.075-9.755-8.939-1.222-2.647.193-5.49-.821-8.134-.813-2.845-3.45-3.452-5.891-4.466a56.1,56.1,0,0,0-12.8-3.254c5.281-2.845,11.172-6.1,17.266-5.891,3.257.2,6.1,1.415,9.356,1.623,2.843.206,5.891-.208,8.942.61-3.859-2.233-7.517-5.49-8.33-10.161,3.658.612,5.083,4.062,9.351,4.27a33.922,33.922,0,0,0,8.061-.547l.55,2.926C386.382,376.995,386.077,377.008,385.783,377.031Z" transform="translate(-337.957 -349.786)" fill="#fa493f"/>
            <path id="Trazado_105808" data-name="Trazado 105808" d="M360.567,387.373c4.711-3.755,1.464,9.283-2.6,4.343C356.495,389.752,358.579,387.985,360.567,387.373Z" transform="translate(-312.278 -323.518)" fill="#c64207"/>
            <path id="Trazado_105809" data-name="Trazado 105809" d="M368.362,374.715l-.341.174c-2.15-3.319-7.77-.636-10.841-1.391-3.452-1.024-5.487-5.693-4.672-8.952,2.233,1.222,3.048,2.439,5.7,2.856,2.024.4,4.27-.211,6.1.607C367.351,369.231,367.96,371.862,368.362,374.715Z" transform="translate(-320.536 -359.059)" fill="#fa493f"/>
            <path id="Trazado_105810" data-name="Trazado 105810" d="M364.808,459.608v11.137l-9.315-5.564-.015-.01-.122-.071-4.575-2.733V397.714l4.575,2.623v.023l4.906,2.832-.028.013,4.43,2.534.145.086v53.783Z" transform="translate(-323.02 -305.81)" fill="#ab7e20"/>
            <path id="Trazado_105811" data-name="Trazado 105811" d="M359.244,396.67V402.7l-.12.074-5.356-2.941Z" transform="translate(-318.224 -307.486)" fill="#d1ab5b"/>
            <path id="Trazado_105812" data-name="Trazado 105812" d="M352.674,423.659l-.064.028-.074.048v-.158l.122.071Z" transform="translate(-320.201 -264.287)" fill="#f6c96b"/>
            <path id="Trazado_105813" data-name="Trazado 105813" d="M348.523,379.83c1.972,0,4.536-.586,5.6,1.66-2.978.414-5.539,2.757-8.853,2.4-3.661-.4-5.49-2.842-5.088-6.706C342.426,379.621,345.475,379.83,348.523,379.83Z" transform="translate(-340.126 -338.768)" fill="#fa493f"/>
          </g>
        </g>
        <path id="Trazado_105814" data-name="Trazado 105814" d="M361.893,407.708q23.578-14.589,47.159-29.178c1.334-.826.112-2.936-1.232-2.105L360.663,405.6c-1.334.826-.109,2.936,1.23,2.108Z" transform="translate(-308.08 -340.294)" fill="#f1fff9"/>
        <path id="Trazado_105815" data-name="Trazado 105815" d="M362.445,411.676Q386.023,397.091,409.6,382.5c1.331-.826.109-2.936-1.232-2.108q-23.582,14.589-47.159,29.178c-1.331.823-.109,2.936,1.232,2.105Z" transform="translate(-307.196 -333.922)" fill="#f1fff9"/>
        <g id="Grupo_57447" data-name="Grupo 57447" transform="translate(66.953 66.928)">
          <path id="Trazado_105816" data-name="Trazado 105816" d="M380.56,391.3a26.833,26.833,0,0,1,5.6-2.871c-.193,3-.333,5.977-.779,9.088a1.082,1.082,0,0,1-.122.036,12.5,12.5,0,0,0-3.47,1.5C381.587,396.338,380.875,393.964,380.56,391.3Z" transform="translate(-342.165 -387.638)" fill="#0077ec"/>
          <path id="Trazado_105817" data-name="Trazado 105817" d="M380.207,398.333a13.329,13.329,0,0,0-3.035-.946,38.488,38.488,0,0,1,7.72-7.558c.31,2.65,1.047,5.01,1.238,7.736a20.941,20.941,0,0,0-3.332,3.1A9.07,9.07,0,0,0,380.207,398.333Z" transform="translate(-347.604 -385.396)" fill="#0077ec"/>
          <path id="Trazado_105818" data-name="Trazado 105818" d="M380.106,399.308a33.076,33.076,0,0,0-4.705.031,42.864,42.864,0,0,1,3.681-6.128,9.663,9.663,0,0,1,3.783,1.292,11.456,11.456,0,0,1,1.837,1.871,27.025,27.025,0,0,0-2.181,3.278A7.739,7.739,0,0,0,380.106,399.308Z" transform="translate(-350.447 -379.967)" fill="#0077ec"/>
          <path id="Trazado_105819" data-name="Trazado 105819" d="M378.323,400.955c-1.337.5-2.671.987-3.989,1.365a38.128,38.128,0,0,1,2.165-6.175,27.829,27.829,0,0,1,4.127-.081,8.209,8.209,0,0,1,2.926.36,15.719,15.719,0,0,0-1.2,3.486C381,400.272,379.717,400.444,378.323,400.955Z" transform="translate(-352.16 -375.462)" fill="#0077ec"/>
          <path id="Trazado_105820" data-name="Trazado 105820" d="M377.617,403.628c-1.232.67-2.454,1.37-3.666,1.91.117-1.238.224-2.418.393-3.5.089-.534.2-1.073.313-1.61,1.368-.4,2.759-.928,4.161-1.423,1.339-.479,2.592-.667,3.893-1.016-.206,1.188-.333,2.342-.459,3.431C380.7,402.19,379.17,402.784,377.617,403.628Z" transform="translate(-352.775 -372.294)" fill="#0077ec"/>
          <path id="Trazado_105821" data-name="Trazado 105821" d="M373.794,406.329c.125-.831.216-1.66.294-2.467.951-.43,1.918-.946,2.9-1.482,1.8-.977,3.572-1.7,5.365-2.6-.185,1.456-.38,2.908-.633,4.38A28.7,28.7,0,0,1,373.794,406.329Z" transform="translate(-353.027 -369.419)" fill="#0077ec"/>
          <path id="Trazado_105822" data-name="Trazado 105822" d="M380.971,407.466a15,15,0,0,1-7.772,1.047,19.959,19.959,0,0,0,1.337-4.385,29.712,29.712,0,0,0,7.908-2.181c-.2,1.037-.43,2.084-.709,3.153A23.1,23.1,0,0,1,380.971,407.466Z" transform="translate(-353.982 -365.94)" fill="#0077ec"/>
          <path id="Trazado_105823" data-name="Trazado 105823" d="M373.457,410.919a8.4,8.4,0,0,1-1.667-1.519c.745-.792,1.428-1.579,1.991-2.3a13.834,13.834,0,0,0,1.014-1.537,15.783,15.783,0,0,0,7.861-.956,36.914,36.914,0,0,1-4.963,7.993A7.616,7.616,0,0,1,373.457,410.919Z" transform="translate(-356.244 -361.678)" fill="#0077ec"/>
          <path id="Trazado_105824" data-name="Trazado 105824" d="M370.268,409.333a29.089,29.089,0,0,0,2.91-2.48,7.322,7.322,0,0,0,2.579,2.1,10.442,10.442,0,0,0,3.319,1.3A43.027,43.027,0,0,1,372.4,416.5C371.438,414.3,370.349,412.192,370.268,409.333Z" transform="translate(-358.688 -358.065)" fill="#0077ec"/>
          <path id="Trazado_105825" data-name="Trazado 105825" d="M372.6,408.577a.284.284,0,0,0,.047,0,53.98,53.98,0,0,0-1.454,5.3,37.951,37.951,0,0,0-.482,4.291,9.7,9.7,0,0,1-3.111.19C363.076,417.842,368.084,408.059,372.6,408.577Z" transform="translate(-365.823 -355.329)" fill="#0077ec"/>
          <path id="Trazado_105826" data-name="Trazado 105826" d="M368.5,414.871a56.44,56.44,0,0,1,1.48-5.625,8.584,8.584,0,0,0,2.618-1.152,18.728,18.728,0,0,0,2.121,7.217,24.081,24.081,0,0,1-6.6,3.317A28.714,28.714,0,0,1,368.5,414.871Z" transform="translate(-362.133 -356.073)" fill="#0077ec"/>
          <path id="Trazado_105827" data-name="Trazado 105827" d="M383.612,388.545c.362-.107.722-.208,1.084-.3,4.752-1.191,2.525,6.964-1.86,9.314C383.279,394.478,383.42,391.526,383.612,388.545Z" transform="translate(-338.511 -388.128)" fill="#0077ec"/>
        </g>
      </g>
      <g id="Grupo_57451" data-name="Grupo 57451" transform="translate(436.092 354.336)">
        <g id="Grupo_57449" data-name="Grupo 57449">
          <path id="Trazado_105828" data-name="Trazado 105828" d="M407.047,400.566c2.84-.4,3.244-3.45,1.829-5.281-1.634-1.829-5.7-2.23-7.733-3.048-4.27-1.623-7.514-4.268-8.939-8.939a6.884,6.884,0,0,0,5.745,2.78c5.792,0,12.889-5.255,17.634-4.815-2.645,0-6.623-2.014-8.572-4.515a5.863,5.863,0,0,1-.99-1.79,23.286,23.286,0,0,0,16.063,1.634c4.476-1.428,8.939-4.877,13.624-3.257-1.428-1.621-3.661-3.257-3.048-5.7,2.23,2.241,4.672,1.219,7.316,1.425a20.34,20.34,0,0,1,6.6,2.173l3.038-1.772c-1.053-.938-1.4-2.608-2.832-3.755-2.746-2.134-6.4-2.134-9.45-1.219-4.27.607-5.8,2.746-9.757-.3-2.746-2.137-4.27-6.1-4.877-9.148,0,6.706,1.524,10.977,5.789,16.159-4.244-4.851-12.5-3.353-16.766-2.746-10.771,1.5-18.6-2.436-25.614-8.838,2.441,9.45,8.538,16.159,17.991,19.207-5.182.3-9.453-1.219-14.635-1.219-5.49,0-8.538.3-12.5-4.268,1.524,6.4,5.794,12.194,10.364,16.766,4.88,4.575,11.284,5.185,16.162,8.846a38.92,38.92,0,0,0-6.1.3c4.807,3.585,10.367,7.316,13.72,12.8a13.68,13.68,0,0,1,.516-2.78v-6.889C409.863,402.348,408.243,402.066,407.047,400.566Z" transform="translate(-376.959 -353.209)" fill="#fa493f"/>
          <path id="Trazado_105829" data-name="Trazado 105829" d="M402.666,367.834a1.5,1.5,0,0,0-1.5-.1c-.01.016-.021.016-.034.026l-.026.01a4.639,4.639,0,0,0-1.792,2.5C401.142,370.883,402.358,369.966,402.666,367.834Z" transform="translate(-341.076 -333.075)" fill="#c64207"/>
          <path id="Trazado_105830" data-name="Trazado 105830" d="M404.35,364.363l-.036-.036c-1.415,1.462-2.72,3.814-1.185,4.914C408.006,373.206,409.837,358.876,404.35,364.363Z" transform="translate(-336.054 -340.275)" fill="#c64207"/>
          <path id="Trazado_105831" data-name="Trazado 105831" d="M411.165,393.925c.917-.612,3.048-1.219,3.661-2.743.607-2.136-1.834-2.441-1.834-3.966.615-2.439,2.441-3.963,4.575-5.487,4.27-3.048,11.282-4.27,13.723-9.148,1.219-2.744.216-3.562,2.655-6a31,31,0,0,1,3.405-2.962l-.06-.086a.4.4,0,0,1-.109-.057,20.34,20.34,0,0,0-6.6-2.173c-2.645-.206-5.086.816-7.316-1.425-.612,2.439,1.621,4.075,3.048,5.7-4.685-1.621-9.148,1.829-13.624,3.257a23.286,23.286,0,0,1-16.063-1.634,5.863,5.863,0,0,0,.99,1.79c1.949,2.5,5.927,4.515,8.572,4.515-4.744-.44-11.842,4.815-17.634,4.815a6.884,6.884,0,0,1-5.745-2.78c1.425,4.672,4.669,7.316,8.939,8.939,2.035.818,6.1,1.219,7.733,3.048,1.415,1.832,1.011,4.877-1.829,5.281,1.2,1.5,2.817,1.782,4.575,1.819v6.889C403.521,397.241,406.8,396.228,411.165,393.925Z" transform="translate(-367.566 -345.445)" fill="#fca30b"/>
          <path id="Trazado_105832" data-name="Trazado 105832" d="M470.2,376.6l-.746.425-13.04,7.526L440.041,394l-.048.148-3.124,10.221-.219.122L393.878,429.2l-3.476,2v65.248l89.25-53.358V371.15l-2.977,1.718Z" transform="translate(-355.376 -327.341)" fill="#ffd947"/>
          <path id="Trazado_105833" data-name="Trazado 105833" d="M422.78,374.92l.453-.27,2.755-1.6-2.755-1.511-.234-.122-3.012-1.659-.328.2v6.768Z" transform="translate(-308.408 -329.574)" fill="#b3924e"/>
          <path id="Trazado_105834" data-name="Trazado 105834" d="M441.9,370.274l-.01.023-3.748-2.036-10.559,6.124v4.17l10.732-6.2.328-.2,3.012,1.659.234.122,2.755,1.511-2.755,1.6-.453.27-3.122,1.8-10.732,6.218L408.035,396.69l3.648,2.1.048-.148,16.376-9.45,13.04-7.526.746-.425,6.473-3.733,2.977-1.718.087-.147Z" transform="translate(-327.068 -331.979)" fill="#cf9927"/>
          <path id="Trazado_105835" data-name="Trazado 105835" d="M426.271,376.6v-6.768l-10.732,6.2v6.791Z" transform="translate(-315.021 -329.453)" fill="#d1ab5b"/>
          <path id="Trazado_105836" data-name="Trazado 105836" d="M390.263,453.489l42.526-24.343,3.778-10.1L456.118,407.7V354.336l-27.865,16.255-3.038,1.772a.4.4,0,0,0,.109.057l.06.086a31,31,0,0,0-3.405,2.962c-2.439,2.441-1.436,3.259-2.655,6-2.441,4.877-9.453,6.1-13.723,9.148-2.134,1.524-3.96,3.048-4.575,5.487,0,1.524,2.441,1.829,1.834,3.966-.612,1.524-2.743,2.131-3.661,2.743-4.367,2.3-7.644,3.317-8.937,7.584v43.089Zm33.6-75.1.036.036c5.487-5.487,3.655,8.843-1.222,4.877C421.14,382.2,422.445,379.849,423.86,378.387Zm-8.233,10.646.026-.01c.013-.01.023-.01.034-.026a1.5,1.5,0,0,1,1.5.1c-.307,2.131-1.524,3.048-3.356,2.439A4.639,4.639,0,0,1,415.627,389.033Z" transform="translate(-355.6 -354.336)" fill="#d0dcd7"/>
          <path id="Trazado_105837" data-name="Trazado 105837" d="M410.668,391.612l.219-.122,3.124-10.221-3.648-2.1-3.778,10.1Z" transform="translate(-329.396 -314.462)" fill="#ab7e20"/>
          <path id="Trazado_105838" data-name="Trazado 105838" d="M399.044,452.631V399.323l-.145-.087-4.427-2.534.023-.013-4.9-2.832v-.023l-4.572-2.623v64.65l4.572,2.73.125.076.012.01,9.315,5.562v-11.61Z" transform="translate(-364.018 -295.134)" fill="#ab7e20"/>
          <path id="Trazado_105839" data-name="Trazado 105839" d="M388.006,393.471l5.353,2.939.527-.305v-6.025Z" transform="translate(-359.224 -296.952)" fill="#d1ab5b"/>
          <path id="Trazado_105840" data-name="Trazado 105840" d="M389.592,406.963l4.9,2.832-.023.013,4.427,2.534.145.087V412.1l3.476-2,42.771-24.711-4.084-2.341L398.68,407.391l-.527.305-5.353-2.939,5.88-3.392V396.5l-13.661,7.816,4.572,2.623Z" transform="translate(-364.018 -308.239)" fill="#cf9927"/>
          <path id="Trazado_105841" data-name="Trazado 105841" d="M386.774,417.073v.161l.074-.048.064-.026-.012-.01Z" transform="translate(-361.201 -253.614)" fill="#f6c96b"/>
        </g>
        <path id="Trazado_105842" data-name="Trazado 105842" d="M395.473,396.719q23.578-14.589,47.153-29.178c1.337-.826.112-2.934-1.23-2.105q-23.578,14.589-47.153,29.178c-1.337.826-.112,2.936,1.23,2.105Z" transform="translate(-350.138 -336.82)" fill="#f1fff9"/>
        <path id="Trazado_105843" data-name="Trazado 105843" d="M395.473,400.718q23.578-14.585,47.153-29.178c1.337-.823.112-2.936-1.23-2.105q-23.578,14.589-47.153,29.178c-1.337.826-.112,2.936,1.23,2.105Z" transform="translate(-350.138 -330.402)" fill="#f1fff9"/>
        <path id="Trazado_105844" data-name="Trazado 105844" d="M395.752,405q23.578-14.585,47.153-29.176c1.337-.823.112-2.934-1.23-2.1Q418.094,388.3,394.52,402.893c-1.337.829-.109,2.939,1.232,2.105Z" transform="translate(-349.693 -323.523)" fill="#f1fff9"/>
        <g id="Grupo_57450" data-name="Grupo 57450" transform="translate(65.725 82.529)">
          <path id="Trazado_105845" data-name="Trazado 105845" d="M433.9,402.205a23.761,23.761,0,0,0,.685-5.505c0-9.786-7.254-13.533-16.2-8.369s-16.2,17.29-16.2,27.076a14.968,14.968,0,0,0,.761,4.948c1.548,1.019,3.781-.307,5.93-.534,3.077-.248,3.434,2.754,3.661,6.146a14.459,14.459,0,0,0,2.243-.547v-2.368l1.212-.7v2.616c.487-.2.98-.432,1.483-.693V421.5l1.214-.7V423.6q.719-.434,1.42-.92v-2.707l1.212-.7v2.517c.774-.6,1.524-1.248,2.254-1.938.237-3.385.74-6.574,3.614-9.653,2.54-2.665,5.193-3.932,6.693-7.993l.016,0Zm-21.659,12.28c-1.946,1.787-3.906,1.985-4.372.432s.735-4.257,2.684-6.05,3.908-1.985,4.372-.435S414.188,412.7,412.239,414.485Zm8.158-.61c-.461.875-1.154-.128-2.136.378s-1.441,1.931-2.131,2.087,1.454-6.243,2.251-6.722S420.858,413,420.4,413.875Zm9.023-10.813a6.536,6.536,0,0,1-4.369,4.612c-1.954.461-3.155-.86-2.689-2.949a6.542,6.542,0,0,1,4.372-4.614C428.685,399.652,429.886,400.973,429.42,403.063Z" transform="translate(-402.185 -386.012)" fill="#0077ec"/>
          <path id="Trazado_105846" data-name="Trazado 105846" d="M404.241,421.009c-1.576.057-2.324-1.514-1.67-3.5A6.232,6.232,0,0,1,404.4,414.8a3.411,3.411,0,0,1,0-2.514c.659-1.993,2.467-3.645,4.049-3.7s2.34,1.944,2.194,3.734c2.03.049,4.6.089,7.11.073,2.673-3.064,5.474-6.339,7.647-8.9a9.573,9.573,0,0,1,2.2-6.266c1.579-1.772,3.39-2.207,4.044-.977a3.423,3.423,0,0,1,0,2.52,1.427,1.427,0,0,1,1.829.6c.657,1.23-.091,3.663-1.67,5.432-1.516,1.694-3.8,2.209-4.932,1.824-1.579,1.681-3.439,3.666-5.273,5.646,1.707-.1,3.361-.25,4.747-.4h0c1.139-1.751,3.233-4.015,4.7-4.067,1.566-.052,2.308,1.514,1.652,3.5a6.123,6.123,0,0,1-1.821,2.7,3.584,3.584,0,0,1-.063,2.389c-.657,1.985-2.462,3.642-4.025,3.7-1.415.044-2.384-1.821-2.051-3.572-1.993-.089-4.549-.146-6.993-.036-2.267,2.54-4.583,5.263-6.42,7.472.331,1.368-.636,4.354-2.051,5.935-1.566,1.759-3.371,2.183-4.025.954a3.271,3.271,0,0,1-.063-2.314,1.422,1.422,0,0,1-1.824-.6c-.654-1.235.083-3.658,1.652-5.414a4.482,4.482,0,0,1,4.7-1.355v0c1.225-1.287,2.655-2.8,4.145-4.427-1.634.128-3.265.271-4.672.4C408.045,418.829,405.755,420.96,404.241,421.009Z" transform="translate(-401.945 -370.705)" fill="#0077ec"/>
        </g>
      </g>
    </g>
  </g>
</svg>
