<svg xmlns="http://www.w3.org/2000/svg" width="295" height="206" viewBox="0 0 295 206">
  <g id="Grupo_57838" data-name="Grupo 57838" transform="translate(-146 -1632)">
    <rect id="Rectángulo_5412" data-name="Rectángulo 5412" width="295" height="62" transform="translate(146 1760)" fill="#0077ec"/>
    <g id="Grupo_57467" data-name="Grupo 57467" transform="translate(-146.294 1461.459)">
      <g id="Grupo_57459" data-name="Grupo 57459" transform="translate(362.353 170.541)">
        <g id="Grupo_57458" data-name="Grupo 57458">
          <path id="Trazado_106122" data-name="Trazado 106122" d="M371.045,186.361l.772.448c-.4.23-.791.478-1.176.749C370.766,187.152,370.9,186.746,371.045,186.361Z" transform="translate(-354.918 -156.35)" fill="#919191"/>
          <path id="Trazado_106123" data-name="Trazado 106123" d="M376.961,279.3c-4.189-10.354-8.753-44.762-7.562-68.988-.008-.009,0-.009,0-.009q.265-.347.546-.677c.486-.562.992-1.112,1.527-1.633a19.4,19.4,0,0,1,3.544-2.692l40.516-23.384c2.758-1.592,5.253-1.914,7.082-1.134h.011a6.461,6.461,0,0,1,1.6,4.659l.3,104.9c.021,5.724-4.5,12.986-10.1,16.218l-1.62.937H412.8C395.251,308.1,383.24,294.857,376.961,279.3Z" transform="translate(-356.205 -161.719)" fill="#fff"/>
          <path id="Trazado_106124" data-name="Trazado 106124" d="M402.659,178.641l-28.625,16.522-.772-.448-5.092-2.952,13.858-8.008.871,1.52a.946.946,0,0,0-.571.759.687.687,0,0,0,.387.571,2.444,2.444,0,0,0,2.258-.042l16.761-9.514Z" transform="translate(-357.135 -164.703)" fill="#919191"/>
          <path id="Trazado_106125" data-name="Trazado 106125" d="M368.683,200.523a27.521,27.521,0,0,1,1.926-3.284c.091-.138.2-.273.3-.408a7.453,7.453,0,0,1,.52-.675c-1.191,24.226,3.373,58.634,7.562,68.988,6.279,15.556,18.29,28.8,35.84,28.2l-38.889,22.448c-1.9,1.1-4.781,2.138-6.985,1.212a1.29,1.29,0,0,1-.228-.228,5.491,5.491,0,0,1-1.144-2.1,5.861,5.861,0,0,1-.159-.622c-.04-.188-.07-.385-.1-.571-.021-.167-.042-.336-.053-.5-.023-.239-.028-.478-.028-.708l-.292-104.9V207.3a5.026,5.026,0,0,1,.021-.562,16.6,16.6,0,0,1,.77-3.889A21.194,21.194,0,0,1,368.683,200.523Z" transform="translate(-358.232 -147.562)" fill="#e4eae8"/>
          <path id="Trazado_106126" data-name="Trazado 106126" d="M368.587,320.5c0,.239.006.469.028.708.011.165.032.334.053.5.032.186.063.383.1.571a3.368,3.368,0,0,0,.159.622,5.248,5.248,0,0,0,1.144,2.1,1.456,1.456,0,0,0,.2.218,4.147,4.147,0,0,1-.987-.6,4.928,4.928,0,0,1-1.736-2.453h-1.77l-.3-107.46-.032-9.347v-.072c0-.095.011-.176.011-.271v-.116a21.309,21.309,0,0,1,1.353-6.714,24.376,24.376,0,0,1,7.4-10.389c.364-.281.729-.55,1.093-.8-1.4,4.451-2.193,10.5-2.529,17.376a6.251,6.251,0,0,0-.52.685c-.1.135-.207.269-.3.408a18.558,18.558,0,0,0-3.641,9.5,5.033,5.033,0,0,0-.021.562v.074Z" transform="translate(-359.579 -155.783)" fill="#979797"/>
          <path id="Trazado_106127" data-name="Trazado 106127" d="M425.6,193.654c-.008-2.9-1.186-4.855-3.066-5.657h-.011c-1.829-.78-4.324-.457-7.082,1.134l-40.516,23.384a19.4,19.4,0,0,0-3.544,2.692,20.9,20.9,0,0,0-1.527,1.633q-.282.33-.546.677c.336-6.875,1.125-12.925,2.529-17.376.385-.271.78-.52,1.176-.749l28.625-16.522,15.638-9.025a12.928,12.928,0,0,1,1.153-.592c.2-.093.406-.176.609-.26.14-.051.285-.1.417-.156.1-.032.2-.063.294-.095a9.766,9.766,0,0,1,1.024-.26,8.389,8.389,0,0,1,1.835-.146h.019c.158.013.313.03.467.053s.326.053.489.082a5.71,5.71,0,0,1,.939.292,6.288,6.288,0,0,1,.581.281v.01c2.005,1.144,3.255,3.61,3.267,7.122l.364,128.624a17.822,17.822,0,0,1-.118,1.962,45.2,45.2,0,0,1-12.187,3.62c5.3-3.39,9.482-10.316,9.466-15.827Zm-11.745-8.89c0-.489-.294-.717-.7-.582-.116-.334-.436-.436-.821-.218l-34.605,19.984a1.905,1.905,0,0,0-.861,1.5c0,.478.288.708.685.571.118.345.45.448.835.22l34.6-19.975A1.917,1.917,0,0,0,413.856,184.764Z" transform="translate(-356.114 -168.933)" fill="#bdbdbd"/>
          <path id="Trazado_106128" data-name="Trazado 106128" d="M368.219,207.316l-5.866-3.411c-.009-7.319,4.712-15.45,11.035-19.1l5.092,2.952c-.144.385-.279.791-.4,1.2-.376.25-.738.52-1.093.8a24.376,24.376,0,0,0-7.4,10.389,20.206,20.206,0,0,0-1.353,6.714v.011c-.011.127-.011.249-.011.376Z" transform="translate(-362.353 -157.745)" fill="#757575"/>
          <path id="Trazado_106129" data-name="Trazado 106129" d="M376.447,270.984a11.185,11.185,0,0,1-1.123.586,10.865,10.865,0,0,1-2.6.852,5.651,5.651,0,0,1-3.667-.459,4.408,4.408,0,0,1-.617-.376,1.014,1.014,0,0,0-.114-.078c-.116-.108-.216-.2-.321-.305,2.2.926,5.084-.114,6.985-1.212l38.889-22.448h.011a31.012,31.012,0,0,0,3.709-.334,7.325,7.325,0,0,1-.634.393l-22.458,12.967Z" transform="translate(-357.283 -101.762)" fill="#848786"/>
          <path id="Trazado_106130" data-name="Trazado 106130" d="M405.367,291.147c.015,5.511-4.162,12.437-9.466,15.828a31.009,31.009,0,0,1-3.709.334l1.62-.937c5.595-3.233,10.117-10.495,10.1-16.218l-.3-104.9a6.461,6.461,0,0,0-1.6-4.659c1.88.8,3.058,2.757,3.066,5.657Z" transform="translate(-335.584 -161.527)" fill="#848786"/>
          <path id="Trazado_106131" data-name="Trazado 106131" d="M404.614,174.373a3.677,3.677,0,0,0-.459-.165,4.2,4.2,0,0,0-.48-.127,2.538,2.538,0,0,0-.489-.082,4.237,4.237,0,0,0-.467-.053H402.7a7.358,7.358,0,0,0-1.834.146,9.764,9.764,0,0,0-1.024.26c-.095.032-.2.063-.294.095-.133.051-.277.1-.417.156-.2.074-.414.167-.609.26a12.929,12.929,0,0,0-1.153.592l-5.866-3.411c2.163-1.248,4.967-2.089,7.372-1Z" transform="translate(-336.204 -170.541)" fill="#757575"/>
          <path id="Trazado_106132" data-name="Trazado 106132" d="M398.4,172.534a3.656,3.656,0,0,0-.48-.127A4.2,4.2,0,0,1,398.4,172.534Z" transform="translate(-330.448 -168.868)" fill="#bdbdbd"/>
          <path id="Trazado_106133" data-name="Trazado 106133" d="M398.149,172.446c-.163-.028-.323-.061-.489-.082A2.538,2.538,0,0,1,398.149,172.446Z" transform="translate(-330.679 -168.906)" fill="#bdbdbd"/>
          <path id="Trazado_106134" data-name="Trazado 106134" d="M397.881,172.389c-.154-.023-.309-.04-.467-.053A4.237,4.237,0,0,1,397.881,172.389Z" transform="translate(-330.9 -168.931)" fill="#bdbdbd"/>
          <path id="Trazado_106135" data-name="Trazado 106135" d="M398.271,172.34a8.388,8.388,0,0,0-1.834.146A7.359,7.359,0,0,1,398.271,172.34Z" transform="translate(-331.776 -168.936)" fill="#bdbdbd"/>
          <path id="Trazado_106136" data-name="Trazado 106136" d="M396.036,172.55c-.095.032-.2.063-.294.095C395.839,172.613,395.941,172.582,396.036,172.55Z" transform="translate(-332.4 -168.739)" fill="#bdbdbd"/>
          <path id="Trazado_106137" data-name="Trazado 106137" d="M409.317,178.862a1.9,1.9,0,0,1-.861,1.495L373.85,200.341a.44.44,0,0,1-.176.072.728.728,0,0,1-.04-.279,1.922,1.922,0,0,1,.875-1.5l34.6-19.973a.967.967,0,0,1,.165-.083A.87.87,0,0,1,409.317,178.862Z" transform="translate(-352.233 -163.331)" fill="#0077ec"/>
          <path id="Trazado_106138" data-name="Trazado 106138" d="M388.389,257.565a9.233,9.233,0,0,1-1.81,5.092,4.6,4.6,0,0,1-4.356-3.407,10.772,10.772,0,0,1-.2-1.093,8.55,8.55,0,0,1,2.736-2.692,3.855,3.855,0,0,1,1.914-.582,2.526,2.526,0,0,1,.747.112h.011A3.261,3.261,0,0,1,388.389,257.565Z" transform="translate(-344.706 -94.878)" fill="#e0e0e0"/>
          <path id="Trazado_106139" data-name="Trazado 106139" d="M386.9,257.9a9.05,9.05,0,0,1-1.527,4.688,4.646,4.646,0,0,1-.947.019,9.233,9.233,0,0,0,1.81-5.092,3.261,3.261,0,0,0-.956-2.571C386.265,255.287,386.9,256.327,386.9,257.9Z" transform="translate(-342.552 -94.825)" fill="#e0e0e0"/>
          <path id="Trazado_106140" data-name="Trazado 106140" d="M411.744,174.744l-15.638,9.025-.926-1.592c.673-.372.757-.975.188-1.328a2.448,2.448,0,0,0-2.261.051l-16.761,9.5-.871-1.52,30.4-17.55Z" transform="translate(-350.581 -169.831)" fill="#919191"/>
          <path id="Trazado_106141" data-name="Trazado 106141" d="M387.821,258.971a8.625,8.625,0,0,1-2.766,2.755,3.932,3.932,0,0,1-1.924.592,2.147,2.147,0,0,1-1.436-.507,2.318,2.318,0,0,0,.77.125,3.946,3.946,0,0,0,1.924-.592,8.28,8.28,0,0,0,2.485-2.354A4.648,4.648,0,0,0,387.821,258.971Z" transform="translate(-345.001 -91.211)" fill="#d1d1d1"/>
          <path id="Trazado_106142" data-name="Trazado 106142" d="M382,257.142a7.8,7.8,0,0,1,2.121-1.871,3.933,3.933,0,0,1,1.926-.592,2.061,2.061,0,0,1,1.4.5,2.526,2.526,0,0,0-.747-.112,3.854,3.854,0,0,0-1.914.582,8.551,8.551,0,0,0-2.736,2.692A6.432,6.432,0,0,1,382,257.142Z" transform="translate(-344.734 -95.06)" fill="#fff"/>
          <path id="Trazado_106143" data-name="Trazado 106143" d="M406.347,262.439l-21.158,12.214-.385-.664a8.625,8.625,0,0,0,2.766-2.755,9.05,9.05,0,0,0,1.527-4.688c0-1.571-.634-2.61-1.62-2.956h-.011a2.06,2.06,0,0,0-1.4-.5,3.933,3.933,0,0,0-1.926.592,7.8,7.8,0,0,0-2.121,1.871,2.28,2.28,0,0,1,.768-1.871l-.81-1.4,22.458-12.967a7.325,7.325,0,0,0,.634-.393,45.2,45.2,0,0,0,12.187-3.62C416.476,251.885,411.887,259.234,406.347,262.439Z" transform="translate(-344.75 -103.473)" fill="#979797"/>
          <path id="Trazado_106144" data-name="Trazado 106144" d="M399.861,266.623l-23.1,13.342c-2.62,1.516-5.716,2.174-8.381.415-.008,0-.008-.009-.019-.009a.01.01,0,0,1-.009-.011c-.165-.135-.332-.281-.491-.436a7.293,7.293,0,0,1-1.941-3.745c-.053-.239-.095-.465-.129-.7-.009-.087-.019-.161-.032-.233-.028-.239-.047-.478-.072-.7v-.053c-.017-.288-.028-.573-.028-.856l-.032-11.809h1.77a4.928,4.928,0,0,0,1.736,2.453,4.147,4.147,0,0,0,.987.6c.116.106.226.207.353.315a1.014,1.014,0,0,1,.114.078,5.067,5.067,0,0,0,4.284.835,10.865,10.865,0,0,0,2.6-.852c.395-.19.78-.385,1.123-.586l18.06-10.415.81,1.4a2.28,2.28,0,0,0-.768,1.871,10.681,10.681,0,0,0-.914,1.332,8.778,8.778,0,0,0-1.258,4.244c0,1.558.624,2.586,1.6,2.942a2.147,2.147,0,0,0,1.436.507,3.932,3.932,0,0,0,1.924-.592Z" transform="translate(-359.422 -95.444)" fill="#979797"/>
          <path id="Trazado_106145" data-name="Trazado 106145" d="M382.966,257.7a4.6,4.6,0,0,0,4.356,3.407,8.28,8.28,0,0,1-2.485,2.354,3.947,3.947,0,0,1-1.924.592,2.317,2.317,0,0,1-.77-.125,3.313,3.313,0,0,1-.947-2.571,8.831,8.831,0,0,1,1.256-4.231c.108-.176.211-.353.315-.52A10.773,10.773,0,0,0,382.966,257.7Z" transform="translate(-345.449 -93.33)" fill="#d1d1d1"/>
          <path id="Trazado_106146" data-name="Trazado 106146" d="M383.075,257.175c-.1.167-.207.343-.315.52a8.831,8.831,0,0,0-1.256,4.231,3.313,3.313,0,0,0,.947,2.571c-.975-.357-1.6-1.385-1.6-2.942a8.778,8.778,0,0,1,1.258-4.244,10.677,10.677,0,0,1,.914-1.332A6.43,6.43,0,0,0,383.075,257.175Z" transform="translate(-345.757 -93.896)" fill="#fff"/>
          <path id="Trazado_106147" data-name="Trazado 106147" d="M395.226,176.468c.569.353.486.956-.188,1.328l-16.761,9.514a2.444,2.444,0,0,1-2.258.042.687.687,0,0,1-.387-.571.946.946,0,0,1,.571-.759l16.761-9.5A2.448,2.448,0,0,1,395.226,176.468Z" transform="translate(-350.439 -165.451)" fill="#424242"/>
          <path id="Trazado_106148" data-name="Trazado 106148" d="M409.258,178.6c.4-.135.7.093.7.582a1.917,1.917,0,0,1-.863,1.5l-34.6,19.975c-.385.228-.717.125-.835-.22a.44.44,0,0,0,.176-.072l34.605-19.984a1.9,1.9,0,0,0,.861-1.495A.87.87,0,0,0,409.258,178.6Z" transform="translate(-352.214 -163.349)" fill="#004080"/>
          <path id="Trazado_106149" data-name="Trazado 106149" d="M409.417,178.82l-34.6,19.973a1.922,1.922,0,0,0-.875,1.5.728.728,0,0,0,.04.279c-.4.137-.685-.093-.685-.571a1.905,1.905,0,0,1,.861-1.5l34.605-19.984c.385-.218.706-.116.821.218A.965.965,0,0,0,409.417,178.82Z" transform="translate(-352.538 -163.488)" fill="#004080"/>
          <path id="Trazado_106150" data-name="Trazado 106150" d="M371.863,260.328a11.181,11.181,0,0,0,1.123-.586C372.643,259.943,372.258,260.138,371.863,260.328Z" transform="translate(-353.822 -90.519)" fill="#94d9fa"/>
          <path id="Trazado_106151" data-name="Trazado 106151" d="M368.85,260.436a5.651,5.651,0,0,0,3.667.459,5.067,5.067,0,0,1-4.284-.835A4.41,4.41,0,0,0,368.85,260.436Z" transform="translate(-357.077 -90.234)" fill="#94d9fa"/>
          <path id="Trazado_106152" data-name="Trazado 106152" d="M370.6,196.727a27.519,27.519,0,0,0-1.926,3.284,21.193,21.193,0,0,0-.945,2.328,16.6,16.6,0,0,0-.77,3.889A18.558,18.558,0,0,1,370.6,196.727Z" transform="translate(-358.222 -147.05)" fill="#94d9fa"/>
          <path id="Trazado_106153" data-name="Trazado 106153" d="M368.341,260.168c-.127-.108-.237-.209-.353-.315a.045.045,0,0,1,.032.009C368.125,259.969,368.225,260.06,368.341,260.168Z" transform="translate(-357.298 -90.42)" fill="#94d9fa"/>
          <path id="Trazado_106154" data-name="Trazado 106154" d="M368.113,259.966a.045.045,0,0,0-.032-.009,1.455,1.455,0,0,1-.2-.218A1.292,1.292,0,0,0,368.113,259.966Z" transform="translate(-357.39 -90.523)" fill="#94d9fa"/>
          <path id="Trazado_106155" data-name="Trazado 106155" d="M367.282,258.631a5.491,5.491,0,0,0,1.144,2.1A5.249,5.249,0,0,1,367.282,258.631Z" transform="translate(-357.931 -91.516)" fill="#94d9fa"/>
          <path id="Trazado_106156" data-name="Trazado 106156" d="M367.357,258.925a3.372,3.372,0,0,1-.159-.622A5.866,5.866,0,0,0,367.357,258.925Z" transform="translate(-358.007 -91.81)" fill="#94d9fa"/>
          <path id="Trazado_106157" data-name="Trazado 106157" d="M365.775,265.81a7.293,7.293,0,0,0,1.941,3.745c.159.156.326.3.491.436A6.451,6.451,0,0,1,365.775,265.81Z" transform="translate(-359.283 -85.076)" fill="#bdbdbd"/>
          <path id="Trazado_106158" data-name="Trazado 106158" d="M367.5,270.778a13.1,13.1,0,0,1-2.863-1.882,8.812,8.812,0,0,1-2.089-6.221l5.854,3.4c0,.271.011.567.028.856v.053c.025.226.044.465.072.7.013.072.023.146.032.233.034.228.076.463.129.7A6.451,6.451,0,0,0,371.1,272.8a.01.01,0,0,0,.009.011c.011,0,.011.009.019.009a3.233,3.233,0,0,0,.512.353C370.255,272.375,368.885,271.576,367.5,270.778Z" transform="translate(-362.175 -87.888)" fill="#545454"/>
          <path id="Trazado_106159" data-name="Trazado 106159" d="M365.707,265.44c.034.237.076.463.129.7C365.783,265.9,365.741,265.668,365.707,265.44Z" transform="translate(-359.344 -85.408)" fill="#bdbdbd"/>
          <path id="Trazado_106160" data-name="Trazado 106160" d="M365.652,264.946c.025.226.044.465.072.7C365.7,265.411,365.677,265.172,365.652,264.946Z" transform="translate(-359.393 -85.851)" fill="#bdbdbd"/>
          <path id="Trazado_106161" data-name="Trazado 106161" d="M365.637,264.467c0,.283.011.567.028.856C365.648,265.034,365.637,264.738,365.637,264.467Z" transform="translate(-359.407 -86.28)" fill="#bdbdbd"/>
          <path id="Trazado_106162" data-name="Trazado 106162" d="M366.8,192.89a21.309,21.309,0,0,0-1.353,6.714A20.206,20.206,0,0,1,366.8,192.89Z" transform="translate(-359.574 -150.492)" fill="#919191"/>
          <path id="Trazado_106163" data-name="Trazado 106163" d="M365.456,196.539c0,.095-.011.176-.011.271,0-.127,0-.249.011-.376Z" transform="translate(-359.579 -147.312)" fill="#919191"/>
          <path id="Trazado_106164" data-name="Trazado 106164" d="M366.014,202.351v28.512a2.138,2.138,0,0,1-1.33,1.85,1.285,1.285,0,0,0,.3-.9V203.484a1.9,1.9,0,0,0-1.062-1.778.742.742,0,0,0-.541.023c.535-.594,1.3-1.051,1.6-.958A1.605,1.605,0,0,1,366.014,202.351Z" transform="translate(-361.429 -143.433)" fill="#bdbdbd"/>
          <path id="Trazado_106165" data-name="Trazado 106165" d="M365.745,235.3v3.971a2.167,2.167,0,0,1-1.353,1.869,1.24,1.24,0,0,0,.324-.912V222.29a1.914,1.914,0,0,0-1.061-1.776.72.72,0,0,0-.552.028c.529-.594,1.311-1.059,1.613-.956a1.6,1.6,0,0,1,1.028,1.582V235.3Z" transform="translate(-361.679 -126.555)" fill="#bdbdbd"/>
          <path id="Trazado_106166" data-name="Trazado 106166" d="M365.231,203.054v28.333a1.285,1.285,0,0,1-.3.9h-.008a.68.68,0,0,1-.753.188,1.9,1.9,0,0,1-1.059-1.779V202.36a1.74,1.74,0,0,1,.518-1.06.742.742,0,0,1,.541-.023A1.9,1.9,0,0,1,365.231,203.054Z" transform="translate(-361.674 -143.004)" fill="#d1d1d1"/>
          <path id="Trazado_106167" data-name="Trazado 106167" d="M362.837,234.613V221.17a1.773,1.773,0,0,1,.507-1.053.72.72,0,0,1,.552-.028,1.914,1.914,0,0,1,1.061,1.776V239.8a1.24,1.24,0,0,1-.324.913.668.668,0,0,1-.736.169,1.889,1.889,0,0,1-1.059-1.78Z" transform="translate(-361.919 -126.129)" fill="#d1d1d1"/>
          <path id="Trazado_106168" data-name="Trazado 106168" d="M363.11,202.33a1.105,1.105,0,0,1,.518-1.06A1.74,1.74,0,0,0,363.11,202.33Z" transform="translate(-361.674 -142.975)" fill="#828282"/>
          <path id="Trazado_106169" data-name="Trazado 106169" d="M362.48,236.4l-.127-41.528,5.866,3.411.032,9.347h-1.313a1.605,1.605,0,0,0-1.028-1.58c-.3-.093-1.068.364-1.6.958a1.105,1.105,0,0,0-.518,1.06V236.4Z" transform="translate(-362.353 -148.713)" fill="#636363"/>
          <path id="Trazado_106170" data-name="Trazado 106170" d="M363.344,220.084a1.773,1.773,0,0,0-.507,1.053A1.117,1.117,0,0,1,363.344,220.084Z" transform="translate(-361.919 -126.097)" fill="#828282"/>
          <path id="Trazado_106171" data-name="Trazado 106171" d="M362.669,317.467l-.248-87.1h1.309a1.9,1.9,0,0,0,1.059,1.779.681.681,0,0,0,.753-.188h.008a2.138,2.138,0,0,0,1.33-1.85V201.6h1.313l.3,107.46.032,11.809Zm.543-76.639v14.826a1.889,1.889,0,0,0,1.059,1.779.668.668,0,0,0,.736-.169,2.167,2.167,0,0,0,1.353-1.869v-18.1a1.6,1.6,0,0,0-1.028-1.582c-.3-.1-1.083.362-1.613.956a1.117,1.117,0,0,0-.507,1.053Z" transform="translate(-362.293 -142.68)" fill="#636363"/>
        </g>
      </g>
      <g id="Grupo_57461" data-name="Grupo 57461" transform="translate(397.833 212.093)">
        <g id="Grupo_57460" data-name="Grupo 57460">
          <path id="Trazado_106172" data-name="Trazado 106172" d="M391.719,199.723V273a14.994,14.994,0,0,1-4.506,9.931,4.059,4.059,0,0,1-2.476,1.184c-1.226,0-2.043-1.148-2.043-3.235V207.6a15,15,0,0,1,4.519-9.928,3.95,3.95,0,0,1,2.476-1.182C390.92,196.494,391.719,197.636,391.719,199.723Z" transform="translate(-379.585 -188.811)" fill="#424242"/>
          <path id="Trazado_106173" data-name="Trazado 106173" d="M388.683,286.569a14.994,14.994,0,0,0,4.506-9.931V203.356c0-2.087-.8-3.229-2.03-3.229a3.95,3.95,0,0,0-2.476,1.182,15,15,0,0,0-4.519,9.928v73.281c0,2.087.818,3.235,2.043,3.235A4.059,4.059,0,0,0,388.683,286.569Zm7.634-90.321v86.064c0,3.878-3.424,9.121-7.634,11.663a8.229,8.229,0,0,1-4.175,1.4c-2.077,0-3.453-1.341-3.453-3.8V205.506c0-3.9,3.422-9.123,7.628-11.684a8.269,8.269,0,0,1,4.181-1.377C394.936,192.444,396.317,193.787,396.317,196.248Z" transform="translate(-381.055 -192.444)" fill="#03e6b0"/>
        </g>
      </g>
      <g id="Grupo_57463" data-name="Grupo 57463" transform="translate(411.484 310.74)">
        <g id="Grupo_57462" data-name="Grupo 57462">
          <path id="Trazado_106174" data-name="Trazado 106174" d="M449.815,266.367c1.18,1.869.165,7.069.165,7.069l-29.7,17.14-.074-.044v-7.158l.074.042Z" transform="translate(-359.58 -224.775)" fill="#05c194"/>
          <path id="Trazado_106175" data-name="Trazado 106175" d="M419.573,246.09v7.158s-2.034,1.18-5.276,3.049l-6.037-3.677C414.806,248.839,419.573,246.09,419.573,246.09Z" transform="translate(-370.3 -242.965)" fill="#05c194"/>
          <path id="Trazado_106176" data-name="Trazado 106176" d="M398.609,257.93l50.273,33.013V298.1l-50.273-33.013c-6.069,3.513-10.358,5.993-10.358,5.993s.091-3.049.18-7.264C389.3,263.31,393.273,261.022,398.609,257.93Z" transform="translate(-388.251 -232.344)" fill="#05c194"/>
          <path id="Trazado_106177" data-name="Trazado 106177" d="M432.249,257.774l45.61,27.692a1.415,1.415,0,0,1,.33.2,1.2,1.2,0,0,1,.3.374l-29.53,17.049-.074-.042-50.273-33.013c-5.337,3.092-9.311,5.38-10.178,5.887-.121.074-.18.106-.18.106l.882-31.579,48.391,3.125s-4.767,2.749-11.312,6.53Z" transform="translate(-388.251 -244.443)" fill="#03e6b0"/>
        </g>
      </g>
      <g id="Grupo_57466" data-name="Grupo 57466" transform="translate(404.93 239.766)">
        <g id="Grupo_57464" data-name="Grupo 57464" transform="translate(0.88)">
          <path id="Trazado_106178" data-name="Trazado 106178" d="M397.46,211.288l-.358-.659-3.7-2.136,2.147,3.761Z" transform="translate(-377.954 -205.719)" fill="#69480f"/>
          <path id="Trazado_106179" data-name="Trazado 106179" d="M400.963,218.881l-.985-2.593-2.493.273c.3.761,1.965,1.641,2.332,2.586Z" transform="translate(-374.292 -198.727)" fill="#69480f"/>
          <path id="Trazado_106180" data-name="Trazado 106180" d="M401.785,221.07l-1.068-2.812-2.472.271c.347.9,2.121,1.912,2.493,2.87Z" transform="translate(-373.611 -196.959)" fill="#69480f"/>
          <path id="Trazado_106181" data-name="Trazado 106181" d="M402.645,229.17l1.876-.816-1.281-3.371-2.406.266c.446,1.169.723,1.882.723,1.882Z" transform="translate(-371.288 -190.926)" fill="#69480f"/>
          <path id="Trazado_106182" data-name="Trazado 106182" d="M398.943,214.411l-1.137-2.118-2.136.635,1.082,2.135Z" transform="translate(-375.921 -202.311)" fill="#69480f"/>
          <path id="Trazado_106183" data-name="Trazado 106183" d="M397.9,217.469h1.451l1.045-.264-.241-.635-1.387-2.574-2.227.662,1.15,2.275C397.753,217.1,397.825,217.275,397.9,217.469Z" transform="translate(-375.142 -200.784)" fill="#69480f"/>
          <path id="Trazado_106184" data-name="Trazado 106184" d="M391.624,207.57l-1.531-.539s-.939.095-.82.514c.332,1.18,1.984,3.692,1.933,4.31l1.326.26Z" transform="translate(-381.669 -207.031)" fill="#69480f"/>
          <path id="Trazado_106185" data-name="Trazado 106185" d="M402.746,223.612l-1.246-3.271-2.453.273c.425,1.1,2.373,2.252,2.777,3.309Z" transform="translate(-372.892 -195.091)" fill="#69480f"/>
          <path id="Trazado_106186" data-name="Trazado 106186" d="M415.27,261.876v11.056l24.051,14.317V275.761l6.553,3.785v11.6l1.06.63.23-21.3.023-2.053-27.994-18.571-2.576-4.822-1.087-2.039s-.277-.713-.723-1.882c-.137-.347-.285-.73-.448-1.15-.36-.941-.785-2.047-1.246-3.24-.144-.378-.29-.761-.442-1.15-.406-1.057-.831-2.155-1.256-3.259-.146-.383-.292-.766-.442-1.15-.37-.958-.732-1.9-1.079-2.8-.154-.395-.3-.778-.442-1.15-.366-.945-.7-1.825-1-2.586-.157-.419-.309-.808-.438-1.15-.072-.194-.144-.372-.209-.537l-1.15-2.275-.567-1.121-1.081-2.136-.564-1.119-.846-1.668-.116-.2-.626-1.089-2.148-3.76-1.292-2.261s-.692.254-.7.632c0,.247.3.715.3,1.053-.023,1.364.321,3.047.254,3.515l-.165-.032-.981-.2-1.191-.237-.81-.165-1.326-.26-2.17,2.206-6.518-.336-.85.378,1.2,7.431L390,224.465l2.309-.867,3.3,1.933,5.094,3.821,5.105,28.817.588,9.489,2.313,1.375V258.091Zm-28.286-45.557v-1.537l1.825,1.444Zm8.524,1.4,0-2.1,2.273.973.332,1.25Z" transform="translate(-385.26 -206.788)" fill="#69480f"/>
          <path id="Trazado_106187" data-name="Trazado 106187" d="M403.609,225.923l-1.233-3.257-2.434.271c.461,1.193,2.428,2.369,2.789,3.307Z" transform="translate(-372.089 -193.005)" fill="#69480f"/>
          <path id="Trazado_106188" data-name="Trazado 106188" d="M425.558,277.236l-3.179-32.084-3.855-4.538-.023-.011-.23,21.3-1.06-.63.431,12.21.964-.262,1.436-16.839.37,18.7.909-.29.066-18.191,1.178,19.717.945-.266-1.032-18.817s1.624,15.958,2.053,20.221Z" transform="translate(-356.597 -176.913)" fill="#69480f"/>
          <path id="Trazado_106189" data-name="Trazado 106189" d="M393.65,208.276l-1.1-.387-.88.309,1.694,3.745.165.032C393.592,211.507,393.629,209.644,393.65,208.276Z" transform="translate(-379.513 -206.261)" fill="#69480f"/>
          <path id="Trazado_106190" data-name="Trazado 106190" d="M392.509,207.9l-1.225-.433-.706.371,1.586,4.043,1.191.236Z" transform="translate(-380.489 -206.636)" fill="#69480f"/>
          <path id="Trazado_106191" data-name="Trazado 106191" d="M395.773,213.374l2.1-.621-1.188-2.206-1.23.488-.53.672Z" transform="translate(-376.588 -203.877)" fill="#69480f"/>
          <path id="Trazado_106192" data-name="Trazado 106192" d="M407.817,256.9a14.631,14.631,0,0,0-2.3-4.4,11.479,11.479,0,0,0-3.278-2.994,5.1,5.1,0,0,0-3.276-.793,3.057,3.057,0,0,0-2.3,1.749,5.726,5.726,0,0,0-.531,2.572,10.515,10.515,0,0,0,.527,3.178,13.611,13.611,0,0,0,5.581,7.4c2.487,1.434,4.631.954,5.579-.962a5.711,5.711,0,0,0,.529-2.569A10.614,10.614,0,0,0,407.817,256.9Zm-5.577,3.014a5.344,5.344,0,0,1-1.5-1.347,6.325,6.325,0,0,1-1.408-3.69c0-1.218.563-1.967,1.413-2.062a2.43,2.43,0,0,1,1.493.385,5.279,5.279,0,0,1,1.495,1.341,6.353,6.353,0,0,1,1.415,3.7c0,1.22-.565,1.962-1.411,2.056A2.486,2.486,0,0,1,402.24,259.913Z" transform="translate(-375.508 -169.678)" fill="#69480f"/>
          <path id="Trazado_106193" data-name="Trazado 106193" d="M415.1,258.024a3.064,3.064,0,0,0-2.3,1.749,5.75,5.75,0,0,0-.533,2.571,10.589,10.589,0,0,0,.529,3.178,13.577,13.577,0,0,0,5.579,7.4c2.489,1.436,4.633.958,5.581-.958a5.731,5.731,0,0,0,.529-2.571,10.688,10.688,0,0,0-.531-3.181,14.6,14.6,0,0,0-2.3-4.4,11.357,11.357,0,0,0-3.28-2.994A5.075,5.075,0,0,0,415.1,258.024Zm6.185,9.527c0,1.218-.565,1.962-1.413,2.056a2.439,2.439,0,0,1-1.5-.383,5.438,5.438,0,0,1-1.5-1.343,6.348,6.348,0,0,1-1.406-3.688c0-1.222.565-1.969,1.41-2.064a2.463,2.463,0,0,1,1.495.378,5.416,5.416,0,0,1,1.495,1.347A6.348,6.348,0,0,1,421.283,267.551Z" transform="translate(-361.036 -161.323)" fill="#69480f"/>
          <path id="Trazado_106194" data-name="Trazado 106194" d="M419.2,269.306l1.03-.192v-5.752l-1.808-1.041a10.687,10.687,0,0,1,.531,3.181C418.954,266.527,419.2,268.659,419.2,269.306Z" transform="translate(-355.509 -157.43)" fill="#69480f"/>
          <path id="Trazado_106195" data-name="Trazado 106195" d="M421.74,264.236l-19.449-11.229a10.616,10.616,0,0,1,.531,3.183,5.711,5.711,0,0,1-.529,2.569l19.443,11.225a10.589,10.589,0,0,1-.529-3.178A5.749,5.749,0,0,1,421.74,264.236Z" transform="translate(-369.981 -165.786)" fill="#69480f"/>
          <path id="Trazado_106196" data-name="Trazado 106196" d="M397.819,250.178l-2.074-1.2-.9.313.9,5.439,2.07,1.2a10.515,10.515,0,0,1-.527-3.178A5.726,5.726,0,0,1,397.819,250.178Z" transform="translate(-376.664 -169.398)" fill="#69480f"/>
          <path id="Trazado_106197" data-name="Trazado 106197" d="M420.31,247.173l-6.553-3.785v27.728a5.075,5.075,0,0,1,3.273.795,11.356,11.356,0,0,1,3.28,2.994V247.173Z" transform="translate(-359.695 -174.415)" fill="#69480f"/>
          <path id="Trazado_106198" data-name="Trazado 106198" d="M404.179,265.589v-27.73l-6.555-3.785V261.8a5.1,5.1,0,0,1,3.276.793A11.48,11.48,0,0,1,404.179,265.589Z" transform="translate(-374.168 -182.771)" fill="#69480f"/>
        </g>
        <g id="Grupo_57465" data-name="Grupo 57465" transform="translate(0 0.309)">
          <path id="Trazado_106199" data-name="Trazado 106199" d="M397,211.453l-.358-.66-3.7-2.137,2.149,3.762Z" transform="translate(-377.49 -205.882)" fill="#785311"/>
          <path id="Trazado_106200" data-name="Trazado 106200" d="M400.5,219.043l-.985-2.591-2.495.271c.3.763.632,1.641,1,2.586Z" transform="translate(-373.828 -198.889)" fill="#785311"/>
          <path id="Trazado_106201" data-name="Trazado 106201" d="M401.321,221.234l-1.068-2.812-2.472.271c.347.9.711,1.846,1.083,2.8Z" transform="translate(-373.147 -197.121)" fill="#785311"/>
          <path id="Trazado_106202" data-name="Trazado 106202" d="M402.183,229.333l1.874-.816-1.279-3.371-2.407.269.723,1.88Z" transform="translate(-370.824 -191.089)" fill="#785311"/>
          <path id="Trazado_106203" data-name="Trazado 106203" d="M398.481,214.575l-1.141-2.118-2.134.636,1.082,2.134Z" transform="translate(-375.457 -202.473)" fill="#785311"/>
          <path id="Trazado_106204" data-name="Trazado 106204" d="M397.431,217.63l.063,0,2.438-.26-.245-.634L398.3,214.16l-2.225.658,1.15,2.277C397.288,217.258,397.358,217.438,397.431,217.63Z" transform="translate(-374.677 -200.945)" fill="#785311"/>
          <path id="Trazado_106205" data-name="Trazado 106205" d="M390.768,207.737l-1.531-.543a31.263,31.263,0,0,1,1.114,4.824l1.326.264Z" transform="translate(-380.812 -207.194)" fill="#785311"/>
          <path id="Trazado_106206" data-name="Trazado 106206" d="M402.28,223.776l-1.243-3.273-2.453.275c.427,1.1.85,2.2,1.256,3.257Z" transform="translate(-372.427 -195.254)" fill="#785311"/>
          <path id="Trazado_106207" data-name="Trazado 106207" d="M414.806,262.039V273.1l24.051,14.317V275.926l6.554,3.787v11.6l1.062.63.226-21.3.021-2.051-27.99-18.569-2.576-4.826-1.089-2.037-.723-1.88c-.137-.349-.281-.734-.446-1.153-.362-.939-.787-2.045-1.248-3.24-.144-.376-.292-.759-.44-1.15-.406-1.055-.829-2.153-1.256-3.257-.146-.383-.294-.766-.44-1.15-.372-.958-.736-1.9-1.083-2.8-.152-.4-.3-.778-.44-1.152-.368-.945-.7-1.823-1-2.586-.157-.417-.309-.808-.44-1.15-.072-.192-.142-.372-.2-.535l-1.15-2.277-.569-1.119-1.081-2.134-.565-1.121-.846-1.668-.114-.2-.626-1.091-2.149-3.762-1.29-2.261s-.009.655-.019,1.5c-.023,1.364-.059,3.229-.123,3.7l-.167-.032-.983-.2-1.19-.235-.812-.163-1.326-.264-2.168,2.206-6.52-.334-.85,3.056,1.2,4.75,3.546,3.178,2.309-.871,3.3,1.933,5.092,3.821,5.107,28.819.59,9.486,2.313,1.379V258.256ZM386.52,216.486l0-1.539,1.823,1.444Zm8.526,1.4v-2.1l2.273.973.33,1.25Z" transform="translate(-384.796 -206.951)" fill="#ad7719"/>
          <path id="Trazado_106208" data-name="Trazado 106208" d="M403.147,226.085l-1.235-3.255-2.434.269c.461,1.2.886,2.3,1.248,3.24Z" transform="translate(-371.625 -193.167)" fill="#785311"/>
          <path id="Trazado_106209" data-name="Trazado 106209" d="M425.093,277.4l-3.18-32.082-3.857-4.538-.021-.011-.226,21.3-1.062-.63V272.58l1.394.806,1.436-16.835v17.662l1.279.74.063-18.187,1.032,18.821,1.093.63L422.013,257.4s1.652,15.165,2.083,19.428Z" transform="translate(-356.132 -177.076)" fill="#785311"/>
          <path id="Trazado_106210" data-name="Trazado 106210" d="M392.772,208.443l-1.106-.391.816,4.056.167.032C392.713,211.672,392.749,209.807,392.772,208.443Z" transform="translate(-378.633 -206.424)" fill="#785311"/>
          <path id="Trazado_106211" data-name="Trazado 106211" d="M391.71,208.067l-1.223-.433.88,4.416,1.189.235Z" transform="translate(-379.69 -206.799)" fill="#785311"/>
          <path id="Trazado_106212" data-name="Trazado 106212" d="M395.362,213.537l2.1-.621-1.188-2.206-1.875.956.113.2Z" transform="translate(-376.178 -204.039)" fill="#785311"/>
          <path id="Trazado_106213" data-name="Trazado 106213" d="M407.352,257.063a14.65,14.65,0,0,0-2.3-4.4,11.434,11.434,0,0,0-3.278-3,5.069,5.069,0,0,0-3.274-.795,3.079,3.079,0,0,0-2.3,1.751,5.786,5.786,0,0,0-.533,2.571,10.706,10.706,0,0,0,.527,3.18,13.6,13.6,0,0,0,5.583,7.4c2.487,1.436,4.633.958,5.579-.962a5.705,5.705,0,0,0,.529-2.565A10.6,10.6,0,0,0,407.352,257.063Zm-5.576,3.015a5.315,5.315,0,0,1-1.5-1.347,6.333,6.333,0,0,1-1.408-3.686c0-1.22.565-1.969,1.411-2.062a2.413,2.413,0,0,1,1.495.381,5.279,5.279,0,0,1,1.493,1.343,6.324,6.324,0,0,1,1.417,3.7c0,1.22-.565,1.962-1.411,2.06A2.466,2.466,0,0,1,401.777,260.077Z" transform="translate(-375.044 -169.841)" fill="#785311"/>
          <path id="Trazado_106214" data-name="Trazado 106214" d="M414.633,258.184a3.073,3.073,0,0,0-2.3,1.755,5.675,5.675,0,0,0-.533,2.567,10.606,10.606,0,0,0,.527,3.18,13.586,13.586,0,0,0,5.581,7.4c2.489,1.436,4.631.956,5.581-.958a5.725,5.725,0,0,0,.529-2.571,10.705,10.705,0,0,0-.533-3.185,14.632,14.632,0,0,0-2.3-4.4,11.517,11.517,0,0,0-3.28-3A5.114,5.114,0,0,0,414.633,258.184Zm6.185,9.529c0,1.22-.565,1.965-1.412,2.056a2.446,2.446,0,0,1-1.5-.379,5.387,5.387,0,0,1-1.5-1.351A6.3,6.3,0,0,1,415,264.356c0-1.22.565-1.967,1.411-2.062a2.411,2.411,0,0,1,1.495.379,5.393,5.393,0,0,1,1.5,1.347A6.34,6.34,0,0,1,420.818,267.714Z" transform="translate(-360.571 -161.485)" fill="#785311"/>
          <path id="Trazado_106215" data-name="Trazado 106215" d="M417.963,268.239l1.8,1.04V263.53l-1.806-1.047a10.7,10.7,0,0,1,.533,3.185A5.725,5.725,0,0,1,417.963,268.239Z" transform="translate(-355.045 -157.594)" fill="#ad7719"/>
          <path id="Trazado_106216" data-name="Trazado 106216" d="M421.279,264.4,401.826,253.17a10.6,10.6,0,0,1,.533,3.187,5.705,5.705,0,0,1-.529,2.565l19.443,11.227a10.606,10.606,0,0,1-.527-3.18A5.675,5.675,0,0,1,421.279,264.4Z" transform="translate(-369.518 -165.949)" fill="#ad7719"/>
          <path id="Trazado_106217" data-name="Trazado 106217" d="M396.928,250.341l-2.074-1.2v5.75l2.068,1.2a10.706,10.706,0,0,1-.527-3.18A5.786,5.786,0,0,1,396.928,250.341Z" transform="translate(-375.773 -169.559)" fill="#ad7719"/>
          <path id="Trazado_106218" data-name="Trazado 106218" d="M419.847,247.339l-6.554-3.787v27.724a5.114,5.114,0,0,1,3.274.795,11.516,11.516,0,0,1,3.28,3V247.339Z" transform="translate(-359.231 -174.577)" fill="#d1901e"/>
          <path id="Trazado_106219" data-name="Trazado 106219" d="M403.714,265.755V238.021l-6.553-3.783v27.726a5.069,5.069,0,0,1,3.274.795A11.433,11.433,0,0,1,403.714,265.755Z" transform="translate(-373.703 -182.933)" fill="#d1901e"/>
        </g>
      </g>
    </g>
  </g>
</svg>
