<svg xmlns="http://www.w3.org/2000/svg" width="198.667" height="223.843" viewBox="0 0 198.667 223.843">
  <g id="Grupo_57840" data-name="Grupo 57840" transform="translate(-180 -11308)">
    <path id="Trazado_101317" data-name="Trazado 101317" d="M245.718,258.976v-69.5a35.147,35.147,0,0,0-17.572-30.437l-60.19-34.751a35.15,35.15,0,0,0-35.144,0L72.623,159.038a35.144,35.144,0,0,0-17.572,30.437v69.5a35.141,35.141,0,0,0,17.572,30.435l60.188,34.751a35.141,35.141,0,0,0,35.144,0l60.19-34.751A35.144,35.144,0,0,0,245.718,258.976Z" transform="translate(124.949 11202.972)" fill="#0077ec"/>
    <g id="Grupo_54099" data-name="Grupo 54099" transform="translate(128.107 11195.531)">
      <g id="Grupo_54095" data-name="Grupo 54095" transform="translate(74.205 207.476)">
        <g id="Grupo_54092" data-name="Grupo 54092">
          <rect id="Rectángulo_5298" data-name="Rectángulo 5298" width="137.411" height="85.032" rx="5.971" fill="#004080"/>
          <g id="Grupo_54091" data-name="Grupo 54091" transform="translate(11.564 12.925)">
            <rect id="Rectángulo_5299" data-name="Rectángulo 5299" width="46.172" height="59.182" rx="3.24" fill="#52a9fe"/>
            <g id="Grupo_54089" data-name="Grupo 54089" transform="translate(8.424 9.693)">
              <path id="Trazado_101323" data-name="Trazado 101323" d="M98.067,187.8a8.761,8.761,0,1,1-8.76-8.762A8.761,8.761,0,0,1,98.067,187.8Z" transform="translate(-74.644 -179.043)" fill="#ace4ff"/>
              <path id="Trazado_101324" data-name="Trazado 101324" d="M106.529,209.383H77.205v-3.346a14.663,14.663,0,0,1,14.663-14.663h0a14.662,14.662,0,0,1,14.661,14.663Z" transform="translate(-77.205 -169.587)" fill="#ace4ff"/>
            </g>
            <g id="Grupo_54090" data-name="Grupo 54090" transform="translate(56.801 21.173)">
              <path id="Trazado_101325" data-name="Trazado 101325" d="M160.282,189.112H106.37a1.786,1.786,0,0,1-1.785-1.786h0a1.784,1.784,0,0,1,1.785-1.785h53.911a1.784,1.784,0,0,1,1.785,1.785h0A1.786,1.786,0,0,1,160.282,189.112Z" transform="translate(-104.586 -185.541)" fill="#fff"/>
              <path id="Trazado_101326" data-name="Trazado 101326" d="M134.262,193.936H106.37a1.786,1.786,0,0,1-1.785-1.786h0a1.786,1.786,0,0,1,1.785-1.786h27.891a1.787,1.787,0,0,1,1.786,1.786h0A1.787,1.787,0,0,1,134.262,193.936Z" transform="translate(-104.586 -181.843)" fill="#fff"/>
            </g>
          </g>
        </g>
        <g id="Grupo_54094" data-name="Grupo 54094" transform="translate(68.705 52.745)">
          <rect id="Rectángulo_5300" data-name="Rectángulo 5300" width="86.607" height="19.336" rx="1.783" fill="#03e6b0"/>
          <g id="Grupo_54093" data-name="Grupo 54093" transform="translate(14.306 7.315)">
            <path id="Trazado_101327" data-name="Trazado 101327" d="M117.582,202.588a2.353,2.353,0,1,1-2.353-2.353A2.354,2.354,0,0,1,117.582,202.588Z" transform="translate(-112.875 -200.235)" fill="#0045a6"/>
            <path id="Trazado_101328" data-name="Trazado 101328" d="M123.614,202.588a2.353,2.353,0,1,1-2.353-2.353A2.354,2.354,0,0,1,123.614,202.588Z" transform="translate(-108.25 -200.235)" fill="#0045a6"/>
            <path id="Trazado_101329" data-name="Trazado 101329" d="M129.648,202.588a2.354,2.354,0,1,1-2.355-2.353A2.355,2.355,0,0,1,129.648,202.588Z" transform="translate(-103.624 -200.235)" fill="#0045a6"/>
            <path id="Trazado_101330" data-name="Trazado 101330" d="M135.68,202.588a2.354,2.354,0,1,1-2.353-2.353A2.355,2.355,0,0,1,135.68,202.588Z" transform="translate(-98.998 -200.235)" fill="#0045a6"/>
            <path id="Trazado_101331" data-name="Trazado 101331" d="M141.712,202.588a2.354,2.354,0,1,1-2.353-2.353A2.355,2.355,0,0,1,141.712,202.588Z" transform="translate(-94.373 -200.235)" fill="#0045a6"/>
            <path id="Trazado_101332" data-name="Trazado 101332" d="M147.743,202.588a2.353,2.353,0,1,1-2.353-2.353A2.355,2.355,0,0,1,147.743,202.588Z" transform="translate(-89.747 -200.235)" fill="#0045a6"/>
          </g>
        </g>
      </g>
      <g id="Grupo_54098" data-name="Grupo 54098" transform="translate(170.153 112.469)">
        <g id="Grupo_54096" data-name="Grupo 54096" transform="translate(6.161)">
          <path id="Trazado_101333" data-name="Trazado 101333" d="M191.769,182.81h-9.536v-36.3a24.507,24.507,0,1,0-49.014,0v36.3h-9.536v-36.3a34.042,34.042,0,0,1,68.085,0Z" transform="translate(-123.684 -112.469)" fill="#ffc013"/>
        </g>
        <rect id="Rectángulo_5301" data-name="Rectángulo 5301" width="80.406" height="62.061" rx="2.982" transform="translate(0 57.851)" fill="#ffd947"/>
        <g id="Grupo_54097" data-name="Grupo 54097" transform="translate(32.593 70.244)">
          <path id="Trazado_101334" data-name="Trazado 101334" d="M153.865,159.837a7.611,7.611,0,1,1-7.611-7.612A7.611,7.611,0,0,1,153.865,159.837Z" transform="translate(-138.644 -152.226)" fill="#03e6b0"/>
          <path id="Trazado_101335" data-name="Trazado 101335" d="M145.153,186.2h0a5.072,5.072,0,0,1-5.073-5.073V161.608a5.072,5.072,0,0,1,5.073-5.074h0a5.072,5.072,0,0,1,5.074,5.074v19.516A5.072,5.072,0,0,1,145.153,186.2Z" transform="translate(-137.543 -148.923)" fill="#03e6b0"/>
        </g>
      </g>
    </g>
  </g>
</svg>
