<svg xmlns="http://www.w3.org/2000/svg" width="400" height="264.945" viewBox="0 0 400 264.945">
  <g id="Grupo_53905" data-name="Grupo 53905" transform="translate(-26.032 -53.109)">
    <g id="elements" transform="translate(26.032 53.109)">
      <g id="plants" transform="translate(0 180.499)">
        <g id="Grupo_53865" data-name="Grupo 53865" transform="translate(0 13.003)">
          <path id="Trazado_100666" data-name="Trazado 100666" d="M162.754,1385.533c.75,6.865,9.939,5.351,16.03,10.474s.056,12.121,14.019,13.622c8.6.924,7.994-2.677,16.544,6.165,7.528,7.785,8.931-5.053,17.353-3.022,10.866,2.621,11.691-18.771,1.685-22.932s-14.914,1.666-16.749-7.321-8.578-12.36-17.142-10.351c-10.6,2.486-9.1,11.756-14.563,6.657S161.762,1376.453,162.754,1385.533Z" transform="translate(-162.699 -1371.607)" fill="#80b2ff"/>
          <path id="Trazado_100667" data-name="Trazado 100667" d="M289.823,1470.159c-30.536-23.685-66.45-27.3-66.811-27.335-1.368-.132-1.21-1.777.158-1.645.366.036,36.991,3.8,67.9,27.771Z" transform="translate(-211.014 -1428.224)" fill="#005cea"/>
        </g>
        <g id="Grupo_53866" data-name="Grupo 53866" transform="translate(34.755)">
          <path id="Trazado_100668" data-name="Trazado 100668" d="M349.759,1305.107c-1.777,4.383,4.255,6.455,6.264,11.522s-3.342,9.378,4.59,14.818c4.885,3.35,6.935-3.024,11.592,2.747s2.388,7.434,6.5,8.96c7.178,2.661,14.726-8.5,10.044-14.257s-11.067-3.71-9.256-9.724,2.415-8.566-3.4-10.136c-7.2-1.944-12.165,2.451-13.8-2.4S352.109,1299.31,349.759,1305.107Z" transform="translate(-349.435 -1301.745)" fill="#4d93ff"/>
          <path id="Trazado_100669" data-name="Trazado 100669" d="M423.548,1385.176l1.249-1.031c-10.852-24.5-37.158-47.059-37.367-47.2-.894-.6-1.523.342-.629.94C387.007,1338.025,412.833,1360.99,423.548,1385.176Z" transform="translate(-379.493 -1330.238)" fill="#005cea"/>
        </g>
      </g>
      <g id="cloud" transform="translate(39.659 7.847)">
        <g id="Grupo_53869" data-name="Grupo 53869" transform="translate(327.561 66.937)">
          <g id="Grupo_53867" data-name="Grupo 53867">
            <path id="Trazado_100670" data-name="Trazado 100670" d="M2149.552,750.768h-13.79V733.737h13.79Zm-13.059-.731h12.328v-15.57h-12.328Z" transform="translate(-2135.762 -733.737)" fill="#80b2ff"/>
            <rect id="Rectángulo_5163" data-name="Rectángulo 5163" width="6.755" height="1.06" transform="translate(4.638 3.042)" fill="#0041a6"/>
            <rect id="Rectángulo_5164" data-name="Rectángulo 5164" width="8.753" height="1.06" transform="translate(2.64 5.532)" fill="#0041a6"/>
            <rect id="Rectángulo_5165" data-name="Rectángulo 5165" width="8.753" height="1.06" transform="translate(2.64 8.023)" fill="#0041a6"/>
            <rect id="Rectángulo_5166" data-name="Rectángulo 5166" width="8.753" height="1.06" transform="translate(2.64 10.514)" fill="#0041a6"/>
            <rect id="Rectángulo_5167" data-name="Rectángulo 5167" width="8.753" height="1.06" transform="translate(2.64 13.005)" fill="#0041a6"/>
          </g>
          <g id="Grupo_53868" data-name="Grupo 53868" transform="translate(2.456 2.364)">
            <rect id="Rectángulo_5168" data-name="Rectángulo 5168" width="13.059" height="16.301" fill="#80b2ff"/>
            <rect id="Rectángulo_5169" data-name="Rectángulo 5169" width="6.755" height="1.06" transform="translate(4.272 2.676)" fill="#005cea"/>
            <rect id="Rectángulo_5170" data-name="Rectángulo 5170" width="8.753" height="1.06" transform="translate(2.275 5.167)" fill="#005cea"/>
            <rect id="Rectángulo_5171" data-name="Rectángulo 5171" width="8.753" height="1.06" transform="translate(2.275 7.658)" fill="#005cea"/>
            <rect id="Rectángulo_5172" data-name="Rectángulo 5172" width="8.753" height="1.06" transform="translate(2.275 10.149)" fill="#005cea"/>
            <rect id="Rectángulo_5173" data-name="Rectángulo 5173" width="8.753" height="1.06" transform="translate(2.275 12.639)" fill="#005cea"/>
          </g>
        </g>
        <g id="Grupo_53870" data-name="Grupo 53870" transform="translate(266.481 20.011)">
          <rect id="Rectángulo_5174" data-name="Rectángulo 5174" width="1.218" height="0.913" fill="#97c6ff"/>
          <path id="Trazado_100671" data-name="Trazado 100671" d="M1808.8,529.241h-1.218v-1.91h1.218Zm0-3.819h-1.218v-1.91h1.218Zm0-3.82h-1.218v-1.91h1.218Zm0-3.82h-1.218v-1.91h1.218Zm0-3.819h-1.218v-1.91h1.218Zm0-3.819h-1.218v-1.91h1.218Zm0-3.82h-1.218v-1.91h1.218Zm0-3.82h-1.218v-1.91h1.218Zm0-3.819h-1.218v-1.91h1.218Z" transform="translate(-1807.582 -493.952)" fill="#97c6ff"/>
          <rect id="Rectángulo_5175" data-name="Rectángulo 5175" width="1.218" height="0.913" transform="translate(0 37.199)" fill="#97c6ff"/>
        </g>
        <g id="Grupo_53871" data-name="Grupo 53871" transform="translate(0 20.011)">
          <rect id="Rectángulo_5176" data-name="Rectángulo 5176" width="1.218" height="0.913" transform="translate(256.529)" fill="#97c6ff"/>
          <path id="Trazado_100672" data-name="Trazado 100672" d="M377,575.255h-1.218v-1.83H377Zm.023-3.615-1.215-.089a9.718,9.718,0,0,1,.337-1.919l1.173.33A8.5,8.5,0,0,0,377.028,571.64Zm.919-3.264-1.082-.559a9.764,9.764,0,0,1,1.062-1.633l.95.763A8.56,8.56,0,0,0,377.947,568.376Zm2.125-2.646-.78-.936a9.774,9.774,0,0,1,1.614-1.091l.578,1.072A8.541,8.541,0,0,0,380.072,565.73Zm2.986-1.609-.351-1.166a9.717,9.717,0,0,1,1.913-.371l.111,1.213A8.494,8.494,0,0,0,383.059,564.121Zm239.55-.361h-1.83v-1.218h1.83Zm-3.661,0h-1.83v-1.218h1.83Zm-3.661,0h-1.83v-1.218h1.83Zm-3.661,0H609.8v-1.218h1.83Zm-3.66,0h-1.83v-1.218h1.83Zm-3.661,0h-1.83v-1.218h1.83Zm-3.661,0h-1.83v-1.218h1.83Zm-3.661,0h-1.83v-1.218h1.83Zm-3.66,0h-1.83v-1.218h1.83Zm-3.66,0h-1.831v-1.218h1.831Zm-3.661,0h-1.83v-1.218H586Zm-3.661,0h-1.83v-1.218h1.83Zm-3.661,0h-1.83v-1.218h1.83Zm-3.66,0h-1.83v-1.218h1.83Zm-3.661,0h-1.83v-1.218h1.83Zm-3.661,0h-1.83v-1.218h1.83Zm-3.661,0h-1.83v-1.218h1.83Zm-3.66,0h-1.83v-1.218h1.83Zm-3.66,0h-1.83v-1.218h1.83Zm-3.661,0h-1.83v-1.218h1.83Zm-3.661,0h-1.83v-1.218h1.83Zm-3.661,0h-1.83v-1.218h1.83Zm-3.661,0h-1.83v-1.218h1.83Zm-3.661,0h-1.83v-1.218h1.83Zm-3.661,0h-1.83v-1.218h1.83Zm-3.66,0h-1.83v-1.218h1.83Zm-3.661,0H525.6v-1.218h1.83Zm-3.661,0h-1.83v-1.218h1.83Zm-3.661,0h-1.83v-1.218h1.83Zm-3.661,0h-1.83v-1.218h1.83Zm-3.661,0h-1.83v-1.218h1.83Zm-3.66,0H507.3v-1.218h1.83Zm-3.661,0h-1.83v-1.218h1.83Zm-3.661,0h-1.83v-1.218h1.83Zm-3.661,0h-1.83v-1.218h1.83Zm-3.661,0h-1.83v-1.218h1.83Zm-3.661,0H489v-1.218h1.83Zm-3.66,0h-1.83v-1.218h1.83Zm-3.661,0h-1.83v-1.218h1.83Zm-3.661,0h-1.83v-1.218h1.83Zm-3.661,0h-1.83v-1.218h1.83Zm-3.661,0H470.7v-1.218h1.83Zm-3.661,0h-1.83v-1.218h1.83Zm-3.661,0h-1.83v-1.218h1.83Zm-3.66,0h-1.83v-1.218h1.83Zm-3.661,0h-1.83v-1.218h1.83Zm-3.661,0h-1.83v-1.218h1.83Zm-3.661,0h-1.83v-1.218h1.83Zm-3.66,0h-1.83v-1.218h1.83Zm-3.661,0h-1.83v-1.218h1.83Zm-3.66,0h-1.83v-1.218h1.83Zm-3.661,0h-1.83v-1.218h1.83Zm-3.661,0h-1.83v-1.218h1.83Zm-3.66,0h-1.83v-1.218h1.83Zm-3.661,0h-1.83v-1.218h1.83Zm-3.66,0h-1.83v-1.218h1.83Zm-3.661,0h-1.83v-1.218h1.83Zm-3.661,0h-1.83v-1.218h1.83Zm-3.661,0h-1.83v-1.218h1.83Zm-3.661,0h-1.83v-1.218h1.83Zm-3.661,0h-1.83v-1.218h1.83Zm-3.661,0h-1.83v-1.218h1.83Zm-3.66,0h-1.83v-1.218h1.83Zm-3.661,0h-1.83v-1.218H392Zm-3.661,0H386.5v-1.218h1.83Zm236.145-.023-.084-1.215a8.493,8.493,0,0,0,1.68-.287l.325,1.174A9.73,9.73,0,0,1,624.48,563.738Zm3.738-1.034-.553-1.085a8.535,8.535,0,0,0,1.433-.923l.758.953A9.77,9.77,0,0,1,628.218,562.7Zm3.034-2.413-.932-.784a8.545,8.545,0,0,0,.962-1.408l1.069.583A9.752,9.752,0,0,1,631.253,560.29Zm1.855-3.406-1.165-.357a8.5,8.5,0,0,0,.333-1.672l1.212.117A9.7,9.7,0,0,1,633.108,556.884Zm.426-3.8h-1.218v-1.83h1.218Zm0-3.661h-1.218V547.6h1.218Zm0-3.661h-1.218v-1.83h1.218Zm0-3.66h-1.218v-1.83h1.218Zm0-3.66h-1.218v-1.83h1.218Zm0-3.661h-1.218v-1.83h1.218Zm0-3.661h-1.218v-1.83h1.218Zm0-3.661h-1.218v-1.83h1.218Zm0-3.66h-1.218v-1.83h1.218Zm0-3.66h-1.218v-1.83h1.218Zm0-3.661h-1.218v-1.83h1.218Zm0-3.661h-1.218v-1.83h1.218Zm0-3.661h-1.218v-1.83h1.218Zm0-3.661h-1.218v-1.83h1.218Zm0-3.66h-1.218v-1.83h1.218Zm0-3.661h-1.218v-1.83h1.218Z" transform="translate(-375.787 -493.604)" fill="#97c6ff"/>
          <rect id="Rectángulo_5177" data-name="Rectángulo 5177" width="1.218" height="0.913" transform="translate(0 83.5)" fill="#97c6ff"/>
        </g>
        <g id="Grupo_53872" data-name="Grupo 53872" transform="translate(273.806 20.011)">
          <rect id="Rectángulo_5178" data-name="Rectángulo 5178" width="1.218" height="0.913" transform="translate(0)" fill="#97c6ff"/>
          <path id="Trazado_100673" data-name="Trazado 100673" d="M1848.153,513.832h-1.218v-1.9h1.218Zm0-3.8h-1.218v-1.9h1.218Zm0-3.8h-1.218v-1.9h1.218Zm0-3.8h-1.218v-1.9h1.218Zm0-3.8h-1.218v-1.9h1.218Z" transform="translate(-1846.935 -493.912)" fill="#97c6ff"/>
          <path id="Trazado_100674" data-name="Trazado 100674" d="M1848.458,600.37h-1.523v-1.522h1.218v.3h.3Z" transform="translate(-1846.935 -577.027)" fill="#97c6ff"/>
          <path id="Trazado_100675" data-name="Trazado 100675" d="M1906.99,655.43h-1.218v-1.817h1.218Zm0-3.634h-1.218v-1.817h1.218Zm0-3.634h-1.218v-1.817h1.218Zm0-3.634h-1.218v-1.817h1.218Zm0-3.634h-1.218v-1.817h1.218Zm0-3.634h-1.218v-1.817h1.218Zm0-3.634h-1.218V631.81h1.218Zm0-3.634h-1.218v-1.817h1.218Zm0-3.634h-1.218v-1.817h1.218Zm0-3.634h-1.218v-1.817h1.218Zm0-3.634h-1.218v-1.817h1.218Zm0-3.634h-1.218v-1.817h1.218Zm0-3.634h-1.218v-1.817h1.218Zm-1.224-3.609a6.8,6.8,0,0,0-.271-1.64l1.168-.344a8.027,8.027,0,0,1,.32,1.935Zm-.934-3.165a6.824,6.824,0,0,0-1.014-1.318l.868-.855a8.051,8.051,0,0,1,1.195,1.554Zm-2.317-2.354a6.748,6.748,0,0,0-1.513-.687l.363-1.163a7.988,7.988,0,0,1,1.786.811Zm-3.149-.984c-.131-.007-.262-.011-.395-.011h-1.386v-1.218h1.386c.156,0,.312,0,.465.013Zm-3.6-.011h-1.817v-1.218h1.817Zm-3.634,0h-1.817v-1.218h1.817Zm-3.634,0h-1.817v-1.218h1.817Zm-3.634,0h-1.817v-1.218h1.817Zm-3.634,0h-1.817v-1.218h1.817Zm-3.634,0h-1.817v-1.218h1.817Zm-3.634,0h-1.817v-1.218h1.817Zm-3.634,0h-1.817v-1.218h1.817Zm-3.634,0h-1.817v-1.218h1.817Z" transform="translate(-1861.539 -578.358)" fill="#97c6ff"/>
          <rect id="Rectángulo_5179" data-name="Rectángulo 5179" width="1.218" height="0.913" transform="translate(44.232 78.897)" fill="#97c6ff"/>
        </g>
        <g id="Grupo_53873" data-name="Grupo 53873" transform="translate(234.76)">
          <path id="Trazado_100676" data-name="Trazado 100676" d="M1661.244,424.267c.024-.313.04-.627.04-.946a12.071,12.071,0,1,0-24.141,0c0,.318.016.633.04.946Z" transform="translate(-1637.143 -404.334)" fill="#80b2ff"/>
          <path id="Trazado_100677" data-name="Trazado 100677" d="M1874.309,424.267c.025-.313.041-.627.041-.946a12.071,12.071,0,0,0-24.142,0c0,.318.016.633.04.946Z" transform="translate(-1810.553 -404.334)" fill="#80b2ff"/>
          <path id="Trazado_100678" data-name="Trazado 100678" d="M1751.068,394.021a17.683,17.683,0,1,0-35.082,0Z" transform="translate(-1701.197 -374.088)" fill="#80b2ff"/>
        </g>
      </g>
      <g id="card" transform="translate(19.526 112.271)">
        <rect id="Rectángulo_5180" data-name="Rectángulo 5180" width="88.518" height="52.937" rx="1" transform="translate(0)" fill="#4d93ff"/>
        <rect id="Rectángulo_5181" data-name="Rectángulo 5181" width="88.518" height="9.135" transform="translate(0 9.998)" fill="#0046b3"/>
        <path id="Trazado_100679" data-name="Trazado 100679" d="M313.086,1165.014H300.071a1.5,1.5,0,0,0-1.5,1.5h0a1.5,1.5,0,0,0,1.5,1.5h13.015a1.5,1.5,0,0,0,1.5-1.5h0A1.5,1.5,0,0,0,313.086,1165.014Z" transform="translate(-292.81 -1122.234)" fill="#d1f5ff"/>
        <path id="Trazado_100680" data-name="Trazado 100680" d="M420.624,1165.014H407.609a1.5,1.5,0,0,0-1.5,1.5h0a1.5,1.5,0,0,0,1.5,1.5h13.015a1.5,1.5,0,0,0,1.5-1.5h0A1.5,1.5,0,0,0,420.624,1165.014Z" transform="translate(-380.334 -1122.234)" fill="#d1f5ff"/>
        <path id="Trazado_100681" data-name="Trazado 100681" d="M528.161,1165.014H515.146a1.5,1.5,0,0,0-1.5,1.5h0a1.5,1.5,0,0,0,1.5,1.5h13.015a1.5,1.5,0,0,0,1.5-1.5h0A1.5,1.5,0,0,0,528.161,1165.014Z" transform="translate(-467.856 -1122.234)" fill="#d1f5ff"/>
        <path id="Trazado_100682" data-name="Trazado 100682" d="M635.7,1165.014H622.683a1.5,1.5,0,0,0-1.5,1.5h0a1.5,1.5,0,0,0,1.5,1.5H635.7a1.5,1.5,0,0,0,1.5-1.5h0A1.5,1.5,0,0,0,635.7,1165.014Z" transform="translate(-555.379 -1122.234)" fill="#d1f5ff"/>
        <path id="Trazado_100683" data-name="Trazado 100683" d="M296.17,949.591h0a1.653,1.653,0,0,0-1.653,1.653v.581a1.653,1.653,0,0,0,1.653,1.653h0a1.653,1.653,0,0,0,1.653-1.653v-.581A1.653,1.653,0,0,0,296.17,949.591Z" transform="translate(-289.509 -946.904)" fill="#d1f5ff"/>
        <rect id="Rectángulo_5182" data-name="Rectángulo 5182" width="10.776" height="3.887" rx="1.944" transform="translate(10.223 2.687)" fill="#d1f5ff"/>
        <path id="Rectángulo_5183" data-name="Rectángulo 5183" d="M6.418,0H7.644a6.418,6.418,0,0,1,6.418,6.418v0a6.418,6.418,0,0,1-6.418,6.418H6.418A6.418,6.418,0,0,1,0,6.418v0A6.418,6.418,0,0,1,6.418,0Z" transform="translate(6.737 24.046)" fill="#ffbd73"/>
      </g>
      <g id="Gear" transform="translate(44.111)">
        <g id="Grupo_53874" data-name="Grupo 53874" transform="translate(49.854)">
          <path id="Trazado_100684" data-name="Trazado 100684" d="M745.361,382.651a37.26,37.26,0,0,0,.743-14.7l1.512-.227,2.986-.447.038-.008a41.712,41.712,0,0,0-5.46-15.3l-3.933,2.343a37.275,37.275,0,0,0-9.877-10.905l2.73-3.689a41.537,41.537,0,0,0-14.68-6.97l-1.129,4.454a37.2,37.2,0,0,0-14.7-.744l-.682-4.536a41.98,41.98,0,0,0-15.3,5.46l2.343,3.933a37.271,37.271,0,0,0-10.906,9.876l-3.689-2.73a41.544,41.544,0,0,0-6.97,14.68l4.454,1.129a37.2,37.2,0,0,0-.744,14.7l-3.209.479-1.309.207-.017,0a41.985,41.985,0,0,0,5.46,15.3l3.933-2.343a37.348,37.348,0,0,0,9.893,10.91l-2.73,3.689a41.457,41.457,0,0,0,14.663,6.965l1.129-4.454a37.286,37.286,0,0,0,14.713.748l.524,3.526.157,1.009a41.909,41.909,0,0,0,15.281-5.464l-2.343-3.933a37.664,37.664,0,0,0,10.926-9.889l3.689,2.73a41.763,41.763,0,0,0,6.949-14.667ZM709.1,394.141a20.616,20.616,0,0,1-5.068-.635h0a20.65,20.65,0,1,1,5.068.635Zm-4.889-1.343a19.939,19.939,0,1,0-14.435-24.234A19.959,19.959,0,0,0,704.206,392.8Z" transform="translate(-667.571 -331.929)" fill="none"/>
        </g>
        <g id="Grupo_53875" data-name="Grupo 53875" transform="translate(0 46.813)">
          <path id="Trazado_100685" data-name="Trazado 100685" d="M437.078,593.155a19.617,19.617,0,0,0-5.923-4.994l.387-.706.764-1.394.009-.018a21.962,21.962,0,0,0-8.152-2.586l-.271,2.395a19.628,19.628,0,0,0-7.718.665l-.676-2.32a21.866,21.866,0,0,0-7.6,3.932l1.507,1.892a19.579,19.579,0,0,0-4.994,5.923l-2.119-1.159a22.107,22.107,0,0,0-2.586,8.152l2.4.271a19.624,19.624,0,0,0,.665,7.718l-2.32.676a21.869,21.869,0,0,0,3.932,7.6l1.892-1.507a19.585,19.585,0,0,0,5.923,4.994l-.822,1.5-.33.615-.007.006a22.107,22.107,0,0,0,8.152,2.586l.271-2.4a19.666,19.666,0,0,0,7.725-.67l.676,2.32a21.828,21.828,0,0,0,7.592-3.926l-1.507-1.892a19.628,19.628,0,0,0,5-5.928l1.645.9.473.256a22.061,22.061,0,0,0,2.579-8.146l-2.395-.271a19.827,19.827,0,0,0-.663-7.731l2.32-.676a21.987,21.987,0,0,0-3.934-7.586Zm-15.384,23.331a11.247,11.247,0,0,1-1.264-.072,11.021,11.021,0,1,1,1.264.072Zm-.039-21.383a10.326,10.326,0,1,0,6.455,18.4l.228.286-.228-.286a10.326,10.326,0,0,0-5.273-18.333A10.479,10.479,0,0,0,421.654,595.1Z" transform="translate(-399.707 -583.456)" fill="none"/>
        </g>
        <g id="Grupo_53876" data-name="Grupo 53876" transform="translate(291.6 193.375)">
          <path id="Trazado_100686" data-name="Trazado 100686" d="M2009.587,1382.116a22.641,22.641,0,0,0-6.834-5.763l.446-.815.882-1.609.01-.021a25.349,25.349,0,0,0-9.407-2.984l-.313,2.764a22.641,22.641,0,0,0-8.906.767l-.781-2.677a25.238,25.238,0,0,0-8.769,4.537l1.739,2.184a22.606,22.606,0,0,0-5.763,6.835l-2.445-1.338a25.511,25.511,0,0,0-2.984,9.407l2.764.313a22.639,22.639,0,0,0,.767,8.906l-2.677.78a25.241,25.241,0,0,0,4.538,8.769l2.184-1.739a22.6,22.6,0,0,0,6.834,5.763l-.948,1.729-.381.709-.008.007a25.519,25.519,0,0,0,9.407,2.985l.313-2.764a22.689,22.689,0,0,0,8.915-.774l.781,2.677a25.185,25.185,0,0,0,8.761-4.531l-1.739-2.184a22.649,22.649,0,0,0,5.771-6.841l1.9,1.043.546.3a25.456,25.456,0,0,0,2.976-9.4l-2.764-.313a22.885,22.885,0,0,0-.766-8.921l2.677-.78a25.372,25.372,0,0,0-4.539-8.754Zm-17.752,26.868a12.929,12.929,0,0,1-1.453-.082,12.657,12.657,0,1,1,1.453.082Zm-.034-24.669a11.968,11.968,0,1,0,7.473,21.326h0a11.967,11.967,0,0,0-7.473-21.326Z" transform="translate(-1966.462 -1370.924)" fill="none"/>
        </g>
      </g>
    </g>
    <g id="shadow" transform="translate(59.536 313.981)">
      <path id="Trazado_100687" data-name="Trazado 100687" d="M688.445,1737.661H344.75a2.036,2.036,0,0,1-2.036-2.036h0a2.037,2.037,0,0,1,2.036-2.037H688.445a2.037,2.037,0,0,1,2.037,2.037h0A2.036,2.036,0,0,1,688.445,1737.661Z" transform="translate(-342.714 -1733.588)" fill="#003c99"/>
    </g>
    <g id="laptop" transform="translate(66.3 119.013)">
      <g id="laptop-2" data-name="laptop">
        <g id="Grupo_53877" data-name="Grupo 53877" transform="translate(23.517)">
          <rect id="Rectángulo_5184" data-name="Rectángulo 5184" width="289.283" height="184.622" rx="2" fill="#b3d1ff"/>
        </g>
        <rect id="Rectángulo_5185" data-name="Rectángulo 5185" width="182.127" height="286.789" rx="4" transform="translate(311.552 1.247) rotate(90)"/>
        <g id="Grupo_53878" data-name="Grupo 53878" transform="translate(33.287 7.464)">
          <rect id="Rectángulo_5186" data-name="Rectángulo 5186" width="270.034" height="168.836" fill="#0077ec"/>
        </g>
        <path id="Trazado_100688" data-name="Trazado 100688" d="M711.646,1677.993v4.5a5.269,5.269,0,0,1-.041.677,5.849,5.849,0,0,1-5.81,5.174H384.908a5.847,5.847,0,0,1-5.808-5.174,5.285,5.285,0,0,1-.041-.677v-4.5Z" transform="translate(-379.059 -1493.372)" fill="#599aff"/>
        <path id="Trazado_100689" data-name="Trazado 100689" d="M711.784,1705.793a5.849,5.849,0,0,1-5.81,5.174H385.087a5.847,5.847,0,0,1-5.808-5.174Z" transform="translate(-379.238 -1515.998)" fill="#406eff"/>
      </g>
      <g id="login" transform="translate(87 43.278)">
        <rect id="Rectángulo_5187" data-name="Rectángulo 5187" width="164.312" height="101.428" rx="2" fill="#80b2ff" opacity="0.3"/>
        <g id="Grupo_53888" data-name="Grupo 53888" transform="translate(26.974 14.122)">
          <rect id="Rectángulo_5188" data-name="Rectángulo 5188" width="31.565" height="7.427" rx="3.713" transform="translate(52.231 53.568)" fill="#03e6b0"/>
          <rect id="Rectángulo_5189" data-name="Rectángulo 5189" width="60.097" height="7.427" rx="3.713" transform="translate(41.228 23.98)" fill="#fff"/>
          <rect id="Rectángulo_5190" data-name="Rectángulo 5190" width="60.097" height="7.427" rx="3.713" transform="translate(41.228 37.96)" fill="#fff"/>
          <g id="Grupo_53879" data-name="Grupo 53879" transform="translate(51.239 40.695)">
            <path id="Trazado_100690" data-name="Trazado 100690" d="M1269.352,1214.4a1.307,1.307,0,1,1-1.307-1.307A1.307,1.307,0,0,1,1269.352,1214.4Z" transform="translate(-1266.737 -1213.094)" fill="#80b2ff"/>
            <path id="Trazado_100691" data-name="Trazado 100691" d="M1293.436,1214.4a1.308,1.308,0,1,1-1.307-1.307A1.308,1.308,0,0,1,1293.436,1214.4Z" transform="translate(-1286.339 -1213.094)" fill="#80b2ff"/>
            <path id="Trazado_100692" data-name="Trazado 100692" d="M1317.521,1214.4a1.307,1.307,0,1,1-1.307-1.307A1.307,1.307,0,0,1,1317.521,1214.4Z" transform="translate(-1305.941 -1213.094)" fill="#80b2ff"/>
            <path id="Trazado_100693" data-name="Trazado 100693" d="M1341.605,1214.4a1.307,1.307,0,1,1-1.307-1.307A1.308,1.308,0,0,1,1341.605,1214.4Z" transform="translate(-1325.543 -1213.094)" fill="#80b2ff"/>
            <path id="Trazado_100694" data-name="Trazado 100694" d="M1365.69,1214.4a1.307,1.307,0,1,1-1.307-1.307A1.307,1.307,0,0,1,1365.69,1214.4Z" transform="translate(-1345.145 -1213.094)" fill="#80b2ff"/>
            <path id="Trazado_100695" data-name="Trazado 100695" d="M1389.774,1214.4a1.307,1.307,0,1,1-1.307-1.307A1.307,1.307,0,0,1,1389.774,1214.4Z" transform="translate(-1364.746 -1213.094)" fill="#80b2ff"/>
            <path id="Trazado_100696" data-name="Trazado 100696" d="M1413.858,1214.4a1.307,1.307,0,1,1-1.308-1.307A1.308,1.308,0,0,1,1413.858,1214.4Z" transform="translate(-1384.348 -1213.094)" fill="#80b2ff"/>
            <path id="Trazado_100697" data-name="Trazado 100697" d="M1437.943,1214.4a1.307,1.307,0,1,1-1.307-1.307A1.307,1.307,0,0,1,1437.943,1214.4Z" transform="translate(-1403.95 -1213.094)" fill="#80b2ff"/>
            <path id="Trazado_100698" data-name="Trazado 100698" d="M1462.027,1214.4a1.307,1.307,0,1,1-1.307-1.307A1.307,1.307,0,0,1,1462.027,1214.4Z" transform="translate(-1423.552 -1213.094)" fill="#80b2ff"/>
          </g>
          <g id="Grupo_53882" data-name="Grupo 53882" transform="translate(61.898)">
            <circle id="Elipse_4136" data-name="Elipse 4136" cx="7.757" cy="7.757" r="7.757" fill="#fff"/>
            <g id="Grupo_53881" data-name="Grupo 53881" transform="translate(3.445 2.551)">
              <g id="Grupo_53880" data-name="Grupo 53880" transform="translate(1.876)">
                <path id="Trazado_100699" data-name="Trazado 100699" d="M1355.044,1013.039a2.449,2.449,0,0,0,1.9-.932,2.387,2.387,0,0,0,.524-1.515,2.437,2.437,0,1,0-4.874,0,2.386,2.386,0,0,0,.524,1.515A2.458,2.458,0,0,0,1355.044,1013.039Z" transform="translate(-1352.597 -1008.145)" fill="#005cea"/>
              </g>
              <path id="Trazado_100700" data-name="Trazado 100700" d="M1351.138,1041.757c0,1.544-8.623,1.544-8.623,0l0-1.8c.341-2.46,7.919-2.563,8.622,0Z" transform="translate(-1342.515 -1032.504)" fill="#005cea"/>
            </g>
          </g>
          <path id="Trazado_100701" data-name="Trazado 100701" d="M1261.965,1207.411v-.2a1.461,1.461,0,1,0-2.922,0v.2h-.222v2.633c0,.455,3.375.455,3.375,0v-2.633Zm-2.4-.2a.945.945,0,1,1,1.89,0v.2h-1.89Zm1.189,1.526v.76a.242.242,0,0,1-.254.234.225.225,0,0,1-.234-.234v-.76a.444.444,0,0,1-.234-.391.468.468,0,0,1,.937,0A.47.47,0,0,1,1260.753,1208.738Z" transform="translate(-1209.056 -1166.422)" fill="#4d4d4d"/>
          <g id="Grupo_53885" data-name="Grupo 53885" transform="translate(43.233 18.653)">
            <g id="Grupo_53884" data-name="Grupo 53884" transform="translate(1.642 6.862)">
              <g id="Grupo_53883" data-name="Grupo 53883" transform="translate(0.75)">
                <path id="Trazado_100702" data-name="Trazado 100702" d="M1237.529,1133.437a.956.956,0,0,0,.743-.364.931.931,0,0,0,.2-.591.951.951,0,1,0-1.9,0,.931.931,0,0,0,.2.591A.959.959,0,0,0,1237.529,1133.437Z" transform="translate(-1236.574 -1131.527)" fill="#4d4d4d"/>
              </g>
              <path id="Trazado_100703" data-name="Trazado 100703" d="M1235.929,1144.646c0,.6-3.383.6-3.383,0l.018-.7c.133-.96,3.091-1,3.365,0Z" transform="translate(-1232.546 -1141.035)" fill="#4d4d4d"/>
            </g>
            <path id="Trazado_100704" data-name="Trazado 100704" d="M1281.5,1139.561h-13.678a1.093,1.093,0,0,1-1.09-1.09h0a1.093,1.093,0,0,1,1.09-1.09H1281.5a1.093,1.093,0,0,1,1.09,1.09h0A1.093,1.093,0,0,1,1281.5,1139.561Z" transform="translate(-1258.732 -1129.431)" fill="#80b2ff"/>
            <path id="Trazado_100705" data-name="Trazado 100705" d="M1238.021,1096.839h-13.206a1.093,1.093,0,0,1-1.09-1.09h0a1.093,1.093,0,0,1,1.09-1.09h13.206a1.093,1.093,0,0,1,1.09,1.09h0A1.093,1.093,0,0,1,1238.021,1096.839Z" transform="translate(-1223.725 -1094.66)" fill="#80b2ff"/>
            <path id="Trazado_100706" data-name="Trazado 100706" d="M1378.431,1139.561h-13.678a1.093,1.093,0,0,1-1.09-1.09h0a1.093,1.093,0,0,1,1.09-1.09h13.678a1.093,1.093,0,0,1,1.09,1.09h0A1.093,1.093,0,0,1,1378.431,1139.561Z" transform="translate(-1337.619 -1129.431)" fill="#80b2ff"/>
          </g>
          <g id="Grupo_53887" data-name="Grupo 53887" transform="translate(0 13.736)">
            <path id="Trazado_100707" data-name="Trazado 100707" d="M991.434,1140.618v19.263c0,2.141,26.192,2.141,26.192,0v-19.263Z" transform="translate(-991.434 -1127.148)" fill="#fff"/>
            <g id="Grupo_53886" data-name="Grupo 53886" transform="translate(9.862 17.512)">
              <circle id="Elipse_4137" data-name="Elipse 4137" cx="3.234" cy="3.234" r="3.234" fill="#005cea"/>
              <path id="Trazado_100708" data-name="Trazado 100708" d="M1056,1193.805h0a1.325,1.325,0,0,1-1.325-1.325v-7.417h2.651v7.417A1.325,1.325,0,0,1,1056,1193.805Z" transform="translate(-1052.769 -1180.833)" fill="#005cea"/>
            </g>
            <path id="Trazado_100709" data-name="Trazado 100709" d="M1025.367,1080.34h-2.651v-1.3a8.15,8.15,0,0,0-16.3,0v1.3h-2.651v-1.3a10.8,10.8,0,0,1,21.6,0Z" transform="translate(-1001.47 -1068.242)" fill="#fff"/>
          </g>
        </g>
      </g>
    </g>
    <g id="people" transform="translate(113.046 81.902)">
      <g id="female" transform="translate(154.721 104.092)">
        <path id="Trazado_100710" data-name="Trazado 100710" d="M1667.048,1130.3l1.252,5.032.227.936c.253,1.189,8.1.683,7.548-.708l-.468-1.024-2.415-5.3Z" transform="translate(-1628.799 -1113.731)" fill="#f7a58e"/>
        <g id="Grupo_53890" data-name="Grupo 53890" transform="translate(31.999)">
          <g id="Grupo_53889" data-name="Grupo 53889" transform="translate(1.658 1.5)">
            <path id="Trazado_100711" data-name="Trazado 100711" d="M1642.375,1061.579c-.08,5.456,2.453,9.893,6.416,9.874s7.8-3.382,7.937-9.943a7.313,7.313,0,0,0-7.214-7.536A7.436,7.436,0,0,0,1642.375,1061.579Z" transform="translate(-1642.373 -1053.974)" fill="#f7a58e"/>
          </g>
          <path id="Trazado_100712" data-name="Trazado 100712" d="M1642.146,1045.913s-7.9.39-8.555,6.371c-.877,5.25,3.062,1.39,4.67,4.914,1.842,4.035-.036,6.988-2.429,7.79,2.128,2.971,14.3,2.865,17.429-2.349C1655.406,1056.1,1652.372,1046.276,1642.146,1045.913Z" transform="translate(-1633.466 -1045.913)"/>
          <circle id="Elipse_4138" data-name="Elipse 4138" cx="1.471" cy="1.471" r="1.471" transform="matrix(0.762, -0.647, 0.647, 0.762, 2.535, 11.02)" fill="#f7a58e"/>
        </g>
        <path id="Trazado_100713" data-name="Trazado 100713" d="M1644.324,1649.587c-.37-.392-2.117-.4-2.276.182s.148.994-.589,1.913a7.471,7.471,0,0,0,2.389,0C1644.308,1651.548,1644.694,1649.979,1644.324,1649.587Z" transform="translate(-1607.972 -1537.008)" fill="#fff"/>
        <path id="Trazado_100714" data-name="Trazado 100714" d="M1652.46,1366.3H1648.2c-.4-18.008-.322-37.611-.178-52.376.052-5.287.2-7.961,1.156-11.136,1.937-6.41,11.043-4.436,11.689,1.373.269,3.224.467,9.514-5.494,30.886C1657.959,1344.463,1653.456,1355.745,1652.46,1366.3Z" transform="translate(-1613.223 -1251.744)" fill="#00050d"/>
        <path id="Trazado_100715" data-name="Trazado 100715" d="M1627.31,1657.24a4.622,4.622,0,0,0,2.367-1.054,2.592,2.592,0,0,0,2.276.428c1.208-.18,1.367-.741,2.233-.666.365,1.015,1.255,3.294.4,3.822h-8.947C1624.836,1659.04,1624.857,1657.484,1627.31,1657.24Z" transform="translate(-1594.712 -1542.404)" fill="#fff"/>
        <g id="Grupo_53891" data-name="Grupo 53891" transform="translate(43.735 47.513)">
          <path id="Trazado_100716" data-name="Trazado 100716" d="M1762.735,1652.228c-.311-.33-1.779-.335-1.913.153s.125.836-.495,1.608a6.266,6.266,0,0,0,2.007,0C1762.723,1653.876,1763.047,1652.558,1762.735,1652.228Z" transform="translate(-1748.453 -1586.707)" fill="#fff"/>
          <path id="Trazado_100717" data-name="Trazado 100717" d="M1696.782,1305.946c.87-6.639,12.681-5.957,13.467-.16.284,3.12,1.15,7.815-1.069,30.984,4.682,8.842,3.359,21.529,4.758,30.868.154,1.421-3.871,1.762-4.183.5-4.29-17.327-10.284-36.767-12.512-51.182C1696.434,1311.726,1696.352,1309.234,1696.782,1305.946Z" transform="translate(-1696.525 -1301.201)" fill="#00050d"/>
          <path id="Trazado_100718" data-name="Trazado 100718" d="M1745.682,1655.91a3.294,3.294,0,0,0,1.827-1.266,2.511,2.511,0,0,0,2.206.915c1.208-.18,1.367-.741,2.233-.667.365,1.015,1.255,3.294.4,3.822h-8.7C1742.842,1657.985,1743.229,1656.154,1745.682,1655.91Z" transform="translate(-1734.567 -1588.862)" fill="#fff"/>
        </g>
        <g id="Grupo_53893" data-name="Grupo 53893" transform="translate(0 22.888)">
          <path id="Trazado_100719" data-name="Trazado 100719" d="M1493.792,1257.693l-.441-2.213c1.081-.421,2.719-1.295,4.626-2.037l1.047,3.587C1496.913,1257.344,1495.042,1257.573,1493.792,1257.693Z" transform="translate(-1487.43 -1237.706)" fill="#f7a58e"/>
          <path id="Trazado_100720" data-name="Trazado 100720" d="M1518.206,1184.628c3.674-1.708,9.968-5.423,11.416-6.1l15.531-9.535c3.35-1.017,7.255,5.613,3.021,8.6,0,0-24.016,9.885-28.92,10.614Z" transform="translate(-1507.659 -1168.892)" fill="#ff7268"/>
          <g id="Grupo_53892" data-name="Grupo 53892" transform="translate(0 17.679)">
            <path id="Trazado_100721" data-name="Trazado 100721" d="M1478.266,1267.967c-1.5-.451-2.023-2.664-2.061-2.832l3.108-1.134c1.512-.611,2.378,1.217,1.424,2.537C1480.737,1266.539,1479.7,1268.3,1478.266,1267.967Z" transform="translate(-1473.475 -1263.88)" fill="#f7a58e"/>
            <path id="Trazado_100722" data-name="Trazado 100722" d="M1464.988,1270.223c-3.59.771-3.451-.109-3.451-.109s1.211-.4,3.4-1C1466.2,1268.832,1465.851,1269.943,1464.988,1270.223Z" transform="translate(-1461.536 -1268.103)" fill="#f7a58e"/>
          </g>
        </g>
        <path id="Trazado_100723" data-name="Trazado 100723" d="M1646.869,1171.621c-.746-3.632-1.147-7.219,2.6-9.474,2.22-1.337,9.355-2.292,12.692-1.188,3.362,1.5,2.635,8.055,3.265,18.4,2.317,5.164,3.324,6.861,4.01,11.89,0,0-1.239,3.79-9.971,3.795-3.965,0-9.8-.35-12.461-2.373.265-3.43,1.7-6.735,2.3-11.591C1649.3,1181.084,1646.923,1172.038,1646.869,1171.621Z" transform="translate(-1611.973 -1139.153)" fill="#ff7268"/>
        <g id="Grupo_53896" data-name="Grupo 53896" transform="translate(45.64 21.656)">
          <g id="Grupo_53894" data-name="Grupo 53894">
            <path id="Trazado_100724" data-name="Trazado 100724" d="M1713.1,1163.147a56.178,56.178,0,0,1,9.984,10.662c1.889,2.613,6.782,13.113,6.782,13.113l-3.114,2.3-8.423-11.477-10.29-8.441C1704.465,1165.656,1709.106,1160.1,1713.1,1163.147Z" transform="translate(-1706.759 -1162.267)" fill="#ff7268"/>
            <path id="Trazado_100725" data-name="Trazado 100725" d="M1814,1290.809l-2.019-4.171c-.475,1.254-2.786,2.4-3.449,2.375,0,0,2.17,3.123,2.7,3.654S1813.956,1292.3,1814,1290.809Z" transform="translate(-1789.59 -1263.49)" fill="#f7a58e"/>
          </g>
          <g id="Grupo_53895" data-name="Grupo 53895" transform="translate(20.986 26.815)">
            <path id="Trazado_100726" data-name="Trazado 100726" d="M1820.3,1308.208c.008.031,0,.073.007.1a3,3,0,0,0,1.584,2.406.181.181,0,0,0,.081.032c-1.1-.22-1.426,1.25-.868,1.589,1.615,1.093,3.916-.41,4.111-1.322s-1.642-3.988-1.642-3.988C1822.63,1306.272,1820.229,1306.39,1820.3,1308.208Z" transform="translate(-1820.149 -1306.544)" fill="#f7a58e"/>
            <path id="Trazado_100727" data-name="Trazado 100727" d="M1820.339,1314.127a2.893,2.893,0,0,0,1.639,2.427c.9-.025,1.226-.08,2.09-.077a1.991,1.991,0,0,1-1.271-2.425A2.439,2.439,0,0,0,1820.339,1314.127Z" transform="translate(-1820.186 -1312.359)" fill="#e6856a"/>
            <path id="Trazado_100728" data-name="Trazado 100728" d="M1819.645,1307.917a10.461,10.461,0,0,0,.2,4.321s.868.046.787-1.594c-.021-.426.04-1.353.462-1.661,1.3-.859,1.509-1.646,1.032-2.293C1821.49,1305.829,1819.694,1306.7,1819.645,1307.917Z" transform="translate(-1819.514 -1306.345)" fill="#f7a58e"/>
            <path id="Trazado_100729" data-name="Trazado 100729" d="M1829.127,1331.806c-.7.489-2.571,1.437-2.866,1.2s1.2-1.822,2.161-2.032S1829.488,1331.555,1829.127,1331.806Z" transform="translate(-1824.974 -1326.363)" fill="#f7a58e"/>
          </g>
        </g>
      </g>
      <g id="male_02" data-name="male 02" transform="translate(126.857)">
        <path id="Trazado_100730" data-name="Trazado 100730" d="M1428.17,619.056c2.016-2.92.161-12.007-8.447-14.617-7.273-1.875-11.057.425-20.894,3.1l1.468,11.514Z" transform="translate(-1382.635 -581.957)" fill="#50318f"/>
        <path id="Trazado_100731" data-name="Trazado 100731" d="M1339.81,609.971s-17.621,3.639-24.125,6.032c-3.73,1.372-4.656,4.458-3.218,6.831,2.13,3.516,27.409,1.022,27.409,1.022C1348.6,621.415,1343.98,609.818,1339.81,609.971Z" transform="translate(-1311.823 -587.014)" fill="#50318f"/>
        <path id="Trazado_100732" data-name="Trazado 100732" d="M1482.064,604.62s11.253,3.817,17.581,6.643c6.142.483,5.739,8.111,2.832,8.6-6.686,1.814-21.414-1.4-21.414-1.4C1472.526,615.447,1477.913,604.187,1482.064,604.62Z" transform="translate(-1445.874 -582.65)" fill="#50318f"/>
        <path id="Trazado_100733" data-name="Trazado 100733" d="M1407.311,597.46s-3.548-5.4,5.257-9.581,14.728,0,13.26,5.061-6.657,8.44-6.657,8.44S1410.393,601.422,1407.311,597.46Z" transform="translate(-1388.964 -567.643)" fill="#50318f"/>
        <path id="Trazado_100734" data-name="Trazado 100734" d="M1430.966,580.531c4.237-2.941,2.535-8.666,2.535-8.666l-1.6-3.061-1.337-2.549-7.069,2.723,1.286,5.234a13.55,13.55,0,0,0,1.117,2.6C1426.869,578.547,1428.515,580.523,1430.966,580.531Z" transform="translate(-1402.707 -551.436)" fill="#f7a28a"/>
        <path id="Trazado_100735" data-name="Trazado 100735" d="M1425.894,576.808a15.4,15.4,0,0,0,6-8l-1.337-2.549-7.069,2.723,1.286,5.234A13.55,13.55,0,0,0,1425.894,576.808Z" transform="translate(-1402.707 -551.436)" fill="#f0896c"/>
        <g id="Grupo_53897" data-name="Grupo 53897" transform="translate(10.768)">
          <path id="Trazado_100736" data-name="Trazado 100736" d="M1371.557,529.7a2.726,2.726,0,0,0-.166,5.114,2.337,2.337,0,0,0,1.406,3.406C1378.238,540.22,1377.708,528.488,1371.557,529.7Z" transform="translate(-1369.676 -521.613)" fill="#3d3d3d"/>
          <path id="Trazado_100737" data-name="Trazado 100737" d="M1384.526,513.732c1.667,4.918,5.136,9.526,7.928,8.379,4.735-1.945,8.709-7.235,6.744-12.8s-6.188-8.129-10.667-6.549S1382.63,508.139,1384.526,513.732Z" transform="translate(-1381.096 -499.382)" fill="#f7a28a"/>
          <path id="Trazado_100738" data-name="Trazado 100738" d="M1372.056,494.632c1,.848,4.705,2.289,12.367-1.423a8.945,8.945,0,0,1,2.868,3.873c.722-.171,1.015-.547,1.512.071.688.854,1.049,2.723.2,3.411a1.984,1.984,0,0,1-.71.366c-.306,1.31-.015,2.75,1.04,3.071,1.629-1.311,1.432-1.615,2.034-3.125,1.9-1.335,1.906-4.264.375-5.065,1.453-1.362-.3-4.348-2.453-4.448.015-1.652-2.087-4.6-4.729-2.875.076-1.775-3.146-2.94-4.89-.325-1.4-1.916-5.669-.757-5.5,1.79C1371.582,489.5,1370.167,492.971,1372.056,494.632Z" transform="translate(-1370.906 -486.633)" fill="#3d3d3d"/>
        </g>
        <g id="Grupo_53898" data-name="Grupo 53898" transform="translate(0.644 30.973)">
          <path id="Trazado_100739" data-name="Trazado 100739" d="M1315.288,656.572s-.446,4.278,7.435,4.963a158.9,158.9,0,0,0,16.551.553l.807-3.39s-15.922-5.4-19.819-5.636C1315.62,652.782,1315.288,656.572,1315.288,656.572Z" transform="translate(-1315.283 -653.047)" fill="#f7a28a"/>
          <path id="Trazado_100740" data-name="Trazado 100740" d="M1442.146,678.469l5.028-1.05s3.24,1.55,4.248,3.565c-.738.827-2.749-.916-2.749-.916s.2,3.37-.29,4.011-2.963,1.067-3.773.372.6-1.522.6-1.522l-3.677-1S1439.82,679.357,1442.146,678.469Z" transform="translate(-1417.541 -672.882)" fill="#f7a28a"/>
        </g>
        <path id="Trazado_100741" data-name="Trazado 100741" d="M1461.019,528.262a.139.139,0,1,0-.139.138A.139.139,0,0,0,1461.019,528.262Z" transform="translate(-1433.026 -520.401)" fill="#f7a28a"/>
        <g id="Grupo_53899" data-name="Grupo 53899" transform="translate(34.277 30.602)">
          <path id="Trazado_100742" data-name="Trazado 100742" d="M1530.95,652.5s2.654,3.384-3.653,8.159a158.9,158.9,0,0,1-13.718,9.278l-2.487-2.44s10.6-13.047,13.779-15.32C1528.651,649.472,1530.95,652.5,1530.95,652.5Z" transform="translate(-1508.281 -651.054)" fill="#f7a28a"/>
          <path id="Trazado_100743" data-name="Trazado 100743" d="M1498.8,735.6l-2.806,4.3s.267,3.582,1.778,5.253c1.038-.387.145-2.894.145-2.894s3.066,1.414,3.842,1.187,2.071-2.373,1.718-3.379-1.636,0-1.636,0l.609-3.2C1502.943,735.081,1499.973,733.793,1498.8,735.6Z" transform="translate(-1495.99 -719.154)" fill="#f7a28a"/>
        </g>
      </g>
      <g id="male_01" data-name="male 01" transform="translate(0 101.997)">
        <path id="Trazado_100744" data-name="Trazado 100744" d="M701.9,1052.018c.487,4.593-1.827,9.489-4.739,9.453-3.994-.049-9.159-3.336-9.646-7.928s2.338-8.657,6.311-9.078S701.408,1047.426,701.9,1052.018Z" transform="translate(-676.804 -1042.611)" fill="#f7b28a"/>
        <g id="Grupo_53900" data-name="Grupo 53900">
          <path id="Trazado_100745" data-name="Trazado 100745" d="M630.564,1652.339a35.39,35.39,0,0,1,7.465,0c2.712,1.791,3.883,1.687,3.883,1.687,1.159.3,1.676,1.9.67,1.9H630.225Z" transform="translate(-630.225 -1537.209)" fill="#fff"/>
          <path id="Trazado_100746" data-name="Trazado 100746" d="M739.564,1652.339a35.2,35.2,0,0,1,7.465,0c2.987,1.791,4.141,1.687,4.141,1.687,1.206.3,1.966,1.9.961,1.9H739.775Z" transform="translate(-719.214 -1537.209)" fill="#fff"/>
          <path id="Trazado_100747" data-name="Trazado 100747" d="M684.95,1102.5l-7.767-2.622,5.626-11.717,5.46,2.622Z" transform="translate(-668.444 -1078.205)" fill="#f7b28a"/>
          <path id="Trazado_100748" data-name="Trazado 100748" d="M733.561,1208.157s6.025,4.415,3.085,9.1c-2.192,3.491-9.206-.29-9.206-4.351C727.439,1209.244,730.257,1207.086,733.561,1208.157Z" transform="translate(-709.346 -1175.643)" fill="#f2b231"/>
          <path id="Trazado_100749" data-name="Trazado 100749" d="M635.829,1307a26.367,26.367,0,0,0-2.418,7.514c-.344,1.778.059,9.818-.056,23.359a283.879,283.879,0,0,0-3.13,35.047l7.8-1.478,11.946-63.713Z" transform="translate(-630.225 -1256.316)" fill="#333"/>
          <path id="Trazado_100750" data-name="Trazado 100750" d="M687.828,1315.728c1.534,12.021,2.643,22.813,2.742,30.683l1.8,32.136-7.42,1.419c-1.521-9.972-4.053-22.427-4.453-33.979l-8.091-30.164Z" transform="translate(-664.558 -1263.417)" fill="#333"/>
          <path id="Trazado_100751" data-name="Trazado 100751" d="M647.208,1172.241c.514,3.107.794,3.317.794,3.317l19.769.437s-.588-3.137-.09-4.76a9.708,9.708,0,0,0-.017-2.642c-.187-2.012-.615-4.947-1.188-8.16-1.233-6.907-3.143-15.1-4.824-18.175l-8.63-2.071s-3.849,3.9-4.7,7.359S646.693,1169.136,647.208,1172.241Z" transform="translate(-643.913 -1120.547)" fill="#ffd947"/>
          <path id="Trazado_100752" data-name="Trazado 100752" d="M722.644,1236.761l6.549,10.432c-.187-2.012-.615-4.948-1.188-8.161Z" transform="translate(-705.443 -1199.147)" fill="#f2b231"/>
          <path id="Trazado_100753" data-name="Trazado 100753" d="M705.56,1222.793s-2.322,5,.089,6.339,4.822-2.947,4.822-2.947Z" transform="translate(-690.72 -1187.778)" fill="#f7b28a"/>
          <path id="Trazado_100754" data-name="Trazado 100754" d="M688.959,1151.2l-1.671,10.79-5.2-6.121s-4.673-4.739-8.424-.461,2.106,8.557,2.106,8.557,8.556,6.964,14.019,6.24,2.053-18.8,2.053-18.8Z" transform="translate(-664.558 -1129.508)" fill="#ffd947"/>
          <path id="Trazado_100755" data-name="Trazado 100755" d="M757.646,1118.56l-.842-4.11,2.148-3.262s.8-.59,1.1,1.221c.588.843,1.306,1.467,1.222,2.418s-.739,3.937-.739,3.937Z" transform="translate(-733.246 -1096.871)" fill="#f7b28a"/>
          <path id="Trazado_100756" data-name="Trazado 100756" d="M679.166,1133.278l.611-1.58,9.142,3.629.719,3.97Z" transform="translate(-670.057 -1113.638)" fill="#ffeac2"/>
          <path id="Trazado_100757" data-name="Trazado 100757" d="M683.219,1050.294a13.808,13.808,0,0,1-2.049-9.424c.933-5.132,8.538-6.205,8.538-6.205s7.931-.467,9.7,7.6c-.84,1.073-4.292-.7-4.292-.7l-5.675,5.178s.067-4.059-1.934-3.033-1.4,4.292-1.4,4.292A11.519,11.519,0,0,1,683.219,1050.294Z" transform="translate(-671.542 -1034.66)"/>
        </g>
      </g>
    </g>
    <g id="shield" transform="translate(342.825 153.171)">
      <g id="Grupo_53904" data-name="Grupo 53904">
        <g id="Grupo_53902" data-name="Grupo 53902">
          <g id="Grupo_53901" data-name="Grupo 53901">
            <path id="Trazado_100758" data-name="Trazado 100758" d="M1864.815,973.672h0c0-.14,0-.2,0-.215Z" transform="translate(-1864.815 -954.12)" fill="#d9ffff"/>
            <path id="Trazado_100759" data-name="Trazado 100759" d="M1864.815,973.672h0c0-.14,0-.2,0-.215Z" transform="translate(-1864.815 -954.12)" fill="#d9ffff"/>
            <path id="Trazado_100760" data-name="Trazado 100760" d="M2311.882,975.671v-.215c0,.014,0,.075,0,.215Z" transform="translate(-2228.676 -955.747)" fill="#d9ffff"/>
            <path id="Trazado_100761" data-name="Trazado 100761" d="M2311.882,975.671v-.215c0,.014,0,.075,0,.215Z" transform="translate(-2228.676 -955.747)" fill="#d9ffff"/>
            <path id="Trazado_100762" data-name="Trazado 100762" d="M1915.191,869.558c-9.211,9.866-23.908,17.952-39.635,21.4-.005,1.05-.031,6.87-.151,33.693-.16,35.782,33.894,53.267,39.18,55.951,5.123-2.358,39.606-19.816,39.766-55.6.12-26.823.146-32.643.151-33.693C1938.806,887.723,1924.313,879.506,1915.191,869.558Z" transform="translate(-1873.434 -869.558)" fill="#fff"/>
          </g>
        </g>
        <g id="Grupo_53903" data-name="Grupo 53903" transform="translate(4.416 3.881)">
          <path id="Trazado_100763" data-name="Trazado 100763" d="M1925.8,890.409c-9.5,8.71-22.65,15.556-37.115,19.288l-.143,31.915c-.065,14.6,5.736,27.814,17.244,39.268a82.491,82.491,0,0,0,19.545,14.291c.174-.088.364-.187.551-.285v-104.4C1925.858,890.458,1925.829,890.434,1925.8,890.409Z" transform="translate(-1888.544 -890.409)" fill="#80b2ff"/>
          <path id="Trazado_100764" data-name="Trazado 100764" d="M2089.176,890.808v104.4A82.544,82.544,0,0,0,2108.3,981.38c11.609-11.35,17.529-24.509,17.594-39.112l.143-31.916C2111.644,906.5,2098.586,899.567,2089.176,890.808Z" transform="translate(-2051.835 -890.734)" fill="#4d93ff"/>
        </g>
        <path id="Trazado_100765" data-name="Trazado 100765" d="M2003.027,1062.688c-11.012,1.7-26.008,11.742-35.468,23.819-1.327-5.694-7.284-10.893-10.4-12.029l-9.442,9.491c5.9,2.657,12.338,10.185,13.192,17.891l9.433,1.462c3.977-7.856,14.248-26.646,34.681-36.75A15.488,15.488,0,0,0,2003.027,1062.688Z" transform="translate(-1932.287 -1026.743)" fill="#0046b3"/>
      </g>
    </g>
  </g>
</svg>
