<svg xmlns="http://www.w3.org/2000/svg" width="208.612" height="212.337" viewBox="0 0 208.612 212.337">
  <g id="Grupo_57841" data-name="Grupo 57841" transform="translate(-442 -11319.506)">
    <path id="Trazado_101318" data-name="Trazado 101318" d="M245.718,258.976v-69.5a35.147,35.147,0,0,0-17.572-30.437l-60.19-34.751a35.15,35.15,0,0,0-35.144,0L72.623,159.038a35.144,35.144,0,0,0-17.572,30.437v69.5a35.141,35.141,0,0,0,17.572,30.435l60.188,34.751a35.141,35.141,0,0,0,35.144,0l60.19-34.751A35.144,35.144,0,0,0,245.718,258.976Z" transform="translate(386.949 11202.972)" fill="#0077ec"/>
    <g id="Grupo_54110" data-name="Grupo 54110" transform="translate(34.127 11201.625)">
      <g id="Grupo_54106" data-name="Grupo 54106" transform="translate(432.187 174.814)">
        <g id="Grupo_54100" data-name="Grupo 54100">
          <rect id="Rectángulo_5302" data-name="Rectángulo 5302" width="144.829" height="104.543" rx="5.572" fill="#004080"/>
          <rect id="Rectángulo_5303" data-name="Rectángulo 5303" width="89.149" height="129.434" rx="1.255" transform="translate(137.132 7.697) rotate(90)" fill="#359dfe"/>
        </g>
        <g id="Grupo_54105" data-name="Grupo 54105" transform="translate(19.965 17.41)">
          <g id="Grupo_54102" data-name="Grupo 54102" transform="translate(0 46.99)">
            <path id="Rectángulo_5304" data-name="Rectángulo 5304" d="M2.141,0H102.759a2.14,2.14,0,0,1,2.14,2.14V21.279a2.14,2.14,0,0,1-2.14,2.14H2.14A2.14,2.14,0,0,1,0,21.28V2.141A2.141,2.141,0,0,1,2.141,0Z" fill="#03e6b0"/>
            <g id="Grupo_54101" data-name="Grupo 54101" transform="translate(17.326 8.859)">
              <path id="Trazado_101337" data-name="Trazado 101337" d="M448.128,193.754a2.851,2.851,0,1,1-2.851-2.851A2.851,2.851,0,0,1,448.128,193.754Z" transform="translate(-442.426 -190.903)" fill="#004080"/>
              <path id="Trazado_101338" data-name="Trazado 101338" d="M455.367,193.754a2.85,2.85,0,1,1-2.849-2.851A2.85,2.85,0,0,1,455.367,193.754Z" transform="translate(-436.757 -190.903)" fill="#004080"/>
              <path id="Trazado_101339" data-name="Trazado 101339" d="M462.609,193.754a2.851,2.851,0,1,1-2.851-2.851A2.851,2.851,0,0,1,462.609,193.754Z" transform="translate(-431.088 -190.903)" fill="#004080"/>
              <path id="Trazado_101340" data-name="Trazado 101340" d="M469.849,193.754A2.851,2.851,0,1,1,467,190.9,2.851,2.851,0,0,1,469.849,193.754Z" transform="translate(-425.42 -190.903)" fill="#004080"/>
              <path id="Trazado_101341" data-name="Trazado 101341" d="M477.089,193.754a2.851,2.851,0,1,1-2.851-2.851A2.851,2.851,0,0,1,477.089,193.754Z" transform="translate(-419.752 -190.903)" fill="#004080"/>
              <path id="Trazado_101342" data-name="Trazado 101342" d="M484.329,193.754a2.851,2.851,0,1,1-2.851-2.851A2.85,2.85,0,0,1,484.329,193.754Z" transform="translate(-414.083 -190.903)" fill="#004080"/>
            </g>
          </g>
          <g id="Grupo_54104" data-name="Grupo 54104" transform="translate(31.58)">
            <circle id="Elipse_4191" data-name="Elipse 4191" cx="20.87" cy="20.87" r="20.87" fill="#0068c9"/>
            <g id="Grupo_54103" data-name="Grupo 54103" transform="translate(10.889 5.71)">
              <circle id="Elipse_4192" data-name="Elipse 4192" cx="5.963" cy="5.963" r="5.963" transform="translate(4.017)" fill="#f5f5f5"/>
              <path id="Trazado_101343" data-name="Trazado 101343" d="M476.488,183.356h-19.96v-2.277a9.98,9.98,0,0,1,9.981-9.981h0a9.98,9.98,0,0,1,9.979,9.981Z" transform="translate(-456.528 -156.27)" fill="#f5f5f5"/>
            </g>
          </g>
        </g>
      </g>
      <g id="Grupo_54109" data-name="Grupo 54109" transform="translate(538.308 117.881)">
        <g id="Grupo_54107" data-name="Grupo 54107">
          <path id="Trazado_101344" data-name="Trazado 101344" d="M520.12,117.881l-39.089,6.775v36.851a61.931,61.931,0,0,0,32.786,54.645l6.3,3.361,6.3-3.361a61.931,61.931,0,0,0,32.786-54.645V124.656Z" transform="translate(-481.031 -117.881)" fill="#ffaf47"/>
          <path id="Trazado_101345" data-name="Trazado 101345" d="M514.054,206.113a54.274,54.274,0,0,1-28.783-47.975v-30.49l31.529-5.465,31.531,5.465v30.49a54.274,54.274,0,0,1-28.785,47.975l-2.746,1.464Z" transform="translate(-477.711 -114.512)" fill="#ffd947"/>
        </g>
        <g id="Grupo_54108" data-name="Grupo 54108" transform="translate(27.623 21.181)">
          <circle id="Elipse_4193" data-name="Elipse 4193" cx="11.466" cy="11.466" r="11.466" fill="none" stroke="#eee" stroke-linecap="round" stroke-linejoin="round" stroke-width="2.923"/>
          <line id="Línea_137" data-name="Línea 137" y2="31.619" transform="translate(11.466 22.932)" fill="none" stroke="#eee" stroke-linecap="round" stroke-linejoin="round" stroke-width="2.923"/>
          <line id="Línea_138" data-name="Línea 138" x1="7.21" transform="translate(4.256 46.125)" fill="none" stroke="#eee" stroke-linecap="round" stroke-linejoin="round" stroke-width="2.923"/>
        </g>
      </g>
    </g>
  </g>
</svg>
