<svg xmlns="http://www.w3.org/2000/svg" width="228.667" height="209.291" viewBox="0 0 228.667 209.291">
  <g id="Grupo_57842" data-name="Grupo 57842" transform="translate(-667 -11322.552)">
    <path id="Trazado_101319" data-name="Trazado 101319" d="M245.718,258.976v-69.5a35.147,35.147,0,0,0-17.572-30.437l-60.19-34.751a35.15,35.15,0,0,0-35.144,0L72.623,159.038a35.144,35.144,0,0,0-17.572,30.437v69.5a35.141,35.141,0,0,0,17.572,30.435l60.188,34.751a35.141,35.141,0,0,0,35.144,0l60.19-34.751A35.144,35.144,0,0,0,245.718,258.976Z" transform="translate(649.949 11202.972)" fill="#0077ec"/>
    <g id="Grupo_54118" data-name="Grupo 54118" transform="translate(454.892 11201.972)">
      <g id="Grupo_54115" data-name="Grupo 54115" transform="translate(299.89 196.978)">
        <rect id="Rectángulo_5305" data-name="Rectángulo 5305" width="118.333" height="87.668" rx="5.526" fill="#03e6b0"/>
        <g id="Grupo_54114" data-name="Grupo 54114" transform="translate(14.64 27.015)">
          <g id="Grupo_54111" data-name="Grupo 54111">
            <path id="Trazado_101347" data-name="Trazado 101347" d="M310.62,183.221,315,187.829l9.889-10.205" transform="translate(-235.834 -177.624)" fill="none" stroke="#004080" stroke-linecap="round" stroke-linejoin="round" stroke-width="2.32"/>
            <line id="Línea_139" data-name="Línea 139" x2="59.97" transform="translate(0 6.213)" fill="none" stroke="#004080" stroke-linecap="round" stroke-linejoin="round" stroke-width="2.32"/>
          </g>
          <g id="Grupo_54112" data-name="Grupo 54112" transform="translate(0 18.358)">
            <path id="Trazado_101348" data-name="Trazado 101348" d="M310.62,193.426,315,198.035l9.889-10.205" transform="translate(-235.834 -187.83)" fill="none" stroke="#004080" stroke-linecap="round" stroke-linejoin="round" stroke-width="2.32"/>
            <line id="Línea_140" data-name="Línea 140" x2="59.97" transform="translate(0 6.213)" fill="none" stroke="#004080" stroke-linecap="round" stroke-linejoin="round" stroke-width="2.32"/>
          </g>
          <g id="Grupo_54113" data-name="Grupo 54113" transform="translate(0 36.717)">
            <path id="Trazado_101349" data-name="Trazado 101349" d="M310.62,203.632,315,208.24l9.889-10.205" transform="translate(-235.834 -198.035)" fill="none" stroke="#004080" stroke-linecap="round" stroke-linejoin="round" stroke-width="2.32"/>
            <line id="Línea_141" data-name="Línea 141" x2="59.97" transform="translate(0 6.213)" fill="none" stroke="#004080" stroke-linecap="round" stroke-linejoin="round" stroke-width="2.32"/>
          </g>
        </g>
        <path id="Rectángulo_5306" data-name="Rectángulo 5306" d="M5.526,0H112.807a5.526,5.526,0,0,1,5.526,5.526v10.9a0,0,0,0,1,0,0H0a0,0,0,0,1,0,0V5.526A5.526,5.526,0,0,1,5.526,0Z" fill="#0045a6"/>
      </g>
      <g id="Grupo_54117" data-name="Grupo 54117" transform="translate(212.108 126.051)">
        <path id="Trazado_101350" data-name="Trazado 101350" d="M334.268,197.88l-9.791-3.832a4.308,4.308,0,0,1-2.714-4.393,47.123,47.123,0,0,0-.2-9.9,4.312,4.312,0,0,1,2.536-4.5l9.636-4.215a4.315,4.315,0,0,0,2.223-5.681L331.122,154.3a4.311,4.311,0,0,0-5.679-2.223l-9.635,4.215a4.312,4.312,0,0,1-5.031-1.193,47.088,47.088,0,0,0-7.136-6.864,4.308,4.308,0,0,1-1.385-4.974l3.832-9.793a4.312,4.312,0,0,0-2.445-5.587l-11.245-4.4a4.312,4.312,0,0,0-5.587,2.445l-3.832,9.791a4.308,4.308,0,0,1-4.395,2.713,47.1,47.1,0,0,0-9.9.2,4.313,4.313,0,0,1-4.5-2.538l-4.215-9.635a4.314,4.314,0,0,0-5.679-2.223l-11.061,4.839A4.312,4.312,0,0,0,241,134.745l4.215,9.635a4.312,4.312,0,0,1-1.193,5.03,47.1,47.1,0,0,0-6.864,7.138,4.311,4.311,0,0,1-4.976,1.385l-9.791-3.832a4.311,4.311,0,0,0-5.587,2.445l-4.4,11.245a4.313,4.313,0,0,0,2.443,5.587l9.793,3.832a4.308,4.308,0,0,1,2.713,4.395,47.081,47.081,0,0,0,.2,9.9,4.31,4.31,0,0,1-2.538,4.5l-9.635,4.215a4.314,4.314,0,0,0-2.223,5.679L218,216.964a4.313,4.313,0,0,0,5.681,2.222l9.635-4.215a4.315,4.315,0,0,1,5.031,1.193,47.155,47.155,0,0,0,7.134,6.864A4.308,4.308,0,0,1,246.864,228l-3.832,9.791a4.311,4.311,0,0,0,2.445,5.587l11.243,4.4a4.315,4.315,0,0,0,5.589-2.445l3.832-9.791a4.309,4.309,0,0,1,4.393-2.714,47.1,47.1,0,0,0,9.9-.2,4.31,4.31,0,0,1,4.5,2.538l4.215,9.635a4.316,4.316,0,0,0,5.681,2.223l11.063-4.841a4.311,4.311,0,0,0,2.222-5.679l-4.215-9.636a4.312,4.312,0,0,1,1.193-5.03,46.991,46.991,0,0,0,6.863-7.136,4.313,4.313,0,0,1,4.976-1.385l9.791,3.832a4.31,4.31,0,0,0,5.587-2.443l4.4-11.245A4.313,4.313,0,0,0,334.268,197.88Z" transform="translate(-212.108 -123.177)" fill="#ffd947"/>
        <circle id="Elipse_4194" data-name="Elipse 4194" cx="27.787" cy="27.787" r="27.787" transform="translate(23.154 62.451) rotate(-45)" fill="#ffaf47"/>
        <g id="Grupo_54116" data-name="Grupo 54116" transform="translate(50.657 45.93)">
          <path id="Trazado_101351" data-name="Trazado 101351" d="M257,155.756a7.046,7.046,0,1,1-7.046-7.046A7.045,7.045,0,0,1,257,155.756Z" transform="translate(-238.161 -148.71)" fill="#fff8e1"/>
          <path id="Trazado_101352" data-name="Trazado 101352" d="M263.856,172.935H240.269v-2.691a11.794,11.794,0,0,1,11.793-11.793h0a11.793,11.793,0,0,1,11.793,11.793Z" transform="translate(-240.269 -140.928)" fill="#fff8e1"/>
        </g>
      </g>
    </g>
  </g>
</svg>
