<svg xmlns="http://www.w3.org/2000/svg" width="190.667" height="213.549" viewBox="0 0 190.667 213.549">
  <g id="Grupo_57844" data-name="Grupo 57844" transform="translate(-1229 -11322.552)">
    <path id="Trazado_101321" data-name="Trazado 101321" d="M245.718,258.976v-69.5a35.147,35.147,0,0,0-17.572-30.437l-60.19-34.751a35.15,35.15,0,0,0-35.144,0L72.623,159.038a35.144,35.144,0,0,0-17.572,30.437v69.5a35.141,35.141,0,0,0,17.572,30.435l60.188,34.751a35.141,35.141,0,0,0,35.144,0l60.19-34.751A35.144,35.144,0,0,0,245.718,258.976Z" transform="translate(1173.949 11202.972)" fill="#0077ec"/>
    <g id="Grupo_54134" data-name="Grupo 54134" transform="translate(1173.949 11031.145)">
      <g id="Grupo_54133" data-name="Grupo 54133" transform="translate(71.491 312.474)">
        <g id="Grupo_54129" data-name="Grupo 54129" transform="translate(38.393)">
          <path id="Trazado_101362" data-name="Trazado 101362" d="M167.535,344.052a40.693,40.693,0,1,1-14.082-30.77A40.476,40.476,0,0,1,167.535,344.052Z" transform="translate(-86.201 -303.375)" fill="none" stroke="#03e6b0" stroke-linecap="round" stroke-linejoin="round" stroke-width="2.793"/>
          <line id="Línea_142" data-name="Línea 142" y2="81.33" transform="translate(40.669 0.006)" fill="none" stroke="#03e6b0" stroke-linecap="round" stroke-linejoin="round" stroke-width="2.793"/>
          <line id="Línea_143" data-name="Línea 143" x1="81.33" transform="translate(0.005 40.671)" fill="none" stroke="#03e6b0" stroke-linecap="round" stroke-linejoin="round" stroke-width="2.793"/>
          <ellipse id="Elipse_4195" data-name="Elipse 4195" cx="24.836" cy="40.665" rx="24.836" ry="40.665" transform="translate(15.834 0.006)" fill="none" stroke="#03e6b0" stroke-linecap="round" stroke-linejoin="round" stroke-width="2.793"/>
          <g id="Grupo_54128" data-name="Grupo 54128" transform="translate(14.082)">
            <g id="Grupo_54127" data-name="Grupo 54127">
              <path id="Trazado_101363" data-name="Trazado 101363" d="M147.37,313.282a40.623,40.623,0,0,1-53.169,0,40.623,40.623,0,0,1,53.169,0Z" transform="translate(-94.201 -303.375)" fill="none" stroke="#03e6b0" stroke-linecap="round" stroke-linejoin="round" stroke-width="2.793"/>
            </g>
            <path id="Trazado_101364" data-name="Trazado 101364" d="M147.37,348.232a40.623,40.623,0,0,1-53.169,0,40.623,40.623,0,0,1,53.169,0Z" transform="translate(-94.201 -276.803)" fill="none" stroke="#03e6b0" stroke-linecap="round" stroke-linejoin="round" stroke-width="2.793"/>
          </g>
        </g>
        <g id="Grupo_54132" data-name="Grupo 54132" transform="translate(0 89.347)">
          <rect id="Rectángulo_5311" data-name="Rectángulo 5311" width="158.12" height="45.965" rx="12.266" fill="#03e6b0"/>
          <text id="WWW" transform="translate(58.578 34.13)" fill="#004080" font-size="29" font-family="Roboto-Regular, Roboto"><tspan x="0" y="0">WWW</tspan></text>
          <g id="Grupo_54131" data-name="Grupo 54131" transform="translate(20.145 6.808)">
            <path id="Trazado_101365" data-name="Trazado 101365" d="M77.579,376.423v-10.2A8.222,8.222,0,0,1,85.8,358h0a8.224,8.224,0,0,1,8.224,8.224v10.2" transform="translate(-74.508 -358)" fill="none" stroke="#ffaf47" stroke-miterlimit="10" stroke-width="1.495"/>
            <rect id="Rectángulo_5312" data-name="Rectángulo 5312" width="22.59" height="17.436" rx="0.841" transform="translate(0 14.913)" fill="#ffd947"/>
            <g id="Grupo_54130" data-name="Grupo 54130" transform="translate(9.157 18.395)">
              <circle id="Elipse_4196" data-name="Elipse 4196" cx="2.138" cy="2.138" r="2.138" fill="#004080"/>
              <path id="Trazado_101366" data-name="Trazado 101366" d="M82.867,378h0a1.425,1.425,0,0,1-1.426-1.424v-5.483a1.425,1.425,0,0,1,1.426-1.426h0a1.425,1.425,0,0,1,1.426,1.426v5.483A1.425,1.425,0,0,1,82.867,378Z" transform="translate(-80.728 -367.526)" fill="#004080"/>
            </g>
          </g>
        </g>
      </g>
      <path id="Trazado_101367" data-name="Trazado 101367" d="M166.554,390.337l-40.267-10.791a3.655,3.655,0,0,0-4.476,4.475L132.6,424.287a3.653,3.653,0,0,0,6.112,1.639l4.552-4.55a3.652,3.652,0,0,1,5.166,0l15.6,15.6a3.654,3.654,0,0,0,5.168,0l10.041-10.041a3.655,3.655,0,0,0,0-5.166l-15.6-15.6a3.652,3.652,0,0,1,0-5.167l4.55-4.552A3.653,3.653,0,0,0,166.554,390.337Z" transform="translate(50.66 66.914)" fill="#004080"/>
    </g>
  </g>
</svg>
