<svg xmlns="http://www.w3.org/2000/svg" xmlns:xlink="http://www.w3.org/1999/xlink" width="141" height="141" viewBox="0 0 141 141">
  <defs>
    <clipPath id="clip-path">
      <rect id="Rectángulo_5323" data-name="Rectángulo 5323" width="141" height="141" transform="translate(229 12605)" fill="#fff" stroke="#707070" stroke-width="1"/>
    </clipPath>
  </defs>
  <g id="Enmascarar_grupo_61" data-name="Enmascarar grupo 61" transform="translate(-229 -12605)" clip-path="url(#clip-path)">
    <g id="carpeta-confidencial" transform="translate(229 12605)">
      <path id="Trazado_101368" data-name="Trazado 101368" d="M129.25,42.3H70.5L39.952,11.751h-28.2a4.715,4.715,0,0,0-4.7,4.7v23.5h32.9L56.1,56.1l6.7,6.7L70.5,70.5H133.95V47A4.715,4.715,0,0,0,129.25,42.3Zm0,0" fill="#ff9811"/>
      <path id="Trazado_101369" data-name="Trazado 101369" d="M133.95,70.5v63.449a4.715,4.715,0,0,1-4.7,4.7H11.752a4.715,4.715,0,0,1-4.7-4.7v-94h32.9L70.5,70.5Zm0,0" fill="#ffd947"/>
      <path id="Trazado_101370" data-name="Trazado 101370" d="M66.059,66.058A8.931,8.931,0,0,0,65.8,68.15v9.87a22.82,22.82,0,0,0-4.7,1.5V68.15a9.418,9.418,0,0,1,1.691-5.357Zm0,0" fill="#ffde55"/>
      <path id="Trazado_101371" data-name="Trazado 101371" d="M115.15,2.351h-89.3a4.715,4.715,0,0,0-4.7,4.7v32.9h18.8L56.1,56.1l6.7,6.7L70.5,70.5H119.85V7.051a4.715,4.715,0,0,0-4.7-4.7Zm0,0" fill="#96c8ef"/>
      <path id="Trazado_101372" data-name="Trazado 101372" d="M133.95,96.35h-4.7a4.7,4.7,0,0,0,0,9.4h4.7a4.7,4.7,0,0,0,0-9.4Zm0,0" fill="#e6e7e8"/>
      <path id="Trazado_101373" data-name="Trazado 101373" d="M110.451,96.35a4.7,4.7,0,1,1,0,9.4h-4.7a4.7,4.7,0,1,1,0-9.4Zm0,0" fill="#e6e7e8"/>
      <path id="Trazado_101374" data-name="Trazado 101374" d="M119.85,101.05a4.736,4.736,0,0,1-4.7,4.7h-4.7a4.7,4.7,0,1,0,0-9.4h4.7A4.715,4.715,0,0,1,119.85,101.05Zm0,0" fill="#ffd422"/>
      <path id="Trazado_101375" data-name="Trazado 101375" d="M105.751,2.351v23.5l-7.05-9.4-7.05,9.4V2.351Zm0,0" fill="#03e6b0"/>
      <path id="Trazado_101376" data-name="Trazado 101376" d="M98.7,16.451l2.35,3.126-4.7,6.274V19.577Zm0,0" fill="#78b9eb"/>
      <path id="Trazado_101377" data-name="Trazado 101377" d="M110.451,2.351v23.5l-4.7-6.274V2.351Zm0,0" fill="#78b9eb"/>
      <path id="Trazado_101378" data-name="Trazado 101378" d="M94,101.05a23.5,23.5,0,1,1-23.5-23.5A23.5,23.5,0,0,1,94,101.05Zm0,0" fill="#ff9811"/>
      <path id="Trazado_101379" data-name="Trazado 101379" d="M84.6,101.05a14.1,14.1,0,1,1-14.1-14.1A14.1,14.1,0,0,1,84.6,101.05Zm0,0" fill="#03e6b0"/>
      <path id="Trazado_101380" data-name="Trazado 101380" d="M70.5,49.35a18.835,18.835,0,0,0-13.3,5.5A10.945,10.945,0,0,0,56.1,56.1,18.651,18.651,0,0,0,51.7,68.15V86.973a23.2,23.2,0,0,1,9.4-7.449V68.15a9.4,9.4,0,0,1,18.8,0V79.524a23.2,23.2,0,0,1,9.4,7.449V68.15a18.8,18.8,0,0,0-18.8-18.8Zm0,0" fill="#d8d7da"/>
      <path id="Trazado_101381" data-name="Trazado 101381" d="M94,68.15a18.8,18.8,0,0,0-18.8-18.8,19.137,19.137,0,0,0-2.35.141A18.8,18.8,0,0,1,89.3,68.15V70.5H94Zm0,0" fill="#78b9eb"/>
      <path id="Trazado_101382" data-name="Trazado 101382" d="M72.827,59.055a9.438,9.438,0,0,0-5.334,3.737,9.078,9.078,0,0,0-1.433,3.266l-3.267-3.266A9.358,9.358,0,0,1,70.5,58.75a8.558,8.558,0,0,1,2.326.305Zm0,0" fill="#78b9eb"/>
      <g id="Grupo_54136" data-name="Grupo 54136">
        <path id="Trazado_101383" data-name="Trazado 101383" d="M66.059,66.058A8.931,8.931,0,0,0,65.8,68.15v9.87a22.82,22.82,0,0,0-4.7,1.5V68.15a9.418,9.418,0,0,1,1.691-5.357Zm0,0" fill="#ffd422"/>
        <path id="Trazado_101384" data-name="Trazado 101384" d="M79.9,78.02a23.952,23.952,0,0,0-4.7-.47,19.138,19.138,0,0,0-2.35.141,22.754,22.754,0,0,1,7.05,1.832Zm0,0" fill="#ffd422"/>
        <path id="Trazado_101385" data-name="Trazado 101385" d="M94,86.973V70.5H89.3V86.973a23.486,23.486,0,0,1-16.4,37.459c.752.07,1.527.117,2.3.117A23.482,23.482,0,0,0,94,86.973Zm0,0" fill="#ffd422"/>
      </g>
      <path id="Trazado_101386" data-name="Trazado 101386" d="M35.252,96.35a4.7,4.7,0,1,1,0,9.4h-4.7a4.7,4.7,0,1,1,0-9.4Zm0,0" fill="#e6e7e8"/>
      <path id="Trazado_101387" data-name="Trazado 101387" d="M44.652,101.05a4.736,4.736,0,0,1-4.7,4.7h-4.7a4.7,4.7,0,1,0,0-9.4h4.7A4.715,4.715,0,0,1,44.652,101.05Zm0,0" fill="#ffd422"/>
      <path id="Trazado_101388" data-name="Trazado 101388" d="M11.752,96.35h-4.7a4.7,4.7,0,1,0,0,9.4h4.7a4.7,4.7,0,1,0,0-9.4Zm0,0" fill="#e6e7e8"/>
      <path id="Trazado_101389" data-name="Trazado 101389" d="M21.152,101.05a4.736,4.736,0,0,1-4.7,4.7h-4.7a4.7,4.7,0,1,0,0-9.4h4.7A4.715,4.715,0,0,1,21.152,101.05Zm0,0" fill="#ffd422"/>
      <path id="Trazado_101390" data-name="Trazado 101390" d="M119.85,42.3h4.7V70.5h-4.7Zm0,0" fill="#ee8700"/>
      <path id="Trazado_101391" data-name="Trazado 101391" d="M32.9,14.1H47v4.7H32.9Zm0,0" fill="#004080"/>
      <path id="Trazado_101392" data-name="Trazado 101392" d="M51.7,14.1H70.5v4.7H51.7Zm0,0" fill="#004080"/>
      <path id="Trazado_101393" data-name="Trazado 101393" d="M32.9,23.5H70.5v4.7H32.9Zm0,0" fill="#004080"/>
      <path id="Trazado_101394" data-name="Trazado 101394" d="M51.7,37.6H94v4.7H51.7Zm0,0" fill="#004080"/>
      <path id="Trazado_101395" data-name="Trazado 101395" d="M94,47h14.1v4.7H94Zm0,0" fill="#004080"/>
      <path id="Trazado_101396" data-name="Trazado 101396" d="M98.7,37.6h9.4v4.7H98.7Zm0,0" fill="#004080"/>
      <path id="Trazado_101397" data-name="Trazado 101397" d="M94,56.4h14.1v4.7H94Zm0,0" fill="#004080"/>
      <path id="Trazado_101398" data-name="Trazado 101398" d="M141,101.05a7.051,7.051,0,0,0-4.7-6.617V47a7.05,7.05,0,0,0-7.05-7.05H122.2V7.051A7.05,7.05,0,0,0,115.15,0h-89.3a7.05,7.05,0,0,0-7.05,7.05V9.4h-7.05a7.05,7.05,0,0,0-7.05,7.05V94.432a7.007,7.007,0,0,0,0,13.235v26.282a7.05,7.05,0,0,0,7.05,7.05h117.5a7.05,7.05,0,0,0,7.05-7.05V107.667A7.051,7.051,0,0,0,141,101.05ZM122.633,98.7h-5.565a7.051,7.051,0,0,0-6.617-4.7h-4.7a7.051,7.051,0,0,0-6.617,4.7h-2.9a25.679,25.679,0,0,0-4.579-12.454V72.85H131.6V94h-2.35a7.051,7.051,0,0,0-6.617,4.7Zm-9.832,2.35a2.35,2.35,0,0,1-2.35,2.35h-4.7a2.35,2.35,0,1,1,0-4.7h4.7A2.35,2.35,0,0,1,112.8,101.05ZM44.771,98.7h-2.9A7.051,7.051,0,0,0,35.252,94h-4.7a7.051,7.051,0,0,0-6.617,4.7H18.369A7.051,7.051,0,0,0,11.752,94H9.4V42.3H38.979l14,14A21.07,21.07,0,0,0,49.352,68.15v18.1A25.692,25.692,0,0,0,44.771,98.7ZM37.6,101.05a2.35,2.35,0,0,1-2.35,2.35h-4.7a2.35,2.35,0,1,1,0-4.7h4.7A2.35,2.35,0,0,1,37.6,101.05ZM86.951,81.124a25.891,25.891,0,0,0-4.7-3.072v-9.9a11.75,11.75,0,0,0-23.5,0v9.9a25.892,25.892,0,0,0-4.7,3.072V68.15a16.45,16.45,0,0,1,32.9,0ZM63.451,68.15a6.943,6.943,0,0,1,.127-1.251l5.261,5.262a2.35,2.35,0,0,0,1.661.688h7.05V76.2a25.33,25.33,0,0,0-14.1,0Zm2.6-5.424a7.011,7.011,0,0,1,11.5,5.424H71.474ZM70.5,79.9a21.15,21.15,0,1,1-21.15,21.15A21.149,21.149,0,0,1,70.5,79.9ZM129.25,44.65A2.35,2.35,0,0,1,131.6,47V68.15h-9.4V44.65ZM94,4.7h9.4V18.8l-2.82-3.76a2.435,2.435,0,0,0-3.759,0L94,18.8Zm-68.149,0H89.3v21.15a2.35,2.35,0,0,0,4.229,1.41l5.17-6.893,5.17,6.893a2.349,2.349,0,0,0,1.88.94,2.434,2.434,0,0,0,.742-.119,2.351,2.351,0,0,0,1.608-2.231V4.7h7.05a2.35,2.35,0,0,1,2.35,2.35v61.1H91.651a21.133,21.133,0,0,0-35.6-15.423L41.613,38.289a2.35,2.35,0,0,0-1.661-.688H23.5V7.051a2.35,2.35,0,0,1,2.35-2.35Zm-14.1,9.4H18.8V37.6H9.4V16.451A2.35,2.35,0,0,1,11.752,14.1Zm-4.7,84.6h4.7a2.35,2.35,0,1,1,0,4.7h-4.7a2.35,2.35,0,1,1,0-4.7Zm122.2,37.6H11.752a2.35,2.35,0,0,1-2.35-2.35V108.1h2.35a7.051,7.051,0,0,0,6.617-4.7h5.565a7.051,7.051,0,0,0,6.617,4.7h4.7a7.051,7.051,0,0,0,6.617-4.7h2.9a25.836,25.836,0,0,0,51.465,0h2.9a7.05,7.05,0,0,0,6.613,4.7h4.7a7.051,7.051,0,0,0,6.617-4.7h5.565a7.051,7.051,0,0,0,6.617,4.7h2.35v25.85a2.35,2.35,0,0,1-2.35,2.35Zm4.7-32.9h-4.7a2.35,2.35,0,0,1,0-4.7h4.7a2.35,2.35,0,1,1,0,4.7Zm0,0" fill="#004080"/>
      <path id="Trazado_101399" data-name="Trazado 101399" d="M70.5,117.5a16.45,16.45,0,1,0-16.45-16.45A16.45,16.45,0,0,0,70.5,117.5Zm0-28.2a11.75,11.75,0,1,1-11.75,11.75A11.75,11.75,0,0,1,70.5,89.3Zm0,0" fill="#004080"/>
      <path id="Trazado_101400" data-name="Trazado 101400" d="M68.151,108.1h4.7V98.7h4.7V94h-14.1v4.7h4.7Zm0,0" fill="#004080"/>
    </g>
  </g>
</svg>
