<svg xmlns="http://www.w3.org/2000/svg" xmlns:xlink="http://www.w3.org/1999/xlink" width="141" height="141" viewBox="0 0 141 141">
  <defs>
    <clipPath id="clip-path">
      <rect id="Rectángulo_5324" data-name="Rectángulo 5324" width="141" height="141" transform="translate(649 12605)" fill="#fff" stroke="#707070" stroke-width="1"/>
    </clipPath>
  </defs>
  <g id="Enmascarar_grupo_62" data-name="Enmascarar grupo 62" transform="translate(-649 -12605)" clip-path="url(#clip-path)">
    <g id="datos" transform="translate(649 12604.938)">
      <path id="Trazado_101401" data-name="Trazado 101401" d="M131.762,116.087H9.082a7.019,7.019,0,0,1-7.019-7.018V9.22A7.019,7.019,0,0,1,9.082,2.2h122.68a7.019,7.019,0,0,1,7.018,7.019v99.848A7.018,7.018,0,0,1,131.762,116.087Zm0,0" fill="#ffd947"/>
      <path id="Trazado_101402" data-name="Trazado 101402" d="M138.782,9.22v99.848a7.018,7.018,0,0,1-7.018,7.018H123.19a7.018,7.018,0,0,0,7.018-7.018V9.22A7.018,7.018,0,0,0,123.19,2.2h8.574A7.018,7.018,0,0,1,138.782,9.22Zm0,0" fill="#ffb509"/>
      <path id="Trazado_101403" data-name="Trazado 101403" d="M138.781,99.177H2.064v9.892a7.019,7.019,0,0,0,7.019,7.018h122.68a7.018,7.018,0,0,0,7.018-7.018Zm0,0" fill="#838383"/>
      <path id="Trazado_101404" data-name="Trazado 101404" d="M138.782,99.177v9.892a7.018,7.018,0,0,1-7.018,7.018H123.19a7.018,7.018,0,0,0,7.018-7.018V99.177Zm0,0" fill="#5a5a5a"/>
      <path id="Trazado_101405" data-name="Trazado 101405" d="M138.938,26.144H2.216V9.219A7.018,7.018,0,0,1,9.234,2.2H131.92a7.018,7.018,0,0,1,7.018,7.018Zm0,0" fill="#acacac"/>
      <path id="Trazado_101406" data-name="Trazado 101406" d="M138.939,9.218V26.145h-8.731V9.218A7.017,7.017,0,0,0,123.19,2.2h8.73A7.018,7.018,0,0,1,138.939,9.218Zm0,0" fill="#9c9c9c"/>
      <path id="Trazado_101407" data-name="Trazado 101407" d="M51.3,116.087H89.544v11.528H51.3Zm0,0" fill="#5a5a5a"/>
      <path id="Trazado_101408" data-name="Trazado 101408" d="M101.937,138.923H38.907a1.376,1.376,0,0,1-1.376-1.376v-4.458a5.475,5.475,0,0,1,5.475-5.475H97.84a5.474,5.474,0,0,1,5.473,5.475v4.458a1.375,1.375,0,0,1-1.376,1.376Zm0,0" fill="#838383"/>
      <path id="Trazado_101409" data-name="Trazado 101409" d="M103.313,133.088v4.46a1.376,1.376,0,0,1-1.376,1.376H97.081v-5.836a5.474,5.474,0,0,0-5.472-5.472h6.232A5.473,5.473,0,0,1,103.313,133.088Zm0,0" fill="#5a5a5a"/>
      <path id="Trazado_101410" data-name="Trazado 101410" d="M81.372,75.9h44.685v8.469H81.372Zm0,0" fill="#03e6b0"/>
      <path id="Trazado_101411" data-name="Trazado 101411" d="M81.372,98.39h44.685v8.47H81.372Zm0,0" fill="#03e6b0"/>
      <path id="Trazado_101412" data-name="Trazado 101412" d="M120.774,75.9h5.283v8.469h-5.283Zm0,0" fill="#00d1fc"/>
      <path id="Trazado_101413" data-name="Trazado 101413" d="M120.774,98.39h5.283v8.47h-5.283Zm0,0" fill="#00d1fc"/>
      <g id="Grupo_54137" data-name="Grupo 54137">
        <path id="Trazado_101414" data-name="Trazado 101414" d="M129.757,75.9H77.673a2,2,0,0,1-2-1.994V63.878a2,2,0,0,1,2-2h52.085a2,2,0,0,1,2,2V73.907A2,2,0,0,1,129.757,75.9Zm0,0" fill="#0077ec"/>
        <path id="Trazado_101415" data-name="Trazado 101415" d="M129.757,98.39H77.673a2,2,0,0,1-2-1.994V86.367a2,2,0,0,1,2-2h52.085a2,2,0,0,1,2,2V96.4A2,2,0,0,1,129.757,98.39Zm0,0" fill="#0077ec"/>
        <path id="Trazado_101416" data-name="Trazado 101416" d="M129.757,120.879H77.673a2,2,0,0,1-2-1.994V108.856a2,2,0,0,1,2-2h52.085a2,2,0,0,1,2,2v10.029A2,2,0,0,1,129.757,120.879Zm0,0" fill="#0077ec"/>
      </g>
      <path id="Trazado_101417" data-name="Trazado 101417" d="M131.752,63.878V73.907a1.994,1.994,0,0,1-1.994,1.994h-4.628a1.994,1.994,0,0,0,1.994-1.994V63.878a1.994,1.994,0,0,0-1.994-1.994h4.628A1.994,1.994,0,0,1,131.752,63.878Zm0,0" fill="#0077f0"/>
      <path id="Trazado_101418" data-name="Trazado 101418" d="M131.752,86.366V96.395a1.992,1.992,0,0,1-1.994,1.994h-4.628a1.992,1.992,0,0,0,1.994-1.994V86.366a1.994,1.994,0,0,0-1.994-1.994h4.628A1.994,1.994,0,0,1,131.752,86.366Zm0,0" fill="#0077f0"/>
      <path id="Trazado_101419" data-name="Trazado 101419" d="M131.752,108.856v10.028a2,2,0,0,1-1.994,2h-4.628a2,2,0,0,0,1.994-2V108.856a1.993,1.993,0,0,0-1.994-2h4.628A1.993,1.993,0,0,1,131.752,108.856Zm0,0" fill="#0077f0"/>
      <path id="Trazado_101420" data-name="Trazado 101420" d="M19.211,14.114a3.992,3.992,0,1,1-3.992-3.992A3.992,3.992,0,0,1,19.211,14.114Zm0,0" fill="#ff6b81"/>
      <path id="Trazado_101421" data-name="Trazado 101421" d="M34.63,14.114a3.993,3.993,0,1,1-3.992-3.992A3.993,3.993,0,0,1,34.63,14.114Zm0,0" fill="#ffd86e"/>
      <path id="Trazado_101422" data-name="Trazado 101422" d="M50.047,14.114a3.992,3.992,0,1,1-3.992-3.992A3.992,3.992,0,0,1,50.047,14.114Zm0,0" fill="#80e0dc"/>
      <path id="Trazado_101423" data-name="Trazado 101423" d="M19.21,14.116A3.99,3.99,0,0,1,12.466,17a3.989,3.989,0,0,0,2.66-6.876.917.917,0,0,1,.094,0,3.99,3.99,0,0,1,3.99,3.993Zm0,0" fill="#ff435f"/>
      <path id="Trazado_101424" data-name="Trazado 101424" d="M34.628,14.116A3.992,3.992,0,0,1,27.882,17a3.989,3.989,0,0,0,2.664-6.876.846.846,0,0,1,.09,0,3.99,3.99,0,0,1,3.992,3.993Zm0,0" fill="#ffb509"/>
      <path id="Trazado_101425" data-name="Trazado 101425" d="M50.048,14.116A3.992,3.992,0,0,1,43.3,17a3.989,3.989,0,0,0,2.66-6.876.917.917,0,0,1,.094,0,3.993,3.993,0,0,1,3.993,3.993Zm0,0" fill="#00a8b0"/>
      <path id="Trazado_101426" data-name="Trazado 101426" d="M16.237,51.511a2.064,2.064,0,1,0,2.919-2.919l-5.011-5.011,5.011-5.01a2.064,2.064,0,0,0-2.919-2.919l-6.47,6.47a2.063,2.063,0,0,0,0,2.919Zm0,0" fill="#004080"/>
      <path id="Trazado_101427" data-name="Trazado 101427" d="M36.715,43.582,31.7,48.593a2.064,2.064,0,1,0,2.919,2.919l6.471-6.471a2.063,2.063,0,0,0,0-2.917l-6.471-6.471a2.063,2.063,0,1,0-2.917,2.919Zm0,0" fill="#004080"/>
      <path id="Trazado_101428" data-name="Trazado 101428" d="M22.354,51.973a2.063,2.063,0,0,0,2.675-1.166l5.083-12.94a2.063,2.063,0,1,0-3.84-1.509L21.188,49.3a2.064,2.064,0,0,0,1.166,2.675Zm0,0" fill="#004080"/>
      <path id="Trazado_101429" data-name="Trazado 101429" d="M12.395,64.222H26.3a2.064,2.064,0,0,0,0-4.128h-13.9a2.064,2.064,0,0,0,0,4.128Zm0,0" fill="#004080"/>
      <path id="Trazado_101430" data-name="Trazado 101430" d="M58.316,60.095H33.874a2.064,2.064,0,0,0,0,4.128H58.316a2.064,2.064,0,1,0,0-4.128Zm0,0" fill="#004080"/>
      <path id="Trazado_101431" data-name="Trazado 101431" d="M12.395,72.926h5.922a2.064,2.064,0,0,0,0-4.128H12.395a2.064,2.064,0,0,0,0,4.128Zm0,0" fill="#004080"/>
      <path id="Trazado_101432" data-name="Trazado 101432" d="M50.766,68.8a2.064,2.064,0,0,0,0,4.128h3.606a2.064,2.064,0,1,0,0-4.128Zm0,0" fill="#004080"/>
      <path id="Trazado_101433" data-name="Trazado 101433" d="M45.334,70.862A2.064,2.064,0,0,0,43.271,68.8H25.558a2.064,2.064,0,0,0,0,4.128H43.271A2.064,2.064,0,0,0,45.334,70.862Zm0,0" fill="#004080"/>
      <path id="Trazado_101434" data-name="Trazado 101434" d="M58.852,70.862a2.064,2.064,0,0,0,2.063,2.064H67.67a2.064,2.064,0,1,0,0-4.128H60.916A2.064,2.064,0,0,0,58.852,70.862Zm0,0" fill="#004080"/>
      <path id="Trazado_101435" data-name="Trazado 101435" d="M47.614,45.238h7.125a2.064,2.064,0,1,0,0-4.128H47.614a2.064,2.064,0,1,0,0,4.128Zm0,0" fill="#004080"/>
      <path id="Trazado_101436" data-name="Trazado 101436" d="M62.718,45.238h43.472a2.064,2.064,0,0,0,0-4.128H62.718a2.064,2.064,0,1,0,0,4.128Zm0,0" fill="#004080"/>
      <path id="Trazado_101437" data-name="Trazado 101437" d="M99.588,50.189H81.978a2.064,2.064,0,0,0,0,4.128h17.61a2.064,2.064,0,0,0,0-4.128Zm0,0" fill="#004080"/>
      <path id="Trazado_101438" data-name="Trazado 101438" d="M75.375,50.189H69.321a2.064,2.064,0,0,0,0,4.128h6.053a2.064,2.064,0,0,0,0-4.128Zm0,0" fill="#004080"/>
      <path id="Trazado_101439" data-name="Trazado 101439" d="M47.614,54.317H62.443a2.064,2.064,0,0,0,0-4.128H47.614a2.064,2.064,0,1,0,0,4.128Zm0,0" fill="#004080"/>
      <path id="Trazado_101440" data-name="Trazado 101440" d="M43.3,77.429H29.4a2.063,2.063,0,1,0,0,4.127H43.3a2.063,2.063,0,1,0,0-4.127Zm0,0" fill="#004080"/>
      <path id="Trazado_101441" data-name="Trazado 101441" d="M23.075,77.429H12.395a2.063,2.063,0,1,0,0,4.127h10.68a2.063,2.063,0,1,0,0-4.127Zm0,0" fill="#004080"/>
      <path id="Trazado_101442" data-name="Trazado 101442" d="M68.5,77.429H50.337a2.063,2.063,0,0,0,0,4.127H68.5a2.063,2.063,0,0,0,0-4.127Zm0,0" fill="#004080"/>
      <path id="Trazado_101443" data-name="Trazado 101443" d="M93.055,66.829h-9.93a2.064,2.064,0,0,0,0,4.128h9.93a2.064,2.064,0,0,0,0-4.128Zm0,0" fill="#004080"/>
      <path id="Trazado_101444" data-name="Trazado 101444" d="M110.286,70.957H124.3a2.064,2.064,0,1,0,0-4.128H110.286a2.064,2.064,0,0,0,0,4.128Zm0,0" fill="#004080"/>
      <path id="Trazado_101445" data-name="Trazado 101445" d="M103.277,66.829h-3.212a2.064,2.064,0,1,0,0,4.128h3.212a2.064,2.064,0,0,0,0-4.128Zm0,0" fill="#004080"/>
      <path id="Trazado_101446" data-name="Trazado 101446" d="M83.125,93.444h9.93a2.063,2.063,0,0,0,0-4.127h-9.93a2.063,2.063,0,0,0,0,4.127Zm0,0" fill="#004080"/>
      <path id="Trazado_101447" data-name="Trazado 101447" d="M110.286,93.444H124.3a2.063,2.063,0,1,0,0-4.127H110.286a2.063,2.063,0,0,0,0,4.127Zm0,0" fill="#004080"/>
      <path id="Trazado_101448" data-name="Trazado 101448" d="M100.064,93.444h3.212a2.063,2.063,0,1,0,0-4.127h-3.212a2.063,2.063,0,0,0,0,4.127Zm0,0" fill="#004080"/>
      <path id="Trazado_101449" data-name="Trazado 101449" d="M93.055,111.806h-9.93a2.063,2.063,0,1,0,0,4.127h9.93a2.063,2.063,0,1,0,0-4.127Zm0,0" fill="#004080"/>
      <path id="Trazado_101450" data-name="Trazado 101450" d="M124.3,111.806H110.286a2.063,2.063,0,1,0,0,4.127H124.3a2.063,2.063,0,1,0,0-4.127Zm0,0" fill="#004080"/>
      <path id="Trazado_101451" data-name="Trazado 101451" d="M103.277,111.806h-3.212a2.063,2.063,0,1,0,0,4.127h3.212a2.063,2.063,0,1,0,0-4.127Zm0,0" fill="#004080"/>
      <path id="Trazado_101452" data-name="Trazado 101452" d="M131.919.138H9.082A9.093,9.093,0,0,0,0,9.22v99.848a9.093,9.093,0,0,0,9.083,9.082h7.766a2.063,2.063,0,0,0,0-4.127H9.082a4.96,4.96,0,0,1-4.955-4.955V101.24H79.309V104.8H77.672a4.063,4.063,0,0,0-4.059,4.059v5.168H29.395a2.063,2.063,0,0,0,0,4.127H49.236v7.4H43.005a7.547,7.547,0,0,0-7.538,7.538v4.458a3.443,3.443,0,0,0,3.439,3.439h63.031a3.443,3.443,0,0,0,3.439-3.439v-4.458a7.547,7.547,0,0,0-7.538-7.538H91.608v-2.609h38.149a4.062,4.062,0,0,0,4.058-4.059v-.971a9.1,9.1,0,0,0,7.029-8.844L141,9.219a9.09,9.09,0,0,0-9.08-9.082ZM77.741,96.327V86.436h51.947v9.892Zm5.694-14.019V77.966h40.558v4.342Zm40.558,18.146V104.8H83.435v-4.343Zm-70.631,17.7H73.614v.735a4.062,4.062,0,0,0,4.059,4.058h9.809v2.609H53.362ZM97.84,129.679a3.414,3.414,0,0,1,3.41,3.41v3.771H39.594v-3.771a3.415,3.415,0,0,1,3.411-3.41Zm31.849-10.864H77.741v-9.89h51.947Zm7.029-9.746a4.956,4.956,0,0,1-2.9,4.5v-4.717a4.063,4.063,0,0,0-4.059-4.058h-1.636V101.24h8.6Zm0-11.955h-2.969c.042-.233.068-10.747.068-10.747a4.063,4.063,0,0,0-4.059-4.059h-1.636V77.966h1.636a4.064,4.064,0,0,0,4.059-4.059V63.878a4.064,4.064,0,0,0-4.059-4.059H118.1a2.064,2.064,0,0,0,0,4.128h11.587v9.892H77.741V63.947h27.52a2.064,2.064,0,0,0,0-4.128H77.672a4.063,4.063,0,0,0-4.059,4.059V73.907a4.063,4.063,0,0,0,4.059,4.059h1.636v4.342H77.672a4.063,4.063,0,0,0-4.059,4.059s.026,10.513.068,10.747H4.127V28.208h132.59Zm0-73.033H4.279V9.219A4.96,4.96,0,0,1,9.234,4.265H131.762a4.96,4.96,0,0,1,4.955,4.955Zm0,0" fill="#004080"/>
      <path id="Trazado_101453" data-name="Trazado 101453" d="M15.219,8.058a6.056,6.056,0,1,0,6.056,6.055,6.062,6.062,0,0,0-6.056-6.055Zm0,7.984a1.929,1.929,0,1,1,1.929-1.929A1.931,1.931,0,0,1,15.219,16.043Zm0,0" fill="#004080"/>
      <path id="Trazado_101454" data-name="Trazado 101454" d="M30.637,8.058a6.056,6.056,0,1,0,6.055,6.055A6.063,6.063,0,0,0,30.637,8.058Zm0,7.984a1.929,1.929,0,1,1,1.929-1.929A1.931,1.931,0,0,1,30.637,16.043Zm0,0" fill="#004080"/>
      <path id="Trazado_101455" data-name="Trazado 101455" d="M46.055,8.058a6.056,6.056,0,1,0,6.056,6.055A6.062,6.062,0,0,0,46.055,8.058Zm0,7.984a1.929,1.929,0,1,1,1.929-1.929A1.931,1.931,0,0,1,46.055,16.043Zm0,0" fill="#004080"/>
    </g>
  </g>
</svg>
