<svg xmlns="http://www.w3.org/2000/svg" xmlns:xlink="http://www.w3.org/1999/xlink" width="141" height="141" viewBox="0 0 141 141">
  <defs>
    <clipPath id="clip-path">
      <rect id="Rectángulo_5325" data-name="Rectángulo 5325" width="141" height="141" transform="translate(1069 12605)" fill="#fff" stroke="#707070" stroke-width="1"/>
    </clipPath>
  </defs>
  <g id="Enmascarar_grupo_63" data-name="Enmascarar grupo 63" transform="translate(-1069 -12605)" clip-path="url(#clip-path)">
    <g id="disponibilidad" transform="translate(1069 12605)">
      <path id="Trazado_101456" data-name="Trazado 101456" d="M36.489,114.424h8.262v7.986H36.489Z" fill="#43809f"/>
      <path id="Trazado_101457" data-name="Trazado 101457" d="M2.065,130.672H138.934v8.262H2.065Z" fill="#43809f"/>
      <path id="Trazado_101458" data-name="Trazado 101458" d="M78.761,19.131H2.407L7.146,4.888a4.2,4.2,0,0,1,4.007-2.823H70.087a4.2,4.2,0,0,1,4.007,2.823Z" fill="#29cef6"/>
      <path id="Trazado_101459" data-name="Trazado 101459" d="M74.094,4.888a4.2,4.2,0,0,0-4.007-2.823H61.825a4.2,4.2,0,0,1,4.007,2.823L70.5,19.131h8.262Z" fill="#22b5ed"/>
      <path id="Trazado_101460" data-name="Trazado 101460" d="M73.116,48.331H8.124a6.059,6.059,0,0,1-6.059-6.059V21.343a6.059,6.059,0,0,1,6.059-6.059H73.116a6.059,6.059,0,0,1,6.059,6.059v20.93A6.059,6.059,0,0,1,73.116,48.331Z" fill="#a9dbf5"/>
      <path id="Trazado_101461" data-name="Trazado 101461" d="M73.116,15.284H64.854a6.059,6.059,0,0,1,6.059,6.059v20.93a6.059,6.059,0,0,1-6.059,6.059h8.262a6.059,6.059,0,0,0,6.059-6.059V21.343A6.059,6.059,0,0,0,73.116,15.284Z" fill="#88c3e0"/>
      <path id="Trazado_101462" data-name="Trazado 101462" d="M32.358,1.515H48.882V62.1H32.358Z" transform="translate(72.428 -8.812) rotate(90)" fill="#43809f"/>
      <path id="Trazado_101463" data-name="Trazado 101463" d="M22.993,32.358a4.131,4.131,0,0,1-4.131-4.131V23.546h8.262v4.682A4.131,4.131,0,0,1,22.993,32.358Z" fill="#f78e36"/>
      <path id="Trazado_101464" data-name="Trazado 101464" d="M36.765,32.358a4.131,4.131,0,0,1-4.131-4.131V23.546H40.9v4.682A4.131,4.131,0,0,1,36.765,32.358Z" fill="#f78e36"/>
      <path id="Trazado_101465" data-name="Trazado 101465" d="M73.116,81.378H8.124a6.059,6.059,0,0,1-6.059-6.059V54.389a6.059,6.059,0,0,1,6.059-6.059H73.116a6.059,6.059,0,0,1,6.059,6.059v20.93A6.059,6.059,0,0,1,73.116,81.378Z" fill="#88c3e0"/>
      <path id="Trazado_101466" data-name="Trazado 101466" d="M73.116,48.331H64.854a6.059,6.059,0,0,1,6.059,6.059v20.93a6.059,6.059,0,0,1-6.059,6.059h8.262a6.059,6.059,0,0,0,6.059-6.059V54.389A6.059,6.059,0,0,0,73.116,48.331Z" fill="#6eabc9"/>
      <path id="Trazado_101467" data-name="Trazado 101467" d="M32.358,34.561H48.882V95.147H32.358Z" transform="translate(105.474 24.234) rotate(90)" fill="#43809f"/>
      <path id="Trazado_101468" data-name="Trazado 101468" d="M22.993,65.405a4.131,4.131,0,0,1-4.131-4.131V56.593h8.262v4.682A4.131,4.131,0,0,1,22.993,65.405Z" fill="#f78e36"/>
      <path id="Trazado_101469" data-name="Trazado 101469" d="M36.765,65.405a4.131,4.131,0,0,1-4.131-4.131V56.593H40.9v4.682A4.131,4.131,0,0,1,36.765,65.405Z" fill="#f78e36"/>
      <path id="Trazado_101470" data-name="Trazado 101470" d="M73.116,114.424H8.124a6.059,6.059,0,0,1-6.059-6.059V87.436a6.059,6.059,0,0,1,6.059-6.059H73.116a6.059,6.059,0,0,1,6.059,6.059v20.93A6.059,6.059,0,0,1,73.116,114.424Z" fill="#a9dbf5"/>
      <path id="Trazado_101471" data-name="Trazado 101471" d="M73.116,81.378H64.854a6.059,6.059,0,0,1,6.059,6.059v20.93a6.059,6.059,0,0,1-6.059,6.059h8.262a6.059,6.059,0,0,0,6.059-6.059V87.436A6.059,6.059,0,0,0,73.116,81.378Z" fill="#88c3e0"/>
      <path id="Trazado_101472" data-name="Trazado 101472" d="M32.358,67.608H48.882v60.586H32.358Z" transform="translate(138.521 57.281) rotate(90)" fill="#43809f"/>
      <g id="Grupo_54138" data-name="Grupo 54138">
        <path id="Trazado_101473" data-name="Trazado 101473" d="M22.993,98.452a4.131,4.131,0,0,1-4.131-4.131V89.639h8.262v4.682A4.131,4.131,0,0,1,22.993,98.452Z" fill="#f78e36"/>
        <path id="Trazado_101474" data-name="Trazado 101474" d="M36.765,98.452a4.131,4.131,0,0,1-4.131-4.131V89.639H40.9v4.682A4.131,4.131,0,0,1,36.765,98.452Z" fill="#f78e36"/>
        <path id="Trazado_101475" data-name="Trazado 101475" d="M53.013,130.672v8.262H28.227v-8.262h8.262v-8.262h8.262v8.262Z" fill="#f78e36"/>
      </g>
      <path id="Trazado_101476" data-name="Trazado 101476" d="M103.319,29.886A34.986,34.986,0,0,0,69.7,57.782a1.115,1.115,0,0,1-.5.726l-9.132,5.641a.83.83,0,0,0,0,1.412L69.2,71.2a1.115,1.115,0,0,1,.5.726,34.976,34.976,0,1,0,33.615-42.042Z" fill="#f3f3f3"/>
      <path id="Trazado_101477" data-name="Trazado 101477" d="M103.319,29.886a35.228,35.228,0,0,0-3.537.243,34.969,34.969,0,0,1,.043,69.456,35.329,35.329,0,0,0,4.134.244,34.975,34.975,0,1,0-.641-69.943Z" fill="#e4e4e4"/>
      <path id="Trazado_101478" data-name="Trazado 101478" d="M96.6,84.554H88.893a2.2,2.2,0,0,1-2.2-2.2V74.64a2.2,2.2,0,0,1,2.2-2.2H96.6a2.2,2.2,0,0,1,2.2,2.2v7.711A2.2,2.2,0,0,1,96.6,84.554Z" fill="#f78e36"/>
      <path id="Trazado_101479" data-name="Trazado 101479" d="M108.721,84.554H101.01a2.2,2.2,0,0,1-2.2-2.2V74.64a2.2,2.2,0,0,1,2.2-2.2h7.711a2.2,2.2,0,0,1,2.2,2.2v7.711A2.2,2.2,0,0,1,108.721,84.554Z" fill="#29cef6"/>
      <path id="Trazado_101480" data-name="Trazado 101480" d="M120.838,84.554h-7.711a2.2,2.2,0,0,1-2.2-2.2V74.64a2.2,2.2,0,0,1,2.2-2.2h7.711a2.2,2.2,0,0,1,2.2,2.2v7.711A2.2,2.2,0,0,1,120.838,84.554Z" fill="#7be492"/>
      <g id="Grupo_54139" data-name="Grupo 54139">
        <path id="Trazado_101481" data-name="Trazado 101481" d="M84.625,74.639V82.35a4.273,4.273,0,0,0,4.269,4.269H96.6a4.238,4.238,0,0,0,2.2-.619,4.238,4.238,0,0,0,2.2.619h7.711a4.238,4.238,0,0,0,2.2-.619,4.238,4.238,0,0,0,2.2.619h7.711a4.273,4.273,0,0,0,4.269-4.269V74.639a4.273,4.273,0,0,0-4.269-4.269h-7.711a4.238,4.238,0,0,0-2.2.619,4.238,4.238,0,0,0-2.2-.619H101.01a4.238,4.238,0,0,0-2.2.619,4.238,4.238,0,0,0-2.2-.619H88.893A4.273,4.273,0,0,0,84.625,74.639Zm28.5-.138h7.711a.138.138,0,0,1,.138.138V82.35a.138.138,0,0,1-.138.138h-7.711a.138.138,0,0,1-.138-.138V74.639A.138.138,0,0,1,113.127,74.5Zm-12.117,0h7.711a.138.138,0,0,1,.138.138V82.35a.138.138,0,0,1-.138.138H101.01a.138.138,0,0,1-.138-.138V74.639A.138.138,0,0,1,101.01,74.5Zm-12.255.138a.138.138,0,0,1,.138-.138H96.6a.138.138,0,0,1,.138.138V82.35a.138.138,0,0,1-.138.138H88.893a.138.138,0,0,1-.138-.138Z" fill="#004080"/>
        <path id="Trazado_101482" data-name="Trazado 101482" d="M101.3,63.49a2.065,2.065,0,0,0,2.92.028l18.85-18.483a2.065,2.065,0,0,0-2.892-2.949L102.8,59.123,92.042,48.172a2.065,2.065,0,0,0-2.947,2.894Z" fill="#004080"/>
        <path id="Trazado_101483" data-name="Trazado 101483" d="M72.978,40.069V23.546a2.065,2.065,0,0,0-2.065-2.065H10.327a2.065,2.065,0,0,0-2.065,2.065V40.069a2.065,2.065,0,0,0,2.065,2.065H70.913A2.065,2.065,0,0,0,72.978,40.069ZM38.83,25.611v2.616a2.065,2.065,0,1,1-4.131,0V25.611Zm-13.771,0v2.616a2.065,2.065,0,0,1-4.131,0V25.611ZM68.847,38H12.393V25.611h4.4v2.616a6.2,6.2,0,1,0,12.393,0V25.611h1.379v2.616a6.2,6.2,0,1,0,12.393,0V25.611H68.847Z" fill="#004080"/>
        <path id="Trazado_101484" data-name="Trazado 101484" d="M70.913,108.228a2.065,2.065,0,0,0,2.065-2.065V89.639a2.065,2.065,0,0,0-2.065-2.065H10.327a2.065,2.065,0,0,0-2.065,2.065v16.523a2.065,2.065,0,0,0,2.065,2.065ZM38.83,91.7v2.616a2.065,2.065,0,0,1-4.131,0V91.7Zm-13.771,0v2.616a2.065,2.065,0,0,1-4.131,0V91.7Zm-12.666,0h4.4v2.616a6.2,6.2,0,1,0,12.393,0V91.7h1.379v2.616a6.2,6.2,0,1,0,12.393,0V91.7H68.847V104.1H12.393Z" fill="#004080"/>
        <path id="Trazado_101485" data-name="Trazado 101485" d="M138.934,128.607H46.816V116.49h26.3a8.133,8.133,0,0,0,8.124-8.124V94.106a37.048,37.048,0,0,0,42.519,2.057,2.065,2.065,0,0,0-2.211-3.489A32.92,32.92,0,0,1,71.726,71.51a3.194,3.194,0,0,0-1.441-2.067l-7.429-4.589,7.429-4.589A3.193,3.193,0,0,0,71.727,58.2,32.92,32.92,0,0,1,103.356,31.95a32.909,32.909,0,0,1,24.51,55.52,2.066,2.066,0,1,0,3,2.84A37.039,37.039,0,0,0,81.24,35.6V21.343a8.085,8.085,0,0,0-.509-2.829c0-.008,0-.017-.007-.025L76.053,4.234A6.252,6.252,0,0,0,70.087,0H26.4a2.065,2.065,0,0,0,0,4.131H70.087a2.124,2.124,0,0,1,2.044,1.4l2.57,7.844a8.131,8.131,0,0,0-1.585-.156H8.124a8.145,8.145,0,0,0-1.627.164l2.609-7.84a2.127,2.127,0,0,1,2.048-1.411h6.41a2.065,2.065,0,1,0,0-4.131h-6.41A6.252,6.252,0,0,0,5.187,4.236L.447,18.479A17.57,17.57,0,0,0,0,21.343v20.93a8.1,8.1,0,0,0,2.719,6.059A8.1,8.1,0,0,0,0,54.389v20.93a8.1,8.1,0,0,0,2.719,6.059A8.1,8.1,0,0,0,0,87.436V96.8a2.065,2.065,0,0,0,4.131,0v-9.36a4,4,0,0,1,3.993-3.993h63.8a37.287,37.287,0,0,0,5.183,6.919v18a4,4,0,0,1-3.993,3.993H8.124a4,4,0,0,1-3.993-3.993v-2.655a2.065,2.065,0,0,0-4.131,0v2.655a8.133,8.133,0,0,0,8.124,8.124h26.3v12.117H2.065A2.065,2.065,0,0,0,0,130.672v8.262A2.065,2.065,0,0,0,2.065,141H138.934A2.065,2.065,0,0,0,141,138.934v-8.262a2.065,2.065,0,0,0-2.065-2.065ZM58.982,67.317l6.044,3.733H12.393V58.658h4.4v2.616a6.2,6.2,0,0,0,12.393,0V58.658h1.379v2.616a6.2,6.2,0,0,0,12.393,0V58.658H65.026l-6.044,3.733a2.9,2.9,0,0,0,0,4.926ZM20.928,58.658h4.131v2.616a2.065,2.065,0,0,1-4.131,0Zm13.771,0H38.83v2.616a2.065,2.065,0,0,1-4.131,0ZM4.131,42.272V21.343A4,4,0,0,1,8.124,17.35H73.116a4,4,0,0,1,3.993,3.993V39.353a37.3,37.3,0,0,0-5.172,6.912H8.124A4,4,0,0,1,4.131,42.272Zm3.993,37.04a4,4,0,0,1-3.993-3.993V54.389A4,4,0,0,1,8.124,50.4H69.866a36.8,36.8,0,0,0-1.475,4.131H10.327a2.065,2.065,0,0,0-2.065,2.065V73.116a2.065,2.065,0,0,0,2.065,2.065H68.385a36.832,36.832,0,0,0,1.472,4.131ZM42.685,116.49v3.855H38.555V116.49ZM4.131,132.738H26.162v4.131H4.131Zm26.162,4.131v-4.131h6.2a2.065,2.065,0,0,0,2.065-2.065v-6.2h4.131v6.2a2.065,2.065,0,0,0,2.065,2.065h6.2v4.131Zm106.576,0H55.078v-4.131h81.791Z" fill="#004080"/>
      </g>
    </g>
  </g>
</svg>
