<svg xmlns="http://www.w3.org/2000/svg" width="369.334" height="366.653" viewBox="0 0 369.334 366.653">
  <g id="Grupo_54168" data-name="Grupo 54168" transform="translate(-47.916 -41.742)">
    <path id="Trazado_101486" data-name="Trazado 101486" d="M102.514,175.266c-6.493,5.693-3.628,13.415,9.269,19.007,15.429,6.69,47.486,28.428,60.414,24.415s9.531-10.855,22.768-16.965,30.523-13.278,12.85-23.489-47.1-26.584-61.983-24.919S113.707,165.452,102.514,175.266Z" transform="translate(53.728 116.85)" fill="#004080" opacity="0.1"/>
    <path id="Trazado_101487" data-name="Trazado 101487" d="M101.929,227.111l113.457-65.506c4.8-2.767,4.189-7.649-1.35-10.846l-30.64-17.69c-5.539-3.2-13.993-3.548-18.788-.78L51.151,197.794c-4.8,2.767-4.189,7.649,1.348,10.846l30.642,17.69C88.678,229.528,97.133,229.878,101.929,227.111Z" transform="translate(0 92.972)" fill="#004080" opacity="0.1"/>
    <path id="Trazado_101488" data-name="Trazado 101488" d="M222.359,236.683l-19.831,11.7-7.081-4.089,15.619-9.017-13.935-8.044-15.617,9.017L147.973,217.2c7.755-7.923,4.613-18.993-8.691-26.674-15.578-8.995-39.231-9.974-52.724-2.184s-11.795,21.445,3.785,30.439c13.3,7.682,32.475,9.5,46.2,5.019L199.2,260.21l31.9-18.665ZM130.9,212.96c-6.938,4.007-19.1,3.5-27.115-1.123s-8.886-11.651-1.948-15.656,19.105-3.5,27.117,1.122S137.842,208.953,130.9,212.96Z" transform="translate(30.965 148.185)" fill="#004080" opacity="0.1"/>
    <path id="Trazado_101489" data-name="Trazado 101489" d="M191.219,199.034c-5.738,3.663-5.887,10.535,1.991,14.167s18.782,3.634,25.281,7.981,15.935,12.741,24.05,14.322a17.549,17.549,0,0,0,20.4-12.864c2.1-8.286-12.577-12.516-22.25-17.194s-23.368-9.836-29.827-11.293C200.67,191.85,197.821,194.82,191.219,199.034Z" transform="translate(145.906 158.946)" fill="#004080" opacity="0.1"/>
    <path id="Trazado_101490" data-name="Trazado 101490" d="M233.549,117.977a123.616,123.616,0,0,0-30.152,3.632c-3.677-2.1-7.214-3.011-14.236-1.428-6.457,1.458-20.154,6.614-29.827,11.295s-24.347,8.906-22.25,17.192a17.553,17.553,0,0,0,20.4,12.866,18.85,18.85,0,0,0,2.415-.666c1.321,22.26,33.776,40.081,73.648,40.081,40.71,0,73.71-18.575,73.71-41.486S274.259,117.977,233.549,117.977Z" transform="translate(93.272 79.925)" fill="#004080" opacity="0.1"/>
    <g id="Grupo_54145" data-name="Grupo 54145" transform="translate(225.053 42.272)">
      <g id="Grupo_54140" data-name="Grupo 54140" transform="translate(0)">
        <path id="Trazado_101491" data-name="Trazado 101491" d="M151.06,60.432c.469-4.177,3.318-7.665,7.737-7.274,5.357-2.2,11.367,2.194,14.392,6.539.866,1.245,1.356,3.413,2.331,4.5a23.338,23.338,0,0,1,13.329,8.673c2.079,2.753,3.064,6.024,4.9,8.853,1,1.542,1.333,2.548.494,4.31-1.862,3.9-7.956,6.143-9.429,1.715-4.642.543-9.6-1.258-13.479-4.056-1.614-1.168-2.61-2.982-4.121-4.14-1.28-.977-2.536-1.057-4.033-1.532a17.428,17.428,0,0,1-6.213-3.538C153.055,71.036,150.464,65.716,151.06,60.432Z" transform="translate(-117.006 -30.92)" fill="#205bba"/>
        <path id="Trazado_101492" data-name="Trazado 101492" d="M158.3,122.271c.561-2.606,2.151-4.976,5.088-4.75a25.174,25.174,0,0,1,5,1.27c1.063,3.1,3.6,4.007,6.092,5.574a33.789,33.789,0,0,1,5.934,4.67c2.014,2.016,3.374,3.955,1.192,6.336-5.385,5.877-12.749-.023-16.285-4.869-1.051,1.233-3.767.229-5.244-.586C157.288,128.377,157.636,125.329,158.3,122.271Z" transform="translate(-109.815 37.159)" fill="#282828"/>
        <path id="Trazado_101493" data-name="Trazado 101493" d="M143.226,125.921c-.58.635-2.468,2.376-2.757,4.265s-.873,3.484,0,6.244,2.268,2.311,2.268,2.311.78,5.094,2.814,8.144,7.487,4.881,10.019,4.209c4.615-1.223,5.9-4.971,3.359-9.619-2.688-4.924-6.733-8.923-7.471-12.563C150.561,124.491,143.226,125.921,143.226,125.921Z" transform="translate(-128.503 45.75)" fill="#282828"/>
        <path id="Trazado_101494" data-name="Trazado 101494" d="M150.6,96.665s6.987,9.972,10.17,17.2,9.224,10.523,11.592,13.526c-1.036,2.593-6.952,6.123-6.952,17.315a157.773,157.773,0,0,0,1.1,16.316s6.573,5.391,9.99,1.71c.692-3.394,4.41-12.112,6.528-21,1.143-4.8,2.982-8.839,3.339-12.549.287-3,1.921-3.527,1.907-7.563-.01-2.78-3.064-4.49-3.992-7.628-1.344-4.55-2.028-8.771-5.277-15.457-5.865-12.069-9.906-21.922-10.269-22.184S156.22,83.6,156.22,83.6Z" transform="translate(-117.395 -6)" fill="#205bba"/>
        <path id="Trazado_101495" data-name="Trazado 101495" d="M148.455,82.611s-3.042,2.038-4.949,10.271c-2.573,11.106.135,13.46,1.51,19.589-1.913,8.966,4.2,25.07,4.2,25.07s-7.319,12.01-8.194,23.028a95.566,95.566,0,0,0,.082,18.249,6.067,6.067,0,0,0,3.511,3.023,8.989,8.989,0,0,0,6.178-1.184,164.3,164.3,0,0,0,7.18-16.647c1.307-3.572,2.722-8.028,4.06-11.141,1.956-4.552,3.9-7.028,4.629-8.947,1.094-2.892.264-5.942.756-8.669,1.247-6.907,2.528-12.846,2.763-17.03.33-5.836-1.643-13.413-1.643-13.413s7.557-5.488,3.777-21.211S148.455,82.611,148.455,82.611Z" transform="translate(-127.832 -5.996)" fill="#2471c6"/>
        <path id="Trazado_101496" data-name="Trazado 101496" d="M157.654,58.776c2.012-.633,11.356-6.608,12.141-6.219,5.641,2.8,12.02,13.753,12.846,21.172a45.551,45.551,0,0,1-2.157,15.988c1.895,3.066.3,5.377.195,6.266a28.438,28.438,0,0,0,1.172,7.991c1.108,2.757,2.136,4.607,1.022,5.684-2.722,2.636-9.652,6.455-18.374,7.915-9.255,1.551-15.451-4.066-18.337-7.915-.682-.909.416-5.772,2.45-7.069-1.551-4.709-3.134-10.588-4.65-16.24-2.282-8.5-6.131-18.434,1.075-22.113A98.18,98.18,0,0,1,157.654,58.776Z" transform="translate(-127.601 -30.952)" fill="#3688d8"/>
        <path id="Trazado_101497" data-name="Trazado 101497" d="M150.546,72.744c.944-2.309,4.349-24.7,8.257-26.24,3.37-1.336,11.514-2.153,12.632-1.108,2.628,2.452,2.3,7.139.516,13.788-.862,3.218-1.835,8.1-2.112,9.648-1.307,7.329-6.069,10.48-9.3,11.192C155.281,81.184,149,76.513,150.546,72.744Z" transform="translate(-117.704 -38.939)" fill="#205bba"/>
        <path id="Trazado_101498" data-name="Trazado 101498" d="M163.118,57.35c.953,2.239,2.354,6.153,2.354,6.153a11.094,11.094,0,0,0-3.4,5.611c-4.205-1.043-13.7-5.549-13.894-7.493s4.035-7.634,4.035-7.634S161.035,55.4,163.118,57.35Z" transform="translate(-119.947 -29.434)" fill="#ffb9a4"/>
        <path id="Trazado_101499" data-name="Trazado 101499" d="M169.352,56.088c-.137-3.279-.848-7.4-3.37-9.742-2.493-2.315-6.774-2.542-10.013-2.315-5.017.35-8.548,5.9-7.661,12.317.819,5.928,4.779,15.062,11.389,16.3C167.05,74.026,169.561,61.078,169.352,56.088Z" transform="translate(-119.944 -39.944)" fill="#ffc9b6"/>
        <path id="Trazado_101500" data-name="Trazado 101500" d="M158.4,80.841c3.812-1.184,8.751-2.95,8.751-2.95s-4.412,4.134-7.923,4.865-8.939,0-8.939,0A73.116,73.116,0,0,0,158.4,80.841Z" transform="translate(-117.728 -4.373)" fill="#205bba"/>
        <path id="Trazado_101501" data-name="Trazado 101501" d="M166.311,74.747A63.3,63.3,0,0,0,159,76.193c-2.587.789-7.919,3.155-7.919,3.155s5.2-.69,8.487-1.331A19.725,19.725,0,0,0,166.311,74.747Z" transform="translate(-116.89 -7.67)" fill="#205bba"/>
        <path id="Trazado_101502" data-name="Trazado 101502" d="M165.559,45.653c-5.266-4.289-14.66-4-17.737,3.253a17.2,17.2,0,0,0-.772,7.493c1.168,5,1.672,6.426,2.452,10.291,3.871-2.368,4.347-2.376,5.318-3.99.811-1.348,2.479-3.708,2.778-5.266,2.106,1.671,6.233,1.626,8.386,1.288,4.273-.672,8.161-1.651,8.921-5.729C175.517,49.713,173.409,45.131,165.559,45.653Z" transform="translate(-121.274 -41.114)" fill="#191919"/>
        <path id="Trazado_101503" data-name="Trazado 101503" d="M150.22,51c2.673,1.786,7.563,2.853,11.588,2.343a11.341,11.341,0,0,0,5.486-1.856c.574,2.878-.2,4.347-1.026,5.178a2.417,2.417,0,0,1-2.755,0c-.744-.467-1.176-1.274-2.1-1.229-.858.043-1.108.768-1.837,1.4-.975.846-2.419,1.622-3.628,1.325-1.661-.406-3.173-1.28-3.718-4.822C149.61,52.508,149.95,50.816,150.22,51Z" transform="translate(-117.987 -32.584)" fill="#2d2d2d"/>
        <path id="Trazado_101504" data-name="Trazado 101504" d="M153.113,52.82s-1.233-2.614-3.206-.545.789,5.522.789,5.522Z" transform="translate(-118.869 -32.065)" fill="#ffc9b6"/>
        <path id="Trazado_101505" data-name="Trazado 101505" d="M136.111,97.241c3.531,2.669,6.741,4.98,11.328,1.635,4.9-3.57,6.145-12.262,5.268-14.714,8.845-12.69,4.027-25.916-.881-25.912-4.736,1.811-9.429,4.957-11.217,9.82a17.283,17.283,0,0,0-.707,9.007c-7.046,4.607-6.192,12.415-3.71,20.042C136.169,97.151,136.138,97.2,136.111,97.241Z" transform="translate(-134.391 -24.965)" fill="#2471c6"/>
        <path id="Trazado_101506" data-name="Trazado 101506" d="M148.236,49.332c3.171-7.477,10.975-8.382,17.2-6.471,3.556,1.092,8,2.632,10.9,5.6-7.178-1.09-18.319,3.417-20.31,8.919-1.135,3.132-.649,6.889-.817,10.2-.174,3.464,1.921,10,5.393,11.315,2.774,1.055,3.937,1.919,4.834,4.193-4.531,4.754-17.2-3.863-18.616-9.355C144.891,66.248,145.28,56.3,148.236,49.332Z" transform="translate(-122.605 -42.001)" fill="#2471c6"/>
        <path id="Trazado_101507" data-name="Trazado 101507" d="M157.275,53.149a21.073,21.073,0,0,1-2.995-.176,12.814,12.814,0,0,1-2.253-.434s.135,2.3,2.253,2.448A3.177,3.177,0,0,0,157.275,53.149Z" transform="translate(-115.902 -30.952)" fill="#ffc9b6"/>
        <path id="Trazado_101508" data-name="Trazado 101508" d="M159.856,52.111s.35,1.489-.612,2.1c-1.268.811-2.755-.793-2.755-.793S159.417,52.375,159.856,52.111Z" transform="translate(-111.225 -31.401)" fill="#ffc9b6"/>
        <path id="Trazado_101509" data-name="Trazado 101509" d="M171.539,65.545s8.138-1.006,12.493.166a17.9,17.9,0,0,0,8.763-.166s1.483,3.751.4,6.43-4.545,5.842-11.365,7.135c-5.563,1.055-12.436,1.207-14.341-5.426S171.539,65.545,171.539,65.545Z" transform="translate(-100.081 -17.738)" fill="#205bba"/>
        <path id="Trazado_101510" data-name="Trazado 101510" d="M177.639,71.249s-1.082,2.872.922,4.519a4.955,4.955,0,0,0,3.912,1.159s8.636-4.25,9.234-9.613c.334-2.995-1.221-7.286-5.359-6.866s-5.43,3.222-6.262,4.709,1.4,3.933,1.4,3.933Z" transform="translate(-89.356 -22.691)" fill="#ffc9b6"/>
        <path id="Trazado_101511" data-name="Trazado 101511" d="M161.982,67.177c-3.357,3.691-6.543,7.749-9.66,11.649a.613.613,0,0,0,.866.866c3.728-3.148,6.7-7.286,9.488-11.981C162.916,67.308,162.342,66.781,161.982,67.177Z" transform="translate(-115.76 -15.753)" fill="#bbd9f9"/>
        <path id="Trazado_101512" data-name="Trazado 101512" d="M145,80.038a31.784,31.784,0,0,0,7.3-7.682c3.691-5.258,2.5-6.6,7.282-5.76s5,3.593,5.486,5.873c1.041,4.928,1.307,7.368-2.128,6.135-4.355.385-4.6.143-5.609,1.186s-4.218,4.76-7.133,5.246S145,80.038,145,80.038Z" transform="translate(-123.265 -16.457)" fill="#ffc9b6"/>
        <path id="Trazado_101513" data-name="Trazado 101513" d="M198.8,64.9c-.268-.285-.52-.59-.782-.885a82.97,82.97,0,0,1-13.237,9.044,42.466,42.466,0,0,1-20.937,4.525c-.137-.006-.3-.035-.451-.053a7.512,7.512,0,0,0-.223,1.813,26.629,26.629,0,0,0,6.246.481c10.224-.873,18.71-5.32,26.705-11.526,1.063-.826,2.151-1.7,3.257-2.585A3.748,3.748,0,0,0,198.8,64.9Z" transform="translate(-104.216 -18.925)" fill="#ffd947"/>
        <path id="Trazado_101514" data-name="Trazado 101514" d="M222.379,66.094c-6.543-8.773-17.629-10.555-27.5-6.868a48.682,48.682,0,0,0-11.131,6.149c.4.643.588,1.487.938,1.907,7.415-5.416,15.7-9.789,24.882-7.5,14.628,3.646,18.907,20.33,10.836,32.055-.385.559.5,1.256.946.731A21.309,21.309,0,0,0,222.379,66.094Z" transform="translate(-82.65 -25.84)" fill="#ffd947"/>
        <path id="Trazado_101515" data-name="Trazado 101515" d="M142.7,75.9s-5.987,5.322-7.1,7.936-.94,3.8,1.571,5.246c1.508,2.657,5.305,4.609,14.068,0a46.069,46.069,0,0,0,13.909-11.348s-6.8-2.62-4.943-6.807C159.491,70.813,146.388,71.354,142.7,75.9Z" transform="translate(-133.803 -11.686)" fill="#2471c6"/>
        <path id="Trazado_101516" data-name="Trazado 101516" d="M163.152,63.848a13.582,13.582,0,0,1-4.4,2.231,4.523,4.523,0,0,0-2.2,1.53,3.518,3.518,0,0,0,.336,4.49c.713,1.788,3.5,1.137,4.668.086.862-.778,1.415-1.8,1.1-3.931A4.1,4.1,0,0,0,163.152,63.848Z" transform="translate(-111.837 -19.096)" fill="#ffd947"/>
      </g>
      <g id="Grupo_54144" data-name="Grupo 54144" transform="translate(24.858 52.759)">
        <path id="Trazado_101517" data-name="Trazado 101517" d="M186.4,96.232l19.47-26.148s12.118-6.422,22.108,2.069,8.765,17.127,8.765,17.127l-13.929,29.647Z" transform="translate(-104.724 -67.757)" fill="#2d2d2d"/>
        <g id="Grupo_54141" data-name="Grupo 54141" transform="translate(0 21.462)">
          <path id="Trazado_101518" data-name="Trazado 101518" d="M263.692,85.52a68.539,68.539,0,1,1-117,65.061,73.088,73.088,0,1,0,117-65.061Z" transform="translate(-146.357 -70.595)" fill="#282828"/>
          <path id="Trazado_101519" data-name="Trazado 101519" d="M212.527,207.1A68.527,68.527,0,0,0,263.862,93.159a73.079,73.079,0,0,0-117.335,58.166c0,2.327.121,4.623.332,6.895A68.565,68.565,0,0,0,212.527,207.1Z" transform="translate(-146.527 -78.234)" fill="#232323"/>
          <path id="Trazado_101520" data-name="Trazado 101520" d="M212.527,207.1A68.527,68.527,0,0,0,263.862,93.159a73.079,73.079,0,0,0-117.335,58.166c0,2.327.121,4.623.332,6.895A68.565,68.565,0,0,0,212.527,207.1Z" transform="translate(-146.527 -78.234)" fill="#494949" opacity="0.5"/>
        </g>
        <circle id="Elipse_4201" data-name="Elipse 4201" cx="48.674" cy="48.674" r="48.674" transform="translate(12.309 27.839)" fill="#494949" opacity="0.5"/>
        <circle id="Elipse_4202" data-name="Elipse 4202" cx="29.887" cy="29.887" r="29.887" transform="translate(26.282 33.999)" fill="#494949" opacity="0.7"/>
        <g id="Grupo_54143" data-name="Grupo 54143" transform="translate(17.428 50.963)">
          <g id="Grupo_54142" data-name="Grupo 54142">
            <path id="Trazado_101521" data-name="Trazado 101521" d="M179.208,94.539c-1.852,4-2.776,6.006-4.627,10.011a10.446,10.446,0,0,1-2.528,3.4,13.562,13.562,0,0,1-3.706,2.368,15.526,15.526,0,0,1-4.39,1.163,15.88,15.88,0,0,1-4.621-.133c-1.712-.295-2.575-.426-4.3-.649,3.339-7.227,5.008-10.838,8.347-18.063,1.8.084,2.7.143,4.494.3-2.786,6-4.179,9-6.965,15a9.663,9.663,0,0,0,2.845.027,9.931,9.931,0,0,0,2.722-.77,8.465,8.465,0,0,0,2.28-1.479,6.456,6.456,0,0,0,1.526-2.057c1.825-3.951,2.739-5.928,4.566-9.879C176.6,94.047,177.475,94.2,179.208,94.539Z" transform="translate(-155.035 -92.636)" fill="#ffd947"/>
            <path id="Trazado_101522" data-name="Trazado 101522" d="M172.009,97.563a1.835,1.835,0,0,1-.02-1.737,2.753,2.753,0,0,1,1.46-1.377,3.191,3.191,0,0,1,2.118-.184,2.229,2.229,0,0,1,1.518,1.123,1.959,1.959,0,0,1,0,1.794,2.686,2.686,0,0,1-1.465,1.368,3.126,3.126,0,0,1-2.1.131A2.34,2.34,0,0,1,172.009,97.563Zm2.968,3.206c-2.606,5.635-3.906,8.452-6.51,14.087-1.674-.627-2.515-.922-4.214-1.477,2.556-5.535,3.837-8.3,6.393-13.835C172.39,100,173.257,100.242,174.977,100.769Z" transform="translate(-145.37 -91.035)" fill="#ffd947"/>
            <path id="Trazado_101523" data-name="Trazado 101523" d="M179.955,102.481a2.268,2.268,0,0,0-.977-.182,2.777,2.777,0,0,0-.985.219,3.1,3.1,0,0,0-.856.541,2.393,2.393,0,0,0-.6.807c-1.833,3.968-2.751,5.953-4.584,9.918-1.565-.727-2.356-1.073-3.947-1.735,1.807-3.912,2.71-5.869,4.519-9.779a6.533,6.533,0,0,1,1.608-2.171,7.833,7.833,0,0,1,2.309-1.43,7.665,7.665,0,0,1,2.681-.547,6.783,6.783,0,0,1,2.747.516c1.95.8,2.913,1.229,4.818,2.126-1.053,1.436-1.577,2.153-2.628,3.583C182.434,103.567,181.613,103.192,179.955,102.481Z" transform="translate(-141.437 -86.886)" fill="#ffd947"/>
            <path id="Trazado_101524" data-name="Trazado 101524" d="M186.218,120.029a5.834,5.834,0,0,1-2.206,1.243,5.357,5.357,0,0,1-2.5.113A6.5,6.5,0,0,1,179,120.33a7.61,7.61,0,0,1-2.038-2.026,9.114,9.114,0,0,1-1.235-2.579,8.558,8.558,0,0,1-.342-2.825,7.326,7.326,0,0,1,.678-2.778c1.9-4.111,2.847-6.166,4.748-10.277,1.559.772,2.329,1.174,3.855,2.007l-4.855,10.5a3.053,3.053,0,0,0-.15,2.163,3.4,3.4,0,0,0,.485.971,2.959,2.959,0,0,0,.805.766,2.081,2.081,0,0,0,1.887.285,2.443,2.443,0,0,0,1.444-1.37c1.973-4.273,2.96-6.407,4.933-10.678,1.493.916,2.231,1.391,3.687,2.368-2.012,4.353-3.017,6.528-5.027,10.879A6.811,6.811,0,0,1,186.218,120.029Z" transform="translate(-133.711 -85.077)" fill="#ffd947"/>
            <path id="Trazado_101525" data-name="Trazado 101525" d="M192.839,126.61a3.967,3.967,0,0,1-1.7.944,3.324,3.324,0,0,1-1.864-.086,4.759,4.759,0,0,1-1.821-1.141c-2.456-2.364-3.728-3.495-6.34-5.641l1.966-4.259c2.636,2.1,3.919,3.2,6.4,5.516a.927.927,0,0,0,.867.272,1.082,1.082,0,0,0,.731-.674,1.946,1.946,0,0,0,.131-1.194,1.753,1.753,0,0,0-.518-1.02c-.785-.719-1.182-1.073-1.981-1.77a6.794,6.794,0,0,1-1.514-1.893,8.633,8.633,0,0,1-1.012-4.844,7.205,7.205,0,0,1,.645-2.429,5.762,5.762,0,0,1,1.346-1.88,4.674,4.674,0,0,1,1.794-1.041,4.165,4.165,0,0,1,1.985-.1,4.453,4.453,0,0,1,1.952.94c2.585,2.073,3.841,3.161,6.264,5.443l-2.065,4.466c-2.4-2.329-3.644-3.443-6.207-5.566a.968.968,0,0,0-.9-.219,1.1,1.1,0,0,0-.725.653,1.8,1.8,0,0,0-.111,1.153,1.686,1.686,0,0,0,.547.975c.807.682,1.209,1.028,2,1.731a6.188,6.188,0,0,1,1.45,1.944,8.136,8.136,0,0,1,.748,2.5,10.39,10.39,0,0,1,.01,2.716,8.577,8.577,0,0,1-.723,2.569A5.85,5.85,0,0,1,192.839,126.61Z" transform="translate(-127.694 -79.364)" fill="#ffd947"/>
          </g>
        </g>
        <path id="Trazado_101526" data-name="Trazado 101526" d="M218.831,140.576c-.84-1.262-3.411.207-4.025.549-12.469,6.926-26.308,7-40.253,4.8a.714.714,0,0,0-.795,1.034c5.234,10.24,37.756,6.434,44.11-2.118C218.995,143.319,219.906,142.2,218.831,140.576Z" transform="translate(-118.072 8.06)" fill="#fff"/>
        <path id="Trazado_101527" data-name="Trazado 101527" d="M182.053,82.085c-4.144.481-13,3.63-14.706,8.562-1.28,3.706,2.132,2.763,5.731.6a20.943,20.943,0,0,1,8.394-3.14c2.991-.526,8.087-.307,8.3-2.726C189.95,83.46,187.862,81.409,182.053,82.085Z" transform="translate(-124.987 -52.873)" fill="#fff"/>
        <path id="Trazado_101539" data-name="Trazado 101539" d="M195.032,131.011c-.055-.488-.733-.793-1.01-.272-.647,1.221-.987,2.571-1.68,3.779a22.309,22.309,0,0,0-1.991,3.318.553.553,0,0,0,.676.676C193.478,137.523,195.319,133.578,195.032,131.011Z" transform="translate(-100.607 -2.011)" fill="#191919"/>
        <path id="Trazado_101540" data-name="Trazado 101540" d="M194.026,137.09a20.482,20.482,0,0,0-4.76-1.6,28.1,28.1,0,0,0-4.748-1.237.447.447,0,0,0-.313.756,15.513,15.513,0,0,0,4.234,2.19c1.614.61,3.439,1.446,5.182,1.391A.81.81,0,0,0,194.026,137.09Z" transform="translate(-107.164 1.954)" fill="#191919"/>
        <path id="Trazado_101541" data-name="Trazado 101541" d="M189.674,136.9c-1.616-.111-3.224.68-4.855.789a33.843,33.843,0,0,1-4.926-.221c-.451-.037-.586.617-.223.826,2.64,1.524,8.155,2.169,10.445-.33A.631.631,0,0,0,189.674,136.9Z" transform="translate(-111.998 4.72)" fill="#191919"/>
      </g>
    </g>
    <g id="Grupo_54146" data-name="Grupo 54146" transform="translate(114.229 318.628)">
      <path id="Trazado_101543" data-name="Trazado 101543" d="M207.876,235.518l-13.718,7.921-6.221-3.593,13.72-7.919-12.239-7.067-13.72,7.921-30.011-17.327a12.7,12.7,0,0,0,3.812-7.776l.012,0v-.313a11.631,11.631,0,0,0,0-1.487v-8.9l-3.7.424a29.809,29.809,0,0,0-8.179-6.684c-6.08-3.509-13.962-9.257-21.432-10.082-10.285-1.137-20.214,3.874-27.461,8.056A22.031,22.031,0,0,0,84.99,191.4l-4.7-1.114v10.756h.033c.043,5.525,4.06,11.342,11.922,15.881,12.34,7.124,30.118,8.806,42.844,4.654l60.709,35.05,8.444-4.875L206.4,250.5l13.718-7.921ZM132.5,208.532c-.739,1.243-33.846-.774-34.886-2.479-2.251-3.679-1.2-7.663,3.357-10.3,6.668-3.849,18.356-3.366,26.056,1.079C132.8,200.17,134.719,204.8,132.5,208.532Z" transform="translate(-80.289 -173.184)" fill="#ffb24d"/>
      <path id="Trazado_101544" data-name="Trazado 101544" d="M146.56,200.4v10.632l-13.719,7.921V208.321Z" transform="translate(-25.193 -152.29)" fill="#f99d23"/>
      <path id="Trazado_101545" data-name="Trazado 101545" d="M161,205.6l-24.319,14.04v10.632L161,216.235Z" transform="translate(-21.17 -146.836)" fill="#f99d23"/>
      <path id="Trazado_101546" data-name="Trazado 101546" d="M92.244,210.019c-14.447-8.341-16.023-21-3.509-28.229s34.446-6.315,48.893,2.026c12.338,7.122,15.252,17.387,8.058,24.736L175.7,225.877l13.72-7.919,12.239,7.065-13.72,7.921,6.221,3.591,13.718-7.921,12.239,7.067L206.4,243.6l-2.157,1.243-8.444,4.875-60.709-35.05C122.361,218.825,104.583,217.141,92.244,210.019ZM128.9,204.98c6.67-3.851,5.83-10.6-1.868-15.044s-19.388-4.93-26.056-1.079-5.828,10.6,1.87,15.041S122.232,208.829,128.9,204.98Z" transform="translate(-80.289 -176.914)" fill="#ffcc5a"/>
    </g>
    <g id="Grupo_54151" data-name="Grupo 54151" transform="translate(57.536 41.742)">
      <g id="Grupo_54148" data-name="Grupo 54148" transform="translate(0)">
        <g id="Grupo_54147" data-name="Grupo 54147" transform="translate(0 67.466)">
          <path id="Trazado_101554" data-name="Trazado 101554" d="M64.036,128.955l78.784,45.487-12.485,21.625L52.612,151.192v92.864l41,23.673,13.429-21.752-16.926-5.146,70.121-40.483c4.261-2.46,7.716-9.062,7.716-14.742V111.945l17.764,9.392,9.355-21.162L154.479,76.739Z" transform="translate(-52.612 -72.518)" fill="#05c194"/>
          <path id="Trazado_101555" data-name="Trazado 101555" d="M142.82,147.717,64.036,102.23l-3.708,2.143c-4.263,2.46-7.716,9.06-7.716,14.742v5.352l77.723,44.874Z" transform="translate(-52.612 -45.793)" fill="#03e6b0"/>
          <path id="Trazado_101556" data-name="Trazado 101556" d="M112.885,75.038l-.029.035a5,5,0,0,0-4.756.5L102.342,78.9l40.593,23.436,3.363-7.606Z" transform="translate(-0.475 -74.678)" fill="#03e6b0"/>
          <path id="Trazado_101557" data-name="Trazado 101557" d="M52.612,166.563c0,2.987.969,5.092,2.493,6.092l-.018.029,32.543,19.1,5.983-9.689-41-23.673Z" transform="translate(-52.612 13.118)" fill="#03e6b0"/>
          <path id="Trazado_101558" data-name="Trazado 101558" d="M176.121,211.854,76.212,269.535C71.952,272,68.5,269.386,68.5,263.7V157.344c0-5.682,3.456-12.282,7.716-14.742l99.909-57.683c4.263-2.46,7.716.152,7.716,5.832V197.112C183.838,202.792,180.384,209.394,176.121,211.854Z" transform="translate(-35.959 -64.913)" fill="#03e6b0"/>
          <path id="Trazado_101559" data-name="Trazado 101559" d="M163.048,196.681,80.971,244.068c-3.5,2.022-6.34-.125-6.34-4.791V151.9c0-4.668,2.839-10.09,6.34-12.112L163.048,92.4c3.5-2.022,6.34.125,6.34,4.791v87.379C169.388,189.237,166.549,194.659,163.048,196.681Z" transform="translate(-29.527 -56.898)" fill="#004080" opacity="0.2"/>
        </g>
        <path id="Trazado_101560" data-name="Trazado 101560" d="M127.541,142.288a.645.645,0,0,0-1.02-.195.121.121,0,0,0,.029.219c.066.014-1.731,1.475-1.917,1.618-.979.754-1.956,1.5-2.98,2.194-1.663,1.123-3.626,1.95-5.111,3.3-.567.514.037,1.368.707,1.217,3.271-.737,6.917-3.822,9.21-6.2C126.873,144,127.973,143.041,127.541,142.288Z" transform="translate(14.175 63.292)" fill="#1d6b44"/>
        <path id="Trazado_101561" data-name="Trazado 101561" d="M127.122,132.148a.12.12,0,0,0-.133-.053c-1.608.6-2.35,3.38-3.239,4.769-1.4,2.19-3.2,4.066-4.642,6.221-.356.535.328,1.1.834.832a14.416,14.416,0,0,0,5.432-5.688C126.217,136.8,128.14,133.768,127.122,132.148Z" transform="translate(17 52.978)" fill="#1d6b44"/>
        <path id="Trazado_101565" data-name="Trazado 101565" d="M118.865,124.437c0-9.74-5.924-14.218-13.229-10s-13.229,15.535-13.229,25.275c0,6.315,2.5,10.4,6.239,11.354l-6.239,28.075,13.229-7.639,13.229-7.636L112.626,143A33.69,33.69,0,0,0,118.865,124.437Z" transform="translate(-10.89 32.806)" fill="#282828"/>
        <path id="Trazado_101568" data-name="Trazado 101568" d="M142.158,145.251c-.027-7.622-.049-15.336-1.637-22.811-.039-.182-.295-.125-.307.041-.93,12.534,2.089,26.353-1.194,38.631-3.236,12.106-20.033,15.853-29.1,22.477-.453.33-.2,1.235.418.993,6.551-2.542,12.9-6.368,19.017-9.826,4.756-2.69,9.072-5.766,11.1-11.045C142.655,158,142.178,151.238,142.158,145.251Z" transform="translate(7.224 42.743)" fill="#1d6b44"/>
        <path id="Trazado_101571" data-name="Trazado 101571" d="M155.575,44.37c-6.584-3.8-14.716-3.464-22.307.922L86.736,72.158C73.493,79.8,63.509,98.474,63.509,115.591V169.72c0,3.1,4.726,5.617,10.557,5.617s10.56-2.515,10.56-5.617h.08V115.591c0-10.179,6.668-21.633,12.628-25.075,0,0,29.743-18.483,41.085-23.913,3.568-1.708,7.477.59,7.477,5.9v52.793h.08c0,3.1,4.728,5.617,10.56,5.617s10.557-2.515,10.557-5.617V68.023C167.093,57.217,162.9,48.6,155.575,44.37Z" transform="translate(-41.188 -41.742)" fill="#e8e8e8"/>
      </g>
      <g id="Grupo_54150" data-name="Grupo 54150" transform="translate(69.11 103.119)">
        <g id="Grupo_54149" data-name="Grupo 54149" transform="translate(0.09 76.78)">
          <path id="Trazado_101594" data-name="Trazado 101594" d="M93.112,130.631a2.808,2.808,0,0,0-2.753-1.032,4.576,4.576,0,0,0-3.894,5.344c.436,2.472,2.737,4.216,5.264,2.952C94.376,136.571,94.882,133.056,93.112,130.631Z" transform="translate(-86.394 -129.566)" fill="#fff"/>
          <path id="Trazado_101595" data-name="Trazado 101595" d="M92.03,131.517a2.418,2.418,0,0,0-2.044-1.045,3.024,3.024,0,0,0-2.573,3.534c.289,1.633,1.9,2.95,3.478,1.95A3.262,3.262,0,0,0,92.03,131.517Z" transform="translate(-85.376 -128.627)" fill="#cdcdcd"/>
          <path id="Trazado_101596" data-name="Trazado 101596" d="M91.84,131.666a2.1,2.1,0,0,0-1.77-.905,2.624,2.624,0,0,0-2.233,3.062c.252,1.417,1.651,2.558,3.017,1.69A2.825,2.825,0,0,0,91.84,131.666Z" transform="translate(-84.924 -128.323)" fill="#b5b5b5"/>
        </g>
        <path id="Trazado_101597" data-name="Trazado 101597" d="M133.334,113.538a38.458,38.458,0,0,1-1.215-9.552c.106-6.366.733-9.773-1.458-11.428-2.069-1.563-3.9.891-5.346,5.06-.946,2.737.227,6.43-1.129,7.733s-4.423-1.03-5.557-.078c-2.208,1.854.467,2.927,2.04,3.333s2.855,1.327,4.674,3.206,4.332,4.312,4.332,4.312Z" transform="translate(-53.389 -92.083)" fill="#ffc9b6"/>
        <path id="Trazado_101598" data-name="Trazado 101598" d="M120.181,180.461s11.508,6.639,19.765,11.608,13.382.9,12.186-2.5c-1.329-3.785-7.665-6.743-10.811-9.691-.393-3.146-1.813-6.561-7.139-6.827a59.859,59.859,0,0,1-10.5-1.6S117.714,174.5,120.181,180.461Z" transform="translate(-51.509 -8.879)" fill="#282828"/>
        <path id="Trazado_101599" data-name="Trazado 101599" d="M138.055,169.953s11.508,6.639,19.763,11.608,13.384.9,12.188-2.5c-1.329-3.785-7.667-6.743-10.811-9.691-.393-3.144-1.813-6.561-7.139-6.827a59.858,59.858,0,0,1-10.5-1.6S135.589,163.99,138.055,169.953Z" transform="translate(-32.77 -19.896)" fill="#282828"/>
        <path id="Trazado_101600" data-name="Trazado 101600" d="M150.082,131.466c.885-2.161,1.12-8.968.432-11.942-1.44-6.225-3.085-11.2-13.075-18.333-3.658-.25-6.129,3.689-6.129,3.689s1.819,8.605,5.012,14.742c-3.687-2.128-6.928-4.326-9.765-4.787-5.24-.854-8.82.6-10.715,4.89a1.183,1.183,0,0,0-.063.125l-.008.029c-4.216,7.214-.83,14.259,4.519,16.537,7.985,3.4,14.308,4.523,22.178,1.524C146.6,139.9,150.915,137.3,150.082,131.466Z" transform="translate(-57.495 -82.547)" fill="#016bd2"/>
        <path id="Trazado_101601" data-name="Trazado 101601" d="M142.5,176.633c-.008-.1,1.211-7.731,1.032-9.435-.344-3.267.012-7.88-1.475-10.744,4.423-6.8.541-15.412-.567-18.446-1.518-4.158-4.986-5.9-9.154-6.905.039-.027.072-.055.111-.082,1.422-.975-12.344,6.991-14.74,13.677-1.26,3.515-.934,5.064.131,8.532,1.264,4.111,1.438,8.462,2.657,12.6,1.516,5.146,4.717,14.454,9.589,19.779-.809,1.356-.848,3.855.729,4.638,3.345,1.659,7.716,2.886,10.467,3.935,3.374,1.288,15.8,7.243,18.341,7.227.885-4.959,1.1-7.79,5.666-8.528C156.439,184.916,151.349,175.6,142.5,176.633Z" transform="translate(-54.333 -51.347)" fill="#035db5"/>
        <path id="Trazado_101602" data-name="Trazado 101602" d="M139.521,173.87c2.489-3.507,5.309-8.1,5.3-12.559,7.311-2.081,10.408-12.317,8.892-19.165-.694-3.14-1.073-6.686-4.726-6.26-3.423.4-7.108,2.169-10.406,3.165-3.161.953-10.1,2.614-10.488,2.884-2.534,1.766-4.2,3.216-6.639,7.913-1.628,3.136-2.9,9.042-5.041,11.934a47.606,47.606,0,0,0-8.571,17.276c-2.448,4.9-5.2,12.311-3.974,16.662a4.091,4.091,0,0,0-1.079,2.88c.08,3.261,6.352,4.859,8.706,6.479,9.076,6.246,18.9,11.856,29.544,14.583.01-3.62-.164-7.946,4.552-9.945-4.8-4.816-6.1-9.117-11.238-13.487-4.791-4.076-7.393-2.616-10.981-4.076a45.268,45.268,0,0,0,6.295-11.461C133.832,179.88,136.974,177.457,139.521,173.87Z" transform="translate(-69.116 -46.196)" fill="#016bd2"/>
        <path id="Trazado_101603" data-name="Trazado 101603" d="M148.6,153.368c-.168-1.8-.414-7.11-.641-11.238-.516-9.417-2.245-16.184-5.586-25.062-2.147-5.7-6.28-8.872-12.032-7.813-6.225,1.145-10.041,4.738-14.193,9.486a53.749,53.749,0,0,0-7.856,12.071c-1.458,3.2-1.157,5.6-1.559,9.373-1.084,10.152,5.1,19.038,14.118,22.893-1.268,1.155-2.188,2.638-1.585,4.453a3.028,3.028,0,0,0,2.388,2.122c-2.688,1.489-3.54,4.785,1.637,6.09,6.186,1.561,12.891.047,18.159-3.122,2.954-1.776,7.694-7.321,9.392-10.459a8.563,8.563,0,0,0,1-6.188C151.429,154.091,148.459,155.33,148.6,153.368Z" transform="translate(-65.106 -74.292)" fill="#0077ec"/>
        <path id="Trazado_101604" data-name="Trazado 101604" d="M129.443,128.593c-1.061-2.6-4.89-27.758-9.281-29.495-3.788-1.5-11.27,1.483-12.776,2.315-4.306,2.382-5.066,4.009-3.749,7.544.617,1.653,2.755,2,3.749,4.459,1.4,3.472,1.184,7.886,1.5,9.63,1.469,8.237,4.289,9.791,7.927,10.594C122.712,134.943,131.176,132.827,129.443,128.593Z" transform="translate(-68.841 -85.164)" fill="#205bba"/>
        <path id="Trazado_101605" data-name="Trazado 101605" d="M127.877,116.913c-9.136,9.621,5.137,29.372-5.154,40.733-2.806,3.1-6.936,3.564-10.611,5.033-1.155.461-2.212,1.075-3.343,1.579-4.9,2.177-8.495,2.86-10.822-2.3-2.542-5.641-2.833-10.965-8.286-14.722-.67-.461-1.278.617-.633,1.082,5.543,3.988,5.389,9.853,8.319,15.275.959,1.778,1.952,3.148,3.882,3.7,2.206.637,4.836-.42,6.879-1.223,3.761-1.477,7.638-2.706,11.293-4.429,17.626-8.312.436-31.763,9.156-44.211C128.674,117.263,128.011,116.772,127.877,116.913Z" transform="translate(-83.829 -66.078)" fill="#191919"/>
        <path id="Trazado_101606" data-name="Trazado 101606" d="M111.22,115.008a31.31,31.31,0,0,1,1.672,6.192c.1,1.966,6.266,1.671,8.048-2.751s.9-8.65.5-8.65S111.22,115.008,111.22,115.008Z" transform="translate(-60.277 -73.51)" fill="#ffb9a4"/>
        <path id="Trazado_101607" data-name="Trazado 101607" d="M117.93,98.984c-7.124-1.905-10.4,5.211-10.977,11.981a25.659,25.659,0,0,0,1.491,12.127c1.237,3.161,3.212,6.26,6.954,6.471,5.154.293,8.384-4.523,10.514-8.484C130.724,112.124,128.821,101.9,117.93,98.984Z" transform="translate(-64.961 -85.178)" fill="#ffc9b6"/>
        <path id="Trazado_101608" data-name="Trazado 101608" d="M103.05,135.179c-1.44-1.7-5.019-1.026-7.262-3.282-1.069-1.075-2.247-2.542-2.6-1.7a4.187,4.187,0,0,0,.651,2.952c.531.8,1.186.791.957,1.551-.606,2.007-7.88-.52-8.31,1.547-.737,3.54,1.551,7.149,8.241,6.229,3.74-.516,10.3-1.61,10.3-1.61S104.539,136.94,103.05,135.179Z" transform="translate(-86.35 -52.387)" fill="#ffc9b6"/>
        <path id="Trazado_101609" data-name="Trazado 101609" d="M133.8,122.354c-3.2-2.921-7.9-4.113-11.334-.61-1.749,1.786-4.134,12.088-.475,16.326-1.911,4.842-3.23,8.741-2.993,11.195-2.356-.041-3.15.408-3.63,1.526-6.053-2.335-13.669-7.03-18.407-6.393-4.087.879-7.548,6.047-4.009,9.079,3.306,2.833,7.893,5.389,12.088,7.78a33.2,33.2,0,0,0,16.946,4.57c7.184,4.128,7.108-4.609,10.082-10.566,4.619-3.736,7-11.852,7.956-17.987C141.064,130.6,138.569,126.709,133.8,122.354Z" transform="translate(-80.963 -63.242)" fill="#016bd2"/>
        <path id="Trazado_101610" data-name="Trazado 101610" d="M130.14,100.815c-4.6-3.886-15.191-5.193-18.38,1.024a6.889,6.889,0,0,0-3.394.7,4.861,4.861,0,0,0-2.737,4.468,3.606,3.606,0,0,0,1.338,2.425,4.14,4.14,0,0,0-2.356,2.438,3.169,3.169,0,0,0,2.153,4.257c3.536,1.041,9.07-1.393,12.149-4.59.029.77.141,1.54.19,2.116.166,1.954.305,4.371,1.651,5.924,2.061,2.376,5.18,1.2,7.186-.735a5.955,5.955,0,0,0,2.679,3.677.929.929,0,0,0,.953,0C138.522,117.42,135.8,105.6,130.14,100.815Z" transform="translate(-67.435 -86.364)" fill="#191919"/>
        <path id="Trazado_101611" data-name="Trazado 101611" d="M134.842,105.858c-3.566-8.4-9.748-9.681-17.276-8.976-4.164.391-9.144,3.263-12.4,6.594,8.067-1.223,16.15,2.257,18.389,8.439a32.5,32.5,0,0,1,2.366,10.072c.195,3.892.193,10.107-3.71,11.592-3.118,1.184-6.614-.43-7.622,2.124,5.09,5.342,17.721.766,19.312-5.406C136.071,121.887,138.163,113.691,134.842,105.858Z" transform="translate(-66.623 -87.226)" fill="#016bd2"/>
        <path id="Trazado_101612" data-name="Trazado 101612" d="M125.04,110.629c-1.93,2.173-3.333,4.908-5.109,7.161-2.81,3.564-6.725,7.233-10.041,6.053-2.911-1.3-2.923-6.678-2.2-9.044a14.2,14.2,0,0,1,1.659-3.384c-.188-.467-.287-.739-.428-1.163a13.249,13.249,0,0,0-2.858,7.981c.061,2.657,1.016,6.182,3.865,6.772,3.587.742,7.72-1.833,11.192-6.723,1.393-1.96,2.765-3.941,3.818-5.731A15.24,15.24,0,0,0,125.04,110.629Z" transform="translate(-65.682 -73.035)" fill="#fff"/>
        <path id="Trazado_101613" data-name="Trazado 101613" d="M115.143,140.224s5.344,2.036,9.095,1.112a24.508,24.508,0,0,0,7.561-3.851s-3.159.653-7.561,1.62A57.413,57.413,0,0,1,115.143,140.224Z" transform="translate(-56.164 -44.484)" fill="#205bba"/>
        <path id="Trazado_101614" data-name="Trazado 101614" d="M115.3,140.2a29.769,29.769,0,0,0,8.007-3.493c3.314-2.276,6.575-5.008,6.575-5.008a13.226,13.226,0,0,1-5.807,6.686A14.031,14.031,0,0,1,115.3,140.2Z" transform="translate(-56.001 -50.547)" fill="#205bba"/>
      </g>
    </g>
    <g id="Grupo_54167" data-name="Grupo 54167" transform="translate(318.94 188.264)">
      <path id="Trazado_101615" data-name="Trazado 101615" d="M233.117,132.2c-.483-4.291-3.409-7.872-7.948-7.473-5.5-2.263-11.674,2.253-14.781,6.717-.891,1.278-1.391,3.5-2.393,4.617a23.963,23.963,0,0,0-13.692,8.908c-2.134,2.827-3.146,6.186-5.037,9.093-1.028,1.583-1.37,2.616-.506,4.427,1.911,4.009,8.579,5.408,10.094.858a18.754,18.754,0,0,0,13.433-3.265c1.657-1.2,2.679-3.062,4.232-4.25,1.315-1,2.606-1.086,4.144-1.575a17.862,17.862,0,0,0,6.379-3.632C231.066,143.095,233.727,137.63,233.117,132.2Z" transform="translate(-171.793 -101.891)" fill="#205bba"/>
      <path id="Trazado_101616" data-name="Trazado 101616" d="M215.766,195.714c-.578-2.675-2.21-5.111-5.225-4.877a25.6,25.6,0,0,0-5.135,1.3c-1.094,3.181-3.7,4.113-6.258,5.723a34.75,34.75,0,0,0-6.1,4.8c-2.067,2.069-3.464,4.062-1.223,6.508,5.531,6.035,13.1-.025,16.725-5,1.08,1.266,3.869.236,5.387-.6C216.8,201.986,216.444,198.856,215.766,195.714Z" transform="translate(-169.261 -31.969)" fill="#282828"/>
      <path id="Trazado_101617" data-name="Trazado 101617" d="M228.782,199.464c.6.651,2.536,2.442,2.835,4.379s.9,3.581,0,6.414-2.331,2.372-2.331,2.372-.8,5.234-2.888,8.366-7.692,5.012-10.291,4.324c-4.742-1.258-6.055-5.107-3.452-9.879,2.761-5.058,6.915-9.165,7.673-12.9C221.25,198,228.782,199.464,228.782,199.464Z" transform="translate(-147.607 -23.146)" fill="#282828"/>
      <path id="Trazado_101618" data-name="Trazado 101618" d="M230.391,169.415s-7.176,10.242-10.445,17.663-9.474,10.807-11.905,13.892c1.063,2.661,7.141,6.287,7.141,17.782a161.948,161.948,0,0,1-1.135,16.758s-6.749,5.537-10.26,1.755c-.711-3.484-4.529-12.44-6.7-21.568-1.174-4.935-3.062-9.079-3.429-12.889-.295-3.083-1.975-3.624-1.958-7.768.01-2.853,3.148-4.611,4.1-7.833,1.381-4.674,2.083-9.011,5.42-15.877,6.024-12.395,10.174-22.514,10.547-22.784S224.623,156,224.623,156Z" transform="translate(-168.201 -76.297)" fill="#205bba"/>
      <path id="Trazado_101619" data-name="Trazado 101619" d="M229.994,154.982s3.124,2.093,5.082,10.549c2.642,11.408-.139,13.825-1.551,20.119,1.966,9.208-4.308,25.748-4.308,25.748s7.516,12.333,8.417,23.651a98.153,98.153,0,0,1-.086,18.743s-1.266,2.573-3.605,3.105a9.231,9.231,0,0,1-6.346-1.215,168.852,168.852,0,0,1-7.374-17.1c-1.342-3.669-2.8-8.245-4.171-11.442-2.009-4.672-4.009-7.216-4.754-9.189-1.12-2.972-.27-6.1-.776-8.9-1.28-7.1-2.593-13.194-2.837-17.491-.338-6,1.686-13.778,1.686-13.778s-7.759-5.635-3.88-21.787S229.994,154.982,229.994,154.982Z" transform="translate(-154.876 -76.293)" fill="#2471c6"/>
      <path id="Trazado_101620" data-name="Trazado 101620" d="M225.677,130.5c-2.065-.649-11.662-6.786-12.469-6.387-5.793,2.874-12.346,14.124-13.194,21.746a46.717,46.717,0,0,0,2.216,16.42c-1.946,3.15-.313,5.523-.2,6.436a29.232,29.232,0,0,1-1.2,8.208c-1.141,2.831-2.2,4.73-1.051,5.838,2.8,2.706,9.912,6.627,18.872,8.128,9.5,1.594,15.869-4.177,18.833-8.128.7-.934-.426-5.93-2.515-7.262,1.592-4.838,3.218-10.875,4.775-16.678,2.343-8.732,6.3-18.933-1.1-22.713A100.847,100.847,0,0,0,225.677,130.5Z" transform="translate(-160.246 -101.924)" fill="#3688d8"/>
      <path id="Trazado_101621" data-name="Trazado 101621" d="M222.758,144.848c-.971-2.37-4.468-25.363-8.48-26.951-3.464-1.37-11.825-2.21-12.975-1.137-2.7,2.517-2.362,7.331-.531,14.161.885,3.3,1.885,8.317,2.169,9.908,1.342,7.528,6.233,10.764,9.556,11.5C217.893,153.516,224.341,148.719,222.758,144.848Z" transform="translate(-160.189 -110.127)" fill="#205bba"/>
      <path id="Trazado_101622" data-name="Trazado 101622" d="M206.828,129.039c-.977,2.3-2.417,6.319-2.417,6.319a11.392,11.392,0,0,1,3.495,5.762c4.318-1.071,14.073-5.7,14.269-7.7s-4.144-7.841-4.144-7.841S208.969,127.035,206.828,129.039Z" transform="translate(-154.87 -100.365)" fill="#ffb9a4"/>
      <path id="Trazado_101623" data-name="Trazado 101623" d="M202.469,127.742c.141-3.37.871-7.6,3.462-10.006,2.561-2.376,6.958-2.612,10.283-2.378,5.154.361,8.782,6.059,7.87,12.651-.842,6.09-4.908,15.47-11.7,16.742C204.835,146.165,202.256,132.867,202.469,127.742Z" transform="translate(-156.918 -111.16)" fill="#ffc9b6"/>
      <path id="Trazado_101624" data-name="Trazado 101624" d="M211.444,153.164c-3.917-1.215-8.986-3.03-8.986-3.03s4.531,4.244,8.136,5,9.181,0,9.181,0A75.316,75.316,0,0,1,211.444,153.164Z" transform="translate(-156.917 -74.626)" fill="#205bba"/>
      <path id="Trazado_101625" data-name="Trazado 101625" d="M202.458,146.905a64.7,64.7,0,0,1,7.5,1.485c2.659.809,8.132,3.241,8.132,3.241s-5.34-.709-8.714-1.368A20.228,20.228,0,0,1,202.458,146.905Z" transform="translate(-156.917 -78.011)" fill="#205bba"/>
      <path id="Trazado_101626" data-name="Trazado 101626" d="M210,117.023c5.408-4.406,15.056-4.113,18.214,3.341a17.639,17.639,0,0,1,.795,7.7c-1.2,5.135-1.717,6.6-2.52,10.572-3.976-2.434-4.463-2.442-5.461-4.1-.832-1.387-2.546-3.808-2.853-5.41-2.161,1.717-6.4,1.672-8.611,1.323-4.39-.69-8.382-1.7-9.165-5.885C199.771,121.194,201.936,116.487,210,117.023Z" transform="translate(-159.183 -112.361)" fill="#191919"/>
      <path id="Trazado_101627" data-name="Trazado 101627" d="M220.154,122.511c-2.745,1.835-7.768,2.931-11.9,2.4a11.629,11.629,0,0,1-5.637-1.905c-.588,2.956.2,4.466,1.055,5.32a2.485,2.485,0,0,0,2.831,0c.764-.479,1.207-1.307,2.155-1.26.881.043,1.137.789,1.887,1.436,1,.869,2.485,1.665,3.726,1.362,1.706-.418,3.259-1.317,3.818-4.955C220.783,124.064,220.433,122.325,220.154,122.511Z" transform="translate(-156.962 -103.6)" fill="#2d2d2d"/>
      <path id="Trazado_101628" data-name="Trazado 101628" d="M210.067,124.383s1.266-2.683,3.292-.557-.811,5.67-.811,5.67Z" transform="translate(-148.94 -103.067)" fill="#ffc9b6"/>
      <path id="Trazado_101629" data-name="Trazado 101629" d="M241.453,183.326c.231-5.482-2.911-12.215-3.851-13.444,2.55-7.831,3.429-15.853-3.808-20.584a17.758,17.758,0,0,0-.727-9.251c-1.837-5-6.655-8.226-11.518-10.086-5.043,0-9.992,13.581-.905,26.615-1.372,3.839-2.063,8.978-.234,12.741.875,1.8,3.335,3.2,5.225,4.726a18.154,18.154,0,0,0,1.784,5.588c2.208,4.068.264,14.163,4.615,14.746C234.952,194.768,241.077,192.271,241.453,183.326Z" transform="translate(-143.156 -95.775)" fill="#2471c6"/>
      <g id="Grupo_54166" data-name="Grupo 54166" transform="translate(5.273 29.738)">
        <g id="Grupo_54152" data-name="Grupo 54152">
          <path id="Trazado_101630" data-name="Trazado 101630" d="M184.952,188.708l79,45.613V173.4l-79-45.614Z" transform="translate(-180.544 -127.79)" fill="#ffcc5a"/>
          <path id="Trazado_101631" data-name="Trazado 101631" d="M182.8,189.8l79,45.613V174.5l-79-45.613Z" transform="translate(-182.799 -126.64)" fill="#ffcc5a"/>
          <path id="Trazado_101632" data-name="Trazado 101632" d="M222.3,182.152l39.5-7.652-79-45.613Z" transform="translate(-182.799 -126.64)" fill="#ffe473"/>
          <path id="Trazado_101633" data-name="Trazado 101633" d="M241.587,155.125l-32.524,6.211,32.524,43.991v6.745l-39.5-53.265,39.5-7.652Z" transform="translate(-162.582 -103.295)" fill="#ffb24d"/>
          <path id="Trazado_101634" data-name="Trazado 101634" d="M182.8,134.67,216.015,179.4,182.8,185.979V189.8l39.5-7.652-39.5-53.265Z" transform="translate(-182.799 -126.64)" fill="#ffb24d"/>
          <path id="Trazado_101635" data-name="Trazado 101635" d="M225.776,150.058l-4.407,2.246v60.917l4.407-2.246Z" transform="translate(-142.364 -104.444)" fill="#f99d23"/>
          <path id="Trazado_101636" data-name="Trazado 101636" d="M182.8,130.035a22.1,22.1,0,0,1,4.408-2.245l79,45.614-4.408,2.245Z" transform="translate(-182.8 -127.79)" fill="#ffb24d"/>
        </g>
        <g id="Grupo_54161" data-name="Grupo 54161" transform="translate(18.249 28.469)">
          <g id="Grupo_54156" data-name="Grupo 54156">
            <g id="Grupo_54153" data-name="Grupo 54153" transform="translate(2.276)">
              <path id="Trazado_101637" data-name="Trazado 101637" d="M203.51,163.63a2.032,2.032,0,0,1-.645-.641l-8.132-12.163-1.839-7.561c-.221-.916.076-1.62.666-1.575s1.245.819,1.469,1.733l1.588,6.526,7.544,11.283a2.247,2.247,0,0,1,.291,2.284A.67.67,0,0,1,203.51,163.63Z" transform="translate(-192.82 -141.688)" fill="#2d2d2d"/>
            </g>
            <g id="Grupo_54154" data-name="Grupo 54154" transform="translate(2.276 25.834)">
              <path id="Trazado_101638" data-name="Trazado 101638" d="M193.961,165.216a1.793,1.793,0,0,1-.4-.332,2.654,2.654,0,0,1-.666-2.343l1.839-5.436,8.132-2.774c.522-.174,1.231.41,1.585,1.3s.227,1.77-.291,1.948l-7.544,2.571-1.588,4.693A.668.668,0,0,1,193.961,165.216Z" transform="translate(-192.82 -154.3)" fill="#2d2d2d"/>
            </g>
            <g id="Grupo_54155" data-name="Grupo 54155" transform="translate(0 15.335)">
              <path id="Trazado_101639" data-name="Trazado 101639" d="M206.953,160.5l-14.1-8.142a2.731,2.731,0,0,1-1.141-2.179c0-.84.51-1.225,1.141-.862l14.1,8.142a2.731,2.731,0,0,1,1.141,2.179C208.094,160.473,207.584,160.858,206.953,160.5Z" transform="translate(-191.709 -149.174)" fill="#2d2d2d"/>
            </g>
          </g>
          <g id="Grupo_54160" data-name="Grupo 54160" transform="translate(22.131 18.29)">
            <g id="Grupo_54157" data-name="Grupo 54157" transform="translate(2.276)">
              <path id="Trazado_101640" data-name="Trazado 101640" d="M204.765,161.533a.786.786,0,0,0,.647.1l8.13-2.771,1.839-5.439a2.644,2.644,0,0,0-.666-2.343c-.588-.639-1.245-.619-1.469.037l-1.585,4.693-7.544,2.573c-.518.176-.649,1.049-.293,1.946A2.428,2.428,0,0,0,204.765,161.533Z" transform="translate(-203.624 -150.617)" fill="#2d2d2d"/>
            </g>
            <g id="Grupo_54158" data-name="Grupo 54158" transform="translate(2.276 14.807)">
              <path id="Trazado_101641" data-name="Trazado 101641" d="M214.315,179.789a.922.922,0,0,0,.4.133c.592.045.889-.66.666-1.575l-1.839-7.561-8.13-12.163c-.522-.776-1.231-1.01-1.587-.524a2.253,2.253,0,0,0,.293,2.284l7.544,11.281,1.585,6.526A2.621,2.621,0,0,0,214.315,179.789Z" transform="translate(-203.624 -157.845)" fill="#2d2d2d"/>
            </g>
            <g id="Grupo_54159" data-name="Grupo 54159" transform="translate(0 9.822)">
              <path id="Trazado_101642" data-name="Trazado 101642" d="M203.654,158.589l14.1,8.142c.629.365,1.139-.023,1.139-.862a2.728,2.728,0,0,0-1.139-2.177l-14.1-8.142c-.631-.365-1.141.023-1.141.862A2.727,2.727,0,0,0,203.654,158.589Z" transform="translate(-202.513 -155.412)" fill="#2d2d2d"/>
            </g>
          </g>
        </g>
        <g id="Grupo_54163" data-name="Grupo 54163" transform="translate(23.233 40.111)">
          <g id="Grupo_54162" data-name="Grupo 54162">
            <path id="Trazado_101643" data-name="Trazado 101643" d="M205.31,148.389a6.453,6.453,0,0,0-4.134-.969l-.012,0-.016.006a7.252,7.252,0,0,0-1.78.676c5.35.44,9.589,6.291,9.589,13.464,0,7.46-4.58,13.507-10.232,13.507a7.776,7.776,0,0,1-1.776-.217A18.983,18.983,0,0,0,209.22,178.9a11.591,11.591,0,0,0,1.4-.465c2.636-1.1,4.379-4.609,4.379-9.748C215,160.564,210.662,151.478,205.31,148.389Z" transform="translate(-191.2 -147.371)" fill="#d33c63"/>
            <path id="Trazado_101644" data-name="Trazado 101644" d="M211.9,161.191c0-7.174-4.238-13.024-9.589-13.464a16.5,16.5,0,0,0-1.79,1.018c-4.2,2.8-6.377,7.446-6.377,13.3a15.823,15.823,0,0,0,5.748,12.438,7.775,7.775,0,0,0,1.776.217C207.317,174.7,211.9,168.651,211.9,161.191Z" transform="translate(-194.142 -146.998)" fill="#dd4a6a"/>
          </g>
          <ellipse id="Elipse_4203" data-name="Elipse 4203" cx="5.384" cy="7.108" rx="5.384" ry="7.108" transform="translate(1.942 4.259)" fill="#e5577d"/>
          <path id="Trazado_101645" data-name="Trazado 101645" d="M201.5,154.462c0,2.153-1.323,3.9-2.954,3.9s-2.954-1.745-2.954-3.9,1.323-3.9,2.954-3.9S201.5,152.309,201.5,154.462Z" transform="translate(-192.622 -144.024)" fill="#fff"/>
        </g>
        <g id="Grupo_54165" data-name="Grupo 54165" transform="translate(32.357 33.157)">
          <g id="Grupo_54164" data-name="Grupo 54164">
            <path id="Trazado_101646" data-name="Trazado 101646" d="M203.1,144.387a2.6,2.6,0,0,0-1.665-.391h0l-.006,0a2.91,2.91,0,0,0-.719.272c2.157.176,3.865,2.536,3.865,5.426,0,3-1.848,5.443-4.123,5.443a3.209,3.209,0,0,1-.717-.086,7.663,7.663,0,0,0,4.947,1.626,4.733,4.733,0,0,0,.565-.186c1.061-.445,1.764-1.858,1.764-3.929C207,149.293,205.254,145.633,203.1,144.387Z" transform="translate(-197.41 -143.977)" fill="#2d2d2d"/>
            <path id="Trazado_101647" data-name="Trazado 101647" d="M205.753,149.546c0-2.89-1.708-5.25-3.865-5.426a6.461,6.461,0,0,0-.721.41,6.1,6.1,0,0,0-2.571,5.359,6.384,6.384,0,0,0,2.317,5.014,3.209,3.209,0,0,0,.717.086C203.906,154.989,205.753,152.551,205.753,149.546Z" transform="translate(-198.596 -143.826)" fill="#3f3f3f"/>
          </g>
          <path id="Trazado_101648" data-name="Trazado 101648" d="M203.318,147.68c0,1.581-.971,2.864-2.169,2.864s-2.169-1.282-2.169-2.864.971-2.866,2.169-2.866S203.318,146.1,203.318,147.68Z" transform="translate(-198.194 -143.098)" fill="#4c4c4c"/>
          <path id="Trazado_101649" data-name="Trazado 101649" d="M201.561,146.834a1.236,1.236,0,1,1-1.19-1.571A1.42,1.42,0,0,1,201.561,146.834Z" transform="translate(-197.983 -142.628)" fill="#fff"/>
        </g>
      </g>
      <path id="Trazado_101650" data-name="Trazado 101650" d="M220.576,161.255c-2.776.875-2.1,4.818-.131,6.762s6.016,3.564,9.257,0,1.247-13.993-2.118-11.67C225.257,157.951,222.709,160.585,220.576,161.255Z" transform="translate(-139.86 -68.462)" fill="#ffc9b6"/>
      <path id="Trazado_101651" data-name="Trazado 101651" d="M181.89,135.877c-1.868,2.8-2.778,6.235.635,10.752s6.825,1.1,6.825-2.128-3.443-8.085-3.443-8.085l-.408-3.771A9.874,9.874,0,0,0,181.89,135.877Z" transform="translate(-180.226 -92.962)" fill="#ffc9b6"/>
      <path id="Trazado_101652" data-name="Trazado 101652" d="M229.157,120.8c-3.257-7.677-11.272-8.609-17.665-6.645-3.654,1.12-8.222,2.7-11.194,5.748,7.37-1.118,18.813,3.509,20.859,9.158,1.166,3.218.668,7.077.84,10.48.178,3.556-1.975,10.265-5.541,11.621-2.847,1.084-4.041,1.973-4.963,4.308,4.652,4.881,17.663-3.97,19.118-9.609C232.592,138.176,232.193,127.959,229.157,120.8Z" transform="translate(-159.183 -113.272)" fill="#2471c6"/>
      <path id="Trazado_101653" data-name="Trazado 101653" d="M206.493,124.723a21.34,21.34,0,0,0,3.075-.182,13.064,13.064,0,0,0,2.315-.445s-.139,2.362-2.315,2.513A3.267,3.267,0,0,1,206.493,124.723Z" transform="translate(-152.687 -101.924)" fill="#ffc9b6"/>
      <path id="Trazado_101654" data-name="Trazado 101654" d="M202.886,123.657s-.358,1.528.629,2.159c1.3.832,2.829-.815,2.829-.815S203.335,123.925,202.886,123.657Z" transform="translate(-156.534 -102.385)" fill="#ffc9b6"/>
    </g>
  </g>
</svg>
