<svg xmlns="http://www.w3.org/2000/svg" width="715" height="257.806" viewBox="0 0 715 257.806">
  <g id="Grupo_57845" data-name="Grupo 57845" transform="translate(-180 -13233.194)">
    <rect id="Rectángulo_5326" data-name="Rectángulo 5326" width="715" height="163" transform="translate(180 13328)" fill="#03e6b0" opacity="0.2"/>
    <path id="Trazado_106708" data-name="Trazado 106708" d="M6.457-8.051a6.057,6.057,0,0,1-.316,2.133A6.509,6.509,0,0,1,4.746-4.125q-1.1,1.1-1.371,1.453A4.413,4.413,0,0,0,2.426.094a3.239,3.239,0,0,0,.785,2.332,3.017,3.017,0,0,0,2.285.82,3.033,3.033,0,0,0,2.227-.82A3.015,3.015,0,0,0,8.578.234H9.984a4.119,4.119,0,0,1-1.254,3.1A4.536,4.536,0,0,1,5.5,4.488,4.465,4.465,0,0,1,2.221,3.316,4.287,4.287,0,0,1,1.031.117a5.275,5.275,0,0,1,.621-2.484,11.462,11.462,0,0,1,2.3-2.766A2.887,2.887,0,0,0,5.027-7.242l.023-.809Zm.188-3.926a.949.949,0,0,1-.258.674.916.916,0,0,1-.7.275.936.936,0,0,1-.709-.275.938.938,0,0,1-.264-.674.9.9,0,0,1,.264-.656.946.946,0,0,1,.709-.27.927.927,0,0,1,.7.27A.914.914,0,0,1,6.645-11.977ZM18.176-7.758l5.215-9.3h1.664L18.891-6.422V0H17.449V-6.422L11.3-17.062h1.711ZM37.734-.949a3.7,3.7,0,0,0,2.455-.826,2.908,2.908,0,0,0,1.072-2.139h1.348A3.97,3.97,0,0,1,41.883-1.8,4.552,4.552,0,0,1,40.107-.3a5.351,5.351,0,0,1-2.373.539A4.9,4.9,0,0,1,33.779-1.5,7.012,7.012,0,0,1,32.32-6.164v-.422A7.927,7.927,0,0,1,32.977-9.9a5.057,5.057,0,0,1,1.881-2.227,5.192,5.192,0,0,1,2.865-.785,4.89,4.89,0,0,1,3.439,1.242A4.529,4.529,0,0,1,42.609-8.4H41.262a3.448,3.448,0,0,0-1.072-2.4,3.472,3.472,0,0,0-2.467-.914,3.5,3.5,0,0,0-2.947,1.371A6.2,6.2,0,0,0,33.727-6.5v.41a6.065,6.065,0,0,0,1.049,3.785A3.52,3.52,0,0,0,37.734-.949Zm15.832-.656A4.558,4.558,0,0,1,49.523.234,3.923,3.923,0,0,1,46.441-.943,5.158,5.158,0,0,1,45.363-4.43v-8.25h1.395v8.074q0,3.621,2.93,3.621,3.047,0,3.855-2.52V-12.68h1.406V0H53.59ZM66.6,0a6.632,6.632,0,0,1-.27-1.77A4.89,4.89,0,0,1,64.447-.287a5.76,5.76,0,0,1-2.42.521,4.25,4.25,0,0,1-2.959-1.02,3.321,3.321,0,0,1-1.131-2.578,3.394,3.394,0,0,1,1.541-2.93,7.4,7.4,0,0,1,4.295-1.078h2.543V-8.812a2.778,2.778,0,0,0-.838-2.139,3.463,3.463,0,0,0-2.443-.779,3.824,3.824,0,0,0-2.426.75,2.228,2.228,0,0,0-.961,1.8l-1.406-.012a3.261,3.261,0,0,1,1.406-2.619,5.415,5.415,0,0,1,3.457-1.107,4.939,4.939,0,0,1,3.346,1.061,3.805,3.805,0,0,1,1.26,2.959v6A7.442,7.442,0,0,0,68.1-.141V0ZM62.191-1.008a4.708,4.708,0,0,0,2.514-.68A4,4,0,0,0,66.316-3.5V-6.293H63.809a6.284,6.284,0,0,0-3.281.768A2.3,2.3,0,0,0,59.344-3.48a2.267,2.267,0,0,0,.791,1.77A2.98,2.98,0,0,0,62.191-1.008Zm2.766-16.852h1.7l-2.707,3.27-1.23-.006ZM73.02,0H71.613V-18H73.02Zm8.719.234a5.5,5.5,0,0,1-2.924-.8,5.431,5.431,0,0,1-2.033-2.221,6.924,6.924,0,0,1-.727-3.193v-.5a7.461,7.461,0,0,1,.709-3.293,5.641,5.641,0,0,1,1.975-2.3,4.871,4.871,0,0,1,2.742-.838,4.578,4.578,0,0,1,3.662,1.576A6.393,6.393,0,0,1,86.5-7.031v.785H77.449v.27a5.309,5.309,0,0,0,1.236,3.592A3.933,3.933,0,0,0,81.8-.949a4.569,4.569,0,0,0,1.986-.41,4.405,4.405,0,0,0,1.564-1.312L86.227-2A5.116,5.116,0,0,1,81.738.234ZM81.48-11.719a3.506,3.506,0,0,0-2.666,1.16A5.36,5.36,0,0,0,77.5-7.441H85.1v-.152a4.653,4.653,0,0,0-1.043-2.977A3.232,3.232,0,0,0,81.48-11.719Zm15.34,8.5A2,2,0,0,0,95.982-4.9a6.462,6.462,0,0,0-2.525-.99,11.394,11.394,0,0,1-2.619-.82A3.489,3.489,0,0,1,89.455-7.84,2.821,2.821,0,0,1,89-9.457a3.017,3.017,0,0,1,1.254-2.479,5.065,5.065,0,0,1,3.211-.979,5.213,5.213,0,0,1,3.4,1.049,3.366,3.366,0,0,1,1.283,2.736H96.75a2.271,2.271,0,0,0-.932-1.852,3.666,3.666,0,0,0-2.35-.738,3.667,3.667,0,0,0-2.221.615,1.9,1.9,0,0,0-.838,1.6,1.729,1.729,0,0,0,.7,1.471,7.375,7.375,0,0,0,2.543.955,11.952,11.952,0,0,1,2.766.926,3.582,3.582,0,0,1,1.365,1.184,3.03,3.03,0,0,1,.445,1.676A3.037,3.037,0,0,1,96.932-.727a5.532,5.532,0,0,1-3.381.961A5.68,5.68,0,0,1,89.959-.838a3.3,3.3,0,0,1-1.377-2.713h1.406a2.439,2.439,0,0,0,1.037,1.916,4.239,4.239,0,0,0,2.525.686,3.985,3.985,0,0,0,2.367-.645A1.934,1.934,0,0,0,96.82-3.223Zm17.988,0a2,2,0,0,0-.838-1.676,6.462,6.462,0,0,0-2.525-.99,11.394,11.394,0,0,1-2.619-.82,3.489,3.489,0,0,1-1.383-1.131,2.821,2.821,0,0,1-.451-1.617,3.017,3.017,0,0,1,1.254-2.479,5.065,5.065,0,0,1,3.211-.979,5.213,5.213,0,0,1,3.4,1.049,3.366,3.366,0,0,1,1.283,2.736h-1.406a2.271,2.271,0,0,0-.932-1.852,3.666,3.666,0,0,0-2.35-.738,3.667,3.667,0,0,0-2.221.615,1.9,1.9,0,0,0-.838,1.6,1.729,1.729,0,0,0,.7,1.471,7.375,7.375,0,0,0,2.543.955,11.952,11.952,0,0,1,2.766.926,3.582,3.582,0,0,1,1.365,1.184,3.03,3.03,0,0,1,.445,1.676A3.037,3.037,0,0,1,114.92-.727a5.532,5.532,0,0,1-3.381.961,5.68,5.68,0,0,1-3.592-1.072,3.3,3.3,0,0,1-1.377-2.713h1.406a2.439,2.439,0,0,0,1.037,1.916,4.239,4.239,0,0,0,2.525.686,3.985,3.985,0,0,0,2.367-.645A1.934,1.934,0,0,0,114.809-3.223Zm3.785-3.3A7.461,7.461,0,0,1,119.3-9.82a5.4,5.4,0,0,1,2-2.279,5.4,5.4,0,0,1,2.936-.814,5.216,5.216,0,0,1,4.1,1.775,6.841,6.841,0,0,1,1.57,4.705v.293a7.527,7.527,0,0,1-.709,3.311,5.294,5.294,0,0,1-2,2.268,5.479,5.479,0,0,1-2.941.8,5.221,5.221,0,0,1-4.1-1.775,6.825,6.825,0,0,1-1.576-4.705ZM120-6.141a5.753,5.753,0,0,0,1.178,3.732,3.777,3.777,0,0,0,3.088,1.459,3.765,3.765,0,0,0,3.076-1.459,5.943,5.943,0,0,0,1.178-3.85v-.27a6.45,6.45,0,0,0-.539-2.66,4.331,4.331,0,0,0-1.512-1.869,3.863,3.863,0,0,0-2.227-.662,3.747,3.747,0,0,0-3.059,1.471A5.952,5.952,0,0,0,120-6.4Zm14.145-6.539.047,2.168a5.035,5.035,0,0,1,1.781-1.787,4.629,4.629,0,0,1,2.355-.615,3.8,3.8,0,0,1,3.035,1.148,5.18,5.18,0,0,1,1.008,3.445V0h-1.395V-8.332a3.874,3.874,0,0,0-.721-2.531,2.823,2.823,0,0,0-2.268-.832,3.547,3.547,0,0,0-2.3.814,4.771,4.771,0,0,0-1.482,2.2V0h-1.395V-12.68ZM6.738,30.234a5.5,5.5,0,0,1-2.924-.8,5.431,5.431,0,0,1-2.033-2.221,6.924,6.924,0,0,1-.727-3.193v-.5a7.461,7.461,0,0,1,.709-3.293,5.641,5.641,0,0,1,1.975-2.3,4.871,4.871,0,0,1,2.742-.838,4.578,4.578,0,0,1,3.662,1.576A6.393,6.393,0,0,1,11.5,22.969v.785H2.449v.27a5.309,5.309,0,0,0,1.236,3.592A3.933,3.933,0,0,0,6.8,29.051a4.569,4.569,0,0,0,1.986-.41,4.405,4.405,0,0,0,1.564-1.312l.879.668A5.116,5.116,0,0,1,6.738,30.234ZM6.48,18.281a3.506,3.506,0,0,0-2.666,1.16A5.36,5.36,0,0,0,2.5,22.559H10.1v-.152A4.653,4.653,0,0,0,9.059,19.43,3.232,3.232,0,0,0,6.48,18.281Zm15.34,8.5a2,2,0,0,0-.838-1.676,6.462,6.462,0,0,0-2.525-.99,11.394,11.394,0,0,1-2.619-.82,3.489,3.489,0,0,1-1.383-1.131A2.821,2.821,0,0,1,14,20.543a3.017,3.017,0,0,1,1.254-2.479,5.065,5.065,0,0,1,3.211-.979,5.213,5.213,0,0,1,3.4,1.049,3.366,3.366,0,0,1,1.283,2.736H21.75a2.271,2.271,0,0,0-.932-1.852,3.666,3.666,0,0,0-2.35-.738,3.667,3.667,0,0,0-2.221.615,1.9,1.9,0,0,0-.838,1.6,1.729,1.729,0,0,0,.7,1.471,7.375,7.375,0,0,0,2.543.955,11.952,11.952,0,0,1,2.766.926,3.582,3.582,0,0,1,1.365,1.184,3.255,3.255,0,0,1-.85,4.242,5.532,5.532,0,0,1-3.381.961,5.68,5.68,0,0,1-3.592-1.072,3.3,3.3,0,0,1-1.377-2.713h1.406a2.439,2.439,0,0,0,1.037,1.916,4.239,4.239,0,0,0,2.525.686,3.985,3.985,0,0,0,2.367-.645A1.934,1.934,0,0,0,21.82,26.777Zm3.785-3.3a7.461,7.461,0,0,1,.709-3.293,5.326,5.326,0,0,1,4.939-3.094,5.216,5.216,0,0,1,4.1,1.775,6.841,6.841,0,0,1,1.57,4.705v.293a7.527,7.527,0,0,1-.709,3.311,5.294,5.294,0,0,1-2,2.268,5.479,5.479,0,0,1-2.941.8,5.221,5.221,0,0,1-4.1-1.775,6.825,6.825,0,0,1-1.576-4.705Zm1.406.387a5.753,5.753,0,0,0,1.178,3.732,3.985,3.985,0,0,0,6.164,0,5.943,5.943,0,0,0,1.178-3.85v-.27a6.45,6.45,0,0,0-.539-2.66,4.331,4.331,0,0,0-1.512-1.869,3.863,3.863,0,0,0-2.227-.662A3.747,3.747,0,0,0,28.2,19.752a5.952,5.952,0,0,0-1.184,3.85Zm20.4,2.918a2,2,0,0,0-.838-1.676,6.462,6.462,0,0,0-2.525-.99,11.394,11.394,0,0,1-2.619-.82,3.489,3.489,0,0,1-1.383-1.131,2.821,2.821,0,0,1-.451-1.617,3.017,3.017,0,0,1,1.254-2.479,5.065,5.065,0,0,1,3.211-.979,5.213,5.213,0,0,1,3.4,1.049,3.366,3.366,0,0,1,1.283,2.736H47.344a2.271,2.271,0,0,0-.932-1.852,4.205,4.205,0,0,0-4.57-.123A1.9,1.9,0,0,0,41,20.5a1.729,1.729,0,0,0,.7,1.471,7.375,7.375,0,0,0,2.543.955,11.952,11.952,0,0,1,2.766.926,3.582,3.582,0,0,1,1.365,1.184,3.255,3.255,0,0,1-.85,4.242,5.532,5.532,0,0,1-3.381.961,5.68,5.68,0,0,1-3.592-1.072,3.3,3.3,0,0,1-1.377-2.713h1.406a2.439,2.439,0,0,0,1.037,1.916,4.239,4.239,0,0,0,2.525.686,3.985,3.985,0,0,0,2.367-.645A1.934,1.934,0,0,0,47.414,26.777Zm16.254-8.262a5.238,5.238,0,0,0-.949-.082,3.425,3.425,0,0,0-2.221.732A4.012,4.012,0,0,0,59.2,21.293V30H57.809V17.32H59.18l.023,2.016a3.729,3.729,0,0,1,3.574-2.25,2.306,2.306,0,0,1,.926.152ZM67.453,30H66.047V17.32h1.406ZM65.8,13.658a.94.94,0,0,1,.258-.67.92.92,0,0,1,.7-.274.939.939,0,0,1,.709.274.929.929,0,0,1,.264.67.909.909,0,0,1-.264.664.95.95,0,0,1-.709.268.93.93,0,0,1-.7-.268A.92.92,0,0,1,65.8,13.658ZM76.172,30.234a5.5,5.5,0,0,1-2.924-.8,5.431,5.431,0,0,1-2.033-2.221,6.924,6.924,0,0,1-.727-3.193v-.5a7.461,7.461,0,0,1,.709-3.293,5.641,5.641,0,0,1,1.975-2.3,4.871,4.871,0,0,1,2.742-.838,4.578,4.578,0,0,1,3.662,1.576,6.393,6.393,0,0,1,1.354,4.307v.785H71.883v.27a5.309,5.309,0,0,0,1.236,3.592,3.933,3.933,0,0,0,3.111,1.436,4.569,4.569,0,0,0,1.986-.41,4.405,4.405,0,0,0,1.564-1.312L80.66,28A5.116,5.116,0,0,1,76.172,30.234Zm-.258-11.953a3.506,3.506,0,0,0-2.666,1.16,5.36,5.36,0,0,0-1.318,3.117h7.605v-.152a4.653,4.653,0,0,0-1.043-2.977A3.232,3.232,0,0,0,75.914,18.281Zm15.34,8.5a2,2,0,0,0-.838-1.676,6.462,6.462,0,0,0-2.525-.99,11.394,11.394,0,0,1-2.619-.82,3.489,3.489,0,0,1-1.383-1.131,2.821,2.821,0,0,1-.451-1.617,3.017,3.017,0,0,1,1.254-2.479,5.065,5.065,0,0,1,3.211-.979,5.213,5.213,0,0,1,3.4,1.049,3.366,3.366,0,0,1,1.283,2.736H91.184a2.271,2.271,0,0,0-.932-1.852,4.205,4.205,0,0,0-4.57-.123,1.9,1.9,0,0,0-.838,1.6,1.729,1.729,0,0,0,.7,1.471,7.375,7.375,0,0,0,2.543.955,11.952,11.952,0,0,1,2.766.926,3.582,3.582,0,0,1,1.365,1.184,3.255,3.255,0,0,1-.85,4.242,5.532,5.532,0,0,1-3.381.961,5.68,5.68,0,0,1-3.592-1.072,3.3,3.3,0,0,1-1.377-2.713h1.406a2.439,2.439,0,0,0,1.037,1.916,4.239,4.239,0,0,0,2.525.686,3.985,3.985,0,0,0,2.367-.645A1.934,1.934,0,0,0,91.254,26.777Zm4-3.234a7.633,7.633,0,0,1,1.318-4.717,4.253,4.253,0,0,1,3.58-1.74,4.41,4.41,0,0,1,3.938,2.063l.07-1.828h1.313V29.742a5.37,5.37,0,0,1-1.371,3.879,4.905,4.905,0,0,1-3.715,1.43,5.642,5.642,0,0,1-2.525-.592,4.905,4.905,0,0,1-1.893-1.576l.785-.844a4.443,4.443,0,0,0,3.539,1.828,3.6,3.6,0,0,0,2.742-1.037,4.132,4.132,0,0,0,1.02-2.877V28.359a4.532,4.532,0,0,1-3.926,1.875,4.228,4.228,0,0,1-3.539-1.758A7.659,7.659,0,0,1,95.25,23.73Zm1.418.246a6.612,6.612,0,0,0,.973,3.826,3.146,3.146,0,0,0,2.742,1.4,3.748,3.748,0,0,0,3.668-2.32V20.8a4,4,0,0,0-1.418-1.857,3.824,3.824,0,0,0-2.227-.639,3.184,3.184,0,0,0-2.754,1.389A7.066,7.066,0,0,0,96.668,23.789Zm11.684-.316a7.461,7.461,0,0,1,.709-3.293A5.326,5.326,0,0,1,114,17.086a5.216,5.216,0,0,1,4.1,1.775,6.841,6.841,0,0,1,1.57,4.705v.293a7.527,7.527,0,0,1-.709,3.311,5.294,5.294,0,0,1-2,2.268,5.479,5.479,0,0,1-2.941.8,5.221,5.221,0,0,1-4.1-1.775,6.825,6.825,0,0,1-1.576-4.705Zm1.406.387a5.753,5.753,0,0,0,1.178,3.732,3.985,3.985,0,0,0,6.164,0,5.943,5.943,0,0,0,1.178-3.85v-.27a6.45,6.45,0,0,0-.539-2.66,4.331,4.331,0,0,0-1.512-1.869A3.863,3.863,0,0,0,114,18.281a3.747,3.747,0,0,0-3.059,1.471,5.952,5.952,0,0,0-1.184,3.85Zm20.4,2.918a2,2,0,0,0-.838-1.676,6.462,6.462,0,0,0-2.525-.99,11.394,11.394,0,0,1-2.619-.82,3.489,3.489,0,0,1-1.383-1.131,2.821,2.821,0,0,1-.451-1.617,3.017,3.017,0,0,1,1.254-2.479,5.065,5.065,0,0,1,3.211-.979,5.213,5.213,0,0,1,3.4,1.049,3.366,3.366,0,0,1,1.283,2.736H130.09a2.271,2.271,0,0,0-.932-1.852,4.205,4.205,0,0,0-4.57-.123,1.9,1.9,0,0,0-.838,1.6,1.729,1.729,0,0,0,.7,1.471,7.375,7.375,0,0,0,2.543.955,11.952,11.952,0,0,1,2.766.926,3.582,3.582,0,0,1,1.365,1.184,3.255,3.255,0,0,1-.85,4.242,5.532,5.532,0,0,1-3.381.961,5.68,5.68,0,0,1-3.592-1.072,3.3,3.3,0,0,1-1.377-2.713h1.406a2.439,2.439,0,0,0,1.037,1.916,4.239,4.239,0,0,0,2.525.686,3.985,3.985,0,0,0,2.367-.645A1.934,1.934,0,0,0,130.16,26.777Zm7.137-1.523a6.143,6.143,0,0,1,.375-2.224,6.647,6.647,0,0,1,1.512-1.984,14.9,14.9,0,0,0,1.494-1.615,3.815,3.815,0,0,0,.516-1.042,4.242,4.242,0,0,0,.182-1.294,3.244,3.244,0,0,0-.779-2.3,2.824,2.824,0,0,0-2.174-.837,3.192,3.192,0,0,0-2.268.8,2.9,2.9,0,0,0-.885,2.174h-1.395a4.014,4.014,0,0,1,1.3-3.076,4.657,4.657,0,0,1,3.246-1.154A4.277,4.277,0,0,1,141.6,13.88a4.333,4.333,0,0,1,1.166,3.19,5.072,5.072,0,0,1-.574,2.371,10.243,10.243,0,0,1-2.18,2.582,3.982,3.982,0,0,0-1.324,3.231Zm-.187,3.92a.971.971,0,0,1,.252-.678.909.909,0,0,1,.709-.277.932.932,0,0,1,.709.277.947.947,0,0,1,.264.678.892.892,0,0,1-.264.654.955.955,0,0,1-.709.265.931.931,0,0,1-.709-.265A.914.914,0,0,1,137.109,29.174Z" transform="translate(635 13396.5)" fill="#12263f"/>
    <g id="Grupo_57679" data-name="Grupo 57679" transform="translate(-369.503 12903.875)">
      <g id="Grupo_57507" data-name="Grupo 57507" transform="translate(722.1 581.568)">
        <rect id="Rectángulo_5427" data-name="Rectángulo 5427" width="248.077" height="3.163" transform="translate(0 0)" fill="#004080"/>
      </g>
      <g id="Grupo_57543" data-name="Grupo 57543" transform="translate(744.677 360.459)">
        <g id="Grupo_57542" data-name="Grupo 57542" transform="translate(0 0)">
          <g id="Grupo_57527" data-name="Grupo 57527">
            <g id="Grupo_57512" data-name="Grupo 57512" transform="translate(0 96.545)">
              <g id="Grupo_57508" data-name="Grupo 57508">
                <path id="Trazado_106263" data-name="Trazado 106263" d="M1678.1,1320.608c-7.26-3.745-16.407-6.193-26.165-8.792h-.005c-3.62-.961-7.33-1.943-11.055-3.019-.656-.19-6.293-.375-6.909-.546-2.518-.731-4.686-1.352-6.579-1.883-1.612-.45-3.024-.826-4.271-1.142-6.409-1.6-8.561-1.437-12.216,0-1.057.421-2.243.941-3.7,1.562-.285.12-.571.255-.856.4-.285-.14-.576-.27-.866-.4-1.452-.621-2.639-1.147-3.695-1.562-3.655-1.437-5.808-1.6-12.216,0-1.247.315-2.659.691-4.271,1.142-1.887.531-4.06,1.151-6.578,1.883-.616.17-6.254.355-6.9.546-4.7,1.357-9.357,2.564-13.863,3.765-8.7,2.333-16.8,4.661-23.366,8.046-13.553,6.994-31.833,62.744-29.5,72.092,3.715,14.885,29.349,31.563,55.99,32.178,13.7.321,76.833.321,90.536,0,26.636-.616,52.275-17.293,55.99-32.178C1709.93,1383.352,1691.65,1327.6,1678.1,1320.608Z" transform="translate(-1504.882 -1304.087)" fill="#0077ec"/>
              </g>
              <g id="Grupo_57509" data-name="Grupo 57509" transform="translate(164.077 72.446)">
                <path id="Trazado_106264" data-name="Trazado 106264" d="M2304.108,1674.512a14.037,14.037,0,0,1,6.6-2.129c4.193-.516,9.542-.862,11.543-5.324a1.248,1.248,0,0,0,0-1.328,1.263,1.263,0,0,0-.558-.3,22.312,22.312,0,0,0-2.586-.576,1.437,1.437,0,0,1-1.4-2.08c.353-1.633.783-3.269,1.038-4.92a.889.889,0,0,0-.018-.485c-.132-.309-.536-.37-.872-.387-1.814-.09-3.86.934-5.674.852Z" transform="translate(-2304.108 -1656.974)" fill="#004080"/>
              </g>
              <g id="Grupo_57510" data-name="Grupo 57510" transform="translate(20.511 72.446)">
                <path id="Trazado_106265" data-name="Trazado 106265" d="M1623.128,1674.512a14.038,14.038,0,0,0-6.6-2.129c-4.193-.516-9.542-.862-11.543-5.324a1.247,1.247,0,0,1,0-1.328,1.264,1.264,0,0,1,.558-.3,22.282,22.282,0,0,1,2.586-.576,1.437,1.437,0,0,0,1.4-2.08c-.353-1.633-.783-3.269-1.038-4.92a.889.889,0,0,1,.018-.485c.132-.309.536-.37.872-.387,1.814-.09,3.86.934,5.674.852Z" transform="translate(-1604.794 -1656.974)" fill="#004080"/>
              </g>
              <g id="Grupo_57511" data-name="Grupo 57511" transform="translate(53.069 1.14)">
                <path id="Trazado_106266" data-name="Trazado 106266" d="M1857.36,1316.231c-19.116,10.935-38.482,33.585-43.583,54.874-.035.135-.07.275-.1.411h-7.866c-4.842-20.938-23.6-43.283-42.427-54.538,4.506-1.2,9.167-2.408,13.864-3.765.651-.19,6.289-.375,6.9-.546,2.518-.731,4.691-1.352,6.579-1.882,1.612-.451,3.024-.826,4.271-1.142h33.545c1.247.315,2.658.691,4.271,1.142,1.893.531,4.06,1.151,6.579,1.882.616.17,6.253.355,6.909.546C1850.03,1314.288,1853.74,1315.27,1857.36,1316.231Z" transform="translate(-1763.384 -1309.642)" fill="#004080"/>
              </g>
            </g>
            <g id="Grupo_57526" data-name="Grupo 57526" transform="translate(45.043)">
              <g id="Grupo_57513" data-name="Grupo 57513" transform="translate(56.419 56.926)">
                <path id="Trazado_106267" data-name="Trazado 106267" d="M1999.108,1113.1v54.108c.063,0,.058.01,0,.014v4.1c6.884-2.658,15.29-7.67,23.047-13.435,9.027-6.7,20.955-15.195,22.512-27.65a47.079,47.079,0,0,0,.062-10.637c-.271-2.637-.152-7.333-3.107-8.26a8.372,8.372,0,0,0-3.164-.158l-19.265,1.5c-6.26.486-12.557,1.228-18.835.675C2000.23,1113.331,1999.108,1113.349,1999.108,1113.1Z" transform="translate(-1999.108 -1111.102)" fill="#0b0b0b"/>
              </g>
              <g id="Grupo_57514" data-name="Grupo 57514">
                <path id="Trazado_106268" data-name="Trazado 106268" d="M1836.973,896.526c-1.467-10.659-10.735-17.556-16.352-27.908-6.909-12.748-15.205-27.744-29.139-32.933a30.331,30.331,0,0,0-10.774-1.872,30.779,30.779,0,0,0-5.4.439c-17.258,2.92-26.756,20.064-34.511,34.367-5.617,10.352-14.885,17.249-16.352,27.908-1.392,10.109,6.694,31.595,26.641,42.978,10.6,6.051,23.932,11.087,27.622,10.389l1.092-4.232h1.822l1.092,4.232c3.69.7,17.018-4.337,27.622-10.389C1830.279,928.121,1838.365,906.635,1836.973,896.526Z" transform="translate(-1724.29 -833.812)" fill="#0077ec"/>
              </g>
              <g id="Grupo_57515" data-name="Grupo 57515" transform="translate(10.528 56.926)">
                <path id="Trazado_106269" data-name="Trazado 106269" d="M1867.085,1119.591c-.271-2.639-.15-7.337-3.109-8.262a8.443,8.443,0,0,0-3.159-.159c-1.477.116-2.949.233-4.426.344l-3.034.238c-.576.042-1.147.09-1.717.132q-5.047.4-10.089.783c-6.258.487-12.557,1.227-18.835.677-.13-.016-1.252,0-1.252-.249,0,.249-1.121.233-1.251.249-6.274.55-12.572-.19-18.835-.677q-5.039-.389-10.088-.783c-.576-.042-1.147-.09-1.723-.138-1.006-.074-2.018-.153-3.024-.233-1.477-.111-2.949-.227-4.426-.344a8.464,8.464,0,0,0-3.164.159c-2.954.926-2.839,5.623-3.109,8.262a47.253,47.253,0,0,0,.065,10.637c1.557,12.452,13.483,20.947,22.51,27.649.511.381,1.021.757,1.537,1.127,1.472,1.063,2.964,2.1,4.456,3.089a92.994,92.994,0,0,0,17.053,9.22,74.814,74.814,0,0,0,9.283-4.454c1.632-.915,3.289-1.9,4.957-2.947q.743-.468,1.487-.952c1.747-1.127,3.5-2.317,5.222-3.555.706-.5,1.4-1.01,2.1-1.529,9.027-6.7,20.958-15.2,22.515-27.649A46.954,46.954,0,0,0,1867.085,1119.591Zm-45.622,47.628c-.055-.005-.06-.011,0-.016S1821.524,1167.214,1821.463,1167.219Z" transform="translate(-1775.574 -1111.099)" fill="#004080"/>
              </g>
              <g id="Grupo_57518" data-name="Grupo 57518" transform="translate(39.365 102.58)">
                <g id="Grupo_57516" data-name="Grupo 57516">
                  <path id="Trazado_106270" data-name="Trazado 106270" d="M1948.818,1339.691q-.743.484-1.487.952c-1.667,1.047-3.324,2.031-4.957,2.946a74.811,74.811,0,0,1-9.282,4.454,92.971,92.971,0,0,1-17.053-9.22c.47-1.01.881-2,1.242-2.951.25-.656.47-1.291.676-1.91,1.052-.069,2.1-.132,3.149-.19q5.993-.318,11.986-.286c3.415.011,6.839.106,10.254.286,1.046.058,2.1.122,3.144.19.155.46.315.936.5,1.423A45.677,45.677,0,0,0,1948.818,1339.691Z" transform="translate(-1916.039 -1333.483)" fill="#ffd2b5"/>
                </g>
                <g id="Grupo_57517" data-name="Grupo 57517" transform="translate(1.242)">
                  <path id="Trazado_106271" data-name="Trazado 106271" d="M1953.624,1339.691q-.743.484-1.487.952c-1.667,1.047-3.324,2.031-4.957,2.946-2.864-.868-6.2-.508-9.283-.947-.3-.042-.585-.09-.876-.148a38.172,38.172,0,0,1-12.5-5.364,15.556,15.556,0,0,0-2.438-1.259c.25-.656.471-1.291.676-1.91,1.052-.069,2.1-.132,3.149-.19q5.993-.318,11.986-.286c3.415.011,6.839.106,10.254.286,1.046.058,2.1.122,3.145.19.155.46.315.936.5,1.423A45.746,45.746,0,0,0,1953.624,1339.691Z" transform="translate(-1922.087 -1333.483)" fill="#d5a483"/>
                </g>
              </g>
              <g id="Grupo_57523" data-name="Grupo 57523" transform="translate(19.669 44.925)">
                <g id="Grupo_57521" data-name="Grupo 57521" transform="translate(0 10.421)">
                  <g id="Grupo_57519" data-name="Grupo 57519" transform="translate(0 0.008)">
                    <path id="Trazado_106272" data-name="Trazado 106272" d="M1826.376,1105.689q-.043,4.187-.152,8.394-.107,4.292-.271,8.6c-.062,1.313-.547,2.337-1.094,2.232h-.009a1.814,1.814,0,0,1-.733-.409c-1.531-1.308-3.125-5.388-3.829-10.1q-.028-.21-.057-.419c-.509-4.115.495-7.955,2.483-9.657.38-.165.766-.33,1.16-.494.328-.135.666-.27,1-.4C1825.748,1103.487,1826.4,1104.481,1826.376,1105.689Z" transform="translate(-1820.1 -1103.442)" fill="#d5a483"/>
                  </g>
                  <g id="Grupo_57520" data-name="Grupo 57520" transform="translate(65.485)">
                    <path id="Trazado_106273" data-name="Trazado 106273" d="M2139.082,1105.656c-.023-1.3.732-2.352,1.7-2.248l.018,0c3.316.423,5.18,5.514,4.367,10.968s-2.828,10.09-4.559,10.508l-.01,0c-.548.1-1.032-.919-1.091-2.235Q2139.178,1114.1,2139.082,1105.656Z" transform="translate(-2139.082 -1103.401)" fill="#d5a483"/>
                  </g>
                </g>
                <g id="Grupo_57522" data-name="Grupo 57522" transform="translate(3.774)">
                  <path id="Trazado_106274" data-name="Trazado 106274" d="M1902.7,1054.712v27.644a7.294,7.294,0,0,1-.242,1.778c-.585,2.357-2.078,4.829-2.592,6.926-1.936,7.909-1.617,11.565-7.909,16.094a56.625,56.625,0,0,1-7.967,4.724c-4.418,2.162-9.35,3.88-13.4,3.94-4.052-.06-8.979-1.778-13.4-3.94a56.976,56.976,0,0,1-7.971-4.724c-6.287-4.529-5.973-8.184-7.909-16.094-.509-2.1-2-4.564-2.587-6.921a7.335,7.335,0,0,1-.243-1.783V1063.47c.328-.135.666-.27,1-.4,5.736-2.242,12.637-3.9,19.124-5.473,2.611-.629,5.16-1.244,7.643-1.823.01,0,.019-.005.033-.005C1881.046,1052.809,1893.493,1051.032,1902.7,1054.712Z" transform="translate(-1838.484 -1052.642)" fill="#ffd2b5"/>
                </g>
              </g>
              <g id="Grupo_57524" data-name="Grupo 57524" transform="translate(8.887 40.405)">
                <path id="Trazado_106275" data-name="Trazado 106275" d="M1861,1061.984s-.766-6.813-9.067-9.2a20.336,20.336,0,0,0-3.459-.666,4.055,4.055,0,0,0-.431-.037,19.832,19.832,0,0,0-2.509-.058,29.059,29.059,0,0,0-6.509,1.021c-7.29,1.936-13.784,5.75-20.763,8.421-4.661,1.782-9.218,3.131-14.159,1.285-3.149-1.18-5.738-3.327-8.471-5.2-3.475-2.365-6.834-3.2-10.985-3.835-.531-.079-1.111-.164-1.732-.233-.781-.1-1.617-.18-2.473-.222a19.718,19.718,0,0,0-3.835.127,7.163,7.163,0,0,0-5.117,2.65c-2.949,4.21-2.273,11.865-2.273,11.865a28.487,28.487,0,0,1-1.217-14.086c.926-4.655,5.287-8.019,11.22-10.658.4-.175.806-.349,1.221-.524.345-.143.7-.286,1.056-.423,6.038-2.375,13.3-4.136,20.132-5.8,2.749-.667,5.432-1.317,8.046-1.931.01,0,.02-.005.035-.005,15.536-3.634,28.638-5.824,38.331-1.3a21.736,21.736,0,0,1,4.646,2.914C1862.623,1044.2,1861,1061.984,1861,1061.984Z" transform="translate(-1767.578 -1030.629)" fill="#0770d6"/>
              </g>
              <g id="Grupo_57525" data-name="Grupo 57525" transform="translate(43.051 61.4)">
                <path id="Trazado_106276" data-name="Trazado 106276" d="M1934.167,1137.329c.659.091,1.279.219,1.88.33s1.179.213,1.733.276a10.643,10.643,0,0,0,3.01-.027c.235-.032.469-.076.7-.13s.471-.1.708-.158c.473-.126.955-.267,1.447-.423.985-.315,2.013-.688,3.083-1.07l1.625-.571c.545-.186,1.092-.375,1.647-.554s1.114-.358,1.683-.526c.285-.083.566-.175.854-.254l.867-.237a36.349,36.349,0,0,1,3.594-.778c.619-.094,1.241-.179,1.875-.232a15.835,15.835,0,0,1,1.936-.071l.123.283-3.249,1.54-3.259,1.523c-2.177,1.01-4.391,1.961-6.656,2.785a29.549,29.549,0,0,1-3.481,1.034,12.787,12.787,0,0,1-3.649.328,9.927,9.927,0,0,1-3.547-.931,21.007,21.007,0,0,1-3.1-1.879Z" transform="translate(-1933.994 -1132.895)" fill="#004080"/>
              </g>
            </g>
          </g>
          <g id="Grupo_57541" data-name="Grupo 57541" transform="translate(22.378 131.159)">
            <g id="Grupo_57530" data-name="Grupo 57530" transform="translate(8.103 85.841)">
              <g id="Grupo_57528" data-name="Grupo 57528">
                <path id="Trazado_106277" data-name="Trazado 106277" d="M1795.316,1891.7v.235c0,2.223-2.444,4.024-5.462,4.024H1658.819c-3.018,0-5.462-1.8-5.462-4.024v-.235c0-.481.531-.873,1.189-.873h139.585C1794.785,1890.829,1795.316,1891.22,1795.316,1891.7Z" transform="translate(-1653.357 -1890.829)" fill="#304d55"/>
              </g>
              <g id="Grupo_57529" data-name="Grupo 57529" transform="translate(0 0.599)">
                <path id="Trazado_106278" data-name="Trazado 106278" d="M1795.316,1894.02v.236c0,2.223-2.444,4.024-5.462,4.024H1658.819c-3.018,0-5.462-1.8-5.462-4.024v-.236a.691.691,0,0,1,.056-.273c.4,1.936,2.66,3.425,5.406,3.425h131.035c2.745,0,5.011-1.489,5.406-3.425A.687.687,0,0,1,1795.316,1894.02Z" transform="translate(-1653.357 -1893.747)" fill="#243d43"/>
              </g>
            </g>
            <g id="Grupo_57538" data-name="Grupo 57538">
              <g id="Grupo_57531" data-name="Grupo 57531">
                <path id="Trazado_106279" data-name="Trazado 106279" d="M1771.978,1478.692l-11.386,74.69a5.409,5.409,0,0,1-5.318,4.3H1630.667a5.41,5.41,0,0,1-5.318-4.3l-11.386-74.69c-.5-3.3,1.578-6,4.651-6h148.713C1770.4,1472.694,1772.481,1475.394,1771.978,1478.692Z" transform="translate(-1613.888 -1472.694)" fill="#385a64"/>
              </g>
              <g id="Grupo_57532" data-name="Grupo 57532" transform="translate(11.464)" style="mix-blend-mode: multiply;isolation: isolate">
                <path id="Trazado_106280" data-name="Trazado 106280" d="M1816.358,1478.692l-11.386,74.69a5.41,5.41,0,0,1-5.319,4.3H1675.047a5.412,5.412,0,0,1-5.315-4.277c62.667-1.958,115.638-34.925,136.715-80.708h5.26C1814.779,1472.694,1816.86,1475.394,1816.358,1478.692Z" transform="translate(-1669.732 -1472.694)" fill="#ebebeb"/>
              </g>
              <g id="Grupo_57537" data-name="Grupo 57537" transform="translate(66.255 29.564)">
                <g id="Grupo_57536" data-name="Grupo 57536">
                  <g id="Grupo_57533" data-name="Grupo 57533" transform="translate(1.758)">
                    <path id="Trazado_106281" data-name="Trazado 106281" d="M1966.567,1628.026c1.145-1.249.789-3.237.232-4.662a11.53,11.53,0,0,0-2.842-4.118,12.959,12.959,0,0,0-15.409,0,11.569,11.569,0,0,0-2.842,4.118c-.557,1.425-.912,3.413.232,4.662a4.687,4.687,0,0,1,1.145,1.478,1.411,1.411,0,0,1,.1.856,5.276,5.276,0,0,0-.14,1.177,2.117,2.117,0,0,0,.557,1.456c.934.927,2.49-.031,3.362,1.143a9.1,9.1,0,0,1,.75,1.978,2.439,2.439,0,0,0,1.438,1.3,18.267,18.267,0,0,0,6.2,0,2.432,2.432,0,0,0,1.438-1.3,9.1,9.1,0,0,1,.751-1.978c.871-1.174,2.427-.216,3.362-1.143a2.124,2.124,0,0,0,.558-1.456,5.208,5.208,0,0,0-.142-1.177,1.413,1.413,0,0,1,.1-.856A4.726,4.726,0,0,1,1966.567,1628.026Zm-14.87,3.885c-1.771.032-3.046-.991-2.745-2.928s1.182-2.194,2.825-2.258,3.379.62,3.358,2.4S1953.469,1631.879,1951.7,1631.911Zm5.972,2.778h0a6.655,6.655,0,0,0-2.618-.043h0a.473.473,0,0,1-.347-.714,16.551,16.551,0,0,1,1.308-2.02.477.477,0,0,1,.792,0,11.649,11.649,0,0,1,1.279,2.118A.452.452,0,0,1,1957.669,1634.689Zm3.141-2.778c-1.771-.032-3.417-1.022-3.439-2.788s1.715-2.463,3.358-2.4,2.521.31,2.826,2.258S1962.582,1631.944,1960.81,1631.911Z" transform="translate(-1945.184 -1616.7)" fill="#03e6b0"/>
                  </g>
                  <g id="Grupo_57534" data-name="Grupo 57534" transform="translate(0 17.843)">
                    <path id="Trazado_106282" data-name="Trazado 106282" d="M1961.939,1715.035a1.963,1.963,0,0,0-1.022-2.639,2.116,2.116,0,0,0-2.647.9l-16.632-6.974a2.1,2.1,0,0,0-3.94-1.444c-.173.418.205,1.029.307,1.44-.362.216-1.058.376-1.23.792a2.1,2.1,0,0,0,3.81,1.73l16.573,6.919a1.96,1.96,0,0,0,1.1,2.508,2.107,2.107,0,0,0,2.714-1.053c.184-.4-.167-.995-.254-1.393,0-.022.751-.316.82-.365A1.472,1.472,0,0,0,1961.939,1715.035Z" transform="translate(-1936.62 -1703.613)" fill="#03e6b0"/>
                  </g>
                  <g id="Grupo_57535" data-name="Grupo 57535" transform="translate(0.124 17.988)">
                    <path id="Trazado_106283" data-name="Trazado 106283" d="M1962.563,1707.828a2.083,2.083,0,0,1-3.76,1.772l-16.577,6.919a1.96,1.96,0,0,1-1.121,2.449,2.107,2.107,0,0,1-2.713-1.052c-.184-.4.167-.995.254-1.393-.364-.21-1.057-.366-1.242-.771a1.972,1.972,0,0,1,1.043-2.65,2.115,2.115,0,0,1,2.677.953l16.619-6.967a2.1,2.1,0,0,1,3.92-1.5c.173.418-.205,1.029-.307,1.439-.006.023.75.325.818.375A1.433,1.433,0,0,1,1962.563,1707.828Z" transform="translate(-1937.222 -1704.322)" fill="#03e6b0"/>
                  </g>
                </g>
              </g>
            </g>
            <g id="Grupo_57539" data-name="Grupo 57539" transform="translate(22.022 83.968)">
              <rect id="Rectángulo_5428" data-name="Rectángulo 5428" width="44.629" height="2.889" fill="#4c7b88"/>
            </g>
            <g id="Grupo_57540" data-name="Grupo 57540" transform="translate(91.514 83.968)">
              <rect id="Rectángulo_5429" data-name="Rectángulo 5429" width="44.629" height="2.889" transform="translate(44.629 2.889) rotate(180)" fill="#4c7b88"/>
            </g>
          </g>
        </g>
      </g>
      <g id="Grupo_57544" data-name="Grupo 57544" transform="translate(584.17 329.319)">
        <path id="Trazado_106284" data-name="Trazado 106284" d="M805.022,363.828c0,18.116-11.5,34.516-30.085,46.375a114.214,114.214,0,0,1-26.683,12.28,155.545,155.545,0,0,1-91.317,0A114.13,114.13,0,0,1,630.255,410.2c-18.585-11.857-30.085-28.256-30.085-46.373s11.5-34.515,30.085-46.375a102.21,102.21,0,0,1,9.372-5.3q1.565-.782,3.181-1.525h0a123.146,123.146,0,0,1,14.127-5.462,155.545,155.545,0,0,1,91.317,0,114.215,114.215,0,0,1,26.683,12.28C793.523,329.31,805.022,345.71,805.022,363.828Z" transform="translate(-600.17 -298.319)" fill="#ebebeb"/>
      </g>
      <g id="Grupo_57545" data-name="Grupo 57545" transform="translate(744.677 445.388)">
        <path id="Trazado_106285" data-name="Trazado 106285" d="M1431.959,1030.839c0,4.892-3.105,9.32-8.124,12.523a30.857,30.857,0,0,1-7.205,3.316,42,42,0,0,1-24.659,0,30.822,30.822,0,0,1-7.205-3.317c-5.019-3.2-8.124-7.63-8.124-12.522s3.105-9.32,8.124-12.523a27.565,27.565,0,0,1,2.531-1.43q.423-.211.859-.412h0a33.253,33.253,0,0,1,3.815-1.475,42,42,0,0,1,24.659,0,30.847,30.847,0,0,1,7.205,3.316C1428.853,1021.518,1431.959,1025.946,1431.959,1030.839Z" transform="translate(-1376.641 -1013.149)" fill="#ebebeb"/>
      </g>
      <g id="Grupo_57546" data-name="Grupo 57546" transform="translate(779.346 480.058)">
        <path id="Trazado_106286" data-name="Trazado 106286" d="M1601.438,1219.222c0,2.434-1.545,4.638-4.042,6.232a15.354,15.354,0,0,1-3.585,1.65,20.9,20.9,0,0,1-12.27,0,15.337,15.337,0,0,1-3.585-1.65c-2.5-1.593-4.042-3.8-4.042-6.231s1.545-4.638,4.042-6.231a13.77,13.77,0,0,1,1.259-.712q.21-.105.427-.2h0a16.576,16.576,0,0,1,1.9-.734,20.9,20.9,0,0,1,12.27,0,15.36,15.36,0,0,1,3.585,1.65C1599.893,1214.584,1601.438,1216.788,1601.438,1219.222Z" transform="translate(-1573.912 -1210.42)" fill="#ebebeb"/>
      </g>
      <g id="Grupo_57678" data-name="Grupo 57678" transform="translate(614.255 336.171)">
        <g id="Grupo_57674" data-name="Grupo 57674" transform="translate(0 0)">
          <g id="Grupo_57559" data-name="Grupo 57559">
            <g id="Grupo_57551" data-name="Grupo 57551">
              <g id="Grupo_57548" data-name="Grupo 57548">
                <g id="Grupo_57547" data-name="Grupo 57547">
                  <path id="Trazado_106287" data-name="Trazado 106287" d="M916.036,349.588V353.3H771.353V349.59a102.211,102.211,0,0,1,9.373-5.3q1.565-.782,3.181-1.525h0a123.146,123.146,0,0,1,14.127-5.462h91.317A114.216,114.216,0,0,1,916.036,349.588Z" transform="translate(-771.353 -337.308)" fill="#004080"/>
                </g>
              </g>
              <g id="Grupo_57550" data-name="Grupo 57550" transform="translate(0 15.995)">
                <g id="Grupo_57549" data-name="Grupo 57549">
                  <path id="Trazado_106288" data-name="Trazado 106288" d="M916.036,428.322v89.036a114.217,114.217,0,0,1-26.683,12.28H798.036a114.136,114.136,0,0,1-26.683-12.282V428.322Z" transform="translate(-771.353 -428.322)" fill="#fff"/>
                </g>
              </g>
            </g>
            <g id="Grupo_57558" data-name="Grupo 57558" transform="translate(9.173 5.356)">
              <g id="Grupo_57553" data-name="Grupo 57553" transform="translate(10.293 0)">
                <g id="Grupo_57552" data-name="Grupo 57552">
                  <circle id="Elipse_4228" data-name="Elipse 4228" cx="2.642" cy="2.642" r="2.642" fill="#ebebeb"/>
                </g>
              </g>
              <g id="Grupo_57555" data-name="Grupo 57555" transform="translate(0 0.106)">
                <g id="Grupo_57554" data-name="Grupo 57554">
                  <path id="Trazado_106289" data-name="Trazado 106289" d="M828.831,370.922a2.642,2.642,0,1,1-5.085-1.012q1.565-.782,3.181-1.525h0A2.643,2.643,0,0,1,828.831,370.922Z" transform="translate(-823.546 -368.385)" fill="#ebebeb"/>
                </g>
              </g>
              <g id="Grupo_57557" data-name="Grupo 57557" transform="translate(20.586)">
                <g id="Grupo_57556" data-name="Grupo 57556">
                  <circle id="Elipse_4229" data-name="Elipse 4229" cx="2.642" cy="2.642" r="2.642" fill="#ebebeb"/>
                </g>
              </g>
            </g>
          </g>
          <g id="Grupo_57673" data-name="Grupo 57673" transform="translate(39.328 25.139)">
            <g id="Grupo_57652" data-name="Grupo 57652" transform="translate(0 39.241)">
              <g id="Grupo_57564" data-name="Grupo 57564">
                <g id="Grupo_57561" data-name="Grupo 57561" transform="translate(12.177)">
                  <g id="Grupo_57560" data-name="Grupo 57560">
                    <path id="Rectángulo_5430" data-name="Rectángulo 5430" d="M4.814,0H49.037A4.814,4.814,0,0,1,53.85,4.814v0a4.814,4.814,0,0,1-4.814,4.814H4.814A4.814,4.814,0,0,1,0,4.814v0A4.814,4.814,0,0,1,4.814,0Z" fill="#ebebeb"/>
                  </g>
                </g>
                <g id="Grupo_57563" data-name="Grupo 57563">
                  <g id="Grupo_57562" data-name="Grupo 57562">
                    <path id="Rectángulo_5431" data-name="Rectángulo 5431" d="M4.814,0h.809a4.814,4.814,0,0,1,4.814,4.814v0A4.814,4.814,0,0,1,5.623,9.627H4.814A4.814,4.814,0,0,1,0,4.814v0A4.814,4.814,0,0,1,4.814,0Z" fill="#ebebeb"/>
                  </g>
                </g>
              </g>
              <g id="Grupo_57577" data-name="Grupo 57577" transform="translate(26.2 3.62)">
                <g id="Grupo_57566" data-name="Grupo 57566" transform="translate(23.419)">
                  <g id="Grupo_57565" data-name="Grupo 57565">
                    <path id="Trazado_106290" data-name="Trazado 106290" d="M1279.846,725.426a1.193,1.193,0,1,1-1.193-1.193A1.193,1.193,0,0,1,1279.846,725.426Z" transform="translate(-1277.459 -724.232)"/>
                  </g>
                </g>
                <g id="Grupo_57568" data-name="Grupo 57568" transform="translate(18.735)">
                  <g id="Grupo_57567" data-name="Grupo 57567">
                    <path id="Trazado_106291" data-name="Trazado 106291" d="M1253.195,725.426a1.193,1.193,0,1,1-1.193-1.193A1.193,1.193,0,0,1,1253.195,725.426Z" transform="translate(-1250.808 -724.232)"/>
                  </g>
                </g>
                <g id="Grupo_57570" data-name="Grupo 57570" transform="translate(14.051)">
                  <g id="Grupo_57569" data-name="Grupo 57569">
                    <path id="Trazado_106292" data-name="Trazado 106292" d="M1226.545,725.426a1.193,1.193,0,1,1-1.193-1.193A1.193,1.193,0,0,1,1226.545,725.426Z" transform="translate(-1224.158 -724.232)"/>
                  </g>
                </g>
                <g id="Grupo_57572" data-name="Grupo 57572" transform="translate(9.367)">
                  <g id="Grupo_57571" data-name="Grupo 57571">
                    <path id="Trazado_106293" data-name="Trazado 106293" d="M1199.894,725.426a1.193,1.193,0,1,1-1.193-1.193A1.193,1.193,0,0,1,1199.894,725.426Z" transform="translate(-1197.507 -724.232)"/>
                  </g>
                </g>
                <g id="Grupo_57574" data-name="Grupo 57574" transform="translate(4.684)">
                  <g id="Grupo_57573" data-name="Grupo 57573">
                    <path id="Trazado_106294" data-name="Trazado 106294" d="M1173.244,725.426a1.193,1.193,0,1,1-1.193-1.193A1.193,1.193,0,0,1,1173.244,725.426Z" transform="translate(-1170.857 -724.232)"/>
                  </g>
                </g>
                <g id="Grupo_57576" data-name="Grupo 57576">
                  <g id="Grupo_57575" data-name="Grupo 57575">
                    <path id="Trazado_106295" data-name="Trazado 106295" d="M1146.593,725.426a1.193,1.193,0,1,1-1.193-1.193A1.193,1.193,0,0,1,1146.593,725.426Z" transform="translate(-1144.206 -724.232)"/>
                  </g>
                </g>
              </g>
              <g id="Grupo_57579" data-name="Grupo 57579" transform="translate(0 13.176)">
                <g id="Grupo_57578" data-name="Grupo 57578">
                  <rect id="Rectángulo_5432" data-name="Rectángulo 5432" width="10.437" height="9.627" rx="4.814" fill="#ebebeb"/>
                </g>
              </g>
              <g id="Grupo_57601" data-name="Grupo 57601" transform="translate(12.177 13.176)">
                <g id="Grupo_57581" data-name="Grupo 57581">
                  <g id="Grupo_57580" data-name="Grupo 57580">
                    <path id="Rectángulo_5433" data-name="Rectángulo 5433" d="M4.814,0H49.037A4.814,4.814,0,0,1,53.85,4.814v0a4.814,4.814,0,0,1-4.814,4.814H4.814A4.814,4.814,0,0,1,0,4.814v0A4.814,4.814,0,0,1,4.814,0Z" fill="#ebebeb"/>
                  </g>
                </g>
                <g id="Grupo_57600" data-name="Grupo 57600" transform="translate(14.042 3.616)">
                  <g id="Grupo_57584" data-name="Grupo 57584" transform="translate(23.418)">
                    <g id="Grupo_57583" data-name="Grupo 57583">
                      <g id="Grupo_57582" data-name="Grupo 57582">
                        <path id="Trazado_106296" data-name="Trazado 106296" d="M1279.913,800.019l-.271-.482-.629.358v-.715h-.545v.715l-.629-.358-.273.482.623.358-.623.358.273.482.629-.358v.715h.545v-.715l.629.358.271-.482-.62-.358Z" transform="translate(-1277.565 -799.179)"/>
                      </g>
                    </g>
                  </g>
                  <g id="Grupo_57587" data-name="Grupo 57587" transform="translate(18.735)">
                    <g id="Grupo_57586" data-name="Grupo 57586">
                      <g id="Grupo_57585" data-name="Grupo 57585">
                        <path id="Trazado_106297" data-name="Trazado 106297" d="M1253.265,800.019l-.271-.482-.631.358v-.715h-.543v.715l-.631-.358-.272.482.623.358-.623.358.272.482.631-.358v.715h.543v-.715l.631.358.271-.482-.623-.358Z" transform="translate(-1250.917 -799.179)"/>
                      </g>
                    </g>
                  </g>
                  <g id="Grupo_57590" data-name="Grupo 57590" transform="translate(14.051)">
                    <g id="Grupo_57589" data-name="Grupo 57589">
                      <g id="Grupo_57588" data-name="Grupo 57588">
                        <path id="Trazado_106298" data-name="Trazado 106298" d="M1226.618,800.019l-.271-.482-.631.358v-.715h-.545v.715l-.629-.358-.272.482.621.358-.621.358.272.482.629-.358v.715h.545v-.715l.631.358.271-.482-.623-.358Z" transform="translate(-1224.27 -799.179)"/>
                      </g>
                    </g>
                  </g>
                  <g id="Grupo_57593" data-name="Grupo 57593" transform="translate(9.366)">
                    <g id="Grupo_57592" data-name="Grupo 57592">
                      <g id="Grupo_57591" data-name="Grupo 57591">
                        <path id="Trazado_106299" data-name="Trazado 106299" d="M1199.961,800.019l-.273-.482-.629.358v-.715h-.545v.715l-.629-.358-.273.482.623.358-.623.358.273.482.629-.358v.715h.545v-.715l.629.358.273-.482-.623-.358Z" transform="translate(-1197.611 -799.179)"/>
                      </g>
                    </g>
                  </g>
                  <g id="Grupo_57596" data-name="Grupo 57596" transform="translate(4.683)">
                    <g id="Grupo_57595" data-name="Grupo 57595">
                      <g id="Grupo_57594" data-name="Grupo 57594">
                        <path id="Trazado_106300" data-name="Trazado 106300" d="M1173.312,800.019l-.272-.482-.629.358v-.715h-.545v.715l-.629-.358-.273.482.623.358-.623.358.273.482.629-.358v.715h.545v-.715l.629.358.272-.482-.621-.358Z" transform="translate(-1170.964 -799.179)"/>
                      </g>
                    </g>
                  </g>
                  <g id="Grupo_57599" data-name="Grupo 57599">
                    <g id="Grupo_57598" data-name="Grupo 57598">
                      <g id="Grupo_57597" data-name="Grupo 57597">
                        <path id="Trazado_106301" data-name="Trazado 106301" d="M1146.665,800.019l-.271-.482-.631.358v-.715h-.543v.715l-.631-.358-.271.482.623.358-.623.358.271.482.631-.358v.715h.543v-.715l.631.358.271-.482-.623-.358Z" transform="translate(-1144.317 -799.179)"/>
                      </g>
                    </g>
                  </g>
                </g>
              </g>
              <g id="Grupo_57610" data-name="Grupo 57610" transform="translate(0 34.162)">
                <g id="Grupo_57603" data-name="Grupo 57603">
                  <g id="Grupo_57602" data-name="Grupo 57602">
                    <path id="Rectángulo_5434" data-name="Rectángulo 5434" d="M4.814,0h56.4a4.814,4.814,0,0,1,4.814,4.814v0a4.814,4.814,0,0,1-4.814,4.814H4.814A4.814,4.814,0,0,1,0,4.814v0A4.814,4.814,0,0,1,4.814,0Z" fill="#03e6b0"/>
                  </g>
                </g>
                <g id="Grupo_57609" data-name="Grupo 57609" transform="translate(27.25 2.097)">
                  <g id="Grupo_57604" data-name="Grupo 57604">
                    <path id="Trazado_106302" data-name="Trazado 106302" d="M1150.183,909.946v4.529h.8v-4.529Z" transform="translate(-1150.183 -909.946)" fill="#fff"/>
                  </g>
                  <g id="Grupo_57605" data-name="Grupo 57605" transform="translate(1.454 1.288)">
                    <path id="Trazado_106303" data-name="Trazado 106303" d="M1160.075,917.272a1.551,1.551,0,0,0-1.62,1.666,1.6,1.6,0,1,0,1.62-1.666Zm-.015,2.691c-.5,0-.793-.425-.793-1.031,0-.646.28-1.031.781-1.031.517,0,.791.4.791,1.037C1160.839,919.548,1160.569,919.963,1160.06,919.963Z" transform="translate(-1158.455 -917.272)" fill="#fff"/>
                  </g>
                  <g id="Grupo_57606" data-name="Grupo 57606" transform="translate(5.131 1.288)">
                    <path id="Trazado_106304" data-name="Trazado 106304" d="M1181.745,917.35c-.006.061-.021.259-.027.368-.063-.177-.3-.446-.9-.446a1.517,1.517,0,0,0-1.439,1.677,1.408,1.408,0,0,0,1.367,1.555.994.994,0,0,0,.97-.484v.175c0,.644-.135,1.05-.783,1.05-.412,0-.608-.175-.682-.429h-.812c.042.375.292,1.025,1.456,1.025,1.193,0,1.6-.631,1.6-1.683v-1.894c0-.305,0-.648.008-.913Zm-.78,2.51c-.461,0-.762-.379-.762-.945,0-.618.3-1,.785-1,.581,0,.751.379.751.968S1181.536,919.86,1180.964,919.86Z" transform="translate(-1179.38 -917.272)" fill="#fff"/>
                  </g>
                  <g id="Grupo_57607" data-name="Grupo 57607" transform="translate(9.103)">
                    <path id="Trazado_106305" data-name="Trazado 106305" d="M1201.981,909.946v.757h.8v-.757Zm0,1.365v3.164h.8v-3.164Z" transform="translate(-1201.981 -909.946)" fill="#fff"/>
                  </g>
                  <g id="Grupo_57608" data-name="Grupo 57608" transform="translate(10.751 1.288)">
                    <path id="Trazado_106306" data-name="Trazado 106306" d="M1213.138,917.272a1.019,1.019,0,0,0-.98.524c0-.114-.013-.358-.027-.446h-.776c.006.236.006.528.006.8v2.367h.8v-1.687c0-.6.229-.9.7-.9.438,0,.583.3.583.694v1.9h.8v-2C1214.238,917.7,1213.8,917.272,1213.138,917.272Z" transform="translate(-1211.354 -917.272)" fill="#fff"/>
                  </g>
                </g>
              </g>
              <g id="Grupo_57613" data-name="Grupo 57613" transform="translate(2.406 1.864)">
                <g id="Grupo_57612" data-name="Grupo 57612">
                  <g id="Grupo_57611" data-name="Grupo 57611">
                    <path id="Trazado_106307" data-name="Trazado 106307" d="M1014.278,719.7l.038-.035a.4.4,0,0,0,.126-.328v0c-.047-.552-.611-.844-1.031-1.061-.231-.118-.676-.225-.8-.486a1.136,1.136,0,0,1,0-.549.653.653,0,0,0,.17-.114.982.982,0,0,0,.162-1.087,2.023,2.023,0,0,0-.024-.756,1.629,1.629,0,0,0-.267-.5,1.258,1.258,0,0,0-.938-.449.194.194,0,0,0-.166-.1,1.218,1.218,0,0,0-1.052.485,1.591,1.591,0,0,0-.156,1.4c-.14.178-.094.389-.027.646.061.233.151.491.356.547a.559.559,0,0,1-.123.632,3.2,3.2,0,0,1-.508.29,2.962,2.962,0,0,0-1.026.646.957.957,0,0,0-.188.427.406.406,0,0,0,.124.381l.015.013a1.688,1.688,0,0,0,1.135.432h3.036A1.693,1.693,0,0,0,1014.278,719.7Z" transform="translate(-1008.82 -714.24)" fill="#1c1c1c"/>
                  </g>
                </g>
              </g>
              <g id="Grupo_57615" data-name="Grupo 57615" transform="translate(3.054 14.867)">
                <g id="Grupo_57614" data-name="Grupo 57614">
                  <path id="Trazado_106308" data-name="Trazado 106308" d="M1016.737,791.169a.675.675,0,0,0-.576-.324h-2.386v-1.077a.9.9,0,1,1,1.791,0v.715h.059v.105h-.059v.181h.648v-.181h-.059v-.105h.059v-.715a1.542,1.542,0,0,0-1.542-1.542c-.029,0-.057,0-.084,0a.019.019,0,0,1-.01,0,1.542,1.542,0,0,0-1.448,1.54v1.081a.674.674,0,0,0-.623.671v1.292a1.659,1.659,0,0,0,1.66,1.66h1.008a1.661,1.661,0,0,0,1.662-1.66v-1.292A.668.668,0,0,0,1016.737,791.169Zm-1.7,2.369h-.728l.088-.882a.49.49,0,1,1,.551,0Z" transform="translate(-1012.506 -788.226)" fill="#313130"/>
                </g>
              </g>
              <g id="Grupo_57651" data-name="Grupo 57651" transform="translate(0 27.354)">
                <g id="Grupo_57631" data-name="Grupo 57631" transform="translate(33.212 0.125)">
                  <g id="Grupo_57616" data-name="Grupo 57616">
                    <path id="Trazado_106309" data-name="Trazado 106309" d="M1185.158,860.391a.652.652,0,0,1,.135.013v-.389a1.07,1.07,0,0,0-.242-.023c-.442,0-.635.274-.635.684v.193h-.307v.375h.307v1.58h.494v-1.58h.375v-.375h-.375V860.7C1184.91,860.471,1184.973,860.391,1185.158,860.391Z" transform="translate(-1184.108 -859.991)" fill="#313130"/>
                  </g>
                  <g id="Grupo_57617" data-name="Grupo 57617" transform="translate(1.33 0.831)">
                    <path id="Trazado_106310" data-name="Trazado 106310" d="M1192.675,864.72a.958.958,0,0,0-1,1.029.988.988,0,1,0,1-1.029Zm-.01,1.662c-.307,0-.488-.263-.488-.637,0-.4.172-.637.482-.637s.488.248.488.642C1193.146,866.125,1192.98,866.382,1192.665,866.382Z" transform="translate(-1191.674 -864.72)" fill="#313130"/>
                  </g>
                  <g id="Grupo_57618" data-name="Grupo 57618" transform="translate(3.705 0.831)">
                    <path id="Trazado_106311" data-name="Trazado 106311" d="M1205.685,865.139c0-.13-.006-.32-.013-.372h-.484c0,.154,0,.322,0,.53v1.424h.492v-.846c0-.532.263-.69.673-.686v-.469A.678.678,0,0,0,1205.685,865.139Z" transform="translate(-1205.189 -864.72)" fill="#313130"/>
                  </g>
                  <g id="Grupo_57619" data-name="Grupo 57619" transform="translate(5.056 0.831)">
                    <path id="Trazado_106312" data-name="Trazado 106312" d="M1214.334,864.766c0,.04-.013.16-.017.227-.038-.107-.187-.273-.553-.273a.937.937,0,0,0-.89,1.035.869.869,0,0,0,.846.959.612.612,0,0,0,.6-.3v.107c0,.4-.084.648-.484.648-.255,0-.375-.107-.421-.263h-.5c.025.229.181.631.9.631.738,0,.991-.389.991-1.039v-1.168c0-.189,0-.4,0-.566Zm-.482,1.551c-.284,0-.471-.234-.471-.583,0-.383.185-.618.486-.618.36,0,.465.235.465.6S1214.206,866.317,1213.852,866.317Z" transform="translate(-1212.874 -864.72)" fill="#313130"/>
                  </g>
                  <g id="Grupo_57620" data-name="Grupo 57620" transform="translate(7.391 0.831)">
                    <path id="Trazado_106313" data-name="Trazado 106313" d="M1227.163,864.72a.957.957,0,0,0-1,1.029.988.988,0,1,0,1-1.029Zm-.011,1.662c-.307,0-.488-.263-.488-.637,0-.4.172-.637.482-.637s.486.248.486.642C1227.633,866.125,1227.466,866.382,1227.153,866.382Z" transform="translate(-1226.162 -864.72)" fill="#313130"/>
                  </g>
                  <g id="Grupo_57621" data-name="Grupo 57621" transform="translate(9.545 0.32)">
                    <path id="Trazado_106314" data-name="Trazado 106314" d="M1239.659,862.743v-.375h-.419v-.557h-.494v.557h-.326v.375h.326v1.065c0,.347.13.541.515.541a1.176,1.176,0,0,0,.347-.038v-.347a.744.744,0,0,1-.149.01c-.175,0-.219-.074-.219-.24v-.991Z" transform="translate(-1238.42 -861.811)" fill="#313130"/>
                  </g>
                  <g id="Grupo_57622" data-name="Grupo 57622" transform="translate(12.112 0.831)">
                    <path id="Trazado_106315" data-name="Trazado 106315" d="M1254.141,864.72a.668.668,0,0,0-.621.314c0-.091-.008-.215-.015-.267h-.482c0,.158,0,.318,0,.476V867.5h.492v-.978a.6.6,0,0,0,.547.25c.486,0,.89-.385.89-1.071A.871.871,0,0,0,1254.141,864.72Zm-.173,1.652c-.337,0-.467-.236-.467-.625s.135-.629.486-.629c.3,0,.465.244.465.6C1254.453,866.123,1254.289,866.372,1253.969,866.372Z" transform="translate(-1253.024 -864.72)" fill="#313130"/>
                  </g>
                  <g id="Grupo_57623" data-name="Grupo 57623" transform="translate(14.317 0.831)">
                    <path id="Trazado_106316" data-name="Trazado 106316" d="M1267.337,866.228v-.835c0-.423-.24-.673-.827-.673-.627,0-.818.311-.844.614h.478c.027-.141.084-.261.356-.261.3,0,.355.158.355.316v.118h-.332c-.574,0-.953.187-.953.648a.613.613,0,0,0,.688.614.635.635,0,0,0,.606-.267,1.035,1.035,0,0,0,.027.219h.471A4.171,4.171,0,0,1,1267.337,866.228Zm-.482-.356c0,.29-.078.537-.465.537-.223,0-.328-.126-.328-.284,0-.208.149-.307.5-.307h.295Z" transform="translate(-1265.57 -864.72)" fill="#313130"/>
                  </g>
                  <g id="Grupo_57624" data-name="Grupo 57624" transform="translate(16.441 0.831)">
                    <path id="Trazado_106317" data-name="Trazado 106317" d="M1278.632,865.5c-.345-.074-.414-.13-.414-.24,0-.094.063-.2.288-.2.284,0,.352.145.373.238h.475c-.021-.267-.229-.585-.827-.585s-.8.3-.8.587c0,.263.109.471.751.608.341.072.427.135.427.274s-.086.223-.332.223a.392.392,0,0,1-.431-.274h-.486c.051.366.334.631.894.631.6,0,.854-.282.854-.619C1279.408,865.867,1279.3,865.641,1278.632,865.5Z" transform="translate(-1277.66 -864.72)" fill="#313130"/>
                  </g>
                  <g id="Grupo_57625" data-name="Grupo 57625" transform="translate(18.451 0.831)">
                    <path id="Trazado_106318" data-name="Trazado 106318" d="M1290.064,865.5c-.347-.074-.414-.13-.414-.24,0-.094.061-.2.288-.2.284,0,.349.145.372.238h.476c-.021-.267-.229-.585-.827-.585s-.8.3-.8.587c0,.263.109.471.751.608.341.072.427.135.427.274s-.086.223-.332.223a.393.393,0,0,1-.431-.274h-.486c.049.366.335.631.894.631.6,0,.854-.282.854-.619C1290.84,865.867,1290.735,865.641,1290.064,865.5Z" transform="translate(-1289.092 -864.72)" fill="#313130"/>
                  </g>
                  <g id="Grupo_57626" data-name="Grupo 57626" transform="translate(20.355 0.877)">
                    <path id="Trazado_106319" data-name="Trazado 106319" d="M1302.4,864.983c-.257.991-.326,1.3-.368,1.5h0c-.029-.194-.1-.484-.37-1.5h-.463c-.267.976-.347,1.313-.389,1.525h-.006c-.036-.223-.135-.646-.351-1.525h-.52l.57,1.954h.537c.193-.7.328-1.2.366-1.424h0c.048.244.174.7.355,1.424h.528l.6-1.954Z" transform="translate(-1299.926 -864.983)" fill="#313130"/>
                  </g>
                  <g id="Grupo_57627" data-name="Grupo 57627" transform="translate(23.489 0.831)">
                    <path id="Trazado_106320" data-name="Trazado 106320" d="M1318.765,864.72a.958.958,0,0,0-1,1.029.989.989,0,1,0,1-1.029Zm-.009,1.662c-.309,0-.49-.263-.49-.637,0-.4.172-.637.482-.637s.488.248.488.642C1319.235,866.125,1319.069,866.382,1318.756,866.382Z" transform="translate(-1317.763 -864.72)" fill="#313130"/>
                  </g>
                  <g id="Grupo_57628" data-name="Grupo 57628" transform="translate(25.865 0.831)">
                    <path id="Trazado_106321" data-name="Trazado 106321" d="M1331.777,865.139c0-.13-.008-.32-.015-.372h-.484c0,.154,0,.322,0,.53v1.424h.494v-.846c0-.532.263-.69.671-.686v-.469A.673.673,0,0,0,1331.777,865.139Z" transform="translate(-1331.278 -864.72)" fill="#313130"/>
                  </g>
                  <g id="Grupo_57629" data-name="Grupo 57629" transform="translate(27.224 0.036)">
                    <path id="Trazado_106322" data-name="Trazado 106322" d="M1340.953,862.446V860.2h-.494V861.2c-.048-.091-.2-.213-.532-.213a.942.942,0,0,0-.915,1.042c0,.606.337,1.008.848,1.008a.62.62,0,0,0,.6-.28c0,.061.01.173.019.231h.478C1340.953,862.81,1340.953,862.627,1340.953,862.446Zm-.959.2c-.3,0-.473-.236-.473-.623s.168-.633.488-.633c.385,0,.467.254.467.621C1340.475,862.345,1340.385,862.642,1339.993,862.642Z" transform="translate(-1339.011 -860.195)" fill="#313130"/>
                  </g>
                  <g id="Grupo_57630" data-name="Grupo 57630" transform="translate(29.651 0.143)">
                    <path id="Trazado_106323" data-name="Trazado 106323" d="M1353.711,860.806a.8.8,0,0,0-.886.753h.486a.371.371,0,0,1,.387-.372.307.307,0,0,1,.345.318.521.521,0,0,1-.244.423.834.834,0,0,0-.393.68v.065h.513v-.036a.551.551,0,0,1,.25-.446.806.806,0,0,0,.376-.679C1354.546,861.21,1354.342,860.808,1353.711,860.806Zm-.305,2.093v.6h.513v-.6Z" transform="translate(-1352.825 -860.806)" fill="#313130"/>
                  </g>
                </g>
                <g id="Grupo_57650" data-name="Grupo 57650">
                  <g id="Grupo_57642" data-name="Grupo 57642" transform="translate(5.701 0.113)">
                    <g id="Grupo_57632" data-name="Grupo 57632" transform="translate(0 0.795)">
                      <path id="Trazado_106324" data-name="Trazado 106324" d="M1028.062,864.866c0-.133-.006-.322-.015-.372h-.482c0,.151,0,.322,0,.53v1.424h.492V865.6c0-.532.263-.69.671-.686v-.469A.676.676,0,0,0,1028.062,864.866Z" transform="translate(-1027.565 -864.445)" fill="#313130"/>
                    </g>
                    <g id="Grupo_57633" data-name="Grupo 57633" transform="translate(1.357 0.795)">
                      <path id="Trazado_106325" data-name="Trazado 106325" d="M1037.172,865.421a.884.884,0,0,0-.923-.976.937.937,0,0,0-.961,1.046.915.915,0,0,0,.947,1,.873.873,0,0,0,.913-.623h-.494a.385.385,0,0,1-.406.238.482.482,0,0,1-.465-.532h1.384A1.243,1.243,0,0,0,1037.172,865.421Zm-1.38-.158c.025-.261.152-.461.454-.461s.421.225.427.461Z" transform="translate(-1035.287 -864.445)" fill="#313130"/>
                    </g>
                    <g id="Grupo_57634" data-name="Grupo 57634" transform="translate(3.644 0.795)">
                      <path id="Trazado_106326" data-name="Trazado 106326" d="M1050.514,864.445a.688.688,0,0,0-.623.32.538.538,0,0,0-.537-.32.627.627,0,0,0-.566.3c0-.082-.011-.2-.019-.252h-.471c0,.164,0,.334,0,.5v1.452h.488v-1.083c0-.337.118-.522.379-.522s.322.189.322.4v1.2h.486v-1.109c0-.324.118-.5.374-.5s.326.2.326.4v1.212h.482V865.19C1051.16,864.658,1050.865,864.445,1050.514,864.445Z" transform="translate(-1048.299 -864.445)" fill="#313130"/>
                    </g>
                    <g id="Grupo_57635" data-name="Grupo 57635" transform="translate(6.911 0.795)">
                      <path id="Trazado_106327" data-name="Trazado 106327" d="M1068.774,865.421a.884.884,0,0,0-.924-.976.937.937,0,0,0-.962,1.046.916.916,0,0,0,.947,1,.873.873,0,0,0,.913-.623h-.494a.385.385,0,0,1-.406.238.482.482,0,0,1-.465-.532h1.386C1068.774,865.522,1068.774,865.48,1068.774,865.421Zm-1.38-.158c.025-.261.151-.461.454-.461s.421.225.427.461Z" transform="translate(-1066.889 -864.445)" fill="#313130"/>
                    </g>
                    <g id="Grupo_57636" data-name="Grupo 57636" transform="translate(9.198 0.795)">
                      <path id="Trazado_106328" data-name="Trazado 106328" d="M1082.117,864.445a.69.69,0,0,0-.623.32.538.538,0,0,0-.537-.32.627.627,0,0,0-.566.3c0-.082-.011-.2-.019-.252h-.471c0,.164,0,.334,0,.5v1.452h.488v-1.083c0-.337.118-.522.379-.522s.322.189.322.4v1.2h.486v-1.109c0-.324.118-.5.374-.5s.326.2.326.4v1.212h.482V865.19C1082.763,864.658,1082.469,864.445,1082.117,864.445Z" transform="translate(-1079.902 -864.445)" fill="#313130"/>
                    </g>
                    <g id="Grupo_57637" data-name="Grupo 57637" transform="translate(12.583)">
                      <path id="Trazado_106329" data-name="Trazado 106329" d="M1100.266,860.715a.667.667,0,0,0-.606.28V859.92h-.492v2.15c0,.215,0,.419,0,.648h.473a1.65,1.65,0,0,0,.015-.219.582.582,0,0,0,.566.265c.558,0,.886-.465.886-1.06A.874.874,0,0,0,1100.266,860.715Zm-.147,1.654c-.347,0-.478-.269-.478-.623,0-.4.135-.633.486-.633.324,0,.473.263.473.6C1100.6,862.1,1100.436,862.369,1100.118,862.369Z" transform="translate(-1099.163 -859.92)" fill="#313130"/>
                    </g>
                    <g id="Grupo_57638" data-name="Grupo 57638" transform="translate(14.819 0.795)">
                      <path id="Trazado_106330" data-name="Trazado 106330" d="M1113.775,865.421a.886.886,0,0,0-.926-.976.937.937,0,0,0-.962,1.046.916.916,0,0,0,.949,1,.87.87,0,0,0,.911-.623h-.494a.382.382,0,0,1-.4.238.48.48,0,0,1-.465-.532h1.384A1.243,1.243,0,0,0,1113.775,865.421Zm-1.38-.158c.025-.261.149-.461.452-.461a.415.415,0,0,1,.429.461Z" transform="translate(-1111.888 -864.445)" fill="#313130"/>
                    </g>
                    <g id="Grupo_57639" data-name="Grupo 57639" transform="translate(17.108 0.795)">
                      <path id="Trazado_106331" data-name="Trazado 106331" d="M1125.408,864.866c0-.133-.006-.322-.015-.372h-.482c0,.151,0,.322,0,.53v1.424h.494V865.6c0-.532.263-.69.671-.686v-.469A.676.676,0,0,0,1125.408,864.866Z" transform="translate(-1124.912 -864.445)" fill="#313130"/>
                    </g>
                    <g id="Grupo_57640" data-name="Grupo 57640" transform="translate(19.583 0.795)">
                      <path id="Trazado_106332" data-name="Trazado 106332" d="M1141.207,864.445a.685.685,0,0,0-.623.32.539.539,0,0,0-.539-.32.63.63,0,0,0-.566.3,2.131,2.131,0,0,0-.017-.252h-.473c0,.164,0,.334,0,.5v1.452h.488v-1.083c0-.337.12-.522.379-.522s.322.189.322.4v1.2h.486v-1.109c0-.324.118-.5.374-.5s.326.2.326.4v1.212h.484V865.19C1141.853,864.658,1141.559,864.445,1141.207,864.445Z" transform="translate(-1138.99 -864.445)" fill="#313130"/>
                    </g>
                    <g id="Grupo_57641" data-name="Grupo 57641" transform="translate(22.85 0.795)">
                      <path id="Trazado_106333" data-name="Trazado 106333" d="M1159.468,865.421a.886.886,0,0,0-.926-.976.937.937,0,0,0-.961,1.046.916.916,0,0,0,.949,1,.87.87,0,0,0,.911-.623h-.494a.382.382,0,0,1-.4.238.482.482,0,0,1-.465-.532h1.384A1.243,1.243,0,0,0,1159.468,865.421Zm-1.38-.158c.025-.261.149-.461.452-.461a.414.414,0,0,1,.429.461Z" transform="translate(-1157.581 -864.445)" fill="#313130"/>
                    </g>
                  </g>
                  <g id="Grupo_57649" data-name="Grupo 57649">
                    <g id="Grupo_57645" data-name="Grupo 57645">
                      <g id="Grupo_57644" data-name="Grupo 57644">
                        <g id="Grupo_57643" data-name="Grupo 57643">
                          <rect id="Rectángulo_5435" data-name="Rectángulo 5435" width="3.88" height="3.579" rx="1.79" fill="#ebebeb"/>
                        </g>
                      </g>
                    </g>
                    <g id="Grupo_57648" data-name="Grupo 57648" transform="translate(0.766 0.788)">
                      <g id="Grupo_57647" data-name="Grupo 57647">
                        <g id="Grupo_57646" data-name="Grupo 57646">
                          <path id="Trazado_106334" data-name="Trazado 106334" d="M1000.392,865.865l-.907-.833.273-.3.624.573,1.569-1.542.283.288Z" transform="translate(-999.485 -863.766)" fill="#ff505b"/>
                        </g>
                      </g>
                    </g>
                  </g>
                </g>
              </g>
            </g>
            <g id="Grupo_57672" data-name="Grupo 57672" transform="translate(16.681)">
              <g id="Grupo_57654" data-name="Grupo 57654" transform="translate(0 1.336)">
                <g id="Grupo_57653" data-name="Grupo 57653">
                  <path id="Trazado_106335" data-name="Trazado 106335" d="M1112.49,489.138a16.389,16.389,0,0,0-11.991-.093h0a16.333,16.333,0,1,0,11.992.093Z" transform="translate(-1090.044 -487.955)" fill="#ebebeb"/>
                </g>
              </g>
              <g id="Grupo_57671" data-name="Grupo 57671" transform="translate(1.675)">
                <g id="Grupo_57659" data-name="Grupo 57659" transform="translate(10.852 16.553)">
                  <g id="Grupo_57656" data-name="Grupo 57656" transform="translate(0 0.406)">
                    <g id="Grupo_57655" data-name="Grupo 57655">
                      <path id="Trazado_106336" data-name="Trazado 106336" d="M1168.294,579.688a4.351,4.351,0,0,0-.541-.551c-.675-.5-1.626-.288-2.453-.452a6.735,6.735,0,0,1-2.2-1.142,3.924,3.924,0,0,0-1.779-.693v3.32c.1.084.212.164.323.24.982.68,2.176,2.373,3.464,2.373s2.48-1.692,3.462-2.372c.106-.073.208-.149.309-.228A3.421,3.421,0,0,1,1168.294,579.688Z" transform="translate(-1161.322 -576.851)" fill="#ffd2b5"/>
                    </g>
                  </g>
                  <g id="Grupo_57658" data-name="Grupo 57658">
                    <g id="Grupo_57657" data-name="Grupo 57657">
                      <path id="Trazado_106337" data-name="Trazado 106337" d="M1161.322,574.945c.384.4,1.043.479,1.582.823a7.385,7.385,0,0,0,2.4,1.012c.826.164,1.777-.05,2.453.452a4.351,4.351,0,0,1,.541.551,3.422,3.422,0,0,0,.586.495l.014.01v-3.749h-7.572Z" transform="translate(-1161.322 -574.539)" fill="#d5a483"/>
                    </g>
                  </g>
                </g>
                <g id="Grupo_57666" data-name="Grupo 57666" transform="translate(8.459 3.379)">
                  <g id="Grupo_57661" data-name="Grupo 57661" transform="translate(0 5.402)">
                    <g id="Grupo_57660" data-name="Grupo 57660">
                      <path id="Trazado_106338" data-name="Trazado 106338" d="M1147.708,531.163v2.054a.847.847,0,0,0,.847.847v-3.748A.847.847,0,0,0,1147.708,531.163Z" transform="translate(-1147.708 -530.316)" fill="#d5a483"/>
                    </g>
                  </g>
                  <g id="Grupo_57663" data-name="Grupo 57663" transform="translate(11.61 5.402)">
                    <g id="Grupo_57662" data-name="Grupo 57662">
                      <path id="Trazado_106339" data-name="Trazado 106339" d="M1213.77,530.316v3.748a.847.847,0,0,0,.847-.847v-2.054A.847.847,0,0,0,1213.77,530.316Z" transform="translate(-1213.77 -530.316)" fill="#d5a483"/>
                    </g>
                  </g>
                  <g id="Grupo_57665" data-name="Grupo 57665" transform="translate(0.54)">
                    <g id="Grupo_57664" data-name="Grupo 57664">
                      <path id="Trazado_106340" data-name="Trazado 106340" d="M1150.78,501.973v6.54a5.862,5.862,0,0,0,2.441,4.786,5.577,5.577,0,0,0,6.495,0,5.812,5.812,0,0,0,1.783-2.063,5.918,5.918,0,0,0,.658-2.723v-8.937H1150.78Z" transform="translate(-1150.78 -499.577)" fill="#ffd2b5"/>
                    </g>
                  </g>
                </g>
                <g id="Grupo_57668" data-name="Grupo 57668" transform="translate(0 17.41)">
                  <g id="Grupo_57667" data-name="Grupo 57667">
                    <path id="Trazado_106341" data-name="Trazado 106341" d="M1125.944,583.794l-6.857-2.725-.054.011a3.115,3.115,0,0,0-.8-1.5,1.065,1.065,0,0,0-.238-.17,4.281,4.281,0,0,1-.5,1.991c-.057.1-.119.206-.184.306h0a3.425,3.425,0,0,1-6.4-.306,4.163,4.163,0,0,1-.484-1.7c-.007-.1-.012-.194-.014-.291a1.052,1.052,0,0,0-.238.17,3.114,3.114,0,0,0-.8,1.5l-.054-.011-6.857,2.725a5.079,5.079,0,0,0-2.893,3.141,16.339,16.339,0,0,0,29.26,0A5.077,5.077,0,0,0,1125.944,583.794Z" transform="translate(-1099.576 -579.412)" fill="#243d43"/>
                  </g>
                </g>
                <g id="Grupo_57670" data-name="Grupo 57670" transform="translate(7.485)">
                  <g id="Grupo_57669" data-name="Grupo 57669">
                    <path id="Trazado_106342" data-name="Trazado 106342" d="M1156.248,484.843a3.673,3.673,0,0,0-1.465-2.622.643.643,0,0,1,.095-.038.958.958,0,0,0,.344-.138,2.363,2.363,0,0,0-1.516-.627,6.463,6.463,0,0,0-1.173-.537c.021-.029.044-.058.068-.085a1.275,1.275,0,0,1,.686-.324,5.424,5.424,0,0,0-2.361.028l.015,0a13.917,13.917,0,0,0-3.4-.025,5.756,5.756,0,0,0-1.389-.024,4.1,4.1,0,0,0-1.2.431,2.007,2.007,0,0,1,.79.038,5.79,5.79,0,0,0-2.607,2.3c-.177.288-.359.6-.54.937-1,1.855.089,4.944.089,4.944l.182-.951s.214,3.872.653,3.843c.457-.031-.112-.636.722-2.9.181-.493.806-.791.908-1.512a2.047,2.047,0,0,1,1.829-1.781,3.172,3.172,0,0,0,.248.368.534.534,0,0,0,.34.181,2.6,2.6,0,0,1-.33-.595,6.12,6.12,0,0,1,.626-.059c.108,0,.216-.007.324-.008.082,0,.179-.031.2.076a.817.817,0,0,0,.244.416.72.72,0,0,0,.192.125c.024.011.143.036.155.059a1.536,1.536,0,0,1-.19-.636c0-.052.143-.031.173-.016.051.026.081.1.109.148a1.073,1.073,0,0,0,.517.466,2.307,2.307,0,0,0,.353.1c.04.009.176.011.206.043a1.21,1.21,0,0,1-.341-.693c0,.026,1.7.145,1.841.141.4-.014.793-.092,1.189-.134a.766.766,0,0,1,.263,0c.263.064.46.394.548.651a3.415,3.415,0,0,1,.128,1.05,2.189,2.189,0,0,0,.111-1.612.934.934,0,0,1,.521.592c.511,1.342.219,1.753.153,3.148a10.216,10.216,0,0,0,.345,1.995.2.2,0,0,0,.365.063,5.093,5.093,0,0,0,.394-1.524,7.213,7.213,0,0,0,.288-2.179.911.911,0,0,0-.027-.194c.163.121.323.25.483.375A32.118,32.118,0,0,0,1156.248,484.843Z" transform="translate(-1142.168 -480.351)" fill="#243d43"/>
                  </g>
                </g>
              </g>
            </g>
          </g>
        </g>
        <g id="Grupo_57677" data-name="Grupo 57677" transform="translate(94.587 97.989)">
          <g id="Grupo_57675" data-name="Grupo 57675" transform="translate(0.239 0.239)">
            <path id="Trazado_106343" data-name="Trazado 106343" d="M1310.926,896.473l2.494,7.948c.071.227.368.328.451.155l1.4-3.795a.148.148,0,0,1,.073-.072l3.809-1.308c.175-.078.081-.379-.143-.456l-7.847-2.7A.173.173,0,0,0,1310.926,896.473Z" transform="translate(-1310.913 -896.229)" fill="#fff"/>
          </g>
          <g id="Grupo_57676" data-name="Grupo 57676">
            <path id="Trazado_106344" data-name="Trazado 106344" d="M1312.6,903.782h-.032a.585.585,0,0,1-.5-.408l-2.495-7.948a.41.41,0,0,1,.54-.527l7.847,2.7a.587.587,0,0,1,.395.512.4.4,0,0,1-.232.388l-.02.008-3.755,1.29-1.386,3.762A.392.392,0,0,1,1312.6,903.782Zm-2.538-8.4,2.462,7.844a.115.115,0,0,0,.033.05l1.371-3.721a.387.387,0,0,1,.192-.188l.02-.008,3.716-1.276a.114.114,0,0,0-.05-.037Zm-.034-.11-.227.079.226-.071A.033.033,0,0,0,1310.031,895.274Z" transform="translate(-1309.553 -894.87)"/>
          </g>
        </g>
      </g>
    </g>
  </g>
</svg>
