<svg xmlns="http://www.w3.org/2000/svg" width="400" height="260.767" viewBox="0 0 400 260.767">
  <g id="Grupo_53961" data-name="Grupo 53961" transform="translate(-226.464 -333.766)">
    <g id="elements" transform="translate(256.355 333.766)">
      <g id="Grupo_53908" data-name="Grupo 53908" transform="translate(261.199 27.398)">
        <rect id="Rectángulo_5191" data-name="Rectángulo 5191" width="1.198" height="0.898" fill="#97c6ff"/>
        <path id="Trazado_100766" data-name="Trazado 100766" d="M1814.373,530.176h-1.2V528.3h1.2Zm0-3.757h-1.2v-1.878h1.2Zm0-3.756h-1.2v-1.878h1.2Zm0-3.756h-1.2v-1.878h1.2Zm0-3.757h-1.2v-1.878h1.2Zm0-3.756h-1.2v-1.878h1.2Zm0-3.756h-1.2v-1.878h1.2Zm0-3.757h-1.2V502h1.2Zm0-3.757h-1.2v-1.878h1.2Z" transform="translate(-1813.175 -495.469)" fill="#97c6ff"/>
        <rect id="Rectángulo_5192" data-name="Rectángulo 5192" width="1.198" height="0.898" transform="translate(0 36.585)" fill="#97c6ff"/>
      </g>
      <g id="Grupo_53909" data-name="Grupo 53909" transform="translate(243.037 27.398)">
        <rect id="Rectángulo_5193" data-name="Rectángulo 5193" width="1.198" height="0.898" transform="translate(8.373)" fill="#97c6ff"/>
        <path id="Trazado_100767" data-name="Trazado 100767" d="M1728.289,563.852l-.36-1.142a8.354,8.354,0,0,0,1.571-.681l.587,1.044A9.552,9.552,0,0,1,1728.289,563.852Zm3.4-1.906-.786-.9a8.446,8.446,0,0,0,1.172-1.251l.953.726A9.636,9.636,0,0,1,1731.686,561.946Zm2.359-3.1-1.081-.517a8.321,8.321,0,0,0,.575-1.613l1.164.284A9.53,9.53,0,0,1,1734.046,558.847Zm.926-3.784-1.2-.043q.005-.147.005-.3V553.2h1.2v1.522Q1734.977,554.894,1734.971,555.062Zm.006-3.7h-1.2v-1.839h1.2Zm0-3.678h-1.2v-1.839h1.2Zm0-3.678h-1.2v-1.839h1.2Zm0-3.678h-1.2V538.49h1.2Zm0-3.678h-1.2v-1.839h1.2Zm0-3.678h-1.2v-1.839h1.2Zm0-3.678h-1.2v-1.839h1.2Zm0-3.678h-1.2v-1.839h1.2Zm0-3.678h-1.2V520.1h1.2Zm0-3.678h-1.2v-1.839h1.2Zm0-3.678h-1.2v-1.839h1.2Zm0-3.678h-1.2v-1.839h1.2Zm0-3.678h-1.2v-1.839h1.2Zm0-3.678h-1.2V501.71h1.2Zm0-3.678h-1.2v-1.839h1.2Z" transform="translate(-1725.406 -495.295)" fill="#97c6ff"/>
        <path id="Trazado_100768" data-name="Trazado 100768" d="M1714.178,853.706v-1.2c.279,0,.562-.014.839-.042l.118,1.192C1714.819,853.69,1714.5,853.706,1714.178,853.706Z" transform="translate(-1714.178 -784.707)" fill="#97c6ff"/>
      </g>
      <g id="Grupo_53910" data-name="Grupo 53910" transform="translate(268.403 27.398)">
        <rect id="Rectángulo_5194" data-name="Rectángulo 5194" width="1.198" height="0.898" transform="translate(0)" fill="#97c6ff"/>
        <path id="Trazado_100769" data-name="Trazado 100769" d="M1853.639,515.021h-1.2v-1.869h1.2Zm0-3.739h-1.2v-1.869h1.2Zm0-3.738h-1.2v-1.869h1.2Zm0-3.739h-1.2v-1.869h1.2Zm0-3.739h-1.2V498.2h1.2Z" transform="translate(-1852.441 -495.429)" fill="#97c6ff"/>
        <path id="Trazado_100770" data-name="Trazado 100770" d="M1853.939,601.589h-1.5v-1.5h1.2v.3h.3Z" transform="translate(-1852.441 -578.631)" fill="#97c6ff"/>
        <path id="Trazado_100771" data-name="Trazado 100771" d="M1904.887,659.057h-1.129v-1.2h1.129a5.832,5.832,0,0,0,.6-.031l.125,1.191A6.976,6.976,0,0,1,1904.887,659.057Zm-2.92,0h-1.792v-1.2h1.792Zm-3.584,0h-1.792v-1.2h1.792Zm-3.584,0h-1.792v-1.2h1.792Zm-3.584,0h-1.792v-1.2h1.792Zm-3.584,0h-1.792v-1.2h1.792Zm-3.583,0h-1.792v-1.2h1.792Zm23.459-.516-.456-1.108a5.682,5.682,0,0,0,1.391-.82l.748.935A6.878,6.878,0,0,1,1907.508,658.541Zm3.023-2.417-.979-.689a5.672,5.672,0,0,0,.732-1.44l1.134.385A6.852,6.852,0,0,1,1910.53,656.124Zm1.245-3.666-1.2-.05c0-.082.005-.164.005-.246v-1.52h1.2v1.52Q1911.782,652.311,1911.776,652.458Zm.006-3.608h-1.2v-1.792h1.2Zm0-3.584h-1.2v-1.792h1.2Zm0-3.583h-1.2v-1.792h1.2Zm0-3.584h-1.2v-1.792h1.2Zm0-3.584h-1.2v-1.792h1.2Zm0-3.584h-1.2V629.14h1.2Zm0-3.583h-1.2v-1.792h1.2Zm0-3.584h-1.2v-1.792h1.2Zm0-3.584h-1.2v-1.792h1.2Zm0-3.584h-1.2v-1.792h1.2Zm0-3.584h-1.2v-1.792h1.2Zm-1.2-3.569a6.7,6.7,0,0,0-.24-1.622l1.154-.319a7.9,7.9,0,0,1,.283,1.913Zm-.869-3.136a6.694,6.694,0,0,0-.98-1.316l.867-.827a7.912,7.912,0,0,1,1.154,1.551Zm-2.249-2.355a6.67,6.67,0,0,0-1.483-.7l.374-1.138a7.882,7.882,0,0,1,1.75.825Zm-3.092-1.014c-.158-.011-.319-.017-.478-.017h-1.271v-1.2h1.271c.187,0,.376.007.562.02Zm-3.541-.017h-1.792v-1.2h1.792Zm-3.583,0h-1.792v-1.2h1.792Zm-3.584,0h-1.792v-1.2h1.792Zm-3.584,0h-1.792v-1.2h1.792Zm-3.584,0h-1.792v-1.2h1.792Zm-3.583,0h-1.792v-1.2h1.792Zm-3.584,0h-1.792v-1.2h1.792Zm-3.583,0h-1.792v-1.2h1.792Zm-3.584,0h-1.792v-1.2h1.792Z" transform="translate(-1867.082 -579.964)" fill="#97c6ff"/>
        <rect id="Rectángulo_5195" data-name="Rectángulo 5195" width="0.898" height="1.198" transform="translate(12.471 77.895)" fill="#97c6ff"/>
      </g>
      <g id="Grupo_53913" data-name="Grupo 53913" transform="translate(291.291 174.925)">
        <g id="Grupo_53911" data-name="Grupo 53911" transform="translate(0 12.801)">
          <path id="Trazado_100772" data-name="Trazado 100772" d="M2088.218,1370.757c-.739,6.758-9.785,5.268-15.781,10.312s-.056,11.933-13.8,13.411c-8.466.91-7.87-2.636-16.288,6.069-7.411,7.664-8.793-4.974-17.084-2.975-10.7,2.58-11.51-18.481-1.658-22.577s14.682,1.64,16.49-7.208,8.445-12.168,16.876-10.191c10.435,2.447,8.961,11.574,14.337,6.554S2089.194,1361.818,2088.218,1370.757Z" transform="translate(-2009.454 -1357.047)" fill="#80b2ff"/>
          <path id="Trazado_100773" data-name="Trazado 100773" d="M1978.434,1455.064c30.063-23.318,65.42-26.877,65.775-26.911,1.346-.129,1.191-1.749-.155-1.62-.361.035-36.418,3.737-66.849,27.341Z" transform="translate(-1977.205 -1413.78)" fill="#005cea"/>
        </g>
        <g id="Grupo_53912" data-name="Grupo 53912">
          <path id="Trazado_100774" data-name="Trazado 100774" d="M2041.364,1290.58c1.75,4.315-4.189,6.355-6.167,11.343s3.29,9.233-4.518,14.588c-4.809,3.3-6.827-2.978-11.413,2.7s-2.35,7.318-6.4,8.822c-7.067,2.62-14.5-8.366-9.888-14.035s10.9-3.652,9.112-9.574-2.377-8.433,3.349-9.979c7.087-1.913,11.977,2.413,13.588-2.359S2039.05,1284.873,2041.364,1290.58Z" transform="translate(-1997.081 -1287.27)" fill="#4d93ff"/>
          <path id="Trazado_100775" data-name="Trazado 100775" d="M1978.434,1369.907l-1.229-1.015c10.683-24.115,36.582-46.329,36.788-46.467.88-.589,1.5.337.62.926C2014.409,1323.487,1988.983,1346.1,1978.434,1369.907Z" transform="translate(-1977.205 -1315.822)" fill="#005cea"/>
        </g>
      </g>
      <g id="Grupo_53914" data-name="Grupo 53914" transform="translate(49.032 0)">
        <path id="Trazado_100776" data-name="Trazado 100776" d="M733.176,383.652a36.643,36.643,0,0,0,.731-14.453l1.487-.223,2.937-.439.037-.008A41.024,41.024,0,0,0,733,353.482l-3.868,2.3a36.66,36.66,0,0,0-9.714-10.725l2.685-3.628a40.851,40.851,0,0,0-14.438-6.855l-1.11,4.38a36.583,36.583,0,0,0-14.453-.731l-.671-4.461a41.285,41.285,0,0,0-15.046,5.37l2.3,3.868a36.654,36.654,0,0,0-10.726,9.713l-3.628-2.685a40.854,40.854,0,0,0-6.855,14.438l4.381,1.11a36.583,36.583,0,0,0-.731,14.453l-3.157.471-1.287.2-.017,0a41.293,41.293,0,0,0,5.37,15.046l3.869-2.3a36.729,36.729,0,0,0,9.73,10.73l-2.685,3.628a40.771,40.771,0,0,0,14.421,6.851l1.11-4.381a36.669,36.669,0,0,0,14.47.736l.516,3.468.155.993a41.215,41.215,0,0,0,15.029-5.374l-2.3-3.868a37.049,37.049,0,0,0,10.746-9.726l3.628,2.685a41.074,41.074,0,0,0,6.834-14.425ZM697.55,394.959a20.437,20.437,0,0,1-5.026-.631,20.195,20.195,0,1,1,5.026.631Zm-.037-39.945a19.611,19.611,0,1,0,4.821.6A19.637,19.637,0,0,0,697.513,355.013Z" transform="translate(-656.669 -333.766)" fill="none"/>
      </g>
      <g id="Grupo_53915" data-name="Grupo 53915" transform="translate(0 46.042)">
        <path id="Trazado_100777" data-name="Trazado 100777" d="M426.155,594.274a19.294,19.294,0,0,0-5.825-4.912l.38-.694.752-1.371.009-.018a21.6,21.6,0,0,0-8.017-2.543l-.267,2.356a19.3,19.3,0,0,0-7.59.654l-.665-2.282a21.509,21.509,0,0,0-7.473,3.867l1.482,1.861a19.262,19.262,0,0,0-4.912,5.825l-2.083-1.14a21.74,21.74,0,0,0-2.543,8.017l2.356.267a19.3,19.3,0,0,0,.654,7.591l-2.281.665a21.508,21.508,0,0,0,3.867,7.474l1.861-1.482a19.258,19.258,0,0,0,5.825,4.912l-.808,1.473-.325.6-.007.006a21.741,21.741,0,0,0,8.017,2.543l.267-2.356a19.34,19.34,0,0,0,7.6-.659l.665,2.282a21.469,21.469,0,0,0,7.467-3.862l-1.482-1.861a19.306,19.306,0,0,0,4.919-5.831l1.618.889.465.251a21.7,21.7,0,0,0,2.536-8.011l-2.356-.267a19.5,19.5,0,0,0-.652-7.6l2.282-.665a21.627,21.627,0,0,0-3.869-7.461Zm-15.138,22.939a10.861,10.861,0,1,1,6.766-2.365h0A10.825,10.825,0,0,1,411.016,617.212Zm-.03-21.023a10.175,10.175,0,1,0,1.162.066A10.314,10.314,0,0,0,410.986,596.19Z" transform="translate(-389.4 -584.735)" fill="none"/>
      </g>
      <g id="Grupo_53916" data-name="Grupo 53916" transform="translate(317.221 109.699)">
        <path id="Trazado_100778" data-name="Trazado 100778" d="M2148.532,939.508a15.739,15.739,0,0,0-4.753-4.007l.311-.567.613-1.118.007-.015a17.622,17.622,0,0,0-6.541-2.075l-.218,1.922a15.743,15.743,0,0,0-6.192.533l-.543-1.862a17.548,17.548,0,0,0-6.1,3.155l1.209,1.518a15.707,15.707,0,0,0-4.008,4.752l-1.7-.931a17.74,17.74,0,0,0-2.075,6.541l1.922.218a15.75,15.75,0,0,0,.533,6.193l-1.861.543a17.549,17.549,0,0,0,3.155,6.1l1.518-1.209a15.712,15.712,0,0,0,4.752,4.007l-.659,1.2-.265.493-.006,0a17.742,17.742,0,0,0,6.541,2.075l.218-1.922a15.773,15.773,0,0,0,6.2-.538l.543,1.862a17.518,17.518,0,0,0,6.092-3.151l-1.209-1.518a15.753,15.753,0,0,0,4.013-4.757l1.32.725.38.205a17.7,17.7,0,0,0,2.069-6.536l-1.922-.218a15.913,15.913,0,0,0-.532-6.2l1.861-.542a17.64,17.64,0,0,0-3.156-6.087Zm-12.344,18.682a8.958,8.958,0,0,1-1.01-.057,8.8,8.8,0,1,1,1.01.057Zm-.024-17.154a8.322,8.322,0,1,0,5.2,14.829h0a8.321,8.321,0,0,0-5.2-14.829Z" transform="translate(-2118.546 -931.726)" fill="none"/>
      </g>
      <path id="Trazado_100779" data-name="Trazado 100779" d="M1735.178,413.546a9.674,9.674,0,0,0-18.5-5.071,6.755,6.755,0,0,0-11.254,5.047h-1.262a6.549,6.549,0,0,0-6.53,6.53h0a6.549,6.549,0,0,0,6.53,6.53H1734.7a6.549,6.549,0,0,0,6.53-6.53h0A6.546,6.546,0,0,0,1735.178,413.546Z" transform="translate(-1457.632 -389.94)" fill="#80b2ff"/>
      <circle id="Elipse_4139" data-name="Elipse 4139" cx="2.43" cy="2.43" r="2.43" transform="translate(24.537 25.734) rotate(-45)" fill="#fff"/>
      <g id="Grupo_53917" data-name="Grupo 53917" transform="translate(312.745 153.392)">
        <path id="Trazado_100780" data-name="Trazado 100780" d="M2112.518,1177.629h0a.609.609,0,0,1-.609-.609V1170.5a.609.609,0,0,1,.609-.609h0a.609.609,0,0,1,.609.609v6.518A.609.609,0,0,1,2112.518,1177.629Z" transform="translate(-2108.65 -1169.894)" fill="#fff"/>
        <path id="Trazado_100781" data-name="Trazado 100781" d="M2094.146,1188.267h0a.609.609,0,0,1,.609-.609h6.518a.609.609,0,0,1,.609.609h0a.609.609,0,0,1-.609.609h-6.518A.609.609,0,0,1,2094.146,1188.267Z" transform="translate(-2094.146 -1184.399)" fill="#fff"/>
      </g>
      <path id="Trazado_100782" data-name="Trazado 100782" d="M1464.042,392.249a2.988,2.988,0,1,1,2.988-2.988A2.992,2.992,0,0,1,1464.042,392.249Zm0-5.154a2.165,2.165,0,1,0,2.165,2.165A2.168,2.168,0,0,0,1464.042,387.095Z" transform="translate(-1264.453 -376.639)" fill="#fff"/>
    </g>
    <g id="shadow" transform="translate(226.464 590.338)">
      <path id="Trazado_100783" data-name="Trazado 100783" d="M596.318,1736.513H228.561a2.1,2.1,0,0,1-2.1-2.1h0a2.1,2.1,0,0,1,2.1-2.1H596.318a2.1,2.1,0,0,1,2.1,2.1h0A2.1,2.1,0,0,1,596.318,1736.513Z" transform="translate(-226.464 -1732.318)" fill="#003c99"/>
    </g>
    <g id="laptop" transform="translate(252.576 398.584)">
      <g id="laptop-2" data-name="laptop">
        <rect id="Rectángulo_5196" data-name="Rectángulo 5196" width="284.513" height="181.577" rx="7" transform="translate(23.129)" fill="#b3d1ff"/>
        <rect id="Rectángulo_5197" data-name="Rectángulo 5197" width="179.124" height="282.059" rx="6" transform="translate(306.415 1.227) rotate(90)"/>
        <g id="Grupo_53918" data-name="Grupo 53918" transform="translate(32.738 7.341)">
          <rect id="Rectángulo_5198" data-name="Rectángulo 5198" width="265.581" height="166.052" fill="#0077ec"/>
        </g>
        <path id="Trazado_100784" data-name="Trazado 100784" d="M695.9,1676.842v4.422a5.19,5.19,0,0,1-.04.666,5.752,5.752,0,0,1-5.715,5.089h-315.6a5.75,5.75,0,0,1-5.713-5.089,5.179,5.179,0,0,1-.04-.666v-4.422Z" transform="translate(-368.798 -1495.266)" fill="#599aff"/>
        <path id="Trazado_100785" data-name="Trazado 100785" d="M696.039,1704.58a5.752,5.752,0,0,1-5.715,5.089H374.73a5.75,5.75,0,0,1-5.713-5.089Z" transform="translate(-368.977 -1517.915)" fill="#406eff"/>
      </g>
      <g id="image" transform="translate(50.649 118.095)">
        <g id="Grupo_53919" data-name="Grupo 53919" transform="translate(3.408)">
          <rect id="Rectángulo_5199" data-name="Rectángulo 5199" width="53.226" height="40.451" fill="#e3eeff"/>
          <rect id="Rectángulo_5200" data-name="Rectángulo 5200" width="48.187" height="35.481" transform="translate(2.52 2.485)" fill="#3397ff"/>
          <path id="Trazado_100786" data-name="Trazado 100786" d="M693.981,1448.441h32.455l-17.7-17.074Z" transform="translate(-688.381 -1412.919)" fill="#e3eeff"/>
          <path id="Trazado_100787" data-name="Trazado 100787" d="M774.424,1461.626h27.27l-14.758-14.111Z" transform="translate(-754.067 -1426.104)" fill="#e3eeff"/>
          <circle id="Elipse_4140" data-name="Elipse 4140" cx="3.759" cy="3.759" r="3.759" transform="translate(25.189 14.69) rotate(-45)" fill="#e3eeff"/>
        </g>
        <path id="Trazado_100788" data-name="Trazado 100788" d="M697.512,1385.707H644.883v-41.361h1.293v40.068h51.336Z" transform="translate(-644.883 -1341.862)" fill="#e3eeff"/>
      </g>
      <g id="paper" transform="translate(252.454 17.59)">
        <g id="Grupo_53920" data-name="Grupo 53920">
          <rect id="Rectángulo_5201" data-name="Rectángulo 5201" width="30.218" height="37.719" fill="#4da4ff"/>
        </g>
        <g id="Grupo_53921" data-name="Grupo 53921" transform="translate(3.621 3.895)">
          <rect id="Rectángulo_5202" data-name="Rectángulo 5202" width="30.218" height="37.719" fill="#e3eeff"/>
          <rect id="Rectángulo_5203" data-name="Rectángulo 5203" width="15.631" height="2.453" transform="translate(9.886 6.193)" fill="#005cea"/>
          <rect id="Rectángulo_5204" data-name="Rectángulo 5204" width="20.253" height="2.453" transform="translate(5.263 11.956)" fill="#005cea"/>
          <rect id="Rectángulo_5205" data-name="Rectángulo 5205" width="20.253" height="2.453" transform="translate(5.263 17.72)" fill="#005cea"/>
          <rect id="Rectángulo_5206" data-name="Rectángulo 5206" width="20.253" height="2.453" transform="translate(5.263 23.483)" fill="#005cea"/>
          <rect id="Rectángulo_5207" data-name="Rectángulo 5207" width="20.253" height="2.453" transform="translate(5.263 29.247)" fill="#005cea"/>
        </g>
      </g>
      <g id="login" transform="translate(85.565 42.564)">
        <rect id="Rectángulo_5208" data-name="Rectángulo 5208" width="161.602" height="99.756" rx="6" fill="#80b2ff" opacity="0.3"/>
        <g id="Grupo_53928" data-name="Grupo 53928" transform="translate(25.225 13.889)">
          <rect id="Rectángulo_5209" data-name="Rectángulo 5209" width="59.106" height="7.304" rx="3.652" transform="translate(41.852 23.585)" fill="#fff"/>
          <g id="Grupo_53924" data-name="Grupo 53924" transform="translate(62.18)">
            <circle id="Elipse_4141" data-name="Elipse 4141" cx="7.629" cy="7.629" r="7.629" fill="#fff"/>
            <g id="Grupo_53923" data-name="Grupo 53923" transform="translate(3.388 2.509)">
              <g id="Grupo_53922" data-name="Grupo 53922" transform="translate(1.846)">
                <path id="Trazado_100789" data-name="Trazado 100789" d="M1342.581,1013.294a2.409,2.409,0,0,0,1.872-.917,2.349,2.349,0,0,0,.516-1.49,2.4,2.4,0,1,0-4.794,0,2.346,2.346,0,0,0,.516,1.49A2.418,2.418,0,0,0,1342.581,1013.294Z" transform="translate(-1340.175 -1008.481)" fill="#005cea"/>
              </g>
              <path id="Trazado_100790" data-name="Trazado 100790" d="M1338.6,1041.966c0,1.519-8.48,1.519-8.48,0l0-1.77c.335-2.419,7.788-2.521,8.479,0Z" transform="translate(-1330.115 -1032.865)" fill="#005cea"/>
            </g>
          </g>
          <g id="Grupo_53925" data-name="Grupo 53925" transform="translate(43.824 18.345)">
            <path id="Trazado_100791" data-name="Trazado 100791" d="M1269.029,1139.574h-13.452a1.075,1.075,0,0,1-1.072-1.072h0a1.075,1.075,0,0,1,1.072-1.072h13.452a1.075,1.075,0,0,1,1.072,1.072h0A1.075,1.075,0,0,1,1269.029,1139.574Z" transform="translate(-1246.631 -1129.611)" fill="#80b2ff"/>
            <path id="Trazado_100792" data-name="Trazado 100792" d="M1225.649,1096.948H1212.66a1.075,1.075,0,0,1-1.072-1.072h0a1.075,1.075,0,0,1,1.072-1.072h12.989a1.075,1.075,0,0,1,1.072,1.072h0A1.075,1.075,0,0,1,1225.649,1096.948Z" transform="translate(-1211.588 -1094.804)" fill="#80b2ff"/>
            <path id="Trazado_100793" data-name="Trazado 100793" d="M1365.741,1139.574h-13.452a1.075,1.075,0,0,1-1.072-1.072h0a1.075,1.075,0,0,1,1.072-1.072h13.452a1.075,1.075,0,0,1,1.072,1.072h0A1.075,1.075,0,0,1,1365.741,1139.574Z" transform="translate(-1325.601 -1129.611)" fill="#80b2ff"/>
          </g>
          <g id="Grupo_53927" data-name="Grupo 53927" transform="translate(0 13.895)">
            <path id="Trazado_100794" data-name="Trazado 100794" d="M972.708,1170.357V1189.3c0,2.105,25.76,2.105,25.76,0v-18.945Z" transform="translate(-972.708 -1152.046)" fill="#fff"/>
            <g id="Grupo_53926" data-name="Grupo 53926" transform="translate(9.7 22.286)">
              <circle id="Elipse_4142" data-name="Elipse 4142" cx="3.18" cy="3.18" r="3.18" fill="#005cea"/>
              <path id="Trazado_100795" data-name="Trazado 100795" d="M1037.114,1223.3h0a1.3,1.3,0,0,1-1.3-1.3V1214.7h2.607V1222A1.3,1.3,0,0,1,1037.114,1223.3Z" transform="translate(-1033.933 -1210.543)" fill="#005cea"/>
            </g>
            <path id="Trazado_100796" data-name="Trazado 100796" d="M1006.257,1087.721h-2.607v-6.551a8.016,8.016,0,1,0-16.031,0v1.276h-2.607v-1.276a10.623,10.623,0,1,1,21.245,0Z" transform="translate(-982.755 -1070.547)" fill="#fff"/>
          </g>
        </g>
        <g id="Grupo_53930" data-name="Grupo 53930" transform="translate(40.01 57.402)">
          <path id="Trazado_100797" data-name="Trazado 100797" d="M1061.118,1232.51l-7.682,13.307a1.034,1.034,0,0,0,.9,1.552H1069.7a1.034,1.034,0,0,0,.9-1.552l-7.683-13.307A1.034,1.034,0,0,0,1061.118,1232.51Z" transform="translate(-1053.295 -1231.993)" fill="#03e6b0"/>
          <path id="Trazado_100798" data-name="Trazado 100798" d="M1072.624,1249.638h-15.365a.377.377,0,0,1-.326-.566l7.683-13.306a.377.377,0,0,1,.653,0l7.682,13.306a.377.377,0,0,1-.327.565Zm-15.259-.438h15.152l-7.576-13.122Zm7.63-13.215" transform="translate(-1056.223 -1234.92)"/>
          <g id="Grupo_53929" data-name="Grupo 53929" transform="translate(7.644 4.951)">
            <path id="Trazado_100799" data-name="Trazado 100799" d="M1096.057,1264.689h0a.839.839,0,0,1-.837-.781l-.258-3.754a1.1,1.1,0,0,1,1.094-1.172h0a1.1,1.1,0,0,1,1.095,1.172l-.258,3.754A.839.839,0,0,1,1096.057,1264.689Z" transform="translate(-1094.96 -1258.982)"/>
            <circle id="Elipse_4143" data-name="Elipse 4143" cx="0.828" cy="0.828" r="0.828" transform="translate(0.269 6.372)"/>
          </g>
        </g>
        <path id="Trazado_100800" data-name="Trazado 100800" d="M1296.021,1304.91h-23.74a3.663,3.663,0,0,1-3.652-3.652h0a3.663,3.663,0,0,1,3.652-3.652h23.74a3.663,3.663,0,0,1,3.652,3.652h0A3.663,3.663,0,0,1,1296.021,1304.91Z" transform="translate(-1189.115 -1228.167)" fill="#03e6b0"/>
      </g>
    </g>
    <g id="hackers" transform="translate(227.463 365.845)">
      <g id="hacker_03" data-name="hacker 03" transform="translate(0 61.348)">
        <g id="Grupo_53931" data-name="Grupo 53931" transform="translate(4.438)">
          <rect id="Rectángulo_5210" data-name="Rectángulo 5210" width="75.092" height="44.908" rx="2" transform="translate(0)" fill="#4d93ff"/>
          <rect id="Rectángulo_5211" data-name="Rectángulo 5211" width="75.092" height="7.749" transform="translate(0 8.481)" fill="#0046b3"/>
          <path id="Trazado_100801" data-name="Trazado 100801" d="M295.06,1040.85H284.019a1.271,1.271,0,0,0-1.271,1.271h0a1.271,1.271,0,0,0,1.271,1.271H295.06a1.271,1.271,0,0,0,1.271-1.271h0A1.271,1.271,0,0,0,295.06,1040.85Z" transform="translate(-277.859 -1004.558)" fill="#d1f5ff"/>
          <path id="Trazado_100802" data-name="Trazado 100802" d="M387.611,1040.85H376.57a1.271,1.271,0,0,0-1.271,1.271h0a1.271,1.271,0,0,0,1.271,1.271h11.041a1.271,1.271,0,0,0,1.271-1.271h0A1.271,1.271,0,0,0,387.611,1040.85Z" transform="translate(-353.431 -1004.558)" fill="#d1f5ff"/>
          <path id="Trazado_100803" data-name="Trazado 100803" d="M480.161,1040.85H469.12a1.271,1.271,0,0,0-1.271,1.271h0a1.271,1.271,0,0,0,1.271,1.271h11.041a1.271,1.271,0,0,0,1.271-1.271h0A1.271,1.271,0,0,0,480.161,1040.85Z" transform="translate(-429.003 -1004.558)" fill="#d1f5ff"/>
          <path id="Trazado_100804" data-name="Trazado 100804" d="M572.712,1040.85H561.671a1.271,1.271,0,0,0-1.271,1.271h0a1.271,1.271,0,0,0,1.271,1.271h11.041a1.271,1.271,0,0,0,1.271-1.271h0A1.271,1.271,0,0,0,572.712,1040.85Z" transform="translate(-504.575 -1004.558)" fill="#d1f5ff"/>
          <path id="Trazado_100805" data-name="Trazado 100805" d="M280.66,855.449h0a1.4,1.4,0,0,0-1.4,1.4v.493a1.4,1.4,0,0,0,1.4,1.4h0a1.4,1.4,0,0,0,1.4-1.4v-.493A1.4,1.4,0,0,0,280.66,855.449Z" transform="translate(-275.009 -853.17)" fill="#d1f5ff"/>
          <path id="Trazado_100806" data-name="Trazado 100806" d="M303.373,857.1h0a1.649,1.649,0,0,0,1.649,1.649h5.844a1.649,1.649,0,0,0,1.649-1.649h0a1.649,1.649,0,0,0-1.649-1.649h-5.844A1.649,1.649,0,0,0,303.373,857.1Z" transform="translate(-294.701 -853.17)" fill="#d1f5ff"/>
          <rect id="Rectángulo_5212" data-name="Rectángulo 5212" width="11.929" height="10.888" rx="2" transform="translate(5.715 20.399)" fill="#03e6b0"/>
        </g>
        <g id="Grupo_53932" data-name="Grupo 53932" transform="translate(0 41.913)">
          <path id="Trazado_100807" data-name="Trazado 100807" d="M250.73,1142.035a6.125,6.125,0,0,0-5.5,2.707,5.7,5.7,0,0,0,.207,6.1s-6.568-.138-7.6,5.984a6,6,0,0,0,4.549,7.268s-2.483,4.607,2.793,8.51,10.857-2.625,10.857-2.625a7.337,7.337,0,0,0,8.275-2.39c3.823-4.339.025-9.046.025-9.046s2.747-1.825,2.364-6.564-4.186-5.005-4.186-5.005,1.916-2.727.013-4.868-5.15-.476-5.15-.476-.792-3.608-3.339-3.227S250.73,1142.035,250.73,1142.035Z" transform="translate(-236.65 -1126.106)" fill="#d4675f"/>
          <path id="Trazado_100808" data-name="Trazado 100808" d="M369.128,1110.764l8.733-8.875-.008-15.358,2.885-.38s2.361,13.967,2.354,16.936c-.007,2.635-8.85,14.089-8.85,14.089Z" transform="translate(-343.955 -1083.462)" fill="#ffa88f"/>
          <path id="Trazado_100809" data-name="Trazado 100809" d="M405.757,1080.836s-1.712-.3-2.868-3.595c.935-.9,1.645,1,1.645,1s3.945-.938,4.1,1.208S405.757,1080.836,405.757,1080.836Z" transform="translate(-371.522 -1075.988)" fill="#ffa88f"/>
          <path id="Trazado_100810" data-name="Trazado 100810" d="M303.4,1217.445c2.758-2.327,10.722-1.243,10.722-1.243s5.2,4.269,5.625,7.424c.307,2.265-1.009,14.874-1.009,14.874H305.967l-4.829-13.25S300.642,1219.772,303.4,1217.445Z" transform="translate(-288.41 -1189.448)" fill="#333"/>
          <path id="Trazado_100811" data-name="Trazado 100811" d="M267.057,1336.628c-2.607,4.772-5.54,7.473-5.971,12-.632,6.636-2.161,17.294-1.911,25.644-3.331,14.626-4.108,18.29-5.391,27.155a6.873,6.873,0,0,0,3.379,1.2c2.356-6.019,18.644-59.122,21.046-66.924Z" transform="translate(-249.771 -1287.229)" fill="#333"/>
          <path id="Trazado_100812" data-name="Trazado 100812" d="M244.235,1665.5a29.031,29.031,0,0,0-.614,5.542l.488.125,1.538-3.643,2,4.438h3.192c.161-1.172-1.438-.992-1.438-.992a38.992,38.992,0,0,1-.176-4.755,47.72,47.72,0,0,1,1.917-6.8l-4.7-1.011-.926,5.884A1.786,1.786,0,0,0,244.235,1665.5Z" transform="translate(-241.473 -1550.732)" fill="#333"/>
          <path id="Trazado_100813" data-name="Trazado 100813" d="M346.925,1338.867a31.938,31.938,0,0,1,2.273,9.552s9.818,11.368,11.777,18.9c1.584,9.9,1.373,28.433,1.373,28.433l-3.626.021c-1.938-7.937-5.459-15.753-4.982-25.972l-18.1-19.637,4.507-11.3Z" transform="translate(-316.61 -1289.815)" fill="#333"/>
          <path id="Trazado_100814" data-name="Trazado 100814" d="M247.91,1111.553l-8.951-8.346,3.575-16.1-3.084-.949s-7.546,15.306-7.538,18.274c.007,2.635,12.728,14.917,12.728,14.917C246.643,1120.29,249.632,1115.864,247.91,1111.553Z" transform="translate(-231.911 -1083.462)" fill="#ffa88f"/>
          <path id="Trazado_100815" data-name="Trazado 100815" d="M273.6,1076.466s1.975-.659,2.756-4.771c-1.269-.9-1.769,1.483-1.769,1.483s-4.841-.407-4.642,2.162S273.6,1076.466,273.6,1076.466Z" transform="translate(-262.959 -1071.491)" fill="#ffa88f"/>
          <ellipse id="Elipse_4144" data-name="Elipse 4144" cx="6.808" cy="7.984" rx="6.808" ry="7.984" transform="matrix(0.885, -0.465, 0.465, 0.885, 10.697, 13.43)" fill="#ffa88f"/>
          <path id="Trazado_100816" data-name="Trazado 100816" d="M305.933,1155.472c4.4-2.407,9.271-3.365,13.037-4.129a7.482,7.482,0,0,1,.894,3.4,83.046,83.046,0,0,1-13.931,1.187Z" transform="translate(-292.353 -1136.694)" fill="#333"/>
          <path id="Trazado_100817" data-name="Trazado 100817" d="M335.766,1195.871h-4.8l-.19,5.169c0,1.069,2.477,2.577,4.487,2.459,1.563-.092,2.6-1.186,2.1-2.314Z" transform="translate(-312.64 -1173.053)" fill="#ffa88f"/>
          <path id="Trazado_100818" data-name="Trazado 100818" d="M322.746,1328.407l.622,2.267h13.2l.112-2.267Z" transform="translate(-306.082 -1281.275)" fill="#7d7d7d"/>
          <path id="Trazado_100819" data-name="Trazado 100819" d="M299.1,1128.375c-4.268-2.919-3.1-12.116,4.606-10.261.928-1.654,5.353-2.539,6.73,1.5,3.6.473,3.515,3.9,1.15,3.713l-9.665-.782S301.517,1127.293,299.1,1128.375Z" transform="translate(-284.777 -1108.425)" fill="#d4675f"/>
          <path id="Trazado_100820" data-name="Trazado 100820" d="M307.372,1174.362a1.32,1.32,0,1,1-1.32-1.32A1.32,1.32,0,0,1,307.372,1174.362Z" transform="translate(-291.373 -1154.412)" fill="#ffa88f"/>
          <path id="Trazado_100821" data-name="Trazado 100821" d="M449.738,1615.465c-.267,1.237.536,4.039.951,5.356h.77l.323-3.872,3.5,3.872h3.133c0-1.194-1.784-1.641-1.784-1.641s-1.08-2.875-1.6-4.553a47.763,47.763,0,0,1-.852-6.592l-5.462-.311,1.818,5.8S450.093,1613.819,449.738,1615.465Z" transform="translate(-408.942 -1509.349)" fill="#333"/>
        </g>
      </g>
      <g id="hacker_02" data-name="hacker 02" transform="translate(188.619)">
        <g id="Grupo_53934" data-name="Grupo 53934" transform="translate(5.074 38.242)">
          <path id="Trazado_100822" data-name="Trazado 100822" d="M1385.831,759.236a6.928,6.928,0,0,1,1.485,2.03c.573,1.223-2.944.163-2.906-.989S1385.36,759.022,1385.831,759.236Z" transform="translate(-1366.67 -751.429)" fill="#333"/>
          <g id="Grupo_53933" data-name="Grupo 53933">
            <path id="Trazado_100823" data-name="Trazado 100823" d="M1304.41,732.779l-.741-1.521a1.391,1.391,0,0,0-1.86-.641L1288.5,737.1a1.391,1.391,0,0,0-.641,1.86l13.1,26.886,34.436-16.776-12.357-25.365Z" transform="translate(-1287.715 -722.491)" fill="#0f4599"/>
            <path id="Trazado_100824" data-name="Trazado 100824" d="M1340.191,724.941l-33.767,16.45,9.806,25.464,34.268-16.694Z" transform="translate(-1302.992 -723.499)" fill="#fff"/>
            <path id="Trazado_100825" data-name="Trazado 100825" d="M1357.914,743.661l-34.436,16.776-8.1-25.917a1.606,1.606,0,0,1,.83-1.924l31.514-15.353a1.606,1.606,0,0,1,2.237.965Z" transform="translate(-1310.24 -717.081)" fill="#458eff"/>
          </g>
        </g>
        <path id="Trazado_100826" data-name="Trazado 100826" d="M1321.48,535.113s-10.951-5.84-9.247-14.67,14.551-5.559,17.188-.428,4.288,13.233,2.134,15.187S1321.48,535.113,1321.48,535.113Z" transform="translate(-1302.514 -513.781)" fill="#333"/>
        <g id="Grupo_53938" data-name="Grupo 53938" transform="translate(0 4.015)">
          <path id="Trazado_100827" data-name="Trazado 100827" d="M1375.589,623.658h-28.008l-1.431-11.231a105.192,105.192,0,0,1,20.378-3.027,48.944,48.944,0,0,1,7.2,9.868A26.367,26.367,0,0,1,1375.589,623.658Z" transform="translate(-1330.356 -594.927)" fill="#333"/>
          <path id="Trazado_100828" data-name="Trazado 100828" d="M1412.456,667.58H1391.3l19.294-4.39A26.375,26.375,0,0,1,1412.456,667.58Z" transform="translate(-1367.223 -638.849)" fill="#0e0e0e"/>
          <path id="Trazado_100829" data-name="Trazado 100829" d="M1287.356,611.922s-17.186,3.55-23.531,5.883c-3.639,1.339-4.541,4.348-3.139,6.663,2.077,3.429,24.688.966,24.688.966C1293.881,623.053,1291.424,611.773,1287.356,611.922Z" transform="translate(-1260.059 -596.985)" fill="#333"/>
          <path id="Trazado_100830" data-name="Trazado 100830" d="M1424.91,564.776s10.5-4.915,16.857-7.2c4.648-3.809,9.517,1.83,7.8,4.14-3.479,5.793-16.009,13.482-16.009,13.482C1425.513,578.836,1421.7,567.275,1424.91,564.776Z" transform="translate(-1393.738 -551.558)" fill="#333"/>
          <path id="Trazado_100831" data-name="Trazado 100831" d="M1354.534,599.383s-3.46-5.266,5.127-9.345,14.364,0,12.933,4.937-6.492,8.231-6.492,8.231S1357.54,603.248,1354.534,599.383Z" transform="translate(-1336.639 -577.755)" fill="#333"/>
          <path id="Trazado_100832" data-name="Trazado 100832" d="M1378.758,574.165l-1.314-2.507-1.095-2.087-5.789,2.23,1.053,4.286s.357.967.915,2.126C1373.217,579.319,1378.781,576.742,1378.758,574.165Z" transform="translate(-1350.288 -562.405)" fill="#f7a28a"/>
          <path id="Trazado_100833" data-name="Trazado 100833" d="M1372.529,578.213a12.607,12.607,0,0,0,4.915-6.554l-1.095-2.087-5.789,2.23,1.053,4.286A11.109,11.109,0,0,0,1372.529,578.213Z" transform="translate(-1350.288 -562.405)" fill="#f0896c"/>
          <g id="Grupo_53935" data-name="Grupo 53935" transform="translate(12.088)">
            <path id="Trazado_100834" data-name="Trazado 100834" d="M1328.732,541.845c2.97,3.044,7.161,5.222,8.819,3.387,2.81-3.111,3.875-8.423.455-11.843s-7.445-3.817-10.194-1.067S1325.354,538.384,1328.732,541.845Z" transform="translate(-1325.951 -530.51)" fill="#f7a28a"/>
            <path id="Trazado_100835" data-name="Trazado 100835" d="M1334.526,553.929s2.627-5.621,10.729-8.212l.4.462-2.339,1.441a3.425,3.425,0,0,1-.5,3.355c-1.281,1.393-3.891,1.395-3.891,1.395s.286,2.314-1.091,3.094C1336.048,556.474,1334.526,553.929,1334.526,553.929Z" transform="translate(-1332.953 -542.927)" fill="#333"/>
          </g>
          <g id="Grupo_53936" data-name="Grupo 53936" transform="translate(0.607 22.77)">
            <path id="Trazado_100836" data-name="Trazado 100836" d="M1283.052,670.954l-2.467,2.336s-2.294-1.4-5.629-3.71c-2.2-1.518-4.848-3.419-7.592-5.573-6.068-4.765-3.424-8.019-3.424-8.019s2.3-2.916,5.935-.21c1.74,1.294,5.741,6.008,8.882,9.832C1281.153,668.537,1283.052,670.954,1283.052,670.954Z" transform="translate(-1263.368 -654.627)" fill="#f7a28a"/>
            <path id="Trazado_100837" data-name="Trazado 100837" d="M1357.387,741.779l3.972,3.053s1.663,5.819.866,5.854c-.433.019-1.708-2.211-1.708-2.211s-1.96,1.657-2.531,1.442c-.738-.278-1.953-3.037-1.953-3.037l-1.594-3.359S1355.251,740.622,1357.387,741.779Z" transform="translate(-1337.732 -725.568)" fill="#333"/>
            <path id="Trazado_100838" data-name="Trazado 100838" d="M1334.213,719.587l-2.467,2.336a52.749,52.749,0,0,1-5.723-3.5c.34-2.222,3.061-3.79,4.057-4.236C1332.475,717.115,1334.213,719.587,1334.213,719.587Z" transform="translate(-1314.528 -703.26)" fill="#333"/>
          </g>
          <g id="Grupo_53937" data-name="Grupo 53937" transform="translate(46.674 6.266)">
            <path id="Trazado_100839" data-name="Trazado 100839" d="M1525.792,564.689s-3.665-.58-4.5,3.878c-.571,3.067.232,14.582.54,18.645h3.906c.652-2.517,1.985-7.994,2.991-14.315C1529.946,565.277,1525.792,564.689,1525.792,564.689Z" transform="translate(-1519.882 -564.664)" fill="#f7a28a"/>
            <path id="Trazado_100840" data-name="Trazado 100840" d="M1527.121,651.063a49.943,49.943,0,0,0,1.44-6.5c.069-2.141-5.816-2.33-5.884-.189l.45,6.688Z" transform="translate(-1521.173 -628.516)" fill="#333"/>
            <path id="Trazado_100841" data-name="Trazado 100841" d="M1515.2,682.581s-1.276-4.241-.426-5.221c1.683-1.939,6.312-.333,6.19,1.15a1.81,1.81,0,0,0-1.489.727s.128,3.558-.21,3.344a11.224,11.224,0,0,1-.953-2.743s.021,3.627-.466,3.4-.8-3.193-.8-3.193.148,3.014-.339,3.014-1.007-2.886-1.007-2.886S1515.852,682.8,1515.2,682.581Z" transform="translate(-1514.477 -655.956)" fill="#333"/>
          </g>
          <path id="Trazado_100842" data-name="Trazado 100842" d="M1408.879,612.016c-3.122-4.281-3.864-10.508-3.871-10.57l-.008-.068.063-.027c6.231-2.654,7.349-6.239,7.36-6.275l.176.052c-.011.036-1.137,3.676-7.4,6.365.089.686.91,6.414,3.828,10.416Z" transform="translate(-1378.41 -583.231)" fill="#0e0e0e"/>
          <path id="Trazado_100843" data-name="Trazado 100843" d="M1361.215,624.847a7.961,7.961,0,0,1-5.426-1.733l.13-.13c.028.028,2.9,2.813,8.973,1.151l.048.177A14.1,14.1,0,0,1,1361.215,624.847Z" transform="translate(-1338.227 -606.02)" fill="#0e0e0e"/>
        </g>
        <path id="Trazado_100844" data-name="Trazado 100844" d="M1313.417,522.7s-1.781-3.86,1.254-6.077,12.024,1.7,17.519,8.823c.347-4.1-5.534-20.892-15.887-15.9C1307.6,513.737,1313.417,522.7,1313.417,522.7Z" transform="translate(-1302.073 -508.624)" fill="#333"/>
      </g>
      <g id="hacker_01" data-name="hacker 01" transform="translate(224.079 131.088)">
        <g id="Grupo_53947" data-name="Grupo 53947" transform="translate(26.548 2.514)">
          <path id="Trazado_100845" data-name="Trazado 100845" d="M1646.305,1337.953l-8.273,3.414c-3.713,2.295-2.067,7.392,1.44,6.792,4.633-.793,7.434-.252,11.217-2.054C1657.725,1342.721,1653.341,1334.57,1646.305,1337.953Z" transform="translate(-1628.979 -1318.752)" fill="#333"/>
          <path id="Trazado_100846" data-name="Trazado 100846" d="M1683.988,1335.336c-3.25-3.984-12.29-2.823-13.839,4.865-1.189,5.9,4.322,17.687,6.874,25.923h20.018C1698.133,1356.849,1689.269,1341.24,1683.988,1335.336Z" transform="translate(-1656.789 -1315.445)" fill="#333"/>
          <g id="Grupo_53944" data-name="Grupo 53944" transform="translate(5.947)">
            <path id="Trazado_100847" data-name="Trazado 100847" d="M1680.091,1292.809c1.12-.328,2.2-.247,2.617.567l1.15,2.608,2.262,5.159c.769,1.627-6.153,3.938-6.926,2.3l-2.286-7.072C1676.213,1295.03,1678.218,1293.347,1680.091,1292.809Z" transform="translate(-1668.275 -1282.401)" fill="#f7a594"/>
            <g id="Grupo_53943" data-name="Grupo 53943">
              <g id="Grupo_53940" data-name="Grupo 53940" transform="translate(1.601 1.489)">
                <g id="Grupo_53939" data-name="Grupo 53939">
                  <path id="Trazado_100848" data-name="Trazado 100848" d="M1639.713,1250.568c-1.59,4.241.749,10.33,4.444,11.715s7.348-2.458,8.938-6.7-.117-8.8-3.813-10.188S1641.3,1246.326,1639.713,1250.568Z" transform="translate(-1639.207 -1244.994)" fill="#f7a594"/>
                </g>
              </g>
              <path id="Trazado_100849" data-name="Trazado 100849" d="M1700.711,1303.7a1.022,1.022,0,0,0,.561,1.736,2,2,0,0,0,2.2-.865,1.336,1.336,0,0,0-.276-1.979C1702.579,1302.175,1701.243,1302.917,1700.711,1303.7Z" transform="translate(-1687.59 -1290.439)" fill="#f7a594"/>
              <g id="Grupo_53942" data-name="Grupo 53942" transform="translate(2.92)">
                <g id="Grupo_53941" data-name="Grupo 53941" transform="translate(0.633)">
                  <path id="Trazado_100850" data-name="Trazado 100850" d="M1662.5,1248.656c-4.238-4.3-7.193-6.2-12.654-7.942,0,0,6.383-7.009,12.448-2.077C1667.458,1242.832,1662.5,1248.656,1662.5,1248.656Z" transform="translate(-1649.85 -1236.878)" fill="#333"/>
                </g>
                <path id="Trazado_100851" data-name="Trazado 100851" d="M1646.733,1252.571c3.613.227,11.886,7.244,12.807,9.011.342.443,2.1-1.816,1.161-3.519-.567-1.03-6.344-6.373-12.17-7.841C1646.8,1249.786,1645.851,1252.421,1646.733,1252.571Z" transform="translate(-1646.398 -1247.735)" fill="#333"/>
                <ellipse id="Elipse_4145" data-name="Elipse 4145" cx="1.965" cy="3.031" rx="1.965" ry="3.031" transform="matrix(0.51, -0.86, 0.86, 0.51, 10.434, 3.78)" fill="#333"/>
                <path id="Trazado_100852" data-name="Trazado 100852" d="M1669.662,1257.867a.12.12,0,0,1-.094-.045c-.049-.061-4.939-6.061-12.1-7.8a.12.12,0,0,1-.089-.145.121.121,0,0,1,.145-.088c7.246,1.759,12.186,7.822,12.235,7.883a.12.12,0,0,1-.094.2Z" transform="translate(-1655.359 -1247.418)" fill="#0e0e0e"/>
              </g>
              <path id="Trazado_100853" data-name="Trazado 100853" d="M1641.647,1256.237s-.852,1.156-1.8.286-.384-1.5-.384-1.5-2.187,1.383-3.75.039c-.795-.684-.184-1.871-.184-1.871-2.619,1.24-5.7-.207-4.936-2.689,1.475-2.35,3.4-.442,3.835.546A20.231,20.231,0,0,1,1641.647,1256.237Z" transform="translate(-1630.479 -1247.088)" fill="#bd4a31"/>
              <path id="Trazado_100854" data-name="Trazado 100854" d="M1648.16,1283.3s-6.687-.122-9.712-2.212c-.644,2.051-.1,4.726.847,5.148s2.4-1.2,2.4-1.2a2.969,2.969,0,0,0,2.659,2.062C1647.24,1287.1,1648.16,1283.3,1648.16,1283.3Z" transform="translate(-1636.757 -1272.977)" fill="#333"/>
              <path id="Trazado_100855" data-name="Trazado 100855" d="M1668.4,1290.493a34.331,34.331,0,0,1-7.16-.517c-.894-.167-1.039.61-.145.776,0,0,5.9.847,7.528.273A.383.383,0,0,0,1668.4,1290.493Z" transform="translate(-1654.987 -1280.216)" fill="#333"/>
            </g>
          </g>
          <g id="Grupo_53946" data-name="Grupo 53946" transform="translate(1.392 14.106)">
            <g id="Grupo_53945" data-name="Grupo 53945">
              <path id="Trazado_100856" data-name="Trazado 100856" d="M1616.94,1322.1c-2.236-2.374-5.018-6.292-7.455-8.332a5.153,5.153,0,0,1-3.646,1.829c-1.1,2.745,2.8,8.84,5.491,12.035C1615.113,1331.311,1620.723,1325.779,1616.94,1322.1Z" transform="translate(-1605.647 -1313.767)" fill="#333"/>
            </g>
          </g>
          <path id="Trazado_100857" data-name="Trazado 100857" d="M1603.067,1299.73l-1.834-2.149c-.929-1.726-3.923-.116-2.994,1.611l1.143,3.1a2.508,2.508,0,0,0,2.461.021A2.691,2.691,0,0,0,1603.067,1299.73Z" transform="translate(-1598.062 -1285.841)" fill="#333"/>
          <path id="Trazado_100858" data-name="Trazado 100858" d="M1606.351,1309.244a1.625,1.625,0,0,1,1.059.955c.207.716-.738,2.32-1.79,2.7-1.12.4-1.992.609-2.655-.169s-.32-1.242-.32-1.242.821.938,2.537-.187C1606.568,1310.393,1606.513,1309.559,1606.351,1309.244Z" transform="translate(-1601.732 -1295.968)" fill="#333"/>
          <path id="Trazado_100859" data-name="Trazado 100859" d="M1678.6,1420.234c2.365-.294,6.077-1.279,9.407-1.572-2.88,1.861-6,4.537-7.25,7.945Z" transform="translate(-1663.828 -1385.313)" fill="#0e0e0e"/>
        </g>
        <g id="Grupo_53951" data-name="Grupo 53951" transform="translate(30.207 45.861)">
          <g id="Grupo_53950" data-name="Grupo 53950" transform="translate(3.883 26.028)">
            <path id="Trazado_100860" data-name="Trazado 100860" d="M1672.511,1615.375l.973,4.19c.635,1.571-2.218,2.71-2.852,1.14l-1.766-3.877C1668.463,1615.827,1672.108,1614.375,1672.511,1615.375Z" transform="translate(-1663.392 -1615.038)" fill="#fff"/>
            <g id="Grupo_53949" data-name="Grupo 53949" transform="translate(0 3.628)">
              <g id="Grupo_53948" data-name="Grupo 53948" transform="translate(0 0.992)">
                <path id="Trazado_100861" data-name="Trazado 100861" d="M1642.446,1641.937l2.889-1.714c2.222,2.023,3.509-.777,4.139.461s.417,4.228.417,4.228l-10.4.277S1637.734,1643.452,1642.446,1641.937Z" transform="translate(-1639.168 -1640.223)" fill="#333"/>
              </g>
              <path id="Trazado_100862" data-name="Trazado 100862" d="M1657.034,1637.522a8.212,8.212,0,0,0,2.588-2.394c.409-.809,2.024.093,1.279,1.132A3.717,3.717,0,0,1,1657.034,1637.522Z" transform="translate(-1653.756 -1634.816)" fill="#333"/>
            </g>
          </g>
          <path id="Trazado_100863" data-name="Trazado 100863" d="M1647.509,1485.644c-6.416.981-12.912-.122-19-1.58,2.069,5.234.954,5.368,2.88,14.8-.161,1.935-3.824,3.244-5.105,1.5,0,0-11.456-20.181-7.425-24.638s29.508-1.878,32.85-1.3C1653.932,1475.194,1654.8,1484.319,1647.509,1485.644Z" transform="translate(-1618.005 -1473.162)" fill="#333"/>
          <path id="Trazado_100864" data-name="Trazado 100864" d="M1670.145,1614.37l.407,1.849c-.156.85-2.753,1.878-3.777,1.066l-.826-1.83Z" transform="translate(-1657.153 -1588.465)" fill="#333"/>
        </g>
        <g id="Grupo_53955" data-name="Grupo 53955" transform="translate(50.473 44.246)">
          <g id="Grupo_53954" data-name="Grupo 53954" transform="translate(26.245 26.147)">
            <path id="Trazado_100865" data-name="Trazado 100865" d="M1872.032,1612.519l4.3-.208c1.659-.343,2.27,2.667.611,3.011l-4.13,1.043C1871.753,1616.583,1870.976,1612.737,1872.032,1612.519Z" transform="translate(-1871.53 -1611.293)" fill="#fff"/>
            <g id="Grupo_53953" data-name="Grupo 53953" transform="translate(3.667)">
              <g id="Grupo_53952" data-name="Grupo 53952" transform="translate(0.992)">
                <path id="Trazado_100866" data-name="Trazado 100866" d="M1898.753,1614.442l-1.822-2.821c1.938-2.3-.909-3.478.3-4.153s4.209-.577,4.209-.577l.672,10.384S1900.445,1619.093,1898.753,1614.442Z" transform="translate(-1896.922 -1606.886)" fill="#333"/>
              </g>
              <path id="Trazado_100867" data-name="Trazado 100867" d="M1894.339,1630.316a8.207,8.207,0,0,0-2.49-2.5c-.824-.378.016-2.026,1.083-1.322A3.718,3.718,0,0,1,1894.339,1630.316Z" transform="translate(-1891.517 -1622.759)" fill="#333"/>
            </g>
          </g>
          <path id="Trazado_100868" data-name="Trazado 100868" d="M1755.213,1496.529s-21.922,7.667-25.588,2.9c-1.485-1.94-1.366-6.8-.6-12.075.431-2.851,1.03-5.822,1.654-8.529a92.554,92.554,0,0,1,2.659-9.583c1.965-5.079,11.38-8.481,11.572,1.773-.168,6.493-1.653,12.794-5.343,20.413,5.51-1.1,5.439.024,15.07-.192C1756.507,1491.737,1757.154,1495.571,1755.213,1496.529Z" transform="translate(-1728.472 -1464.361)" fill="#333"/>
          <path id="Trazado_100869" data-name="Trazado 100869" d="M1871.8,1612.857l1.892-.07c.808.306,1.355,3.045.374,3.907l-1.949.486Z" transform="translate(-1845.504 -1585.557)" fill="#333"/>
          <path id="Trazado_100870" data-name="Trazado 100870" d="M1742.565,1541.761a27.3,27.3,0,0,0-11.069,8.793c.431-2.851,1.03-5.822,1.654-8.529A36.629,36.629,0,0,0,1742.565,1541.761Z" transform="translate(-1730.941 -1527.562)" fill="#0e0e0e"/>
        </g>
        <g id="Grupo_53957" data-name="Grupo 53957">
          <path id="Trazado_100871" data-name="Trazado 100871" d="M1486.345,1228.673l-26.2,44.69a3.663,3.663,0,0,1-5,1.3h0a3.663,3.663,0,0,1-1.3-5l26.2-44.69a3.663,3.663,0,0,1,5-1.3h0A3.663,3.663,0,0,1,1486.345,1228.673Z" transform="translate(-1453.35 -1223.177)" fill="#fff"/>
          <g id="Grupo_53956" data-name="Grupo 53956" transform="translate(6.142 10.056)">
            <circle id="Elipse_4146" data-name="Elipse 4146" cx="1.286" cy="1.286" r="1.286" transform="translate(0 31.076) rotate(-14.623)" fill="#80b2ff"/>
            <circle id="Elipse_4147" data-name="Elipse 4147" cx="1.286" cy="1.286" r="1.286" transform="matrix(0.793, -0.61, 0.61, 0.793, 1.995, 27.957)" fill="#80b2ff"/>
            <path id="Trazado_100872" data-name="Trazado 100872" d="M1514.61,1404.1a1.286,1.286,0,1,1-1.759.459A1.285,1.285,0,0,1,1514.61,1404.1Z" transform="translate(-1507.932 -1380.818)" fill="#80b2ff"/>
            <path id="Trazado_100873" data-name="Trazado 100873" d="M1526.762,1383.366a1.286,1.286,0,1,1-1.76.459A1.286,1.286,0,0,1,1526.762,1383.366Z" transform="translate(-1517.854 -1363.89)" fill="#80b2ff"/>
            <circle id="Elipse_4148" data-name="Elipse 4148" cx="1.286" cy="1.286" r="1.286" transform="translate(8.918 15.863) rotate(-14.623)" fill="#80b2ff"/>
            <path id="Trazado_100874" data-name="Trazado 100874" d="M1551.066,1341.9a1.286,1.286,0,1,1-1.76.459A1.286,1.286,0,0,1,1551.066,1341.9Z" transform="translate(-1537.7 -1330.033)" fill="#80b2ff"/>
            <circle id="Elipse_4149" data-name="Elipse 4149" cx="1.286" cy="1.286" r="1.286" transform="translate(13.129 9.269) rotate(-47.938)" fill="#80b2ff"/>
            <path id="Trazado_100875" data-name="Trazado 100875" d="M1575.371,1300.439a1.286,1.286,0,1,1-1.76.459A1.286,1.286,0,0,1,1575.371,1300.439Z" transform="translate(-1557.546 -1296.176)" fill="#80b2ff"/>
            <circle id="Elipse_4150" data-name="Elipse 4150" cx="1.286" cy="1.286" r="1.286" transform="translate(17.835 0.649) rotate(-14.623)" fill="#80b2ff"/>
          </g>
        </g>
        <g id="Grupo_53960" data-name="Grupo 53960" transform="translate(13.106 26.489)">
          <g id="Grupo_53958" data-name="Grupo 53958" transform="translate(7.731)">
            <path id="Trazado_100876" data-name="Trazado 100876" d="M1590.156,1370.729l-7.338,3.179c-1.391-1.2-9-3.283-11.274-2.278l-1.087,3.571c-.3,2.984,10.6,7.248,13.87,5.818,7.763-1.817,16.845-4.193,16.845-4.193C1603.336,1372.957,1596.55,1362.295,1590.156,1370.729Z" transform="translate(-1569.806 -1367.564)" fill="#333"/>
            <path id="Trazado_100877" data-name="Trazado 100877" d="M1568.374,1392.246s-.971.363-1.359-.37.646-5.317,2.353-4.7C1570.48,1387.576,1569.351,1391.781,1568.374,1392.246Z" transform="translate(-1566.934 -1383.531)" fill="#333"/>
          </g>
          <g id="Grupo_53959" data-name="Grupo 53959" transform="translate(5.725 3.471)">
            <path id="Trazado_100878" data-name="Trazado 100878" d="M1558.593,1390.781l-2.142-.9c-1.243-.733.294-3.969,1.928-3.311l1.6.817C1560.347,1388.023,1559.3,1390.458,1558.593,1390.781Z" transform="translate(-1555.998 -1386.482)" fill="#333"/>
          </g>
          <path id="Trazado_100879" data-name="Trazado 100879" d="M1637.332,1375.965a.12.12,0,0,1-.048-.23l7.308-3.166c.207-.278,1.848-2.406,3.609-2.631a.12.12,0,1,1,.031.238c-1.742.223-3.449,2.538-3.466,2.561a.122.122,0,0,1-.049.039l-7.338,3.179A.123.123,0,0,1,1637.332,1375.965Z" transform="translate(-1616.588 -1369.501)" fill="#0e0e0e"/>
          <path id="Trazado_100880" data-name="Trazado 100880" d="M1532.9,1383.431l-2.128-.793a4.877,4.877,0,0,1-.927.919c-.434.29-4.409-1.235-4.409-.746s2.814,2.1,2.814,2.1-3.456-.62-3.456-.134c0,.5,3.543,1.289,3.544,1.289s-2.9-.1-2.9.279,3.606.735,3.606.735-2.24,1.1-2.1,1.595,4.97-1.595,4.97-1.595C1533.55,1387.53,1534.542,1383.878,1532.9,1383.431Z" transform="translate(-1524.792 -1379.873)" fill="#333"/>
        </g>
        <path id="Trazado_100881" data-name="Trazado 100881" d="M1606.754,1281.144a7.285,7.285,0,0,0-.923-4.641c-.666-.2-.679,1.007-.331,2.027s-1.891,3.078-.42,3.584A1.245,1.245,0,0,0,1606.754,1281.144Z" transform="translate(-1576.831 -1266.703)" fill="#333"/>
        <path id="Trazado_100882" data-name="Trazado 100882" d="M1708.208,1475.96a42.778,42.778,0,0,1-14.11-2.623.12.12,0,1,1,.09-.222c.119.048,12.074,4.771,22.084,1.385a.12.12,0,0,1,.077.227A25.459,25.459,0,0,1,1708.208,1475.96Z" transform="translate(-1649.87 -1427.255)" fill="#0e0e0e"/>
      </g>
    </g>
  </g>
</svg>
