<svg xmlns="http://www.w3.org/2000/svg" width="715" height="284" viewBox="0 0 715 284">
  <g id="Grupo_57850" data-name="Grupo 57850" transform="translate(-180 -15519)">
    <path id="Trazado_106719" data-name="Trazado 106719" d="M0,0H715V163H0Z" transform="translate(180 15640)" fill="#03e6b0" opacity="0.2"/>
    <path id="Trazado_106718" data-name="Trazado 106718" d="M6.457-8.051a6.057,6.057,0,0,1-.316,2.133A6.509,6.509,0,0,1,4.746-4.125q-1.1,1.1-1.371,1.453A4.413,4.413,0,0,0,2.426.094a3.239,3.239,0,0,0,.785,2.332,3.017,3.017,0,0,0,2.285.82,3.033,3.033,0,0,0,2.227-.82A3.015,3.015,0,0,0,8.578.234H9.984a4.119,4.119,0,0,1-1.254,3.1A4.536,4.536,0,0,1,5.5,4.488,4.465,4.465,0,0,1,2.221,3.316,4.287,4.287,0,0,1,1.031.117a5.275,5.275,0,0,1,.621-2.484,11.462,11.462,0,0,1,2.3-2.766A2.887,2.887,0,0,0,5.027-7.242l.023-.809Zm.188-3.926a.949.949,0,0,1-.258.674.916.916,0,0,1-.7.275.936.936,0,0,1-.709-.275.938.938,0,0,1-.264-.674.9.9,0,0,1,.264-.656.946.946,0,0,1,.709-.27.927.927,0,0,1,.7.27A.914.914,0,0,1,6.645-11.977ZM18.176-7.758l5.215-9.3h1.664L18.891-6.422V0H17.449V-6.422L11.3-17.062h1.711ZM37.734-.949a3.7,3.7,0,0,0,2.455-.826,2.908,2.908,0,0,0,1.072-2.139h1.348A3.97,3.97,0,0,1,41.883-1.8,4.552,4.552,0,0,1,40.107-.3a5.351,5.351,0,0,1-2.373.539A4.9,4.9,0,0,1,33.779-1.5,7.012,7.012,0,0,1,32.32-6.164v-.422A7.927,7.927,0,0,1,32.977-9.9a5.057,5.057,0,0,1,1.881-2.227,5.192,5.192,0,0,1,2.865-.785,4.89,4.89,0,0,1,3.439,1.242A4.529,4.529,0,0,1,42.609-8.4H41.262a3.448,3.448,0,0,0-1.072-2.4,3.472,3.472,0,0,0-2.467-.914,3.5,3.5,0,0,0-2.947,1.371A6.2,6.2,0,0,0,33.727-6.5v.41a6.065,6.065,0,0,0,1.049,3.785A3.52,3.52,0,0,0,37.734-.949Zm15.832-.656A4.558,4.558,0,0,1,49.523.234,3.923,3.923,0,0,1,46.441-.943,5.158,5.158,0,0,1,45.363-4.43v-8.25h1.395v8.074q0,3.621,2.93,3.621,3.047,0,3.855-2.52V-12.68h1.406V0H53.59ZM66.6,0a6.632,6.632,0,0,1-.27-1.77A4.89,4.89,0,0,1,64.447-.287a5.76,5.76,0,0,1-2.42.521,4.25,4.25,0,0,1-2.959-1.02,3.321,3.321,0,0,1-1.131-2.578,3.394,3.394,0,0,1,1.541-2.93,7.4,7.4,0,0,1,4.295-1.078h2.543V-8.812a2.778,2.778,0,0,0-.838-2.139,3.463,3.463,0,0,0-2.443-.779,3.824,3.824,0,0,0-2.426.75,2.228,2.228,0,0,0-.961,1.8l-1.406-.012a3.261,3.261,0,0,1,1.406-2.619,5.415,5.415,0,0,1,3.457-1.107,4.939,4.939,0,0,1,3.346,1.061,3.805,3.805,0,0,1,1.26,2.959v6A7.442,7.442,0,0,0,68.1-.141V0ZM62.191-1.008a4.708,4.708,0,0,0,2.514-.68A4,4,0,0,0,66.316-3.5V-6.293H63.809a6.284,6.284,0,0,0-3.281.768A2.3,2.3,0,0,0,59.344-3.48a2.267,2.267,0,0,0,.791,1.77A2.98,2.98,0,0,0,62.191-1.008Zm2.766-16.852h1.7l-2.707,3.27-1.23-.006ZM73.02,0H71.613V-18H73.02ZM87.574.234a5.5,5.5,0,0,1-2.924-.8,5.431,5.431,0,0,1-2.033-2.221,6.924,6.924,0,0,1-.727-3.193v-.5A7.461,7.461,0,0,1,82.6-9.773a5.641,5.641,0,0,1,1.975-2.3,4.871,4.871,0,0,1,2.742-.838,4.578,4.578,0,0,1,3.662,1.576,6.393,6.393,0,0,1,1.354,4.307v.785H83.285v.27a5.309,5.309,0,0,0,1.236,3.592A3.933,3.933,0,0,0,87.633-.949a4.569,4.569,0,0,0,1.986-.41,4.405,4.405,0,0,0,1.564-1.312L92.063-2A5.116,5.116,0,0,1,87.574.234Zm-.258-11.953a3.506,3.506,0,0,0-2.666,1.16,5.36,5.36,0,0,0-1.318,3.117h7.605v-.152a4.653,4.653,0,0,0-1.043-2.977A3.232,3.232,0,0,0,87.316-11.719Zm15.34,8.5a2,2,0,0,0-.838-1.676,6.462,6.462,0,0,0-2.525-.99,11.394,11.394,0,0,1-2.619-.82A3.489,3.489,0,0,1,95.291-7.84a2.821,2.821,0,0,1-.451-1.617,3.017,3.017,0,0,1,1.254-2.479,5.065,5.065,0,0,1,3.211-.979,5.213,5.213,0,0,1,3.4,1.049,3.366,3.366,0,0,1,1.283,2.736h-1.406a2.271,2.271,0,0,0-.932-1.852,3.666,3.666,0,0,0-2.35-.738,3.667,3.667,0,0,0-2.221.615,1.9,1.9,0,0,0-.838,1.6,1.729,1.729,0,0,0,.7,1.471,7.375,7.375,0,0,0,2.543.955,11.952,11.952,0,0,1,2.766.926,3.582,3.582,0,0,1,1.365,1.184,3.03,3.03,0,0,1,.445,1.676,3.037,3.037,0,0,1-1.295,2.566,5.532,5.532,0,0,1-3.381.961A5.68,5.68,0,0,1,95.795-.838a3.3,3.3,0,0,1-1.377-2.713h1.406a2.439,2.439,0,0,0,1.037,1.916,4.239,4.239,0,0,0,2.525.686,3.985,3.985,0,0,0,2.367-.645A1.934,1.934,0,0,0,102.656-3.223Zm15.3,3.457a5.5,5.5,0,0,1-2.924-.8A5.431,5.431,0,0,1,113-2.783a6.924,6.924,0,0,1-.727-3.193v-.5a7.461,7.461,0,0,1,.709-3.293,5.641,5.641,0,0,1,1.975-2.3,4.871,4.871,0,0,1,2.742-.838,4.578,4.578,0,0,1,3.662,1.576,6.393,6.393,0,0,1,1.354,4.307v.785h-9.047v.27a5.309,5.309,0,0,0,1.236,3.592A3.933,3.933,0,0,0,118.02-.949a4.569,4.569,0,0,0,1.986-.41,4.405,4.405,0,0,0,1.564-1.312l.879.668A5.116,5.116,0,0,1,117.961.234ZM117.7-11.719a3.506,3.506,0,0,0-2.666,1.16,5.36,5.36,0,0,0-1.318,3.117h7.605v-.152a4.653,4.653,0,0,0-1.043-2.977A3.232,3.232,0,0,0,117.7-11.719ZM127.02,0h-1.406V-18h1.406Zm19.84-6.211a7.636,7.636,0,0,1-1.312,4.705,4.18,4.18,0,0,1-3.516,1.74,4.693,4.693,0,0,1-3.984-1.828V4.875h-1.395V-12.68h1.3l.07,1.793A4.5,4.5,0,0,1,142-12.914a4.217,4.217,0,0,1,3.568,1.723,7.8,7.8,0,0,1,1.295,4.781Zm-1.406-.246a6.522,6.522,0,0,0-1-3.832A3.212,3.212,0,0,0,141.68-11.7a3.882,3.882,0,0,0-2.215.621,3.906,3.906,0,0,0-1.418,1.8v6.082a3.724,3.724,0,0,0,1.441,1.664,4.157,4.157,0,0,0,2.215.574,3.182,3.182,0,0,0,2.76-1.412A7.1,7.1,0,0,0,145.453-6.457ZM151.535,0h-1.406V-18h1.406Zm11.813,0a6.632,6.632,0,0,1-.27-1.77A4.89,4.89,0,0,1,161.2-.287a5.76,5.76,0,0,1-2.42.521,4.25,4.25,0,0,1-2.959-1.02,3.321,3.321,0,0,1-1.131-2.578,3.394,3.394,0,0,1,1.541-2.93,7.4,7.4,0,0,1,4.295-1.078h2.543V-8.812a2.778,2.778,0,0,0-.838-2.139,3.463,3.463,0,0,0-2.443-.779,3.824,3.824,0,0,0-2.426.75,2.228,2.228,0,0,0-.961,1.8l-1.406-.012a3.261,3.261,0,0,1,1.406-2.619,5.415,5.415,0,0,1,3.457-1.107,4.939,4.939,0,0,1,3.346,1.061,3.805,3.805,0,0,1,1.26,2.959v6a7.442,7.442,0,0,0,.387,2.754V0Zm-4.406-1.008a4.708,4.708,0,0,0,2.514-.68A4,4,0,0,0,163.066-3.5V-6.293h-2.508a6.284,6.284,0,0,0-3.281.768,2.3,2.3,0,0,0-1.184,2.045,2.267,2.267,0,0,0,.791,1.77A2.98,2.98,0,0,0,158.941-1.008ZM169.535-12.68l.047,2.168a5.035,5.035,0,0,1,1.781-1.787,4.629,4.629,0,0,1,2.355-.615,3.8,3.8,0,0,1,3.035,1.148,5.18,5.18,0,0,1,1.008,3.445V0h-1.395V-8.332a3.874,3.874,0,0,0-.721-2.531,2.823,2.823,0,0,0-2.268-.832,3.547,3.547,0,0,0-2.3.814,4.771,4.771,0,0,0-1.482,2.2V0H168.2V-12.68ZM9.832,30a6.632,6.632,0,0,1-.27-1.77,4.89,4.89,0,0,1-1.881,1.482,5.76,5.76,0,0,1-2.42.521A4.25,4.25,0,0,1,2.3,29.215a3.321,3.321,0,0,1-1.131-2.578,3.394,3.394,0,0,1,1.541-2.93,7.4,7.4,0,0,1,4.295-1.078H9.551V21.188a2.778,2.778,0,0,0-.838-2.139A3.463,3.463,0,0,0,6.27,18.27a3.824,3.824,0,0,0-2.426.75,2.228,2.228,0,0,0-.961,1.8l-1.406-.012a3.261,3.261,0,0,1,1.406-2.619A5.415,5.415,0,0,1,6.34,17.086a4.939,4.939,0,0,1,3.346,1.061,3.805,3.805,0,0,1,1.26,2.959v6a7.442,7.442,0,0,0,.387,2.754V30ZM5.426,28.992a4.708,4.708,0,0,0,2.514-.68A4,4,0,0,0,9.551,26.5V23.707H7.043a6.284,6.284,0,0,0-3.281.768A2.3,2.3,0,0,0,2.578,26.52a2.267,2.267,0,0,0,.791,1.77A2.98,2.98,0,0,0,5.426,28.992Zm22.688-2.215a2,2,0,0,0-.838-1.676,6.462,6.462,0,0,0-2.525-.99,11.394,11.394,0,0,1-2.619-.82,3.489,3.489,0,0,1-1.383-1.131,2.821,2.821,0,0,1-.451-1.617,3.017,3.017,0,0,1,1.254-2.479,5.065,5.065,0,0,1,3.211-.979,5.213,5.213,0,0,1,3.4,1.049,3.366,3.366,0,0,1,1.283,2.736H28.043a2.271,2.271,0,0,0-.932-1.852,3.666,3.666,0,0,0-2.35-.738,3.667,3.667,0,0,0-2.221.615,1.9,1.9,0,0,0-.838,1.6,1.729,1.729,0,0,0,.7,1.471,7.375,7.375,0,0,0,2.543.955,11.952,11.952,0,0,1,2.766.926,3.582,3.582,0,0,1,1.365,1.184,3.255,3.255,0,0,1-.85,4.242,5.532,5.532,0,0,1-3.381.961,5.68,5.68,0,0,1-3.592-1.072,3.3,3.3,0,0,1-1.377-2.713h1.406a2.439,2.439,0,0,0,1.037,1.916,4.239,4.239,0,0,0,2.525.686,3.985,3.985,0,0,0,2.367-.645A1.934,1.934,0,0,0,28.113,26.777Zm9.469,3.457a5.5,5.5,0,0,1-2.924-.8,5.431,5.431,0,0,1-2.033-2.221,6.924,6.924,0,0,1-.727-3.193v-.5a7.461,7.461,0,0,1,.709-3.293,5.641,5.641,0,0,1,1.975-2.3,4.871,4.871,0,0,1,2.742-.838,4.578,4.578,0,0,1,3.662,1.576,6.393,6.393,0,0,1,1.354,4.307v.785H33.293v.27a5.309,5.309,0,0,0,1.236,3.592,3.933,3.933,0,0,0,3.111,1.436,4.569,4.569,0,0,0,1.986-.41,4.405,4.405,0,0,0,1.564-1.312L42.07,28A5.116,5.116,0,0,1,37.582,30.234Zm-.258-11.953a3.506,3.506,0,0,0-2.666,1.16,5.36,5.36,0,0,0-1.318,3.117h7.605v-.152A4.653,4.653,0,0,0,39.9,19.43,3.232,3.232,0,0,0,37.324,18.281Zm7.184,5.262a7.633,7.633,0,0,1,1.318-4.717,4.253,4.253,0,0,1,3.58-1.74,4.41,4.41,0,0,1,3.938,2.063l.07-1.828h1.313V29.742a5.37,5.37,0,0,1-1.371,3.879,4.905,4.905,0,0,1-3.715,1.43,5.642,5.642,0,0,1-2.525-.592,4.905,4.905,0,0,1-1.893-1.576l.785-.844a4.443,4.443,0,0,0,3.539,1.828,3.6,3.6,0,0,0,2.742-1.037,4.132,4.132,0,0,0,1.02-2.877V28.359a4.532,4.532,0,0,1-3.926,1.875,4.228,4.228,0,0,1-3.539-1.758,7.659,7.659,0,0,1-1.336-4.746Zm1.418.246a6.612,6.612,0,0,0,.973,3.826,3.146,3.146,0,0,0,2.742,1.4,3.748,3.748,0,0,0,3.668-2.32V20.8a4,4,0,0,0-1.418-1.857,3.824,3.824,0,0,0-2.227-.639,3.184,3.184,0,0,0-2.754,1.389A7.066,7.066,0,0,0,45.926,23.789Zm20.613,4.605a4.558,4.558,0,0,1-4.043,1.84,3.923,3.923,0,0,1-3.082-1.178,5.158,5.158,0,0,1-1.078-3.486V17.32H59.73v8.074q0,3.621,2.93,3.621,3.047,0,3.855-2.52V17.32h1.406V30H66.563ZM73.137,30H71.73V17.32h1.406ZM71.484,13.658a.94.94,0,0,1,.258-.67.92.92,0,0,1,.7-.274.939.939,0,0,1,.709.274.929.929,0,0,1,.264.67.909.909,0,0,1-.264.664.95.95,0,0,1-.709.268.93.93,0,0,1-.7-.268A.92.92,0,0,1,71.484,13.658ZM82.8,18.516a5.238,5.238,0,0,0-.949-.082,3.425,3.425,0,0,0-2.221.732,4.012,4.012,0,0,0-1.295,2.127V30H76.945V17.32h1.371l.023,2.016a3.729,3.729,0,0,1,3.574-2.25,2.306,2.306,0,0,1,.926.152Zm18.246,5.273a7.636,7.636,0,0,1-1.312,4.705,4.18,4.18,0,0,1-3.516,1.74,4.693,4.693,0,0,1-3.984-1.828v6.469H90.844V17.32h1.3l.07,1.793a4.5,4.5,0,0,1,3.973-2.027,4.217,4.217,0,0,1,3.568,1.723,7.8,7.8,0,0,1,1.295,4.781Zm-1.406-.246a6.522,6.522,0,0,0-1-3.832A3.212,3.212,0,0,0,95.871,18.3a3.7,3.7,0,0,0-3.633,2.426v6.082a3.724,3.724,0,0,0,1.441,1.664,4.157,4.157,0,0,0,2.215.574,3.182,3.182,0,0,0,2.76-1.412A7.1,7.1,0,0,0,99.645,23.543ZM112.16,30a6.632,6.632,0,0,1-.27-1.77,4.89,4.89,0,0,1-1.881,1.482,5.76,5.76,0,0,1-2.42.521,4.25,4.25,0,0,1-2.959-1.02,3.321,3.321,0,0,1-1.131-2.578,3.394,3.394,0,0,1,1.541-2.93,7.4,7.4,0,0,1,4.295-1.078h2.543V21.188a2.778,2.778,0,0,0-.838-2.139,3.463,3.463,0,0,0-2.443-.779,3.824,3.824,0,0,0-2.426.75,2.228,2.228,0,0,0-.961,1.8l-1.406-.012a3.261,3.261,0,0,1,1.406-2.619,5.415,5.415,0,0,1,3.457-1.107,4.939,4.939,0,0,1,3.346,1.061,3.805,3.805,0,0,1,1.26,2.959v6a7.442,7.442,0,0,0,.387,2.754V30Zm-4.406-1.008a4.708,4.708,0,0,0,2.514-.68,4,4,0,0,0,1.611-1.816V23.707h-2.508a6.284,6.284,0,0,0-3.281.768,2.3,2.3,0,0,0-1.184,2.045,2.267,2.267,0,0,0,.791,1.77A2.98,2.98,0,0,0,107.754,28.992Zm15.117-10.477a5.238,5.238,0,0,0-.949-.082,3.425,3.425,0,0,0-2.221.732,4.012,4.012,0,0,0-1.295,2.127V30h-1.395V17.32h1.371l.023,2.016a3.729,3.729,0,0,1,3.574-2.25,2.306,2.306,0,0,1,.926.152ZM132.621,30a6.632,6.632,0,0,1-.27-1.77,4.89,4.89,0,0,1-1.881,1.482,5.76,5.76,0,0,1-2.42.521,4.25,4.25,0,0,1-2.959-1.02,3.321,3.321,0,0,1-1.131-2.578,3.394,3.394,0,0,1,1.541-2.93,7.4,7.4,0,0,1,4.295-1.078h2.543V21.188a2.778,2.778,0,0,0-.838-2.139,3.463,3.463,0,0,0-2.443-.779,3.824,3.824,0,0,0-2.426.75,2.228,2.228,0,0,0-.961,1.8l-1.406-.012a3.261,3.261,0,0,1,1.406-2.619,5.415,5.415,0,0,1,3.457-1.107,4.939,4.939,0,0,1,3.346,1.061,3.805,3.805,0,0,1,1.26,2.959v6a7.442,7.442,0,0,0,.387,2.754V30Zm-4.406-1.008a4.708,4.708,0,0,0,2.514-.68A4,4,0,0,0,132.34,26.5V23.707h-2.508a6.284,6.284,0,0,0-3.281.768,2.3,2.3,0,0,0-1.184,2.045,2.267,2.267,0,0,0,.791,1.77A2.98,2.98,0,0,0,128.215,28.992Zm20,1.242a5.5,5.5,0,0,1-2.924-.8,5.431,5.431,0,0,1-2.033-2.221,6.924,6.924,0,0,1-.727-3.193v-.5a7.461,7.461,0,0,1,.709-3.293,5.641,5.641,0,0,1,1.975-2.3,4.871,4.871,0,0,1,2.742-.838,4.578,4.578,0,0,1,3.662,1.576,6.393,6.393,0,0,1,1.354,4.307v.785H143.93v.27a5.309,5.309,0,0,0,1.236,3.592,3.933,3.933,0,0,0,3.111,1.436,4.569,4.569,0,0,0,1.986-.41,4.405,4.405,0,0,0,1.564-1.312l.879.668A5.116,5.116,0,0,1,148.219,30.234Zm-.258-11.953a3.506,3.506,0,0,0-2.666,1.16,5.36,5.36,0,0,0-1.318,3.117h7.605v-.152a4.653,4.653,0,0,0-1.043-2.977A3.232,3.232,0,0,0,147.961,18.281ZM157.277,30h-1.406V12h1.406ZM4.008,44.074V47.32H6.633v1.148H4.008v8.459A2.648,2.648,0,0,0,4.389,58.5a1.476,1.476,0,0,0,1.271.516A8.724,8.724,0,0,0,6.8,58.9l.059,1.139a4.584,4.584,0,0,1-1.5.2,2.5,2.5,0,0,1-2.1-.838A3.944,3.944,0,0,1,2.6,56.93V48.469H.27V47.32H2.6V44.074ZM15.4,48.516a5.238,5.238,0,0,0-.949-.082,3.425,3.425,0,0,0-2.221.732,4.012,4.012,0,0,0-1.295,2.127V60H9.539V47.32H10.91l.023,2.016a3.729,3.729,0,0,1,3.574-2.25,2.306,2.306,0,0,1,.926.152ZM25.148,60a6.632,6.632,0,0,1-.27-1.77A4.89,4.89,0,0,1,23,59.713a5.76,5.76,0,0,1-2.42.521,4.25,4.25,0,0,1-2.959-1.02,3.321,3.321,0,0,1-1.131-2.578,3.394,3.394,0,0,1,1.541-2.93,7.4,7.4,0,0,1,4.295-1.078h2.543V51.188a2.778,2.778,0,0,0-.838-2.139,3.463,3.463,0,0,0-2.443-.779,3.824,3.824,0,0,0-2.426.75,2.228,2.228,0,0,0-.961,1.8l-1.406-.012A3.261,3.261,0,0,1,18.2,48.193a5.415,5.415,0,0,1,3.457-1.107A4.939,4.939,0,0,1,25,48.146a3.805,3.805,0,0,1,1.26,2.959v6a7.442,7.442,0,0,0,.387,2.754V60Zm-4.406-1.008a4.708,4.708,0,0,0,2.514-.68A4,4,0,0,0,24.867,56.5V53.707H22.359a6.284,6.284,0,0,0-3.281.768,2.3,2.3,0,0,0-1.184,2.045,2.267,2.267,0,0,0,.791,1.77A2.98,2.98,0,0,0,20.742,58.992ZM32.18,44.074V47.32H34.8v1.148H32.18v8.459a2.648,2.648,0,0,0,.381,1.572,1.476,1.476,0,0,0,1.271.516,8.724,8.724,0,0,0,1.137-.117l.059,1.139a4.584,4.584,0,0,1-1.5.2,2.5,2.5,0,0,1-2.1-.838,3.944,3.944,0,0,1-.656-2.467V48.469H28.441V47.32h2.332V44.074ZM45.715,60a6.632,6.632,0,0,1-.27-1.77,4.89,4.89,0,0,1-1.881,1.482,5.76,5.76,0,0,1-2.42.521,4.25,4.25,0,0,1-2.959-1.02,3.321,3.321,0,0,1-1.131-2.578,3.394,3.394,0,0,1,1.541-2.93,7.4,7.4,0,0,1,4.295-1.078h2.543V51.188a2.778,2.778,0,0,0-.838-2.139,3.463,3.463,0,0,0-2.443-.779,3.824,3.824,0,0,0-2.426.75,2.228,2.228,0,0,0-.961,1.8l-1.406-.012a3.261,3.261,0,0,1,1.406-2.619,5.415,5.415,0,0,1,3.457-1.107,4.939,4.939,0,0,1,3.346,1.061,3.805,3.805,0,0,1,1.26,2.959v6a7.442,7.442,0,0,0,.387,2.754V60Zm-4.406-1.008a4.708,4.708,0,0,0,2.514-.68A4,4,0,0,0,45.434,56.5V53.707H42.926a6.284,6.284,0,0,0-3.281.768,2.3,2.3,0,0,0-1.184,2.045,2.267,2.267,0,0,0,.791,1.77A2.98,2.98,0,0,0,41.309,58.992ZM51.844,47.32l.047,2.063a4.694,4.694,0,0,1,1.758-1.723,4.821,4.821,0,0,1,2.344-.574q3,0,3.809,2.461a4.76,4.76,0,0,1,1.816-1.822,5.032,5.032,0,0,1,2.508-.639q4.078,0,4.16,4.453V60H66.879V51.645a3.78,3.78,0,0,0-.732-2.52,2.982,2.982,0,0,0-2.35-.82,3.735,3.735,0,0,0-2.555.979,3.458,3.458,0,0,0-1.16,2.326V60H58.676V51.539a3.474,3.474,0,0,0-.768-2.432,3.055,3.055,0,0,0-2.326-.8,3.537,3.537,0,0,0-2.273.756A4.433,4.433,0,0,0,51.9,51.3V60H50.5V47.32ZM73.406,60H72V47.32h1.406ZM71.754,43.658a.94.94,0,0,1,.258-.67.92.92,0,0,1,.7-.274.939.939,0,0,1,.709.274.929.929,0,0,1,.264.67.909.909,0,0,1-.264.664.95.95,0,0,1-.709.268.93.93,0,0,1-.7-.268A.92.92,0,0,1,71.754,43.658ZM82.125,60.234a5.5,5.5,0,0,1-2.924-.8,5.431,5.431,0,0,1-2.033-2.221,6.924,6.924,0,0,1-.727-3.193v-.5a7.461,7.461,0,0,1,.709-3.293,5.641,5.641,0,0,1,1.975-2.3,4.871,4.871,0,0,1,2.742-.838,4.578,4.578,0,0,1,3.662,1.576,6.393,6.393,0,0,1,1.354,4.307v.785H77.836v.27a5.309,5.309,0,0,0,1.236,3.592,3.933,3.933,0,0,0,3.111,1.436,4.569,4.569,0,0,0,1.986-.41,4.405,4.405,0,0,0,1.564-1.312l.879.668A5.116,5.116,0,0,1,82.125,60.234Zm-.258-11.953a3.506,3.506,0,0,0-2.666,1.16,5.36,5.36,0,0,0-1.318,3.117h7.605v-.152a4.653,4.653,0,0,0-1.043-2.977A3.232,3.232,0,0,0,81.867,48.281Zm9.082-.961L91,49.488A5.035,5.035,0,0,1,92.777,47.7a4.629,4.629,0,0,1,2.355-.615,3.8,3.8,0,0,1,3.035,1.148,5.18,5.18,0,0,1,1.008,3.445V60H97.781V51.668a3.874,3.874,0,0,0-.721-2.531,2.823,2.823,0,0,0-2.268-.832,3.547,3.547,0,0,0-2.3.814,4.771,4.771,0,0,0-1.482,2.2V60H89.613V47.32Zm14.027-3.246V47.32H107.6v1.148h-2.625v8.459a2.648,2.648,0,0,0,.381,1.572,1.476,1.476,0,0,0,1.271.516,8.724,8.724,0,0,0,1.137-.117l.059,1.139a4.584,4.584,0,0,1-1.5.2,2.5,2.5,0,0,1-2.1-.838,3.944,3.944,0,0,1-.656-2.467V48.469h-2.332V47.32h2.332V44.074Zm4.523,9.4a7.461,7.461,0,0,1,.709-3.293,5.326,5.326,0,0,1,4.939-3.094,5.216,5.216,0,0,1,4.1,1.775,6.841,6.841,0,0,1,1.57,4.705v.293a7.527,7.527,0,0,1-.709,3.311,5.294,5.294,0,0,1-2,2.268,5.479,5.479,0,0,1-2.941.8,5.221,5.221,0,0,1-4.1-1.775,6.825,6.825,0,0,1-1.576-4.705Zm1.406.387a5.753,5.753,0,0,0,1.178,3.732,3.985,3.985,0,0,0,6.164,0,5.943,5.943,0,0,0,1.178-3.85v-.27a6.45,6.45,0,0,0-.539-2.66,4.331,4.331,0,0,0-1.512-1.869,3.863,3.863,0,0,0-2.227-.662,3.747,3.747,0,0,0-3.059,1.471,5.952,5.952,0,0,0-1.184,3.85Zm18.082-.316a7.643,7.643,0,0,1,1.318-4.705,4.243,4.243,0,0,1,3.58-1.752,4.409,4.409,0,0,1,3.914,2.027V42H139.2V60h-1.312l-.059-1.687a4.529,4.529,0,0,1-3.961,1.922,4.228,4.228,0,0,1-3.533-1.764,7.682,7.682,0,0,1-1.342-4.764Zm1.418.246a6.612,6.612,0,0,0,.973,3.826,3.146,3.146,0,0,0,2.742,1.4,3.774,3.774,0,0,0,3.68-2.285V50.777a3.746,3.746,0,0,0-3.656-2.473,3.184,3.184,0,0,0-2.754,1.389A7.066,7.066,0,0,0,130.406,53.789ZM147.8,60.234a5.5,5.5,0,0,1-2.924-.8,5.431,5.431,0,0,1-2.033-2.221,6.924,6.924,0,0,1-.727-3.193v-.5a7.461,7.461,0,0,1,.709-3.293,5.641,5.641,0,0,1,1.975-2.3,4.871,4.871,0,0,1,2.742-.838,4.578,4.578,0,0,1,3.662,1.576,6.393,6.393,0,0,1,1.354,4.307v.785h-9.047v.27a5.309,5.309,0,0,0,1.236,3.592,3.933,3.933,0,0,0,3.111,1.436,4.569,4.569,0,0,0,1.986-.41,4.405,4.405,0,0,0,1.564-1.312l.879.668A5.116,5.116,0,0,1,147.8,60.234Zm-.258-11.953a3.506,3.506,0,0,0-2.666,1.16,5.36,5.36,0,0,0-1.318,3.117h7.605v-.152a4.653,4.653,0,0,0-1.043-2.977A3.232,3.232,0,0,0,147.539,48.281ZM6.738,90.234a5.5,5.5,0,0,1-2.924-.8,5.431,5.431,0,0,1-2.033-2.221,6.924,6.924,0,0,1-.727-3.193v-.5a7.461,7.461,0,0,1,.709-3.293,5.641,5.641,0,0,1,1.975-2.3,4.871,4.871,0,0,1,2.742-.838,4.578,4.578,0,0,1,3.662,1.576A6.393,6.393,0,0,1,11.5,82.969v.785H2.449v.27a5.309,5.309,0,0,0,1.236,3.592A3.933,3.933,0,0,0,6.8,89.051a4.569,4.569,0,0,0,1.986-.41,4.405,4.405,0,0,0,1.564-1.312l.879.668A5.116,5.116,0,0,1,6.738,90.234ZM6.48,78.281a3.506,3.506,0,0,0-2.666,1.16A5.36,5.36,0,0,0,2.5,82.559H10.1v-.152A4.653,4.653,0,0,0,9.059,79.43,3.232,3.232,0,0,0,6.48,78.281Zm15.34,8.5a2,2,0,0,0-.838-1.676,6.462,6.462,0,0,0-2.525-.99,11.394,11.394,0,0,1-2.619-.82,3.489,3.489,0,0,1-1.383-1.131A2.821,2.821,0,0,1,14,80.543a3.017,3.017,0,0,1,1.254-2.479,5.065,5.065,0,0,1,3.211-.979,5.213,5.213,0,0,1,3.4,1.049,3.366,3.366,0,0,1,1.283,2.736H21.75a2.271,2.271,0,0,0-.932-1.852,3.666,3.666,0,0,0-2.35-.738,3.667,3.667,0,0,0-2.221.615,1.9,1.9,0,0,0-.838,1.6,1.729,1.729,0,0,0,.7,1.471,7.375,7.375,0,0,0,2.543.955,11.952,11.952,0,0,1,2.766.926,3.582,3.582,0,0,1,1.365,1.184,3.255,3.255,0,0,1-.85,4.242,5.532,5.532,0,0,1-3.381.961,5.68,5.68,0,0,1-3.592-1.072,3.3,3.3,0,0,1-1.377-2.713h1.406a2.439,2.439,0,0,0,1.037,1.916,4.239,4.239,0,0,0,2.525.686,3.985,3.985,0,0,0,2.367-.645A1.934,1.934,0,0,0,21.82,86.777Zm6.738-12.7V77.32h2.625v1.148H28.559v8.459a2.648,2.648,0,0,0,.381,1.572,1.476,1.476,0,0,0,1.271.516,8.724,8.724,0,0,0,1.137-.117l.059,1.139a4.584,4.584,0,0,1-1.5.2,2.5,2.5,0,0,1-2.1-.838,3.944,3.944,0,0,1-.656-2.467V78.469H24.82V77.32h2.332V74.074Zm4.523,9.4a7.461,7.461,0,0,1,.709-3.293,5.326,5.326,0,0,1,4.939-3.094,5.216,5.216,0,0,1,4.1,1.775,6.841,6.841,0,0,1,1.57,4.705v.293a7.527,7.527,0,0,1-.709,3.311,5.294,5.294,0,0,1-2,2.268,5.479,5.479,0,0,1-2.941.8,5.221,5.221,0,0,1-4.1-1.775,6.825,6.825,0,0,1-1.576-4.705Zm1.406.387a5.753,5.753,0,0,0,1.178,3.732,3.985,3.985,0,0,0,6.164,0,5.943,5.943,0,0,0,1.178-3.85v-.27a6.45,6.45,0,0,0-.539-2.66,4.331,4.331,0,0,0-1.512-1.869,3.863,3.863,0,0,0-2.227-.662,3.747,3.747,0,0,0-3.059,1.471,5.952,5.952,0,0,0-1.184,3.85Zm20.4,2.918a2,2,0,0,0-.838-1.676,6.462,6.462,0,0,0-2.525-.99,11.394,11.394,0,0,1-2.619-.82,3.489,3.489,0,0,1-1.383-1.131,2.821,2.821,0,0,1-.451-1.617,3.017,3.017,0,0,1,1.254-2.479,5.065,5.065,0,0,1,3.211-.979,5.213,5.213,0,0,1,3.4,1.049,3.366,3.366,0,0,1,1.283,2.736H54.82a2.271,2.271,0,0,0-.932-1.852,4.205,4.205,0,0,0-4.57-.123,1.9,1.9,0,0,0-.838,1.6,1.729,1.729,0,0,0,.7,1.471,7.375,7.375,0,0,0,2.543.955,11.952,11.952,0,0,1,2.766.926,3.582,3.582,0,0,1,1.365,1.184A3.255,3.255,0,0,1,55,89.273a5.532,5.532,0,0,1-3.381.961,5.68,5.68,0,0,1-3.592-1.072,3.3,3.3,0,0,1-1.377-2.713h1.406A2.439,2.439,0,0,0,49.1,88.365a4.239,4.239,0,0,0,2.525.686,3.985,3.985,0,0,0,2.367-.645A1.934,1.934,0,0,0,54.891,86.777Zm16.254-8.262a5.238,5.238,0,0,0-.949-.082,3.425,3.425,0,0,0-2.221.732,4.012,4.012,0,0,0-1.295,2.127V90H65.285V77.32h1.371l.023,2.016a3.729,3.729,0,0,1,3.574-2.25,2.306,2.306,0,0,1,.926.152ZM74.93,90H73.523V77.32H74.93ZM73.277,73.658a.94.94,0,0,1,.258-.67.92.92,0,0,1,.7-.274.939.939,0,0,1,.709.274.929.929,0,0,1,.264.67.909.909,0,0,1-.264.664.95.95,0,0,1-.709.268.93.93,0,0,1-.7-.268A.92.92,0,0,1,73.277,73.658ZM83.648,90.234a5.5,5.5,0,0,1-2.924-.8,5.431,5.431,0,0,1-2.033-2.221,6.924,6.924,0,0,1-.727-3.193v-.5a7.461,7.461,0,0,1,.709-3.293,5.641,5.641,0,0,1,1.975-2.3,4.871,4.871,0,0,1,2.742-.838,4.578,4.578,0,0,1,3.662,1.576,6.393,6.393,0,0,1,1.354,4.307v.785H79.359v.27A5.309,5.309,0,0,0,80.6,87.615a3.933,3.933,0,0,0,3.111,1.436,4.569,4.569,0,0,0,1.986-.41,4.405,4.405,0,0,0,1.564-1.312l.879.668A5.116,5.116,0,0,1,83.648,90.234Zm-.258-11.953a3.506,3.506,0,0,0-2.666,1.16,5.36,5.36,0,0,0-1.318,3.117h7.605v-.152a4.653,4.653,0,0,0-1.043-2.977A3.232,3.232,0,0,0,83.391,78.281Zm15.34,8.5a2,2,0,0,0-.838-1.676,6.462,6.462,0,0,0-2.525-.99,11.394,11.394,0,0,1-2.619-.82,3.489,3.489,0,0,1-1.383-1.131,2.821,2.821,0,0,1-.451-1.617,3.017,3.017,0,0,1,1.254-2.479,5.065,5.065,0,0,1,3.211-.979,5.213,5.213,0,0,1,3.4,1.049,3.366,3.366,0,0,1,1.283,2.736H98.66a2.271,2.271,0,0,0-.932-1.852,4.205,4.205,0,0,0-4.57-.123,1.9,1.9,0,0,0-.838,1.6,1.729,1.729,0,0,0,.7,1.471,7.375,7.375,0,0,0,2.543.955,11.952,11.952,0,0,1,2.766.926,3.582,3.582,0,0,1,1.365,1.184,3.255,3.255,0,0,1-.85,4.242,5.532,5.532,0,0,1-3.381.961,5.68,5.68,0,0,1-3.592-1.072,3.3,3.3,0,0,1-1.377-2.713H91.9a2.439,2.439,0,0,0,1.037,1.916,4.239,4.239,0,0,0,2.525.686,3.985,3.985,0,0,0,2.367-.645A1.934,1.934,0,0,0,98.73,86.777Zm4-3.234a7.633,7.633,0,0,1,1.318-4.717,4.253,4.253,0,0,1,3.58-1.74,4.41,4.41,0,0,1,3.938,2.063l.07-1.828h1.313V89.742a5.37,5.37,0,0,1-1.371,3.879,4.905,4.905,0,0,1-3.715,1.43,5.642,5.642,0,0,1-2.525-.592,4.905,4.905,0,0,1-1.893-1.576l.785-.844a4.443,4.443,0,0,0,3.539,1.828,3.6,3.6,0,0,0,2.742-1.037,4.132,4.132,0,0,0,1.02-2.877V88.359a4.532,4.532,0,0,1-3.926,1.875,4.228,4.228,0,0,1-3.539-1.758,7.659,7.659,0,0,1-1.336-4.746Zm1.418.246a6.612,6.612,0,0,0,.973,3.826,3.146,3.146,0,0,0,2.742,1.4,3.748,3.748,0,0,0,3.668-2.32V80.8a4,4,0,0,0-1.418-1.857,3.824,3.824,0,0,0-2.227-.639,3.184,3.184,0,0,0-2.754,1.389A7.066,7.066,0,0,0,104.145,83.789Zm11.684-.316a7.461,7.461,0,0,1,.709-3.293,5.326,5.326,0,0,1,4.939-3.094,5.216,5.216,0,0,1,4.1,1.775,6.841,6.841,0,0,1,1.57,4.705v.293a7.527,7.527,0,0,1-.709,3.311,5.294,5.294,0,0,1-2,2.268,5.479,5.479,0,0,1-2.941.8,5.221,5.221,0,0,1-4.1-1.775,6.825,6.825,0,0,1-1.576-4.705Zm1.406.387a5.753,5.753,0,0,0,1.178,3.732,3.985,3.985,0,0,0,6.164,0,5.943,5.943,0,0,0,1.178-3.85v-.27a6.45,6.45,0,0,0-.539-2.66,4.331,4.331,0,0,0-1.512-1.869,3.863,3.863,0,0,0-2.227-.662,3.747,3.747,0,0,0-3.059,1.471,5.952,5.952,0,0,0-1.184,3.85Zm20.4,2.918A2,2,0,0,0,136.8,85.1a6.462,6.462,0,0,0-2.525-.99,11.394,11.394,0,0,1-2.619-.82,3.489,3.489,0,0,1-1.383-1.131,2.821,2.821,0,0,1-.451-1.617,3.017,3.017,0,0,1,1.254-2.479,5.065,5.065,0,0,1,3.211-.979,5.213,5.213,0,0,1,3.4,1.049,3.366,3.366,0,0,1,1.283,2.736h-1.406a2.271,2.271,0,0,0-.932-1.852,4.205,4.205,0,0,0-4.57-.123,1.9,1.9,0,0,0-.838,1.6,1.729,1.729,0,0,0,.7,1.471,7.375,7.375,0,0,0,2.543.955,11.952,11.952,0,0,1,2.766.926,3.582,3.582,0,0,1,1.365,1.184,3.255,3.255,0,0,1-.85,4.242,5.532,5.532,0,0,1-3.381.961,5.68,5.68,0,0,1-3.592-1.072,3.3,3.3,0,0,1-1.377-2.713H130.8a2.439,2.439,0,0,0,1.037,1.916,4.239,4.239,0,0,0,2.525.686,3.985,3.985,0,0,0,2.367-.645A1.934,1.934,0,0,0,137.637,86.777Zm7.137-1.523a6.143,6.143,0,0,1,.375-2.224,6.647,6.647,0,0,1,1.512-1.984,14.9,14.9,0,0,0,1.494-1.615,3.815,3.815,0,0,0,.516-1.042,4.242,4.242,0,0,0,.182-1.294,3.244,3.244,0,0,0-.779-2.3,2.824,2.824,0,0,0-2.174-.837,3.192,3.192,0,0,0-2.268.8,2.9,2.9,0,0,0-.885,2.174h-1.395a4.014,4.014,0,0,1,1.3-3.076A4.657,4.657,0,0,1,145.9,72.7a4.277,4.277,0,0,1,3.182,1.177,4.333,4.333,0,0,1,1.166,3.19,5.072,5.072,0,0,1-.574,2.371,10.243,10.243,0,0,1-2.18,2.582,3.982,3.982,0,0,0-1.324,3.231Zm-.187,3.92a.971.971,0,0,1,.252-.678.909.909,0,0,1,.709-.277.932.932,0,0,1,.709.277.947.947,0,0,1,.264.678.892.892,0,0,1-.264.654.955.955,0,0,1-.709.265.931.931,0,0,1-.709-.265A.914.914,0,0,1,144.586,89.174Z" transform="translate(600 15603.5)" fill="#12263f"/>
    <g id="Grupo_57777" data-name="Grupo 57777" transform="translate(-606.552 15409.447)">
      <g id="Grupo_57693" data-name="Grupo 57693" transform="translate(808.32 109.553)">
        <g id="Grupo_57687" data-name="Grupo 57687" transform="translate(0 21.571)">
          <path id="Trazado_106345" data-name="Trazado 106345" d="M980.752,115.133H877.317A13.765,13.765,0,0,0,863.552,128.9v55.484a13.765,13.765,0,0,0,13.765,13.765H962.83l21.407,41.891.429-35.916.021-6.553a13.766,13.766,0,0,0,9.83-13.187V128.9A13.765,13.765,0,0,0,980.752,115.133Z" transform="translate(-863.552 -115.133)" fill="#004080" opacity="0.24"/>
          <g id="Grupo_57686" data-name="Grupo 57686" transform="translate(34.434 8.711)">
            <path id="Trazado_106346" data-name="Trazado 106346" d="M931.677,163.36a25.336,25.336,0,0,0,7.435-18.353c0-13.024-8.929-23.582-19.944-23.582s-19.945,10.558-19.945,23.582a25.321,25.321,0,0,0,7.471,18.384,24.663,24.663,0,0,0-18.27,23.805v8.531h62.1V187.71A25.173,25.173,0,0,0,931.677,163.36Z" transform="translate(-888.423 -121.425)" fill="#0077ec"/>
            <g id="Grupo_57680" data-name="Grupo 57680" transform="translate(16.578 2.145)">
              <path id="Trazado_106347" data-name="Trazado 106347" d="M929.337,142.267c0,10.657-6.478,19.295-14.469,19.295S900.4,152.924,900.4,142.267s6.478-19.293,14.471-19.293S929.337,131.612,929.337,142.267Z" transform="translate(-900.397 -122.974)" fill="#ffd4dd"/>
            </g>
            <g id="Grupo_57681" data-name="Grupo 57681" transform="translate(15.423 18.223)">
              <path id="Trazado_106348" data-name="Trazado 106348" d="M929.394,145.068c-9.092,3.81-12.5-1.906-14.205-1.906s-5.114,5.717-14.206,1.906c-2.272-7.072-1.135-10.481-1.135-10.481s8.7,0,13.541,1.277a7.091,7.091,0,0,0,3.6,0c4.84-1.277,13.54-1.277,13.54-1.277S931.667,136.859,929.394,145.068Z" transform="translate(-899.563 -134.587)" fill="#004080"/>
            </g>
            <g id="Grupo_57684" data-name="Grupo 57684" transform="translate(20.49 21.711)">
              <g id="Grupo_57682" data-name="Grupo 57682">
                <path id="Trazado_106349" data-name="Trazado 106349" d="M910.422,139.043c-.264,1.54-2.082,2.513-4.062,2.174s-3.37-1.862-3.105-3.4S910.686,137.5,910.422,139.043Z" transform="translate(-903.223 -137.106)" fill="#ffd4dd"/>
              </g>
              <g id="Grupo_57683" data-name="Grupo 57683" transform="translate(13.911 0.003)">
                <path id="Trazado_106350" data-name="Trazado 106350" d="M920.447,137.821c.26,1.54-1.133,3.06-3.112,3.395s-3.8-.641-4.058-2.181S920.187,136.281,920.447,137.821Z" transform="translate(-913.27 -137.109)" fill="#ffd4dd"/>
              </g>
            </g>
            <g id="Grupo_57685" data-name="Grupo 57685" transform="translate(16.578)">
              <path id="Trazado_106351" data-name="Trazado 106351" d="M900.4,138.576s6.431-5.718,13.935-5.718,15.005,5.718,15.005,5.718-3.215-17.151-15.005-17.151C903.613,121.425,900.4,137.433,900.4,138.576Z" transform="translate(-900.397 -121.425)" fill="#0077ec"/>
            </g>
          </g>
        </g>
        <g id="Grupo_57692" data-name="Grupo 57692" transform="translate(96.427)">
          <g id="Grupo_57688" data-name="Grupo 57688">
            <path id="Trazado_106352" data-name="Trazado 106352" d="M970.751,99.553H948.62a4.353,4.353,0,0,0-3.771,2.178L933.782,120.9a4.36,4.36,0,0,0,0,4.354l11.066,19.167a4.356,4.356,0,0,0,3.771,2.178h22.131a4.356,4.356,0,0,0,3.771-2.178l11.066-19.167a4.352,4.352,0,0,0,0-4.354l-11.066-19.167A4.355,4.355,0,0,0,970.751,99.553Z" transform="translate(-933.199 -99.553)" fill="#0077ec"/>
          </g>
          <g id="Grupo_57691" data-name="Grupo 57691" transform="translate(12.049 7.717)">
            <g id="Grupo_57690" data-name="Grupo 57690">
              <g id="Grupo_57689" data-name="Grupo 57689">
                <path id="Trazado_106353" data-name="Trazado 106353" d="M960.935,105.127a9.526,9.526,0,0,0-9.516,9.516,9.37,9.37,0,0,0,.2,1.911l-1.063.532a.6.6,0,0,0-.155.953l.77.77-.6.594h-.943a.594.594,0,0,0-.6.6v.943l-.84.842h-.943a.594.594,0,0,0-.6.594v.944l-.842.84h-.943a.6.6,0,0,0-.6.6v.943l-2.2,2.206a.589.589,0,0,0-.174.42v4.759a.594.594,0,0,0,.6.6h4.759a.594.594,0,0,0,.42-.174l9.1-9.1.77.768a.589.589,0,0,0,.515.168.6.6,0,0,0,.438-.321l.532-1.063a9.513,9.513,0,1,0,1.909-18.831Zm-6.122,16.48-8.326,8.326a.595.595,0,0,1-.842-.84l8.328-8.328a.595.595,0,0,1,.84.842Zm9.1-6.964a2.974,2.974,0,1,1,2.974-2.974A2.977,2.977,0,0,1,963.909,114.643Z" transform="translate(-941.902 -105.127)" fill="#ccdbff"/>
              </g>
            </g>
          </g>
        </g>
      </g>
      <g id="Grupo_57704" data-name="Grupo 57704" transform="translate(1116.729 306.483)">
        <g id="Grupo_57700" data-name="Grupo 57700">
          <g id="Grupo_57694" data-name="Grupo 57694">
            <path id="Trazado_106354" data-name="Trazado 106354" d="M1131.084,293.446a4.429,4.429,0,0,0-4.43-4.43h-52.7a4.429,4.429,0,0,0-4.429,4.43v5.748h61.555Z" transform="translate(-1069.529 -289.017)" fill="#ccdbff"/>
          </g>
          <g id="Grupo_57695" data-name="Grupo 57695" transform="translate(0 10.178)">
            <path id="Trazado_106355" data-name="Trazado 106355" d="M1069.529,294.635v37.922a4.429,4.429,0,0,0,4.429,4.43h52.7a4.429,4.429,0,0,0,4.43-4.43V294.635Z" transform="translate(-1069.529 -294.635)" fill="#ffd947"/>
          </g>
          <g id="Grupo_57699" data-name="Grupo 57699" transform="translate(39.382 2.877)">
            <g id="Grupo_57696" data-name="Grupo 57696">
              <path id="Trazado_106356" data-name="Trazado 106356" d="M1095.88,292.911a2.306,2.306,0,1,1-2.306-2.306A2.306,2.306,0,0,1,1095.88,292.911Z" transform="translate(-1091.267 -290.605)" fill="#fff"/>
            </g>
            <g id="Grupo_57697" data-name="Grupo 57697" transform="translate(6.875)">
              <path id="Trazado_106357" data-name="Trazado 106357" d="M1099.675,292.911a2.306,2.306,0,1,1-2.307-2.306A2.307,2.307,0,0,1,1099.675,292.911Z" transform="translate(-1095.062 -290.605)" fill="#fff"/>
            </g>
            <g id="Grupo_57698" data-name="Grupo 57698" transform="translate(13.751)">
              <path id="Trazado_106358" data-name="Trazado 106358" d="M1103.469,292.911a2.306,2.306,0,1,1-2.306-2.306A2.306,2.306,0,0,1,1103.469,292.911Z" transform="translate(-1098.857 -290.605)" fill="#0049db"/>
            </g>
          </g>
        </g>
        <g id="Grupo_57703" data-name="Grupo 57703" transform="translate(16.09 17.647)">
          <g id="Grupo_57702" data-name="Grupo 57702">
            <g id="Grupo_57701" data-name="Grupo 57701">
              <path id="Trazado_106359" data-name="Trazado 106359" d="M1107.177,319l-11.547-18.577a2.775,2.775,0,0,0-5.087,0l-11.521,18.548a2.83,2.83,0,0,0-.353,2.893,2.866,2.866,0,0,0,2.674,1.237l23.521.018h-.02v0a3.026,3.026,0,0,0,2.681-1.23A2.828,2.828,0,0,0,1107.177,319Zm-13.02,1.727a1.577,1.577,0,0,1-1.044.388,1.6,1.6,0,0,1-1.052-.388,1.27,1.27,0,0,1-.433-.944,1.2,1.2,0,0,1,.369-.935,1.253,1.253,0,0,1,.9-.391l.069,0a1.815,1.815,0,0,1,1.138.395,1.3,1.3,0,0,1,.476.937A1.235,1.235,0,0,1,1094.157,320.726Zm-1.04-4.734a1.728,1.728,0,0,1-1.051-.333,1.02,1.02,0,0,1-.435-.808l-.156-10.294a1.236,1.236,0,0,1,1.326-1.141h.17a2,2,0,0,1,1.142.335,1.068,1.068,0,0,1,.478.808l.009,10.294A1.344,1.344,0,0,1,1093.117,315.992Z" transform="translate(-1078.41 -298.758)" fill="#ff9f00"/>
            </g>
          </g>
        </g>
      </g>
      <g id="Grupo_57776" data-name="Grupo 57776" transform="translate(883.02 230.274)">
        <g id="Grupo_57775" data-name="Grupo 57775">
          <g id="Grupo_57774" data-name="Grupo 57774">
            <g id="Grupo_57763" data-name="Grupo 57763">
              <g id="Grupo_57708" data-name="Grupo 57708">
                <g id="Grupo_57705" data-name="Grupo 57705" transform="translate(0 105.375)">
                  <path id="Trazado_106360" data-name="Trazado 106360" d="M1112.084,270.08H929.559l-37.634,33.871c-1.883,3.773.443,13.172,5.645,13.172h246.5c5.084,0,9.409-9.611,5.645-13.172Z" transform="translate(-891.277 -270.08)" fill="#0049db"/>
                </g>
                <g id="Grupo_57706" data-name="Grupo 57706" transform="translate(38.516)">
                  <path id="Rectángulo_5436" data-name="Rectángulo 5436" d="M5,0H177.634a4.892,4.892,0,0,1,4.892,4.892V105.376a0,0,0,0,1,0,0H0a0,0,0,0,1,0,0V5A5,5,0,0,1,5,0Z" fill="#0077ec"/>
                </g>
                <g id="Grupo_57707" data-name="Grupo 57707" transform="translate(0 105.375)">
                  <path id="Trazado_106361" data-name="Trazado 106361" d="M1112.084,270.08H929.559L891.925,304.2c-1.883,3.6.443,5.4,5.645,5.4h246.5c5.084,0,9.409-1.8,5.645-5.195Z" transform="translate(-891.277 -270.08)" fill="#0077ec"/>
                </g>
              </g>
              <g id="Grupo_57762" data-name="Grupo 57762" transform="translate(30.936 109.139)">
                <g id="Grupo_57760" data-name="Grupo 57760">
                  <g id="Grupo_57709" data-name="Grupo 57709" transform="translate(12.908)">
                    <path id="Trazado_106362" data-name="Trazado 106362" d="M930.571,277.6l-7.227-.012c-.421,0-.526-.2-.235-.45l4.569-3.892a2.211,2.211,0,0,1,1.239-.449h6.759c.395,0,.5.2.24.45l-4.108,3.906A2.046,2.046,0,0,1,930.571,277.6Z" transform="translate(-922.944 -272.798)" fill="#004080"/>
                  </g>
                  <g id="Grupo_57710" data-name="Grupo 57710" transform="translate(23.179)">
                    <path id="Trazado_106363" data-name="Trazado 106363" d="M938.018,277.62l-7.227-.012c-.421,0-.554-.2-.3-.451l4.026-3.907a1.931,1.931,0,0,1,1.177-.451h6.759c.395,0,.529.2.3.453l-3.565,3.92A1.782,1.782,0,0,1,938.018,277.62Z" transform="translate(-930.363 -272.798)" fill="#004080"/>
                  </g>
                  <g id="Grupo_57711" data-name="Grupo 57711" transform="translate(33.446)">
                    <path id="Trazado_106364" data-name="Trazado 106364" d="M945.466,277.641l-7.227-.014c-.421,0-.583-.2-.36-.454l3.485-3.922a1.682,1.682,0,0,1,1.113-.453h6.759c.393,0,.557.2.364.454l-3.024,3.936A1.558,1.558,0,0,1,945.466,277.641Z" transform="translate(-937.779 -272.798)" fill="#004080"/>
                  </g>
                  <g id="Grupo_57712" data-name="Grupo 57712" transform="translate(43.71)">
                    <path id="Trazado_106365" data-name="Trazado 106365" d="M952.915,277.66l-7.227-.014c-.421,0-.61-.2-.424-.455l2.942-3.939a1.461,1.461,0,0,1,1.052-.454h6.759c.393,0,.584.2.426.456l-2.481,3.953A1.353,1.353,0,0,1,952.915,277.66Z" transform="translate(-945.192 -272.798)" fill="#004080"/>
                  </g>
                  <g id="Grupo_57713" data-name="Grupo 57713" transform="translate(53.97)">
                    <path id="Trazado_106366" data-name="Trazado 106366" d="M960.365,277.68l-7.227-.014c-.421,0-.638-.206-.486-.457l2.4-3.956a1.257,1.257,0,0,1,.989-.456H962.8c.393,0,.613.2.489.458l-1.938,3.967A1.163,1.163,0,0,1,960.365,277.68Z" transform="translate(-952.603 -272.798)" fill="#004080"/>
                  </g>
                  <g id="Grupo_57714" data-name="Grupo 57714" transform="translate(64.226)">
                    <path id="Trazado_106367" data-name="Trazado 106367" d="M967.816,277.7l-7.227-.014c-.421,0-.666-.206-.548-.46l1.857-3.969a1.081,1.081,0,0,1,.928-.458h6.759c.393,0,.641.206.551.46l-1.4,3.983A1,1,0,0,1,967.816,277.7Z" transform="translate(-960.011 -272.798)" fill="#004080"/>
                  </g>
                  <g id="Grupo_57715" data-name="Grupo 57715" transform="translate(74.478)">
                    <path id="Trazado_106368" data-name="Trazado 106368" d="M975.268,277.719l-7.227-.014c-.421,0-.7-.208-.611-.461l1.315-3.986a.923.923,0,0,1,.864-.46h6.759c.393,0,.669.206.613.461l-.854,4C976.074,277.514,975.689,277.719,975.268,277.719Z" transform="translate(-967.415 -272.798)" fill="#004080"/>
                  </g>
                  <g id="Grupo_57716" data-name="Grupo 57716" transform="translate(84.724)">
                    <path id="Trazado_106369" data-name="Trazado 106369" d="M982.722,277.738l-7.227-.014c-.421,0-.723-.208-.674-.462l.774-4c.048-.255.407-.461.8-.461h6.759c.393,0,.7.208.677.464l-.313,4.015C983.5,277.532,983.143,277.738,982.722,277.738Z" transform="translate(-974.815 -272.798)" fill="#004080"/>
                  </g>
                  <g id="Grupo_57717" data-name="Grupo 57717" transform="translate(94.965)">
                    <path id="Trazado_106370" data-name="Trazado 106370" d="M990.177,277.757l-7.227-.014c-.422,0-.75-.209-.737-.465l.231-4.016c.014-.256.345-.464.739-.464h6.759c.393,0,.724.209.739.465l.23,4.03C990.927,277.55,990.6,277.757,990.177,277.757Z" transform="translate(-982.213 -272.798)" fill="#004080"/>
                  </g>
                  <g id="Grupo_57718" data-name="Grupo 57718" transform="translate(104.89)">
                    <path id="Trazado_106371" data-name="Trazado 106371" d="M997.72,277.777l-7.227-.014c-.422,0-.78-.209-.8-.467l-.312-4.033c-.021-.256.282-.465.677-.465h6.758c.395,0,.753.209.8.467l.773,4.047C998.441,277.569,998.141,277.777,997.72,277.777Z" transform="translate(-989.381 -272.798)" fill="#004080"/>
                  </g>
                  <g id="Grupo_57719" data-name="Grupo 57719" transform="translate(114.579)">
                    <path id="Trazado_106372" data-name="Trazado 106372" d="M1005.327,277.8l-7.227-.014c-.421,0-.806-.21-.86-.468l-.854-4.05c-.055-.258.22-.467.613-.467h6.759a.923.923,0,0,1,.865.468l1.315,4.064C1006.022,277.587,1005.748,277.8,1005.327,277.8Z" transform="translate(-996.379 -272.798)" fill="#004080"/>
                  </g>
                  <g id="Grupo_57720" data-name="Grupo 57720" transform="translate(124.262)">
                    <path id="Trazado_106373" data-name="Trazado 106373" d="M1012.937,277.815l-7.227-.014a1,1,0,0,1-.923-.469l-1.4-4.065c-.089-.259.158-.469.551-.469h6.759a1.07,1.07,0,0,1,.928.471l1.857,4.077C1013.6,277.606,1013.358,277.815,1012.937,277.815Z" transform="translate(-1003.373 -272.798)" fill="#004080"/>
                  </g>
                  <g id="Grupo_57721" data-name="Grupo 57721" transform="translate(133.94)">
                    <path id="Trazado_106374" data-name="Trazado 106374" d="M1020.549,277.835l-7.227-.014a1.156,1.156,0,0,1-.986-.472l-1.938-4.08c-.123-.26.1-.471.489-.471h6.759a1.244,1.244,0,0,1,.99.472l2.4,4.094C1021.187,277.624,1020.97,277.835,1020.549,277.835Z" transform="translate(-1010.363 -272.798)" fill="#004080"/>
                  </g>
                  <g id="Grupo_57722" data-name="Grupo 57722" transform="translate(143.613)">
                    <path id="Trazado_106375" data-name="Trazado 106375" d="M1028.162,277.854l-7.227-.014a1.337,1.337,0,0,1-1.048-.474l-2.481-4.1c-.158-.26.033-.472.426-.472h6.759a1.438,1.438,0,0,1,1.052.474l2.942,4.111C1028.772,277.644,1028.583,277.854,1028.162,277.854Z" transform="translate(-1017.35 -272.798)" fill="#004080"/>
                  </g>
                  <g id="Grupo_57723" data-name="Grupo 57723" transform="translate(153.282)">
                    <path id="Trazado_106376" data-name="Trazado 106376" d="M1035.776,277.874l-7.227-.014a1.533,1.533,0,0,1-1.11-.475l-3.024-4.112c-.192-.262-.029-.475.364-.475h6.759a1.64,1.64,0,0,1,1.115.476l3.485,4.124C1036.359,277.662,1036.2,277.874,1035.776,277.874Z" transform="translate(-1024.334 -272.798)" fill="#004080"/>
                  </g>
                  <g id="Grupo_57724" data-name="Grupo 57724" transform="translate(162.947)">
                    <path id="Trazado_106377" data-name="Trazado 106377" d="M1043.391,277.893l-7.227-.014a1.75,1.75,0,0,1-1.173-.478l-3.566-4.127c-.227-.263-.091-.476.3-.476h6.759a1.876,1.876,0,0,1,1.177.478l4.026,4.141C1043.945,277.681,1043.812,277.893,1043.391,277.893Z" transform="translate(-1031.315 -272.798)" fill="#004080"/>
                  </g>
                  <g id="Grupo_57725" data-name="Grupo 57725" transform="translate(172.609)">
                    <path id="Trazado_106378" data-name="Trazado 106378" d="M1051.007,277.912l-7.227-.014a2,2,0,0,1-1.236-.479l-4.108-4.144c-.261-.263-.154-.478.24-.478h6.759a2.127,2.127,0,0,1,1.239.479l4.569,4.158C1051.533,277.7,1051.428,277.912,1051.007,277.912Z" transform="translate(-1038.293 -272.798)" fill="#004080"/>
                  </g>
                  <g id="Grupo_57726" data-name="Grupo 57726" transform="translate(6.454 5.506)">
                    <path id="Trazado_106379" data-name="Trazado 106379" d="M926.5,281.593l-7.766-.029c-.451,0-.583-.2-.292-.451l4.569-3.89a2.294,2.294,0,0,1,1.3-.447l7.3.015c.425,0,.558.2.3.451l-4.108,3.906A2.144,2.144,0,0,1,926.5,281.593Z" transform="translate(-918.283 -276.775)" fill="#004080"/>
                  </g>
                  <g id="Grupo_57727" data-name="Grupo 57727" transform="translate(17.491 5.528)">
                    <path id="Trazado_106380" data-name="Trazado 106380" d="M934.5,281.628l-7.766-.029c-.451,0-.611-.2-.354-.453l4.028-3.907a2.006,2.006,0,0,1,1.232-.449l7.3.015c.425,0,.586.2.359.454l-3.567,3.92A1.858,1.858,0,0,1,934.5,281.628Z" transform="translate(-926.255 -276.791)" fill="#004080"/>
                  </g>
                  <g id="Grupo_57728" data-name="Grupo 57728" transform="translate(28.524 5.551)">
                    <path id="Trazado_106381" data-name="Trazado 106381" d="M942.5,281.665l-7.766-.03c-.451,0-.638-.2-.417-.454l3.485-3.924a1.758,1.758,0,0,1,1.17-.45l7.3.015c.425,0,.613.2.421.456l-3.024,3.936A1.637,1.637,0,0,1,942.5,281.665Z" transform="translate(-934.224 -276.807)" fill="#004080"/>
                  </g>
                  <g id="Grupo_57729" data-name="Grupo 57729" transform="translate(39.553 5.573)">
                    <path id="Trazado_106382" data-name="Trazado 106382" d="M950.5,281.7l-7.766-.03c-.451,0-.667-.2-.479-.456l2.942-3.939a1.534,1.534,0,0,1,1.108-.453l7.3.017c.425,0,.641.2.483.457l-2.481,3.951A1.422,1.422,0,0,1,950.5,281.7Z" transform="translate(-942.19 -276.823)" fill="#004080"/>
                  </g>
                  <g id="Grupo_57730" data-name="Grupo 57730" transform="translate(50.579 5.595)">
                    <path id="Trazado_106383" data-name="Trazado 106383" d="M958.507,281.736l-7.766-.029c-.451,0-.695-.208-.543-.46l2.4-3.954a1.331,1.331,0,0,1,1.045-.454l7.3.017c.425,0,.67.206.547.458l-1.94,3.968A1.235,1.235,0,0,1,958.507,281.736Z" transform="translate(-950.153 -276.839)" fill="#004080"/>
                  </g>
                  <g id="Grupo_57731" data-name="Grupo 57731" transform="translate(61.601 5.617)">
                    <path id="Trazado_106384" data-name="Trazado 106384" d="M966.512,281.771l-7.766-.029c-.453,0-.723-.208-.6-.461L960,277.312a1.144,1.144,0,0,1,.983-.457l7.3.017c.425,0,.7.206.609.46l-1.4,3.985C967.4,281.569,966.965,281.773,966.512,281.771Z" transform="translate(-958.114 -276.855)" fill="#004080"/>
                  </g>
                  <g id="Grupo_57732" data-name="Grupo 57732" transform="translate(72.618 5.641)">
                    <path id="Trazado_106385" data-name="Trazado 106385" d="M974.519,281.806l-7.766-.029c-.453,0-.75-.209-.667-.462l1.315-3.986a.982.982,0,0,1,.921-.457l7.3.015c.425,0,.725.208.672.462l-.854,4C975.383,281.6,974.972,281.808,974.519,281.806Z" transform="translate(-966.072 -276.872)" fill="#004080"/>
                  </g>
                  <g id="Grupo_57733" data-name="Grupo 57733" transform="translate(83.631 5.663)">
                    <path id="Trazado_106386" data-name="Trazado 106386" d="M982.527,281.842l-7.766-.029c-.451,0-.779-.209-.73-.464l.773-4c.05-.253.433-.46.858-.458l7.3.015c.425,0,.753.209.734.464l-.312,4.015C983.362,281.638,982.979,281.843,982.527,281.842Z" transform="translate(-974.026 -276.888)" fill="#004080"/>
                  </g>
                  <g id="Grupo_57734" data-name="Grupo 57734" transform="translate(94.64 5.685)">
                    <path id="Trazado_106387" data-name="Trazado 106387" d="M990.536,281.877l-7.766-.029c-.453,0-.807-.21-.792-.465l.23-4.018c.015-.256.371-.462.8-.461l7.3.015c.425,0,.781.209.8.467l.23,4.03C991.343,281.672,990.989,281.879,990.536,281.877Z" transform="translate(-981.978 -276.904)" fill="#004080"/>
                  </g>
                  <g id="Grupo_57735" data-name="Grupo 57735" transform="translate(105.331 5.707)">
                    <path id="Trazado_106388" data-name="Trazado 106388" d="M998.633,281.913l-7.766-.029c-.453,0-.835-.21-.854-.468l-.313-4.033c-.02-.256.309-.464.734-.462l7.3.015c.425,0,.81.21.858.468l.773,4.047C999.413,281.708,999.086,281.915,998.633,281.913Z" transform="translate(-989.699 -276.92)" fill="#004080"/>
                  </g>
                  <g id="Grupo_57736" data-name="Grupo 57736" transform="translate(115.787 5.729)">
                    <path id="Trazado_106389" data-name="Trazado 106389" d="M1006.8,281.948l-7.766-.029c-.453,0-.863-.212-.918-.469l-.854-4.048c-.054-.258.246-.467.672-.465l7.3.015a.985.985,0,0,1,.921.469l1.315,4.064C1007.547,281.742,1007.248,281.951,1006.8,281.948Z" transform="translate(-997.251 -276.936)" fill="#004080"/>
                  </g>
                  <g id="Grupo_57737" data-name="Grupo 57737" transform="translate(126.239 5.751)">
                    <path id="Trazado_106390" data-name="Trazado 106390" d="M1014.959,281.985l-7.766-.03a1.067,1.067,0,0,1-.98-.471l-1.4-4.065c-.09-.259.183-.468.608-.467l7.3.015a1.142,1.142,0,0,1,.983.472l1.858,4.079C1015.682,281.777,1015.412,281.986,1014.959,281.985Z" transform="translate(-1004.801 -276.952)" fill="#004080"/>
                  </g>
                  <g id="Grupo_57738" data-name="Grupo 57738" transform="translate(136.685 5.773)">
                    <path id="Trazado_106391" data-name="Trazado 106391" d="M1023.124,282.02l-7.766-.029a1.235,1.235,0,0,1-1.042-.474l-1.938-4.08c-.123-.26.12-.469.546-.469l7.3.017a1.31,1.31,0,0,1,1.045.472l2.4,4.094C1023.819,281.811,1023.577,282.021,1023.124,282.02Z" transform="translate(-1012.346 -276.968)" fill="#004080"/>
                  </g>
                  <g id="Grupo_57739" data-name="Grupo 57739" transform="translate(147.127 5.796)">
                    <path id="Trazado_106392" data-name="Trazado 106392" d="M1031.291,282.055l-7.766-.029a1.418,1.418,0,0,1-1.1-.475l-2.481-4.1c-.158-.26.058-.471.483-.471l7.3.017a1.5,1.5,0,0,1,1.107.475l2.943,4.109C1031.958,281.846,1031.744,282.057,1031.291,282.055Z" transform="translate(-1019.888 -276.984)" fill="#004080"/>
                  </g>
                  <g id="Grupo_57740" data-name="Grupo 57740" transform="translate(157.564 5.818)">
                    <path id="Trazado_106393" data-name="Trazado 106393" d="M1039.458,282.091l-7.766-.029a1.615,1.615,0,0,1-1.167-.478l-3.024-4.112c-.192-.262,0-.472.421-.472l7.3.017a1.728,1.728,0,0,1,1.171.476l3.483,4.126C1040.1,281.882,1039.911,282.092,1039.458,282.091Z" transform="translate(-1027.427 -277)" fill="#004080"/>
                  </g>
                  <g id="Grupo_57741" data-name="Grupo 57741" transform="translate(167.998 5.841)">
                    <path id="Trazado_106394" data-name="Trazado 106394" d="M1047.627,282.126l-7.766-.029a1.835,1.835,0,0,1-1.229-.479l-3.567-4.127c-.227-.263-.066-.475.359-.474l7.3.015a1.953,1.953,0,0,1,1.234.479l4.026,4.141C1048.238,281.915,1048.08,282.127,1047.627,282.126Z" transform="translate(-1034.963 -277.017)" fill="#004080"/>
                  </g>
                  <g id="Grupo_57742" data-name="Grupo 57742" transform="translate(178.428 5.863)">
                    <path id="Trazado_106395" data-name="Trazado 106395" d="M1055.8,282.161l-7.766-.029a2.081,2.081,0,0,1-1.292-.48l-4.109-4.144c-.262-.263-.129-.476.3-.475l7.3.015a2.225,2.225,0,0,1,1.3.48l4.569,4.158C1056.38,281.951,1056.25,282.163,1055.8,282.161Z" transform="translate(-1042.496 -277.033)" fill="#004080"/>
                  </g>
                  <g id="Grupo_57743" data-name="Grupo 57743" transform="translate(0 11.011)">
                    <path id="Trazado_106396" data-name="Trazado 106396" d="M922.421,285.586l-8.3-.044c-.483,0-.64-.206-.349-.454l4.569-3.89a2.4,2.4,0,0,1,1.353-.446l7.836.032c.457,0,.615.2.353.453l-4.109,3.9A2.223,2.223,0,0,1,922.421,285.586Z" transform="translate(-913.621 -280.751)" fill="#004080"/>
                  </g>
                  <g id="Grupo_57744" data-name="Grupo 57744" transform="translate(11.802 11.057)">
                    <path id="Trazado_106397" data-name="Trazado 106397" d="M930.977,285.637l-8.3-.044c-.483,0-.667-.206-.411-.455l4.027-3.907a2.1,2.1,0,0,1,1.289-.446l7.836.03c.457,0,.642.206.415.456l-3.566,3.92A1.958,1.958,0,0,1,930.977,285.637Z" transform="translate(-922.146 -280.784)" fill="#004080"/>
                  </g>
                  <g id="Grupo_57745" data-name="Grupo 57745" transform="translate(23.601 11.101)">
                    <path id="Trazado_106398" data-name="Trazado 106398" d="M939.533,285.688l-8.3-.044c-.483,0-.695-.208-.473-.457l3.485-3.922a1.85,1.85,0,0,1,1.227-.449l7.836.03c.457,0,.67.206.478.457l-3.024,3.936A1.722,1.722,0,0,1,939.533,285.688Z" transform="translate(-930.668 -280.816)" fill="#004080"/>
                  </g>
                  <g id="Grupo_57746" data-name="Grupo 57746" transform="translate(35.396 11.145)">
                    <path id="Trazado_106399" data-name="Trazado 106399" d="M948.091,285.741l-8.3-.046c-.485,0-.724-.208-.537-.458l2.942-3.939a1.615,1.615,0,0,1,1.166-.45l7.835.032c.457,0,.7.206.541.458l-2.482,3.951A1.5,1.5,0,0,1,948.091,285.741Z" transform="translate(-939.187 -280.848)" fill="#004080"/>
                  </g>
                  <g id="Grupo_57747" data-name="Grupo 57747" transform="translate(47.187 11.19)">
                    <path id="Trazado_106400" data-name="Trazado 106400" d="M956.649,285.792l-8.3-.046c-.485,0-.753-.208-.6-.46l2.4-3.954a1.4,1.4,0,0,1,1.1-.453l7.835.032c.457,0,.727.208.6.46l-1.94,3.968A1.307,1.307,0,0,1,956.649,285.792Z" transform="translate(-947.704 -280.88)" fill="#004080"/>
                  </g>
                  <g id="Grupo_57748" data-name="Grupo 57748" transform="translate(58.975 11.234)">
                    <path id="Trazado_106401" data-name="Trazado 106401" d="M965.209,285.844l-8.3-.044c-.485,0-.781-.21-.662-.462l1.857-3.971a1.22,1.22,0,0,1,1.041-.454l7.835.032c.457,0,.755.209.666.462l-1.4,3.983C966.157,285.643,965.694,285.846,965.209,285.844Z" transform="translate(-956.218 -280.912)" fill="#004080"/>
                  </g>
                  <g id="Grupo_57749" data-name="Grupo 57749" transform="translate(70.759 11.28)">
                    <path id="Trazado_106402" data-name="Trazado 106402" d="M973.77,285.895l-8.3-.044c-.485,0-.809-.21-.724-.464l1.315-3.986c.083-.253.521-.458.978-.455l7.835.03c.457,0,.782.21.728.464l-.854,4C974.69,285.694,974.254,285.9,973.77,285.895Z" transform="translate(-964.729 -280.945)" fill="#004080"/>
                  </g>
                  <g id="Grupo_57750" data-name="Grupo 57750" transform="translate(82.538 11.324)">
                    <path id="Trazado_106403" data-name="Trazado 106403" d="M982.332,285.947l-8.3-.046c-.485,0-.836-.21-.788-.465l.774-4c.048-.253.458-.458.915-.457l7.835.032c.457,0,.811.209.791.465l-.312,4.015C983.225,285.744,982.816,285.95,982.332,285.947Z" transform="translate(-973.237 -280.977)" fill="#004080"/>
                  </g>
                  <g id="Grupo_57751" data-name="Grupo 57751" transform="translate(94.313 11.368)">
                    <path id="Trazado_106404" data-name="Trazado 106404" d="M990.9,286l-8.3-.046c-.485,0-.864-.212-.85-.467l.231-4.018c.014-.256.4-.461.853-.46l7.835.032c.457,0,.839.21.853.467l.231,4.032C991.759,285.8,991.38,286,990.9,286Z" transform="translate(-981.742 -281.009)" fill="#004080"/>
                  </g>
                  <g id="Grupo_57752" data-name="Grupo 57752" transform="translate(105.772 11.412)">
                    <path id="Trazado_106405" data-name="Trazado 106405" d="M999.546,286.05l-8.3-.044c-.485,0-.892-.213-.912-.469l-.312-4.033c-.019-.258.334-.464.791-.462l7.835.032c.457,0,.867.212.917.469l.773,4.047C1000.382,285.847,1000.031,286.053,999.546,286.05Z" transform="translate(-990.018 -281.041)" fill="#004080"/>
                  </g>
                  <g id="Grupo_57753" data-name="Grupo 57753" transform="translate(116.996 11.458)">
                    <path id="Trazado_106406" data-name="Trazado 106406" d="M1008.264,286.1l-8.3-.044c-.483,0-.921-.213-.975-.471l-.854-4.05c-.054-.258.271-.465.728-.462l7.835.03c.457,0,.894.213.979.472l1.315,4.062C1009.071,285.9,1008.747,286.1,1008.264,286.1Z" transform="translate(-998.125 -281.074)" fill="#004080"/>
                  </g>
                  <g id="Grupo_57754" data-name="Grupo 57754" transform="translate(128.214 11.502)">
                    <path id="Trazado_106407" data-name="Trazado 106407" d="M1016.982,286.154l-8.3-.046c-.483,0-.948-.215-1.037-.473l-1.4-4.064c-.089-.259.209-.468.666-.465l7.835.03a1.221,1.221,0,0,1,1.041.474l1.858,4.079C1017.761,285.948,1017.465,286.155,1016.982,286.154Z" transform="translate(-1006.228 -281.106)" fill="#004080"/>
                  </g>
                  <g id="Grupo_57755" data-name="Grupo 57755" transform="translate(139.429 11.547)">
                    <path id="Trazado_106408" data-name="Trazado 106408" d="M1025.7,286.205l-8.3-.046a1.309,1.309,0,0,1-1.1-.475l-1.938-4.08c-.125-.259.146-.468.6-.467l7.835.032a1.391,1.391,0,0,1,1.1.475l2.4,4.094C1026.452,286,1026.184,286.208,1025.7,286.205Z" transform="translate(-1014.328 -281.138)" fill="#004080"/>
                  </g>
                  <g id="Grupo_57756" data-name="Grupo 57756" transform="translate(150.64 11.591)">
                    <path id="Trazado_106409" data-name="Trazado 106409" d="M1034.42,286.257l-8.3-.044a1.5,1.5,0,0,1-1.161-.478l-2.481-4.1c-.158-.262.083-.471.54-.469l7.836.032a1.593,1.593,0,0,1,1.164.476l2.942,4.111C1035.145,286.049,1034.9,286.259,1034.42,286.257Z" transform="translate(-1022.425 -281.17)" fill="#004080"/>
                  </g>
                  <g id="Grupo_57757" data-name="Grupo 57757" transform="translate(161.846 11.635)">
                    <path id="Trazado_106410" data-name="Trazado 106410" d="M1043.142,286.308l-8.3-.044a1.708,1.708,0,0,1-1.224-.479l-3.024-4.112c-.192-.262.021-.472.478-.471l7.836.032a1.812,1.812,0,0,1,1.227.479l3.485,4.124C1043.837,286.1,1043.625,286.311,1043.142,286.308Z" transform="translate(-1030.519 -281.202)" fill="#004080"/>
                  </g>
                  <g id="Grupo_57758" data-name="Grupo 57758" transform="translate(173.048 11.681)">
                    <path id="Trazado_106411" data-name="Trazado 106411" d="M1051.864,286.359l-8.3-.044a1.936,1.936,0,0,1-1.286-.48l-3.566-4.127c-.227-.263-.04-.475.415-.472l7.836.03a2.07,2.07,0,0,1,1.29.48l4.026,4.141C1052.531,286.151,1052.347,286.362,1051.864,286.359Z" transform="translate(-1038.61 -281.235)" fill="#004080"/>
                  </g>
                  <g id="Grupo_57759" data-name="Grupo 57759" transform="translate(184.247 11.725)">
                    <path id="Trazado_106412" data-name="Trazado 106412" d="M1060.587,286.412l-8.3-.046a2.182,2.182,0,0,1-1.349-.482l-4.109-4.144c-.262-.263-.1-.476.353-.474l7.836.03a2.332,2.332,0,0,1,1.353.483l4.569,4.156C1061.227,286.2,1061.07,286.415,1060.587,286.412Z" transform="translate(-1046.699 -281.267)" fill="#004080"/>
                  </g>
                </g>
                <g id="Grupo_57761" data-name="Grupo 57761" transform="translate(72.806 20.7)">
                  <path id="Trazado_106413" data-name="Trazado 106413" d="M1017.219,299.038h-49a2.006,2.006,0,0,1-1.9-2.64l2.426-7.278a2.008,2.008,0,0,1,1.9-1.371h44.151a2.007,2.007,0,0,1,1.9,1.371l2.426,7.278A2,2,0,0,1,1017.219,299.038Z" transform="translate(-966.207 -287.749)" fill="#004080"/>
                </g>
              </g>
            </g>
            <g id="Grupo_57773" data-name="Grupo 57773" transform="translate(49.035 9.2)">
              <g id="Grupo_57764" data-name="Grupo 57764">
                <path id="Trazado_106414" data-name="Trazado 106414" d="M1088.358,296.615l-161.588.168-.076-89.636,2.1-4.292,4.292-2.24,149.316.239,4.239,1.862,2.028,4.239.127,4.481Z" transform="translate(-926.694 -200.615)" fill="#ffd947"/>
              </g>
              <g id="Grupo_57771" data-name="Grupo 57771" transform="translate(49.281 7.735)">
                <g id="Grupo_57767" data-name="Grupo 57767">
                  <g id="Grupo_57766" data-name="Grupo 57766">
                    <g id="Grupo_57765" data-name="Grupo 57765">
                      <path id="Trazado_106415" data-name="Trazado 106415" d="M1025.556,225.576c-.09-1.98-.09-3.87-.09-5.76a2.652,2.652,0,0,0-2.7-2.7c-11.252,0-19.8-3.24-26.913-10.171a2.776,2.776,0,0,0-3.78,0c-7.111,6.931-15.662,10.171-26.912,10.171a2.652,2.652,0,0,0-2.7,2.7c0,1.89,0,3.78-.09,5.76-.36,18.9-.9,44.824,30.692,55.714l.9.18.9-.18C1026.366,270.4,1025.916,244.567,1025.556,225.576Z" transform="translate(-962.289 -206.202)" fill="#004080"/>
                    </g>
                  </g>
                </g>
                <g id="Grupo_57770" data-name="Grupo 57770" transform="translate(6.334 7.527)">
                  <g id="Grupo_57769" data-name="Grupo 57769">
                    <g id="Grupo_57768" data-name="Grupo 57768">
                      <path id="Trazado_106416" data-name="Trazado 106416" d="M1017.478,227.138c-.072-1.584-.072-3.1-.072-4.609a2.121,2.121,0,0,0-2.16-2.16c-9,0-15.842-2.592-21.531-8.137a2.221,2.221,0,0,0-3.024,0c-5.689,5.545-12.528,8.137-21.529,8.137a2.122,2.122,0,0,0-2.161,2.16c0,1.513,0,3.025-.072,4.609-.288,15.122-.72,35.859,24.554,44.572l.72.144.72-.144C1018.126,263,1017.766,242.331,1017.478,227.138Z" transform="translate(-966.863 -211.638)" fill="#03e6b0"/>
                    </g>
                  </g>
                </g>
                <path id="Trazado_106417" data-name="Trazado 106417" d="M992.754,236.349a9.057,9.057,0,1,0-10.147,0l-3.035,14.3a2.729,2.729,0,0,0,2.79,3.207H993a2.73,2.73,0,0,0,2.79-3.207Z" transform="translate(-956.007 -200.976)" fill="#fff"/>
              </g>
              <g id="Grupo_57772" data-name="Grupo 57772" transform="translate(0.069 0.208)" opacity="0.2">
                <path id="Trazado_106418" data-name="Trazado 106418" d="M988.5,200.765l-61.755,93.628v2.34h15.392l63.3-95.967Z" transform="translate(-926.744 -200.765)" fill="#fff"/>
                <path id="Trazado_106419" data-name="Trazado 106419" d="M1064.335,202.781a6.092,6.092,0,0,0-4.516-2.016h-11.092l-63.3,95.967h16.935Z" transform="translate(-904.178 -200.765)" fill="#fff"/>
                <path id="Trazado_106420" data-name="Trazado 106420" d="M1043.5,200.765h-30.107l-63.3,95.967H980.2Z" transform="translate(-917.765 -200.765)" fill="#fff"/>
              </g>
            </g>
          </g>
        </g>
      </g>
    </g>
  </g>
</svg>
