<svg id="discusion" xmlns="http://www.w3.org/2000/svg" width="127" height="127" viewBox="0 0 127 127">
  <path id="Trazado_106421" data-name="Trazado 106421" d="M127,63.5a63.182,63.182,0,0,1-8.915,32.459c-1.6,2.692-12.1-3.584-14.067-1.168-1.471,1.8,5.654,12.362,4,13.992q-.945.93-1.93,1.821A63.5,63.5,0,1,1,127,63.5Z" fill="#03e6b0"/>
  <path id="Trazado_106422" data-name="Trazado 106422" d="M249.681,3.694H208.145a11.816,11.816,0,0,0-11.816,11.815V41.57a11.816,11.816,0,0,0,11.816,11.816h21.775l10.2,11.132a5.394,5.394,0,0,0,9.37-3.645V53.386h.187A11.816,11.816,0,0,0,261.5,41.57V15.509A11.815,11.815,0,0,0,249.681,3.694Z" transform="translate(-147.63 -2.778)" fill="#ffd947"/>
  <path id="Trazado_106423" data-name="Trazado 106423" d="M214.446,53.379h-6.3a11.813,11.813,0,0,1-11.814-11.814V15.5A11.815,11.815,0,0,1,208.143,3.688h6.3A11.817,11.817,0,0,0,202.632,15.5v26.06A11.815,11.815,0,0,0,214.446,53.379Z" transform="translate(-147.63 -2.773)" fill="#ffc344"/>
  <g id="Grupo_57778" data-name="Grupo 57778" transform="translate(52.362 17.538)">
    <path id="Trazado_106424" data-name="Trazado 106424" d="M220.331,78.675c-1.911-.7-3.69-1.473-4.223-1.706a1.142,1.142,0,0,1-.412-1.079,1.622,1.622,0,0,1,1.28-1.3,5.227,5.227,0,0,1,4.322,1,1.86,1.86,0,0,0,2.385-2.856c-.145-.122-3.592-2.965-7.78-1.7a5.367,5.367,0,0,0-3.89,4.332,4.843,4.843,0,0,0,2.16,4.794,1.853,1.853,0,0,0,.258.14c.089.04,2.217.987,4.612,1.871.7.256,2.288.983,2.073,2.186a2.681,2.681,0,0,1-2.772,1.818,5.456,5.456,0,0,1-4.009-1.681,1.86,1.86,0,1,0-2.757,2.5,9.231,9.231,0,0,0,6.766,2.9,6.3,6.3,0,0,0,6.435-4.884C225.159,82.878,224.19,80.1,220.331,78.675Z" transform="translate(-211.096 -70.707)" fill="#434c54"/>
    <path id="Trazado_106425" data-name="Trazado 106425" d="M284.145,72.566a1.86,1.86,0,0,0-1.86-1.86h-8.539a1.86,1.86,0,0,0,0,3.721h2.392v13.6a1.86,1.86,0,0,0,3.721,0v-13.6h2.426A1.86,1.86,0,0,0,284.145,72.566Z" transform="translate(-256.807 -70.706)" fill="#434c54"/>
    <path id="Trazado_106426" data-name="Trazado 106426" d="M400.157,70.706h-4.305a1.86,1.86,0,0,0-1.86,1.866V88.028a1.86,1.86,0,0,0,3.721,0V83.162c.885,0,1.878-.009,2.445-.009a6.224,6.224,0,1,0,0-12.447Zm0,8.727c-.563,0-1.544,0-2.425.009,0-.911-.012-4.062-.014-5.015h2.439a2.5,2.5,0,1,1,0,5.006Z" transform="translate(-348.625 -70.706)" fill="#434c54"/>
    <path id="Trazado_106427" data-name="Trazado 106427" d="M323.553,70.706a9.591,9.591,0,1,0,9.591,9.591A9.6,9.6,0,0,0,323.553,70.706Zm0,15.462a5.871,5.871,0,1,1,5.871-5.871A5.877,5.877,0,0,1,323.553,86.168Z" transform="translate(-288.446 -70.706)" fill="#434c54"/>
  </g>
  <path id="Trazado_106428" data-name="Trazado 106428" d="M22.991,129.847H64.528a11.816,11.816,0,0,1,11.816,11.815v26.06a11.816,11.816,0,0,1-11.816,11.816H42.753l-10.2,11.132a5.394,5.394,0,0,1-9.37-3.645v-7.487h-.187a11.816,11.816,0,0,1-11.815-11.816V141.662a11.815,11.815,0,0,1,11.815-11.815Z" transform="translate(-8.404 -97.639)" fill="#fcf8f2"/>
  <path id="Trazado_106429" data-name="Trazado 106429" d="M31.106,191.808a5.405,5.405,0,0,1-7.928-4.777v-7.486h-.189a11.815,11.815,0,0,1-11.814-11.817v-26.06a11.813,11.813,0,0,1,11.814-11.814h5.043a11.813,11.813,0,0,0-11.814,11.814v26.06a11.815,11.815,0,0,0,11.814,11.817h.189v7.486A5.29,5.29,0,0,0,31.106,191.808Z" transform="translate(-8.403 -97.643)" fill="#dedbee"/>
  <path id="Trazado_106430" data-name="Trazado 106430" d="M278.507,250.567v24.921a63.7,63.7,0,0,1-10.071,12.824,11.873,11.873,0,0,1-1.744.129h-.186v7.489a5.4,5.4,0,0,1-9.371,3.644l-1.431-1.56-8.773-9.572H225.157a11.815,11.815,0,0,1-11.817-11.814v-26.06a11.817,11.817,0,0,1,11.817-11.817h41.535A11.815,11.815,0,0,1,278.507,250.567Z" transform="translate(-160.422 -179.529)" fill="#70b5e8"/>
  <path id="Trazado_106431" data-name="Trazado 106431" d="M229.989,288.437h-4.832a11.813,11.813,0,0,1-11.814-11.814v-26.06a11.815,11.815,0,0,1,11.814-11.817h4.832a11.815,11.815,0,0,0-11.814,11.817v26.06A11.813,11.813,0,0,0,229.989,288.437Z" transform="translate(-160.424 -179.526)" fill="#56a2d1"/>
  <g id="Grupo_57780" data-name="Grupo 57780" transform="translate(63.326 70.049)">
    <g id="Grupo_57779" data-name="Grupo 57779" transform="translate(0 0)">
      <path id="Trazado_106432" data-name="Trazado 106432" d="M257.994,308.372a2.694,2.694,0,0,1-2.694-2.694V285.136a2.694,2.694,0,0,1,4.911-1.531l9.435,13.663-.118-12.145a2.694,2.694,0,0,1,2.668-2.72h.027a2.694,2.694,0,0,1,2.694,2.668l.192,19.886a3.069,3.069,0,0,1-2.094,3.052,2.963,2.963,0,0,1-3.349-1.23l-8.979-13v11.9A2.693,2.693,0,0,1,257.994,308.372Z" transform="translate(-255.3 -282.404)" fill="#413d44"/>
    </g>
    <path id="Trazado_106433" data-name="Trazado 106433" d="M357.8,308.371a12.984,12.984,0,1,1,12.984-12.984A13,13,0,0,1,357.8,308.371Zm0-20.58a7.6,7.6,0,1,0,7.6,7.6A7.6,7.6,0,0,0,357.8,287.791Z" transform="translate(-322.613 -282.403)" fill="#413d44"/>
  </g>
  <path id="Trazado_106434" data-name="Trazado 106434" d="M97.984,158.573a17.754,17.754,0,1,0,0,25.12,17.646,17.646,0,0,0,0-25.12Zm-4.674,4.674a11.172,11.172,0,0,1,1.983,13.081L80.227,161.261a11.166,11.166,0,0,1,13.083,1.986ZM77.539,179.018a11.166,11.166,0,0,1-1.986-13.083L90.619,181A11.171,11.171,0,0,1,77.539,179.018Z" transform="translate(-50.879 -115.327)" fill="#fe646f"/>
</svg>
