<svg id="revisar" xmlns="http://www.w3.org/2000/svg" width="126.75" height="126.75" viewBox="0 0 126.75 126.75">
  <path id="Trazado_106435" data-name="Trazado 106435" d="M126.75,63.375A63.375,63.375,0,1,1,63.375,0,63.375,63.375,0,0,1,126.75,63.375Z" transform="translate(0 0)" fill="#03e6b0"/>
  <path id="Trazado_106436" data-name="Trazado 106436" d="M169.461,132.389V159.71a9.9,9.9,0,0,1-9.9,9.9H119.512a9.9,9.9,0,0,1-9.9-9.9v-.031H79.657a9.9,9.9,0,0,1-9.9-9.9V122.455a9.9,9.9,0,0,1,9.9-9.9H119.7a9.9,9.9,0,0,1,9.9,9.9v.031h29.952A9.9,9.9,0,0,1,169.461,132.389Z" transform="translate(-52.487 -84.69)" fill="#004080"/>
  <path id="Trazado_106437" data-name="Trazado 106437" d="M53.549,222.476v54.463a2.476,2.476,0,0,1-2.476,2.476h-8.6A2.476,2.476,0,0,1,40,276.938V222.476A2.476,2.476,0,0,1,42.476,220h8.6A2.476,2.476,0,0,1,53.549,222.476Z" transform="translate(-30.098 -165.537)" fill="#b4e7fd"/>
  <path id="Trazado_106438" data-name="Trazado 106438" d="M139.714,279.414H62.476A2.476,2.476,0,0,1,60,276.938V222.476A2.476,2.476,0,0,1,62.476,220h77.238a2.476,2.476,0,0,1,2.476,2.476v54.463A2.476,2.476,0,0,1,139.714,279.414Z" transform="translate(-45.146 -165.537)" fill="#d5f1fe"/>
  <path id="Trazado_106439" data-name="Trazado 106439" d="M51.14,182.821v3.587a5.971,5.971,0,0,1-5.97,5.97H40v-9.9A2.476,2.476,0,0,1,42.476,180h5.844A2.821,2.821,0,0,1,51.14,182.821Z" transform="translate(-30.098 -135.439)" fill="#3d4ec6"/>
  <path id="Trazado_106440" data-name="Trazado 106440" d="M142.189,180v12.378H60v-9.9A2.476,2.476,0,0,1,62.476,180Z" transform="translate(-45.146 -135.439)" fill="#5766ce"/>
  <path id="Trazado_106441" data-name="Trazado 106441" d="M63.713,199.357a1.857,1.857,0,1,1-1.857-1.857A1.857,1.857,0,0,1,63.713,199.357Zm4.332-1.857a1.857,1.857,0,1,0,1.857,1.857A1.857,1.857,0,0,0,68.046,197.5Zm6.189,0a1.857,1.857,0,1,0,1.857,1.857A1.857,1.857,0,0,0,74.235,197.5Z" transform="translate(-45.146 -148.607)" fill="#2b3894"/>
  <path id="Trazado_106442" data-name="Trazado 106442" d="M95.375,276.213H71.857a1.857,1.857,0,0,1,0-3.713H95.375a1.857,1.857,0,0,1,0,3.713Zm1.857,5.88a1.857,1.857,0,0,0-1.857-1.857H71.857a1.857,1.857,0,0,0,0,3.713H95.375A1.857,1.857,0,0,0,97.231,282.093Zm0,7.736a1.857,1.857,0,0,0-1.857-1.857H71.857a1.857,1.857,0,0,0,0,3.713H95.375A1.857,1.857,0,0,0,97.231,289.829Zm35.434,21.282,3.057-1.721a.522.522,0,0,1,.507,0l3.078,1.684a.522.522,0,0,0,.762-.561l-.692-3.44a.522.522,0,0,1,.154-.483l2.553-2.407a.522.522,0,0,0-.3-.9l-3.485-.4a.522.522,0,0,1-.412-.3l-1.5-3.171a.522.522,0,0,0-.947.006l-1.462,3.189a.522.522,0,0,1-.408.3l-3.48.447a.522.522,0,0,0-.287.9l2.581,2.376a.522.522,0,0,1,.159.481l-.651,3.448A.522.522,0,0,0,132.665,311.111Zm7.27-19.426h-35.9a1.857,1.857,0,0,1-1.857-1.857V274.357a1.857,1.857,0,0,1,1.857-1.857h35.9a1.857,1.857,0,0,1,1.857,1.857v15.472A1.857,1.857,0,0,1,139.935,291.686Z" transform="translate(-52.671 -205.04)" fill="#93dcfc"/>
  <path id="Trazado_106443" data-name="Trazado 106443" d="M117.878,392l3.057-1.721a.522.522,0,0,1,.507,0l3.078,1.684a.522.522,0,0,0,.762-.561l-.692-3.44a.521.521,0,0,1,.154-.483l2.553-2.407a.522.522,0,0,0-.3-.9l-3.485-.405a.522.522,0,0,1-.412-.3l-1.5-3.171a.522.522,0,0,0-.947.006l-1.462,3.189a.522.522,0,0,1-.408.3l-3.48.447a.522.522,0,0,0-.287.9l2.581,2.376a.522.522,0,0,1,.159.481l-.651,3.448a.522.522,0,0,0,.769.552Zm-14.9,0,3.057-1.721a.522.522,0,0,1,.507,0l3.078,1.684a.522.522,0,0,0,.762-.561l-.692-3.44a.521.521,0,0,1,.154-.483l2.553-2.407a.522.522,0,0,0-.3-.9l-3.485-.405a.522.522,0,0,1-.412-.3l-1.5-3.171a.522.522,0,0,0-.947.006l-1.462,3.189a.522.522,0,0,1-.408.3l-3.48.447a.522.522,0,0,0-.287.9l2.581,2.376a.522.522,0,0,1,.159.481l-.651,3.448a.522.522,0,0,0,.769.552Zm-14.9,0,3.057-1.721a.522.522,0,0,1,.507,0l3.078,1.684a.522.522,0,0,0,.762-.561l-.692-3.44a.521.521,0,0,1,.154-.483L97.5,385.07a.522.522,0,0,0-.3-.9l-3.485-.405a.522.522,0,0,1-.412-.3L91.8,380.3a.522.522,0,0,0-.947.006l-1.462,3.189a.522.522,0,0,1-.408.3l-3.48.447a.522.522,0,0,0-.287.9l2.581,2.376a.522.522,0,0,1,.159.481l-.651,3.448a.522.522,0,0,0,.769.552Zm-14.9,0,3.057-1.721a.522.522,0,0,1,.507,0l3.078,1.684a.522.522,0,0,0,.762-.561l-.692-3.44a.521.521,0,0,1,.154-.483L82.6,385.07a.522.522,0,0,0-.3-.9l-3.485-.405a.522.522,0,0,1-.412-.3L76.9,380.3a.522.522,0,0,0-.947.006l-1.462,3.189a.522.522,0,0,1-.408.3l-3.48.447a.522.522,0,0,0-.287.9l2.581,2.376a.522.522,0,0,1,.159.481l-.651,3.448A.522.522,0,0,0,73.178,392Z" transform="translate(-52.784 -285.928)" fill="#ffd947"/>
  <path id="Trazado_106444" data-name="Trazado 106444" d="M286.268,99.54v27.321a9.9,9.9,0,0,1-9.9,9.9H245.42l-18.567,12.378V136.764H221.9a9.9,9.9,0,0,1-9.9-9.9V99.54a9.9,9.9,0,0,1,9.9-9.9h54.463A9.9,9.9,0,0,1,286.268,99.54Z" transform="translate(-159.518 -67.447)" fill="#07a9f0"/>
  <path id="Trazado_106445" data-name="Trazado 106445" d="M330.085,99.54v27.321a9.9,9.9,0,0,1-9.9,9.9H280.135a9.9,9.9,0,0,1-9.9-9.9V99.54a9.9,9.9,0,0,1,9.9-9.9h40.047A9.9,9.9,0,0,1,330.085,99.54Z" transform="translate(-203.335 -67.447)" fill="#40c1fa"/>
  <path id="Trazado_106446" data-name="Trazado 106446" d="M340,151.857A1.857,1.857,0,0,1,341.857,150H367.85a1.857,1.857,0,0,1,0,3.713H341.857A1.857,1.857,0,0,1,340,151.857Zm27.85,5.88H341.857a1.857,1.857,0,0,0,0,3.713H367.85a1.857,1.857,0,0,0,0-3.713Zm0,7.736H341.857a1.857,1.857,0,0,0,0,3.713H367.85a1.857,1.857,0,0,0,0-3.713Z" transform="translate(-255.83 -112.866)" fill="#93dcfc"/>
  <path id="Trazado_106447" data-name="Trazado 106447" d="M173.51,50.706a26.244,26.244,0,1,1-35.957-36.018.533.533,0,0,1,.758.674,26.255,26.255,0,0,0,34.507,34.565.547.547,0,0,1,.692.779Z" transform="translate(-93.863 -10.994)" fill="#e9cc5a"/>
  <path id="Trazado_106448" data-name="Trazado 106448" d="M203.563,26.241A26.119,26.119,0,0,1,199.7,39.954a26.247,26.247,0,0,1-36.09-36.091,26.247,26.247,0,0,1,39.954,22.378Z" transform="translate(-120.199 0)" fill="#fff36c"/>
  <path id="Trazado_106449" data-name="Trazado 106449" d="M201.253,77.9a1.857,1.857,0,0,1,0,2.626,19.208,19.208,0,0,1-27.133,0,1.857,1.857,0,0,1,2.626-2.626,15.49,15.49,0,0,0,21.881,0A1.857,1.857,0,0,1,201.253,77.9ZM174.186,67.111a1.857,1.857,0,0,0,2.615-.232,1.529,1.529,0,0,1,2.523,0,1.857,1.857,0,1,0,2.848-2.383,5.229,5.229,0,0,0-8.219,0,1.856,1.856,0,0,0,.232,2.615Zm19.248,0a1.857,1.857,0,0,0,2.615-.232,1.529,1.529,0,0,1,2.523,0A1.857,1.857,0,1,0,201.42,64.5a5.229,5.229,0,0,0-8.219,0,1.857,1.857,0,0,0,.232,2.615Z" transform="translate(-130.564 -47.028)" fill="#c1924d"/>
  <path id="Trazado_106450" data-name="Trazado 106450" d="M341.079,310.493l-6.189,5.835a1.266,1.266,0,0,0-.373,1.171l1.677,8.34a1.266,1.266,0,0,1-1.849,1.36l-7.462-4.083a1.266,1.266,0,0,0-1.229.007l-7.413,4.172a1.266,1.266,0,0,1-1.865-1.338l1.577-8.359a1.266,1.266,0,0,0-.387-1.166l-6.259-5.761a1.266,1.266,0,0,1,.7-2.187l8.437-1.083a1.266,1.266,0,0,0,.99-.728l3.545-7.732a1.266,1.266,0,0,1,2.3-.014l3.637,7.69a1.266,1.266,0,0,0,1,.716l8.449.982A1.266,1.266,0,0,1,341.079,310.493Z" transform="translate(-233.932 -224.379)" fill="#ffd947"/>
  <path id="Trazado_106451" data-name="Trazado 106451" d="M368.043,310.434l-6.189,5.835a1.266,1.266,0,0,0-.373,1.171l.679,3.379a26.459,26.459,0,0,1-15.426-13.391l.672-.086a1.266,1.266,0,0,0,.99-.728l3.545-7.733a1.266,1.266,0,0,1,2.3-.014l3.637,7.69a1.266,1.266,0,0,0,1,.716l8.449.982A1.266,1.266,0,0,1,368.043,310.434Z" transform="translate(-260.897 -224.335)" fill="#ffe274"/>
</svg>
