<svg xmlns="http://www.w3.org/2000/svg" xmlns:xlink="http://www.w3.org/1999/xlink" width="68" height="68" viewBox="0 0 68 68">
  <defs>
    <clipPath id="clip-path">
      <rect id="Rectángulo_5448" data-name="Rectángulo 5448" width="68" height="68" transform="translate(185 197)" fill="#0077ec" stroke="#707070" stroke-width="1"/>
    </clipPath>
  </defs>
  <g id="Enmascarar_grupo_74" data-name="Enmascarar grupo 74" transform="translate(-185 -197)" clip-path="url(#clip-path)">
    <g id="red_1_" data-name="red (1)" transform="translate(185 197)">
      <path id="Trazado_106525" data-name="Trazado 106525" d="M57.369,34.158a23.274,23.274,0,0,0-6.518-16.2.995.995,0,1,0-1.435,1.378,21.366,21.366,0,1,1-3.079-2.652.995.995,0,0,0,1.15-1.623,23.386,23.386,0,1,0,9.882,19.094Z" fill="#0077ec"/>
      <path id="Trazado_106526" data-name="Trazado 106526" d="M23.534,46.391a16.188,16.188,0,0,1-1.842-1.853.995.995,0,0,0-1.52,1.285,18.009,18.009,0,1,0-2.495-3.85.995.995,0,0,0,1.794-.861,15.941,15.941,0,0,1-1.576-6.953A16.089,16.089,0,1,1,44.429,46.386a12.978,12.978,0,0,0-6.071-3.638V40.933a8.606,8.606,0,0,0,1.824-1.468A.995.995,0,1,0,38.735,38.1a6.478,6.478,0,0,1-4.751,2.05,6.546,6.546,0,0,1-6.539-6.539V30.786H40.522V33.61a6.613,6.613,0,0,1-.108,1.178.995.995,0,1,0,1.958.356,8.59,8.59,0,0,0,.14-1.534V29.792s0,0,0,0,0,0,0,0l-.049-7.4a1.409,1.409,0,0,0-2.277-1.1l-.967.757H31.826a6.377,6.377,0,0,0-6.37,6.37v5.2a8.531,8.531,0,0,0,4.155,7.318v1.82a12.977,12.977,0,0,0-6.076,3.643Zm8.292-22.356h7.737a1,1,0,0,0,.614-.212l.3-.239.034,5.213H27.445v-.382a4.386,4.386,0,0,1,4.381-4.381Zm11,23.555a16.069,16.069,0,0,1-17.7,0,10.987,10.987,0,0,1,4.655-2.829,4.373,4.373,0,0,0,8.391,0,10.989,10.989,0,0,1,4.651,2.825Zm-8.847-5.451a8.571,8.571,0,0,0,2.384-.337v1.731a2.384,2.384,0,1,1-4.768,0V41.8a8.5,8.5,0,0,0,2.384.342Z" fill="#0077ec"/>
      <path id="Trazado_106527" data-name="Trazado 106527" d="M44.991,11.255a1,1,0,0,0,1.142-.822A9.994,9.994,0,0,1,49.49,4.471c.084-.072.171-.142.257-.211a6.733,6.733,0,0,0,1.176,7.015,9.472,9.472,0,0,0-1.589,1.269.995.995,0,1,0,1.4,1.412,7.457,7.457,0,0,1,1.818-1.327,6.727,6.727,0,0,0,6.869,0,7.483,7.483,0,0,1,4,6.1A9.944,9.944,0,0,1,57.654,21.9a.995.995,0,0,0,.164,1.976,1.008,1.008,0,0,0,.166-.014A11.976,11.976,0,1,0,44.169,10.113a1,1,0,0,0,.822,1.142Zm6.239-4.43a4.758,4.758,0,1,1,4.758,4.758A4.763,4.763,0,0,1,51.23,6.825Zm14.746,5.23a10,10,0,0,1-.985,4.342,9.495,9.495,0,0,0-3.938-5.122,6.732,6.732,0,0,0,1.178-7.009A9.972,9.972,0,0,1,65.976,12.055Z" fill="#0077ec"/>
      <path id="Trazado_106528" data-name="Trazado 106528" d="M10.021,23.787a.994.994,0,0,0,1.146-.817,1,1,0,0,0-.817-1.146,9.943,9.943,0,0,1-5.771-3.162,7.484,7.484,0,0,1,4-6.034,6.727,6.727,0,0,0,6.869,0,7.453,7.453,0,0,1,1.806,1.315.995.995,0,0,0,1.4-1.415,9.489,9.489,0,0,0-1.574-1.253A6.733,6.733,0,0,0,18.2,4.141c.111.087.22.176.328.269a9.991,9.991,0,0,1,3.346,6,.995.995,0,0,0,1.965-.31A11.977,11.977,0,1,0,10.021,23.787ZM7.254,6.825a4.758,4.758,0,1,1,4.758,4.758A4.763,4.763,0,0,1,7.254,6.825ZM5.82,4.148a6.729,6.729,0,0,0,1.128,7.128,9.493,9.493,0,0,0-3.923,5.075,10,10,0,0,1,2.8-12.2Z" fill="#0077ec"/>
      <path id="Trazado_106529" data-name="Trazado 106529" d="M58.03,44.372a.995.995,0,0,0-.458,1.933l.024.01a4.758,4.758,0,1,1-5.52,7.184.995.995,0,0,0-1.635,1.134,6.77,6.77,0,0,0,.48.611,9.494,9.494,0,0,0-3.933,5.113,9.963,9.963,0,0,1-.818-2.513.995.995,0,0,0-1.957.361A11.965,11.965,0,1,0,58.03,44.372ZM55.988,66.01a9.979,9.979,0,0,1-7.438-3.322,7.483,7.483,0,0,1,4-6.092,6.728,6.728,0,0,0,6.871,0,7.483,7.483,0,0,1,4,6.084A9.964,9.964,0,0,1,55.988,66.01Zm9-5.657a9.494,9.494,0,0,0-3.934-5.11A6.718,6.718,0,0,0,62.3,48.426a9.746,9.746,0,0,1,3.672,7.6,9.929,9.929,0,0,1-.989,4.331Z" fill="#0077ec"/>
      <path id="Trazado_106530" data-name="Trazado 106530" d="M22.988,57.06a1,1,0,0,0-1.16.8,9.956,9.956,0,0,1-.816,2.5,9.5,9.5,0,0,0-3.935-5.112,6.758,6.758,0,0,0,.466-.591.995.995,0,0,0-1.631-1.14,4.757,4.757,0,1,1-5.525-7.194l.024-.01a.994.994,0,0,0-.474-1.928A11.905,11.905,0,1,0,23.785,58.22a1,1,0,0,0-.8-1.16ZM5.694,48.435a6.716,6.716,0,0,0,1.253,6.808,9.494,9.494,0,0,0-3.933,5.111,9.928,9.928,0,0,1-.989-4.331A9.742,9.742,0,0,1,5.694,48.435ZM12.012,66.01a9.964,9.964,0,0,1-7.437-3.33,7.483,7.483,0,0,1,4-6.084,6.727,6.727,0,0,0,6.871,0,7.483,7.483,0,0,1,4,6.091A9.981,9.981,0,0,1,12.012,66.01Z" fill="#0077ec"/>
    </g>
  </g>
</svg>
