<svg xmlns="http://www.w3.org/2000/svg" xmlns:xlink="http://www.w3.org/1999/xlink" width="68" height="68" viewBox="0 0 68 68">
  <defs>
    <clipPath id="clip-path">
      <rect id="Rectángulo_5441" data-name="Rectángulo 5441" width="68" height="68" transform="translate(302 1394)" fill="#ffd947" stroke="#707070" stroke-width="1"/>
    </clipPath>
  </defs>
  <g id="Enmascarar_grupo_73" data-name="Enmascarar grupo 73" transform="translate(-302 -1394)" clip-path="url(#clip-path)">
    <g id="red" transform="translate(302 1394)">
      <g id="Grupo_57802" data-name="Grupo 57802">
        <g id="Grupo_57790" data-name="Grupo 57790">
          <path id="Trazado_106495" data-name="Trazado 106495" d="M11.918,45.2a10.982,10.982,0,0,0-8.45,18L17.8,62.415c-.029.486-.05.88-.05.88l2.621-.1.707-.956a10.981,10.981,0,0,0-9.16-17.04Z" fill="#62dbfb"/>
          <path id="Trazado_106496" data-name="Trazado 106496" d="M56.08,1a10.982,10.982,0,0,0-8.45,18l14.026-.761-.09.986,2.967-.225.707-.956A10.981,10.981,0,0,0,56.08,1Z" fill="#62dbfb"/>
          <path id="Trazado_106497" data-name="Trazado 106497" d="M21.171,18.113a10.982,10.982,0,1,0-17.61.956Z" fill="#62dbfb"/>
        </g>
        <g id="Grupo_57792" data-name="Grupo 57792">
          <g id="Grupo_57791" data-name="Grupo 57791">
            <path id="Trazado_106498" data-name="Trazado 106498" d="M20.464,19.069a10.983,10.983,0,0,1-16.9,0,8.453,8.453,0,0,1,5.09-7.577l2.6-1.2h1.889l2.238,1.2A8.454,8.454,0,0,1,20.464,19.069Z" fill="#f9f7f8"/>
          </g>
        </g>
        <path id="Trazado_106499" data-name="Trazado 106499" d="M17.194,12.572a8.457,8.457,0,0,0-1.821-1.08l-.4-.212H13.424v-.833l-.288-.154H11.247l-2.6,1.2a8.453,8.453,0,0,0-5.09,7.577,11.036,11.036,0,0,0,2.257,2.056c-.046-.053,1.172-5.117,3.1-6.63a1.146,1.146,0,0,1,1.014-.214,7.726,7.726,0,0,0,7.263-1.709Z" fill="#efedef"/>
        <circle id="Elipse_4232" data-name="Elipse 4232" cx="5.753" cy="5.753" r="5.753" transform="translate(6.26 1.072)" fill="#f9f7f8"/>
        <path id="Trazado_106500" data-name="Trazado 106500" d="M9.317,6.825a5.754,5.754,0,0,1,4.224-5.546,5.753,5.753,0,1,0,0,11.091A5.754,5.754,0,0,1,9.317,6.825Z" fill="#efedef"/>
        <g id="Grupo_57794" data-name="Grupo 57794">
          <g id="Grupo_57793" data-name="Grupo 57793">
            <path id="Trazado_106501" data-name="Trazado 106501" d="M20.371,63.192a10.983,10.983,0,0,1-16.9,0,8.453,8.453,0,0,1,5.09-7.577l2.6-1.2h1.889l2.238,1.2a8.454,8.454,0,0,1,5.091,7.577Z" fill="#f9f7f8"/>
          </g>
        </g>
        <path id="Trazado_106502" data-name="Trazado 106502" d="M17.1,56.7a8.457,8.457,0,0,0-1.821-1.08l-.4-.212H13.33v-.833l-.288-.154H11.153l-2.6,1.2a8.453,8.453,0,0,0-5.09,7.577,11.036,11.036,0,0,0,2.257,2.056c-.046-.053,1.172-5.117,3.1-6.63A1.146,1.146,0,0,1,9.837,58.4,7.726,7.726,0,0,0,17.1,56.7Z" fill="#efedef"/>
        <circle id="Elipse_4233" data-name="Elipse 4233" cx="5.753" cy="5.753" r="5.753" transform="translate(6.166 45.196)" fill="#f9f7f8"/>
        <path id="Trazado_106503" data-name="Trazado 106503" d="M9.223,50.948A5.754,5.754,0,0,1,13.447,45.4a5.753,5.753,0,1,0,0,11.091A5.754,5.754,0,0,1,9.223,50.948Z" fill="#efedef"/>
        <path id="Trazado_106504" data-name="Trazado 106504" d="M55.987,45.391a10.982,10.982,0,0,0-8.45,18l14.333-.778c-.029.486-.05.88-.05.88l2.621-.1.707-.956a10.981,10.981,0,0,0-9.16-17.04Z" fill="#62dbfb"/>
        <g id="Grupo_57796" data-name="Grupo 57796">
          <g id="Grupo_57795" data-name="Grupo 57795">
            <path id="Trazado_106505" data-name="Trazado 106505" d="M64.441,63.387a10.983,10.983,0,0,1-16.9,0,8.453,8.453,0,0,1,5.09-7.577l2.6-1.2h1.889l2.238,1.2a8.454,8.454,0,0,1,5.091,7.577Z" fill="#f9f7f8"/>
          </g>
        </g>
        <path id="Trazado_106506" data-name="Trazado 106506" d="M61.17,56.89a8.457,8.457,0,0,0-1.821-1.08l-.4-.212H57.4v-.833l-.288-.154H55.223l-2.6,1.2a8.453,8.453,0,0,0-5.09,7.577,11.036,11.036,0,0,0,2.257,2.056c-.046-.053,1.172-5.117,3.1-6.63a1.146,1.146,0,0,1,1.014-.214A7.726,7.726,0,0,0,61.17,56.89Z" fill="#efedef"/>
        <circle id="Elipse_4234" data-name="Elipse 4234" cx="5.753" cy="5.753" r="5.753" transform="translate(50.236 45.39)" fill="#f9f7f8"/>
        <path id="Trazado_106507" data-name="Trazado 106507" d="M53.293,51.143A5.754,5.754,0,0,1,57.517,45.6a5.753,5.753,0,1,0,0,11.091A5.754,5.754,0,0,1,53.293,51.143Z" fill="#efedef"/>
        <g id="Grupo_57798" data-name="Grupo 57798">
          <g id="Grupo_57797" data-name="Grupo 57797">
            <path id="Trazado_106508" data-name="Trazado 106508" d="M64.533,18.991a10.983,10.983,0,0,1-16.9,0,8.453,8.453,0,0,1,5.09-7.577l2.6-1.2H57.2l2.238,1.2A8.454,8.454,0,0,1,64.533,18.991Z" fill="#f9f7f8"/>
          </g>
        </g>
        <path id="Trazado_106509" data-name="Trazado 106509" d="M61.263,12.494a8.457,8.457,0,0,0-1.821-1.08l-.4-.212H57.493V10.37l-.288-.154H55.316l-2.6,1.2a8.453,8.453,0,0,0-5.09,7.577,11.036,11.036,0,0,0,2.257,2.056c-.046-.053,1.172-5.117,3.1-6.63A1.146,1.146,0,0,1,54,14.2a7.726,7.726,0,0,0,7.263-1.709Z" fill="#efedef"/>
        <circle id="Elipse_4235" data-name="Elipse 4235" cx="5.753" cy="5.753" r="5.753" transform="translate(50.329 0.995)" fill="#f9f7f8"/>
        <path id="Trazado_106510" data-name="Trazado 106510" d="M53.386,6.747A5.754,5.754,0,0,1,57.61,1.2a5.753,5.753,0,1,0,0,11.091,5.754,5.754,0,0,1-4.224-5.546Z" fill="#efedef"/>
        <circle id="Elipse_4236" data-name="Elipse 4236" cx="22.39" cy="22.39" r="22.39" transform="translate(11.593 11.768)" fill="#99e6fc"/>
        <g id="XMLID_142_">
          <g id="Grupo_57799" data-name="Grupo 57799">
            <circle id="Elipse_4237" data-name="Elipse 4237" cx="17.084" cy="17.084" r="17.084" transform="translate(16.9 17.074)" fill="#f2fbff"/>
          </g>
        </g>
        <g id="XMLID_143_">
          <g id="Grupo_57801" data-name="Grupo 57801">
            <g id="XMLID_157_">
              <g id="Grupo_57800" data-name="Grupo 57800">
                <path id="Trazado_106511" data-name="Trazado 106511" d="M44.213,47.642l.1.125a17.087,17.087,0,0,1-20.661,0l.1-.125a11.927,11.927,0,0,1,6.85-4.108h6.757a11.92,11.92,0,0,1,6.85,4.108Z" fill="#f37c7c"/>
              </g>
            </g>
            <path id="Trazado_106512" data-name="Trazado 106512" d="M33.294,43.533H30.605a11.927,11.927,0,0,0-6.85,4.108l-.1.125a16.992,16.992,0,0,0,2.871,1.767l.028-.035a11.925,11.925,0,0,1,6.741-4.084V43.533Z" fill="#ee6161"/>
            <path id="Trazado_106513" data-name="Trazado 106513" d="M37.363,43.532a3.379,3.379,0,1,1-6.757,0V35.467h6.881Z" fill="#fed2a4"/>
            <path id="Trazado_106514" data-name="Trazado 106514" d="M41.468,22.393a.413.413,0,0,0-.669-.322l-1.236.968H31.826a5.375,5.375,0,0,0-5.375,5.375v1.377l.678,2.477H40.165l1.352-2.477Z" fill="#aa9ea9"/>
            <path id="Trazado_106515" data-name="Trazado 106515" d="M29.486,31.113V29.736a5.375,5.375,0,0,1,5.375-5.375h6.62l-.013-1.967a.413.413,0,0,0-.669-.322l-1.236.968H31.826a5.375,5.375,0,0,0-5.375,5.375v1.377l.678,2.477H29.8Z" fill="#9b8e99"/>
            <path id="Trazado_106516" data-name="Trazado 106516" d="M33.984,43.133a9.472,9.472,0,0,0,3.394-.628l.054-3.537H32.455v-3.5h-1.85v7.99a3.385,3.385,0,0,0,4.309,3.325,3.385,3.385,0,0,1-2.459-3.25V43.52a.449.449,0,0,1,.5-.444A9.378,9.378,0,0,0,33.984,43.133Z" fill="#ffbd86"/>
            <path id="Trazado_106517" data-name="Trazado 106517" d="M41.517,29.791V33.61a7.533,7.533,0,0,1-15.066,0V29.791Z" fill="#ffe5c2"/>
            <path id="Trazado_106518" data-name="Trazado 106518" d="M29.482,33.61V29.791H26.451V33.61A7.54,7.54,0,0,0,35.5,40.991a7.536,7.536,0,0,1-6.018-7.381Z" fill="#fed2a4"/>
          </g>
        </g>
      </g>
      <g id="Grupo_57803" data-name="Grupo 57803">
        <path id="Trazado_106519" data-name="Trazado 106519" d="M57.369,34.158a23.274,23.274,0,0,0-6.518-16.2.995.995,0,1,0-1.435,1.378,21.366,21.366,0,1,1-3.079-2.652.995.995,0,0,0,1.15-1.623,23.386,23.386,0,1,0,9.882,19.094Z"/>
        <path id="Trazado_106520" data-name="Trazado 106520" d="M23.534,46.391a16.188,16.188,0,0,1-1.842-1.853.995.995,0,0,0-1.52,1.285,18.009,18.009,0,1,0-2.495-3.85.995.995,0,0,0,1.794-.861,15.941,15.941,0,0,1-1.576-6.953A16.089,16.089,0,1,1,44.429,46.386a12.978,12.978,0,0,0-6.071-3.638V40.933a8.606,8.606,0,0,0,1.824-1.468A.995.995,0,1,0,38.735,38.1a6.478,6.478,0,0,1-4.751,2.05,6.546,6.546,0,0,1-6.539-6.539V30.786H40.522V33.61a6.613,6.613,0,0,1-.108,1.178.995.995,0,1,0,1.958.356,8.59,8.59,0,0,0,.14-1.534V29.792s0,0,0,0,0,0,0,0l-.049-7.4a1.409,1.409,0,0,0-2.277-1.1l-.967.757H31.826a6.377,6.377,0,0,0-6.37,6.37v5.2a8.531,8.531,0,0,0,4.155,7.318v1.82a12.977,12.977,0,0,0-6.076,3.643Zm8.292-22.356h7.737a1,1,0,0,0,.614-.212l.3-.239.034,5.213H27.445v-.382a4.386,4.386,0,0,1,4.381-4.381Zm11,23.555a16.069,16.069,0,0,1-17.7,0,10.987,10.987,0,0,1,4.655-2.829,4.373,4.373,0,0,0,8.391,0,10.989,10.989,0,0,1,4.651,2.825Zm-8.847-5.451a8.571,8.571,0,0,0,2.384-.337v1.731a2.384,2.384,0,1,1-4.768,0V41.8a8.5,8.5,0,0,0,2.384.342Z"/>
        <path id="Trazado_106521" data-name="Trazado 106521" d="M44.991,11.255a1,1,0,0,0,1.142-.822A9.994,9.994,0,0,1,49.49,4.471c.084-.072.171-.142.257-.211a6.733,6.733,0,0,0,1.176,7.015,9.472,9.472,0,0,0-1.589,1.269.995.995,0,1,0,1.4,1.412,7.457,7.457,0,0,1,1.818-1.327,6.727,6.727,0,0,0,6.869,0,7.483,7.483,0,0,1,4,6.1A9.944,9.944,0,0,1,57.654,21.9a.995.995,0,0,0,.164,1.976,1.008,1.008,0,0,0,.166-.014A11.976,11.976,0,1,0,44.169,10.113a1,1,0,0,0,.822,1.142Zm6.239-4.43a4.758,4.758,0,1,1,4.758,4.758A4.763,4.763,0,0,1,51.23,6.825Zm14.746,5.23a10,10,0,0,1-.985,4.342,9.495,9.495,0,0,0-3.938-5.122,6.732,6.732,0,0,0,1.178-7.009A9.972,9.972,0,0,1,65.976,12.055Z"/>
        <path id="Trazado_106522" data-name="Trazado 106522" d="M10.021,23.787a.994.994,0,0,0,1.146-.817,1,1,0,0,0-.817-1.146,9.943,9.943,0,0,1-5.771-3.162,7.484,7.484,0,0,1,4-6.034,6.727,6.727,0,0,0,6.869,0,7.453,7.453,0,0,1,1.806,1.315.995.995,0,0,0,1.4-1.415,9.489,9.489,0,0,0-1.574-1.253A6.733,6.733,0,0,0,18.2,4.141c.111.087.22.176.328.269a9.991,9.991,0,0,1,3.346,6,.995.995,0,0,0,1.965-.31A11.977,11.977,0,1,0,10.021,23.787ZM7.254,6.825a4.758,4.758,0,1,1,4.758,4.758A4.763,4.763,0,0,1,7.254,6.825ZM5.82,4.148a6.729,6.729,0,0,0,1.128,7.128,9.493,9.493,0,0,0-3.923,5.075,10,10,0,0,1,2.8-12.2Z"/>
        <path id="Trazado_106523" data-name="Trazado 106523" d="M58.03,44.372a.995.995,0,0,0-.458,1.933l.024.01a4.758,4.758,0,1,1-5.52,7.184.995.995,0,0,0-1.635,1.134,6.77,6.77,0,0,0,.48.611,9.494,9.494,0,0,0-3.933,5.113,9.963,9.963,0,0,1-.818-2.513.995.995,0,0,0-1.957.361A11.965,11.965,0,1,0,58.03,44.372ZM55.988,66.01a9.979,9.979,0,0,1-7.438-3.322,7.483,7.483,0,0,1,4-6.092,6.728,6.728,0,0,0,6.871,0,7.483,7.483,0,0,1,4,6.084A9.964,9.964,0,0,1,55.988,66.01Zm9-5.657a9.494,9.494,0,0,0-3.934-5.11A6.718,6.718,0,0,0,62.3,48.426a9.746,9.746,0,0,1,3.672,7.6,9.929,9.929,0,0,1-.989,4.331Z"/>
        <path id="Trazado_106524" data-name="Trazado 106524" d="M22.988,57.06a1,1,0,0,0-1.16.8,9.956,9.956,0,0,1-.816,2.5,9.5,9.5,0,0,0-3.935-5.112,6.758,6.758,0,0,0,.466-.591.995.995,0,0,0-1.631-1.14,4.757,4.757,0,1,1-5.525-7.194l.024-.01a.994.994,0,0,0-.474-1.928A11.905,11.905,0,1,0,23.785,58.22a1,1,0,0,0-.8-1.16ZM5.694,48.435a6.716,6.716,0,0,0,1.253,6.808,9.494,9.494,0,0,0-3.933,5.111,9.928,9.928,0,0,1-.989-4.331A9.742,9.742,0,0,1,5.694,48.435ZM12.012,66.01a9.964,9.964,0,0,1-7.437-3.33,7.483,7.483,0,0,1,4-6.084,6.727,6.727,0,0,0,6.871,0,7.483,7.483,0,0,1,4,6.091A9.981,9.981,0,0,1,12.012,66.01Z"/>
      </g>
    </g>
  </g>
</svg>
