<svg xmlns="http://www.w3.org/2000/svg" xmlns:xlink="http://www.w3.org/1999/xlink" width="68" height="68" viewBox="0 0 68 68">
  <defs>
    <clipPath id="clip-path">
      <rect id="Rectángulo_5442" data-name="Rectángulo 5442" width="68" height="68" transform="translate(612 1394)" fill="#0077ec" stroke="#707070" stroke-width="1"/>
    </clipPath>
  </defs>
  <g id="Enmascarar_grupo_78" data-name="Enmascarar grupo 78" transform="translate(-612 -1394)" clip-path="url(#clip-path)">
    <g id="medios-de-comunicacion-social_1_" data-name="medios-de-comunicacion-social (1)" transform="translate(610.903 1392.903)">
      <path id="Trazado_106556" data-name="Trazado 106556" d="M29.613,14.7v-.172A6.987,6.987,0,0,0,27.552,9.55a6.393,6.393,0,0,0-8.907-.129,6.393,6.393,0,0,0-8.907.129,6.987,6.987,0,0,0-2.061,4.974V14.7a7.453,7.453,0,0,0,2.5,5.566l8.468,7.528,8.467-7.527a7.451,7.451,0,0,0,2.5-5.567ZM18.645,24.855l-7.011-6.232A5.257,5.257,0,0,1,9.871,14.7v-.172A4.808,4.808,0,0,1,11.289,11.1a4.2,4.2,0,0,1,5.938,0l1.418,1.418L20.063,11.1A4.3,4.3,0,0,1,26,11.1a4.808,4.808,0,0,1,1.418,3.423V14.7a5.259,5.259,0,0,1-1.764,3.928Z" fill="#0077ec"/>
      <path id="Trazado_106557" data-name="Trazado 106557" d="M65.806,9.871H36.194V4.387A3.294,3.294,0,0,0,32.9,1.1H4.387A3.294,3.294,0,0,0,1.1,4.387V28.516a3.294,3.294,0,0,0,3.29,3.29h9.358L15.573,34H6.581a3.294,3.294,0,0,0-3.29,3.29V59.226a3.294,3.294,0,0,0,3.29,3.29H18.132l4.707,5.648a2.59,2.59,0,0,0,4.58-1.658v-3.99H39.484a3.294,3.294,0,0,0,3.29-3.29V40.581h2.194v3.99a2.59,2.59,0,0,0,4.58,1.658l4.707-5.648H65.806a3.294,3.294,0,0,0,3.29-3.29V13.161a3.294,3.294,0,0,0-3.29-3.29ZM4.387,29.613a1.1,1.1,0,0,1-1.1-1.1V4.387a1.1,1.1,0,0,1,1.1-1.1H32.9a1.1,1.1,0,0,1,1.1,1.1V28.516a1.1,1.1,0,0,1-1.1,1.1H20.839V35.8a.411.411,0,0,1-.7.253l-5.365-6.437ZM29.613,34H23.032V31.806h6.581ZM40.581,59.226a1.1,1.1,0,0,1-1.1,1.1H25.226v6.184a.411.411,0,0,1-.7.253l-5.365-6.437H6.581a1.1,1.1,0,0,1-1.1-1.1V37.29a1.1,1.1,0,0,1,1.1-1.1H17.4l1.052,1.261a2.583,2.583,0,0,0,4.54-1.261h6.621v1.1a3.294,3.294,0,0,0,3.29,3.29h7.677ZM66.9,37.29a1.1,1.1,0,0,1-1.1,1.1H53.229l-5.365,6.437a.411.411,0,0,1-.7-.253V38.387H32.9a1.1,1.1,0,0,1-1.1-1.1V31.806h1.1a3.294,3.294,0,0,0,3.29-3.29V12.065H65.806a1.1,1.1,0,0,1,1.1,1.1Z" fill="#0077ec"/>
      <path id="Trazado_106558" data-name="Trazado 106558" d="M27.419,47.161a4.344,4.344,0,0,0,.406,1.817,7.237,7.237,0,0,0-1.568-1.061,4.387,4.387,0,1,0-6.449,0,7.237,7.237,0,0,0-1.568,1.061,4.344,4.344,0,0,0,.406-1.817,4.387,4.387,0,1,0-7.56,3.013,6.584,6.584,0,0,0-3.408,5.761v2.194H9.871V55.935a4.378,4.378,0,0,1,6.344-3.921,7.3,7.3,0,0,0-.362,1.573l-.491,4.42,2.179.242.491-4.42a5.031,5.031,0,0,1,10,0l.491,4.42,2.179-.242-.491-4.42a7.232,7.232,0,0,0-.362-1.573,4.378,4.378,0,0,1,6.344,3.921v2.194h2.194V55.935a6.584,6.584,0,0,0-3.408-5.761,4.382,4.382,0,1,0-7.56-3.013Zm-15.355,0a2.194,2.194,0,1,1,2.194,2.194A2.2,2.2,0,0,1,12.065,47.161Zm8.774-2.194a2.194,2.194,0,1,1,2.194,2.194A2.2,2.2,0,0,1,20.839,44.968ZM34,47.161a2.194,2.194,0,1,1-2.194-2.194A2.2,2.2,0,0,1,34,47.161Z" fill="#0077ec"/>
      <path id="Trazado_106559" data-name="Trazado 106559" d="M58.129,20.839h-2l.264-1.584a4.292,4.292,0,0,0-4.232-5,3.288,3.288,0,0,0-3.193,2.492,9.048,9.048,0,0,1-2.379,4.2l-.324.324a2.177,2.177,0,0,0-1.3-.438H40.581a2.2,2.2,0,0,0-2.194,2.194V34a2.2,2.2,0,0,0,2.194,2.194h4.387a2.189,2.189,0,0,0,2.063-1.476,14.1,14.1,0,0,0,6.278,1.476h4.82a4.392,4.392,0,0,0,4.387-4.387V25.226a4.392,4.392,0,0,0-4.387-4.387ZM40.581,34V23.032h4.387V34Zm19.742-2.194A2.2,2.2,0,0,1,58.129,34h-4.82a11.917,11.917,0,0,1-6.147-1.709v-8.8l.983-.983A11.243,11.243,0,0,0,51.1,17.282a1.1,1.1,0,0,1,1.064-.83A2.1,2.1,0,0,1,54.233,18.9l-.689,4.137h4.585a2.2,2.2,0,0,1,2.194,2.194Z" fill="#0077ec"/>
    </g>
  </g>
</svg>
