<svg xmlns="http://www.w3.org/2000/svg" xmlns:xlink="http://www.w3.org/1999/xlink" width="68" height="68" viewBox="0 0 68 68">
  <defs>
    <clipPath id="clip-path">
      <rect id="Rectángulo_5445" data-name="Rectángulo 5445" width="68" height="68" transform="translate(495 197)" fill="#ffd947" stroke="#707070" stroke-width="1"/>
    </clipPath>
  </defs>
  <g id="Enmascarar_grupo_77" data-name="Enmascarar grupo 77" transform="translate(-495 -197)" clip-path="url(#clip-path)">
    <g id="medios-de-comunicacion-social" transform="translate(493.903 195.903)">
      <g id="Grupo_57816" data-name="Grupo 57816">
        <g id="Grupo_57804" data-name="Grupo 57804">
          <path id="Trazado_106543" data-name="Trazado 106543" d="M26.323,61.419v5.089a1.5,1.5,0,0,1-2.643.954l-5.034-6.043H6.581a2.2,2.2,0,0,1-2.194-2.194V37.29A2.2,2.2,0,0,1,6.581,35.1H17.91l1.382,1.656a1.5,1.5,0,0,0,2.643-.954v-.7H30.71V37.29A2.2,2.2,0,0,0,32.9,39.484h8.774V59.226a2.2,2.2,0,0,1-2.194,2.194Z" fill="#e6e9ed"/>
        </g>
        <g id="Grupo_57805" data-name="Grupo 57805">
          <path id="Trazado_106544" data-name="Trazado 106544" d="M32.9,30.71A2.2,2.2,0,0,0,35.1,28.516V10.968h30.71A2.2,2.2,0,0,1,68,13.161V37.29a2.2,2.2,0,0,1-2.194,2.194H53.742l-5.034,6.043a1.5,1.5,0,0,1-2.643-.954V39.484H32.9A2.2,2.2,0,0,1,30.71,37.29V30.71Z" fill="#ffeaa7"/>
        </g>
        <g id="Grupo_57806" data-name="Grupo 57806">
          <path id="Trazado_106545" data-name="Trazado 106545" d="M35.1,10.968V28.516A2.2,2.2,0,0,1,32.9,30.71H21.935V35.8a1.5,1.5,0,0,1-2.643.954L17.91,35.1,14.258,30.71H4.387a2.2,2.2,0,0,1-2.194-2.194V4.387A2.2,2.2,0,0,1,4.387,2.194H32.9A2.2,2.2,0,0,1,35.1,4.387Z" fill="#f0d0b4"/>
        </g>
        <g id="Grupo_57807" data-name="Grupo 57807">
          <path id="Trazado_106546" data-name="Trazado 106546" d="M17.581,51.581a6.07,6.07,0,0,0-.636,2.128l-.494,4.42H8.774V55.935a5.486,5.486,0,0,1,5.484-5.484,5.4,5.4,0,0,1,3.323,1.13Z" fill="#b4dd7f"/>
        </g>
        <g id="Grupo_57808" data-name="Grupo 57808">
          <path id="Trazado_106547" data-name="Trazado 106547" d="M37.29,55.935v2.194H29.613l-.494-4.42a6.07,6.07,0,0,0-.636-2.128,5.4,5.4,0,0,1,3.323-1.13,5.467,5.467,0,0,1,5.484,5.484Z" fill="#b4dd7f"/>
        </g>
        <g id="Grupo_57809" data-name="Grupo 57809">
          <path id="Trazado_106548" data-name="Trazado 106548" d="M29.119,53.709l.494,4.42H16.452l.494-4.42a6.107,6.107,0,0,1,6.087-5.451,6.169,6.169,0,0,1,4.091,1.557,6.5,6.5,0,0,1,1.36,1.766A6.07,6.07,0,0,1,29.119,53.709Z" fill="#fcd770"/>
        </g>
        <g id="Grupo_57810" data-name="Grupo 57810">
          <circle id="Elipse_4238" data-name="Elipse 4238" cx="3.29" cy="3.29" r="3.29" transform="translate(28.516 43.871)" fill="#f0d0b4"/>
        </g>
        <g id="Grupo_57811" data-name="Grupo 57811">
          <circle id="Elipse_4239" data-name="Elipse 4239" cx="3.29" cy="3.29" r="3.29" transform="translate(19.742 41.677)" fill="#f0d0b4"/>
        </g>
        <g id="Grupo_57812" data-name="Grupo 57812">
          <circle id="Elipse_4240" data-name="Elipse 4240" cx="3.29" cy="3.29" r="3.29" transform="translate(10.968 43.871)" fill="#f0d0b4"/>
        </g>
        <g id="Grupo_57813" data-name="Grupo 57813">
          <path id="Trazado_106549" data-name="Trazado 106549" d="M28.516,14.521V14.7a6.386,6.386,0,0,1-2.128,4.749l-7.743,6.877L10.9,19.446A6.386,6.386,0,0,1,8.774,14.7v-.175a5.945,5.945,0,0,1,1.744-4.2,5.3,5.3,0,0,1,7.48,0l.647.647.647-.647a5.3,5.3,0,0,1,7.48,0A5.945,5.945,0,0,1,28.516,14.521Z" fill="#ff826e"/>
        </g>
        <g id="Grupo_57814" data-name="Grupo 57814">
          <path id="Trazado_106550" data-name="Trazado 106550" d="M46.065,32.9V34a1.1,1.1,0,0,1-1.1,1.1H40.581a1.1,1.1,0,0,1-1.1-1.1V23.032a1.1,1.1,0,0,1,1.1-1.1h4.387a1.1,1.1,0,0,1,1.1,1.1Z" fill="#b4dd7f"/>
        </g>
        <g id="Grupo_57815" data-name="Grupo 57815">
          <path id="Trazado_106551" data-name="Trazado 106551" d="M61.419,25.226v6.581a3.286,3.286,0,0,1-3.29,3.29H53.314a13.1,13.1,0,0,1-7.25-2.194V23.032l1.305-1.305a10.184,10.184,0,0,0,2.665-4.716,2.184,2.184,0,0,1,2.128-1.656,3.191,3.191,0,0,1,3.148,3.718l-.472,2.863h3.29a3.286,3.286,0,0,1,3.29,3.29Z" fill="#f0d0b4"/>
        </g>
      </g>
      <g id="Grupo_57817" data-name="Grupo 57817">
        <path id="Trazado_106552" data-name="Trazado 106552" d="M29.613,14.7v-.172A6.987,6.987,0,0,0,27.552,9.55a6.393,6.393,0,0,0-8.907-.129,6.393,6.393,0,0,0-8.907.129,6.987,6.987,0,0,0-2.061,4.974V14.7a7.453,7.453,0,0,0,2.5,5.566l8.468,7.528,8.467-7.527a7.451,7.451,0,0,0,2.5-5.567ZM18.645,24.855l-7.011-6.232A5.257,5.257,0,0,1,9.871,14.7v-.172A4.808,4.808,0,0,1,11.289,11.1a4.2,4.2,0,0,1,5.938,0l1.418,1.418L20.063,11.1A4.3,4.3,0,0,1,26,11.1a4.808,4.808,0,0,1,1.418,3.423V14.7a5.259,5.259,0,0,1-1.764,3.928Z"/>
        <path id="Trazado_106553" data-name="Trazado 106553" d="M65.806,9.871H36.194V4.387A3.294,3.294,0,0,0,32.9,1.1H4.387A3.294,3.294,0,0,0,1.1,4.387V28.516a3.294,3.294,0,0,0,3.29,3.29h9.358L15.573,34H6.581a3.294,3.294,0,0,0-3.29,3.29V59.226a3.294,3.294,0,0,0,3.29,3.29H18.132l4.707,5.648a2.59,2.59,0,0,0,4.58-1.658v-3.99H39.484a3.294,3.294,0,0,0,3.29-3.29V40.581h2.194v3.99a2.59,2.59,0,0,0,4.58,1.658l4.707-5.648H65.806a3.294,3.294,0,0,0,3.29-3.29V13.161a3.294,3.294,0,0,0-3.29-3.29ZM14.771,29.613H4.387a1.1,1.1,0,0,1-1.1-1.1V4.387a1.1,1.1,0,0,1,1.1-1.1H32.9a1.1,1.1,0,0,1,1.1,1.1V28.516a1.1,1.1,0,0,1-1.1,1.1H20.839V35.8a.411.411,0,0,1-.7.253Zm14.842,2.194V34H23.032V31.806ZM40.581,59.226a1.1,1.1,0,0,1-1.1,1.1H25.226v6.184a.411.411,0,0,1-.7.253l-5.365-6.437H6.581a1.1,1.1,0,0,1-1.1-1.1V37.29a1.1,1.1,0,0,1,1.1-1.1H17.4l1.052,1.261a2.583,2.583,0,0,0,4.54-1.261h6.621v1.1a3.294,3.294,0,0,0,3.29,3.29h7.677ZM66.9,37.29a1.1,1.1,0,0,1-1.1,1.1H53.229l-5.365,6.437a.411.411,0,0,1-.7-.253V38.387H32.9a1.1,1.1,0,0,1-1.1-1.1V31.806h1.1a3.294,3.294,0,0,0,3.29-3.29V12.065H65.806a1.1,1.1,0,0,1,1.1,1.1Z"/>
        <path id="Trazado_106554" data-name="Trazado 106554" d="M27.419,47.161a4.344,4.344,0,0,0,.406,1.817,7.237,7.237,0,0,0-1.568-1.061,4.387,4.387,0,1,0-6.449,0,7.237,7.237,0,0,0-1.568,1.061,4.344,4.344,0,0,0,.406-1.817,4.387,4.387,0,1,0-7.56,3.013,6.584,6.584,0,0,0-3.408,5.761v2.194H9.871V55.935a4.378,4.378,0,0,1,6.344-3.921,7.3,7.3,0,0,0-.362,1.573l-.491,4.42,2.179.242.491-4.42a5.031,5.031,0,0,1,10,0l.491,4.42,2.179-.242-.491-4.42a7.232,7.232,0,0,0-.362-1.573,4.378,4.378,0,0,1,6.344,3.921v2.194h2.194V55.935a6.584,6.584,0,0,0-3.408-5.761,4.382,4.382,0,1,0-7.56-3.013ZM14.258,49.355a2.194,2.194,0,1,1,2.194-2.194A2.2,2.2,0,0,1,14.258,49.355Zm8.774-2.194a2.194,2.194,0,1,1,2.194-2.194A2.2,2.2,0,0,1,23.032,47.161Zm10.968,0a2.194,2.194,0,1,1-2.194-2.194A2.2,2.2,0,0,1,34,47.161Z"/>
        <path id="Trazado_106555" data-name="Trazado 106555" d="M58.129,20.839h-2l.264-1.584a4.292,4.292,0,0,0-4.232-5,3.288,3.288,0,0,0-3.193,2.492,9.048,9.048,0,0,1-2.379,4.2l-.324.324a2.177,2.177,0,0,0-1.3-.438H40.581a2.2,2.2,0,0,0-2.194,2.194V34a2.2,2.2,0,0,0,2.194,2.194h4.387a2.189,2.189,0,0,0,2.063-1.476,14.1,14.1,0,0,0,6.278,1.476h4.82a4.392,4.392,0,0,0,4.387-4.387V25.226a4.392,4.392,0,0,0-4.387-4.387ZM40.581,34V23.032h4.387V34Zm19.742-2.194A2.2,2.2,0,0,1,58.129,34h-4.82a11.917,11.917,0,0,1-6.147-1.709v-8.8l.983-.983A11.243,11.243,0,0,0,51.1,17.282a1.1,1.1,0,0,1,1.064-.83A2.1,2.1,0,0,1,54.233,18.9l-.689,4.137h4.585a2.2,2.2,0,0,1,2.194,2.194Z"/>
      </g>
    </g>
  </g>
</svg>
