<svg xmlns="http://www.w3.org/2000/svg" xmlns:xlink="http://www.w3.org/1999/xlink" width="68" height="68" viewBox="0 0 68 68">
  <defs>
    <clipPath id="clip-path">
      <rect id="Rectángulo_5451" data-name="Rectángulo 5451" width="68" height="68" transform="translate(805 733)" fill="#ffd947" stroke="#707070" stroke-width="1"/>
    </clipPath>
  </defs>
  <g id="Enmascarar_grupo_81" data-name="Enmascarar grupo 81" transform="translate(-805 -733)" clip-path="url(#clip-path)">
    <g id="red-social" transform="translate(805 733)">
      <g id="Grupo_57821" data-name="Grupo 57821">
        <g id="Grupo_57820" data-name="Grupo 57820">
          <g id="XMLID_404_">
            <g id="Grupo_57819" data-name="Grupo 57819">
              <g id="Grupo_57818" data-name="Grupo 57818">
                <path id="Trazado_106568" data-name="Trazado 106568" d="M54.181,23.821V44.812a2.14,2.14,0,0,1-1.07,1.854l-18.179,10.5a2.137,2.137,0,0,1-2.14,0l-18.179-10.5a2.14,2.14,0,0,1-1.07-1.854V23.821a2.14,2.14,0,0,1,1.07-1.854l18.179-10.5a2.137,2.137,0,0,1,2.14,0l18.179,10.5a2.14,2.14,0,0,1,1.07,1.854Z" fill="#fff8e1"/>
              </g>
            </g>
          </g>
          <circle id="Elipse_4241" data-name="Elipse 4241" cx="2.763" cy="2.763" r="2.763" transform="translate(31.098 1.001)" fill="#b0e7c9"/>
          <circle id="Elipse_4242" data-name="Elipse 4242" cx="2.763" cy="2.763" r="2.763" transform="translate(57.502 16.504)" fill="#f79595"/>
          <circle id="Elipse_4243" data-name="Elipse 4243" cx="2.763" cy="2.763" r="2.763" transform="translate(57.072 46.714)" fill="#fee97d"/>
          <circle id="Elipse_4244" data-name="Elipse 4244" cx="2.763" cy="2.763" r="2.763" transform="translate(31.098 61.472)" fill="#b0e7c9"/>
          <circle id="Elipse_4245" data-name="Elipse 4245" cx="2.763" cy="2.763" r="2.763" transform="translate(4.694 16.504)" fill="#fee97d"/>
          <circle id="Elipse_4246" data-name="Elipse 4246" cx="2.763" cy="2.763" r="2.763" transform="translate(5.124 46.714)" fill="#f79595"/>
          <path id="Trazado_106569" data-name="Trazado 106569" d="M20.062,27.083a2.339,2.339,0,0,1,1.169-2.025L39.848,14.31l-4.916-2.838a2.137,2.137,0,0,0-2.14,0l-18.179,10.5a2.14,2.14,0,0,0-1.07,1.854V44.812a2.14,2.14,0,0,0,1.07,1.854l5.45,3.147Z" fill="#fff5c6"/>
          <path id="Trazado_106570" data-name="Trazado 106570" d="M49.831,24.7,34.208,15.677a.694.694,0,0,0-.694,0L17.892,24.7a.694.694,0,0,0-.347.6V43.336a.694.694,0,0,0,.347.6L25.966,48.6s1.277-.9,1.379-.934,12.039-.372,12.174-.338,2.128,1.335,2.128,1.335l8.184-4.725a.694.694,0,0,0,.347-.6V25.3a.694.694,0,0,0-.347-.6Z" fill="#c8effe"/>
          <path id="Trazado_106571" data-name="Trazado 106571" d="M20.062,45.19l-2.17-1.253a.694.694,0,0,1-.347-.6V25.3a.694.694,0,0,1,.347-.6l15.623-9.019a.694.694,0,0,1,.694,0l1.636.944-13.485,7.9a4.7,4.7,0,0,0-2.322,4.059Z" fill="#99e6fc"/>
          <path id="Trazado_106572" data-name="Trazado 106572" d="M41.648,48.661l-.029-3.825a9.721,9.721,0,0,0-2.372-6.362A7.92,7.92,0,1,0,28.4,38.4a9.72,9.72,0,0,0-2.433,6.431L25.966,48.6l7.728,4.459a.328.328,0,0,0,.335,0Z" fill="#f7f6f7"/>
          <path id="Trazado_106573" data-name="Trazado 106573" d="M25.966,48.6l3.84,2.216,0-5.978a9.718,9.718,0,0,1,1.83-5.675,1.2,1.2,0,0,0-.057-1.465,7.919,7.919,0,0,1,4.2-12.712,7.8,7.8,0,0,0-1.544-.226A7.918,7.918,0,0,0,28.4,38.4a9.72,9.72,0,0,0-2.433,6.431Z" fill="#eeeced"/>
        </g>
      </g>
      <g id="Grupo_57822" data-name="Grupo 57822">
        <path id="Trazado_106574" data-name="Trazado 106574" d="M33.361,54.023a1,1,0,0,0,1,0L50.678,44.6a1,1,0,0,0,.5-.867V24.9a1,1,0,0,0-.5-.867L34.362,14.61a1,1,0,0,0-1,0L17.045,24.03a1,1,0,0,0-.5.867v18.84a1,1,0,0,0,.5.867ZM18.546,25.474l15.315-8.842,15.315,8.842V43.159l-6.558,3.786V44.836a10.724,10.724,0,0,0-2.044-6.3,8.9,8.9,0,0,0,2.076-7.387,1,1,0,1,0-1.973.338,6.9,6.9,0,0,1-2.113,6.25,1,1,0,0,0-.076,1.389,8.721,8.721,0,0,1,2.127,5.707V48.1L33.862,52l-6.889-3.977V44.836a8.714,8.714,0,0,1,2.182-5.769,1,1,0,0,0-.061-1.387,6.857,6.857,0,0,1-2.151-5.011,6.917,6.917,0,0,1,12.128-4.551A1,1,0,0,0,40.578,26.8a8.919,8.919,0,0,0-15.636,5.868,8.826,8.826,0,0,0,2.134,5.789,10.712,10.712,0,0,0-2.1,6.379v2.032l-6.424-3.709V25.474Z"/>
        <path id="Trazado_106575" data-name="Trazado 106575" d="M61.762,46.244h0a3.771,3.771,0,0,0-4.531.517L55.1,45.494a3.122,3.122,0,0,0,.077-.681V23.82a3.121,3.121,0,0,0-.049-.543l2.451-1.368a3.742,3.742,0,0,0,1.654.979,3.741,3.741,0,0,0,2.861-.334,3.764,3.764,0,1,0-5.491-2.393l-2.433,1.357a3.115,3.115,0,0,0-.564-.419L35.432,10.6a3.115,3.115,0,0,0-.57-.256V7.392a3.764,3.764,0,1,0-2,0v2.956a3.129,3.129,0,0,0-.57.256L14.112,21.1a3.121,3.121,0,0,0-.564.419l-2.433-1.357a3.761,3.761,0,1,0-3.662,2.872,3.78,3.78,0,0,0,1.033-.145,3.742,3.742,0,0,0,1.654-.979l2.451,1.368a3.121,3.121,0,0,0-.049.543v9.461a1,1,0,0,0,2,0V23.82a1.142,1.142,0,0,1,.569-.986l18.179-10.5a1.142,1.142,0,0,1,1.139,0l18.18,10.5a1.142,1.142,0,0,1,.569.986V44.812a1.142,1.142,0,0,1-.569.986l-18.179,10.5a1.142,1.142,0,0,1-1.139,0L15.112,45.8a1.142,1.142,0,0,1-.569-.986V37.547a1,1,0,0,0-2,0v7.266a3.122,3.122,0,0,0,.077.681l-2.126,1.267a3.77,3.77,0,0,0-4.531-.517h0a3.764,3.764,0,1,0,5.557,2.235l2.135-1.272a3.117,3.117,0,0,0,.459.325l18.179,10.5a3.115,3.115,0,0,0,.57.256v2.323a3.764,3.764,0,1,0,2,0V58.285a3.12,3.12,0,0,0,.57-.256l18.179-10.5a3.108,3.108,0,0,0,.459-.325l2.135,1.272a3.768,3.768,0,0,0,3.623,4.764,3.791,3.791,0,0,0,.931-.117,3.764,3.764,0,0,0,1-6.883ZM59.407,17.729a1.762,1.762,0,1,1-.68,2.4A1.751,1.751,0,0,1,59.407,17.729ZM9,20.127a1.762,1.762,0,1,1-.68-2.4A1.764,1.764,0,0,1,9,20.127ZM32.1,3.764a1.763,1.763,0,1,1,1.763,1.763A1.765,1.765,0,0,1,32.1,3.764ZM9.6,49.91a1.763,1.763,0,1,1-2.611-1.947h0A1.763,1.763,0,0,1,9.6,49.91ZM35.624,64.236a1.763,1.763,0,1,1-1.763-1.763A1.765,1.765,0,0,1,35.624,64.236ZM61.35,50.38a1.762,1.762,0,1,1-.612-2.416h0A1.765,1.765,0,0,1,61.35,50.38Z"/>
        <path id="Trazado_106576" data-name="Trazado 106576" d="M64.038,25.126a1,1,0,0,0-1.914.585,29.55,29.55,0,0,1-.084,17.481,1,1,0,1,0,1.909.6,31.554,31.554,0,0,0,.09-18.67Z"/>
        <path id="Trazado_106577" data-name="Trazado 106577" d="M55.416,54.462a29.256,29.256,0,0,1-15.011,8.557,1,1,0,1,0,.434,1.954,31.25,31.25,0,0,0,16.035-9.139,1,1,0,1,0-1.458-1.372Z"/>
        <path id="Trazado_106578" data-name="Trazado 106578" d="M27.329,62.96A29.271,29.271,0,0,1,12.48,54.351a1,1,0,1,0-1.465,1.364A31.266,31.266,0,0,0,26.876,64.91a1,1,0,0,0,.452-1.95Z"/>
        <path id="Trazado_106579" data-name="Trazado 106579" d="M4.967,44.375a1,1,0,0,0,.956-1.3,29.564,29.564,0,0,1-.077-17.262,1,1,0,1,0-1.917-.578,31.565,31.565,0,0,0,.082,18.435A1,1,0,0,0,4.967,44.375Z"/>
        <path id="Trazado_106580" data-name="Trazado 106580" d="M11.513,14.853a1,1,0,0,0,.74-.327A29.247,29.247,0,0,1,27.383,5.66a1,1,0,1,0-.449-1.951,31.239,31.239,0,0,0-16.161,9.469,1,1,0,0,0,.74,1.675Z"/>
        <path id="Trazado_106581" data-name="Trazado 106581" d="M40.356,5.6a29.233,29.233,0,0,1,15.282,8.806,1,1,0,1,0,1.473-1.356A31.224,31.224,0,0,0,40.787,3.649,1,1,0,0,0,40.356,5.6Z"/>
      </g>
    </g>
  </g>
</svg>
