<svg xmlns="http://www.w3.org/2000/svg" xmlns:xlink="http://www.w3.org/1999/xlink" width="68" height="68" viewBox="0 0 68 68">
  <defs>
    <clipPath id="clip-path">
      <rect id="Rectángulo_5444" data-name="Rectángulo 5444" width="68" height="68" transform="translate(1240 1394)" fill="#0077ec" stroke="#707070" stroke-width="1"/>
    </clipPath>
  </defs>
  <g id="Enmascarar_grupo_88" data-name="Enmascarar grupo 88" transform="translate(-1240 -1394)" clip-path="url(#clip-path)">
    <path id="red-social_3_" data-name="red-social (3)" d="M52.645,37.29a15.267,15.267,0,0,0-10.04,3.764L28.818,27.267A16.364,16.364,0,0,0,32.9,16.452h4.443a15.355,15.355,0,1,0,0-2.194H32.74A16.443,16.443,0,1,0,14.258,32.74v4.606a15.355,15.355,0,1,0,2.194,0V32.9a16.364,16.364,0,0,0,10.815-4.086L41.054,42.605A15.336,15.336,0,1,0,52.645,37.29ZM44.968,26.023V22.9a3.285,3.285,0,0,1,2.25-3.121l4.33-1.443V15.212L51,14.9a3.255,3.255,0,0,1-1.648-2.831V9.871A3.291,3.291,0,0,1,52.971,6.6a3.421,3.421,0,0,1,2.965,3.463v2.005A3.255,3.255,0,0,1,54.287,14.9l-.545.317v3.127l4.33,1.443a3.284,3.284,0,0,1,2.25,3.121v3.119a13.069,13.069,0,0,1-15.355,0Zm7.677-23.83a13.14,13.14,0,0,1,9.871,21.838V22.9a5.476,5.476,0,0,0-3.75-5.2l-2.831-.945v-.329a5.489,5.489,0,0,0,2.194-4.364V10.06a5.63,5.63,0,0,0-4.95-5.647,5.484,5.484,0,0,0-6.018,5.459v2.194a5.488,5.488,0,0,0,2.194,4.364v.329l-2.831.944a5.478,5.478,0,0,0-3.75,5.2v1.128A13.14,13.14,0,0,1,52.645,2.194ZM7.677,63.313V60.194a3.288,3.288,0,0,1,2.25-3.122l4.33-1.442V52.5l-.545-.317a3.255,3.255,0,0,1-1.648-2.831V47.161a3.291,3.291,0,0,1,3.616-3.276,3.421,3.421,0,0,1,2.965,3.464v2.005A3.255,3.255,0,0,1,17,52.186l-.545.317V55.63l4.33,1.442a3.288,3.288,0,0,1,2.25,3.122v3.119a13.069,13.069,0,0,1-15.355,0ZM28.516,52.645a13.094,13.094,0,0,1-3.29,8.677V60.194a5.476,5.476,0,0,0-3.75-5.2l-2.831-.945v-.329a5.489,5.489,0,0,0,2.194-4.364V47.35a5.628,5.628,0,0,0-4.95-5.646,5.482,5.482,0,0,0-6.018,5.458v2.194a5.489,5.489,0,0,0,2.194,4.364v.329l-2.831.944a5.478,5.478,0,0,0-3.75,5.2v1.128a13.153,13.153,0,1,1,23.032-8.677ZM25.549,5.484H23.581a9.38,9.38,0,0,0-5.594,1.865A7.169,7.169,0,0,1,13.71,8.774h-.432A7.076,7.076,0,0,1,8.238,6.686L7.187,5.635a14.205,14.205,0,0,1,18.362-.152ZM2.194,16.452a14.246,14.246,0,0,1,.23-2.481l2.628.584a3.333,3.333,0,0,1,2.626,3.273,5.522,5.522,0,0,0,3.487,5.15l.373.149a2.585,2.585,0,0,1,.543,4.5,13.018,13.018,0,0,1-2.436,1.348,14.27,14.27,0,0,1-7.45-12.524ZM12.278,30.084c.363-.216.732-.426,1.075-.67a4.778,4.778,0,0,0-1-8.325l-.373-.148a3.336,3.336,0,0,1-2.107-3.113,5.513,5.513,0,0,0-4.343-5.414l-2.557-.568A14.256,14.256,0,0,1,5.635,7.186L6.687,8.236a9.257,9.257,0,0,0,6.591,2.731h.431A9.38,9.38,0,0,0,19.3,9.1a7.169,7.169,0,0,1,4.277-1.426h4.087a14.239,14.239,0,0,1,1.42,2.194H27.552a6.674,6.674,0,0,0-4.747,1.965,4.491,4.491,0,0,1-3.2,1.325H16.97a3.808,3.808,0,0,0-1.7,7.214,4.107,4.107,0,0,1,2.282,3.693v.673a6.3,6.3,0,0,0,1.061,3.506l1.34,2.01a14,14,0,0,1-7.672-.173Zm9.826-.548-1.67-2.5a4.134,4.134,0,0,1-.692-2.29v-.673a6.289,6.289,0,0,0-3.5-5.655,1.615,1.615,0,0,1,.723-3.059h2.64a6.676,6.676,0,0,0,4.747-1.965,4.491,4.491,0,0,1,3.2-1.325h2.46A14.228,14.228,0,0,1,22.1,29.535ZM44.968,63.313V60.194a3.288,3.288,0,0,1,2.25-3.122l4.33-1.442V52.5L51,52.186a3.255,3.255,0,0,1-1.648-2.831V47.161a3.291,3.291,0,0,1,3.616-3.276,3.421,3.421,0,0,1,2.965,3.464v2.005a3.255,3.255,0,0,1-1.648,2.831l-.545.317V55.63l4.33,1.442a3.288,3.288,0,0,1,2.25,3.122v3.119a13.068,13.068,0,0,1-15.355,0Zm17.548-1.992V60.194a5.476,5.476,0,0,0-3.75-5.2l-2.831-.945v-.329a5.489,5.489,0,0,0,2.194-4.364V47.35a5.628,5.628,0,0,0-4.95-5.646,5.482,5.482,0,0,0-6.018,5.458v2.194a5.489,5.489,0,0,0,2.194,4.364v.329l-2.831.944a5.478,5.478,0,0,0-3.75,5.2v1.128a13.161,13.161,0,1,1,19.742,0Zm0,0" transform="translate(1240 1394)" fill="#0077ec"/>
  </g>
</svg>
