<svg xmlns="http://www.w3.org/2000/svg" xmlns:xlink="http://www.w3.org/1999/xlink" width="118" height="139" viewBox="0 0 118 139">
  <defs>
    <clipPath id="clip-path">
      <rect id="Rectángulo_5226" data-name="Rectángulo 5226" width="118" height="139" transform="translate(195 2853)" fill="#ffd947" stroke="#707070" stroke-width="1"/>
    </clipPath>
  </defs>
  <g id="Enmascarar_grupo_64" data-name="Enmascarar grupo 64" transform="translate(-195 -2853)" clip-path="url(#clip-path)">
    <g id="desconectado" transform="translate(195.003 2863.52)">
      <path id="Trazado_102249" data-name="Trazado 102249" d="M100.742,28.747A36.571,36.571,0,0,0,31.014,23.3a24.381,24.381,0,1,0,10.26,41.041,36.431,36.431,0,0,0,45.491,1.625,20.317,20.317,0,1,0,13.978-37.221Zm0,0" fill="#3a9af8"/>
      <path id="Trazado_102250" data-name="Trazado 102250" d="M97.553,28.462a20.318,20.318,0,0,0-17.087,9.325,20.318,20.318,0,0,1,28.079,28.079,20.318,20.318,0,0,0-10.992-37.4Zm0,0" fill="#0077ec"/>
      <path id="Trazado_102251" data-name="Trazado 102251" d="M90.3,29.823a20,20,0,0,1,7.253-1.361,18.191,18.191,0,0,1,3.189.285A36.571,36.571,0,0,0,35.463,15.134,36.572,36.572,0,0,1,90.32,29.823Zm0,0" fill="#0077ec"/>
      <path id="Trazado_102252" data-name="Trazado 102252" d="M20.347,30.494a24.381,24.381,0,0,1,23.446,31A24.381,24.381,0,1,0,.964,40.124a24.381,24.381,0,0,1,19.383-9.63Zm0,0" fill="#0077ec"/>
      <path id="Trazado_102253" data-name="Trazado 102253" d="M95.521,69.1A36.571,36.571,0,1,1,58.95,32.525,36.572,36.572,0,0,1,95.521,69.1Zm0,0" fill="#ffd947"/>
      <path id="Trazado_102254" data-name="Trazado 102254" d="M65.045,93.477A36.572,36.572,0,0,1,29.876,46.971,36.571,36.571,0,1,0,94.119,79.032,36.572,36.572,0,0,1,65.045,93.477Zm0,0" fill="#fcbc04"/>
      <path id="Trazado_102255" data-name="Trazado 102255" d="M69.109,53.289,58.95,63.448,48.892,53.289a4.066,4.066,0,1,0-5.75,5.75L53.3,69.2,43.142,79.356a4.066,4.066,0,0,0,5.75,5.75L58.95,74.948,69.109,85.106a4.066,4.066,0,1,0,5.648-5.851L64.6,69.1,74.756,58.938a4.064,4.064,0,0,0-5.648-5.649Zm0,0" fill="#03e6b0"/>
      <path id="Trazado_102256" data-name="Trazado 102256" d="M24.411,105.668a12.19,12.19,0,1,1-12.19-12.19A12.191,12.191,0,0,1,24.411,105.668Zm0,0" fill="#004080"/>
      <path id="Trazado_102257" data-name="Trazado 102257" d="M16.284,113.795a12.191,12.191,0,0,1-10.4-18.53,12.191,12.191,0,1,0,16.742,16.742,12.2,12.2,0,0,1-6.339,1.788Zm0,0" fill="#01264b"/>
      <path id="Trazado_102258" data-name="Trazado 102258" d="M12.22,87.382a2.032,2.032,0,0,0,2.032-2.032V77.224a2.032,2.032,0,1,0-4.063,0V85.35A2.032,2.032,0,0,0,12.22,87.382Zm0,0" fill="#ffd947"/>
      <path id="Trazado_102259" data-name="Trazado 102259" d="M109.743,93.477a2.032,2.032,0,1,1-2.032-2.032A2.032,2.032,0,0,1,109.743,93.477Zm0,0" fill="#ffd947"/>
      <path id="Trazado_102260" data-name="Trazado 102260" d="M107.711,87.382a2.032,2.032,0,0,0,2.032-2.032V75.192a2.032,2.032,0,0,0-4.063,0V85.35A2.032,2.032,0,0,0,107.711,87.382Zm0,0" fill="#ffd947"/>
      <g id="Grupo_54363" data-name="Grupo 54363">
        <path id="Trazado_102261" data-name="Trazado 102261" d="M16.528,101.36a2.032,2.032,0,0,0-2.865,0L12.22,102.8l-1.442-1.442a2.032,2.032,0,0,0-2.865,2.865l1.442,1.442L7.913,107.11a2.026,2.026,0,1,0,2.865,2.865l1.442-1.442,1.442,1.442a2.026,2.026,0,1,0,2.865-2.865l-1.442-1.442,1.442-1.442a2.032,2.032,0,0,0,0-2.865Zm0,0" fill="#ffd947"/>
        <path id="Trazado_102262" data-name="Trazado 102262" d="M110.576,104.47l1.442-1.423a2.033,2.033,0,0,0-2.865-2.885l-1.442,1.442-1.442-1.442a2.033,2.033,0,1,0-2.865,2.885l1.442,1.423-1.442,1.442a2.033,2.033,0,1,0,2.865,2.885l1.442-1.442,1.442,1.442a2.033,2.033,0,1,0,2.865-2.885Zm0,0" fill="#ffd947"/>
        <path id="Trazado_102263" data-name="Trazado 102263" d="M42.7,113.795H30.506a2.032,2.032,0,1,0,0,4.063H42.7a2.032,2.032,0,0,0,0-4.063Zm0,0" fill="#ffd947"/>
        <path id="Trazado_102264" data-name="Trazado 102264" d="M58.95,109.731a2.032,2.032,0,0,0-2.032,2.032v2.032H52.855a2.032,2.032,0,1,0,0,4.063h6.1a2.032,2.032,0,0,0,2.032-2.032v-4.063A2.032,2.032,0,0,0,58.95,109.731Zm0,0" fill="#ffd947"/>
      </g>
      <path id="Trazado_102265" data-name="Trazado 102265" d="M97.553,101.6H89.426a2.032,2.032,0,1,0,0,4.063h8.127a2.032,2.032,0,1,0,0-4.063Zm0,0" fill="#ffd947"/>
    </g>
  </g>
</svg>
