<svg xmlns="http://www.w3.org/2000/svg" xmlns:xlink="http://www.w3.org/1999/xlink" width="68" height="68" viewBox="0 0 68 68">
  <defs>
    <clipPath id="clip-path">
      <rect id="Rectángulo_5456" data-name="Rectángulo 5456" width="68" height="68" transform="translate(1123 1274)" fill="#ffd947" stroke="#707070" stroke-width="1"/>
    </clipPath>
  </defs>
  <g id="Enmascarar_grupo_85" data-name="Enmascarar grupo 85" transform="translate(-1123 -1274)" clip-path="url(#clip-path)">
    <g id="red-social_2_" data-name="red-social (2)" transform="translate(1123 1274)">
      <path id="Trazado_106606" data-name="Trazado 106606" d="M66.9,15.355a14.2,14.2,0,0,1-5.352,11.132l-.132-.164V22.9a4.374,4.374,0,0,0-3.005-4.157l-3.575-1.2v-1.7a4.384,4.384,0,0,0,2.194-3.784V10.057a4.514,4.514,0,0,0-3.959-4.551,4.385,4.385,0,0,0-4.815,4.365v2.194a4.384,4.384,0,0,0,2.194,3.784v1.7l-3.575,1.2A4.374,4.374,0,0,0,43.871,22.9v3.422l-.132.164A14.257,14.257,0,1,1,66.9,15.355Zm0,0" fill="#fcd770"/>
      <path id="Trazado_106607" data-name="Trazado 106607" d="M66.9,52.645a14.2,14.2,0,0,1-5.352,11.132l-.132-.164V60.191a4.374,4.374,0,0,0-3.005-4.157l-3.575-1.2v-1.7a4.384,4.384,0,0,0,2.194-3.784V47.348A4.514,4.514,0,0,0,53.073,42.8a4.385,4.385,0,0,0-4.815,4.365v2.194a4.384,4.384,0,0,0,2.194,3.784v1.7l-3.575,1.2a4.374,4.374,0,0,0-3.005,4.157v3.422l-.132.164A14.257,14.257,0,1,1,66.9,52.645Zm0,0" fill="#ef7385"/>
      <path id="Trazado_106608" data-name="Trazado 106608" d="M6.449,63.777a14.258,14.258,0,1,1,17.812,0l-.132-.164V60.191a4.374,4.374,0,0,0-3.005-4.157l-3.575-1.2v-1.7a4.384,4.384,0,0,0,2.194-3.784V47.348A4.514,4.514,0,0,0,15.783,42.8a4.385,4.385,0,0,0-4.815,4.365v2.194a4.384,4.384,0,0,0,2.194,3.784v1.7l-3.575,1.2a4.374,4.374,0,0,0-3.005,4.157v3.422Zm0,0" fill="#e6e9ed"/>
      <g id="Grupo_57823" data-name="Grupo 57823">
        <path id="Trazado_106609" data-name="Trazado 106609" d="M61.419,26.323l.132.164a14.25,14.25,0,0,1-17.812,0l.132-.164V22.9a4.374,4.374,0,0,1,3.005-4.157l3.575-1.2v-1.7a4.384,4.384,0,0,1-2.194-3.784V9.871a4.385,4.385,0,0,1,4.815-4.365,4.514,4.514,0,0,1,3.959,4.551v2.007a4.384,4.384,0,0,1-2.194,3.784v1.7l3.575,1.2A4.374,4.374,0,0,1,61.419,22.9Zm0,0" fill="#f0d0b4"/>
        <path id="Trazado_106610" data-name="Trazado 106610" d="M61.419,63.613l.132.164a14.25,14.25,0,0,1-17.812,0l.132-.164V60.191a4.374,4.374,0,0,1,3.005-4.157l3.575-1.2v-1.7a4.384,4.384,0,0,1-2.194-3.784V47.161A4.385,4.385,0,0,1,53.073,42.8a4.514,4.514,0,0,1,3.959,4.551v2.007a4.384,4.384,0,0,1-2.194,3.784v1.7l3.575,1.2a4.374,4.374,0,0,1,3.005,4.157Zm0,0" fill="#f0d0b4"/>
        <path id="Trazado_106611" data-name="Trazado 106611" d="M24.129,63.613l.132.164a14.25,14.25,0,0,1-17.812,0l.132-.164V60.191a4.374,4.374,0,0,1,3.005-4.157l3.575-1.2v-1.7a4.384,4.384,0,0,1-2.194-3.784V47.161A4.385,4.385,0,0,1,15.783,42.8a4.514,4.514,0,0,1,3.959,4.551v2.007a4.384,4.384,0,0,1-2.194,3.784v1.7l3.575,1.2a4.374,4.374,0,0,1,3.005,4.157Zm0,0" fill="#f0d0b4"/>
      </g>
      <path id="Trazado_106612" data-name="Trazado 106612" d="M30.786,10.957l-.011.011H27.551a5.611,5.611,0,0,0-3.97,1.645,5.611,5.611,0,0,1-3.97,1.645H16.967a2.708,2.708,0,0,0-1.207,5.133,5.237,5.237,0,0,1,2.884,4.672v.68a5.226,5.226,0,0,0,.877,2.9l2.161,3.235v.011a15.353,15.353,0,0,1-12.064-.68l.011-.011a14.51,14.51,0,0,0,3.082-1.678,3.671,3.671,0,0,0-.767-6.4l-.373-.154a4.457,4.457,0,0,1-2.8-4.135,4.456,4.456,0,0,0-3.488-4.343l-3.7-.823H1.569A15.324,15.324,0,0,1,5.594,5.594L7.458,7.458a8.236,8.236,0,0,0,5.824,2.413h.428a8.261,8.261,0,0,0,4.935-1.645,8.261,8.261,0,0,1,4.935-1.645h4.629a15.4,15.4,0,0,1,2.577,4.376Zm0,0" fill="#69d6f4"/>
      <path id="Trazado_106613" data-name="Trazado 106613" d="M30.786,10.957a15.187,15.187,0,0,1,1.02,5.495A15.343,15.343,0,0,1,21.683,30.885v-.011l-2.161-3.235a5.226,5.226,0,0,1-.877-2.9v-.68a5.237,5.237,0,0,0-2.884-4.672,2.708,2.708,0,0,1,1.207-5.133H19.61a5.611,5.611,0,0,0,3.97-1.645,5.611,5.611,0,0,1,3.97-1.645h3.224Zm0,0" fill="#b4dd7f"/>
      <path id="Trazado_106614" data-name="Trazado 106614" d="M14.258,25.522a3.651,3.651,0,0,1-1.547,2.994,14.51,14.51,0,0,1-3.082,1.678l-.011.011a15.382,15.382,0,0,1-8.05-17.548h.022l3.7.823a4.456,4.456,0,0,1,3.488,4.343,4.457,4.457,0,0,0,2.8,4.135l.373.154a3.681,3.681,0,0,1,2.314,3.411Zm0,0" fill="#b4dd7f"/>
      <path id="Trazado_106615" data-name="Trazado 106615" d="M28.2,6.581H23.581a8.261,8.261,0,0,0-4.935,1.645A8.261,8.261,0,0,1,13.71,9.871h-.428A8.236,8.236,0,0,1,7.458,7.458L5.594,5.594a15.339,15.339,0,0,1,22.6.987Zm0,0" fill="#b4dd7f"/>
      <path id="Trazado_106616" data-name="Trazado 106616" d="M52.645,37.29a15.267,15.267,0,0,0-10.04,3.764L28.818,27.267A16.364,16.364,0,0,0,32.9,16.452h4.443a15.355,15.355,0,1,0,0-2.194H32.74A16.443,16.443,0,1,0,14.258,32.74v4.606a15.355,15.355,0,1,0,2.194,0V32.9a16.364,16.364,0,0,0,10.815-4.086L41.054,42.605A15.336,15.336,0,1,0,52.645,37.29ZM44.968,26.023V22.9a3.285,3.285,0,0,1,2.25-3.121l4.33-1.443V15.212L51,14.9a3.255,3.255,0,0,1-1.648-2.831V9.871a3.3,3.3,0,0,1,1.077-2.436A3.26,3.26,0,0,1,52.971,6.6a3.42,3.42,0,0,1,2.965,3.463v2.005A3.255,3.255,0,0,1,54.287,14.9l-.545.317v3.127l4.33,1.443a3.284,3.284,0,0,1,2.25,3.121v3.119a13.069,13.069,0,0,1-15.355,0Zm7.677-23.83a13.14,13.14,0,0,1,9.871,21.838V22.9a5.476,5.476,0,0,0-3.75-5.2l-2.831-.945v-.329a5.489,5.489,0,0,0,2.194-4.364V10.06a5.628,5.628,0,0,0-4.95-5.646,5.482,5.482,0,0,0-6.018,5.458v2.194a5.488,5.488,0,0,0,2.194,4.364v.329l-2.831.944a5.478,5.478,0,0,0-3.75,5.2v1.128A13.14,13.14,0,0,1,52.645,2.194ZM7.677,63.313V60.194a3.288,3.288,0,0,1,2.25-3.122l4.33-1.442V52.5l-.545-.317a3.255,3.255,0,0,1-1.648-2.831V47.161a3.291,3.291,0,0,1,3.616-3.276,3.421,3.421,0,0,1,2.965,3.464v2.005A3.255,3.255,0,0,1,17,52.186l-.545.317V55.63l4.33,1.442a3.288,3.288,0,0,1,2.25,3.122v3.119a13.069,13.069,0,0,1-15.355,0ZM28.516,52.645a13.094,13.094,0,0,1-3.29,8.677V60.194a5.476,5.476,0,0,0-3.75-5.2l-2.831-.945v-.329a5.489,5.489,0,0,0,2.194-4.364V47.35a5.628,5.628,0,0,0-4.95-5.646,5.482,5.482,0,0,0-6.018,5.458v2.194a5.489,5.489,0,0,0,2.194,4.364v.329l-2.831.944a5.478,5.478,0,0,0-3.75,5.2v1.128a13.153,13.153,0,1,1,23.032-8.677ZM25.549,5.484H23.581a9.38,9.38,0,0,0-5.594,1.865A7.169,7.169,0,0,1,13.71,8.774h-.432A7.076,7.076,0,0,1,8.238,6.686L7.187,5.635a14.205,14.205,0,0,1,18.362-.152ZM2.194,16.452a14.246,14.246,0,0,1,.23-2.481l2.628.584a3.333,3.333,0,0,1,2.626,3.273,5.522,5.522,0,0,0,3.487,5.15l.373.149a2.585,2.585,0,0,1,.543,4.5,13.018,13.018,0,0,1-2.436,1.348,14.27,14.27,0,0,1-7.45-12.524ZM12.278,30.084c.363-.216.732-.426,1.075-.67a4.778,4.778,0,0,0-1-8.325l-.373-.148a3.336,3.336,0,0,1-2.107-3.113,5.513,5.513,0,0,0-4.343-5.414l-2.557-.568A14.256,14.256,0,0,1,5.635,7.186L6.687,8.236a9.257,9.257,0,0,0,6.591,2.731h.431A9.38,9.38,0,0,0,19.3,9.1a7.169,7.169,0,0,1,4.277-1.426h4.087a14.239,14.239,0,0,1,1.42,2.194H27.552a6.667,6.667,0,0,0-4.747,1.966,4.491,4.491,0,0,1-3.2,1.324H16.97a3.808,3.808,0,0,0-1.7,7.214,4.107,4.107,0,0,1,2.282,3.693v.673a6.3,6.3,0,0,0,1.061,3.506l1.34,2.01a14,14,0,0,1-7.672-.173Zm9.826-.548-1.67-2.5a4.134,4.134,0,0,1-.692-2.29v-.673a6.289,6.289,0,0,0-3.5-5.655,1.615,1.615,0,0,1,.723-3.059h2.64a6.667,6.667,0,0,0,4.747-1.966,4.491,4.491,0,0,1,3.2-1.324h2.46A14.228,14.228,0,0,1,22.1,29.535ZM44.968,63.313V60.194a3.288,3.288,0,0,1,2.25-3.122l4.33-1.442V52.5L51,52.186a3.255,3.255,0,0,1-1.648-2.831V47.161a3.291,3.291,0,0,1,3.616-3.276,3.421,3.421,0,0,1,2.965,3.464v2.005a3.255,3.255,0,0,1-1.648,2.831l-.545.317V55.63l4.33,1.442a3.288,3.288,0,0,1,2.25,3.122v3.119a13.068,13.068,0,0,1-15.355,0Zm17.548-1.992V60.194a5.476,5.476,0,0,0-3.75-5.2l-2.831-.945v-.329a5.489,5.489,0,0,0,2.194-4.364V47.35a5.628,5.628,0,0,0-4.95-5.646,5.482,5.482,0,0,0-6.018,5.458v2.194a5.489,5.489,0,0,0,2.194,4.364v.329l-2.831.944a5.478,5.478,0,0,0-3.75,5.2v1.128a13.161,13.161,0,1,1,19.742,0Zm0,0"/>
    </g>
  </g>
</svg>
