<svg xmlns="http://www.w3.org/2000/svg" xmlns:xlink="http://www.w3.org/1999/xlink" width="118" height="139" viewBox="0 0 118 139">
  <defs>
    <clipPath id="clip-path">
      <rect id="Rectángulo_5227" data-name="Rectángulo 5227" width="118" height="139" transform="translate(614 2853)" fill="#ffd947" stroke="#707070" stroke-width="1"/>
    </clipPath>
  </defs>
  <g id="Enmascarar_grupo_65" data-name="Enmascarar grupo 65" transform="translate(-614 -2853)" clip-path="url(#clip-path)">
    <g id="actualizar" transform="translate(614 2863.5)">
      <g id="Grupo_54364" data-name="Grupo 54364">
        <path id="Trazado_102266" data-name="Trazado 102266" d="M59,83.43,64.531,93.8,59,104.172H43.586a3.458,3.458,0,0,1-3.155-4.87l6.2-13.828a3.457,3.457,0,0,1,3.155-2.044Z" fill="#004080"/>
      </g>
      <path id="Trazado_102267" data-name="Trazado 102267" d="M77.315,102.593a3.455,3.455,0,0,1-2.9,1.579H59V83.43h9.219a3.457,3.457,0,0,1,3.155,2.044L77.569,99.3A3.449,3.449,0,0,1,77.315,102.593Z" fill="#004080"/>
      <g id="Grupo_54365" data-name="Grupo 54365">
        <path id="Trazado_102268" data-name="Trazado 102268" d="M59,100.023l7.836,9.68L59,118H28.117a3.458,3.458,0,0,1-3.457-3.457v-.15a14.386,14.386,0,0,1,14.37-14.37Z" fill="#004080"/>
      </g>
      <path id="Trazado_102269" data-name="Trazado 102269" d="M93.34,114.393v.15A3.458,3.458,0,0,1,89.883,118H59V100.023H78.97A14.386,14.386,0,0,1,93.34,114.393Z" fill="#004080"/>
      <path id="Trazado_102270" data-name="Trazado 102270" d="M59,5.07l22.125,34.57L59,85.273H3.457V5.07Z" fill="#e6f0f2"/>
      <path id="Trazado_102271" data-name="Trazado 102271" d="M59,5.07h55.543v80.2H59Z" fill="#cfe2e6"/>
      <g id="Grupo_54366" data-name="Grupo 54366">
        <path id="Trazado_102272" data-name="Trazado 102272" d="M59,6.914l2.535-4.379L59,0H3.457A3.458,3.458,0,0,0,0,3.457v83.43a3.458,3.458,0,0,0,3.457,3.457H59l5.531-3.457L59,83.43H6.914V6.914Z" fill="#004080"/>
      </g>
      <path id="Trazado_102273" data-name="Trazado 102273" d="M118,3.457v83.43a3.458,3.458,0,0,1-3.457,3.457H59V83.43h52.086V6.914H59V0h55.543A3.458,3.458,0,0,1,118,3.457Z" fill="#032f5b"/>
      <path id="Trazado_102274" data-name="Trazado 102274" d="M59,17.285l9.449,30.191L59,73.059a27.887,27.887,0,0,1,0-55.773Z" fill="#0077ec"/>
      <path id="Trazado_102275" data-name="Trazado 102275" d="M86.887,45.172A27.886,27.886,0,0,1,59,73.059V17.285A27.886,27.886,0,0,1,86.887,45.172Z" fill="#046bd1"/>
      <g id="Grupo_54367" data-name="Grupo 54367">
        <path id="Trazado_102276" data-name="Trazado 102276" d="M59,13.828l3,3.688-3,3.227a24.457,24.457,0,0,0-24.43,24.43c0,.615.023,1.242.071,1.867a3.457,3.457,0,0,1-3.187,3.708c-.09.007-.177.009-.265.009a3.457,3.457,0,0,1-3.443-3.2c-.06-.8-.09-1.6-.09-2.388A31.379,31.379,0,0,1,59,13.828Z" fill="#ffd947"/>
        <path id="Trazado_102277" data-name="Trazado 102277" d="M59,69.6l3.457,3.227L59,76.516a31.611,31.611,0,0,1-3.681-.214,31.155,31.155,0,0,1-3.611-.641l-.062-.016a31.147,31.147,0,0,1-13.194-6.808L38.4,69.6a3.457,3.457,0,0,1-3.446,3.222c-.078,0-.159,0-.24-.007A3.457,3.457,0,0,1,31.5,69.134l.611-8.942a3.454,3.454,0,0,1,3.441-3.222c.081,0,.161,0,.242.009l.09,0a.186.186,0,0,0,.037,0l8.815.6a3.458,3.458,0,0,1-.23,6.907c-.081,0-.159,0-.24-.009l-.247-.016a24.252,24.252,0,0,0,9.286,4.464l.069.016A24.442,24.442,0,0,0,59,69.6Z" fill="#ffd947"/>
      </g>
      <g id="Grupo_54368" data-name="Grupo 54368">
        <path id="Trazado_102278" data-name="Trazado 102278" d="M86.5,21.21l-.611,8.942a3.436,3.436,0,0,1-1.516,2.627,3.538,3.538,0,0,1-.906.438,3.425,3.425,0,0,1-1.021.157h0c-.078,0-.157,0-.237-.009l-.09,0a.186.186,0,0,0-.037,0l-8.815-.6a3.457,3.457,0,1,1,.47-6.9l.247.016a24.236,24.236,0,0,0-9.293-4.466A24.482,24.482,0,0,0,59,20.742V13.828A31.235,31.235,0,0,1,79.549,21.51l.053-.77a3.457,3.457,0,1,1,6.9.47Z" fill="#f5c200"/>
        <path id="Trazado_102279" data-name="Trazado 102279" d="M90.344,45.172A31.379,31.379,0,0,1,59,76.516V69.6a24.457,24.457,0,0,0,24.43-24.43c0-.62-.023-1.251-.071-1.878a3.457,3.457,0,1,1,6.9-.516C90.314,43.575,90.344,44.381,90.344,45.172Z" fill="#f5c200"/>
      </g>
    </g>
  </g>
</svg>
